#define u000000_u0000FF_width 256
#define u000000_u0000FF_height 128
static unsigned char u000000_u0000FF_bits[] = {
   0x00, 0x00, 0x00, 0x00, 0x00, 0x00, 0x00, 0x00, 0x00, 0x00, 0x00, 0x00,
   0x00, 0x00, 0x00, 0x00, 0x00, 0x00, 0x00, 0x00, 0x00, 0x00, 0x00, 0x00,
   0x00, 0x00, 0x00, 0x00, 0x00, 0x00, 0x00, 0x00, 0x00, 0x00, 0x00, 0x00,
   0x00, 0x00, 0x00, 0x00, 0x00, 0x00, 0x00, 0x00, 0x00, 0x00, 0x00, 0x00,
   0x00, 0x00, 0x00, 0x00, 0x00, 0x00, 0x00, 0x00, 0x00, 0x00, 0x00, 0x00,
   0x00, 0x00, 0x00, 0x00, 0x00, 0x00, 0x00, 0x00, 0x00, 0x00, 0x00, 0x00,
   0x00, 0x00, 0x00, 0x00, 0x00, 0x00, 0x00, 0x00, 0x00, 0x00, 0x00, 0x00,
   0x00, 0x00, 0x00, 0x00, 0x00, 0x00, 0x00, 0x00, 0x00, 0x00, 0x00, 0x00,
   0x00, 0x00, 0x00, 0x00, 0x00, 0x00, 0x00, 0x00, 0x00, 0x00, 0x00, 0x00,
   0x00, 0x00, 0x00, 0x00, 0x00, 0x00, 0x00, 0x00, 0x00, 0x00, 0x00, 0x00,
   0x00, 0x00, 0x00, 0x00, 0x00, 0x00, 0x00, 0x00, 0x00, 0x00, 0x00, 0x00,
   0x00, 0x00, 0x00, 0x00, 0x00, 0x00, 0x00, 0x00, 0x00, 0x00, 0x00, 0x00,
   0x00, 0x00, 0x00, 0x00, 0x00, 0x00, 0x00, 0x00, 0x00, 0x00, 0x00, 0x00,
   0x00, 0x00, 0x00, 0x00, 0x00, 0x00, 0x00, 0x00, 0x00, 0x00, 0x00, 0x00,
   0x00, 0x00, 0x00, 0x00, 0x00, 0x00, 0x00, 0x00, 0x00, 0x00, 0x00, 0x00,
   0x00, 0x00, 0x00, 0x00, 0x00, 0x00, 0x00, 0x00, 0x00, 0x00, 0x00, 0x00,
   0x00, 0x00, 0x00, 0x00, 0x00, 0x00, 0x00, 0x00, 0x00, 0x00, 0x00, 0x00,
   0x00, 0x00, 0x00, 0x00, 0x00, 0x00, 0x00, 0x00, 0x00, 0x00, 0x00, 0x00,
   0x00, 0x00, 0x00, 0x00, 0x00, 0x00, 0x00, 0x00, 0x00, 0x00, 0x00, 0x00,
   0x00, 0x00, 0x00, 0x00, 0x00, 0x00, 0x00, 0x00, 0x00, 0x00, 0x00, 0x00,
   0x00, 0x00, 0x00, 0x00, 0x00, 0x00, 0x00, 0x00, 0x00, 0x00, 0x00, 0x00,
   0x00, 0x00, 0x00, 0x00, 0x00, 0x00, 0x00, 0x00, 0x00, 0x00, 0x00, 0x00,
   0x00, 0x00, 0x00, 0x00, 0x00, 0x00, 0x00, 0x00, 0x00, 0x00, 0x00, 0x00,
   0x00, 0x00, 0x00, 0x00, 0x00, 0x00, 0x00, 0x00, 0x00, 0x00, 0x00, 0x00,
   0x00, 0x00, 0x00, 0x00, 0x00, 0x00, 0x00, 0x00, 0x00, 0x00, 0x00, 0x00,
   0x00, 0x00, 0x00, 0x00, 0x00, 0x00, 0x00, 0x00, 0x00, 0x00, 0x00, 0x00,
   0x00, 0x00, 0x00, 0x00, 0x00, 0x00, 0x00, 0x00, 0x00, 0x00, 0x00, 0x00,
   0x00, 0x00, 0x00, 0x00, 0x00, 0x00, 0x00, 0x00, 0x00, 0x00, 0x00, 0x00,
   0x00, 0x00, 0x00, 0x00, 0x00, 0x00, 0x00, 0x00, 0x00, 0x00, 0x00, 0x00,
   0x00, 0x00, 0x00, 0x00, 0x00, 0x00, 0x00, 0x00, 0x00, 0x00, 0x00, 0x00,
   0x00, 0x00, 0x00, 0x00, 0x00, 0x00, 0x00, 0x00, 0x00, 0x00, 0x00, 0x00,
   0x00, 0x00, 0x00, 0x00, 0x00, 0x00, 0x00, 0x00, 0x00, 0x00, 0x00, 0x00,
   0x00, 0x00, 0x00, 0x00, 0x00, 0x00, 0x00, 0x00, 0x00, 0x00, 0x00, 0x00,
   0x00, 0x00, 0x00, 0x00, 0x00, 0x00, 0x00, 0x00, 0x00, 0x00, 0x00, 0x00,
   0x00, 0x00, 0x00, 0x00, 0x00, 0x00, 0x00, 0x00, 0x00, 0x00, 0x00, 0x00,
   0x00, 0x00, 0x00, 0x00, 0x00, 0x00, 0x00, 0x00, 0x00, 0x00, 0x00, 0x00,
   0x00, 0x00, 0x00, 0x00, 0x00, 0x00, 0x00, 0x00, 0x00, 0x00, 0x00, 0x00,
   0x00, 0x00, 0x00, 0x00, 0x00, 0x00, 0x00, 0x00, 0x00, 0x00, 0x00, 0x00,
   0x00, 0x00, 0x00, 0x00, 0x00, 0x00, 0x00, 0x00, 0x00, 0x00, 0x00, 0x00,
   0x00, 0x00, 0x00, 0x00, 0x00, 0x00, 0x00, 0x00, 0x00, 0x00, 0x00, 0x00,
   0x00, 0x00, 0x00, 0x00, 0x00, 0x00, 0x00, 0x00, 0x00, 0x00, 0x00, 0x00,
   0x00, 0x00, 0x00, 0x00, 0x00, 0x00, 0x00, 0x00, 0x00, 0x00, 0x00, 0x00,
   0x00, 0x00, 0x00, 0x00, 0x00, 0x00, 0x00, 0x00, 0x00, 0x00, 0x36, 0x00,
   0x08, 0x40, 0x00, 0x07, 0x40, 0x01, 0x00, 0x00, 0x00, 0x00, 0x00, 0x40,
   0x00, 0x00, 0x00, 0x00, 0x00, 0x00, 0x00, 0x00, 0x00, 0x00, 0x00, 0x00,
   0x40, 0x00, 0x01, 0x00, 0x00, 0x1c, 0x36, 0x48, 0x1c, 0x46, 0x0c, 0x07,
   0x20, 0x02, 0x00, 0x00, 0x00, 0x00, 0x00, 0x40, 0x18, 0x08, 0x18, 0x1c,
   0x10, 0x3f, 0x3c, 0x7f, 0x1c, 0x1c, 0x00, 0x00, 0x20, 0x00, 0x02, 0x1c,
   0x00, 0x1c, 0x24, 0x48, 0x2a, 0x29, 0x12, 0x04, 0x10, 0x04, 0x00, 0x00,
   0x00, 0x00, 0x00, 0x20, 0x24, 0x0e, 0x24, 0x22, 0x18, 0x01, 0x42, 0x41,
   0x22, 0x22, 0x00, 0x00, 0x20, 0x00, 0x02, 0x22, 0x00, 0x1c, 0x24, 0x48,
   0x49, 0x29, 0x12, 0x04, 0x10, 0x04, 0x08, 0x08, 0x00, 0x00, 0x00, 0x20,
   0x24, 0x08, 0x42, 0x41, 0x14, 0x01, 0x62, 0x41, 0x41, 0x41, 0x00, 0x00,
   0x10, 0x00, 0x04, 0x41, 0x00, 0x1c, 0x12, 0xfe, 0x69, 0x29, 0x12, 0x03,
   0x08, 0x08, 0x1c, 0x08, 0x00, 0x00, 0x00, 0x10, 0x42, 0x08, 0x46, 0x41,
   0x14, 0x01, 0x01, 0x20, 0x41, 0x41, 0x00, 0x00, 0x10, 0x00, 0x04, 0x43,
   0x00, 0x1c, 0x00, 0x24, 0x09, 0x19, 0x0a, 0x00, 0x08, 0x08, 0x49, 0x08,
   0x00, 0x00, 0x00, 0x10, 0x42, 0x08, 0x40, 0x40, 0x12, 0x1d, 0x01, 0x20,
   0x41, 0x41, 0x1c, 0x1c, 0x08, 0x7f, 0x08, 0x40, 0x00, 0x1c, 0x00, 0x24,
   0x0a, 0x16, 0x04, 0x00, 0x08, 0x08, 0x6b, 0x08, 0x00, 0x00, 0x00, 0x10,
   0x42, 0x08, 0x20, 0x20, 0x12, 0x23, 0x1d, 0x20, 0x22, 0x41, 0x1c, 0x1c,
   0x08, 0x00, 0x08, 0x20, 0x00, 0x08, 0x00, 0x24, 0x1c, 0x08, 0x74, 0x00,
   0x08, 0x08, 0x1c, 0x7f, 0x00, 0x7f, 0x00, 0x08, 0x42, 0x08, 0x10, 0x1c,
   0x11, 0x41, 0x23, 0x10, 0x1c, 0x62, 0x00, 0x00, 0x04, 0x00, 0x10, 0x20,
   0x00, 0x08, 0x00, 0x24, 0x28, 0x08, 0x2a, 0x00, 0x08, 0x08, 0x6b, 0x08,
   0x00, 0x00, 0x00, 0x08, 0x42, 0x08, 0x10, 0x20, 0x11, 0x40, 0x41, 0x10,
   0x22, 0x5c, 0x00, 0x00, 0x04, 0x00, 0x10, 0x10, 0x00, 0x08, 0x00, 0x24,
   0x48, 0x34, 0x2a, 0x00, 0x08, 0x08, 0x49, 0x08, 0x00, 0x00, 0x00, 0x08,
   0x42, 0x08, 0x08, 0x40, 0x7f, 0x40, 0x41, 0x10, 0x41, 0x40, 0x00, 0x00,
   0x08, 0x7f, 0x08, 0x08, 0x00, 0x08, 0x00, 0x7f, 0x4b, 0x4c, 0x29, 0x00,
   0x08, 0x08, 0x1c, 0x08, 0x00, 0x00, 0x00, 0x04, 0x42, 0x08, 0x04, 0x41,
   0x10, 0x43, 0x41, 0x10, 0x41, 0x40, 0x00, 0x00, 0x08, 0x00, 0x08, 0x08,
   0x00, 0x00, 0x00, 0x12, 0x49, 0x4a, 0x11, 0x00, 0x08, 0x08, 0x08, 0x08,
   0x07, 0x00, 0x02, 0x04, 0x42, 0x08, 0x44, 0x41, 0x10, 0x41, 0x41, 0x08,
   0x41, 0x41, 0x00, 0x1c, 0x10, 0x00, 0x04, 0x00, 0x00, 0x00, 0x00, 0x12,
   0x29, 0x4a, 0x31, 0x00, 0x10, 0x04, 0x00, 0x00, 0x07, 0x00, 0x07, 0x02,
   0x24, 0x08, 0x42, 0x22, 0x10, 0x22, 0x22, 0x08, 0x22, 0x22, 0x1c, 0x1c,
   0x10, 0x00, 0x04, 0x00, 0x00, 0x08, 0x00, 0x12, 0x1e, 0x4a, 0x4e, 0x00,
   0x10, 0x04, 0x00, 0x00, 0x04, 0x00, 0x07, 0x02, 0x24, 0x3e, 0x7e, 0x1c,
   0x3c, 0x1c, 0x1c, 0x08, 0x1c, 0x1c, 0x1c, 0x18, 0x20, 0x00, 0x02, 0x08,
   0x00, 0x1c, 0x00, 0x12, 0x08, 0x31, 0x00, 0x00, 0x20, 0x02, 0x00, 0x00,
   0x04, 0x00, 0x02, 0x01, 0x18, 0x00, 0x00, 0x00, 0x00, 0x00, 0x00, 0x08,
   0x00, 0x00, 0x00, 0x08, 0x20, 0x00, 0x02, 0x1c, 0x00, 0x08, 0x00, 0x00,
   0x08, 0x01, 0x00, 0x00, 0x40, 0x01, 0x00, 0x00, 0x03, 0x00, 0x00, 0x01,
   0x00, 0x00, 0x00, 0x00, 0x00, 0x00, 0x00, 0x00, 0x00, 0x00, 0x00, 0x0c,
   0x40, 0x00, 0x01, 0x08, 0x00, 0x00, 0x00, 0x00, 0x00, 0x00, 0x00, 0x00,
   0x00, 0x00, 0x00, 0x00, 0x00, 0x00, 0x00, 0x00, 0x00, 0x00, 0x00, 0x00,
   0x00, 0x00, 0x00, 0x00, 0x00, 0x00, 0x00, 0x78, 0x00, 0x0f, 0x08, 0x00,
   0x3c, 0x08, 0x1f, 0x5c, 0x1f, 0x7f, 0x7f, 0x58, 0xe7, 0x7f, 0xf8, 0x67,
   0x0f, 0x41, 0xe1, 0x1c, 0x1f, 0x1c, 0x1f, 0x2c, 0x7f, 0xe7, 0x63, 0x63,
   0x77, 0x63, 0x7f, 0x08, 0x01, 0x08, 0x14, 0x00, 0x42, 0x14, 0x22, 0x62,
   0x22, 0x42, 0x42, 0x64, 0x42, 0x08, 0x40, 0x22, 0x02, 0x63, 0x43, 0x22,
   0x22, 0x22, 0x22, 0x32, 0x49, 0x42, 0x41, 0x41, 0x22, 0x41, 0x21, 0x08,
   0x01, 0x08, 0x22, 0x00, 0x41, 0x14, 0x42, 0x42, 0x22, 0x42, 0x42, 0x42,
   0x42, 0x08, 0x40, 0x22, 0x02, 0x55, 0x45, 0x41, 0x42, 0x22, 0x42, 0x21,
   0x49, 0x42, 0x41, 0x41, 0x22, 0x22, 0x11, 0x08, 0x02, 0x08, 0x41, 0x00,
   0x59, 0x14, 0x42, 0x01, 0x42, 0x02, 0x02, 0x02, 0x42, 0x08, 0x40, 0x12,
   0x02, 0x55, 0x45, 0x41, 0x42, 0x41, 0x42, 0x01, 0x08, 0x42, 0x41, 0x41,
   0x14, 0x22, 0x10, 0x08, 0x02, 0x08, 0x00, 0x00, 0x65, 0x22, 0x42, 0x01,
   0x42, 0x12, 0x12, 0x01, 0x42, 0x08, 0x40, 0x12, 0x02, 0x55, 0x45, 0x41,
   0x42, 0x41, 0x42, 0x01, 0x08, 0x42, 0x41, 0x49, 0x14, 0x22, 0x08, 0x08,
   0x04, 0x08, 0x00, 0x00, 0x45, 0x22, 0x22, 0x01, 0x42, 0x12, 0x12, 0x01,
   0x7e, 0x08, 0x40, 0x0e, 0x02, 0x49, 0x49, 0x41, 0x42, 0x41, 0x22, 0x06,
   0x08, 0x42, 0x22, 0x49, 0x08, 0x14, 0x08, 0x08, 0x04, 0x08, 0x00, 0x00,
   0x45, 0x22, 0x1e, 0x01, 0x42, 0x1e, 0x1e, 0xf1, 0x42, 0x08, 0x40, 0x0a,
   0x02, 0x49, 0x49, 0x41, 0x22, 0x41, 0x1e, 0x18, 0x08, 0x42, 0x22, 0x49,
   0x14, 0x14, 0x08, 0x08, 0x08, 0x08, 0x00, 0x00, 0x45, 0x22, 0x22, 0x01,
   0x42, 0x12, 0x12, 0x41, 0x42, 0x08, 0x40, 0x12, 0x02, 0x49, 0x49, 0x41,
   0x1e, 0x41, 0x12, 0x20, 0x08, 0x42, 0x22, 0x55, 0x14, 0x08, 0x04, 0x08,
   0x08, 0x08, 0x00, 0x00, 0x65, 0x3e, 0x42, 0x01, 0x42, 0x12, 0x12, 0x41,
   0x42, 0x08, 0x41, 0x12, 0x02, 0x41, 0x51, 0x41, 0x02, 0x41, 0x22, 0x41,
   0x08, 0x42, 0x22, 0x55, 0x14, 0x08, 0x04, 0x08, 0x10, 0x08, 0x00, 0x00,
   0x59, 0x41, 0x42, 0x41, 0x42, 0x42, 0x02, 0x41, 0x42, 0x08, 0x41, 0x22,
   0x42, 0x41, 0x51, 0x41, 0x02, 0x5d, 0x22, 0x41, 0x08, 0x42, 0x14, 0x55,
   0x22, 0x08, 0x42, 0x08, 0x10, 0x08, 0x00, 0x00, 0x01, 0x41, 0x42, 0x42,
   0x22, 0x42, 0x02, 0x42, 0x42, 0x08, 0x41, 0x22, 0x42, 0x41, 0x51, 0x41,
   0x02, 0x22, 0x22, 0x41, 0x08, 0x42, 0x14, 0x22, 0x22, 0x08, 0x42, 0x08,
   0x20, 0x08, 0x00, 0x00, 0x42, 0x41, 0x42, 0x42, 0x22, 0x42, 0x02, 0x66,
   0x42, 0x08, 0x22, 0x42, 0x42, 0x41, 0x61, 0x22, 0x02, 0x22, 0x42, 0x23,
   0x08, 0x42, 0x08, 0x22, 0x41, 0x08, 0x41, 0x08, 0x20, 0x08, 0x00, 0x00,
   0x3c, 0x63, 0x3f, 0x3c, 0x1f, 0x7f, 0x0f, 0x58, 0xe7, 0x7f, 0x1c, 0xc7,
   0x7f, 0x63, 0x43, 0x1c, 0x0f, 0x1c, 0xc7, 0x1d, 0x3e, 0x3c, 0x08, 0x22,
   0x63, 0x3e, 0x7f, 0x08, 0x40, 0x08, 0x00, 0x00, 0x00, 0x00, 0x00, 0x00,
   0x00, 0x00, 0x00, 0x00, 0x00, 0x00, 0x00, 0x00, 0x00, 0x00, 0x00, 0x00,
   0x00, 0x10, 0x00, 0x00, 0x00, 0x00, 0x00, 0x00, 0x00, 0x00, 0x00, 0x08,
   0x40, 0x08, 0x00, 0x00, 0x00, 0x00, 0x00, 0x00, 0x00, 0x00, 0x00, 0x00,
   0x00, 0x00, 0x00, 0x00, 0x00, 0x00, 0x00, 0x00, 0x00, 0x60, 0x00, 0x00,
   0x00, 0x00, 0x00, 0x00, 0x00, 0x00, 0x00, 0x78, 0x00, 0x0f, 0x00, 0x7f,
   0x0c, 0x00, 0x00, 0x00, 0x00, 0x00, 0x00, 0x00, 0x00, 0x18, 0x60, 0x00,
   0x00, 0x00, 0x00, 0x00, 0x00, 0x00, 0x00, 0x00, 0x00, 0x00, 0x00, 0x00,
   0x00, 0x00, 0x00, 0x60, 0x08, 0x03, 0x06, 0x00, 0x0c, 0x00, 0x03, 0x00,
   0x60, 0x00, 0x70, 0x00, 0x03, 0x18, 0x60, 0x03, 0x1e, 0x00, 0x00, 0x00,
   0x00, 0x00, 0x00, 0x00, 0x00, 0x00, 0x00, 0x00, 0x00, 0x00, 0x00, 0x10,
   0x08, 0x04, 0x49, 0x00, 0x04, 0x00, 0x02, 0x00, 0x20, 0x00, 0x88, 0x00,
   0x02, 0x00, 0x00, 0x02, 0x10, 0x00, 0x00, 0x00, 0x00, 0x00, 0x00, 0x00,
   0x04, 0x00, 0x00, 0x00, 0x00, 0x00, 0x00, 0x10, 0x08, 0x04, 0x30, 0x00,
   0x04, 0x00, 0x02, 0x00, 0x20, 0x00, 0x08, 0x00, 0x02, 0x00, 0x00, 0x02,
   0x10, 0x00, 0x00, 0x00, 0x00, 0x00, 0x00, 0x00, 0x04, 0x00, 0x00, 0x00,
   0x00, 0x00, 0x00, 0x10, 0x08, 0x04, 0x00, 0x00, 0x08, 0x00, 0x02, 0x00,
   0x20, 0x00, 0x08, 0x00, 0x02, 0x00, 0x00, 0x02, 0x10, 0x00, 0x00, 0x00,
   0x00, 0x00, 0x00, 0x00, 0x04, 0x00, 0x00, 0x00, 0x00, 0x00, 0x00, 0x10,
   0x08, 0x04, 0x00, 0x00, 0x00, 0x3c, 0x1e, 0x5c, 0x3c, 0x1c, 0x7f, 0xdc,
   0x3a, 0x1e, 0x7c, 0x42, 0x10, 0x36, 0x3b, 0x1c, 0x1f, 0x7c, 0x37, 0x5c,
   0x3f, 0x63, 0x63, 0x49, 0x77, 0xe7, 0x7e, 0x10, 0x08, 0x04, 0x00, 0x00,
   0x00, 0x42, 0x22, 0x62, 0x22, 0x22, 0x08, 0x22, 0x46, 0x10, 0x40, 0x22,
   0x10, 0x49, 0x46, 0x22, 0x22, 0x22, 0x4c, 0x62, 0x04, 0x42, 0x41, 0x49,
   0x22, 0x42, 0x22, 0x08, 0x08, 0x08, 0x00, 0x00, 0x00, 0x40, 0x42, 0x41,
   0x21, 0x41, 0x08, 0x22, 0x42, 0x10, 0x40, 0x12, 0x10, 0x49, 0x42, 0x41,
   0x42, 0x21, 0x44, 0x42, 0x04, 0x42, 0x41, 0x49, 0x14, 0x44, 0x10, 0x04,
   0x08, 0x10, 0x00, 0x00, 0x00, 0x7c, 0x42, 0x01, 0x21, 0x7f, 0x08, 0x22,
   0x42, 0x10, 0x40, 0x1a, 0x10, 0x49, 0x42, 0x41, 0x42, 0x21, 0x04, 0x02,
   0x04, 0x42, 0x22, 0x49, 0x14, 0x24, 0x10, 0x08, 0x08, 0x08, 0x00, 0x00,
   0x00, 0x42, 0x42, 0x01, 0x21, 0x01, 0x08, 0x1c, 0x42, 0x10, 0x40, 0x26,
   0x10, 0x49, 0x42, 0x41, 0x42, 0x21, 0x04, 0x3c, 0x04, 0x42, 0x22, 0x55,
   0x08, 0x28, 0x08, 0x10, 0x08, 0x04, 0x00, 0x00, 0x00, 0x41, 0x42, 0x01,
   0x21, 0x01, 0x08, 0x02, 0x42, 0x10, 0x40, 0x22, 0x10, 0x49, 0x42, 0x41,
   0x42, 0x21, 0x04, 0x40, 0x04, 0x42, 0x22, 0x55, 0x14, 0x10, 0x08, 0x10,
   0x08, 0x04, 0x00, 0x00, 0x00, 0x41, 0x42, 0x41, 0x21, 0x41, 0x08, 0x1e,
   0x42, 0x10, 0x40, 0x42, 0x10, 0x49, 0x42, 0x41, 0x22, 0x22, 0x04, 0x41,
   0x44, 0x42, 0x14, 0x22, 0x14, 0x10, 0x44, 0x10, 0x08, 0x04, 0x00, 0x00,
   0x00, 0x61, 0x22, 0x42, 0x22, 0x42, 0x08, 0x21, 0x42, 0x10, 0x41, 0x42,
   0x10, 0x49, 0x42, 0x22, 0x1e, 0x3c, 0x04, 0x43, 0x44, 0x62, 0x14, 0x22,
   0x22, 0x08, 0x42, 0x10, 0x08, 0x04, 0x00, 0x00, 0x00, 0xde, 0x1e, 0x3c,
   0x7c, 0x3c, 0x3e, 0x41, 0xe7, 0xff, 0x41, 0xc7, 0xff, 0xdb, 0xe7, 0x1c,
   0x02, 0x20, 0x3f, 0x3d, 0x38, 0x9c, 0x08, 0x22, 0x77, 0x09, 0x7f, 0x10,
   0x08, 0x04, 0x00, 0x00, 0x00, 0x00, 0x00, 0x00, 0x00, 0x00, 0x00, 0x41,
   0x00, 0x00, 0x22, 0x00, 0x00, 0x00, 0x00, 0x00, 0x02, 0x20, 0x00, 0x00,
   0x00, 0x00, 0x00, 0x00, 0x00, 0x05, 0x00, 0x10, 0x08, 0x04, 0x00, 0x00,
   0x00, 0x00, 0x00, 0x00, 0x00, 0x00, 0x00, 0x3e, 0x00, 0x00, 0x1c, 0x00,
   0x00, 0x00, 0x00, 0x00, 0x0f, 0x78, 0x00, 0x00, 0x00, 0x00, 0x00, 0x00,
   0x00, 0x02, 0x00, 0x60, 0x08, 0x03, 0x00, 0x00, 0x00, 0x00, 0x00, 0x00,
   0x00, 0x00, 0x00, 0x00, 0x00, 0x00, 0x00, 0x00, 0x00, 0x00, 0x00, 0x00,
   0x00, 0x00, 0x00, 0x00, 0x00, 0x00, 0x00, 0x00, 0x00, 0x00, 0x00, 0x00,
   0x00, 0x00, 0x00, 0x00, 0x00, 0x00, 0x00, 0x00, 0x00, 0x00, 0x00, 0x00,
   0x00, 0x00, 0x00, 0x00, 0x00, 0x00, 0x00, 0x00, 0x00, 0x00, 0x00, 0x00,
   0x00, 0x00, 0x00, 0x00, 0x00, 0x00, 0x00, 0x00, 0x00, 0x00, 0x00, 0x00,
   0x00, 0x00, 0x00, 0x00, 0x00, 0x00, 0x00, 0x00, 0x00, 0x00, 0x00, 0x00,
   0x00, 0x00, 0x00, 0x00, 0x00, 0x00, 0x00, 0x00, 0x00, 0x00, 0x00, 0x00,
   0x00, 0x00, 0x00, 0x00, 0x00, 0x00, 0x00, 0x00, 0x00, 0x00, 0x00, 0x00,
   0x00, 0x00, 0x00, 0x00, 0x00, 0x00, 0x00, 0x00, 0x00, 0x00, 0x00, 0x00,
   0x00, 0x00, 0x00, 0x00, 0x00, 0x00, 0x00, 0x00, 0x00, 0x00, 0x00, 0x00,
   0x00, 0x00, 0x00, 0x00, 0x00, 0x00, 0x00, 0x00, 0x00, 0x00, 0x00, 0x00,
   0x00, 0x00, 0x00, 0x00, 0x00, 0x00, 0x00, 0x00, 0x00, 0x00, 0x00, 0x00,
   0x00, 0x00, 0x00, 0x00, 0x00, 0x00, 0x00, 0x00, 0x00, 0x00, 0x00, 0x00,
   0x00, 0x00, 0x00, 0x00, 0x00, 0x00, 0x00, 0x00, 0x00, 0x00, 0x00, 0x00,
   0x00, 0x00, 0x00, 0x00, 0x00, 0x00, 0x00, 0x00, 0x00, 0x00, 0x00, 0x00,
   0x00, 0x00, 0x00, 0x00, 0x00, 0x00, 0x00, 0x00, 0x00, 0x00, 0x00, 0x00,
   0x00, 0x00, 0x00, 0x00, 0x00, 0x00, 0x00, 0x00, 0x00, 0x00, 0x00, 0x00,
   0x00, 0x00, 0x00, 0x00, 0x00, 0x00, 0x00, 0x00, 0x00, 0x00, 0x00, 0x00,
   0x00, 0x00, 0x00, 0x00, 0x00, 0x00, 0x00, 0x00, 0x00, 0x00, 0x00, 0x00,
   0x00, 0x00, 0x00, 0x00, 0x00, 0x00, 0x00, 0x00, 0x00, 0x00, 0x00, 0x00,
   0x00, 0x00, 0x00, 0x00, 0x00, 0x00, 0x00, 0x00, 0x00, 0x00, 0x00, 0x00,
   0x00, 0x00, 0x00, 0x00, 0x00, 0x00, 0x00, 0x00, 0x00, 0x00, 0x00, 0x00,
   0x00, 0x00, 0x00, 0x00, 0x00, 0x00, 0x00, 0x00, 0x00, 0x00, 0x00, 0x00,
   0x00, 0x00, 0x00, 0x00, 0x00, 0x00, 0x00, 0x00, 0x00, 0x00, 0x00, 0x00,
   0x00, 0x00, 0x00, 0x00, 0x00, 0x00, 0x00, 0x00, 0x00, 0x00, 0x00, 0x00,
   0x00, 0x00, 0x00, 0x00, 0x00, 0x00, 0x00, 0x00, 0x00, 0x00, 0x00, 0x00,
   0x00, 0x00, 0x00, 0x00, 0x00, 0x00, 0x00, 0x00, 0x00, 0x00, 0x00, 0x00,
   0x00, 0x00, 0x00, 0x00, 0x00, 0x00, 0x00, 0x00, 0x00, 0x00, 0x00, 0x00,
   0x00, 0x00, 0x00, 0x00, 0x00, 0x00, 0x00, 0x00, 0x00, 0x00, 0x00, 0x00,
   0x00, 0x00, 0x00, 0x00, 0x00, 0x00, 0x00, 0x00, 0x00, 0x00, 0x00, 0x00,
   0x00, 0x00, 0x00, 0x00, 0x00, 0x00, 0x00, 0x00, 0x00, 0x00, 0x00, 0x00,
   0x00, 0x00, 0x00, 0x00, 0x00, 0x00, 0x00, 0x00, 0x00, 0x00, 0x00, 0x00,
   0x00, 0x00, 0x00, 0x00, 0x00, 0x00, 0x00, 0x00, 0x00, 0x00, 0x00, 0x00,
   0x00, 0x00, 0x00, 0x00, 0x00, 0x00, 0x00, 0x00, 0x00, 0x00, 0x00, 0x00,
   0x00, 0x00, 0x00, 0x00, 0x00, 0x00, 0x00, 0x00, 0x00, 0x00, 0x00, 0x00,
   0x00, 0x00, 0x00, 0x00, 0x00, 0x00, 0x00, 0x00, 0x00, 0x00, 0x00, 0x00,
   0x00, 0x00, 0x00, 0x00, 0x00, 0x00, 0x00, 0x00, 0x00, 0x00, 0x00, 0x00,
   0x00, 0x00, 0x00, 0x00, 0x00, 0x00, 0x00, 0x00, 0x00, 0x00, 0x00, 0x00,
   0x00, 0x00, 0x00, 0x00, 0x00, 0x00, 0x00, 0x00, 0x00, 0x00, 0x00, 0x00,
   0x00, 0x00, 0x00, 0x00, 0x00, 0x00, 0x00, 0x00, 0x00, 0x00, 0x00, 0x00,
   0x00, 0x00, 0x00, 0x00, 0x00, 0x00, 0x00, 0x00, 0x00, 0x00, 0x00, 0x00,
   0x00, 0x00, 0x00, 0x00, 0x00, 0x00, 0x00, 0x00, 0x00, 0x00, 0x00, 0x00,
   0x00, 0x00, 0x00, 0x00, 0x00, 0x00, 0x00, 0x00, 0x00, 0x41, 0x00, 0x00,
   0x00, 0x00, 0x00, 0x00, 0x00, 0x00, 0x00, 0x00, 0x00, 0x00, 0x00, 0x00,
   0x00, 0x00, 0x00, 0x00, 0x00, 0x00, 0x00, 0x00, 0x00, 0x00, 0x00, 0x10,
   0x00, 0x08, 0x00, 0x00, 0x00, 0x41, 0x08, 0x3c, 0x24, 0x3c, 0x38, 0x00,
   0x00, 0x00, 0x3c, 0x00, 0x1c, 0x00, 0x18, 0x18, 0x30, 0x00, 0xfe, 0x00,
   0x00, 0x10, 0x18, 0x00, 0x02, 0x02, 0x06, 0x38, 0x00, 0x1c, 0x08, 0x00,
   0x00, 0x22, 0x08, 0x42, 0x24, 0x42, 0x44, 0x00, 0x00, 0x00, 0x42, 0x7f,
   0x22, 0x00, 0x24, 0x24, 0x18, 0x00, 0x5f, 0x00, 0x00, 0x18, 0x24, 0x00,
   0x03, 0x03, 0x09, 0x10, 0x00, 0x08, 0x3c, 0x00, 0x00, 0x22, 0x08, 0x02,
   0x24, 0x99, 0x78, 0x90, 0x00, 0x00, 0x81, 0x00, 0x22, 0x00, 0x20, 0x20,
   0x0c, 0x00, 0x5f, 0x00, 0x00, 0x14, 0x24, 0x00, 0x02, 0x02, 0x08, 0x00,
   0x00, 0x00, 0x4a, 0x30, 0x00, 0x7f, 0x08, 0x04, 0x00, 0xa5, 0x44, 0x48,
   0x00, 0x00, 0x9f, 0x00, 0x22, 0x08, 0x10, 0x18, 0x00, 0x00, 0x5f, 0x00,
   0x00, 0x10, 0x24, 0x09, 0x02, 0x02, 0x06, 0x10, 0x00, 0x00, 0x49, 0x48,
   0x42, 0x14, 0x08, 0x3c, 0x00, 0xc3, 0x64, 0x24, 0x00, 0x00, 0xa3, 0x00,
   0x1c, 0x08, 0x08, 0x20, 0x00, 0x00, 0x5f, 0x00, 0x00, 0x10, 0x24, 0x12,
   0x82, 0x82, 0x88, 0x10, 0x00, 0x08, 0x09, 0x08, 0x3c, 0x08, 0x00, 0x42,
   0x00, 0x83, 0x58, 0x12, 0x00, 0x00, 0xa3, 0x00, 0x00, 0x08, 0x04, 0x24,
   0x00, 0x00, 0x5f, 0x18, 0x00, 0x10, 0x18, 0x24, 0x62, 0x62, 0x69, 0x10,
   0x00, 0x08, 0x09, 0x08, 0x24, 0x7f, 0x00, 0x42, 0x00, 0x83, 0x00, 0x09,
   0x7f, 0x7f, 0x9f, 0x00, 0x00, 0x7f, 0x3c, 0x18, 0x00, 0x44, 0x5e, 0x18,
   0x00, 0x10, 0x00, 0x48, 0x10, 0x10, 0x16, 0x08, 0x00, 0x08, 0x09, 0x08,
   0x24, 0x08, 0x00, 0x42, 0x00, 0x83, 0x7c, 0x09, 0x7f, 0x7f, 0xa3, 0x00,
   0x00, 0x08, 0x00, 0x00, 0x00, 0x44, 0x50, 0x00, 0x00, 0x00, 0x3c, 0x90,
   0x4c, 0x6c, 0x4c, 0x04, 0x00, 0x08, 0x09, 0x3e, 0x3c, 0x08, 0x08, 0x3c,
   0x00, 0xc3, 0x00, 0x12, 0x60, 0x00, 0xa3, 0x00, 0x00, 0x08, 0x00, 0x00,
   0x00, 0x44, 0x50, 0x00, 0x00, 0x00, 0x00, 0x90, 0x63, 0x93, 0x63, 0x04,
   0x00, 0x1c, 0x09, 0x08, 0x42, 0x08, 0x08, 0x20, 0x00, 0xa5, 0x00, 0x24,
   0x60, 0x00, 0xa3, 0x00, 0x00, 0x08, 0x00, 0x00, 0x00, 0x22, 0x50, 0x00,
   0x00, 0x00, 0x00, 0x48, 0x50, 0x80, 0x50, 0x02, 0x00, 0x1c, 0x49, 0x08,
   0x00, 0x08, 0x08, 0x40, 0x00, 0x99, 0x00, 0x48, 0x00, 0x00, 0x81, 0x00,
   0x00, 0x00, 0x00, 0x00, 0x00, 0x22, 0x50, 0x00, 0x00, 0x00, 0x00, 0x24,
   0x48, 0x60, 0x48, 0xc2, 0x00, 0x1c, 0x4a, 0x3c, 0x00, 0x08, 0x08, 0x42,
   0x00, 0x42, 0x00, 0x90, 0x00, 0x00, 0x42, 0x00, 0x00, 0x7f, 0x00, 0x00,
   0x00, 0x36, 0x50, 0x00, 0x00, 0x00, 0x00, 0x12, 0xf8, 0x10, 0xf8, 0x82,
   0x00, 0x1c, 0x3c, 0x4a, 0x00, 0x1c, 0x08, 0x3c, 0x00, 0x3c, 0x00, 0x00,
   0x00, 0x00, 0x3c, 0x00, 0x00, 0x00, 0x00, 0x00, 0x00, 0x2a, 0xd8, 0x00,
   0x30, 0x00, 0x00, 0x09, 0x40, 0xf0, 0x40, 0x44, 0x00, 0x1c, 0x08, 0x04,
   0x00, 0x00, 0x00, 0x00, 0x00, 0x00, 0x00, 0x00, 0x00, 0x00, 0x00, 0x00,
   0x00, 0x00, 0x00, 0x00, 0x00, 0x41, 0x00, 0x00, 0x10, 0x00, 0x00, 0x00,
   0x00, 0x00, 0x00, 0x38, 0x00, 0x1c, 0x00, 0x00, 0x00, 0x00, 0x00, 0x00,
   0x00, 0x00, 0x00, 0x00, 0x00, 0x00, 0x00, 0x00, 0x00, 0x00, 0x00, 0x00,
   0x00, 0x01, 0x00, 0x00, 0x08, 0x00, 0x00, 0x00, 0x00, 0x00, 0x00, 0x00,
   0x0c, 0x18, 0x08, 0x24, 0x22, 0x1c, 0x00, 0x00, 0x0c, 0x18, 0x0c, 0x22,
   0x0c, 0x18, 0x08, 0x22, 0x00, 0x24, 0x0c, 0x18, 0x1c, 0x24, 0x22, 0x00,
   0x40, 0x0c, 0x30, 0x18, 0x24, 0x30, 0x07, 0x00, 0x08, 0x08, 0x14, 0x1a,
   0x22, 0x22, 0x00, 0x3c, 0x08, 0x08, 0x12, 0x22, 0x08, 0x08, 0x14, 0x22,
   0x1f, 0x1a, 0x08, 0x08, 0x22, 0x1a, 0x22, 0x00, 0x40, 0x08, 0x10, 0x24,
   0x24, 0x10, 0x02, 0x1c, 0x10, 0x04, 0x22, 0x00, 0x00, 0x1c, 0xf8, 0x42,
   0x10, 0x04, 0x00, 0x00, 0x10, 0x04, 0x22, 0x00, 0x22, 0x00, 0x10, 0x04,
   0x00, 0x00, 0x00, 0x00, 0x3c, 0x10, 0x08, 0x00, 0x00, 0x08, 0x1e, 0x22,
   0x08, 0x08, 0x08, 0x08, 0x08, 0x08, 0x14, 0x02, 0x7f, 0x7f, 0x7f, 0x7f,
   0x7f, 0x7f, 0x7f, 0x7f, 0x22, 0xe1, 0x1c, 0x1c, 0x1c, 0x1c, 0x1c, 0x00,
   0x22, 0xe7, 0xe7, 0xe7, 0xe7, 0x63, 0x22, 0x41, 0x14, 0x14, 0x14, 0x14,
   0x14, 0x14, 0x14, 0x01, 0x42, 0x42, 0x42, 0x42, 0x08, 0x08, 0x08, 0x08,
   0x42, 0x43, 0x22, 0x22, 0x22, 0x22, 0x22, 0x81, 0x61, 0x42, 0x42, 0x42,
   0x42, 0x41, 0x42, 0x41, 0x14, 0x14, 0x14, 0x14, 0x14, 0x14, 0x12, 0x01,
   0x42, 0x42, 0x42, 0x42, 0x08, 0x08, 0x08, 0x08, 0x42, 0x45, 0x41, 0x41,
   0x41, 0x41, 0x41, 0x42, 0x51, 0x42, 0x42, 0x42, 0x42, 0x22, 0x42, 0x41,
   0x22, 0x22, 0x22, 0x22, 0x22, 0x22, 0x12, 0x01, 0x02, 0x02, 0x02, 0x02,
   0x08, 0x08, 0x08, 0x08, 0x42, 0x45, 0x41, 0x41, 0x41, 0x41, 0x41, 0x24,
   0x51, 0x42, 0x42, 0x42, 0x42, 0x22, 0x42, 0x21, 0x22, 0x22, 0x22, 0x22,
   0x22, 0x22, 0x12, 0x01, 0x12, 0x12, 0x12, 0x12, 0x08, 0x08, 0x08, 0x08,
   0x4f, 0x49, 0x41, 0x41, 0x41, 0x41, 0x41, 0x18, 0x49, 0x42, 0x42, 0x42,
   0x42, 0x14, 0x22, 0x19, 0x22, 0x22, 0x22, 0x22, 0x22, 0x22, 0x72, 0x01,
   0x1e, 0x1e, 0x1e, 0x1e, 0x08, 0x08, 0x08, 0x08, 0x42, 0x49, 0x41, 0x41,
   0x41, 0x41, 0x41, 0x18, 0x49, 0x42, 0x42, 0x42, 0x42, 0x14, 0x1e, 0x21,
   0x3e, 0x3e, 0x3e, 0x3e, 0x3e, 0x3e, 0x1f, 0x01, 0x12, 0x12, 0x12, 0x12,
   0x08, 0x08, 0x08, 0x08, 0x42, 0x49, 0x41, 0x41, 0x41, 0x41, 0x41, 0x24,
   0x45, 0x42, 0x42, 0x42, 0x42, 0x08, 0x02, 0x41, 0x41, 0x41, 0x41, 0x41,
   0x41, 0x41, 0x11, 0x02, 0x02, 0x02, 0x02, 0x02, 0x08, 0x08, 0x08, 0x08,
   0x42, 0x51, 0x41, 0x41, 0x41, 0x41, 0x41, 0x42, 0x45, 0x42, 0x42, 0x42,
   0x42, 0x08, 0x02, 0x41, 0x41, 0x41, 0x41, 0x41, 0x41, 0x41, 0x11, 0x42,
   0x42, 0x42, 0x42, 0x42, 0x08, 0x08, 0x08, 0x08, 0x22, 0x51, 0x41, 0x41,
   0x41, 0x41, 0x41, 0x81, 0x43, 0x42, 0x42, 0x42, 0x42, 0x08, 0x02, 0x41,
   0x41, 0x41, 0x41, 0x41, 0x41, 0x41, 0x11, 0x3c, 0x42, 0x42, 0x42, 0x42,
   0x08, 0x08, 0x08, 0x08, 0x22, 0x61, 0x22, 0x22, 0x22, 0x22, 0x22, 0x00,
   0x22, 0x42, 0x42, 0x42, 0x42, 0x08, 0x02, 0x41, 0x63, 0x63, 0x63, 0x63,
   0x63, 0x63, 0xf1, 0x10, 0x7f, 0x7f, 0x7f, 0x7f, 0x7f, 0x7f, 0x7f, 0x7f,
   0x1f, 0x43, 0x1c, 0x1c, 0x1c, 0x1c, 0x1c, 0x00, 0x1e, 0x3c, 0x3c, 0x3c,
   0x3c, 0x3e, 0x0f, 0x39, 0x00, 0x00, 0x00, 0x00, 0x00, 0x00, 0x00, 0x10,
   0x00, 0x00, 0x00, 0x00, 0x00, 0x00, 0x00, 0x00, 0x00, 0x00, 0x00, 0x00,
   0x00, 0x00, 0x00, 0x00, 0x01, 0x00, 0x00, 0x00, 0x00, 0x00, 0x00, 0x00,
   0x00, 0x00, 0x00, 0x00, 0x00, 0x00, 0x00, 0x08, 0x00, 0x00, 0x00, 0x00,
   0x00, 0x00, 0x00, 0x00, 0x00, 0x00, 0x00, 0x00, 0x00, 0x00, 0x00, 0x00,
   0x01, 0x00, 0x00, 0x00, 0x00, 0x00, 0x00, 0x00, 0x00, 0x00, 0x00, 0x00,
   0x00, 0x00, 0x00, 0x00, 0x00, 0x00, 0x00, 0x00, 0x00, 0x00, 0x00, 0x00,
   0x00, 0x00, 0x00, 0x00, 0x00, 0x00, 0x00, 0x00, 0x00, 0x00, 0x00, 0x00,
   0x00, 0x00, 0x00, 0x00, 0x0c, 0x18, 0x18, 0x4c, 0x00, 0x18, 0x00, 0x00,
   0x0c, 0x18, 0x1c, 0x22, 0x0c, 0x18, 0x18, 0x24, 0x26, 0x4c, 0x0c, 0x18,
   0x08, 0x4c, 0x22, 0x00, 0x00, 0x0c, 0x18, 0x08, 0x24, 0x30, 0x00, 0x24,
   0x08, 0x08, 0x24, 0x32, 0x24, 0x24, 0x00, 0x00, 0x08, 0x08, 0x22, 0x22,
   0x08, 0x08, 0x24, 0x24, 0x18, 0x32, 0x08, 0x08, 0x14, 0x32, 0x22, 0x00,
   0x00, 0x08, 0x08, 0x14, 0x24, 0x10, 0x03, 0x24, 0x10, 0x04, 0x42, 0x00,
   0x24, 0x18, 0x00, 0x00, 0x10, 0x04, 0x41, 0x00, 0x10, 0x04, 0x42, 0x00,
   0x18, 0x00, 0x10, 0x04, 0x22, 0x00, 0x00, 0x00, 0x00, 0x10, 0x04, 0x22,
   0x00, 0x08, 0x02, 0x00, 0x00, 0x00, 0x00, 0x00, 0x00, 0x00, 0x00, 0x5c,
   0x00, 0x00, 0x00, 0x00, 0x00, 0x00, 0x00, 0x00, 0x24, 0x00, 0x00, 0x00,
   0x00, 0x00, 0x00, 0x00, 0x00, 0x00, 0x00, 0x00, 0x00, 0x00, 0x02, 0x00,
   0x3c, 0x3c, 0x3c, 0x3c, 0x3c, 0x3c, 0x36, 0x62, 0x1c, 0x1c, 0x1c, 0x1c,
   0x1e, 0x1e, 0x1e, 0x1e, 0x3c, 0x3b, 0x1c, 0x1c, 0x1c, 0x1c, 0x1c, 0x08,
   0x5c, 0x63, 0x63, 0x63, 0x63, 0xe7, 0x1e, 0xe7, 0x42, 0x42, 0x42, 0x42,
   0x42, 0x42, 0x49, 0x41, 0x22, 0x22, 0x22, 0x22, 0x10, 0x10, 0x10, 0x10,
   0x42, 0x46, 0x22, 0x22, 0x22, 0x22, 0x22, 0x08, 0x22, 0x42, 0x42, 0x42,
   0x42, 0x42, 0x22, 0x42, 0x40, 0x40, 0x40, 0x40, 0x40, 0x40, 0x48, 0x01,
   0x41, 0x41, 0x41, 0x41, 0x10, 0x10, 0x10, 0x10, 0x41, 0x42, 0x41, 0x41,
   0x41, 0x41, 0x41, 0x00, 0x51, 0x42, 0x42, 0x42, 0x42, 0x44, 0x42, 0x44,
   0x7c, 0x7c, 0x7c, 0x7c, 0x7c, 0x7c, 0x7c, 0x01, 0x7f, 0x7f, 0x7f, 0x7f,
   0x10, 0x10, 0x10, 0x10, 0x41, 0x42, 0x41, 0x41, 0x41, 0x41, 0x41, 0x7f,
   0x51, 0x42, 0x42, 0x42, 0x42, 0x24, 0x42, 0x24, 0x42, 0x42, 0x42, 0x42,
   0x42, 0x42, 0x0a, 0x01, 0x01, 0x01, 0x01, 0x01, 0x10, 0x10, 0x10, 0x10,
   0x41, 0x42, 0x41, 0x41, 0x41, 0x41, 0x41, 0x00, 0x49, 0x42, 0x42, 0x42,
   0x42, 0x28, 0x42, 0x28, 0x41, 0x41, 0x41, 0x41, 0x41, 0x41, 0x09, 0x41,
   0x01, 0x01, 0x01, 0x01, 0x10, 0x10, 0x10, 0x10, 0x41, 0x42, 0x41, 0x41,
   0x41, 0x41, 0x41, 0x08, 0x45, 0x42, 0x42, 0x42, 0x42, 0x10, 0x42, 0x10,
   0x41, 0x41, 0x41, 0x41, 0x41, 0x41, 0x49, 0x42, 0x41, 0x41, 0x41, 0x01,
   0x10, 0x10, 0x10, 0x10, 0x41, 0x42, 0x41, 0x41, 0x41, 0x41, 0x41, 0x08,
   0x45, 0x42, 0x42, 0x42, 0x42, 0x10, 0x22, 0x10, 0x61, 0x61, 0x61, 0x61,
   0x61, 0x61, 0x49, 0x3c, 0x42, 0x42, 0x42, 0x22, 0x10, 0x10, 0x10, 0x10,
   0x42, 0x42, 0x22, 0x22, 0x22, 0x22, 0x22, 0x00, 0x22, 0x62, 0x62, 0x62,
   0x62, 0x08, 0x1e, 0x08, 0xde, 0xde, 0xde, 0xde, 0xde, 0xde, 0x36, 0x08,
   0x3c, 0x3c, 0x3c, 0x1c, 0xff, 0xff, 0xff, 0xff, 0x3c, 0xe7, 0x1c, 0x1c,
   0x1c, 0x1c, 0x1c, 0x00, 0x1d, 0x9c, 0x9c, 0x9c, 0x9c, 0x09, 0x02, 0x09,
   0x00, 0x00, 0x00, 0x00, 0x00, 0x00, 0x00, 0x08, 0x00, 0x00, 0x00, 0x00,
   0x00, 0x00, 0x00, 0x00, 0x00, 0x00, 0x00, 0x00, 0x00, 0x00, 0x00, 0x00,
   0x00, 0x00, 0x00, 0x00, 0x00, 0x05, 0x02, 0x05, 0x00, 0x00, 0x00, 0x00,
   0x00, 0x00, 0x00, 0x04, 0x00, 0x00, 0x00, 0x00, 0x00, 0x00, 0x00, 0x00,
   0x00, 0x00, 0x00, 0x00, 0x00, 0x00, 0x00, 0x00, 0x00, 0x00, 0x00, 0x00,
   0x00, 0x02, 0x0f, 0x02 };
