#define u000100_u00017F_latin_extended_a_width 128
#define u000100_u00017F_latin_extended_a_height 128
static unsigned char u000100_u00017F_latin_extended_a_bits[] = {
   0x3e, 0x00, 0x00, 0x00, 0x00, 0x00, 0x20, 0x00, 0x08, 0x00, 0x00, 0x00,
   0x22, 0x00, 0x22, 0xc0, 0x00, 0x00, 0x22, 0x00, 0x00, 0x00, 0x18, 0x00,
   0x14, 0x00, 0x08, 0x00, 0x14, 0x00, 0x14, 0x80, 0x3e, 0x00, 0x1c, 0x00,
   0x3e, 0x00, 0x04, 0x20, 0x22, 0x08, 0x08, 0x00, 0x08, 0x22, 0x08, 0xa0,
   0x41, 0x00, 0x00, 0x22, 0x41, 0x00, 0x00, 0x18, 0x00, 0x14, 0x00, 0x10,
   0x00, 0x14, 0x00, 0x20, 0x41, 0x3c, 0x3e, 0x1c, 0x41, 0x00, 0x3e, 0x04,
   0x3e, 0x22, 0x3e, 0x10, 0x3e, 0x08, 0x3f, 0x20, 0x41, 0x00, 0x41, 0x00,
   0x41, 0x00, 0x41, 0x00, 0x41, 0x00, 0x41, 0x00, 0x41, 0x00, 0x42, 0x20,
   0x7f, 0x3c, 0x41, 0x3c, 0x7f, 0x3c, 0x01, 0x3c, 0x01, 0x3c, 0x01, 0x3c,
   0x01, 0x3c, 0x42, 0x3e, 0x41, 0x22, 0x7f, 0x22, 0x41, 0x22, 0x01, 0x42,
   0x01, 0x42, 0x01, 0x42, 0x01, 0x42, 0x42, 0x21, 0x41, 0x22, 0x41, 0x22,
   0x41, 0x22, 0x01, 0x02, 0x01, 0x02, 0x01, 0x02, 0x01, 0x02, 0x42, 0x21,
   0x41, 0x22, 0x41, 0x22, 0x41, 0x22, 0x41, 0x02, 0x41, 0x02, 0x41, 0x02,
   0x41, 0x02, 0x42, 0x21, 0x41, 0x22, 0x41, 0x22, 0x41, 0x22, 0x41, 0x42,
   0x41, 0x42, 0x41, 0x42, 0x41, 0x42, 0x42, 0x21, 0x41, 0x7c, 0x41, 0x7c,
   0x41, 0x7c, 0x3e, 0x3c, 0x3e, 0x3c, 0x3e, 0x3c, 0x3e, 0x3c, 0x3f, 0x3e,
   0x00, 0x00, 0x00, 0x00, 0x20, 0x10, 0x00, 0x00, 0x00, 0x00, 0x00, 0x00,
   0x00, 0x00, 0x00, 0x00, 0x00, 0x00, 0x00, 0x00, 0x20, 0x10, 0x00, 0x00,
   0x00, 0x00, 0x00, 0x00, 0x00, 0x00, 0x00, 0x00, 0x00, 0x00, 0x00, 0x00,
   0x60, 0x30, 0x00, 0x00, 0x00, 0x00, 0x00, 0x00, 0x00, 0x00, 0x00, 0x00,
   0x00, 0x00, 0x00, 0x00, 0x00, 0x00, 0x00, 0x00, 0x00, 0x00, 0x00, 0x00,
   0x00, 0x00, 0x00, 0x00, 0x00, 0x00, 0x3e, 0x00, 0x00, 0x00, 0x00, 0x00,
   0x00, 0x00, 0x22, 0x00, 0x08, 0x00, 0x00, 0x00, 0x00, 0x00, 0x00, 0x00,
   0x22, 0x00, 0x08, 0x00, 0x00, 0x00, 0x14, 0x00, 0x14, 0x00, 0x22, 0x00,
   0x3f, 0x40, 0x7f, 0x00, 0x1c, 0x00, 0x08, 0x00, 0x7f, 0x00, 0x08, 0x22,
   0x22, 0x08, 0x1c, 0x00, 0x42, 0x40, 0x01, 0x00, 0x00, 0x22, 0x00, 0x10,
   0x01, 0x00, 0x00, 0x14, 0x00, 0x14, 0x00, 0x22, 0x42, 0xf0, 0x01, 0x3c,
   0x7f, 0x1c, 0x7f, 0x10, 0x01, 0x00, 0x7f, 0x08, 0x3e, 0x22, 0x3e, 0x1c,
   0x42, 0x40, 0x01, 0x00, 0x01, 0x00, 0x01, 0x00, 0x01, 0x00, 0x01, 0x00,
   0x41, 0x00, 0x41, 0x00, 0x4f, 0x7c, 0x1f, 0x3c, 0x01, 0x3c, 0x01, 0x3c,
   0x1f, 0x3c, 0x01, 0x3c, 0x01, 0x7c, 0x01, 0x7c, 0x42, 0x42, 0x01, 0x42,
   0x1f, 0x42, 0x1f, 0x42, 0x01, 0x42, 0x1f, 0x42, 0x79, 0x42, 0x79, 0x42,
   0x42, 0x42, 0x01, 0x7e, 0x01, 0x7e, 0x01, 0x7e, 0x01, 0x7e, 0x01, 0x7e,
   0x41, 0x42, 0x41, 0x42, 0x42, 0x42, 0x01, 0x02, 0x01, 0x02, 0x01, 0x02,
   0x01, 0x02, 0x01, 0x02, 0x41, 0x42, 0x41, 0x42, 0x42, 0x42, 0x01, 0x42,
   0x01, 0x42, 0x01, 0x42, 0x01, 0x42, 0x01, 0x42, 0x41, 0x42, 0x41, 0x42,
   0x3f, 0x7c, 0x7f, 0x3c, 0x7f, 0x3c, 0x7f, 0x3c, 0x7f, 0x3c, 0x7f, 0x3c,
   0x3e, 0x7c, 0x3e, 0x7c, 0x00, 0x00, 0x00, 0x00, 0x00, 0x00, 0x00, 0x00,
   0x10, 0x10, 0x00, 0x00, 0x00, 0x40, 0x00, 0x40, 0x00, 0x00, 0x00, 0x00,
   0x00, 0x00, 0x00, 0x00, 0x10, 0x10, 0x00, 0x00, 0x00, 0x42, 0x00, 0x42,
   0x00, 0x00, 0x00, 0x00, 0x00, 0x00, 0x00, 0x00, 0x30, 0x30, 0x00, 0x00,
   0x00, 0x3c, 0x00, 0x3c, 0x00, 0x00, 0x00, 0x00, 0x00, 0x00, 0x00, 0x00,
   0x00, 0x00, 0x00, 0x00, 0x00, 0x00, 0x00, 0x00, 0x00, 0x00, 0x00, 0x00,
   0x08, 0x08, 0x00, 0x00, 0x46, 0x00, 0x3e, 0x00, 0x00, 0x00, 0x00, 0x00,
   0x08, 0x00, 0x00, 0x00, 0x14, 0x14, 0x00, 0x00, 0x49, 0x00, 0x00, 0x00,
   0x22, 0x00, 0x00, 0x00, 0x08, 0x00, 0x3e, 0x30, 0x22, 0x22, 0x41, 0x02,
   0x31, 0x46, 0x3e, 0x00, 0x1c, 0x00, 0x3e, 0x00, 0x00, 0x10, 0x41, 0x10,
   0x00, 0x00, 0x7f, 0x02, 0x00, 0x49, 0x08, 0x00, 0x00, 0x12, 0x08, 0x08,
   0x3e, 0x10, 0x41, 0x10, 0x41, 0x02, 0x41, 0x0f, 0x3e, 0x31, 0x08, 0x1e,
   0x3e, 0x0c, 0x08, 0x08, 0x41, 0x00, 0x01, 0x00, 0x41, 0x02, 0x41, 0x02,
   0x08, 0x00, 0x08, 0x00, 0x08, 0x00, 0x08, 0x00, 0x01, 0x7c, 0x79, 0x7c,
   0x41, 0x3e, 0x7f, 0x3e, 0x08, 0x0c, 0x08, 0x0c, 0x08, 0x0c, 0x08, 0x0c,
   0x79, 0x42, 0x41, 0x42, 0x7f, 0x42, 0x41, 0x42, 0x08, 0x08, 0x08, 0x08,
   0x08, 0x08, 0x08, 0x08, 0x41, 0x42, 0x41, 0x42, 0x41, 0x42, 0x41, 0x42,
   0x08, 0x08, 0x08, 0x08, 0x08, 0x08, 0x08, 0x08, 0x41, 0x42, 0x41, 0x42,
   0x41, 0x42, 0x41, 0x42, 0x08, 0x08, 0x08, 0x08, 0x08, 0x08, 0x08, 0x08,
   0x41, 0x42, 0x41, 0x42, 0x41, 0x42, 0x41, 0x42, 0x08, 0x08, 0x08, 0x08,
   0x08, 0x08, 0x08, 0x08, 0x3e, 0x7c, 0x3e, 0x7c, 0x41, 0x42, 0x41, 0x42,
   0x3e, 0x38, 0x3e, 0x38, 0x3e, 0x38, 0x3e, 0x38, 0x00, 0x40, 0x10, 0x40,
   0x00, 0x00, 0x00, 0x00, 0x00, 0x00, 0x00, 0x00, 0x00, 0x00, 0x10, 0x10,
   0x00, 0x42, 0x10, 0x42, 0x00, 0x00, 0x00, 0x00, 0x00, 0x00, 0x00, 0x00,
   0x00, 0x00, 0x10, 0x10, 0x00, 0x3c, 0x18, 0x3c, 0x00, 0x00, 0x00, 0x00,
   0x00, 0x00, 0x00, 0x00, 0x00, 0x00, 0x30, 0x30, 0x00, 0x00, 0x00, 0x00,
   0x00, 0x00, 0x00, 0x00, 0x00, 0x00, 0x00, 0x00, 0x00, 0x00, 0x00, 0x00,
   0x00, 0x00, 0x00, 0x00, 0x10, 0x00, 0x00, 0x00, 0x00, 0x08, 0x20, 0x00,
   0x00, 0x06, 0x30, 0x00, 0x08, 0x00, 0x00, 0x00, 0x28, 0x00, 0x00, 0x00,
   0x00, 0x06, 0x18, 0x00, 0x00, 0x04, 0x20, 0x00, 0x08, 0x00, 0x6e, 0x00,
   0x44, 0x20, 0x11, 0x02, 0x00, 0x01, 0x04, 0x01, 0x0e, 0x05, 0x2e, 0x01,
   0x00, 0x00, 0x44, 0x44, 0x00, 0x50, 0x11, 0x22, 0x00, 0x00, 0x00, 0x01,
   0x08, 0x01, 0x08, 0x01, 0x3e, 0x00, 0x44, 0x44, 0x78, 0x88, 0x09, 0x12,
   0x00, 0x01, 0x0e, 0x01, 0x08, 0x01, 0x08, 0x01, 0x08, 0x00, 0x44, 0x00,
   0x40, 0x00, 0x05, 0x0a, 0x00, 0x01, 0x08, 0x01, 0x08, 0x01, 0x08, 0x09,
   0x08, 0x0c, 0x44, 0x66, 0x40, 0x60, 0x1f, 0x1e, 0x22, 0x01, 0x08, 0x01,
   0x08, 0x01, 0x08, 0x09, 0x08, 0x08, 0x44, 0x44, 0x40, 0x40, 0x21, 0x22,
   0x12, 0x01, 0x08, 0x01, 0x08, 0x01, 0x08, 0x01, 0x08, 0x08, 0x44, 0x44,
   0x41, 0x40, 0x21, 0x42, 0x0a, 0x01, 0x08, 0x01, 0x08, 0x01, 0x08, 0x01,
   0x08, 0x08, 0x44, 0x44, 0x41, 0x40, 0x41, 0x42, 0x1e, 0x01, 0x08, 0x01,
   0x08, 0x01, 0x08, 0x01, 0x08, 0x08, 0x44, 0x44, 0x41, 0x40, 0x41, 0x42,
   0x22, 0x01, 0x48, 0x01, 0x48, 0x01, 0x48, 0x01, 0x3e, 0x38, 0x4e, 0x5c,
   0x3e, 0x40, 0x41, 0x42, 0x42, 0x7f, 0x38, 0x7f, 0x38, 0x7f, 0x38, 0x7f,
   0x00, 0x00, 0x40, 0x40, 0x00, 0x40, 0x08, 0x10, 0x00, 0x00, 0x00, 0x08,
   0x08, 0x00, 0x00, 0x00, 0x00, 0x00, 0x41, 0x22, 0x00, 0x22, 0x08, 0x10,
   0x00, 0x00, 0x00, 0x08, 0x08, 0x00, 0x00, 0x00, 0x00, 0x00, 0x3e, 0x1c,
   0x00, 0x1c, 0x0c, 0x18, 0x00, 0x00, 0x00, 0x0c, 0x0c, 0x00, 0x00, 0x00,
   0x00, 0x00, 0x00, 0x00, 0x00, 0x00, 0x00, 0x00, 0x00, 0x00, 0x00, 0x00,
   0x00, 0x00, 0x00, 0x00, 0x00, 0x00, 0x00, 0x20, 0x00, 0x00, 0x00, 0x22,
   0x00, 0x00, 0x00, 0x00, 0x3e, 0x00, 0x00, 0x00, 0x00, 0x00, 0x00, 0x18,
   0x00, 0x00, 0x00, 0x14, 0x00, 0x00, 0x00, 0x00, 0x00, 0x00, 0x22, 0x00,
   0x0e, 0x02, 0x0e, 0x04, 0x20, 0x41, 0x00, 0x08, 0x22, 0x02, 0x41, 0x00,
   0x3e, 0x00, 0x1c, 0x00, 0x08, 0x02, 0x08, 0x00, 0x18, 0x43, 0x00, 0x00,
   0x14, 0x02, 0x43, 0x00, 0x41, 0x00, 0x00, 0x22, 0x08, 0x02, 0x08, 0x41,
   0x04, 0x45, 0x00, 0x41, 0x08, 0x03, 0x45, 0x00, 0x41, 0x3c, 0x3e, 0x1c,
   0x28, 0x0a, 0x28, 0x43, 0x00, 0x45, 0x00, 0x43, 0x00, 0x00, 0x45, 0x00,
   0x41, 0x00, 0x41, 0x00, 0x28, 0x06, 0x1c, 0x45, 0x3a, 0x49, 0x3a, 0x45,
   0x3a, 0x3a, 0x49, 0x3a, 0x41, 0x3c, 0x41, 0x3c, 0x08, 0x03, 0x0a, 0x49,
   0x46, 0x49, 0x46, 0x49, 0x46, 0x46, 0x49, 0x46, 0x41, 0x42, 0x41, 0x42,
   0x08, 0x02, 0x08, 0x49, 0x42, 0x51, 0x42, 0x49, 0x42, 0x42, 0x51, 0x42,
   0x41, 0x42, 0x41, 0x42, 0x08, 0x02, 0x08, 0x51, 0x42, 0x51, 0x42, 0x51,
   0x42, 0x42, 0x51, 0x42, 0x41, 0x42, 0x41, 0x42, 0x48, 0x02, 0x48, 0x61,
   0x42, 0x61, 0x42, 0x61, 0x42, 0x42, 0x61, 0x42, 0x41, 0x42, 0x41, 0x42,
   0x38, 0x7e, 0x38, 0x41, 0x42, 0x41, 0x42, 0x41, 0x42, 0x42, 0x41, 0x42,
   0x3e, 0x3c, 0x3e, 0x3c, 0x00, 0x00, 0x00, 0x00, 0x00, 0x08, 0x10, 0x00,
   0x00, 0x00, 0x40, 0x40, 0x00, 0x00, 0x00, 0x00, 0x00, 0x00, 0x00, 0x00,
   0x00, 0x08, 0x10, 0x00, 0x00, 0x00, 0x48, 0x48, 0x00, 0x00, 0x00, 0x00,
   0x00, 0x00, 0x00, 0x00, 0x00, 0x0c, 0x18, 0x00, 0x00, 0x00, 0x30, 0x30,
   0x00, 0x00, 0x00, 0x00, 0x00, 0x00, 0x00, 0x00, 0x00, 0x00, 0x00, 0x00,
   0x00, 0x00, 0x00, 0x00, 0x00, 0x00, 0x00, 0x00, 0x48, 0x00, 0x00, 0x00,
   0x20, 0x00, 0x00, 0x00, 0x22, 0x00, 0x20, 0x00, 0x08, 0x00, 0x00, 0x00,
   0x24, 0x00, 0x00, 0x00, 0x18, 0x00, 0x00, 0x00, 0x14, 0x00, 0x18, 0x00,
   0x14, 0x00, 0x00, 0x00, 0x12, 0x48, 0x7e, 0x00, 0x04, 0x20, 0x3f, 0x00,
   0x08, 0x22, 0x04, 0x20, 0x22, 0x08, 0x3e, 0x00, 0x00, 0x24, 0x09, 0x00,
   0x00, 0x18, 0x41, 0x00, 0x00, 0x14, 0x00, 0x18, 0x00, 0x14, 0x41, 0x00,
   0x3e, 0x12, 0x09, 0x00, 0x3f, 0x04, 0x41, 0x00, 0x3f, 0x08, 0x3e, 0x04,
   0x3e, 0x22, 0x41, 0x00, 0x41, 0x00, 0x09, 0x00, 0x41, 0x00, 0x41, 0x00,
   0x41, 0x00, 0x41, 0x00, 0x41, 0x00, 0x01, 0x00, 0x41, 0x3c, 0x39, 0x3e,
   0x41, 0x32, 0x3f, 0x3a, 0x41, 0x32, 0x01, 0x7c, 0x01, 0x7c, 0x3e, 0x7c,
   0x41, 0x42, 0x09, 0x49, 0x3f, 0x0e, 0x11, 0x0e, 0x3f, 0x0e, 0x3e, 0x02,
   0x3e, 0x02, 0x40, 0x02, 0x41, 0x42, 0x09, 0x79, 0x11, 0x02, 0x21, 0x02,
   0x11, 0x02, 0x40, 0x3c, 0x40, 0x3c, 0x41, 0x3c, 0x41, 0x42, 0x09, 0x09,
   0x21, 0x02, 0x21, 0x02, 0x21, 0x02, 0x41, 0x40, 0x41, 0x40, 0x41, 0x40,
   0x41, 0x42, 0x09, 0x49, 0x41, 0x02, 0x41, 0x02, 0x41, 0x02, 0x41, 0x40,
   0x41, 0x40, 0x41, 0x40, 0x3e, 0x3c, 0x7e, 0x3e, 0x41, 0x02, 0x41, 0x02,
   0x41, 0x02, 0x3e, 0x3e, 0x3e, 0x3e, 0x3e, 0x3e, 0x00, 0x00, 0x00, 0x00,
   0x00, 0x00, 0x08, 0x04, 0x00, 0x00, 0x00, 0x00, 0x00, 0x00, 0x10, 0x10,
   0x00, 0x00, 0x00, 0x00, 0x00, 0x00, 0x08, 0x04, 0x00, 0x00, 0x00, 0x00,
   0x00, 0x00, 0x10, 0x10, 0x00, 0x00, 0x00, 0x00, 0x00, 0x00, 0x0c, 0x06,
   0x00, 0x00, 0x00, 0x00, 0x00, 0x00, 0x18, 0x18, 0x00, 0x00, 0x00, 0x00,
   0x00, 0x00, 0x00, 0x00, 0x00, 0x00, 0x00, 0x00, 0x00, 0x00, 0x00, 0x00,
   0x22, 0x00, 0x00, 0x00, 0x22, 0x30, 0x00, 0x00, 0x46, 0x00, 0x3e, 0x00,
   0x00, 0x00, 0x1c, 0x00, 0x14, 0x00, 0x00, 0x00, 0x14, 0x20, 0x00, 0x00,
   0x49, 0x00, 0x00, 0x00, 0x22, 0x00, 0x14, 0x00, 0x08, 0x22, 0x7f, 0x04,
   0x08, 0x24, 0x7f, 0x04, 0x31, 0x46, 0x41, 0x00, 0x1c, 0x00, 0x1c, 0x1c,
   0x00, 0x14, 0x08, 0x04, 0x00, 0x04, 0x08, 0x04, 0x00, 0x49, 0x41, 0x00,
   0x00, 0x22, 0x00, 0x14, 0x3e, 0x08, 0x08, 0x04, 0x7f, 0x04, 0x08, 0x04,
   0x41, 0x31, 0x41, 0x3c, 0x41, 0x1c, 0x41, 0x1c, 0x41, 0x00, 0x08, 0x04,
   0x08, 0x04, 0x08, 0x04, 0x41, 0x00, 0x41, 0x00, 0x41, 0x00, 0x41, 0x00,
   0x01, 0x7c, 0x08, 0x3e, 0x08, 0x3e, 0x3e, 0x3e, 0x41, 0x42, 0x41, 0x42,
   0x41, 0x42, 0x41, 0x42, 0x3e, 0x02, 0x08, 0x04, 0x08, 0x04, 0x08, 0x04,
   0x41, 0x42, 0x41, 0x42, 0x41, 0x42, 0x41, 0x42, 0x40, 0x3c, 0x08, 0x04,
   0x08, 0x04, 0x08, 0x1e, 0x41, 0x42, 0x41, 0x42, 0x41, 0x42, 0x41, 0x42,
   0x41, 0x40, 0x08, 0x04, 0x08, 0x04, 0x08, 0x04, 0x41, 0x42, 0x41, 0x42,
   0x41, 0x42, 0x41, 0x42, 0x41, 0x40, 0x08, 0x44, 0x08, 0x44, 0x08, 0x44,
   0x41, 0x62, 0x41, 0x62, 0x41, 0x62, 0x41, 0x62, 0x3e, 0x3e, 0x08, 0x38,
   0x08, 0x38, 0x08, 0x38, 0x3e, 0x5c, 0x3e, 0x5c, 0x3e, 0x5c, 0x3e, 0x5c,
   0x00, 0x00, 0x08, 0x10, 0x00, 0x00, 0x00, 0x00, 0x00, 0x00, 0x00, 0x00,
   0x00, 0x00, 0x00, 0x00, 0x00, 0x00, 0x08, 0x10, 0x00, 0x00, 0x00, 0x00,
   0x00, 0x00, 0x00, 0x00, 0x00, 0x00, 0x00, 0x00, 0x00, 0x00, 0x0c, 0x18,
   0x00, 0x00, 0x00, 0x00, 0x00, 0x00, 0x00, 0x00, 0x00, 0x00, 0x00, 0x00,
   0x00, 0x00, 0x00, 0x00, 0x00, 0x00, 0x00, 0x00, 0x00, 0x00, 0x00, 0x00,
   0x00, 0x00, 0x00, 0x00, 0x48, 0x00, 0x00, 0x00, 0x08, 0x00, 0x08, 0x00,
   0x00, 0x20, 0x00, 0x00, 0x00, 0x22, 0x00, 0x00, 0x24, 0x00, 0x00, 0x00,
   0x14, 0x00, 0x14, 0x00, 0x22, 0x18, 0x00, 0x08, 0x00, 0x14, 0x00, 0x00,
   0x12, 0x48, 0x41, 0x00, 0x22, 0x08, 0x22, 0x08, 0x22, 0x04, 0x20, 0x08,
   0x00, 0x08, 0x22, 0x1c, 0x00, 0x24, 0x41, 0x00, 0x00, 0x14, 0x00, 0x14,
   0x00, 0x00, 0x18, 0x00, 0x10, 0x00, 0x14, 0x22, 0x41, 0x12, 0x41, 0x00,
   0x41, 0x22, 0x41, 0x22, 0x41, 0x7f, 0x04, 0x7f, 0x10, 0x7f, 0x08, 0x02,
   0x41, 0x00, 0x41, 0x00, 0x41, 0x00, 0x22, 0x00, 0x22, 0x40, 0x00, 0x40,
   0x00, 0x40, 0x00, 0x02, 0x41, 0x42, 0x41, 0x42, 0x49, 0x41, 0x14, 0x42,
   0x14, 0x20, 0x7e, 0x20, 0x7e, 0x20, 0x7e, 0x02, 0x41, 0x42, 0x41, 0x42,
   0x49, 0x49, 0x08, 0x42, 0x08, 0x1c, 0x40, 0x1c, 0x40, 0x1c, 0x40, 0x02,
   0x41, 0x42, 0x41, 0x42, 0x55, 0x49, 0x08, 0x42, 0x08, 0x02, 0x38, 0x02,
   0x38, 0x02, 0x38, 0x02, 0x41, 0x42, 0x41, 0x42, 0x55, 0x55, 0x08, 0x42,
   0x08, 0x01, 0x04, 0x01, 0x04, 0x01, 0x04, 0x02, 0x41, 0x62, 0x41, 0x62,
   0x63, 0x63, 0x08, 0x42, 0x08, 0x01, 0x02, 0x01, 0x02, 0x01, 0x02, 0x02,
   0x3e, 0x5c, 0x3e, 0x5c, 0x41, 0x41, 0x08, 0x7c, 0x08, 0x7f, 0x7e, 0x7f,
   0x7e, 0x7f, 0x7e, 0x02, 0x00, 0x00, 0x10, 0x10, 0x00, 0x00, 0x00, 0x40,
   0x00, 0x00, 0x00, 0x00, 0x00, 0x00, 0x00, 0x00, 0x00, 0x00, 0x10, 0x10,
   0x00, 0x00, 0x00, 0x42, 0x00, 0x00, 0x00, 0x00, 0x00, 0x00, 0x00, 0x00,
   0x00, 0x00, 0x30, 0x30, 0x00, 0x00, 0x00, 0x3c, 0x00, 0x00, 0x00, 0x00,
   0x00, 0x00, 0x00, 0x00, 0x00, 0x00, 0x00, 0x00, 0x00, 0x00, 0x00, 0x00,
   0x00, 0x00, 0x00, 0x00, 0x00, 0x00, 0x00, 0x00 };
