#define u000000_u00007F_basic_latin_width 128
#define u000000_u00007F_basic_latin_height 128
static unsigned char u000000_u00007F_basic_latin_bits[] = {
   0x00, 0x00, 0x00, 0x00, 0x00, 0x00, 0x00, 0x00, 0x00, 0x00, 0x00, 0x00,
   0x00, 0x00, 0x00, 0x00, 0x00, 0x00, 0x00, 0x00, 0x00, 0x00, 0x00, 0x00,
   0x00, 0x00, 0x00, 0x00, 0x00, 0x00, 0x00, 0x00, 0x00, 0x00, 0x00, 0x00,
   0x00, 0x00, 0x00, 0x00, 0x00, 0x00, 0x00, 0x00, 0x00, 0x00, 0x00, 0x00,
   0x00, 0x00, 0x00, 0x00, 0x00, 0x00, 0x00, 0x00, 0x00, 0x00, 0x00, 0x00,
   0x00, 0x00, 0x00, 0x00, 0x00, 0x00, 0x00, 0x00, 0x00, 0x00, 0x00, 0x00,
   0x00, 0x00, 0x00, 0x00, 0x00, 0x00, 0x00, 0x00, 0x00, 0x00, 0x00, 0x00,
   0x00, 0x00, 0x00, 0x00, 0x00, 0x00, 0x00, 0x00, 0x00, 0x00, 0x00, 0x00,
   0x00, 0x00, 0x00, 0x00, 0x00, 0x00, 0x00, 0x00, 0x00, 0x00, 0x00, 0x00,
   0x00, 0x00, 0x00, 0x00, 0x00, 0x00, 0x00, 0x00, 0x00, 0x00, 0x00, 0x00,
   0x00, 0x00, 0x00, 0x00, 0x00, 0x00, 0x00, 0x00, 0x00, 0x00, 0x00, 0x00,
   0x00, 0x00, 0x00, 0x00, 0x00, 0x00, 0x00, 0x00, 0x00, 0x00, 0x00, 0x00,
   0x00, 0x00, 0x00, 0x00, 0x00, 0x00, 0x00, 0x00, 0x00, 0x00, 0x00, 0x00,
   0x00, 0x00, 0x00, 0x00, 0x00, 0x00, 0x00, 0x00, 0x00, 0x00, 0x00, 0x00,
   0x00, 0x00, 0x00, 0x00, 0x00, 0x00, 0x00, 0x00, 0x00, 0x00, 0x00, 0x00,
   0x00, 0x00, 0x00, 0x00, 0x00, 0x00, 0x00, 0x00, 0x00, 0x00, 0x00, 0x00,
   0x00, 0x00, 0x00, 0x00, 0x00, 0x00, 0x00, 0x00, 0x00, 0x00, 0x00, 0x00,
   0x00, 0x00, 0x00, 0x00, 0x00, 0x00, 0x00, 0x00, 0x00, 0x00, 0x00, 0x00,
   0x00, 0x00, 0x00, 0x00, 0x00, 0x00, 0x00, 0x00, 0x00, 0x00, 0x00, 0x00,
   0x00, 0x00, 0x00, 0x00, 0x00, 0x00, 0x00, 0x00, 0x00, 0x00, 0x00, 0x00,
   0x00, 0x00, 0x00, 0x00, 0x00, 0x00, 0x00, 0x00, 0x00, 0x00, 0x00, 0x00,
   0x00, 0x00, 0x00, 0x00, 0x00, 0x00, 0x00, 0x00, 0x00, 0x00, 0x00, 0x00,
   0x00, 0x00, 0x00, 0x00, 0x00, 0x00, 0x00, 0x00, 0x00, 0x00, 0x00, 0x00,
   0x00, 0x00, 0x00, 0x00, 0x00, 0x00, 0x00, 0x00, 0x00, 0x00, 0x00, 0x00,
   0x00, 0x00, 0x00, 0x00, 0x00, 0x00, 0x00, 0x00, 0x00, 0x00, 0x00, 0x00,
   0x00, 0x00, 0x00, 0x00, 0x00, 0x00, 0x00, 0x00, 0x00, 0x00, 0x00, 0x00,
   0x00, 0x00, 0x00, 0x00, 0x00, 0x00, 0x00, 0x00, 0x00, 0x00, 0x00, 0x00,
   0x00, 0x00, 0x00, 0x00, 0x00, 0x00, 0x00, 0x00, 0x00, 0x00, 0x00, 0x00,
   0x00, 0x00, 0x00, 0x00, 0x00, 0x00, 0x00, 0x00, 0x00, 0x00, 0x00, 0x00,
   0x00, 0x00, 0x00, 0x00, 0x00, 0x00, 0x00, 0x00, 0x00, 0x00, 0x00, 0x00,
   0x00, 0x00, 0x00, 0x00, 0x00, 0x00, 0x00, 0x00, 0x00, 0x00, 0x00, 0x00,
   0x00, 0x00, 0x00, 0x00, 0x00, 0x00, 0x00, 0x00, 0x00, 0x00, 0x00, 0x00,
   0x00, 0x00, 0x00, 0x00, 0x00, 0x00, 0x00, 0x00, 0x00, 0x00, 0x00, 0x00,
   0x00, 0x00, 0x00, 0x00, 0x00, 0x00, 0x00, 0x00, 0x00, 0x00, 0x00, 0x00,
   0x00, 0x00, 0x00, 0x00, 0x00, 0x00, 0x00, 0x00, 0x00, 0x00, 0x00, 0x00,
   0x00, 0x00, 0x00, 0x00, 0x00, 0x00, 0x00, 0x00, 0x00, 0x00, 0x00, 0x00,
   0x00, 0x00, 0x00, 0x00, 0x00, 0x00, 0x00, 0x00, 0x00, 0x00, 0x00, 0x00,
   0x00, 0x00, 0x00, 0x00, 0x00, 0x00, 0x00, 0x00, 0x00, 0x00, 0x00, 0x00,
   0x00, 0x00, 0x00, 0x00, 0x00, 0x00, 0x00, 0x00, 0x00, 0x00, 0x00, 0x00,
   0x00, 0x00, 0x00, 0x00, 0x00, 0x00, 0x00, 0x00, 0x00, 0x00, 0x00, 0x00,
   0x00, 0x00, 0x00, 0x00, 0x00, 0x00, 0x00, 0x00, 0x00, 0x00, 0x00, 0x00,
   0x00, 0x00, 0x00, 0x00, 0x00, 0x00, 0x00, 0x00, 0x00, 0x00, 0x00, 0x00,
   0x00, 0x00, 0x00, 0x00, 0x00, 0x00, 0x00, 0x00, 0x00, 0x00, 0x00, 0x00,
   0x08, 0x00, 0x00, 0x00, 0x00, 0x00, 0x00, 0x00, 0x00, 0x00, 0x00, 0x00,
   0x00, 0x00, 0x14, 0x00, 0x08, 0x00, 0x00, 0x08, 0x00, 0x00, 0x00, 0x00,
   0x00, 0x00, 0x00, 0x00, 0x00, 0x08, 0x14, 0x14, 0x3e, 0x40, 0x0e, 0x08,
   0x30, 0x0c, 0x00, 0x00, 0x00, 0x00, 0x00, 0x40, 0x00, 0x08, 0x14, 0x14,
   0x49, 0x47, 0x11, 0x08, 0x08, 0x10, 0x22, 0x00, 0x00, 0x00, 0x00, 0x40,
   0x00, 0x08, 0x00, 0x14, 0x49, 0x25, 0x11, 0x00, 0x04, 0x20, 0x22, 0x00,
   0x00, 0x00, 0x00, 0x20, 0x00, 0x08, 0x00, 0x7f, 0x09, 0x17, 0x0a, 0x00,
   0x04, 0x20, 0x14, 0x08, 0x00, 0x00, 0x00, 0x10, 0x00, 0x08, 0x00, 0x14,
   0x3e, 0x08, 0x04, 0x00, 0x04, 0x20, 0x7f, 0x08, 0x00, 0x00, 0x00, 0x08,
   0x00, 0x08, 0x00, 0x14, 0x48, 0x08, 0x4a, 0x00, 0x04, 0x20, 0x14, 0x08,
   0x00, 0x00, 0x00, 0x08, 0x00, 0x08, 0x00, 0x7f, 0x49, 0x74, 0x51, 0x00,
   0x04, 0x20, 0x22, 0x7f, 0x00, 0x7f, 0x00, 0x04, 0x00, 0x00, 0x00, 0x14,
   0x49, 0x52, 0x21, 0x00, 0x04, 0x20, 0x22, 0x08, 0x00, 0x00, 0x00, 0x02,
   0x00, 0x08, 0x00, 0x14, 0x49, 0x71, 0x51, 0x00, 0x08, 0x10, 0x00, 0x08,
   0x08, 0x00, 0x08, 0x01, 0x00, 0x08, 0x00, 0x14, 0x3e, 0x01, 0x4e, 0x00,
   0x30, 0x0c, 0x00, 0x08, 0x08, 0x00, 0x08, 0x01, 0x00, 0x00, 0x00, 0x00,
   0x08, 0x00, 0x00, 0x00, 0x00, 0x00, 0x00, 0x00, 0x0c, 0x00, 0x00, 0x00,
   0x00, 0x00, 0x00, 0x00, 0x08, 0x00, 0x00, 0x00, 0x00, 0x00, 0x00, 0x00,
   0x00, 0x00, 0x00, 0x00, 0x00, 0x00, 0x00, 0x00, 0x00, 0x00, 0x00, 0x00,
   0x00, 0x00, 0x00, 0x00, 0x00, 0x00, 0x00, 0x00, 0x00, 0x00, 0x00, 0x00,
   0x00, 0x00, 0x00, 0x00, 0x00, 0x00, 0x00, 0x00, 0x00, 0x00, 0x00, 0x00,
   0x00, 0x00, 0x00, 0x00, 0x00, 0x00, 0x00, 0x00, 0x00, 0x00, 0x00, 0x00,
   0x00, 0x00, 0x00, 0x00, 0x00, 0x00, 0x00, 0x00, 0x00, 0x00, 0x00, 0x00,
   0x00, 0x00, 0x00, 0x00, 0x00, 0x00, 0x00, 0x00, 0x1c, 0x08, 0x3e, 0x3e,
   0x14, 0x7f, 0x3e, 0x7f, 0x3e, 0x3e, 0x00, 0x00, 0x00, 0x00, 0x00, 0x1c,
   0x22, 0x0c, 0x41, 0x41, 0x14, 0x01, 0x41, 0x40, 0x41, 0x41, 0x00, 0x00,
   0x00, 0x00, 0x00, 0x22, 0x41, 0x0a, 0x41, 0x41, 0x12, 0x01, 0x41, 0x40,
   0x41, 0x41, 0x00, 0x00, 0x00, 0x00, 0x00, 0x22, 0x41, 0x08, 0x40, 0x20,
   0x12, 0x01, 0x01, 0x20, 0x41, 0x41, 0x00, 0x00, 0x10, 0x00, 0x04, 0x20,
   0x49, 0x08, 0x38, 0x1c, 0x11, 0x3f, 0x3f, 0x20, 0x3e, 0x7e, 0x08, 0x08,
   0x08, 0x7f, 0x08, 0x10, 0x49, 0x08, 0x06, 0x20, 0x11, 0x40, 0x41, 0x10,
   0x41, 0x40, 0x08, 0x08, 0x04, 0x00, 0x10, 0x08, 0x41, 0x08, 0x01, 0x41,
   0x7f, 0x41, 0x41, 0x10, 0x41, 0x41, 0x00, 0x00, 0x02, 0x00, 0x20, 0x08,
   0x41, 0x08, 0x01, 0x41, 0x10, 0x41, 0x41, 0x08, 0x41, 0x41, 0x00, 0x00,
   0x04, 0x7f, 0x10, 0x00, 0x22, 0x08, 0x01, 0x41, 0x10, 0x41, 0x41, 0x08,
   0x41, 0x41, 0x08, 0x08, 0x08, 0x00, 0x08, 0x08, 0x1c, 0x3e, 0x7f, 0x3e,
   0x10, 0x3e, 0x3e, 0x08, 0x3e, 0x3e, 0x08, 0x08, 0x10, 0x00, 0x04, 0x08,
   0x00, 0x00, 0x00, 0x00, 0x00, 0x00, 0x00, 0x00, 0x00, 0x00, 0x00, 0x0c,
   0x00, 0x00, 0x00, 0x00, 0x00, 0x00, 0x00, 0x00, 0x00, 0x00, 0x00, 0x00,
   0x00, 0x00, 0x00, 0x00, 0x00, 0x00, 0x00, 0x00, 0x00, 0x00, 0x00, 0x00,
   0x00, 0x00, 0x00, 0x00, 0x00, 0x00, 0x00, 0x00, 0x00, 0x00, 0x00, 0x00,
   0x00, 0x00, 0x00, 0x00, 0x00, 0x00, 0x00, 0x00, 0x00, 0x00, 0x00, 0x00,
   0x00, 0x00, 0x00, 0x00, 0x00, 0x00, 0x00, 0x00, 0x00, 0x00, 0x00, 0x00,
   0x00, 0x00, 0x00, 0x00, 0x00, 0x00, 0x00, 0x00, 0x00, 0x00, 0x00, 0x00,
   0x00, 0x00, 0x00, 0x00, 0x00, 0x00, 0x00, 0x00, 0x00, 0x00, 0x00, 0x00,
   0x3e, 0x3e, 0x3f, 0x3e, 0x3f, 0x7f, 0x7f, 0x3e, 0x41, 0x3e, 0x78, 0x11,
   0x01, 0x41, 0x41, 0x3e, 0x41, 0x41, 0x41, 0x41, 0x42, 0x01, 0x01, 0x41,
   0x41, 0x08, 0x40, 0x11, 0x01, 0x63, 0x43, 0x41, 0x41, 0x41, 0x41, 0x41,
   0x42, 0x01, 0x01, 0x41, 0x41, 0x08, 0x40, 0x09, 0x01, 0x55, 0x45, 0x41,
   0x59, 0x41, 0x41, 0x01, 0x42, 0x01, 0x01, 0x01, 0x41, 0x08, 0x40, 0x05,
   0x01, 0x49, 0x45, 0x41, 0x55, 0x7f, 0x3f, 0x01, 0x42, 0x1f, 0x1f, 0x79,
   0x7f, 0x08, 0x40, 0x1f, 0x01, 0x49, 0x49, 0x41, 0x55, 0x41, 0x21, 0x01,
   0x42, 0x01, 0x01, 0x41, 0x41, 0x08, 0x40, 0x21, 0x01, 0x41, 0x49, 0x41,
   0x7d, 0x41, 0x41, 0x41, 0x42, 0x01, 0x01, 0x41, 0x41, 0x08, 0x41, 0x21,
   0x01, 0x41, 0x51, 0x41, 0x01, 0x41, 0x41, 0x41, 0x42, 0x01, 0x01, 0x41,
   0x41, 0x08, 0x41, 0x41, 0x01, 0x41, 0x51, 0x41, 0x41, 0x41, 0x41, 0x41,
   0x42, 0x01, 0x01, 0x41, 0x41, 0x08, 0x41, 0x41, 0x01, 0x41, 0x61, 0x41,
   0x3e, 0x41, 0x3f, 0x3e, 0x3f, 0x7f, 0x01, 0x3e, 0x41, 0x3e, 0x3e, 0x41,
   0x7f, 0x41, 0x41, 0x3e, 0x00, 0x00, 0x00, 0x00, 0x00, 0x00, 0x00, 0x00,
   0x00, 0x00, 0x00, 0x00, 0x00, 0x00, 0x00, 0x00, 0x00, 0x00, 0x00, 0x00,
   0x00, 0x00, 0x00, 0x00, 0x00, 0x00, 0x00, 0x00, 0x00, 0x00, 0x00, 0x00,
   0x00, 0x00, 0x00, 0x00, 0x00, 0x00, 0x00, 0x00, 0x00, 0x00, 0x00, 0x00,
   0x00, 0x00, 0x00, 0x00, 0x00, 0x00, 0x00, 0x00, 0x00, 0x00, 0x00, 0x00,
   0x00, 0x00, 0x00, 0x00, 0x00, 0x00, 0x00, 0x00, 0x00, 0x00, 0x00, 0x00,
   0x00, 0x00, 0x00, 0x00, 0x00, 0x00, 0x00, 0x00, 0x00, 0x00, 0x00, 0x00,
   0x00, 0x00, 0x00, 0x00, 0x00, 0x00, 0x00, 0x00, 0x00, 0x00, 0x00, 0x00,
   0x00, 0x00, 0x08, 0x00, 0x3f, 0x3e, 0x3f, 0x3e, 0x7f, 0x41, 0x41, 0x41,
   0x41, 0x41, 0x7f, 0x3c, 0x01, 0x3c, 0x14, 0x00, 0x41, 0x41, 0x41, 0x41,
   0x08, 0x41, 0x41, 0x41, 0x41, 0x41, 0x40, 0x04, 0x01, 0x20, 0x22, 0x00,
   0x41, 0x41, 0x41, 0x41, 0x08, 0x41, 0x41, 0x41, 0x22, 0x22, 0x20, 0x04,
   0x02, 0x20, 0x00, 0x00, 0x41, 0x41, 0x41, 0x01, 0x08, 0x41, 0x41, 0x41,
   0x14, 0x14, 0x20, 0x04, 0x04, 0x20, 0x00, 0x00, 0x3f, 0x41, 0x3f, 0x3e,
   0x08, 0x41, 0x41, 0x49, 0x08, 0x08, 0x1c, 0x04, 0x08, 0x20, 0x00, 0x00,
   0x01, 0x41, 0x11, 0x40, 0x08, 0x41, 0x22, 0x49, 0x14, 0x08, 0x02, 0x04,
   0x08, 0x20, 0x00, 0x00, 0x01, 0x41, 0x21, 0x41, 0x08, 0x41, 0x22, 0x55,
   0x22, 0x08, 0x02, 0x04, 0x10, 0x20, 0x00, 0x00, 0x01, 0x51, 0x21, 0x41,
   0x08, 0x41, 0x14, 0x55, 0x41, 0x08, 0x01, 0x04, 0x20, 0x20, 0x00, 0x00,
   0x01, 0x51, 0x41, 0x41, 0x08, 0x41, 0x14, 0x63, 0x41, 0x08, 0x01, 0x04,
   0x40, 0x20, 0x00, 0x00, 0x01, 0x3e, 0x41, 0x3e, 0x08, 0x3e, 0x08, 0x41,
   0x41, 0x08, 0x7f, 0x3c, 0x40, 0x3c, 0x00, 0x00, 0x00, 0x20, 0x00, 0x00,
   0x00, 0x00, 0x00, 0x00, 0x00, 0x00, 0x00, 0x00, 0x00, 0x00, 0x00, 0x00,
   0x00, 0x40, 0x00, 0x00, 0x00, 0x00, 0x00, 0x00, 0x00, 0x00, 0x00, 0x00,
   0x00, 0x00, 0x00, 0xff, 0x00, 0x00, 0x00, 0x00, 0x00, 0x00, 0x00, 0x00,
   0x00, 0x00, 0x00, 0x00, 0x00, 0x00, 0x00, 0x00, 0x00, 0x00, 0x00, 0x00,
   0x00, 0x00, 0x00, 0x00, 0x00, 0x00, 0x00, 0x00, 0x00, 0x00, 0x00, 0x00,
   0x00, 0x00, 0x00, 0x00, 0x00, 0x00, 0x00, 0x00, 0x00, 0x00, 0x00, 0x00,
   0x00, 0x00, 0x00, 0x00, 0x04, 0x00, 0x00, 0x00, 0x00, 0x00, 0x00, 0x00,
   0x00, 0x00, 0x00, 0x00, 0x00, 0x00, 0x00, 0x00, 0x18, 0x00, 0x02, 0x00,
   0x40, 0x00, 0x30, 0x00, 0x02, 0x00, 0x00, 0x02, 0x0e, 0x00, 0x00, 0x00,
   0x20, 0x00, 0x02, 0x00, 0x40, 0x00, 0x48, 0x00, 0x02, 0x08, 0x40, 0x22,
   0x08, 0x00, 0x00, 0x00, 0x00, 0x00, 0x02, 0x00, 0x40, 0x00, 0x08, 0x00,
   0x02, 0x08, 0x40, 0x12, 0x08, 0x00, 0x00, 0x00, 0x00, 0x00, 0x02, 0x00,
   0x40, 0x00, 0x08, 0x00, 0x02, 0x00, 0x00, 0x0a, 0x08, 0x00, 0x00, 0x00,
   0x00, 0x3c, 0x3e, 0x3c, 0x7c, 0x3c, 0x3e, 0x7c, 0x3e, 0x0c, 0x60, 0x1e,
   0x08, 0x31, 0x3a, 0x3c, 0x00, 0x22, 0x42, 0x42, 0x42, 0x42, 0x08, 0x42,
   0x42, 0x08, 0x40, 0x22, 0x08, 0x4f, 0x46, 0x42, 0x00, 0x22, 0x42, 0x02,
   0x42, 0x7e, 0x08, 0x42, 0x42, 0x08, 0x40, 0x42, 0x08, 0x49, 0x42, 0x42,
   0x00, 0x22, 0x42, 0x02, 0x42, 0x02, 0x08, 0x42, 0x42, 0x08, 0x40, 0x42,
   0x08, 0x49, 0x42, 0x42, 0x00, 0x22, 0x42, 0x42, 0x42, 0x42, 0x08, 0x42,
   0x42, 0x08, 0x40, 0x42, 0x48, 0x49, 0x42, 0x42, 0x00, 0x7c, 0x3e, 0x3c,
   0x7c, 0x3c, 0x08, 0x7c, 0x42, 0x38, 0x40, 0x42, 0x38, 0x49, 0x42, 0x3c,
   0x00, 0x00, 0x00, 0x00, 0x00, 0x00, 0x00, 0x40, 0x00, 0x00, 0x40, 0x00,
   0x00, 0x00, 0x00, 0x00, 0x00, 0x00, 0x00, 0x00, 0x00, 0x00, 0x00, 0x42,
   0x00, 0x00, 0x22, 0x00, 0x00, 0x00, 0x00, 0x00, 0x00, 0x00, 0x00, 0x00,
   0x00, 0x00, 0x00, 0x3c, 0x00, 0x00, 0x1c, 0x00, 0x00, 0x00, 0x00, 0x00,
   0x00, 0x00, 0x00, 0x00, 0x00, 0x00, 0x00, 0x00, 0x00, 0x00, 0x00, 0x00,
   0x00, 0x00, 0x00, 0x00, 0x00, 0x00, 0x00, 0x00, 0x00, 0x00, 0x00, 0x00,
   0x00, 0x00, 0x00, 0x00, 0x00, 0x00, 0x00, 0x00, 0x00, 0x00, 0x00, 0x00,
   0x00, 0x00, 0x00, 0x00, 0x00, 0x00, 0x00, 0x00, 0x00, 0x00, 0x46, 0x00,
   0x00, 0x00, 0x00, 0x00, 0x04, 0x00, 0x00, 0x00, 0x00, 0x00, 0x00, 0x60,
   0x08, 0x06, 0x49, 0x00, 0x00, 0x00, 0x00, 0x00, 0x04, 0x00, 0x00, 0x00,
   0x00, 0x00, 0x00, 0x10, 0x08, 0x08, 0x31, 0x00, 0x00, 0x00, 0x00, 0x00,
   0x04, 0x00, 0x00, 0x00, 0x00, 0x00, 0x00, 0x08, 0x08, 0x10, 0x00, 0x00,
   0x00, 0x00, 0x00, 0x00, 0x04, 0x00, 0x00, 0x00, 0x00, 0x00, 0x00, 0x08,
   0x08, 0x10, 0x00, 0x00, 0x3e, 0x7c, 0x32, 0x7c, 0x3e, 0x42, 0x42, 0x41,
   0x22, 0x42, 0x7e, 0x06, 0x08, 0x60, 0x00, 0x00, 0x42, 0x42, 0x0e, 0x02,
   0x04, 0x42, 0x42, 0x49, 0x14, 0x42, 0x40, 0x08, 0x08, 0x10, 0x00, 0x00,
   0x42, 0x42, 0x02, 0x3c, 0x04, 0x42, 0x42, 0x49, 0x08, 0x42, 0x38, 0x08,
   0x08, 0x10, 0x00, 0x00, 0x42, 0x42, 0x02, 0x40, 0x04, 0x42, 0x24, 0x55,
   0x14, 0x42, 0x04, 0x08, 0x08, 0x10, 0x00, 0x00, 0x42, 0x42, 0x02, 0x40,
   0x44, 0x62, 0x24, 0x63, 0x22, 0x42, 0x02, 0x10, 0x08, 0x08, 0x00, 0x00,
   0x3e, 0x7c, 0x02, 0x3e, 0x38, 0x5c, 0x18, 0x41, 0x22, 0x7c, 0x7e, 0x60,
   0x08, 0x06, 0x00, 0x00, 0x02, 0x40, 0x00, 0x00, 0x00, 0x00, 0x00, 0x00,
   0x00, 0x40, 0x00, 0x00, 0x00, 0x00, 0x00, 0x00, 0x02, 0x40, 0x00, 0x00,
   0x00, 0x00, 0x00, 0x00, 0x00, 0x42, 0x00, 0x00, 0x00, 0x00, 0x00, 0x00,
   0x02, 0x40, 0x00, 0x00, 0x00, 0x00, 0x00, 0x00, 0x00, 0x3c, 0x00, 0x00,
   0x00, 0x00, 0x00, 0x00, 0x00, 0x00, 0x00, 0x00, 0x00, 0x00, 0x00, 0x00,
   0x00, 0x00, 0x00, 0x00, 0x00, 0x00, 0x00, 0x00 };
