#define u000080_u0000FF_latin_1_supplement_width 128
#define u000080_u0000FF_latin_1_supplement_height 128
static unsigned char u000080_u0000FF_latin_1_supplement_bits[] = {
   0x00, 0x00, 0x00, 0x00, 0x00, 0x00, 0x00, 0x00, 0x00, 0x00, 0x00, 0x00,
   0x00, 0x00, 0x00, 0x00, 0x00, 0x00, 0x00, 0x00, 0x00, 0x00, 0x00, 0x00,
   0x00, 0x00, 0x00, 0x00, 0x00, 0x00, 0x00, 0x00, 0x00, 0x00, 0x00, 0x00,
   0x00, 0x00, 0x00, 0x00, 0x00, 0x00, 0x00, 0x00, 0x00, 0x00, 0x00, 0x00,
   0x00, 0x00, 0x00, 0x00, 0x00, 0x00, 0x00, 0x00, 0x00, 0x00, 0x00, 0x00,
   0x00, 0x00, 0x00, 0x00, 0x00, 0x00, 0x00, 0x00, 0x00, 0x00, 0x00, 0x00,
   0x00, 0x00, 0x00, 0x00, 0x00, 0x00, 0x00, 0x00, 0x00, 0x00, 0x00, 0x00,
   0x00, 0x00, 0x00, 0x00, 0x00, 0x00, 0x00, 0x00, 0x00, 0x00, 0x00, 0x00,
   0x00, 0x00, 0x00, 0x00, 0x00, 0x00, 0x00, 0x00, 0x00, 0x00, 0x00, 0x00,
   0x00, 0x00, 0x00, 0x00, 0x00, 0x00, 0x00, 0x00, 0x00, 0x00, 0x00, 0x00,
   0x00, 0x00, 0x00, 0x00, 0x00, 0x00, 0x00, 0x00, 0x00, 0x00, 0x00, 0x00,
   0x00, 0x00, 0x00, 0x00, 0x00, 0x00, 0x00, 0x00, 0x00, 0x00, 0x00, 0x00,
   0x00, 0x00, 0x00, 0x00, 0x00, 0x00, 0x00, 0x00, 0x00, 0x00, 0x00, 0x00,
   0x00, 0x00, 0x00, 0x00, 0x00, 0x00, 0x00, 0x00, 0x00, 0x00, 0x00, 0x00,
   0x00, 0x00, 0x00, 0x00, 0x00, 0x00, 0x00, 0x00, 0x00, 0x00, 0x00, 0x00,
   0x00, 0x00, 0x00, 0x00, 0x00, 0x00, 0x00, 0x00, 0x00, 0x00, 0x00, 0x00,
   0x00, 0x00, 0x00, 0x00, 0x00, 0x00, 0x00, 0x00, 0x00, 0x00, 0x00, 0x00,
   0x00, 0x00, 0x00, 0x00, 0x00, 0x00, 0x00, 0x00, 0x00, 0x00, 0x00, 0x00,
   0x00, 0x00, 0x00, 0x00, 0x00, 0x00, 0x00, 0x00, 0x00, 0x00, 0x00, 0x00,
   0x00, 0x00, 0x00, 0x00, 0x00, 0x00, 0x00, 0x00, 0x00, 0x00, 0x00, 0x00,
   0x00, 0x00, 0x00, 0x00, 0x00, 0x00, 0x00, 0x00, 0x00, 0x00, 0x00, 0x00,
   0x00, 0x00, 0x00, 0x00, 0x00, 0x00, 0x00, 0x00, 0x00, 0x00, 0x00, 0x00,
   0x00, 0x00, 0x00, 0x00, 0x00, 0x00, 0x00, 0x00, 0x00, 0x00, 0x00, 0x00,
   0x00, 0x00, 0x00, 0x00, 0x00, 0x00, 0x00, 0x00, 0x00, 0x00, 0x00, 0x00,
   0x00, 0x00, 0x00, 0x00, 0x00, 0x00, 0x00, 0x00, 0x00, 0x00, 0x00, 0x00,
   0x00, 0x00, 0x00, 0x00, 0x00, 0x00, 0x00, 0x00, 0x00, 0x00, 0x00, 0x00,
   0x00, 0x00, 0x00, 0x00, 0x00, 0x00, 0x00, 0x00, 0x00, 0x00, 0x00, 0x00,
   0x00, 0x00, 0x00, 0x00, 0x00, 0x00, 0x00, 0x00, 0x00, 0x00, 0x00, 0x00,
   0x00, 0x00, 0x00, 0x00, 0x00, 0x00, 0x00, 0x00, 0x00, 0x00, 0x00, 0x00,
   0x00, 0x00, 0x00, 0x00, 0x00, 0x00, 0x00, 0x00, 0x00, 0x00, 0x00, 0x00,
   0x00, 0x00, 0x00, 0x00, 0x00, 0x00, 0x00, 0x00, 0x00, 0x00, 0x00, 0x00,
   0x00, 0x00, 0x00, 0x00, 0x00, 0x00, 0x00, 0x00, 0x00, 0x00, 0x00, 0x00,
   0x00, 0x00, 0x00, 0x00, 0x00, 0x00, 0x00, 0x00, 0x00, 0x00, 0x00, 0x00,
   0x00, 0x00, 0x00, 0x00, 0x00, 0x00, 0x00, 0x00, 0x00, 0x00, 0x00, 0x00,
   0x00, 0x00, 0x00, 0x00, 0x00, 0x00, 0x00, 0x00, 0x00, 0x00, 0x00, 0x00,
   0x00, 0x00, 0x00, 0x00, 0x00, 0x00, 0x00, 0x00, 0x00, 0x00, 0x00, 0x00,
   0x00, 0x00, 0x00, 0x00, 0x00, 0x00, 0x00, 0x00, 0x00, 0x00, 0x00, 0x00,
   0x00, 0x00, 0x00, 0x00, 0x00, 0x00, 0x00, 0x00, 0x00, 0x00, 0x00, 0x00,
   0x00, 0x00, 0x00, 0x00, 0x00, 0x00, 0x00, 0x00, 0x00, 0x00, 0x00, 0x00,
   0x00, 0x00, 0x00, 0x00, 0x00, 0x00, 0x00, 0x00, 0x00, 0x00, 0x00, 0x00,
   0x00, 0x00, 0x00, 0x00, 0x00, 0x00, 0x00, 0x00, 0x00, 0x00, 0x00, 0x00,
   0x00, 0x00, 0x00, 0x00, 0x00, 0x00, 0x00, 0x00, 0x00, 0x00, 0x00, 0x00,
   0x00, 0x00, 0x00, 0x00, 0x00, 0x00, 0x00, 0x00, 0x00, 0x00, 0x00, 0x00,
   0x00, 0x00, 0x00, 0x00, 0x00, 0x00, 0x00, 0x00, 0x00, 0x00, 0x00, 0x00,
   0x00, 0x00, 0x00, 0x00, 0x00, 0x00, 0x00, 0x00, 0x24, 0x00, 0x00, 0x00,
   0x00, 0x00, 0x00, 0x3c, 0x00, 0x00, 0x08, 0x38, 0x00, 0x41, 0x08, 0x3e,
   0x24, 0x1c, 0x18, 0x00, 0x00, 0x00, 0x1c, 0x00, 0x00, 0x00, 0x08, 0x44,
   0x00, 0x41, 0x08, 0x41, 0x00, 0x22, 0x14, 0x00, 0x00, 0x00, 0x22, 0x00,
   0x00, 0x00, 0x3e, 0x44, 0x00, 0x22, 0x08, 0x41, 0x00, 0x41, 0x3c, 0x00,
   0x00, 0x00, 0x41, 0x00, 0x00, 0x08, 0x49, 0x04, 0x22, 0x14, 0x08, 0x0f,
   0x00, 0x59, 0x00, 0x00, 0x00, 0x00, 0x4d, 0x00, 0x00, 0x08, 0x09, 0x1f,
   0x1c, 0x7f, 0x00, 0x31, 0x00, 0x45, 0x3c, 0x00, 0x00, 0x00, 0x55, 0x00,
   0x00, 0x00, 0x09, 0x02, 0x14, 0x08, 0x00, 0x41, 0x00, 0x45, 0x00, 0x24,
   0x7f, 0x00, 0x4d, 0x00, 0x00, 0x08, 0x49, 0x02, 0x1c, 0x7f, 0x08, 0x41,
   0x00, 0x45, 0x00, 0x12, 0x40, 0x00, 0x55, 0x00, 0x00, 0x08, 0x3e, 0x01,
   0x22, 0x08, 0x08, 0x46, 0x00, 0x59, 0x00, 0x09, 0x40, 0x00, 0x55, 0x00,
   0x00, 0x08, 0x08, 0x59, 0x00, 0x08, 0x08, 0x78, 0x00, 0x41, 0x00, 0x12,
   0x00, 0x00, 0x41, 0x00, 0x00, 0x08, 0x08, 0x27, 0x00, 0x08, 0x08, 0x41,
   0x00, 0x22, 0x00, 0x24, 0x00, 0x00, 0x22, 0x00, 0x00, 0x08, 0x00, 0x00,
   0x00, 0x00, 0x00, 0x41, 0x00, 0x1c, 0x00, 0x00, 0x00, 0x00, 0x1c, 0x00,
   0x00, 0x08, 0x00, 0x00, 0x00, 0x00, 0x00, 0x41, 0x00, 0x00, 0x00, 0x00,
   0x00, 0x00, 0x00, 0x00, 0x00, 0x08, 0x00, 0x00, 0x00, 0x00, 0x00, 0x3e,
   0x00, 0x00, 0x00, 0x00, 0x00, 0x00, 0x00, 0x00, 0x00, 0x00, 0x00, 0x00,
   0x00, 0x00, 0x00, 0x00, 0x00, 0x00, 0x00, 0x00, 0x00, 0x00, 0x00, 0x00,
   0x00, 0x00, 0x00, 0x00, 0x00, 0x00, 0x00, 0x00, 0x00, 0x00, 0x00, 0x00,
   0x00, 0x00, 0x00, 0x00, 0x1c, 0x00, 0x00, 0x00, 0x20, 0x00, 0x7e, 0x00,
   0x00, 0x00, 0x00, 0x00, 0x02, 0x02, 0x03, 0x00, 0x14, 0x00, 0x1c, 0x1c,
   0x18, 0x00, 0x5f, 0x00, 0x00, 0x08, 0x1c, 0x00, 0x43, 0x43, 0x44, 0x00,
   0x1c, 0x00, 0x10, 0x10, 0x04, 0x00, 0x5f, 0x00, 0x00, 0x0c, 0x14, 0x00,
   0x42, 0x42, 0x42, 0x00, 0x00, 0x08, 0x1c, 0x18, 0x00, 0x00, 0x5f, 0x00,
   0x00, 0x08, 0x1c, 0x00, 0x22, 0x22, 0x24, 0x00, 0x00, 0x08, 0x04, 0x10,
   0x00, 0x00, 0x5f, 0x00, 0x00, 0x08, 0x00, 0x00, 0x17, 0x17, 0x13, 0x10,
   0x00, 0x08, 0x1c, 0x1c, 0x00, 0x12, 0x5e, 0x08, 0x00, 0x1c, 0x1c, 0x00,
   0x08, 0x08, 0x08, 0x10, 0x00, 0x7f, 0x00, 0x00, 0x00, 0x12, 0x50, 0x08,
   0x00, 0x00, 0x00, 0x12, 0x08, 0x08, 0x08, 0x00, 0x00, 0x08, 0x00, 0x00,
   0x00, 0x12, 0x50, 0x00, 0x00, 0x00, 0x00, 0x24, 0x54, 0x34, 0x54, 0x10,
   0x00, 0x08, 0x00, 0x00, 0x00, 0x12, 0x50, 0x00, 0x00, 0x00, 0x00, 0x48,
   0x52, 0x42, 0x52, 0x10, 0x00, 0x00, 0x00, 0x00, 0x00, 0x12, 0x50, 0x00,
   0x00, 0x00, 0x00, 0x24, 0x71, 0x21, 0x71, 0x08, 0x00, 0x7f, 0x00, 0x00,
   0x00, 0x3e, 0x50, 0x00, 0x00, 0x00, 0x00, 0x12, 0x41, 0x11, 0x41, 0x04,
   0x00, 0x00, 0x00, 0x00, 0x00, 0x02, 0x50, 0x00, 0x10, 0x00, 0x00, 0x00,
   0x40, 0x70, 0x40, 0x44, 0x00, 0x00, 0x00, 0x00, 0x00, 0x02, 0x50, 0x00,
   0x10, 0x00, 0x00, 0x00, 0x00, 0x00, 0x00, 0x44, 0x00, 0x00, 0x00, 0x00,
   0x00, 0x02, 0x70, 0x00, 0x18, 0x00, 0x00, 0x00, 0x00, 0x00, 0x00, 0x38,
   0x00, 0x00, 0x00, 0x00, 0x00, 0x00, 0x00, 0x00, 0x00, 0x00, 0x00, 0x00,
   0x00, 0x00, 0x00, 0x00, 0x02, 0x20, 0x08, 0x46, 0x00, 0x1c, 0x00, 0x00,
   0x02, 0x20, 0x08, 0x00, 0x02, 0x20, 0x08, 0x00, 0x0c, 0x18, 0x14, 0x49,
   0x22, 0x14, 0x00, 0x00, 0x0c, 0x18, 0x14, 0x22, 0x0c, 0x18, 0x14, 0x22,
   0x10, 0x04, 0x22, 0x31, 0x22, 0x1c, 0x7e, 0x3e, 0x10, 0x04, 0x22, 0x22,
   0x10, 0x04, 0x22, 0x22, 0x00, 0x00, 0x00, 0x00, 0x00, 0x00, 0x09, 0x41,
   0x00, 0x00, 0x00, 0x00, 0x00, 0x00, 0x00, 0x00, 0x3e, 0x3e, 0x3e, 0x3e,
   0x3e, 0x3e, 0x09, 0x41, 0x7f, 0x7f, 0x7f, 0x7f, 0x3e, 0x3e, 0x3e, 0x3e,
   0x41, 0x41, 0x41, 0x41, 0x41, 0x41, 0x09, 0x01, 0x01, 0x01, 0x01, 0x01,
   0x08, 0x08, 0x08, 0x08, 0x41, 0x41, 0x41, 0x41, 0x41, 0x41, 0x3f, 0x01,
   0x01, 0x01, 0x01, 0x01, 0x08, 0x08, 0x08, 0x08, 0x7f, 0x7f, 0x7f, 0x7f,
   0x7f, 0x7f, 0x09, 0x01, 0x1f, 0x1f, 0x1f, 0x1f, 0x08, 0x08, 0x08, 0x08,
   0x41, 0x41, 0x41, 0x41, 0x41, 0x41, 0x09, 0x41, 0x01, 0x01, 0x01, 0x01,
   0x08, 0x08, 0x08, 0x08, 0x41, 0x41, 0x41, 0x41, 0x41, 0x41, 0x09, 0x41,
   0x01, 0x01, 0x01, 0x01, 0x08, 0x08, 0x08, 0x08, 0x41, 0x41, 0x41, 0x41,
   0x41, 0x41, 0x09, 0x41, 0x01, 0x01, 0x01, 0x01, 0x08, 0x08, 0x08, 0x08,
   0x41, 0x41, 0x41, 0x41, 0x41, 0x41, 0x79, 0x3e, 0x7f, 0x7f, 0x7f, 0x7f,
   0x3e, 0x3e, 0x3e, 0x3e, 0x00, 0x00, 0x00, 0x00, 0x00, 0x00, 0x00, 0x08,
   0x00, 0x00, 0x00, 0x00, 0x00, 0x00, 0x00, 0x00, 0x00, 0x00, 0x00, 0x00,
   0x00, 0x00, 0x00, 0x08, 0x00, 0x00, 0x00, 0x00, 0x00, 0x00, 0x00, 0x00,
   0x00, 0x00, 0x00, 0x00, 0x00, 0x00, 0x00, 0x0c, 0x00, 0x00, 0x00, 0x00,
   0x00, 0x00, 0x00, 0x00, 0x00, 0x00, 0x00, 0x00, 0x00, 0x00, 0x00, 0x00,
   0x00, 0x00, 0x00, 0x00, 0x00, 0x00, 0x00, 0x00, 0x00, 0x46, 0x02, 0x20,
   0x08, 0x46, 0x00, 0x00, 0x00, 0x02, 0x20, 0x08, 0x00, 0x20, 0x00, 0x00,
   0x00, 0x49, 0x0c, 0x18, 0x14, 0x49, 0x22, 0x00, 0x40, 0x0c, 0x18, 0x14,
   0x22, 0x18, 0x00, 0x00, 0x3f, 0x31, 0x10, 0x04, 0x22, 0x31, 0x22, 0x00,
   0x7e, 0x10, 0x04, 0x22, 0x22, 0x04, 0x01, 0x0e, 0x42, 0x00, 0x00, 0x00,
   0x00, 0x00, 0x00, 0x00, 0x61, 0x00, 0x00, 0x00, 0x00, 0x00, 0x01, 0x11,
   0x42, 0x41, 0x3e, 0x3e, 0x3e, 0x3e, 0x3e, 0x00, 0x51, 0x41, 0x41, 0x41,
   0x41, 0x41, 0x3f, 0x21, 0x42, 0x43, 0x41, 0x41, 0x41, 0x41, 0x41, 0x22,
   0x51, 0x41, 0x41, 0x41, 0x41, 0x22, 0x41, 0x11, 0x4f, 0x45, 0x41, 0x41,
   0x41, 0x41, 0x41, 0x14, 0x49, 0x41, 0x41, 0x41, 0x41, 0x14, 0x41, 0x09,
   0x42, 0x49, 0x41, 0x41, 0x41, 0x41, 0x41, 0x08, 0x49, 0x41, 0x41, 0x41,
   0x41, 0x08, 0x41, 0x31, 0x42, 0x49, 0x41, 0x41, 0x41, 0x41, 0x41, 0x14,
   0x45, 0x41, 0x41, 0x41, 0x41, 0x08, 0x41, 0x41, 0x42, 0x51, 0x41, 0x41,
   0x41, 0x41, 0x41, 0x22, 0x45, 0x41, 0x41, 0x41, 0x41, 0x08, 0x3f, 0x41,
   0x42, 0x61, 0x41, 0x41, 0x41, 0x41, 0x41, 0x00, 0x43, 0x41, 0x41, 0x41,
   0x41, 0x08, 0x01, 0x41, 0x3f, 0x41, 0x3e, 0x3e, 0x3e, 0x3e, 0x3e, 0x00,
   0x3f, 0x3e, 0x3e, 0x3e, 0x3e, 0x08, 0x01, 0x39, 0x00, 0x00, 0x00, 0x00,
   0x00, 0x00, 0x00, 0x00, 0x01, 0x00, 0x00, 0x00, 0x00, 0x00, 0x00, 0x00,
   0x00, 0x00, 0x00, 0x00, 0x00, 0x00, 0x00, 0x00, 0x00, 0x00, 0x00, 0x00,
   0x00, 0x00, 0x00, 0x00, 0x00, 0x00, 0x00, 0x00, 0x00, 0x00, 0x00, 0x00,
   0x00, 0x00, 0x00, 0x00, 0x00, 0x00, 0x00, 0x00, 0x00, 0x00, 0x00, 0x00,
   0x00, 0x00, 0x00, 0x00, 0x00, 0x00, 0x00, 0x00, 0x00, 0x00, 0x00, 0x00,
   0x00, 0x00, 0x00, 0x00, 0x00, 0x00, 0x00, 0x00, 0x00, 0x00, 0x00, 0x00,
   0x00, 0x00, 0x00, 0x00, 0x00, 0x00, 0x00, 0x00, 0x00, 0x00, 0x00, 0x00,
   0x00, 0x00, 0x00, 0x00, 0x00, 0x00, 0x00, 0x00, 0x04, 0x20, 0x08, 0x46,
   0x00, 0x1c, 0x00, 0x00, 0x04, 0x20, 0x08, 0x00, 0x02, 0x20, 0x04, 0x00,
   0x18, 0x18, 0x14, 0x49, 0x24, 0x14, 0x00, 0x00, 0x18, 0x18, 0x14, 0x24,
   0x0c, 0x18, 0x0a, 0x12, 0x20, 0x04, 0x22, 0x31, 0x24, 0x1c, 0x00, 0x00,
   0x20, 0x04, 0x22, 0x24, 0x10, 0x04, 0x11, 0x12, 0x00, 0x00, 0x00, 0x00,
   0x00, 0x00, 0x00, 0x00, 0x00, 0x00, 0x00, 0x00, 0x00, 0x00, 0x00, 0x00,
   0x3c, 0x3c, 0x3c, 0x3c, 0x3c, 0x3c, 0x3f, 0x3c, 0x3c, 0x3c, 0x3c, 0x3c,
   0x0c, 0x0c, 0x0c, 0x0c, 0x22, 0x22, 0x22, 0x22, 0x22, 0x22, 0x48, 0x42,
   0x42, 0x42, 0x42, 0x42, 0x08, 0x08, 0x08, 0x08, 0x22, 0x22, 0x22, 0x22,
   0x22, 0x22, 0x7f, 0x02, 0x7e, 0x7e, 0x7e, 0x7e, 0x08, 0x08, 0x08, 0x08,
   0x22, 0x22, 0x22, 0x22, 0x22, 0x22, 0x09, 0x02, 0x02, 0x02, 0x02, 0x02,
   0x08, 0x08, 0x08, 0x08, 0x22, 0x22, 0x22, 0x22, 0x22, 0x22, 0x49, 0x42,
   0x42, 0x42, 0x42, 0x42, 0x08, 0x08, 0x08, 0x08, 0x7c, 0x7c, 0x7c, 0x7c,
   0x7c, 0x7c, 0x3f, 0x3c, 0x3c, 0x3c, 0x3c, 0x3c, 0x38, 0x38, 0x38, 0x38,
   0x00, 0x00, 0x00, 0x00, 0x00, 0x00, 0x00, 0x10, 0x00, 0x00, 0x00, 0x00,
   0x00, 0x00, 0x00, 0x00, 0x00, 0x00, 0x00, 0x00, 0x00, 0x00, 0x00, 0x10,
   0x00, 0x00, 0x00, 0x00, 0x00, 0x00, 0x00, 0x00, 0x00, 0x00, 0x00, 0x00,
   0x00, 0x00, 0x00, 0x18, 0x00, 0x00, 0x00, 0x00, 0x00, 0x00, 0x00, 0x00,
   0x00, 0x00, 0x00, 0x00, 0x00, 0x00, 0x00, 0x00, 0x00, 0x00, 0x00, 0x00,
   0x00, 0x00, 0x00, 0x00, 0x00, 0x00, 0x00, 0x00, 0x00, 0x00, 0x00, 0x00,
   0x00, 0x00, 0x00, 0x00, 0x00, 0x00, 0x00, 0x00, 0x00, 0x00, 0x00, 0x00,
   0x00, 0x00, 0x00, 0x00, 0x00, 0x00, 0x00, 0x00, 0x00, 0x00, 0x00, 0x00,
   0x26, 0x46, 0x04, 0x20, 0x08, 0x46, 0x00, 0x00, 0x00, 0x04, 0x20, 0x08,
   0x00, 0x20, 0x02, 0x00, 0x18, 0x49, 0x18, 0x18, 0x14, 0x49, 0x24, 0x00,
   0x00, 0x18, 0x18, 0x14, 0x24, 0x18, 0x02, 0x24, 0x24, 0x31, 0x20, 0x04,
   0x22, 0x31, 0x24, 0x08, 0x00, 0x20, 0x04, 0x22, 0x24, 0x04, 0x02, 0x24,
   0x20, 0x00, 0x00, 0x00, 0x00, 0x00, 0x00, 0x08, 0x40, 0x00, 0x00, 0x00,
   0x00, 0x00, 0x02, 0x00, 0x7c, 0x3a, 0x3c, 0x3c, 0x3c, 0x3c, 0x3c, 0x00,
   0x7c, 0x42, 0x42, 0x42, 0x42, 0x42, 0x3e, 0x42, 0x42, 0x46, 0x42, 0x42,
   0x42, 0x42, 0x42, 0x3e, 0x62, 0x42, 0x42, 0x42, 0x42, 0x42, 0x42, 0x42,
   0x42, 0x42, 0x42, 0x42, 0x42, 0x42, 0x42, 0x00, 0x52, 0x42, 0x42, 0x42,
   0x42, 0x42, 0x42, 0x42, 0x42, 0x42, 0x42, 0x42, 0x42, 0x42, 0x42, 0x08,
   0x4a, 0x42, 0x42, 0x42, 0x42, 0x42, 0x42, 0x42, 0x42, 0x42, 0x42, 0x42,
   0x42, 0x42, 0x42, 0x08, 0x46, 0x62, 0x62, 0x62, 0x62, 0x42, 0x42, 0x42,
   0x3c, 0x42, 0x3c, 0x3c, 0x3c, 0x3c, 0x3c, 0x00, 0x3e, 0x5c, 0x5c, 0x5c,
   0x5c, 0x7c, 0x3e, 0x7c, 0x00, 0x00, 0x00, 0x00, 0x00, 0x00, 0x00, 0x00,
   0x02, 0x00, 0x00, 0x00, 0x00, 0x40, 0x02, 0x40, 0x00, 0x00, 0x00, 0x00,
   0x00, 0x00, 0x00, 0x00, 0x00, 0x00, 0x00, 0x00, 0x00, 0x42, 0x02, 0x42,
   0x00, 0x00, 0x00, 0x00, 0x00, 0x00, 0x00, 0x00, 0x00, 0x00, 0x00, 0x00,
   0x00, 0x3c, 0x02, 0x3c, 0x00, 0x00, 0x00, 0x00, 0x00, 0x00, 0x00, 0x00,
   0x00, 0x00, 0x00, 0x00, 0x00, 0x00, 0x00, 0x00 };
