#define u002500_u00257F_box_drawing_width 128
#define u002500_u00257F_box_drawing_height 128
static unsigned char u002500_u00257F_box_drawing_bits[] = {
   0x00, 0x00, 0x10, 0x18, 0x00, 0x00, 0x10, 0x18, 0x00, 0x00, 0x10, 0x18,
   0x00, 0x00, 0x00, 0x00, 0x00, 0x00, 0x10, 0x18, 0x00, 0x00, 0x10, 0x18,
   0x00, 0x00, 0x10, 0x18, 0x00, 0x00, 0x00, 0x00, 0x00, 0x00, 0x10, 0x18,
   0x00, 0x00, 0x10, 0x18, 0x00, 0x00, 0x00, 0x00, 0x00, 0x00, 0x00, 0x00,
   0x00, 0x00, 0x10, 0x18, 0x00, 0x00, 0x10, 0x18, 0x00, 0x00, 0x10, 0x18,
   0x00, 0x00, 0x00, 0x00, 0x00, 0x00, 0x10, 0x18, 0x00, 0x00, 0x00, 0x00,
   0x00, 0x00, 0x10, 0x18, 0x00, 0x00, 0x00, 0x00, 0x00, 0x00, 0x10, 0x18,
   0x00, 0x00, 0x10, 0x18, 0x00, 0x00, 0x10, 0x18, 0x00, 0x00, 0x00, 0x00,
   0x00, 0x00, 0x10, 0x18, 0x00, 0x00, 0x10, 0x18, 0x00, 0x00, 0x10, 0x18,
   0x00, 0x00, 0x00, 0x00, 0x00, 0xff, 0x10, 0x18, 0x00, 0xdb, 0x10, 0x18,
   0x00, 0xb5, 0x00, 0x00, 0x00, 0xf0, 0x00, 0xf8, 0xff, 0xff, 0x10, 0x18,
   0xdb, 0xdb, 0x10, 0x18, 0xb5, 0xb5, 0x10, 0x18, 0xf0, 0xf0, 0xf8, 0xf8,
   0x00, 0x00, 0x10, 0x18, 0x00, 0x00, 0x10, 0x18, 0x00, 0x00, 0x10, 0x18,
   0x10, 0x10, 0x18, 0x18, 0x00, 0x00, 0x10, 0x18, 0x00, 0x00, 0x00, 0x00,
   0x00, 0x00, 0x10, 0x18, 0x10, 0x10, 0x18, 0x18, 0x00, 0x00, 0x10, 0x18,
   0x00, 0x00, 0x10, 0x18, 0x00, 0x00, 0x10, 0x18, 0x10, 0x10, 0x18, 0x18,
   0x00, 0x00, 0x10, 0x18, 0x00, 0x00, 0x10, 0x18, 0x00, 0x00, 0x10, 0x18,
   0x10, 0x10, 0x18, 0x18, 0x00, 0x00, 0x10, 0x18, 0x00, 0x00, 0x10, 0x18,
   0x00, 0x00, 0x00, 0x00, 0x10, 0x10, 0x18, 0x18, 0x00, 0x00, 0x10, 0x18,
   0x00, 0x00, 0x10, 0x18, 0x00, 0x00, 0x10, 0x18, 0x10, 0x10, 0x18, 0x18,
   0x00, 0x00, 0x10, 0x18, 0x00, 0x00, 0x10, 0x18, 0x00, 0x00, 0x10, 0x18,
   0x10, 0x10, 0x18, 0x18, 0x00, 0x00, 0x00, 0x00, 0x10, 0x10, 0x18, 0x18,
   0x10, 0x10, 0x18, 0x18, 0x10, 0x10, 0x18, 0x10, 0x00, 0x00, 0x00, 0x00,
   0x10, 0x10, 0x18, 0x18, 0x10, 0x10, 0x18, 0x18, 0x10, 0x10, 0x18, 0x10,
   0x00, 0x00, 0x00, 0x00, 0x10, 0x10, 0x18, 0x18, 0x10, 0x10, 0x18, 0x18,
   0x10, 0x10, 0x18, 0x10, 0x00, 0x00, 0x00, 0x00, 0x10, 0x10, 0x18, 0x18,
   0x10, 0x10, 0x18, 0x18, 0x10, 0x10, 0x18, 0x10, 0x00, 0x00, 0x00, 0x00,
   0x10, 0x10, 0x18, 0x18, 0x10, 0x10, 0x18, 0x18, 0x10, 0x10, 0x18, 0x10,
   0x00, 0x00, 0x00, 0x00, 0x10, 0x10, 0x18, 0x18, 0x10, 0x10, 0x18, 0x18,
   0x10, 0x10, 0x18, 0x10, 0x00, 0x00, 0x00, 0x00, 0x10, 0x10, 0x18, 0x18,
   0x10, 0x10, 0x18, 0x18, 0x10, 0x10, 0x18, 0x10, 0x00, 0x1f, 0x00, 0x1f,
   0x10, 0xf0, 0x18, 0xf8, 0x10, 0x1f, 0x18, 0x1f, 0x10, 0xf0, 0x18, 0x10,
   0x1f, 0x1f, 0x1f, 0x1f, 0xf0, 0xf0, 0xf8, 0xf8, 0x1f, 0x1f, 0x1f, 0x1f,
   0xf0, 0xf0, 0xf8, 0xf8, 0x10, 0x10, 0x18, 0x18, 0x00, 0x00, 0x00, 0x00,
   0x00, 0x00, 0x00, 0x00, 0x10, 0x10, 0x10, 0x18, 0x10, 0x10, 0x18, 0x18,
   0x00, 0x00, 0x00, 0x00, 0x00, 0x00, 0x00, 0x00, 0x10, 0x10, 0x10, 0x18,
   0x10, 0x10, 0x18, 0x18, 0x00, 0x00, 0x00, 0x00, 0x00, 0x00, 0x00, 0x00,
   0x10, 0x10, 0x10, 0x18, 0x10, 0x10, 0x18, 0x18, 0x00, 0x00, 0x00, 0x00,
   0x00, 0x00, 0x00, 0x00, 0x10, 0x10, 0x10, 0x18, 0x10, 0x10, 0x18, 0x18,
   0x00, 0x00, 0x00, 0x00, 0x00, 0x00, 0x00, 0x00, 0x10, 0x10, 0x10, 0x18,
   0x10, 0x10, 0x18, 0x18, 0x00, 0x00, 0x00, 0x00, 0x00, 0x00, 0x00, 0x00,
   0x10, 0x10, 0x10, 0x18, 0x10, 0x10, 0x18, 0x18, 0x00, 0x00, 0x00, 0x00,
   0x00, 0x00, 0x00, 0x00, 0x10, 0x10, 0x10, 0x18, 0x18, 0x18, 0x10, 0x18,
   0x10, 0x10, 0x18, 0x10, 0x18, 0x18, 0x10, 0x18, 0x00, 0x00, 0x00, 0x00,
   0x18, 0x18, 0x10, 0x18, 0x10, 0x10, 0x18, 0x10, 0x18, 0x18, 0x10, 0x18,
   0x00, 0x00, 0x00, 0x00, 0x18, 0x18, 0x10, 0x18, 0x10, 0x10, 0x18, 0x10,
   0x18, 0x18, 0x10, 0x18, 0x00, 0x00, 0x00, 0x00, 0x18, 0x18, 0x10, 0x18,
   0x10, 0x10, 0x18, 0x10, 0x18, 0x18, 0x10, 0x18, 0x00, 0x00, 0x00, 0x00,
   0x18, 0x18, 0x10, 0x18, 0x10, 0x10, 0x18, 0x10, 0x18, 0x18, 0x10, 0x18,
   0x00, 0x00, 0x00, 0x00, 0x18, 0x18, 0x10, 0x18, 0x10, 0x10, 0x18, 0x10,
   0x18, 0x18, 0x10, 0x18, 0x00, 0x00, 0x00, 0x00, 0x18, 0x18, 0x10, 0x18,
   0x10, 0x10, 0x18, 0x10, 0x18, 0x18, 0x10, 0x18, 0x00, 0x00, 0x00, 0x00,
   0x18, 0xf8, 0xf8, 0xf8, 0x10, 0x1f, 0x18, 0x10, 0x18, 0x1f, 0x1f, 0x1f,
   0x00, 0x1f, 0xf0, 0xff, 0xf8, 0xf8, 0xf8, 0xf8, 0x1f, 0x1f, 0x1f, 0x1f,
   0x1f, 0x1f, 0x1f, 0x1f, 0xff, 0xff, 0xff, 0xff, 0x18, 0x10, 0x18, 0x18,
   0x10, 0x10, 0x10, 0x18, 0x18, 0x10, 0x18, 0x18, 0x10, 0x10, 0x10, 0x10,
   0x18, 0x10, 0x18, 0x18, 0x10, 0x10, 0x10, 0x18, 0x18, 0x10, 0x18, 0x18,
   0x10, 0x10, 0x10, 0x10, 0x18, 0x10, 0x18, 0x18, 0x10, 0x10, 0x10, 0x18,
   0x18, 0x10, 0x18, 0x18, 0x10, 0x10, 0x10, 0x10, 0x18, 0x10, 0x18, 0x18,
   0x10, 0x10, 0x10, 0x18, 0x18, 0x10, 0x18, 0x18, 0x10, 0x10, 0x10, 0x10,
   0x18, 0x10, 0x18, 0x18, 0x10, 0x10, 0x10, 0x18, 0x18, 0x10, 0x18, 0x18,
   0x10, 0x10, 0x10, 0x10, 0x18, 0x10, 0x18, 0x18, 0x10, 0x10, 0x10, 0x18,
   0x18, 0x10, 0x18, 0x18, 0x10, 0x10, 0x10, 0x10, 0x18, 0x10, 0x18, 0x18,
   0x10, 0x10, 0x10, 0x18, 0x18, 0x10, 0x18, 0x18, 0x10, 0x10, 0x10, 0x10,
   0x00, 0x00, 0x00, 0x00, 0x10, 0x10, 0x10, 0x10, 0x18, 0x18, 0x18, 0x18,
   0x10, 0x10, 0x10, 0x10, 0x00, 0x00, 0x00, 0x00, 0x10, 0x10, 0x10, 0x10,
   0x18, 0x18, 0x18, 0x18, 0x10, 0x10, 0x10, 0x10, 0x00, 0x00, 0x00, 0x00,
   0x10, 0x10, 0x10, 0x10, 0x18, 0x18, 0x18, 0x18, 0x10, 0x10, 0x10, 0x10,
   0x00, 0x00, 0x00, 0x00, 0x10, 0x10, 0x10, 0x10, 0x18, 0x18, 0x18, 0x18,
   0x10, 0x10, 0x10, 0x10, 0x00, 0x00, 0x00, 0x00, 0x10, 0x10, 0x10, 0x10,
   0x18, 0x18, 0x18, 0x18, 0x10, 0x10, 0x10, 0x10, 0x00, 0x00, 0x00, 0x00,
   0x10, 0x10, 0x10, 0x10, 0x18, 0x18, 0x18, 0x18, 0x10, 0x10, 0x10, 0x10,
   0x00, 0x00, 0x00, 0x00, 0x10, 0x10, 0x10, 0x10, 0x18, 0x18, 0x18, 0x18,
   0x10, 0x10, 0x10, 0x10, 0x00, 0x1f, 0xf8, 0xff, 0x10, 0x1f, 0xf0, 0xff,
   0x18, 0x1f, 0xf8, 0xff, 0x10, 0x1f, 0xf0, 0xff, 0xff, 0xff, 0xff, 0xff,
   0xff, 0xff, 0xff, 0xff, 0xff, 0xff, 0xff, 0xff, 0xff, 0xff, 0xff, 0xff,
   0x18, 0x18, 0x18, 0x18, 0x00, 0x00, 0x00, 0x00, 0x00, 0x00, 0x00, 0x00,
   0x10, 0x10, 0x10, 0x10, 0x18, 0x18, 0x18, 0x18, 0x00, 0x00, 0x00, 0x00,
   0x00, 0x00, 0x00, 0x00, 0x10, 0x10, 0x10, 0x10, 0x18, 0x18, 0x18, 0x18,
   0x00, 0x00, 0x00, 0x00, 0x00, 0x00, 0x00, 0x00, 0x10, 0x10, 0x10, 0x10,
   0x18, 0x18, 0x18, 0x18, 0x00, 0x00, 0x00, 0x00, 0x00, 0x00, 0x00, 0x00,
   0x10, 0x10, 0x10, 0x10, 0x18, 0x18, 0x18, 0x18, 0x00, 0x00, 0x00, 0x00,
   0x00, 0x00, 0x00, 0x00, 0x10, 0x10, 0x10, 0x10, 0x18, 0x18, 0x18, 0x18,
   0x00, 0x00, 0x00, 0x00, 0x00, 0x00, 0x00, 0x00, 0x10, 0x10, 0x10, 0x10,
   0x18, 0x18, 0x18, 0x18, 0x00, 0x00, 0x00, 0x00, 0x00, 0x00, 0x00, 0x00,
   0x10, 0x10, 0x10, 0x10, 0x18, 0x10, 0x18, 0x18, 0x18, 0x10, 0x10, 0x18,
   0x10, 0x18, 0x18, 0x18, 0x00, 0x00, 0x10, 0x18, 0x18, 0x10, 0x18, 0x18,
   0x18, 0x10, 0x10, 0x18, 0x10, 0x18, 0x18, 0x18, 0x00, 0x00, 0x10, 0x18,
   0x18, 0x10, 0x18, 0x18, 0x18, 0x10, 0x10, 0x18, 0x10, 0x18, 0x18, 0x18,
   0x00, 0x00, 0x10, 0x18, 0x18, 0x10, 0x18, 0x18, 0x18, 0x10, 0x10, 0x18,
   0x10, 0x18, 0x18, 0x18, 0x00, 0x00, 0x10, 0x18, 0x18, 0x10, 0x18, 0x18,
   0x18, 0x10, 0x10, 0x18, 0x10, 0x18, 0x18, 0x18, 0x00, 0x00, 0x10, 0x18,
   0x18, 0x10, 0x18, 0x18, 0x18, 0x10, 0x10, 0x18, 0x10, 0x18, 0x18, 0x18,
   0x00, 0x00, 0x10, 0x18, 0x18, 0x10, 0x18, 0x18, 0x18, 0x10, 0x10, 0x18,
   0x10, 0x18, 0x18, 0x18, 0x00, 0x00, 0x10, 0x18, 0x18, 0x10, 0x18, 0x1f,
   0xf8, 0x1f, 0xf8, 0xff, 0xff, 0x1f, 0xf8, 0xff, 0x00, 0xe7, 0x00, 0x00,
   0xff, 0xff, 0xff, 0xff, 0xff, 0xff, 0xff, 0xff, 0xff, 0xff, 0xff, 0xff,
   0xe7, 0xe7, 0x00, 0x00, 0x10, 0x18, 0x18, 0x10, 0x10, 0x18, 0x18, 0x10,
   0x18, 0x18, 0x18, 0x18, 0x00, 0x00, 0x10, 0x18, 0x10, 0x18, 0x18, 0x10,
   0x10, 0x18, 0x18, 0x10, 0x18, 0x18, 0x18, 0x18, 0x00, 0x00, 0x10, 0x18,
   0x10, 0x18, 0x18, 0x10, 0x10, 0x18, 0x18, 0x10, 0x18, 0x18, 0x18, 0x18,
   0x00, 0x00, 0x10, 0x18, 0x10, 0x18, 0x18, 0x10, 0x10, 0x18, 0x18, 0x10,
   0x18, 0x18, 0x18, 0x18, 0x00, 0x00, 0x10, 0x18, 0x10, 0x18, 0x18, 0x10,
   0x10, 0x18, 0x18, 0x10, 0x18, 0x18, 0x18, 0x18, 0x00, 0x00, 0x10, 0x18,
   0x10, 0x18, 0x18, 0x10, 0x10, 0x18, 0x18, 0x10, 0x18, 0x18, 0x18, 0x18,
   0x00, 0x00, 0x10, 0x18, 0x10, 0x18, 0x18, 0x10, 0x10, 0x18, 0x18, 0x10,
   0x18, 0x18, 0x18, 0x18, 0x00, 0x00, 0x10, 0x18, 0x00, 0x28, 0x00, 0x00,
   0x00, 0x00, 0x00, 0x00, 0x10, 0x28, 0x28, 0x10, 0x28, 0x28, 0x10, 0x28,
   0x00, 0x28, 0x00, 0x00, 0x00, 0x00, 0x00, 0x00, 0x10, 0x28, 0x28, 0x10,
   0x28, 0x28, 0x10, 0x28, 0x00, 0x28, 0x00, 0x00, 0x00, 0x00, 0x00, 0x00,
   0x10, 0x28, 0x28, 0x10, 0x28, 0x28, 0x10, 0x28, 0x00, 0x28, 0x00, 0x00,
   0x00, 0x00, 0x00, 0x00, 0x10, 0x28, 0x28, 0x10, 0x28, 0x28, 0x10, 0x28,
   0x00, 0x28, 0x00, 0x00, 0x00, 0x00, 0x00, 0x00, 0x10, 0x28, 0x28, 0x10,
   0x28, 0x28, 0x10, 0x28, 0x00, 0x28, 0x00, 0x00, 0x00, 0x00, 0x00, 0x00,
   0x10, 0x28, 0x28, 0x10, 0x28, 0x28, 0x10, 0x28, 0x00, 0x28, 0x00, 0x00,
   0x00, 0x00, 0x00, 0x00, 0x10, 0x28, 0x28, 0x10, 0x28, 0x28, 0x10, 0x28,
   0xff, 0x28, 0xf0, 0x00, 0xf8, 0x1f, 0x00, 0x3f, 0xf0, 0x28, 0xe8, 0x1f,
   0x28, 0x2f, 0xf0, 0x28, 0x00, 0x28, 0x10, 0xf8, 0x08, 0x10, 0x3f, 0x20,
   0x10, 0xf8, 0x08, 0x10, 0x3f, 0x20, 0x10, 0xe8, 0xff, 0x28, 0xf0, 0x28,
   0xe8, 0x1f, 0x28, 0x2f, 0xf0, 0x00, 0xf8, 0x1f, 0x00, 0x3f, 0xf0, 0x28,
   0x00, 0x28, 0x10, 0x28, 0x28, 0x10, 0x28, 0x28, 0x00, 0x00, 0x00, 0x00,
   0x00, 0x00, 0x10, 0x28, 0x00, 0x28, 0x10, 0x28, 0x28, 0x10, 0x28, 0x28,
   0x00, 0x00, 0x00, 0x00, 0x00, 0x00, 0x10, 0x28, 0x00, 0x28, 0x10, 0x28,
   0x28, 0x10, 0x28, 0x28, 0x00, 0x00, 0x00, 0x00, 0x00, 0x00, 0x10, 0x28,
   0x00, 0x28, 0x10, 0x28, 0x28, 0x10, 0x28, 0x28, 0x00, 0x00, 0x00, 0x00,
   0x00, 0x00, 0x10, 0x28, 0x00, 0x28, 0x10, 0x28, 0x28, 0x10, 0x28, 0x28,
   0x00, 0x00, 0x00, 0x00, 0x00, 0x00, 0x10, 0x28, 0x00, 0x28, 0x10, 0x28,
   0x28, 0x10, 0x28, 0x28, 0x00, 0x00, 0x00, 0x00, 0x00, 0x00, 0x10, 0x28,
   0x28, 0x10, 0x28, 0x28, 0x00, 0x00, 0x00, 0x10, 0x28, 0x28, 0x10, 0x28,
   0x28, 0x00, 0x00, 0x10, 0x28, 0x10, 0x28, 0x28, 0x00, 0x00, 0x00, 0x10,
   0x28, 0x28, 0x10, 0x28, 0x28, 0x00, 0x00, 0x10, 0x28, 0x10, 0x28, 0x28,
   0x00, 0x00, 0x00, 0x10, 0x28, 0x28, 0x10, 0x28, 0x28, 0x00, 0x00, 0x10,
   0x28, 0x10, 0x28, 0x28, 0x00, 0x00, 0x00, 0x10, 0x28, 0x28, 0x10, 0x28,
   0x28, 0x00, 0x00, 0x10, 0x28, 0x10, 0x28, 0x28, 0x00, 0x00, 0x00, 0x10,
   0x28, 0x28, 0x10, 0x28, 0x28, 0x00, 0x00, 0x10, 0x28, 0x10, 0x28, 0x28,
   0x00, 0x00, 0x00, 0x10, 0x28, 0x28, 0x10, 0x28, 0x28, 0x00, 0x00, 0x10,
   0x28, 0x10, 0x28, 0x28, 0x00, 0x00, 0x00, 0x10, 0x28, 0x28, 0x10, 0x28,
   0x28, 0x00, 0x00, 0x08, 0xe8, 0x1f, 0x28, 0x2f, 0xff, 0x00, 0xff, 0xff,
   0x28, 0xef, 0xff, 0x28, 0xef, 0x00, 0x00, 0x04, 0x08, 0x10, 0x2f, 0x20,
   0x00, 0xff, 0x00, 0x00, 0xff, 0x00, 0x10, 0xff, 0x00, 0x80, 0x03, 0x03,
   0xe8, 0x1f, 0x28, 0x2f, 0xff, 0x28, 0xef, 0xff, 0x00, 0xff, 0xff, 0x28,
   0xef, 0x40, 0x04, 0x00, 0x28, 0x10, 0x28, 0x28, 0x10, 0x28, 0x28, 0x00,
   0x00, 0x00, 0x10, 0x28, 0x28, 0x20, 0x08, 0x00, 0x28, 0x10, 0x28, 0x28,
   0x10, 0x28, 0x28, 0x00, 0x00, 0x00, 0x10, 0x28, 0x28, 0x10, 0x10, 0x00,
   0x28, 0x10, 0x28, 0x28, 0x10, 0x28, 0x28, 0x00, 0x00, 0x00, 0x10, 0x28,
   0x28, 0x10, 0x10, 0x00, 0x28, 0x10, 0x28, 0x28, 0x10, 0x28, 0x28, 0x00,
   0x00, 0x00, 0x10, 0x28, 0x28, 0x10, 0x10, 0x00, 0x28, 0x10, 0x28, 0x28,
   0x10, 0x28, 0x28, 0x00, 0x00, 0x00, 0x10, 0x28, 0x28, 0x10, 0x10, 0x00,
   0x28, 0x10, 0x28, 0x28, 0x10, 0x28, 0x28, 0x00, 0x00, 0x00, 0x10, 0x28,
   0x28, 0x10, 0x10, 0x00, 0x10, 0x80, 0x01, 0x81, 0x00, 0x10, 0x00, 0x00,
   0x00, 0x18, 0x00, 0x00, 0x00, 0x10, 0x00, 0x18, 0x10, 0x40, 0x02, 0x81,
   0x00, 0x10, 0x00, 0x00, 0x00, 0x18, 0x00, 0x00, 0x00, 0x10, 0x00, 0x18,
   0x10, 0x40, 0x02, 0x42, 0x00, 0x10, 0x00, 0x00, 0x00, 0x18, 0x00, 0x00,
   0x00, 0x10, 0x00, 0x18, 0x10, 0x20, 0x04, 0x42, 0x00, 0x10, 0x00, 0x00,
   0x00, 0x18, 0x00, 0x00, 0x00, 0x10, 0x00, 0x18, 0x10, 0x20, 0x04, 0x24,
   0x00, 0x10, 0x00, 0x00, 0x00, 0x18, 0x00, 0x00, 0x00, 0x10, 0x00, 0x18,
   0x10, 0x10, 0x08, 0x18, 0x00, 0x10, 0x00, 0x00, 0x00, 0x18, 0x00, 0x00,
   0x00, 0x10, 0x00, 0x18, 0x20, 0x10, 0x08, 0x10, 0x00, 0x10, 0x00, 0x00,
   0x00, 0x18, 0x00, 0x00, 0x00, 0x10, 0x00, 0x18, 0x40, 0x10, 0x10, 0x10,
   0x00, 0x10, 0x00, 0x00, 0x0f, 0x18, 0xf0, 0x00, 0xf0, 0x10, 0x0f, 0x18,
   0x80, 0x08, 0x10, 0x10, 0x0f, 0x00, 0xf0, 0x10, 0x0f, 0x00, 0xf0, 0x18,
   0xff, 0x18, 0xff, 0x10, 0x00, 0x08, 0x10, 0x10, 0x00, 0x00, 0x00, 0x10,
   0x00, 0x00, 0x00, 0x18, 0x00, 0x18, 0x00, 0x10, 0x00, 0x04, 0x20, 0x18,
   0x00, 0x00, 0x00, 0x10, 0x00, 0x00, 0x00, 0x18, 0x00, 0x18, 0x00, 0x10,
   0x00, 0x04, 0x20, 0x24, 0x00, 0x00, 0x00, 0x10, 0x00, 0x00, 0x00, 0x18,
   0x00, 0x18, 0x00, 0x10, 0x00, 0x02, 0x40, 0x42, 0x00, 0x00, 0x00, 0x10,
   0x00, 0x00, 0x00, 0x18, 0x00, 0x18, 0x00, 0x10, 0x00, 0x02, 0x40, 0x42,
   0x00, 0x00, 0x00, 0x10, 0x00, 0x00, 0x00, 0x18, 0x00, 0x18, 0x00, 0x10,
   0x00, 0x01, 0x80, 0x81, 0x00, 0x00, 0x00, 0x10, 0x00, 0x00, 0x00, 0x18,
   0x00, 0x18, 0x00, 0x10, 0x00, 0x01, 0x80, 0x81, 0x00, 0x00, 0x00, 0x10,
   0x00, 0x00, 0x00, 0x18, 0x00, 0x18, 0x00, 0x10 };
