#define Tamsyn8x16b_width 256
#define Tamsyn8x16b_height 128
static unsigned char Tamsyn8x16b_bits[] = {
   0x00, 0x00, 0x00, 0x00, 0x00, 0x00, 0x00, 0x00, 0x00, 0x00, 0x00, 0x00,
   0x00, 0x00, 0x00, 0x00, 0x00, 0x00, 0x00, 0x00, 0x00, 0x00, 0x00, 0x00,
   0x00, 0x00, 0x00, 0x00, 0x00, 0x00, 0x00, 0x00, 0x00, 0x00, 0x00, 0x00,
   0x00, 0x00, 0x00, 0x00, 0x00, 0x00, 0x00, 0x00, 0x00, 0x00, 0x00, 0x00,
   0x00, 0x00, 0x00, 0x00, 0x00, 0x00, 0x00, 0x00, 0x00, 0x00, 0x00, 0x00,
   0x00, 0x00, 0x00, 0x00, 0x00, 0x00, 0x00, 0x00, 0x00, 0x00, 0x00, 0x00,
   0x00, 0x00, 0x00, 0x00, 0x00, 0x00, 0x00, 0x00, 0x00, 0x00, 0x00, 0x00,
   0x00, 0x00, 0x00, 0x00, 0x00, 0x00, 0x00, 0x00, 0x00, 0x00, 0x00, 0x00,
   0x00, 0x00, 0x00, 0x00, 0x00, 0x00, 0x00, 0x00, 0x00, 0x00, 0x00, 0x00,
   0x00, 0x00, 0x00, 0x00, 0x00, 0x00, 0x00, 0x00, 0x00, 0x00, 0x00, 0x00,
   0x00, 0x00, 0x00, 0x00, 0x00, 0x00, 0x00, 0x00, 0x00, 0x00, 0x00, 0x00,
   0x00, 0x00, 0x00, 0x00, 0x00, 0x00, 0x00, 0x00, 0x00, 0x00, 0x00, 0x00,
   0x00, 0x00, 0x00, 0x00, 0x00, 0x00, 0x00, 0x00, 0x00, 0x00, 0x00, 0x00,
   0x00, 0x00, 0x00, 0x00, 0x00, 0x00, 0x00, 0x00, 0x00, 0x00, 0x00, 0x00,
   0x00, 0x00, 0x00, 0x00, 0x00, 0x00, 0x00, 0x00, 0x00, 0x00, 0x00, 0x00,
   0x00, 0x00, 0x00, 0x00, 0x00, 0x00, 0x00, 0x00, 0x00, 0x00, 0x00, 0x00,
   0x00, 0x00, 0x00, 0x00, 0x00, 0x00, 0x00, 0x00, 0x00, 0x00, 0x00, 0x00,
   0x00, 0x00, 0x00, 0x00, 0x00, 0x00, 0x00, 0x00, 0x00, 0x00, 0x00, 0x00,
   0x00, 0x00, 0x00, 0x00, 0x00, 0x00, 0x00, 0x00, 0x00, 0x00, 0x00, 0x00,
   0x00, 0x00, 0x00, 0x00, 0x00, 0x00, 0x00, 0x00, 0x00, 0x00, 0x00, 0x00,
   0x00, 0x00, 0x00, 0x00, 0x00, 0x00, 0x00, 0x00, 0x00, 0x00, 0x00, 0x00,
   0x00, 0x00, 0x00, 0x00, 0x00, 0x00, 0x00, 0x00, 0x00, 0x00, 0x00, 0x00,
   0x00, 0x00, 0x00, 0x00, 0x00, 0x00, 0x00, 0x00, 0x00, 0x00, 0x00, 0x00,
   0x00, 0x00, 0x00, 0x00, 0x00, 0x00, 0x00, 0x00, 0x00, 0x00, 0x00, 0x00,
   0x00, 0x00, 0x00, 0x00, 0x00, 0x00, 0x00, 0x00, 0x00, 0x00, 0x00, 0x00,
   0x00, 0x00, 0x00, 0x00, 0x00, 0x00, 0x00, 0x00, 0x00, 0x00, 0x00, 0x00,
   0x00, 0x00, 0x00, 0x00, 0x00, 0x00, 0x00, 0x00, 0x00, 0x00, 0x00, 0x00,
   0x00, 0x00, 0x00, 0x00, 0x00, 0x00, 0x00, 0x00, 0x00, 0x00, 0x00, 0x00,
   0x00, 0x00, 0x00, 0x00, 0x00, 0x00, 0x00, 0x00, 0x00, 0x00, 0x00, 0x00,
   0x00, 0x00, 0x00, 0x00, 0x00, 0x00, 0x00, 0x00, 0x00, 0x00, 0x00, 0x00,
   0x00, 0x00, 0x00, 0x00, 0x00, 0x00, 0x00, 0x00, 0x00, 0x00, 0x00, 0x00,
   0x00, 0x00, 0x00, 0x00, 0x00, 0x00, 0x00, 0x00, 0x00, 0x00, 0x00, 0x00,
   0x00, 0x00, 0x00, 0x00, 0x00, 0x00, 0x00, 0x00, 0x00, 0x00, 0x00, 0x00,
   0x00, 0x00, 0x00, 0x00, 0x00, 0x00, 0x00, 0x00, 0x00, 0x00, 0x00, 0x00,
   0x00, 0x00, 0x00, 0x00, 0x00, 0x00, 0x00, 0x00, 0x00, 0x00, 0x00, 0x00,
   0x00, 0x00, 0x00, 0x00, 0x00, 0x00, 0x00, 0x00, 0x00, 0x00, 0x00, 0x00,
   0x00, 0x00, 0x00, 0x00, 0x00, 0x00, 0x00, 0x00, 0x00, 0x00, 0x00, 0x00,
   0x00, 0x00, 0x00, 0x00, 0x00, 0x00, 0x00, 0x00, 0x00, 0x00, 0x00, 0x00,
   0x00, 0x00, 0x00, 0x00, 0x00, 0x00, 0x00, 0x00, 0x00, 0x00, 0x00, 0x00,
   0x00, 0x00, 0x00, 0x00, 0x00, 0x00, 0x00, 0x00, 0x00, 0x00, 0x00, 0x00,
   0x00, 0x00, 0x00, 0x00, 0x00, 0x00, 0x00, 0x00, 0x00, 0x00, 0x00, 0x00,
   0x00, 0x00, 0x00, 0x00, 0x00, 0x00, 0x00, 0x00, 0x00, 0x00, 0x00, 0x00,
   0x00, 0x00, 0x00, 0x00, 0x00, 0x00, 0x00, 0x00, 0x00, 0x00, 0x00, 0x00,
   0x00, 0x00, 0x00, 0x00, 0x00, 0x00, 0x00, 0x00, 0x00, 0x00, 0x00, 0x00,
   0x00, 0x00, 0x00, 0x00, 0x00, 0x00, 0x00, 0x00, 0x00, 0x00, 0x00, 0x00,
   0x00, 0x00, 0x00, 0x00, 0x00, 0x00, 0x36, 0x00, 0x00, 0x00, 0x00, 0x18,
   0x00, 0x00, 0x00, 0x00, 0x00, 0x00, 0x00, 0x00, 0x00, 0x00, 0x00, 0x00,
   0x00, 0x00, 0x00, 0x00, 0x00, 0x00, 0x00, 0x00, 0x00, 0x00, 0x00, 0x00,
   0x00, 0x18, 0x36, 0x00, 0x18, 0x00, 0x1c, 0x18, 0x30, 0x0c, 0x00, 0x00,
   0x00, 0x00, 0x00, 0xc0, 0x00, 0x00, 0x00, 0x00, 0x00, 0x00, 0x00, 0x00,
   0x00, 0x00, 0x00, 0x00, 0x00, 0x00, 0x00, 0x3c, 0x00, 0x3c, 0x36, 0x6c,
   0x18, 0x1c, 0x36, 0x18, 0x18, 0x18, 0x00, 0x00, 0x00, 0x00, 0x00, 0xc0,
   0x3c, 0x18, 0x3c, 0x7e, 0x60, 0x7e, 0x18, 0x7e, 0x3c, 0x3c, 0x00, 0x00,
   0x60, 0x00, 0x06, 0x62, 0x00, 0x3c, 0x36, 0x6c, 0x7c, 0xb6, 0x36, 0x18,
   0x18, 0x18, 0x00, 0x18, 0x00, 0x00, 0x00, 0x60, 0x66, 0x1c, 0x66, 0x60,
   0x70, 0x06, 0x0c, 0x60, 0x66, 0x66, 0x00, 0x00, 0x30, 0x00, 0x0c, 0x60,
   0x00, 0x3c, 0x00, 0xfe, 0x06, 0x76, 0x36, 0x00, 0x0c, 0x30, 0x6c, 0x18,
   0x00, 0x00, 0x00, 0x60, 0x76, 0x1e, 0x60, 0x30, 0x78, 0x06, 0x06, 0x30,
   0x66, 0x66, 0x38, 0x38, 0x18, 0x00, 0x18, 0x60, 0x00, 0x18, 0x00, 0x6c,
   0x06, 0x3c, 0x1c, 0x00, 0x0c, 0x30, 0x38, 0x18, 0x00, 0x00, 0x00, 0x30,
   0x76, 0x18, 0x60, 0x38, 0x6c, 0x3e, 0x3e, 0x30, 0x66, 0x66, 0x38, 0x38,
   0x0c, 0x7e, 0x30, 0x30, 0x00, 0x18, 0x00, 0x6c, 0x3c, 0x10, 0x9c, 0x00,
   0x0c, 0x30, 0xfe, 0xff, 0x00, 0x7e, 0x00, 0x30, 0x66, 0x18, 0x30, 0x60,
   0x66, 0x60, 0x66, 0x18, 0x3c, 0x66, 0x00, 0x00, 0x06, 0x00, 0x60, 0x18,
   0x00, 0x00, 0x00, 0x6c, 0x60, 0x78, 0xb6, 0x00, 0x0c, 0x30, 0x38, 0x18,
   0x00, 0x00, 0x00, 0x18, 0x6e, 0x18, 0x18, 0x60, 0xfe, 0x60, 0x66, 0x18,
   0x66, 0x7c, 0x00, 0x00, 0x0c, 0x00, 0x30, 0x00, 0x00, 0x00, 0x00, 0xfe,
   0x60, 0xdc, 0x66, 0x00, 0x0c, 0x30, 0x6c, 0x18, 0x00, 0x00, 0x00, 0x18,
   0x6e, 0x18, 0x0c, 0x60, 0x60, 0x60, 0x66, 0x0c, 0x66, 0x60, 0x00, 0x00,
   0x18, 0x7e, 0x18, 0x00, 0x00, 0x18, 0x00, 0x6c, 0x3e, 0xda, 0x66, 0x00,
   0x0c, 0x30, 0x00, 0x18, 0x38, 0x00, 0x38, 0x0c, 0x66, 0x18, 0x06, 0x66,
   0x60, 0x66, 0x66, 0x0c, 0x66, 0x30, 0x38, 0x38, 0x30, 0x00, 0x0c, 0x18,
   0x00, 0x18, 0x00, 0x6c, 0x18, 0x70, 0xdc, 0x00, 0x18, 0x18, 0x00, 0x00,
   0x38, 0x00, 0x38, 0x0c, 0x3c, 0x7e, 0x7e, 0x3c, 0x60, 0x3c, 0x3c, 0x0c,
   0x3c, 0x18, 0x38, 0x38, 0x60, 0x00, 0x06, 0x18, 0x00, 0x00, 0x00, 0x00,
   0x18, 0x00, 0x00, 0x00, 0x18, 0x18, 0x00, 0x00, 0x30, 0x00, 0x00, 0x06,
   0x00, 0x00, 0x00, 0x00, 0x00, 0x00, 0x00, 0x00, 0x00, 0x00, 0x00, 0x30,
   0x00, 0x00, 0x00, 0x00, 0x00, 0x00, 0x00, 0x00, 0x00, 0x00, 0x00, 0x00,
   0x30, 0x0c, 0x00, 0x00, 0x30, 0x00, 0x00, 0x06, 0x00, 0x00, 0x00, 0x00,
   0x00, 0x00, 0x00, 0x00, 0x00, 0x00, 0x00, 0x30, 0x00, 0x00, 0x00, 0x00,
   0x00, 0x00, 0x00, 0x00, 0x00, 0x00, 0x00, 0x00, 0x00, 0x00, 0x00, 0x00,
   0x18, 0x00, 0x00, 0x00, 0x00, 0x00, 0x00, 0x00, 0x00, 0x00, 0x00, 0x00,
   0x00, 0x00, 0x00, 0x18, 0x00, 0x00, 0x00, 0x00, 0x00, 0x00, 0x00, 0x00,
   0x00, 0x00, 0x00, 0x00, 0x00, 0x00, 0x00, 0x00, 0x00, 0x00, 0x00, 0x00,
   0x00, 0x00, 0x00, 0x00, 0x00, 0x00, 0x00, 0x00, 0x00, 0x00, 0x00, 0x00,
   0x00, 0x00, 0x00, 0x00, 0x00, 0x00, 0x00, 0x00, 0x00, 0x00, 0x00, 0x00,
   0x00, 0x00, 0x00, 0x00, 0x00, 0x00, 0x00, 0x00, 0x00, 0x00, 0x00, 0x00,
   0x00, 0x00, 0x00, 0x00, 0x00, 0x00, 0x00, 0x00, 0x00, 0x00, 0x00, 0x00,
   0x00, 0x00, 0x00, 0x00, 0x00, 0x00, 0x00, 0x00, 0x00, 0x00, 0x00, 0x00,
   0x00, 0x00, 0x00, 0x00, 0x00, 0x00, 0x00, 0x00, 0x00, 0x00, 0x00, 0x00,
   0x00, 0x00, 0x00, 0x00, 0x00, 0x00, 0x00, 0x00, 0x7c, 0x00, 0x00, 0x00,
   0x00, 0x00, 0x00, 0x00, 0x00, 0x00, 0x00, 0x00, 0x00, 0x00, 0x00, 0x00,
   0x00, 0x00, 0x00, 0x00, 0x00, 0x00, 0x00, 0x00, 0x00, 0x00, 0x00, 0x7c,
   0x06, 0x3e, 0x18, 0x00, 0xc6, 0x18, 0x3e, 0x78, 0x1e, 0x7e, 0x7e, 0x78,
   0x66, 0x7e, 0x60, 0xc6, 0x06, 0xc6, 0xc6, 0x3c, 0x3e, 0x3c, 0x3e, 0x7c,
   0xff, 0x66, 0x66, 0xc6, 0x66, 0x66, 0x7e, 0x0c, 0x06, 0x30, 0x3c, 0x00,
   0xc6, 0x3c, 0x66, 0x0c, 0x36, 0x06, 0x06, 0x0c, 0x66, 0x18, 0x60, 0x66,
   0x06, 0xee, 0xce, 0x66, 0x66, 0x66, 0x66, 0x06, 0x18, 0x66, 0x66, 0xc6,
   0x66, 0x66, 0x30, 0x0c, 0x0c, 0x30, 0x66, 0x00, 0xf6, 0x66, 0x66, 0x06,
   0x66, 0x06, 0x06, 0x06, 0x66, 0x18, 0x60, 0x36, 0x06, 0xfe, 0xde, 0x66,
   0x66, 0x66, 0x66, 0x06, 0x18, 0x66, 0x66, 0xc6, 0x66, 0x66, 0x30, 0x0c,
   0x0c, 0x30, 0x00, 0x00, 0xd6, 0x66, 0x66, 0x06, 0x66, 0x06, 0x06, 0x06,
   0x66, 0x18, 0x60, 0x1e, 0x06, 0xd6, 0xf6, 0x66, 0x66, 0x66, 0x66, 0x0e,
   0x18, 0x66, 0x66, 0xc6, 0x3c, 0x3c, 0x18, 0x0c, 0x18, 0x30, 0x00, 0x00,
   0xd6, 0x66, 0x3e, 0x06, 0x66, 0x3e, 0x3e, 0x06, 0x7e, 0x18, 0x60, 0x0e,
   0x06, 0xc6, 0xe6, 0x66, 0x3e, 0x66, 0x3e, 0x3c, 0x18, 0x66, 0x66, 0xc6,
   0x18, 0x18, 0x18, 0x0c, 0x18, 0x30, 0x00, 0x00, 0xd6, 0x7e, 0x66, 0x06,
   0x66, 0x06, 0x06, 0x66, 0x66, 0x18, 0x60, 0x1e, 0x06, 0xc6, 0xc6, 0x66,
   0x06, 0x66, 0x36, 0x70, 0x18, 0x66, 0x66, 0xd6, 0x3c, 0x18, 0x0c, 0x0c,
   0x30, 0x30, 0x00, 0x00, 0xf6, 0x66, 0x66, 0x06, 0x66, 0x06, 0x06, 0x66,
   0x66, 0x18, 0x66, 0x36, 0x06, 0xc6, 0xc6, 0x66, 0x06, 0x66, 0x66, 0x60,
   0x18, 0x66, 0x66, 0xfe, 0x66, 0x18, 0x0c, 0x0c, 0x30, 0x30, 0x00, 0x00,
   0xf6, 0x66, 0x66, 0x0c, 0x36, 0x06, 0x06, 0x6c, 0x66, 0x18, 0x66, 0x66,
   0x06, 0xc6, 0xc6, 0x66, 0x06, 0x66, 0x66, 0x60, 0x18, 0x66, 0x3c, 0xee,
   0x66, 0x18, 0x06, 0x0c, 0x60, 0x30, 0x00, 0x00, 0x06, 0x66, 0x3e, 0x78,
   0x1e, 0x7e, 0x06, 0x78, 0x66, 0x7e, 0x3c, 0xc6, 0x7e, 0xc6, 0xc6, 0x3c,
   0x06, 0x3c, 0x66, 0x3e, 0x18, 0x3c, 0x18, 0xc6, 0x66, 0x18, 0x7e, 0x0c,
   0x60, 0x30, 0x00, 0x00, 0x06, 0x00, 0x00, 0x00, 0x00, 0x00, 0x00, 0x00,
   0x00, 0x00, 0x00, 0x00, 0x00, 0x00, 0x00, 0x00, 0x00, 0x30, 0x00, 0x00,
   0x00, 0x00, 0x00, 0x00, 0x00, 0x00, 0x00, 0x0c, 0xc0, 0x30, 0x00, 0x00,
   0xfc, 0x00, 0x00, 0x00, 0x00, 0x00, 0x00, 0x00, 0x00, 0x00, 0x00, 0x00,
   0x00, 0x00, 0x00, 0x00, 0x00, 0x60, 0x00, 0x00, 0x00, 0x00, 0x00, 0x00,
   0x00, 0x00, 0x00, 0x7c, 0xc0, 0x3e, 0x00, 0xff, 0x00, 0x00, 0x00, 0x00,
   0x00, 0x00, 0x00, 0x00, 0x00, 0x00, 0x00, 0x00, 0x00, 0x00, 0x00, 0x00,
   0x00, 0x00, 0x00, 0x00, 0x00, 0x00, 0x00, 0x00, 0x00, 0x00, 0x00, 0x00,
   0x00, 0x00, 0x00, 0x00, 0x00, 0x00, 0x00, 0x00, 0x00, 0x00, 0x00, 0x00,
   0x00, 0x00, 0x00, 0x00, 0x00, 0x00, 0x00, 0x00, 0x00, 0x00, 0x00, 0x00,
   0x00, 0x00, 0x00, 0x00, 0x00, 0x00, 0x00, 0x00, 0x00, 0x00, 0x00, 0x00,
   0x00, 0x00, 0x00, 0x00, 0x00, 0x00, 0x00, 0x00, 0x00, 0x00, 0x00, 0x00,
   0x00, 0x00, 0x00, 0x00, 0x00, 0x00, 0x00, 0x00, 0x00, 0x00, 0x00, 0x00,
   0x00, 0x00, 0x00, 0x00, 0x00, 0x00, 0x00, 0x00, 0x0c, 0x00, 0x00, 0x00,
   0x00, 0x00, 0x00, 0x00, 0x00, 0x00, 0x00, 0x00, 0x00, 0x00, 0x00, 0x00,
   0x00, 0x00, 0x00, 0x00, 0x00, 0x00, 0x00, 0x00, 0x00, 0x00, 0x00, 0x70,
   0x18, 0x0e, 0x00, 0x00, 0x18, 0x00, 0x06, 0x00, 0x60, 0x00, 0x78, 0x00,
   0x06, 0x18, 0x30, 0x06, 0x1e, 0x00, 0x00, 0x00, 0x00, 0x00, 0x00, 0x00,
   0x00, 0x00, 0x00, 0x00, 0x00, 0x00, 0x00, 0x18, 0x18, 0x18, 0xcc, 0x00,
   0x30, 0x00, 0x06, 0x00, 0x60, 0x00, 0x0c, 0x00, 0x06, 0x18, 0x30, 0x06,
   0x18, 0x00, 0x00, 0x00, 0x00, 0x00, 0x00, 0x00, 0x0c, 0x00, 0x00, 0x00,
   0x00, 0x00, 0x00, 0x18, 0x18, 0x18, 0xde, 0x00, 0x60, 0x00, 0x06, 0x00,
   0x60, 0x00, 0x0c, 0x00, 0x06, 0x00, 0x00, 0x06, 0x18, 0x00, 0x00, 0x00,
   0x00, 0x00, 0x00, 0x00, 0x0c, 0x00, 0x00, 0x00, 0x00, 0x00, 0x00, 0x18,
   0x18, 0x18, 0xf6, 0x00, 0x00, 0x3c, 0x3e, 0x7c, 0x7c, 0x3c, 0x7e, 0x7c,
   0x3e, 0x1e, 0x3c, 0x66, 0x18, 0xfe, 0x3e, 0x3c, 0x3e, 0x7c, 0x76, 0x7c,
   0x7e, 0x66, 0x66, 0xc6, 0x66, 0x66, 0x7e, 0x18, 0x18, 0x18, 0x66, 0x00,
   0x00, 0x60, 0x66, 0x06, 0x66, 0x66, 0x0c, 0x66, 0x66, 0x18, 0x30, 0x36,
   0x18, 0xd6, 0x66, 0x66, 0x66, 0x66, 0x0e, 0x06, 0x0c, 0x66, 0x66, 0xc6,
   0x66, 0x66, 0x60, 0x18, 0x18, 0x18, 0x00, 0x00, 0x00, 0x7c, 0x66, 0x06,
   0x66, 0x66, 0x0c, 0x66, 0x66, 0x18, 0x30, 0x1e, 0x18, 0xd6, 0x66, 0x66,
   0x66, 0x66, 0x06, 0x0e, 0x0c, 0x66, 0x66, 0xc6, 0x3c, 0x66, 0x30, 0x0f,
   0x18, 0xf0, 0x00, 0x00, 0x00, 0x66, 0x66, 0x06, 0x66, 0x7e, 0x0c, 0x66,
   0x66, 0x18, 0x30, 0x1e, 0x18, 0xd6, 0x66, 0x66, 0x66, 0x66, 0x06, 0x3c,
   0x0c, 0x66, 0x66, 0xd6, 0x18, 0x66, 0x18, 0x18, 0x18, 0x18, 0x00, 0x00,
   0x00, 0x66, 0x66, 0x06, 0x66, 0x06, 0x0c, 0x66, 0x66, 0x18, 0x30, 0x36,
   0x18, 0xd6, 0x66, 0x66, 0x66, 0x66, 0x06, 0x70, 0x0c, 0x66, 0x66, 0xd6,
   0x3c, 0x66, 0x0c, 0x18, 0x18, 0x18, 0x00, 0x00, 0x00, 0x66, 0x66, 0x06,
   0x66, 0x06, 0x0c, 0x66, 0x66, 0x18, 0x30, 0x66, 0x18, 0xd6, 0x66, 0x66,
   0x66, 0x66, 0x06, 0x60, 0x0c, 0x66, 0x3c, 0xfe, 0x66, 0x66, 0x06, 0x18,
   0x18, 0x18, 0x00, 0x00, 0x00, 0x7c, 0x3e, 0x7c, 0x7c, 0x7c, 0x0c, 0x7c,
   0x66, 0x7e, 0x30, 0xc6, 0x7e, 0xd6, 0x66, 0x3c, 0x3e, 0x7c, 0x06, 0x3e,
   0x78, 0x7c, 0x18, 0xee, 0x66, 0x7c, 0x7e, 0x18, 0x18, 0x18, 0x00, 0x00,
   0x00, 0x00, 0x00, 0x00, 0x00, 0x00, 0x00, 0x60, 0x00, 0x00, 0x30, 0x00,
   0x00, 0x00, 0x00, 0x00, 0x06, 0x60, 0x00, 0x00, 0x00, 0x00, 0x00, 0x00,
   0x00, 0x60, 0x00, 0x18, 0x18, 0x18, 0x00, 0x00, 0x00, 0x00, 0x00, 0x00,
   0x00, 0x00, 0x00, 0x60, 0x00, 0x00, 0x30, 0x00, 0x00, 0x00, 0x00, 0x00,
   0x06, 0x60, 0x00, 0x00, 0x00, 0x00, 0x00, 0x00, 0x00, 0x60, 0x00, 0x70,
   0x18, 0x0e, 0x00, 0x00, 0x00, 0x00, 0x00, 0x00, 0x00, 0x00, 0x00, 0x3c,
   0x00, 0x00, 0x1e, 0x00, 0x00, 0x00, 0x00, 0x00, 0x06, 0x60, 0x00, 0x00,
   0x00, 0x00, 0x00, 0x00, 0x00, 0x3c, 0x00, 0x00, 0x00, 0x00, 0x00, 0x00,
   0x00, 0x00, 0x00, 0x00, 0x00, 0x00, 0x00, 0x00, 0x00, 0x00, 0x00, 0x00,
   0x00, 0x00, 0x00, 0x00, 0x00, 0x00, 0x00, 0x00, 0x00, 0x00, 0x00, 0x00,
   0x00, 0x00, 0x00, 0x00, 0x00, 0x00, 0x00, 0x00, 0x00, 0x00, 0x00, 0x00,
   0x00, 0x00, 0x00, 0x00, 0x00, 0x00, 0x00, 0x00, 0x00, 0x00, 0x00, 0x00,
   0x00, 0x00, 0x00, 0x00, 0x00, 0x00, 0x00, 0x00, 0x00, 0x00, 0x00, 0x00,
   0x00, 0x00, 0x00, 0x00, 0x00, 0x00, 0x00, 0x00, 0x00, 0x00, 0x00, 0x00,
   0x00, 0x00, 0x00, 0x00, 0x00, 0x00, 0x00, 0x00, 0x00, 0x00, 0x00, 0x00,
   0x00, 0x00, 0x00, 0x00, 0x00, 0x00, 0x00, 0x00, 0x00, 0x00, 0x00, 0x00,
   0x00, 0x00, 0x00, 0x00, 0x00, 0x00, 0x00, 0x00, 0x00, 0x00, 0x00, 0x00,
   0x00, 0x00, 0x00, 0x00, 0x00, 0x00, 0x00, 0x00, 0x00, 0x00, 0x00, 0x00,
   0x00, 0x00, 0x00, 0x00, 0x00, 0x00, 0x00, 0x00, 0x00, 0x00, 0x00, 0x00,
   0x00, 0x00, 0x00, 0x00, 0x00, 0x00, 0x00, 0x00, 0x00, 0x00, 0x00, 0x00,
   0x00, 0x00, 0x00, 0x00, 0x00, 0x00, 0x00, 0x00, 0x00, 0x00, 0x00, 0x00,
   0x00, 0x00, 0x00, 0x00, 0x00, 0x00, 0x00, 0x00, 0x00, 0x00, 0x00, 0x00,
   0x00, 0x00, 0x00, 0x00, 0x00, 0x00, 0x00, 0x00, 0x00, 0x00, 0x00, 0x00,
   0x00, 0x00, 0x00, 0x00, 0x00, 0x00, 0x00, 0x00, 0x00, 0x00, 0x00, 0x00,
   0x00, 0x00, 0x00, 0x00, 0x00, 0x00, 0x00, 0x00, 0x00, 0x00, 0x00, 0x00,
   0x00, 0x00, 0x00, 0x00, 0x00, 0x00, 0x00, 0x00, 0x00, 0x00, 0x00, 0x00,
   0x00, 0x00, 0x00, 0x00, 0x00, 0x00, 0x00, 0x00, 0x00, 0x00, 0x00, 0x00,
   0x00, 0x00, 0x00, 0x00, 0x00, 0x00, 0x00, 0x00, 0x00, 0x00, 0x00, 0x00,
   0x00, 0x00, 0x00, 0x00, 0x00, 0x00, 0x00, 0x00, 0x00, 0x00, 0x00, 0x00,
   0x00, 0x00, 0x00, 0x00, 0x00, 0x00, 0x00, 0x00, 0x00, 0x00, 0x00, 0x00,
   0x00, 0x00, 0x00, 0x00, 0x00, 0x00, 0x00, 0x00, 0x00, 0x00, 0x00, 0x00,
   0x00, 0x00, 0x00, 0x00, 0x00, 0x00, 0x00, 0x00, 0x00, 0x00, 0x00, 0x00,
   0x00, 0x00, 0x00, 0x00, 0x00, 0x00, 0x00, 0x00, 0x00, 0x00, 0x00, 0x00,
   0x00, 0x00, 0x00, 0x00, 0x00, 0x00, 0x00, 0x00, 0x00, 0x00, 0x00, 0x00,
   0x00, 0x00, 0x00, 0x00, 0x00, 0x00, 0x00, 0x00, 0x00, 0x00, 0x00, 0x00,
   0x00, 0x00, 0x00, 0x00, 0x00, 0x00, 0x00, 0x00, 0x00, 0x00, 0x00, 0x00,
   0x00, 0x00, 0x00, 0x00, 0x00, 0x00, 0x00, 0x00, 0x00, 0x00, 0x00, 0x00,
   0x00, 0x00, 0x00, 0x00, 0x00, 0x00, 0x00, 0x00, 0x00, 0x00, 0x00, 0x00,
   0x00, 0x00, 0x00, 0x00, 0x00, 0x00, 0x00, 0x00, 0x00, 0x00, 0x00, 0x00,
   0x00, 0x00, 0x00, 0x00, 0x00, 0x00, 0x00, 0x00, 0x00, 0x00, 0x00, 0x00,
   0x00, 0x00, 0x00, 0x00, 0x00, 0x00, 0x00, 0x00, 0x00, 0x00, 0x00, 0x00,
   0x00, 0x00, 0x00, 0x00, 0x00, 0x00, 0x00, 0x00, 0x00, 0x00, 0x00, 0x00,
   0x00, 0x00, 0x00, 0x00, 0x00, 0x00, 0x00, 0x00, 0x00, 0x00, 0x00, 0x00,
   0x00, 0x00, 0x00, 0x00, 0x00, 0x00, 0x00, 0x00, 0x00, 0x00, 0x00, 0x00,
   0x00, 0x00, 0x00, 0x00, 0x00, 0x00, 0x00, 0x00, 0x00, 0x00, 0x00, 0x00,
   0x00, 0x00, 0x00, 0x00, 0x00, 0x00, 0x00, 0x00, 0x00, 0x00, 0x00, 0x00,
   0x00, 0x00, 0x00, 0x00, 0x00, 0x00, 0x00, 0x00, 0x00, 0x00, 0x00, 0x00,
   0x00, 0x00, 0x00, 0x00, 0x00, 0x00, 0x00, 0x00, 0x00, 0x00, 0x00, 0x00,
   0x00, 0x00, 0x00, 0x00, 0x00, 0x00, 0x00, 0x00, 0x00, 0x00, 0x00, 0x00,
   0x00, 0x00, 0x00, 0x00, 0x00, 0x00, 0x00, 0x00, 0x00, 0x00, 0x00, 0x00,
   0x00, 0x00, 0x00, 0x00, 0x00, 0x00, 0x00, 0x00, 0x00, 0x00, 0x00, 0x00,
   0x00, 0x00, 0x00, 0x00, 0x00, 0x00, 0x00, 0x00, 0x00, 0x00, 0x00, 0x00,
   0x00, 0x00, 0x00, 0x00, 0x00, 0x00, 0x00, 0x00, 0x00, 0x00, 0x00, 0x00,
   0x00, 0x00, 0x00, 0x00, 0x00, 0x00, 0x00, 0x00, 0x00, 0x00, 0x00, 0x00,
   0x00, 0x00, 0x00, 0x00, 0x00, 0x00, 0x00, 0x00, 0x00, 0x00, 0x00, 0x00,
   0x00, 0x00, 0x00, 0x00, 0x00, 0x00, 0x00, 0x00, 0x00, 0x00, 0x00, 0x00,
   0x00, 0x00, 0x00, 0x00, 0x00, 0x00, 0x00, 0x00, 0x00, 0x00, 0x00, 0x00,
   0x00, 0x00, 0x00, 0x00, 0x00, 0x00, 0x00, 0x00, 0x00, 0x00, 0x00, 0x00,
   0x00, 0x00, 0x00, 0x00, 0x00, 0x00, 0x00, 0x00, 0x00, 0x00, 0x18, 0x00,
   0x00, 0x00, 0x00, 0x00, 0x66, 0x00, 0x00, 0x00, 0x00, 0x00, 0x00, 0x00,
   0x00, 0x00, 0x00, 0x00, 0x30, 0x00, 0x00, 0x00, 0x00, 0x00, 0x00, 0x00,
   0x00, 0x00, 0x00, 0x00, 0x00, 0x00, 0x18, 0x38, 0x00, 0x66, 0x18, 0x00,
   0x66, 0x38, 0x00, 0x00, 0x00, 0x00, 0x00, 0x00, 0x3c, 0x00, 0x00, 0x00,
   0x18, 0x00, 0x00, 0x00, 0x00, 0x00, 0x00, 0x00, 0x00, 0x00, 0x00, 0x00,
   0x00, 0x00, 0x3c, 0x6c, 0xc6, 0x66, 0x18, 0x00, 0x00, 0x44, 0x00, 0x00,
   0x00, 0x00, 0x00, 0x00, 0x66, 0x00, 0x00, 0x00, 0x00, 0x00, 0x00, 0x00,
   0x00, 0x00, 0x00, 0x00, 0x00, 0x00, 0x00, 0x00, 0x00, 0x18, 0x66, 0x0c,
   0x7c, 0x3c, 0x18, 0x00, 0x00, 0x82, 0x00, 0x00, 0x00, 0x00, 0x00, 0x00,
   0x66, 0x00, 0x00, 0x00, 0x00, 0x00, 0x00, 0x00, 0x00, 0x00, 0x00, 0x00,
   0x00, 0x00, 0x00, 0x18, 0x00, 0x18, 0x06, 0x0c, 0x6c, 0x18, 0x18, 0x00,
   0x00, 0xb2, 0x00, 0x00, 0x00, 0x00, 0x00, 0x00, 0x66, 0x00, 0x00, 0x00,
   0x00, 0x00, 0x00, 0x00, 0x00, 0x00, 0x00, 0x00, 0x00, 0x00, 0x00, 0x18,
   0x00, 0x00, 0x06, 0x3e, 0xc6, 0x7e, 0x00, 0x00, 0x00, 0x8a, 0x00, 0xd8,
   0x00, 0x7e, 0x00, 0x00, 0x3c, 0x00, 0x00, 0x00, 0x00, 0x00, 0x00, 0x00,
   0x00, 0x00, 0x00, 0x36, 0x00, 0x00, 0x00, 0x00, 0x00, 0x00, 0x06, 0x0c,
   0xc6, 0x18, 0x00, 0x00, 0x00, 0x8a, 0x00, 0x6c, 0x00, 0x00, 0x00, 0x00,
   0x00, 0x00, 0x00, 0x00, 0x00, 0x00, 0x00, 0x00, 0x00, 0x00, 0x00, 0x6c,
   0x00, 0x00, 0x00, 0x00, 0x00, 0x18, 0x66, 0x0c, 0x6c, 0x7e, 0x00, 0x00,
   0x00, 0xb2, 0x00, 0x36, 0x00, 0x00, 0x00, 0x00, 0x00, 0x00, 0x00, 0x00,
   0x00, 0x00, 0x00, 0x00, 0x00, 0x00, 0x00, 0xd8, 0x00, 0x00, 0x00, 0x18,
   0x00, 0x18, 0x3c, 0x0c, 0x7c, 0x18, 0x18, 0x00, 0x00, 0x82, 0x00, 0x6c,
   0x00, 0x00, 0x00, 0x00, 0x00, 0x00, 0x00, 0x00, 0x00, 0x00, 0x00, 0x00,
   0x00, 0x00, 0x00, 0x6c, 0x00, 0x00, 0x00, 0x0c, 0x00, 0x3c, 0x18, 0x7e,
   0xc6, 0x18, 0x18, 0x00, 0x00, 0x44, 0x00, 0xd8, 0x00, 0x00, 0x00, 0x00,
   0x00, 0x00, 0x00, 0x00, 0x00, 0x00, 0x00, 0x00, 0x00, 0x00, 0x00, 0x36,
   0x00, 0x00, 0x00, 0x06, 0x00, 0x3c, 0x18, 0x00, 0x00, 0x00, 0x18, 0x00,
   0x00, 0x38, 0x00, 0x00, 0x00, 0x00, 0x00, 0x00, 0x00, 0x00, 0x00, 0x00,
   0x00, 0x00, 0x00, 0x00, 0x30, 0x00, 0x00, 0x00, 0x00, 0x00, 0x00, 0x06,
   0x00, 0x3c, 0x00, 0x00, 0x00, 0x00, 0x18, 0x00, 0x00, 0x00, 0x00, 0x00,
   0x00, 0x00, 0x00, 0x00, 0x00, 0x00, 0x00, 0x00, 0x00, 0x00, 0x00, 0x00,
   0x30, 0x00, 0x00, 0x00, 0x00, 0x00, 0x00, 0x46, 0x00, 0x18, 0x00, 0x00,
   0x00, 0x00, 0x00, 0x00, 0x00, 0x00, 0x00, 0x00, 0x00, 0x00, 0x00, 0x00,
   0x00, 0x00, 0x00, 0x00, 0x00, 0x00, 0x00, 0x00, 0x1c, 0x00, 0x00, 0x00,
   0x00, 0x00, 0x00, 0x3c, 0x00, 0x00, 0x00, 0x00, 0x00, 0x00, 0x00, 0x00,
   0x00, 0x00, 0x00, 0x00, 0x00, 0x00, 0x00, 0x00, 0x00, 0x00, 0x00, 0x00,
   0x00, 0x00, 0x00, 0x00, 0x00, 0x00, 0x00, 0x00, 0x00, 0x00, 0x00, 0x00,
   0x0c, 0x30, 0x18, 0x4c, 0x66, 0x3c, 0x00, 0x00, 0x0c, 0x30, 0x18, 0x66,
   0x0c, 0x30, 0x18, 0x66, 0x00, 0x8c, 0x0c, 0x60, 0x18, 0x4c, 0x66, 0x00,
   0x00, 0x0c, 0x30, 0x18, 0x66, 0x30, 0x00, 0x00, 0x18, 0x18, 0x3c, 0x7e,
   0x66, 0x66, 0x00, 0x00, 0x18, 0x18, 0x3c, 0x66, 0x18, 0x18, 0x3c, 0x66,
   0x00, 0xfe, 0x18, 0x30, 0x3c, 0x7e, 0x66, 0x00, 0x00, 0x18, 0x18, 0x3c,
   0x66, 0x18, 0x00, 0x00, 0x00, 0x00, 0x66, 0x32, 0x00, 0x66, 0x00, 0x00,
   0x00, 0x00, 0x66, 0x00, 0x00, 0x00, 0x66, 0x00, 0x00, 0x62, 0x00, 0x00,
   0x66, 0x32, 0x00, 0x00, 0x60, 0x00, 0x00, 0x66, 0x00, 0x00, 0x00, 0x00,
   0x18, 0x18, 0x00, 0x00, 0x18, 0x3c, 0xf8, 0x78, 0x7e, 0x7e, 0x00, 0x7e,
   0x7e, 0x7e, 0x00, 0x7e, 0x3c, 0x00, 0x3c, 0x3c, 0x00, 0x00, 0x3c, 0x00,
   0x3c, 0x66, 0x66, 0x00, 0x66, 0x66, 0x06, 0x3c, 0x3c, 0x3c, 0x18, 0x18,
   0x3c, 0x18, 0x3c, 0x0c, 0x06, 0x06, 0x7e, 0x06, 0x18, 0x18, 0x7e, 0x18,
   0x6c, 0xc6, 0x66, 0x66, 0x3c, 0x3c, 0x66, 0x00, 0x66, 0x66, 0x66, 0x66,
   0x66, 0x66, 0x06, 0x66, 0x66, 0x66, 0x3c, 0x3c, 0x66, 0x3c, 0x36, 0x06,
   0x06, 0x06, 0x06, 0x06, 0x18, 0x18, 0x18, 0x18, 0xcc, 0xce, 0x66, 0x66,
   0x66, 0x66, 0x66, 0x00, 0x66, 0x66, 0x66, 0x66, 0x66, 0x66, 0x3e, 0x66,
   0x66, 0x66, 0x66, 0x66, 0x66, 0x66, 0x36, 0x06, 0x06, 0x06, 0x06, 0x06,
   0x18, 0x18, 0x18, 0x18, 0xcc, 0xde, 0x66, 0x66, 0x66, 0x66, 0x66, 0x66,
   0x76, 0x66, 0x66, 0x66, 0x66, 0x3c, 0x66, 0x36, 0x66, 0x66, 0x66, 0x66,
   0x66, 0x66, 0xf6, 0x06, 0x3e, 0x3e, 0x3e, 0x3e, 0x18, 0x18, 0x18, 0x18,
   0xde, 0xf6, 0x66, 0x66, 0x66, 0x66, 0x66, 0x3c, 0x6e, 0x66, 0x66, 0x66,
   0x66, 0x18, 0x66, 0x66, 0x7e, 0x7e, 0x7e, 0x7e, 0x7e, 0x7e, 0x3e, 0x06,
   0x06, 0x06, 0x06, 0x06, 0x18, 0x18, 0x18, 0x18, 0xcc, 0xe6, 0x66, 0x66,
   0x66, 0x66, 0x66, 0x18, 0x66, 0x66, 0x66, 0x66, 0x66, 0x18, 0x66, 0x66,
   0x66, 0x66, 0x66, 0x66, 0x66, 0x66, 0x36, 0x06, 0x06, 0x06, 0x06, 0x06,
   0x18, 0x18, 0x18, 0x18, 0xcc, 0xc6, 0x66, 0x66, 0x66, 0x66, 0x66, 0x3c,
   0x66, 0x66, 0x66, 0x66, 0x66, 0x18, 0x3e, 0x66, 0x66, 0x66, 0x66, 0x66,
   0x66, 0x66, 0x36, 0x0c, 0x06, 0x06, 0x06, 0x06, 0x18, 0x18, 0x18, 0x18,
   0x6c, 0xc6, 0x66, 0x66, 0x66, 0x66, 0x66, 0x66, 0x66, 0x66, 0x66, 0x66,
   0x66, 0x18, 0x06, 0x66, 0x66, 0x66, 0x66, 0x66, 0x66, 0x66, 0x76, 0x78,
   0x7e, 0x7e, 0x7e, 0x7e, 0x7e, 0x7e, 0x7e, 0x7e, 0x3c, 0xc6, 0x3c, 0x3c,
   0x3c, 0x3c, 0x3c, 0x00, 0x3c, 0x3c, 0x3c, 0x3c, 0x3c, 0x18, 0x06, 0x36,
   0x00, 0x00, 0x00, 0x00, 0x00, 0x00, 0x00, 0x30, 0x00, 0x00, 0x00, 0x00,
   0x00, 0x00, 0x00, 0x00, 0x00, 0x00, 0x00, 0x00, 0x00, 0x00, 0x00, 0x00,
   0x06, 0x00, 0x00, 0x00, 0x00, 0x00, 0x00, 0x00, 0x00, 0x00, 0x00, 0x00,
   0x00, 0x00, 0x00, 0x30, 0x00, 0x00, 0x00, 0x00, 0x00, 0x00, 0x00, 0x00,
   0x00, 0x00, 0x00, 0x00, 0x00, 0x00, 0x00, 0x00, 0x00, 0x00, 0x00, 0x00,
   0x00, 0x00, 0x00, 0x00, 0x00, 0x00, 0x00, 0x00, 0x00, 0x00, 0x00, 0x1c,
   0x00, 0x00, 0x00, 0x00, 0x00, 0x00, 0x00, 0x00, 0x00, 0x00, 0x00, 0x00,
   0x00, 0x00, 0x00, 0x00, 0x00, 0x00, 0x00, 0x00, 0x00, 0x00, 0x00, 0x00,
   0x00, 0x00, 0x00, 0x00, 0x00, 0x00, 0x00, 0x00, 0x00, 0x00, 0x00, 0x00,
   0x00, 0x00, 0x00, 0x00, 0x00, 0x00, 0x00, 0x00, 0x00, 0x00, 0x00, 0x00,
   0x00, 0x00, 0x00, 0x00, 0x00, 0x00, 0x00, 0x00, 0x00, 0x00, 0x00, 0x00,
   0x00, 0x38, 0x00, 0x00, 0x00, 0x00, 0x00, 0x00, 0x00, 0x00, 0x00, 0x00,
   0x00, 0x00, 0x00, 0x00, 0x00, 0x00, 0x00, 0x00, 0x00, 0x00, 0x00, 0x00,
   0x00, 0x00, 0x00, 0x00, 0x00, 0x00, 0x18, 0x4c, 0x00, 0x6c, 0x00, 0x00,
   0x00, 0x00, 0x18, 0x00, 0x00, 0x00, 0x18, 0x00, 0x4c, 0x4c, 0x00, 0x00,
   0x18, 0x4c, 0x00, 0x00, 0x00, 0x00, 0x00, 0x18, 0x00, 0x00, 0x00, 0x00,
   0x0c, 0x30, 0x3c, 0x7e, 0x66, 0x6c, 0x00, 0x00, 0x0c, 0x30, 0x3c, 0x66,
   0x0c, 0x30, 0x3c, 0x66, 0x38, 0x7e, 0x30, 0x30, 0x3c, 0x7e, 0x66, 0x00,
   0x00, 0x0c, 0x30, 0x3c, 0x66, 0x30, 0x06, 0x66, 0x18, 0x18, 0x66, 0x32,
   0x66, 0x38, 0x00, 0x00, 0x18, 0x18, 0x66, 0x66, 0x18, 0x18, 0x66, 0x66,
   0x1e, 0x32, 0x18, 0x18, 0x66, 0x32, 0x66, 0x00, 0x00, 0x18, 0x18, 0x66,
   0x66, 0x18, 0x06, 0x66, 0x00, 0x00, 0x00, 0x00, 0x00, 0x00, 0x00, 0x00,
   0x00, 0x00, 0x00, 0x00, 0x00, 0x00, 0x00, 0x00, 0x30, 0x00, 0x00, 0x00,
   0x00, 0x00, 0x00, 0x18, 0x60, 0x00, 0x00, 0x00, 0x00, 0x00, 0x06, 0x00,
   0x3c, 0x3c, 0x3c, 0x3c, 0x3c, 0x3c, 0x6e, 0x7c, 0x3c, 0x3c, 0x3c, 0x3c,
   0x1e, 0x1e, 0x1e, 0x1e, 0x7c, 0x3e, 0x3c, 0x3c, 0x3c, 0x3c, 0x3c, 0x18,
   0x3c, 0x66, 0x66, 0x66, 0x66, 0x66, 0x3e, 0x66, 0x60, 0x60, 0x60, 0x60,
   0x60, 0x60, 0xd8, 0x06, 0x66, 0x66, 0x66, 0x66, 0x18, 0x18, 0x18, 0x18,
   0x66, 0x66, 0x66, 0x66, 0x66, 0x66, 0x66, 0x00, 0x66, 0x66, 0x66, 0x66,
   0x66, 0x66, 0x66, 0x66, 0x7c, 0x7c, 0x7c, 0x7c, 0x7c, 0x7c, 0xde, 0x06,
   0x66, 0x66, 0x66, 0x66, 0x18, 0x18, 0x18, 0x18, 0x66, 0x66, 0x66, 0x66,
   0x66, 0x66, 0x66, 0x7e, 0x76, 0x66, 0x66, 0x66, 0x66, 0x66, 0x66, 0x66,
   0x66, 0x66, 0x66, 0x66, 0x66, 0x66, 0xfb, 0x06, 0x7e, 0x7e, 0x7e, 0x7e,
   0x18, 0x18, 0x18, 0x18, 0x66, 0x66, 0x66, 0x66, 0x66, 0x66, 0x66, 0x00,
   0x6e, 0x66, 0x66, 0x66, 0x66, 0x66, 0x66, 0x66, 0x66, 0x66, 0x66, 0x66,
   0x66, 0x66, 0x1b, 0x06, 0x06, 0x06, 0x06, 0x06, 0x18, 0x18, 0x18, 0x18,
   0x66, 0x66, 0x66, 0x66, 0x66, 0x66, 0x66, 0x18, 0x66, 0x66, 0x66, 0x66,
   0x66, 0x66, 0x66, 0x66, 0x66, 0x66, 0x66, 0x66, 0x66, 0x66, 0x1b, 0x06,
   0x06, 0x06, 0x06, 0x06, 0x18, 0x18, 0x18, 0x18, 0x66, 0x66, 0x66, 0x66,
   0x66, 0x66, 0x66, 0x18, 0x66, 0x66, 0x66, 0x66, 0x66, 0x66, 0x66, 0x66,
   0x7c, 0x7c, 0x7c, 0x7c, 0x7c, 0x7c, 0xf6, 0x7c, 0x7c, 0x7c, 0x7c, 0x7c,
   0x7e, 0x7e, 0x7e, 0x7e, 0x3c, 0x66, 0x3c, 0x3c, 0x3c, 0x3c, 0x3c, 0x00,
   0x3c, 0x7c, 0x7c, 0x7c, 0x7c, 0x7c, 0x3e, 0x7c, 0x00, 0x00, 0x00, 0x00,
   0x00, 0x00, 0x00, 0x30, 0x00, 0x00, 0x00, 0x00, 0x00, 0x00, 0x00, 0x00,
   0x00, 0x00, 0x00, 0x00, 0x00, 0x00, 0x00, 0x00, 0x06, 0x00, 0x00, 0x00,
   0x00, 0x60, 0x06, 0x60, 0x00, 0x00, 0x00, 0x00, 0x00, 0x00, 0x00, 0x30,
   0x00, 0x00, 0x00, 0x00, 0x00, 0x00, 0x00, 0x00, 0x00, 0x00, 0x00, 0x00,
   0x00, 0x00, 0x00, 0x00, 0x00, 0x00, 0x00, 0x00, 0x00, 0x60, 0x06, 0x60,
   0x00, 0x00, 0x00, 0x00, 0x00, 0x00, 0x00, 0x1c, 0x00, 0x00, 0x00, 0x00,
   0x00, 0x00, 0x00, 0x00, 0x00, 0x00, 0x00, 0x00, 0x00, 0x00, 0x00, 0x00,
   0x00, 0x00, 0x00, 0x00, 0x00, 0x3c, 0x06, 0x3c, 0x00, 0x00, 0x00, 0x00,
   0x00, 0x00, 0x00, 0x00, 0x00, 0x00, 0x00, 0x00, 0x00, 0x00, 0x00, 0x00,
   0x00, 0x00, 0x00, 0x00, 0x00, 0x00, 0x00, 0x00, 0x00, 0x00, 0x00, 0x00,
   0x00, 0x00, 0x00, 0x00 };
