#define u000400_u0004FF_width 256
#define u000400_u0004FF_height 128
static unsigned char u000400_u0004FF_bits[] = {
   0x0c, 0x36, 0x00, 0x18, 0x00, 0x00, 0x00, 0x66, 0x00, 0x00, 0x00, 0x00,
   0x18, 0x0c, 0x36, 0x00, 0x00, 0x00, 0x00, 0x00, 0x00, 0x00, 0x00, 0x00,
   0x00, 0x36, 0x00, 0x00, 0x00, 0x00, 0x00, 0x00, 0x18, 0x36, 0x00, 0x0c,
   0x00, 0x00, 0x00, 0x66, 0x00, 0x00, 0x00, 0x00, 0x0c, 0x18, 0x1c, 0x00,
   0x00, 0x00, 0x00, 0x00, 0x00, 0x00, 0x00, 0x00, 0x00, 0x1c, 0x00, 0x00,
   0x00, 0x00, 0x00, 0x00, 0x00, 0x00, 0x3f, 0x00, 0x3e, 0x3e, 0x3c, 0x00,
   0x78, 0x1c, 0x1b, 0x3f, 0x63, 0x63, 0x63, 0x63, 0x3e, 0x3f, 0x3f, 0x7f,
   0x7c, 0x7f, 0xdb, 0x3e, 0x63, 0x63, 0x63, 0x78, 0x81, 0x63, 0x3e, 0x7f,
   0x7f, 0x7f, 0x0c, 0x7f, 0x63, 0x63, 0x18, 0x3c, 0x30, 0x1e, 0x1b, 0x0c,
   0x63, 0x63, 0x63, 0x63, 0x63, 0x03, 0x63, 0x03, 0x66, 0x03, 0xdb, 0x63,
   0x63, 0x63, 0x63, 0x6c, 0xc3, 0x63, 0x63, 0x63, 0x03, 0x03, 0x0c, 0x03,
   0x03, 0x03, 0x18, 0x18, 0x30, 0x1b, 0x1b, 0x0c, 0x33, 0x63, 0x63, 0x63,
   0x63, 0x03, 0x63, 0x03, 0x66, 0x03, 0xdb, 0x63, 0x63, 0x63, 0x33, 0x66,
   0xe7, 0x63, 0x63, 0x63, 0x03, 0x03, 0x7c, 0x03, 0x03, 0x03, 0x18, 0x18,
   0x30, 0x7b, 0x7b, 0x7c, 0x1b, 0x73, 0x63, 0x63, 0x63, 0x3f, 0x63, 0x03,
   0x66, 0x03, 0x7e, 0x60, 0x73, 0x73, 0x1b, 0x66, 0xff, 0x63, 0x63, 0x63,
   0x03, 0x03, 0xcc, 0x03, 0x1f, 0x3e, 0x18, 0x18, 0x30, 0xdb, 0xdf, 0xcc,
   0x0f, 0x7b, 0x63, 0x63, 0x63, 0x63, 0x3f, 0x03, 0x66, 0x1f, 0x3c, 0x3c,
   0x7b, 0x7b, 0x0f, 0x66, 0xdb, 0x7f, 0x63, 0x63, 0x1f, 0x1f, 0xcc, 0x03,
   0x03, 0x60, 0x18, 0x18, 0x30, 0xdb, 0xdb, 0xcc, 0x0f, 0x6f, 0x7e, 0x63,
   0x7f, 0x63, 0x63, 0x03, 0x66, 0x03, 0x7e, 0x60, 0x6f, 0x6f, 0x0f, 0x66,
   0xc3, 0x63, 0x63, 0x63, 0x03, 0x03, 0xcc, 0x03, 0x03, 0x60, 0x18, 0x18,
   0x30, 0xdb, 0xdb, 0xcc, 0x1b, 0x67, 0x60, 0x63, 0x63, 0x63, 0x63, 0x03,
   0x66, 0x03, 0xdb, 0x60, 0x67, 0x67, 0x1b, 0x66, 0xc3, 0x63, 0x63, 0x63,
   0x03, 0x03, 0xcc, 0x03, 0x03, 0x63, 0x18, 0x18, 0x33, 0xdb, 0xdb, 0xcc,
   0x33, 0x63, 0x60, 0x63, 0x63, 0x63, 0x63, 0x03, 0x66, 0x03, 0xdb, 0x63,
   0x63, 0x63, 0x33, 0x66, 0xc3, 0x63, 0x63, 0x63, 0x03, 0x03, 0xcc, 0x03,
   0x63, 0x63, 0x18, 0x18, 0x33, 0xdb, 0xdb, 0xcc, 0x63, 0x63, 0x60, 0x63,
   0x63, 0x63, 0x63, 0x03, 0x66, 0x03, 0xdb, 0x63, 0x63, 0x63, 0x63, 0x66,
   0xc3, 0x63, 0x63, 0x63, 0x7f, 0x7f, 0x6c, 0x03, 0x3e, 0x3e, 0x3c, 0x3c,
   0x1e, 0x79, 0x7b, 0xcc, 0x63, 0x63, 0x3e, 0x7f, 0x63, 0x3f, 0x3f, 0x03,
   0xff, 0x7f, 0xdb, 0x3e, 0x63, 0x63, 0x63, 0x63, 0xc3, 0x63, 0x3e, 0x63,
   0x00, 0x00, 0x00, 0x00, 0x00, 0x00, 0x00, 0x00, 0x00, 0x00, 0x00, 0x00,
   0x00, 0x00, 0x00, 0x1c, 0x00, 0x00, 0x00, 0x00, 0xc3, 0x00, 0x00, 0x00,
   0x00, 0x00, 0x00, 0x00, 0x00, 0x00, 0x00, 0x00, 0x00, 0x00, 0x00, 0x00,
   0x00, 0x00, 0x00, 0x00, 0x00, 0x00, 0x00, 0x00, 0x00, 0x00, 0x00, 0x1c,
   0x00, 0x00, 0x00, 0x00, 0x00, 0x00, 0x00, 0x00, 0x00, 0x00, 0x00, 0x00,
   0x00, 0x00, 0x00, 0x00, 0x00, 0x00, 0x00, 0x00, 0x00, 0x00, 0x00, 0x00,
   0x00, 0x00, 0x00, 0x00, 0x00, 0x00, 0x00, 0x00, 0x00, 0x00, 0x00, 0x00,
   0x00, 0x00, 0x00, 0x00, 0x00, 0x00, 0x00, 0x00, 0x00, 0x00, 0x00, 0x00,
   0x00, 0x00, 0x00, 0x00, 0x00, 0x00, 0x00, 0x00, 0x00, 0x00, 0x00, 0x00,
   0x00, 0x00, 0x00, 0x00, 0x00, 0x00, 0x00, 0x00, 0x00, 0x00, 0x00, 0x00,
   0x00, 0x00, 0x00, 0x00, 0x00, 0x00, 0x00, 0x00, 0x00, 0x00, 0x00, 0x00,
   0x00, 0x00, 0x00, 0x00, 0x00, 0x00, 0x00, 0x00, 0x00, 0x00, 0x00, 0x00,
   0x00, 0x00, 0x00, 0x00, 0x00, 0x00, 0x00, 0x00, 0x00, 0x00, 0x00, 0x00,
   0x00, 0x00, 0x00, 0x00, 0x00, 0x00, 0x00, 0x00, 0x18, 0x00, 0x00, 0x00,
   0x00, 0x00, 0x00, 0x00, 0x00, 0x00, 0x00, 0x00, 0x00, 0x00, 0x00, 0x00,
   0x00, 0x00, 0x00, 0x00, 0x00, 0x00, 0x00, 0x00, 0x00, 0x00, 0x00, 0x00,
   0x3f, 0x3e, 0xff, 0x63, 0x7e, 0x63, 0x63, 0x63, 0xdb, 0x6b, 0x07, 0xc3,
   0x06, 0x3e, 0x73, 0x7e, 0x00, 0x3e, 0x1e, 0x00, 0x00, 0x00, 0x00, 0x00,
   0x00, 0x36, 0x00, 0x00, 0x00, 0x00, 0x00, 0x00, 0x63, 0x63, 0x18, 0x63,
   0xdb, 0x63, 0x63, 0x63, 0xdb, 0x6b, 0x06, 0xc3, 0x06, 0x63, 0xdb, 0x63,
   0x00, 0x03, 0x33, 0x00, 0x00, 0x00, 0x00, 0x00, 0x00, 0x1c, 0x00, 0x00,
   0x00, 0x00, 0x00, 0x00, 0x63, 0x63, 0x18, 0x63, 0xdb, 0x36, 0x63, 0x63,
   0xdb, 0x6b, 0x06, 0xc3, 0x06, 0x60, 0xdb, 0x63, 0x00, 0x03, 0x33, 0x00,
   0x00, 0x00, 0x00, 0x00, 0x00, 0x00, 0x00, 0x00, 0x00, 0x00, 0x00, 0x00,
   0x63, 0x03, 0x18, 0x63, 0xdb, 0x36, 0x63, 0x63, 0xdb, 0x6b, 0x3e, 0xcf,
   0x3e, 0x60, 0xdb, 0x63, 0x3e, 0x3f, 0x13, 0x7f, 0x7e, 0x3e, 0xdb, 0x3e,
   0x63, 0x63, 0x63, 0x7c, 0xc3, 0x63, 0x3e, 0x7f, 0x63, 0x03, 0x18, 0x63,
   0xdb, 0x1c, 0x63, 0x63, 0xdb, 0x6b, 0x66, 0xdb, 0x66, 0x7c, 0xdb, 0x63,
   0x60, 0x63, 0x3f, 0x03, 0x63, 0x63, 0xdb, 0x63, 0x63, 0x63, 0x33, 0x66,
   0xe7, 0x63, 0x63, 0x63, 0x3f, 0x03, 0x18, 0x7e, 0xdb, 0x1c, 0x63, 0x7e,
   0xdb, 0x6b, 0x66, 0xdb, 0x66, 0x60, 0xdf, 0x7e, 0x7e, 0x63, 0x63, 0x03,
   0x63, 0x63, 0x7e, 0x60, 0x63, 0x63, 0x1b, 0x66, 0xff, 0x63, 0x63, 0x63,
   0x03, 0x03, 0x18, 0x60, 0xdb, 0x36, 0x63, 0x60, 0xdb, 0x6b, 0x66, 0xdb,
   0x66, 0x60, 0xdb, 0x78, 0x63, 0x63, 0x63, 0x03, 0x63, 0x7f, 0x3c, 0x3c,
   0x63, 0x63, 0x0f, 0x66, 0xdb, 0x7f, 0x63, 0x63, 0x03, 0x63, 0x18, 0x60,
   0xdb, 0x36, 0x63, 0x60, 0xdb, 0x6b, 0x66, 0xdb, 0x66, 0x60, 0xdb, 0x6c,
   0x63, 0x63, 0x63, 0x03, 0x63, 0x03, 0x7e, 0x60, 0x63, 0x63, 0x1b, 0x66,
   0xc3, 0x63, 0x63, 0x63, 0x03, 0x63, 0x18, 0x60, 0xdb, 0x63, 0x63, 0x60,
   0xdb, 0x6b, 0x66, 0xdb, 0x66, 0x63, 0xdb, 0x66, 0x63, 0x63, 0x63, 0x03,
   0x63, 0x03, 0xdb, 0x63, 0x63, 0x63, 0x33, 0x66, 0xc3, 0x63, 0x63, 0x63,
   0x03, 0x3e, 0x18, 0x3e, 0x7e, 0x63, 0xfe, 0x60, 0xfe, 0xfe, 0x3e, 0xcf,
   0x3e, 0x3e, 0x73, 0x63, 0x7e, 0x3f, 0x3f, 0x03, 0x7e, 0x3e, 0xdb, 0x3e,
   0x7e, 0x7e, 0x63, 0x63, 0xc3, 0x63, 0x3e, 0x63, 0x00, 0x00, 0x00, 0x00,
   0x18, 0x00, 0xc0, 0x00, 0x00, 0xc0, 0x00, 0x00, 0x00, 0x00, 0x00, 0x00,
   0x00, 0x00, 0x00, 0x00, 0x60, 0x00, 0x00, 0x00, 0x00, 0x00, 0x00, 0x00,
   0x00, 0x00, 0x00, 0x00, 0x00, 0x00, 0x00, 0x00, 0x00, 0x00, 0xc0, 0x00,
   0x00, 0xc0, 0x00, 0x00, 0x00, 0x00, 0x00, 0x00, 0x00, 0x00, 0x00, 0x00,
   0x60, 0x00, 0x00, 0x00, 0x00, 0x00, 0x00, 0x00, 0x00, 0x00, 0x00, 0x00,
   0x00, 0x00, 0x00, 0x00, 0x00, 0x00, 0x00, 0x00, 0x00, 0x00, 0x00, 0x00,
   0x00, 0x00, 0x00, 0x00, 0x00, 0x00, 0x00, 0x00, 0x3e, 0x00, 0x00, 0x00,
   0x00, 0x00, 0x00, 0x00, 0x00, 0x00, 0x00, 0x00, 0x00, 0x00, 0x00, 0x00,
   0x00, 0x00, 0x00, 0x00, 0x00, 0x00, 0x00, 0x00, 0x00, 0x00, 0x00, 0x00,
   0x00, 0x00, 0x00, 0x00, 0x00, 0x00, 0x00, 0x00, 0x00, 0x00, 0x00, 0x00,
   0x00, 0x00, 0x00, 0x00, 0x00, 0x00, 0x00, 0x00, 0x00, 0x00, 0x00, 0x00,
   0x00, 0x00, 0x00, 0x00, 0x00, 0x00, 0x00, 0x00, 0x00, 0x00, 0x00, 0x00,
   0x00, 0x00, 0x00, 0x00, 0x00, 0x00, 0x00, 0x00, 0x00, 0x00, 0x00, 0x00,
   0x00, 0x00, 0x00, 0x00, 0x00, 0x00, 0x00, 0x00, 0x00, 0x00, 0x00, 0x00,
   0x00, 0x00, 0x00, 0x00, 0x00, 0x00, 0x00, 0x00, 0x00, 0x00, 0x00, 0x00,
   0x00, 0x00, 0x00, 0x00, 0x00, 0x00, 0x00, 0x00, 0x00, 0x00, 0x00, 0x00,
   0x00, 0x00, 0x00, 0x00, 0x00, 0x00, 0x00, 0x00, 0x00, 0x00, 0x00, 0x00,
   0x0c, 0x36, 0x06, 0x18, 0x00, 0x00, 0x18, 0x36, 0x60, 0x00, 0x00, 0x06,
   0x18, 0x0c, 0x36, 0x00, 0x00, 0x00, 0x00, 0x00, 0x00, 0x00, 0x00, 0x00,
   0x00, 0x00, 0x00, 0x00, 0x00, 0x00, 0x00, 0x00, 0x18, 0x36, 0x3f, 0x0c,
   0x00, 0x00, 0x18, 0x36, 0x60, 0x00, 0x00, 0x3f, 0x0c, 0x18, 0x1c, 0x00,
   0x00, 0x00, 0x00, 0x00, 0x18, 0x00, 0x00, 0x00, 0x00, 0x00, 0x00, 0x00,
   0x00, 0x00, 0x00, 0x00, 0x00, 0x00, 0x06, 0x00, 0x00, 0x00, 0x00, 0x00,
   0x00, 0x00, 0x00, 0x06, 0x00, 0x00, 0x00, 0x00, 0x3f, 0x3e, 0xff, 0x63,
   0x7e, 0x63, 0x63, 0x63, 0xdb, 0x6b, 0x07, 0xc3, 0x06, 0x3e, 0x73, 0x7e,
   0x3e, 0x3e, 0x7e, 0x7f, 0x3e, 0x7e, 0x1c, 0x1c, 0x70, 0x1e, 0x1b, 0x7e,
   0x63, 0x63, 0x63, 0x63, 0x63, 0x63, 0x18, 0x63, 0xdb, 0x63, 0x63, 0x63,
   0xdb, 0x6b, 0x06, 0xc3, 0x06, 0x63, 0xdb, 0x63, 0x63, 0x63, 0xc6, 0x03,
   0x63, 0x03, 0x18, 0x18, 0x60, 0x1b, 0x1b, 0xc6, 0x33, 0x63, 0x63, 0x63,
   0x63, 0x03, 0x18, 0x63, 0xdb, 0x36, 0x63, 0x63, 0xdb, 0x6b, 0x3e, 0xcf,
   0x3e, 0x60, 0xdb, 0x63, 0x63, 0x63, 0xc6, 0x03, 0x03, 0x03, 0x18, 0x18,
   0x60, 0x7b, 0x7b, 0xc6, 0x1b, 0x63, 0x63, 0x63, 0x63, 0x03, 0x18, 0x63,
   0xdb, 0x1c, 0x63, 0x7e, 0xdb, 0x6b, 0x66, 0xdb, 0x66, 0x7c, 0xdf, 0x7e,
   0x7f, 0x7f, 0xc6, 0x03, 0x1f, 0x3e, 0x18, 0x18, 0x60, 0xdb, 0xdf, 0xc6,
   0x0f, 0x63, 0x63, 0x63, 0x63, 0x03, 0x18, 0x63, 0xdb, 0x36, 0x63, 0x60,
   0xdb, 0x6b, 0x66, 0xdb, 0x66, 0x60, 0xdb, 0x6c, 0x03, 0x03, 0xc6, 0x03,
   0x03, 0x60, 0x18, 0x18, 0x60, 0xdb, 0xdb, 0xc6, 0x1b, 0x63, 0x63, 0x63,
   0x63, 0x63, 0x18, 0x63, 0xdb, 0x63, 0x63, 0x60, 0xdb, 0x6b, 0x66, 0xdb,
   0x66, 0x63, 0xdb, 0x66, 0x03, 0x03, 0xc6, 0x03, 0x63, 0x60, 0x18, 0x18,
   0x60, 0xdb, 0xdb, 0xc6, 0x33, 0x63, 0x63, 0x63, 0x3f, 0x3e, 0x18, 0x7e,
   0x7e, 0x63, 0xfe, 0x60, 0xfe, 0xfe, 0x3e, 0xcf, 0x3e, 0x3e, 0x73, 0x63,
   0x3e, 0x3e, 0xc6, 0x03, 0x3e, 0x3f, 0x3c, 0x3c, 0x60, 0x79, 0x7b, 0xc6,
   0x63, 0x7e, 0x7e, 0x7f, 0x03, 0x00, 0x00, 0x60, 0x18, 0x00, 0xc0, 0x00,
   0x00, 0xc0, 0x00, 0x00, 0x00, 0x00, 0x00, 0x00, 0x00, 0x00, 0xc0, 0x00,
   0x00, 0x00, 0x00, 0x00, 0x66, 0x00, 0x00, 0x00, 0x00, 0x00, 0x60, 0x1c,
   0x03, 0x00, 0x00, 0x60, 0x00, 0x00, 0xc0, 0x00, 0x00, 0xc0, 0x00, 0x00,
   0x00, 0x00, 0x00, 0x00, 0x00, 0x00, 0xc0, 0x00, 0x00, 0x00, 0x00, 0x00,
   0x66, 0x00, 0x00, 0x00, 0x00, 0x00, 0x60, 0x1c, 0x03, 0x00, 0x00, 0x3e,
   0x00, 0x00, 0x00, 0x00, 0x00, 0x00, 0x00, 0x00, 0x00, 0x00, 0x00, 0x00,
   0x00, 0x00, 0x70, 0x00, 0x00, 0x00, 0x00, 0x00, 0x3c, 0x00, 0x00, 0x00,
   0x00, 0x00, 0x3e, 0x00, 0x00, 0x00, 0x00, 0x00, 0x00, 0x00, 0x00, 0x00,
   0x00, 0x00, 0x00, 0x00, 0x00, 0x00, 0x00, 0x00, 0x00, 0x00, 0x00, 0x00,
   0x00, 0x00, 0x00, 0x00, 0x00, 0x00, 0x00, 0x00, 0x00, 0x00, 0x00, 0x00,
   0x00, 0x00, 0x00, 0x00, 0x00, 0x00, 0x00, 0x00, 0x00, 0x00, 0x00, 0x00,
   0x00, 0x00, 0x00, 0x00, 0x00, 0x00, 0x00, 0x00, 0x00, 0x00, 0x00, 0x00,
   0x00, 0x00, 0x00, 0x00, 0x00, 0x00, 0x00, 0x00, 0x00, 0x00, 0x00, 0x00,
   0x00, 0x00, 0x00, 0x00, 0x00, 0x00, 0x00, 0x00, 0x00, 0x00, 0x00, 0x00,
   0x00, 0x00, 0x00, 0x00, 0x00, 0x00, 0x00, 0x00, 0x00, 0x00, 0x00, 0x00,
   0x00, 0x00, 0x00, 0x00, 0x00, 0x00, 0x00, 0x00, 0x00, 0x00, 0x00, 0x00,
   0x00, 0x00, 0x00, 0x00, 0x00, 0x00, 0x00, 0x00, 0x00, 0x00, 0x00, 0x00,
   0x00, 0x00, 0x00, 0x00, 0x00, 0x00, 0x00, 0x00, 0x00, 0x00, 0x00, 0x00,
   0x00, 0x00, 0x00, 0x00, 0x00, 0x00, 0x00, 0x00, 0x00, 0x00, 0x00, 0x00,
   0x00, 0x00, 0x00, 0x00, 0x00, 0x00, 0x00, 0x00, 0x00, 0x00, 0x00, 0x00,
   0x00, 0x00, 0x00, 0x00, 0x00, 0x00, 0x00, 0x00, 0x00, 0x00, 0x00, 0x00,
   0x00, 0x00, 0x00, 0x00, 0x00, 0x00, 0x00, 0x00, 0x00, 0x00, 0x00, 0x00,
   0x00, 0x00, 0x00, 0x00, 0x00, 0x00, 0x00, 0x00, 0x00, 0x00, 0x00, 0x00,
   0x00, 0x00, 0x00, 0x00, 0x00, 0x00, 0x00, 0x00, 0x00, 0x00, 0x00, 0x00,
   0x00, 0x00, 0x00, 0x00, 0x00, 0x00, 0x00, 0x00, 0x00, 0x00, 0x00, 0x00,
   0x00, 0x00, 0x00, 0x00, 0x00, 0x00, 0x00, 0x00, 0x00, 0x00, 0x00, 0x00,
   0x00, 0x00, 0x00, 0x00, 0x00, 0x00, 0x00, 0x00, 0x00, 0x00, 0x00, 0x00,
   0x00, 0x00, 0x00, 0x00, 0x00, 0x00, 0x00, 0x00, 0x00, 0x00, 0x00, 0x00,
   0x00, 0x00, 0x00, 0x00, 0x00, 0x00, 0x00, 0x00, 0x00, 0x00, 0x00, 0x00,
   0x00, 0x00, 0x00, 0x00, 0x00, 0x00, 0x00, 0x00, 0x00, 0x00, 0x00, 0x00,
   0x00, 0x00, 0x00, 0x00, 0x00, 0x00, 0x00, 0x00, 0x00, 0x00, 0x00, 0x00,
   0x00, 0x00, 0x00, 0x00, 0x00, 0x00, 0x00, 0x00, 0x00, 0x00, 0x00, 0x00,
   0x00, 0x00, 0x00, 0x00, 0x00, 0x00, 0x00, 0x00, 0x00, 0x00, 0x00, 0x00,
   0x00, 0x00, 0x00, 0x00, 0x00, 0x00, 0x00, 0x00, 0x00, 0x00, 0x00, 0x00,
   0x00, 0x00, 0x00, 0x00, 0x00, 0x00, 0x00, 0x00, 0x00, 0x00, 0x00, 0x00,
   0x00, 0x00, 0x00, 0x00, 0x00, 0x00, 0x00, 0x00, 0x00, 0x00, 0x00, 0x00,
   0x00, 0x00, 0x00, 0x00, 0x00, 0x00, 0x00, 0x00, 0x00, 0x00, 0x00, 0x00,
   0x00, 0x00, 0x00, 0x00, 0x00, 0x00, 0x00, 0x00, 0x00, 0x00, 0x00, 0x00,
   0x00, 0x00, 0x00, 0x00, 0x00, 0x00, 0x00, 0x00, 0x00, 0x00, 0x00, 0x00,
   0x00, 0x00, 0x00, 0x00, 0x00, 0x00, 0x00, 0x00, 0x00, 0x00, 0x00, 0x00,
   0x00, 0x00, 0x00, 0x00, 0x00, 0x00, 0x00, 0x00, 0x00, 0x00, 0x00, 0x00,
   0x00, 0x00, 0x00, 0x00, 0x00, 0x00, 0x00, 0x00, 0x00, 0x00, 0x00, 0x00,
   0x00, 0x00, 0x00, 0x00, 0x00, 0x00, 0x00, 0x00, 0x00, 0x00, 0x00, 0x00,
   0x00, 0x00, 0x00, 0x00, 0x00, 0x00, 0x00, 0x00, 0x00, 0x00, 0x00, 0x00,
   0x00, 0x00, 0x00, 0x00, 0x00, 0x00, 0x00, 0x00, 0x00, 0x00, 0x00, 0x00,
   0x00, 0x00, 0x00, 0x00, 0x00, 0x00, 0x00, 0x00, 0x00, 0x00, 0x00, 0x00,
   0x00, 0x00, 0x00, 0x00, 0x00, 0x00, 0x00, 0x00, 0x00, 0x00, 0x00, 0x00,
   0x00, 0x00, 0x00, 0x00, 0x00, 0x00, 0x00, 0x00, 0x00, 0x00, 0x00, 0x00,
   0x00, 0x00, 0x00, 0x00, 0x00, 0x00, 0x00, 0x00, 0x00, 0x00, 0x00, 0x00,
   0x00, 0x00, 0x00, 0x00, 0x00, 0x00, 0x00, 0x00, 0x00, 0x00, 0x00, 0x00,
   0x00, 0x00, 0x00, 0x00, 0x00, 0x00, 0x00, 0x00, 0x00, 0x00, 0x00, 0x00,
   0x00, 0x00, 0x00, 0x00, 0x00, 0x00, 0x00, 0x00, 0x00, 0x00, 0x00, 0x00,
   0x00, 0x00, 0x00, 0x00, 0x00, 0x00, 0x00, 0x00, 0x00, 0x00, 0x00, 0x00,
   0x00, 0x00, 0x00, 0x00, 0x00, 0x00, 0x00, 0x00, 0x00, 0x00, 0x00, 0x00,
   0x60, 0x00, 0x00, 0x00, 0x00, 0x00, 0x00, 0x00, 0x00, 0x00, 0x00, 0x00,
   0x00, 0x00, 0x00, 0x00, 0x00, 0x00, 0x00, 0x00, 0x00, 0x00, 0x00, 0x00,
   0x00, 0x00, 0x00, 0x00, 0x00, 0x00, 0x00, 0x00, 0x60, 0x00, 0x00, 0x00,
   0x00, 0x00, 0x00, 0x00, 0x00, 0x00, 0x00, 0x00, 0x00, 0x00, 0x00, 0x00,
   0x00, 0x00, 0x00, 0x00, 0x00, 0x00, 0x00, 0x00, 0x00, 0x00, 0x00, 0x00,
   0x00, 0x00, 0x00, 0x00, 0x7f, 0x00, 0xfe, 0x00, 0x7f, 0x00, 0x6b, 0x00,
   0x3e, 0x00, 0x63, 0x00, 0x63, 0x00, 0x00, 0x00, 0x00, 0x00, 0x00, 0x00,
   0x00, 0x00, 0x00, 0x00, 0x00, 0x00, 0x00, 0x00, 0x00, 0x00, 0x00, 0x00,
   0x03, 0x60, 0x06, 0x00, 0x03, 0x00, 0x6b, 0x00, 0x63, 0x00, 0x63, 0x00,
   0x63, 0x00, 0x00, 0x00, 0x00, 0x00, 0x00, 0x00, 0x00, 0x00, 0x00, 0x00,
   0x00, 0x00, 0x00, 0x00, 0x00, 0x00, 0x00, 0x00, 0x03, 0x60, 0x06, 0x00,
   0x03, 0x00, 0x6b, 0x00, 0x63, 0x00, 0x33, 0x00, 0x6b, 0x00, 0x00, 0x00,
   0x00, 0x00, 0x00, 0x00, 0x00, 0x00, 0x00, 0x00, 0x00, 0x00, 0x00, 0x00,
   0x00, 0x00, 0x00, 0x00, 0x03, 0x7f, 0x06, 0xfe, 0x03, 0x7f, 0x3e, 0x6b,
   0x60, 0x3e, 0x1b, 0x63, 0x3b, 0x63, 0x00, 0x00, 0x00, 0x00, 0x00, 0x00,
   0x00, 0x00, 0x00, 0x00, 0x00, 0x00, 0x00, 0x00, 0x00, 0x00, 0x00, 0x00,
   0x03, 0x03, 0x3f, 0x06, 0x03, 0x03, 0x1c, 0x6b, 0x3c, 0x63, 0x0f, 0x33,
   0x1f, 0x6b, 0x00, 0x00, 0x00, 0x00, 0x00, 0x00, 0x00, 0x00, 0x00, 0x00,
   0x00, 0x00, 0x00, 0x00, 0x00, 0x00, 0x00, 0x00, 0x03, 0x03, 0x06, 0x06,
   0x3f, 0x03, 0x3e, 0x3e, 0x60, 0x60, 0x0f, 0x1b, 0x1f, 0x3b, 0x00, 0x00,
   0x00, 0x00, 0x00, 0x00, 0x00, 0x00, 0x00, 0x00, 0x00, 0x00, 0x00, 0x00,
   0x00, 0x00, 0x00, 0x00, 0x03, 0x03, 0x06, 0x3f, 0x63, 0x1f, 0x6b, 0x1c,
   0x60, 0x3c, 0x1b, 0x0f, 0x3b, 0x1f, 0x00, 0x00, 0x00, 0x00, 0x00, 0x00,
   0x00, 0x00, 0x00, 0x00, 0x00, 0x00, 0x00, 0x00, 0x00, 0x00, 0x00, 0x00,
   0x03, 0x03, 0x06, 0x06, 0x63, 0x33, 0x6b, 0x3e, 0x63, 0x60, 0x33, 0x1b,
   0x6b, 0x3b, 0x00, 0x00, 0x00, 0x00, 0x00, 0x00, 0x00, 0x00, 0x00, 0x00,
   0x00, 0x00, 0x00, 0x00, 0x00, 0x00, 0x00, 0x00, 0x03, 0x03, 0x06, 0x06,
   0x63, 0x33, 0x6b, 0x6b, 0x63, 0x63, 0x63, 0x33, 0x63, 0x6b, 0x00, 0x00,
   0x00, 0x00, 0x00, 0x00, 0x00, 0x00, 0x00, 0x00, 0x00, 0x00, 0x00, 0x00,
   0x00, 0x00, 0x00, 0x00, 0x03, 0x03, 0x06, 0x06, 0x63, 0x33, 0xeb, 0xeb,
   0x3e, 0x3e, 0xe3, 0xe3, 0x63, 0x63, 0x00, 0x00, 0x00, 0x00, 0x00, 0x00,
   0x00, 0x00, 0x00, 0x00, 0x00, 0x00, 0x00, 0x00, 0x00, 0x00, 0x00, 0x00,
   0x00, 0x00, 0x00, 0x00, 0x60, 0x30, 0xc0, 0xc0, 0x0c, 0x0c, 0xc0, 0xc0,
   0x00, 0x00, 0x00, 0x00, 0x00, 0x00, 0x00, 0x00, 0x00, 0x00, 0x00, 0x00,
   0x00, 0x00, 0x00, 0x00, 0x00, 0x00, 0x00, 0x00, 0x00, 0x00, 0x00, 0x00,
   0x30, 0x18, 0xc0, 0xc0, 0x0c, 0x0c, 0xc0, 0xc0, 0x00, 0x00, 0x00, 0x00,
   0x00, 0x00, 0x00, 0x00, 0x00, 0x00, 0x00, 0x00, 0x00, 0x00, 0x00, 0x00,
   0x00, 0x00, 0x00, 0x00, 0x00, 0x00, 0x00, 0x00, 0x00, 0x00, 0x00, 0x00,
   0x0c, 0x0c, 0x00, 0x00, 0x00, 0x00, 0x00, 0x00, 0x00, 0x00, 0x00, 0x00,
   0x00, 0x00, 0x00, 0x00, 0x00, 0x00, 0x00, 0x00, 0x00, 0x00, 0x00, 0x00,
   0x00, 0x00, 0x00, 0x00, 0x00, 0x00, 0x00, 0x00, 0x00, 0x00, 0x00, 0x00,
   0x00, 0x00, 0x00, 0x00, 0x00, 0x00, 0x00, 0x00, 0x00, 0x00, 0x00, 0x00,
   0x00, 0x00, 0x00, 0x00, 0x00, 0x00, 0x00, 0x00, 0x00, 0x00, 0x00, 0x00,
   0x00, 0x00, 0x00, 0x00, 0x00, 0x00, 0x00, 0x00, 0x00, 0x00, 0x00, 0x00,
   0x00, 0x00, 0x00, 0x00, 0x00, 0x00, 0x00, 0x00, 0x00, 0x00, 0x00, 0x00,
   0x00, 0x00, 0x00, 0x00, 0x00, 0x00, 0x00, 0x00, 0x00, 0x00, 0x00, 0x00,
   0x00, 0x00, 0x00, 0x00, 0x00, 0x00, 0x00, 0x00, 0xc7, 0x00, 0x63, 0x00,
   0xf3, 0x00, 0x00, 0x00, 0x00, 0x00, 0x3e, 0x00, 0x00, 0x00, 0xc3, 0x00,
   0xc3, 0x00, 0x63, 0x00, 0x00, 0x00, 0x63, 0x00, 0x63, 0x00, 0x03, 0x00,
   0x00, 0x00, 0x00, 0x00, 0xc7, 0x00, 0x63, 0x00, 0x33, 0x00, 0x00, 0x00,
   0x00, 0x00, 0x63, 0x00, 0x00, 0x00, 0xc3, 0x00, 0xc3, 0x00, 0x63, 0x00,
   0x00, 0x00, 0x63, 0x00, 0x63, 0x00, 0x03, 0x00, 0x00, 0x00, 0x00, 0x00,
   0x66, 0x00, 0x63, 0x00, 0x33, 0x00, 0x00, 0x00, 0x00, 0x00, 0x63, 0x00,
   0x00, 0x00, 0x66, 0x00, 0x66, 0x00, 0x36, 0x00, 0x00, 0x00, 0x63, 0x00,
   0x63, 0x00, 0x03, 0x00, 0x00, 0x00, 0x00, 0x00, 0x36, 0xc7, 0x63, 0x63,
   0x33, 0xf3, 0x00, 0x00, 0x00, 0x00, 0x03, 0x3e, 0x00, 0x00, 0x66, 0xc3,
   0x66, 0xc3, 0x36, 0x63, 0x00, 0x00, 0x63, 0x63, 0x6b, 0x63, 0x03, 0x03,
   0x00, 0x00, 0x00, 0x00, 0x1e, 0x66, 0x7f, 0x63, 0x3f, 0x33, 0x00, 0x00,
   0x00, 0x00, 0x03, 0x63, 0x00, 0x00, 0x3c, 0xc3, 0x3c, 0xc3, 0x1c, 0x63,
   0x00, 0x00, 0x63, 0x63, 0x6b, 0x6b, 0x3f, 0x03, 0x00, 0x00, 0x00, 0x00,
   0x1e, 0x36, 0x63, 0x63, 0x33, 0x33, 0x00, 0x00, 0x00, 0x00, 0x03, 0x03,
   0x00, 0x00, 0x18, 0x66, 0x18, 0x66, 0x1c, 0x36, 0x00, 0x00, 0x7e, 0x63,
   0x7e, 0x6b, 0x63, 0x3f, 0x00, 0x00, 0x00, 0x00, 0x36, 0x1e, 0x63, 0x7f,
   0x33, 0x3f, 0x00, 0x00, 0x00, 0x00, 0x03, 0x03, 0x00, 0x00, 0x18, 0x66,
   0x7e, 0x66, 0x36, 0x1c, 0x00, 0x00, 0x60, 0x7e, 0x68, 0x7e, 0x63, 0x63,
   0x00, 0x00, 0x00, 0x00, 0x66, 0x36, 0x63, 0x63, 0x33, 0x33, 0x00, 0x00,
   0x00, 0x00, 0x63, 0x03, 0x00, 0x00, 0x18, 0x3c, 0x18, 0x3c, 0x36, 0x36,
   0x00, 0x00, 0x60, 0x60, 0x68, 0x68, 0x63, 0x63, 0x00, 0x00, 0x00, 0x00,
   0xc6, 0x66, 0x63, 0x63, 0x33, 0x33, 0x00, 0x00, 0x00, 0x00, 0x63, 0x63,
   0x00, 0x00, 0x18, 0x3c, 0x18, 0x3c, 0x63, 0x63, 0x00, 0x00, 0x60, 0x60,
   0x60, 0x60, 0x63, 0x63, 0x00, 0x00, 0x00, 0x00, 0xc6, 0xc6, 0xe3, 0xe3,
   0x33, 0x33, 0x00, 0x00, 0x00, 0x00, 0x3e, 0x3e, 0x00, 0x00, 0x18, 0x18,
   0x18, 0x18, 0xe3, 0xe3, 0x00, 0x00, 0xe0, 0xe0, 0x60, 0x60, 0x63, 0x63,
   0x00, 0x00, 0x00, 0x00, 0x00, 0x00, 0xc0, 0xc0, 0x00, 0x00, 0x00, 0x00,
   0x00, 0x00, 0x0c, 0x0c, 0x00, 0x00, 0x00, 0x18, 0x00, 0x7e, 0xc0, 0xc0,
   0x00, 0x00, 0xc0, 0xc0, 0x00, 0x00, 0x00, 0x00, 0x00, 0x00, 0x00, 0x00,
   0x00, 0x00, 0xc0, 0xc0, 0x00, 0x00, 0x00, 0x00, 0x00, 0x00, 0x0c, 0x0c,
   0x00, 0x00, 0x00, 0x18, 0x00, 0x18, 0xc0, 0xc0, 0x00, 0x00, 0xc0, 0xc0,
   0x00, 0x00, 0x00, 0x00, 0x00, 0x00, 0x00, 0x00, 0x00, 0x00, 0x00, 0x00,
   0x00, 0x00, 0x00, 0x00, 0x00, 0x00, 0x0c, 0x0c, 0x00, 0x00, 0x00, 0x18,
   0x00, 0x18, 0x00, 0x00, 0x00, 0x00, 0x00, 0x00, 0x00, 0x00, 0x00, 0x00,
   0x00, 0x00, 0x00, 0x00, 0x00, 0x00, 0x00, 0x00, 0x00, 0x00, 0x00, 0x00,
   0x00, 0x00, 0x00, 0x00, 0x00, 0x00, 0x00, 0x00, 0x00, 0x00, 0x00, 0x00,
   0x00, 0x00, 0x00, 0x00, 0x00, 0x00, 0x00, 0x00, 0x00, 0x00, 0x00, 0x00,
   0x00, 0x00, 0x00, 0x00, 0x00, 0x00, 0x00, 0x00, 0x00, 0x00, 0x00, 0x00,
   0x00, 0x00, 0x00, 0x00, 0x36, 0x00, 0x36, 0x00, 0x00, 0x00, 0x36, 0x00,
   0x00, 0x00, 0x36, 0x00, 0x66, 0x00, 0x36, 0x00, 0x00, 0x00, 0x00, 0x00,
   0x00, 0x00, 0x00, 0x00, 0x00, 0x00, 0x00, 0x00, 0x00, 0x00, 0x00, 0x00,
   0x1c, 0x00, 0x36, 0x00, 0x00, 0x00, 0x1c, 0x00, 0x00, 0x00, 0x36, 0x00,
   0x66, 0x00, 0x36, 0x00, 0x00, 0x00, 0x00, 0x00, 0x00, 0x00, 0x00, 0x00,
   0x00, 0x00, 0x00, 0x00, 0x00, 0x00, 0x00, 0x00, 0x00, 0x36, 0x00, 0x36,
   0xfe, 0x00, 0x00, 0x36, 0x3e, 0x00, 0x00, 0x36, 0x00, 0x66, 0x00, 0x36,
   0x00, 0x00, 0x00, 0x00, 0x00, 0x00, 0x00, 0x00, 0x00, 0x00, 0x00, 0x00,
   0x00, 0x00, 0x00, 0x00, 0x3e, 0x1c, 0x3e, 0x36, 0x33, 0x00, 0x7f, 0x1c,
   0x63, 0x00, 0x3e, 0x36, 0xdb, 0x66, 0x3e, 0x36, 0x00, 0x00, 0x00, 0x00,
   0x00, 0x00, 0x00, 0x00, 0x00, 0x00, 0x00, 0x00, 0x00, 0x00, 0x00, 0x00,
   0x63, 0x00, 0x63, 0x00, 0x33, 0x00, 0x03, 0x00, 0x60, 0x00, 0x63, 0x00,
   0xdb, 0x00, 0x63, 0x00, 0x00, 0x00, 0x00, 0x00, 0x00, 0x00, 0x00, 0x00,
   0x00, 0x00, 0x00, 0x00, 0x00, 0x00, 0x00, 0x00, 0x63, 0x3e, 0x63, 0x3e,
   0x33, 0x6e, 0x03, 0x3e, 0x60, 0x3e, 0x60, 0x3e, 0xdb, 0xdb, 0x63, 0x3e,
   0x00, 0x00, 0x00, 0x00, 0x00, 0x00, 0x00, 0x00, 0x00, 0x00, 0x00, 0x00,
   0x00, 0x00, 0x00, 0x00, 0x63, 0x60, 0x63, 0x60, 0xff, 0xd8, 0x03, 0x63,
   0x7f, 0x60, 0x60, 0x60, 0x7e, 0xdb, 0x60, 0x63, 0x00, 0x00, 0x00, 0x00,
   0x00, 0x00, 0x00, 0x00, 0x00, 0x00, 0x00, 0x00, 0x00, 0x00, 0x00, 0x00,
   0x7f, 0x7e, 0x7f, 0x7e, 0x33, 0xde, 0x1f, 0x63, 0x63, 0x60, 0x7f, 0x60,
   0x3c, 0x7e, 0x3c, 0x60, 0x00, 0x00, 0x00, 0x00, 0x00, 0x00, 0x00, 0x00,
   0x00, 0x00, 0x00, 0x00, 0x00, 0x00, 0x00, 0x00, 0x63, 0x63, 0x63, 0x63,
   0x33, 0xfb, 0x03, 0x7f, 0x63, 0x7f, 0x63, 0x7f, 0x7e, 0x3c, 0x60, 0x3c,
   0x00, 0x00, 0x00, 0x00, 0x00, 0x00, 0x00, 0x00, 0x00, 0x00, 0x00, 0x00,
   0x00, 0x00, 0x00, 0x00, 0x63, 0x63, 0x63, 0x63, 0x33, 0x1b, 0x03, 0x03,
   0x63, 0x63, 0x63, 0x63, 0xdb, 0x7e, 0x63, 0x60, 0x00, 0x00, 0x00, 0x00,
   0x00, 0x00, 0x00, 0x00, 0x00, 0x00, 0x00, 0x00, 0x00, 0x00, 0x00, 0x00,
   0x63, 0x63, 0x63, 0x63, 0x33, 0x1b, 0x03, 0x03, 0x63, 0x63, 0x63, 0x63,
   0xdb, 0xdb, 0x63, 0x63, 0x00, 0x00, 0x00, 0x00, 0x00, 0x00, 0x00, 0x00,
   0x00, 0x00, 0x00, 0x00, 0x00, 0x00, 0x00, 0x00, 0x63, 0x7e, 0x63, 0x7e,
   0xf3, 0x76, 0x7f, 0x3e, 0x3e, 0x3e, 0x3e, 0x3e, 0xdb, 0xdb, 0x3e, 0x3e,
   0x00, 0x00, 0x00, 0x00, 0x00, 0x00, 0x00, 0x00, 0x00, 0x00, 0x00, 0x00,
   0x00, 0x00, 0x00, 0x00, 0x00, 0x00, 0x00, 0x00, 0x00, 0x00, 0x00, 0x00,
   0x00, 0x00, 0x00, 0x00, 0x00, 0x00, 0x00, 0x00, 0x00, 0x00, 0x00, 0x00,
   0x00, 0x00, 0x00, 0x00, 0x00, 0x00, 0x00, 0x00, 0x00, 0x00, 0x00, 0x00,
   0x00, 0x00, 0x00, 0x00, 0x00, 0x00, 0x00, 0x00, 0x00, 0x00, 0x00, 0x00,
   0x00, 0x00, 0x00, 0x00, 0x00, 0x00, 0x00, 0x00, 0x00, 0x00, 0x00, 0x00,
   0x00, 0x00, 0x00, 0x00, 0x00, 0x00, 0x00, 0x00, 0x00, 0x00, 0x00, 0x00,
   0x00, 0x00, 0x00, 0x00, 0x00, 0x00, 0x00, 0x00, 0x00, 0x00, 0x00, 0x00,
   0x00, 0x00, 0x00, 0x00, 0x00, 0x00, 0x00, 0x00, 0x00, 0x00, 0x00, 0x00,
   0x00, 0x00, 0x00, 0x00, 0x00, 0x00, 0x00, 0x00, 0x00, 0x00, 0x00, 0x00,
   0x00, 0x00, 0x00, 0x00, 0x00, 0x00, 0x00, 0x00, 0x00, 0x00, 0x3e, 0x00,
   0x36, 0x00, 0x36, 0x00, 0x00, 0x00, 0x36, 0x00, 0x36, 0x00, 0x3e, 0x00,
   0x36, 0x00, 0x6c, 0x00, 0x36, 0x00, 0x00, 0x00, 0x36, 0x00, 0x00, 0x00,
   0x00, 0x00, 0x00, 0x00, 0x00, 0x00, 0x00, 0x00, 0x36, 0x00, 0x36, 0x00,
   0x00, 0x00, 0x36, 0x00, 0x36, 0x00, 0x00, 0x00, 0x36, 0x00, 0x36, 0x00,
   0x36, 0x00, 0x00, 0x00, 0x36, 0x00, 0x00, 0x00, 0x00, 0x00, 0x00, 0x00,
   0x00, 0x00, 0x63, 0x00, 0x00, 0x36, 0x00, 0x36, 0x3e, 0x00, 0x00, 0x36,
   0x00, 0x36, 0x63, 0x00, 0x00, 0x36, 0x00, 0x6c, 0x00, 0x36, 0x00, 0x00,
   0x00, 0x36, 0x00, 0x00, 0x00, 0x00, 0x00, 0x00, 0x00, 0x00, 0x63, 0x3e,
   0x63, 0x36, 0x3e, 0x36, 0x63, 0x00, 0x3e, 0x36, 0x3e, 0x36, 0x63, 0x3e,
   0x63, 0x36, 0x63, 0x36, 0x63, 0x36, 0x00, 0x00, 0xc3, 0x36, 0x00, 0x00,
   0x00, 0x00, 0x00, 0x00, 0x00, 0x00, 0x63, 0x00, 0x63, 0x00, 0x63, 0x00,
   0x63, 0x00, 0x63, 0x00, 0x63, 0x00, 0x63, 0x00, 0x63, 0x00, 0x63, 0x00,
   0x63, 0x00, 0x00, 0x00, 0xc3, 0x00, 0x00, 0x00, 0x00, 0x00, 0x00, 0x00,
   0x00, 0x00, 0x73, 0x63, 0x63, 0x63, 0x63, 0x3e, 0x63, 0x3e, 0x63, 0x3e,
   0x60, 0x3e, 0x63, 0x63, 0x63, 0x63, 0x63, 0x63, 0x63, 0x63, 0x00, 0x00,
   0xc3, 0xc3, 0x00, 0x00, 0x00, 0x00, 0x00, 0x00, 0x00, 0x00, 0x7b, 0x63,
   0x73, 0x63, 0x63, 0x63, 0x7f, 0x63, 0x63, 0x63, 0x60, 0x63, 0x63, 0x63,
   0x63, 0x63, 0x63, 0x63, 0x63, 0x63, 0x00, 0x00, 0xcf, 0xc3, 0x00, 0x00,
   0x00, 0x00, 0x00, 0x00, 0x00, 0x00, 0x6f, 0x63, 0x7b, 0x63, 0x63, 0x63,
   0x63, 0x63, 0x7f, 0x63, 0x7c, 0x60, 0x7e, 0x63, 0x7e, 0x63, 0x7e, 0x63,
   0x7e, 0x63, 0x00, 0x00, 0xdb, 0xcf, 0x00, 0x00, 0x00, 0x00, 0x00, 0x00,
   0x00, 0x00, 0x67, 0x63, 0x6f, 0x63, 0x63, 0x63, 0x63, 0x7f, 0x63, 0x7f,
   0x60, 0x7c, 0x60, 0x63, 0x60, 0x63, 0x60, 0x63, 0x60, 0x7e, 0x00, 0x00,
   0xdb, 0xdb, 0x00, 0x00, 0x00, 0x00, 0x00, 0x00, 0x00, 0x00, 0x63, 0x63,
   0x67, 0x63, 0x63, 0x63, 0x63, 0x63, 0x63, 0x63, 0x60, 0x60, 0x60, 0x63,
   0x60, 0x63, 0x60, 0x63, 0x60, 0x60, 0x00, 0x00, 0xdb, 0xdb, 0x00, 0x00,
   0x00, 0x00, 0x00, 0x00, 0x00, 0x00, 0x63, 0x63, 0x63, 0x63, 0x63, 0x63,
   0x63, 0x63, 0x63, 0x63, 0x63, 0x63, 0x60, 0x63, 0x60, 0x63, 0x60, 0x63,
   0x60, 0x60, 0x00, 0x00, 0xdb, 0xdb, 0x00, 0x00, 0x00, 0x00, 0x00, 0x00,
   0x00, 0x00, 0x63, 0x7e, 0x63, 0x7e, 0x3e, 0x3e, 0x3e, 0x3e, 0x3e, 0x3e,
   0x3e, 0x3e, 0x3e, 0x7e, 0x3e, 0x7e, 0x3e, 0x7e, 0x60, 0x60, 0x00, 0x00,
   0xcf, 0xcf, 0x00, 0x00, 0x00, 0x00, 0x00, 0x00, 0x00, 0x00, 0x00, 0x00,
   0x00, 0x00, 0x00, 0x00, 0x00, 0x00, 0x00, 0x00, 0x00, 0x00, 0x00, 0x60,
   0x00, 0x60, 0x00, 0x60, 0x00, 0x00, 0x00, 0x00, 0x00, 0x00, 0x00, 0x00,
   0x00, 0x00, 0x00, 0x00, 0x00, 0x00, 0x00, 0x00, 0x00, 0x00, 0x00, 0x00,
   0x00, 0x00, 0x00, 0x00, 0x00, 0x00, 0x00, 0x60, 0x00, 0x60, 0x00, 0x60,
   0x00, 0x00, 0x00, 0x00, 0x00, 0x00, 0x00, 0x00, 0x00, 0x00, 0x00, 0x00,
   0x00, 0x00, 0x00, 0x00, 0x00, 0x00, 0x00, 0x00, 0x00, 0x00, 0x00, 0x00,
   0x00, 0x00, 0x00, 0x3e, 0x00, 0x3e, 0x00, 0x3e, 0x00, 0x00, 0x00, 0x00,
   0x00, 0x00, 0x00, 0x00, 0x00, 0x00, 0x00, 0x00, 0x00, 0x00, 0x00, 0x00,
   0x00, 0x00, 0x00, 0x00, 0x00, 0x00, 0x00, 0x00, 0x00, 0x00, 0x00, 0x00,
   0x00, 0x00, 0x00, 0x00, 0x00, 0x00, 0x00, 0x00, 0x00, 0x00, 0x00, 0x00,
   0x00, 0x00, 0x00, 0x00 };
