#define u000100_u0001FF_width 256
#define u000100_u0001FF_height 128
static unsigned char u000100_u0001FF_bits[] = {
   0x3e, 0x00, 0x36, 0x00, 0x00, 0x00, 0x18, 0x00, 0x1c, 0x00, 0x18, 0x00,
   0x36, 0x00, 0x36, 0x36, 0x00, 0x00, 0x3e, 0x00, 0x36, 0x00, 0x18, 0x00,
   0x00, 0x00, 0x36, 0x00, 0x1c, 0x00, 0x36, 0x00, 0x00, 0x00, 0x1c, 0x00,
   0x00, 0x00, 0x0c, 0x00, 0x36, 0x00, 0x18, 0x00, 0x1c, 0x00, 0x1c, 0x1c,
   0x00, 0x00, 0x00, 0x00, 0x1c, 0x00, 0x18, 0x00, 0x00, 0x00, 0x1c, 0x00,
   0x36, 0x00, 0x1c, 0x00, 0x3e, 0x00, 0x00, 0x36, 0x3e, 0x00, 0x00, 0x18,
   0x00, 0x1c, 0x00, 0x18, 0x00, 0x36, 0x00, 0x60, 0x3e, 0x60, 0x7f, 0x00,
   0x00, 0x36, 0x00, 0x18, 0x7f, 0x00, 0x00, 0x36, 0x00, 0x1c, 0x00, 0x36,
   0x63, 0x3e, 0x3e, 0x1c, 0x63, 0x00, 0x3e, 0x0c, 0x3e, 0x36, 0x3e, 0x18,
   0x3e, 0x1c, 0x1f, 0x60, 0x66, 0xf8, 0x03, 0x3e, 0x7f, 0x1c, 0x7f, 0x18,
   0x03, 0x00, 0x7f, 0x1c, 0x3e, 0x36, 0x3e, 0x1c, 0x63, 0x00, 0x63, 0x00,
   0x63, 0x00, 0x63, 0x00, 0x63, 0x00, 0x63, 0x00, 0x63, 0x00, 0x33, 0x60,
   0xc6, 0x60, 0x03, 0x00, 0x03, 0x00, 0x03, 0x00, 0x03, 0x00, 0x03, 0x00,
   0x63, 0x00, 0x63, 0x00, 0x63, 0x3e, 0x63, 0x3e, 0x63, 0x3e, 0x63, 0x3e,
   0x63, 0x3e, 0x63, 0x3e, 0x63, 0x3e, 0x63, 0x7e, 0xc6, 0x7e, 0x03, 0x3e,
   0x03, 0x3e, 0x03, 0x3e, 0x03, 0x3e, 0x03, 0x3e, 0x63, 0x7e, 0x63, 0x7e,
   0x63, 0x60, 0x63, 0x60, 0x63, 0x60, 0x03, 0x63, 0x03, 0x63, 0x03, 0x63,
   0x03, 0x63, 0x63, 0x63, 0xdf, 0x63, 0x1f, 0x63, 0x03, 0x63, 0x03, 0x63,
   0x1f, 0x63, 0x03, 0x63, 0x03, 0x63, 0x03, 0x63, 0x7f, 0x7e, 0x7f, 0x7e,
   0x7f, 0x7e, 0x03, 0x03, 0x03, 0x03, 0x03, 0x03, 0x03, 0x03, 0x63, 0x63,
   0xc6, 0x63, 0x03, 0x63, 0x1f, 0x63, 0x1f, 0x63, 0x03, 0x63, 0x1f, 0x63,
   0x7b, 0x63, 0x7b, 0x63, 0x63, 0x63, 0x63, 0x63, 0x63, 0x63, 0x03, 0x03,
   0x03, 0x03, 0x03, 0x03, 0x03, 0x03, 0x63, 0x63, 0xc6, 0x63, 0x03, 0x7f,
   0x03, 0x7f, 0x03, 0x7f, 0x03, 0x7f, 0x03, 0x7f, 0x63, 0x63, 0x63, 0x63,
   0x63, 0x63, 0x63, 0x63, 0x63, 0x63, 0x63, 0x03, 0x63, 0x03, 0x63, 0x03,
   0x63, 0x03, 0x63, 0x63, 0xc6, 0x63, 0x03, 0x03, 0x03, 0x03, 0x03, 0x03,
   0x03, 0x03, 0x03, 0x03, 0x63, 0x63, 0x63, 0x63, 0x63, 0x63, 0x63, 0x63,
   0x63, 0x63, 0x63, 0x63, 0x63, 0x63, 0x63, 0x63, 0x63, 0x63, 0x33, 0x63,
   0x66, 0x63, 0x03, 0x03, 0x03, 0x03, 0x03, 0x03, 0x03, 0x03, 0x03, 0x03,
   0x63, 0x63, 0x63, 0x63, 0x63, 0x7e, 0x63, 0x7e, 0x63, 0x7e, 0x3e, 0x3e,
   0x3e, 0x3e, 0x3e, 0x3e, 0x3e, 0x3e, 0x1f, 0x7e, 0x3e, 0x7e, 0x7f, 0x3e,
   0x7f, 0x3e, 0x7f, 0x3e, 0x7f, 0x3e, 0x7f, 0x3e, 0x3e, 0x7e, 0x3e, 0x7e,
   0x00, 0x00, 0x00, 0x00, 0x60, 0x60, 0x00, 0x00, 0x00, 0x00, 0x00, 0x00,
   0x00, 0x00, 0x00, 0x00, 0x00, 0x00, 0x00, 0x00, 0x00, 0x00, 0x00, 0x00,
   0x60, 0x18, 0x00, 0x00, 0x00, 0x60, 0x00, 0x60, 0x00, 0x00, 0x00, 0x00,
   0x30, 0x30, 0x00, 0x00, 0x00, 0x00, 0x00, 0x00, 0x00, 0x00, 0x00, 0x00,
   0x00, 0x00, 0x00, 0x00, 0x00, 0x00, 0x00, 0x00, 0x30, 0x0c, 0x00, 0x00,
   0x00, 0x60, 0x00, 0x60, 0x00, 0x00, 0x00, 0x00, 0xe0, 0xe0, 0x00, 0x00,
   0x00, 0x00, 0x00, 0x00, 0x00, 0x00, 0x00, 0x00, 0x00, 0x00, 0x00, 0x00,
   0x00, 0x00, 0x00, 0x00, 0xe0, 0x38, 0x00, 0x00, 0x00, 0x3e, 0x00, 0x3e,
   0x00, 0x00, 0x00, 0x00, 0x00, 0x00, 0x00, 0x00, 0x00, 0x00, 0x00, 0x00,
   0x00, 0x00, 0x00, 0x00, 0x00, 0x00, 0x00, 0x00, 0x00, 0x00, 0x00, 0x00,
   0x00, 0x00, 0x00, 0x00, 0x00, 0x00, 0x00, 0x00, 0x18, 0x00, 0x00, 0x00,
   0x1c, 0x38, 0x00, 0x00, 0x6e, 0x00, 0x7e, 0x00, 0x36, 0x00, 0x00, 0x00,
   0x18, 0x00, 0x00, 0x00, 0x38, 0x00, 0x00, 0x00, 0x00, 0x06, 0x30, 0x00,
   0x00, 0x36, 0x36, 0x00, 0x18, 0x00, 0x00, 0x30, 0x36, 0x6c, 0x00, 0x00,
   0x3b, 0x00, 0x00, 0x00, 0x1c, 0x00, 0x00, 0x00, 0x18, 0x00, 0x00, 0x00,
   0x6c, 0x00, 0x00, 0x00, 0x00, 0x03, 0x18, 0x00, 0x00, 0x1c, 0x1c, 0x00,
   0x00, 0x18, 0x3e, 0x18, 0x00, 0x03, 0x66, 0x06, 0x00, 0x6e, 0x3c, 0x00,
   0x00, 0x36, 0x3c, 0x18, 0x00, 0x00, 0xf3, 0x63, 0x00, 0x70, 0x63, 0x03,
   0x00, 0x00, 0x00, 0x03, 0x1c, 0x03, 0x00, 0x03, 0x3e, 0x18, 0x63, 0x18,
   0x63, 0x03, 0xff, 0x3f, 0x3c, 0x3b, 0x18, 0x3e, 0x3c, 0x1c, 0x18, 0x18,
   0x3c, 0x00, 0x63, 0x63, 0x78, 0xd8, 0x63, 0x03, 0x00, 0x03, 0x1c, 0x03,
   0x18, 0x03, 0x1c, 0x03, 0x63, 0x00, 0x63, 0x00, 0x63, 0x03, 0x66, 0x06,
   0x18, 0x00, 0x18, 0x00, 0x18, 0x00, 0x18, 0x00, 0x18, 0x00, 0x63, 0x00,
   0x30, 0x00, 0x33, 0x03, 0x00, 0x03, 0x18, 0x03, 0x18, 0x03, 0x18, 0x03,
   0x63, 0x7e, 0x03, 0x7e, 0x63, 0x3f, 0x66, 0x7e, 0x18, 0x1c, 0x18, 0x1c,
   0x18, 0x1c, 0x18, 0x1c, 0x18, 0x1c, 0x63, 0x63, 0x30, 0x70, 0x1b, 0x63,
   0x63, 0x03, 0x18, 0x03, 0x18, 0x03, 0x18, 0x03, 0x03, 0x63, 0x03, 0x63,
   0x63, 0x63, 0x7e, 0xc6, 0x18, 0x18, 0x18, 0x18, 0x18, 0x18, 0x18, 0x18,
   0x18, 0x18, 0x63, 0x63, 0x30, 0x60, 0x0f, 0x33, 0x33, 0x03, 0x18, 0x03,
   0x18, 0x03, 0x18, 0x33, 0x7b, 0x63, 0x7b, 0x63, 0x7f, 0x63, 0x66, 0xc6,
   0x18, 0x18, 0x18, 0x18, 0x18, 0x18, 0x18, 0x18, 0x18, 0x18, 0x63, 0x63,
   0x30, 0x60, 0x0f, 0x1b, 0x1b, 0x03, 0x18, 0x03, 0x18, 0x03, 0x18, 0x33,
   0x63, 0x63, 0x63, 0x63, 0x63, 0x63, 0x66, 0xc6, 0x18, 0x18, 0x18, 0x18,
   0x18, 0x18, 0x18, 0x18, 0x18, 0x18, 0x63, 0x63, 0x30, 0x60, 0x1b, 0x0f,
   0x0f, 0x03, 0x18, 0x03, 0x18, 0x03, 0x18, 0x03, 0x63, 0x63, 0x63, 0x63,
   0x63, 0x63, 0x66, 0xc6, 0x18, 0x18, 0x18, 0x18, 0x18, 0x18, 0x18, 0x18,
   0x18, 0x18, 0x6f, 0x63, 0x33, 0x60, 0x33, 0x1b, 0x1b, 0x03, 0x18, 0x03,
   0x18, 0x03, 0x18, 0x03, 0x63, 0x63, 0x63, 0x63, 0x63, 0x63, 0x66, 0xc6,
   0x18, 0x18, 0x18, 0x18, 0x18, 0x18, 0x18, 0x18, 0x18, 0x18, 0x6f, 0x63,
   0x33, 0x60, 0x63, 0x33, 0x33, 0x03, 0x18, 0x03, 0x18, 0x03, 0x18, 0x03,
   0x3e, 0x7e, 0x3e, 0x7e, 0x63, 0x63, 0x66, 0xc6, 0x3c, 0x3c, 0x3c, 0x3c,
   0x3c, 0x3c, 0x3c, 0x3c, 0x3c, 0x3c, 0x3b, 0x63, 0x1e, 0x60, 0x63, 0x63,
   0x63, 0x7f, 0x3c, 0x7f, 0x3c, 0x7f, 0x3c, 0x7f, 0x00, 0x60, 0x00, 0x60,
   0x00, 0x00, 0x00, 0x00, 0x00, 0x00, 0x00, 0x00, 0x00, 0x00, 0x18, 0x18,
   0x00, 0x00, 0x00, 0x6c, 0x00, 0x66, 0x00, 0x00, 0x00, 0x00, 0x00, 0x00,
   0x00, 0x00, 0x00, 0x00, 0x00, 0x60, 0x0c, 0x60, 0x00, 0x00, 0x00, 0x00,
   0x00, 0x00, 0x00, 0x00, 0x00, 0x00, 0x0c, 0x0c, 0x00, 0x00, 0x00, 0x6c,
   0x00, 0x66, 0x0c, 0x0c, 0x00, 0x00, 0x00, 0x0c, 0x18, 0x00, 0x00, 0x00,
   0x00, 0x3e, 0x0c, 0x3e, 0x00, 0x00, 0x00, 0x00, 0x00, 0x00, 0x00, 0x00,
   0x00, 0x00, 0x38, 0x38, 0x00, 0x00, 0x00, 0x38, 0x00, 0x3c, 0x0c, 0x0c,
   0x00, 0x00, 0x00, 0x0c, 0x18, 0x00, 0x00, 0x00, 0x00, 0x00, 0x06, 0x00,
   0x00, 0x00, 0x00, 0x00, 0x00, 0x00, 0x00, 0x00, 0x00, 0x00, 0x00, 0x00,
   0x00, 0x00, 0x00, 0x00, 0x00, 0x00, 0x06, 0x06, 0x00, 0x00, 0x00, 0x06,
   0x0c, 0x00, 0x00, 0x00, 0x00, 0x00, 0x00, 0x18, 0x00, 0x00, 0x00, 0x36,
   0x00, 0x00, 0x00, 0x00, 0x3e, 0x00, 0x36, 0x00, 0x6c, 0x00, 0x00, 0x00,
   0x18, 0x00, 0x00, 0x00, 0x36, 0x00, 0x18, 0x00, 0x1c, 0x00, 0x00, 0x00,
   0x00, 0x00, 0x00, 0x0c, 0x00, 0x00, 0x00, 0x1c, 0x00, 0x06, 0x00, 0x00,
   0x00, 0x00, 0x1c, 0x00, 0x36, 0x00, 0x00, 0x00, 0x0c, 0x00, 0x00, 0x00,
   0x1c, 0x00, 0x0c, 0x00, 0x36, 0x00, 0x00, 0x00, 0x1c, 0x06, 0x1c, 0x63,
   0x18, 0x63, 0x00, 0x63, 0x36, 0x06, 0x63, 0x00, 0x3e, 0x00, 0x00, 0x36,
   0x00, 0x6c, 0xfe, 0x00, 0x00, 0x18, 0x3f, 0x00, 0x00, 0x36, 0x00, 0x30,
   0x00, 0x1c, 0x3e, 0x00, 0x18, 0x06, 0x18, 0x63, 0x0c, 0x63, 0x00, 0x63,
   0x1c, 0x03, 0x63, 0x00, 0x63, 0x3e, 0x3e, 0x1c, 0x3e, 0x36, 0x33, 0x00,
   0x3f, 0x0c, 0x63, 0x00, 0x3f, 0x1c, 0x3e, 0x18, 0x3e, 0x36, 0x63, 0x00,
   0x18, 0x06, 0x18, 0x63, 0x00, 0x63, 0x00, 0x63, 0x00, 0x00, 0x63, 0x00,
   0x63, 0x00, 0x63, 0x00, 0x63, 0x00, 0x33, 0x00, 0x63, 0x00, 0x63, 0x00,
   0x63, 0x00, 0x63, 0x00, 0x63, 0x00, 0x03, 0x00, 0x18, 0x06, 0x18, 0x67,
   0x3f, 0x67, 0x3f, 0x67, 0x3f, 0x3f, 0x67, 0x3f, 0x63, 0x3e, 0x63, 0x3e,
   0x63, 0x3e, 0x33, 0x7e, 0x63, 0x7b, 0x63, 0xf6, 0x63, 0x7b, 0x03, 0x7e,
   0x03, 0x7e, 0x03, 0x7e, 0xd8, 0x0e, 0x38, 0x6f, 0x63, 0x6f, 0x63, 0x6f,
   0x63, 0x63, 0x6f, 0x63, 0x63, 0x63, 0x63, 0x63, 0x63, 0x63, 0xf3, 0xdb,
   0x63, 0x0f, 0x63, 0x1e, 0x63, 0x0f, 0x03, 0x03, 0x03, 0x03, 0x3e, 0x03,
   0xd8, 0x07, 0x1c, 0x7b, 0x63, 0x7b, 0x63, 0x7b, 0x63, 0x63, 0x7b, 0x63,
   0x63, 0x63, 0x63, 0x63, 0x63, 0x63, 0x33, 0xdb, 0x3f, 0x07, 0x3f, 0x0e,
   0x3f, 0x07, 0x3e, 0x03, 0x3e, 0x03, 0x60, 0x03, 0x18, 0x06, 0x18, 0x73,
   0x63, 0x73, 0x63, 0x73, 0x63, 0x63, 0x73, 0x63, 0x63, 0x63, 0x63, 0x63,
   0x63, 0x63, 0x33, 0xfb, 0x0f, 0x03, 0x0f, 0x06, 0x0f, 0x03, 0x60, 0x3e,
   0x60, 0x3e, 0x60, 0x3e, 0x18, 0x06, 0x18, 0x63, 0x63, 0x63, 0x63, 0x63,
   0x63, 0x63, 0x63, 0x63, 0x63, 0x63, 0x63, 0x63, 0x63, 0x63, 0x33, 0x1b,
   0x1b, 0x03, 0x1b, 0x06, 0x1b, 0x03, 0x60, 0x60, 0x60, 0x60, 0x63, 0x60,
   0x18, 0x06, 0x18, 0x63, 0x63, 0x63, 0x63, 0x63, 0x63, 0x63, 0x63, 0x63,
   0x63, 0x63, 0x63, 0x63, 0x63, 0x63, 0x33, 0x1b, 0x33, 0x03, 0x33, 0x06,
   0x33, 0x03, 0x63, 0x60, 0x63, 0x60, 0x63, 0x60, 0x3c, 0xfe, 0x3c, 0x63,
   0x63, 0x63, 0x63, 0x63, 0x63, 0x63, 0x63, 0x63, 0x3e, 0x3e, 0x3e, 0x3e,
   0x3e, 0x3e, 0xfe, 0x7e, 0x63, 0x03, 0x63, 0x06, 0x63, 0x03, 0x3e, 0x3f,
   0x3e, 0x3f, 0x3e, 0x3f, 0x00, 0x00, 0x00, 0x00, 0x00, 0x00, 0x00, 0x00,
   0x00, 0x00, 0x60, 0x60, 0x00, 0x00, 0x00, 0x00, 0x00, 0x00, 0x00, 0x00,
   0x00, 0x00, 0x00, 0x00, 0x00, 0x00, 0x00, 0x00, 0x00, 0x00, 0x0c, 0x0c,
   0x00, 0x00, 0x00, 0x00, 0x00, 0x0c, 0x0c, 0x00, 0x00, 0x00, 0x60, 0x60,
   0x00, 0x00, 0x00, 0x00, 0x00, 0x00, 0x00, 0x00, 0x00, 0x00, 0x0c, 0x06,
   0x00, 0x00, 0x00, 0x00, 0x00, 0x00, 0x0c, 0x0c, 0x00, 0x00, 0x00, 0x00,
   0x00, 0x0c, 0x0c, 0x00, 0x00, 0x00, 0x38, 0x38, 0x00, 0x00, 0x00, 0x00,
   0x00, 0x00, 0x00, 0x00, 0x00, 0x00, 0x0c, 0x06, 0x00, 0x00, 0x00, 0x00,
   0x00, 0x00, 0x06, 0x06, 0x00, 0x00, 0x00, 0x00, 0x00, 0x06, 0x06, 0x00,
   0x00, 0x00, 0x00, 0x00, 0x00, 0x00, 0x00, 0x00, 0x00, 0x00, 0x00, 0x00,
   0x00, 0x00, 0x06, 0x03, 0x00, 0x00, 0x00, 0x00, 0x00, 0x00, 0x00, 0x00,
   0x36, 0x00, 0x00, 0x00, 0x36, 0x36, 0x00, 0x00, 0x6e, 0x00, 0x3e, 0x00,
   0x36, 0x00, 0x1c, 0x00, 0x6c, 0x00, 0x00, 0x00, 0x1c, 0x00, 0x00, 0x00,
   0x66, 0x18, 0x00, 0x18, 0x00, 0x36, 0x00, 0x00, 0x1c, 0x00, 0x00, 0x00,
   0x1c, 0x1c, 0x00, 0x00, 0x3b, 0x00, 0x00, 0x00, 0x1c, 0x00, 0x36, 0x00,
   0x36, 0x00, 0x00, 0x00, 0x36, 0x00, 0x00, 0x00, 0x66, 0x0c, 0x00, 0x18,
   0x00, 0x1c, 0x00, 0x00, 0x00, 0x36, 0xff, 0x0c, 0x00, 0x00, 0xff, 0x0c,
   0x00, 0x6e, 0x63, 0x00, 0x63, 0x36, 0x1c, 0x1c, 0x00, 0x6c, 0x63, 0x00,
   0x00, 0x1c, 0x00, 0x00, 0x00, 0x00, 0x18, 0x00, 0x18, 0x00, 0x36, 0x78,
   0x3e, 0x1c, 0x18, 0x0c, 0xff, 0x0c, 0x18, 0x0c, 0x63, 0x3b, 0x63, 0x3e,
   0x63, 0x1c, 0x63, 0x36, 0x63, 0x36, 0x63, 0x00, 0xc3, 0x36, 0x00, 0x00,
   0xc3, 0x7f, 0x0c, 0x7f, 0x18, 0x7f, 0x1c, 0x0c, 0x63, 0x00, 0x18, 0x0c,
   0x18, 0x0c, 0x18, 0x0c, 0x63, 0x00, 0x63, 0x00, 0x63, 0x00, 0x63, 0x1c,
   0x63, 0x00, 0x63, 0x00, 0xc3, 0x00, 0x00, 0x00, 0xc3, 0x60, 0x00, 0x60,
   0x00, 0x60, 0x00, 0x0c, 0x03, 0x7e, 0x18, 0x3f, 0x18, 0x3f, 0x18, 0x3f,
   0x63, 0x63, 0x63, 0x63, 0x63, 0x63, 0x63, 0x63, 0x63, 0x63, 0x63, 0x63,
   0xc3, 0xc3, 0x00, 0x00, 0x66, 0x30, 0x7f, 0x30, 0x7f, 0x30, 0x7f, 0x0c,
   0x03, 0x03, 0x18, 0x0c, 0x18, 0x0c, 0x7e, 0x0c, 0x63, 0x63, 0x63, 0x63,
   0x63, 0x63, 0x63, 0x63, 0x63, 0x63, 0x63, 0x63, 0xc3, 0xc3, 0x00, 0x00,
   0x66, 0x18, 0x30, 0x18, 0x30, 0x18, 0x30, 0x0c, 0x3e, 0x03, 0x18, 0x0c,
   0x18, 0x0c, 0x18, 0x1e, 0x63, 0x63, 0x63, 0x63, 0x63, 0x63, 0x63, 0x63,
   0x63, 0x63, 0x63, 0x63, 0xdb, 0xdb, 0x00, 0x00, 0x3c, 0x0c, 0x18, 0x0c,
   0x18, 0x0c, 0x18, 0x0c, 0x60, 0x3e, 0x18, 0x0c, 0x18, 0x0c, 0x18, 0x0c,
   0x63, 0x63, 0x63, 0x63, 0x63, 0x63, 0x63, 0x63, 0x63, 0x63, 0x63, 0x63,
   0xff, 0xdb, 0x00, 0x00, 0x18, 0x06, 0x0c, 0x06, 0x0c, 0x06, 0x0c, 0x0c,
   0x60, 0x60, 0x18, 0x0c, 0x18, 0x0c, 0x18, 0x0c, 0x63, 0x63, 0x63, 0x63,
   0x63, 0x63, 0x63, 0x63, 0x63, 0x63, 0x63, 0x63, 0xe7, 0xdb, 0x00, 0x00,
   0x18, 0x03, 0x06, 0x03, 0x06, 0x03, 0x06, 0x0c, 0x63, 0x60, 0x18, 0x0c,
   0x18, 0x0c, 0x18, 0x0c, 0x63, 0x63, 0x63, 0x63, 0x63, 0x63, 0x63, 0x63,
   0x63, 0x63, 0x63, 0x63, 0xc3, 0xdb, 0x00, 0x00, 0x18, 0x03, 0x03, 0x03,
   0x03, 0x03, 0x03, 0x0c, 0x3e, 0x3f, 0x18, 0x78, 0x18, 0x78, 0x18, 0x78,
   0x3e, 0x7e, 0x3e, 0x7e, 0x3e, 0x7e, 0x3e, 0x7e, 0x3e, 0x7e, 0x3e, 0x7e,
   0x81, 0x7e, 0x00, 0x00, 0x18, 0x7f, 0x7f, 0x7f, 0x7f, 0x7f, 0x7f, 0x0c,
   0x00, 0x00, 0x30, 0x30, 0x00, 0x00, 0x00, 0x00, 0x00, 0x00, 0x00, 0x00,
   0x00, 0x00, 0x00, 0x00, 0x00, 0x00, 0x18, 0x60, 0x00, 0x00, 0x00, 0x00,
   0x00, 0x00, 0x00, 0x00, 0x00, 0x00, 0x00, 0x00, 0x00, 0x00, 0x30, 0x30,
   0x00, 0x00, 0x00, 0x00, 0x00, 0x00, 0x00, 0x00, 0x00, 0x00, 0x00, 0x00,
   0x00, 0x00, 0x0c, 0x30, 0x00, 0x00, 0x00, 0x00, 0x00, 0x00, 0x00, 0x00,
   0x00, 0x00, 0x00, 0x00, 0x00, 0x00, 0x18, 0x18, 0x00, 0x00, 0x00, 0x00,
   0x00, 0x00, 0x00, 0x00, 0x00, 0x00, 0x00, 0x00, 0x00, 0x00, 0x38, 0xe0,
   0x00, 0x00, 0x00, 0x00, 0x00, 0x00, 0x00, 0x00, 0x00, 0x00, 0x00, 0x00,
   0x00, 0x00, 0x00, 0x00, 0x00, 0x00, 0x00, 0x00, 0x00, 0x00, 0x00, 0x00,
   0x00, 0x00, 0x00, 0x00, 0x00, 0x00, 0x00, 0x00, 0x00, 0x00, 0x00, 0x00,
   0x00, 0x00, 0x00, 0x00, 0x00, 0x00, 0x00, 0x00, 0x00, 0x00, 0x00, 0x00,
   0x00, 0x00, 0x00, 0x00, 0x00, 0x00, 0x00, 0x00, 0x00, 0x00, 0x00, 0x00,
   0x00, 0x00, 0x00, 0x00, 0x00, 0x00, 0x00, 0x00, 0x00, 0x00, 0x00, 0x00,
   0x00, 0x00, 0x00, 0x00, 0x00, 0x00, 0x00, 0x00, 0x00, 0x00, 0x00, 0x00,
   0x00, 0x00, 0x00, 0x00, 0x00, 0x00, 0x00, 0x00, 0x00, 0x00, 0x00, 0x00,
   0x00, 0x00, 0x00, 0x00, 0x00, 0x00, 0x00, 0x00, 0x00, 0x00, 0x00, 0x00,
   0x00, 0x00, 0x00, 0x00, 0x00, 0x00, 0x3e, 0x00, 0x00, 0x00, 0x00, 0x00,
   0x00, 0x00, 0x7f, 0x3e, 0x3e, 0x00, 0x70, 0x00, 0x00, 0x00, 0x00, 0x00,
   0x00, 0x00, 0x00, 0x00, 0x00, 0xc6, 0x00, 0x00, 0x00, 0x00, 0x00, 0x00,
   0x00, 0x00, 0x63, 0x00, 0x00, 0x00, 0x00, 0x00, 0x00, 0x00, 0x60, 0x63,
   0x63, 0x00, 0xd8, 0x00, 0x00, 0x00, 0x00, 0x00, 0x00, 0x00, 0x00, 0x00,
   0x00, 0xc6, 0x00, 0x00, 0x00, 0x00, 0x00, 0x00, 0x00, 0x00, 0x63, 0x00,
   0x00, 0x00, 0x00, 0x00, 0x00, 0x00, 0x60, 0x60, 0x63, 0x00, 0x18, 0x00,
   0x00, 0x00, 0x00, 0x00, 0x00, 0x00, 0x00, 0x00, 0x00, 0xc6, 0x00, 0x00,
   0x00, 0x00, 0x00, 0x00, 0x00, 0x00, 0x60, 0x00, 0x00, 0x00, 0x00, 0x00,
   0x00, 0x00, 0x60, 0x60, 0x03, 0x00, 0x18, 0x00, 0x00, 0x00, 0x00, 0x00,
   0x00, 0x00, 0x00, 0x00, 0x00, 0xce, 0x3f, 0x00, 0x00, 0x00, 0x00, 0x00,
   0x00, 0x00, 0x60, 0x00, 0x00, 0x00, 0x00, 0x00, 0x00, 0x00, 0x7c, 0x7f,
   0x1e, 0x00, 0x7e, 0x00, 0x00, 0x00, 0x00, 0x00, 0x00, 0x00, 0x00, 0x00,
   0x00, 0xde, 0x63, 0x00, 0x00, 0x00, 0x00, 0x00, 0x00, 0x00, 0x60, 0x00,
   0x00, 0x00, 0x00, 0x00, 0x00, 0x00, 0x60, 0x63, 0x03, 0x00, 0x18, 0x00,
   0x00, 0x00, 0x00, 0x00, 0x00, 0x00, 0x00, 0x00, 0x00, 0xf6, 0x63, 0x00,
   0x00, 0x00, 0x00, 0x00, 0x00, 0x00, 0x60, 0x00, 0x00, 0x00, 0x00, 0x00,
   0x00, 0x00, 0x60, 0x63, 0x03, 0x00, 0x18, 0x00, 0x00, 0x00, 0x00, 0x00,
   0x00, 0x00, 0x00, 0x00, 0x00, 0xe6, 0x63, 0x00, 0x00, 0x00, 0x00, 0x00,
   0x00, 0x00, 0x63, 0x00, 0x00, 0x00, 0x00, 0x00, 0x00, 0x00, 0x60, 0x63,
   0x63, 0x00, 0x18, 0x00, 0x00, 0x00, 0x00, 0x00, 0x00, 0x00, 0x00, 0x00,
   0x00, 0xc6, 0x63, 0x00, 0x00, 0x00, 0x00, 0x00, 0x00, 0x00, 0x63, 0x00,
   0x00, 0x00, 0x00, 0x00, 0x00, 0x00, 0x60, 0x63, 0x63, 0x00, 0x18, 0x00,
   0x00, 0x00, 0x00, 0x00, 0x00, 0x00, 0x00, 0x00, 0x00, 0xc6, 0x63, 0x00,
   0x00, 0x00, 0x00, 0x00, 0x00, 0x00, 0x3e, 0x00, 0x00, 0x00, 0x00, 0x00,
   0x00, 0x00, 0x7f, 0x3e, 0x3e, 0x00, 0x18, 0x00, 0x00, 0x00, 0x00, 0x00,
   0x00, 0x00, 0x00, 0x00, 0x00, 0xc6, 0x63, 0x00, 0x00, 0x00, 0x00, 0x00,
   0x00, 0x00, 0x00, 0x00, 0x00, 0x00, 0x00, 0x00, 0x00, 0x00, 0x00, 0x00,
   0x00, 0x00, 0x18, 0x00, 0x00, 0x00, 0x00, 0x00, 0x00, 0x00, 0x00, 0x00,
   0x00, 0x06, 0x60, 0x00, 0x00, 0x00, 0x00, 0x00, 0x00, 0x00, 0x00, 0x00,
   0x00, 0x00, 0x00, 0x00, 0x00, 0x00, 0x00, 0x00, 0x00, 0x00, 0x1b, 0x00,
   0x00, 0x00, 0x00, 0x00, 0x00, 0x00, 0x00, 0x00, 0x00, 0x06, 0x60, 0x00,
   0x00, 0x00, 0x00, 0x00, 0x00, 0x00, 0x00, 0x00, 0x00, 0x00, 0x00, 0x00,
   0x00, 0x00, 0x00, 0x00, 0x00, 0x00, 0x0e, 0x00, 0x00, 0x00, 0x00, 0x00,
   0x00, 0x00, 0x00, 0x00, 0x00, 0x03, 0x60, 0x00, 0x00, 0x00, 0x00, 0x00,
   0x00, 0x00, 0x00, 0x00, 0x00, 0x00, 0x00, 0x00, 0x00, 0x00, 0x00, 0x00,
   0x00, 0x00, 0x00, 0x00, 0x00, 0x00, 0x00, 0x00, 0x00, 0x00, 0x00, 0x00,
   0x00, 0x00, 0x00, 0x00, 0x00, 0x00, 0x00, 0x00, 0x00, 0x00, 0x00, 0x00,
   0x00, 0x00, 0x00, 0x00, 0x00, 0x00, 0x00, 0x00, 0x00, 0x00, 0x00, 0x00,
   0x00, 0x00, 0x00, 0x00, 0x00, 0x00, 0x00, 0x00, 0x00, 0x00, 0x00, 0x00,
   0x00, 0x00, 0x00, 0x00, 0x00, 0x00, 0x00, 0x00, 0x00, 0x00, 0x00, 0x00,
   0x00, 0x00, 0x00, 0x00, 0x00, 0x00, 0x00, 0x00, 0x00, 0x00, 0x00, 0x00,
   0x00, 0x00, 0x00, 0x00, 0x00, 0x00, 0x00, 0x00, 0x00, 0x00, 0x00, 0x00,
   0x00, 0x00, 0x00, 0x00, 0x00, 0x00, 0x00, 0x00, 0x00, 0x00, 0x00, 0x00,
   0x00, 0x00, 0x00, 0x00, 0x00, 0x00, 0x00, 0x7f, 0x00, 0x00, 0x00, 0x00,
   0x00, 0x00, 0x00, 0x00, 0x00, 0x00, 0x00, 0x00, 0x00, 0x00, 0x00, 0x00,
   0x00, 0x00, 0x00, 0x00, 0x00, 0x00, 0x00, 0x00, 0x00, 0x00, 0x00, 0x00,
   0x00, 0x00, 0x00, 0x60, 0x00, 0x00, 0x00, 0x00, 0x00, 0x00, 0x00, 0x00,
   0x00, 0x00, 0x00, 0x00, 0x00, 0x00, 0x00, 0x00, 0x00, 0x00, 0x00, 0x00,
   0x00, 0x00, 0x00, 0x00, 0x00, 0x00, 0x00, 0x00, 0x00, 0x00, 0x00, 0x30,
   0x00, 0x00, 0x00, 0x00, 0x00, 0x00, 0x00, 0x00, 0x00, 0x00, 0x00, 0x00,
   0x00, 0x00, 0x00, 0x00, 0x00, 0x00, 0x00, 0x00, 0x00, 0x00, 0x00, 0x00,
   0x00, 0x00, 0x00, 0x00, 0x00, 0x00, 0x00, 0x18, 0x00, 0x00, 0x00, 0x00,
   0x00, 0x00, 0x00, 0x00, 0x00, 0x00, 0x00, 0x00, 0x00, 0x00, 0x00, 0x00,
   0x00, 0x00, 0x00, 0x00, 0x00, 0x00, 0x00, 0x00, 0x00, 0x00, 0x00, 0x00,
   0x00, 0x00, 0x00, 0x3c, 0x00, 0x00, 0x00, 0x00, 0x00, 0x00, 0x00, 0x00,
   0x00, 0x00, 0x00, 0x00, 0x00, 0x00, 0x00, 0x00, 0x00, 0x00, 0x00, 0x00,
   0x00, 0x00, 0x00, 0x00, 0x00, 0x00, 0x00, 0x00, 0x00, 0x00, 0x00, 0x60,
   0x00, 0x00, 0x00, 0x00, 0x00, 0x00, 0x00, 0x00, 0x00, 0x00, 0x00, 0x00,
   0x00, 0x00, 0x00, 0x00, 0x00, 0x00, 0x00, 0x00, 0x00, 0x00, 0x00, 0x00,
   0x00, 0x00, 0x00, 0x00, 0x00, 0x00, 0x00, 0x60, 0x00, 0x00, 0x00, 0x00,
   0x00, 0x00, 0x00, 0x00, 0x00, 0x00, 0x00, 0x00, 0x00, 0x00, 0x00, 0x00,
   0x00, 0x00, 0x00, 0x00, 0x00, 0x00, 0x00, 0x00, 0x00, 0x00, 0x00, 0x00,
   0x00, 0x00, 0x00, 0x63, 0x00, 0x00, 0x00, 0x00, 0x00, 0x00, 0x00, 0x00,
   0x00, 0x00, 0x00, 0x00, 0x00, 0x00, 0x00, 0x00, 0x00, 0x00, 0x00, 0x00,
   0x00, 0x00, 0x00, 0x00, 0x00, 0x00, 0x00, 0x00, 0x00, 0x00, 0x00, 0x63,
   0x00, 0x00, 0x00, 0x00, 0x00, 0x00, 0x00, 0x00, 0x00, 0x00, 0x00, 0x00,
   0x00, 0x00, 0x00, 0x00, 0x00, 0x00, 0x00, 0x00, 0x00, 0x00, 0x00, 0x00,
   0x00, 0x00, 0x00, 0x00, 0x00, 0x00, 0x00, 0x3e, 0x00, 0x00, 0x00, 0x00,
   0x00, 0x00, 0x00, 0x00, 0x00, 0x00, 0x00, 0x00, 0x00, 0x00, 0x00, 0x00,
   0x00, 0x00, 0x00, 0x00, 0x00, 0x00, 0x00, 0x00, 0x00, 0x00, 0x00, 0x00,
   0x00, 0x00, 0x00, 0x00, 0x00, 0x00, 0x00, 0x00, 0x00, 0x00, 0x00, 0x00,
   0x00, 0x00, 0x00, 0x00, 0x00, 0x00, 0x00, 0x00, 0x00, 0x00, 0x00, 0x00,
   0x00, 0x00, 0x00, 0x00, 0x00, 0x00, 0x00, 0x00, 0x00, 0x00, 0x00, 0x00,
   0x00, 0x00, 0x00, 0x00, 0x00, 0x00, 0x00, 0x00, 0x00, 0x00, 0x00, 0x00,
   0x00, 0x00, 0x00, 0x00, 0x00, 0x00, 0x00, 0x00, 0x00, 0x00, 0x00, 0x00,
   0x00, 0x00, 0x00, 0x00, 0x00, 0x00, 0x00, 0x00, 0x00, 0x00, 0x00, 0x00,
   0x00, 0x00, 0x00, 0x00, 0x00, 0x00, 0x00, 0x00, 0x00, 0x00, 0x00, 0x00,
   0x00, 0x00, 0x00, 0x00, 0x00, 0x00, 0x00, 0x00, 0x00, 0x00, 0x00, 0x00,
   0x00, 0x00, 0x00, 0x00, 0x00, 0x00, 0x00, 0x00, 0x00, 0x00, 0x00, 0x00,
   0x00, 0x00, 0x00, 0x00, 0x00, 0x00, 0x00, 0x00, 0x00, 0x00, 0x00, 0x00,
   0x00, 0x00, 0x00, 0x00, 0x00, 0x00, 0x00, 0x00, 0x00, 0x00, 0x00, 0x00,
   0x00, 0x00, 0x00, 0x00, 0x00, 0x00, 0x00, 0x00, 0x00, 0x00, 0x00, 0x00,
   0x00, 0x00, 0x00, 0x00, 0x00, 0x00, 0x00, 0x00, 0x00, 0x00, 0x00, 0x00,
   0x00, 0x00, 0x00, 0x00, 0x00, 0x00, 0x00, 0x00, 0x00, 0x00, 0x00, 0x00,
   0x00, 0x00, 0x00, 0x00, 0x00, 0x00, 0x00, 0x00, 0x00, 0x00, 0x00, 0x00,
   0x00, 0x00, 0x00, 0x00, 0x00, 0x00, 0x00, 0x00, 0x00, 0x00, 0x00, 0x00,
   0x00, 0x00, 0x00, 0x00, 0x00, 0x00, 0x00, 0x00, 0x00, 0x00, 0x00, 0x00,
   0x00, 0x00, 0x00, 0x00, 0x00, 0x00, 0x00, 0x00, 0x00, 0x00, 0x00, 0x00,
   0x00, 0x00, 0x00, 0x00, 0x00, 0x00, 0x00, 0x00, 0x00, 0x00, 0x00, 0x00,
   0x00, 0x00, 0x00, 0x00, 0x00, 0x00, 0x00, 0x00, 0x00, 0x00, 0x00, 0x00,
   0x00, 0x00, 0x00, 0x00, 0x00, 0x00, 0x00, 0x00, 0x00, 0x00, 0x00, 0x00,
   0x00, 0x00, 0x00, 0x00, 0x00, 0x00, 0x00, 0x00, 0x00, 0x00, 0x00, 0x00,
   0x00, 0x00, 0x00, 0x00, 0x00, 0x00, 0x00, 0x00, 0x00, 0x00, 0x00, 0x00,
   0x00, 0x00, 0x00, 0x00, 0x00, 0x00, 0x00, 0x00, 0x00, 0x00, 0x00, 0x00,
   0x00, 0x00, 0x00, 0x00, 0x00, 0x00, 0x00, 0x00, 0x00, 0x00, 0x00, 0x00,
   0x00, 0x00, 0x00, 0x00, 0x00, 0x00, 0x00, 0x00, 0x00, 0x00, 0x00, 0x00,
   0x00, 0x00, 0x00, 0x00, 0x00, 0x00, 0x00, 0x00, 0x00, 0x00, 0x00, 0x00,
   0x00, 0x00, 0x00, 0x00, 0x00, 0x00, 0x00, 0x00, 0x00, 0x00, 0x00, 0x00,
   0x00, 0x00, 0x00, 0x00, 0x00, 0x00, 0x00, 0x00, 0x00, 0x00, 0x00, 0x00,
   0x00, 0x00, 0x00, 0x00, 0x00, 0x00, 0x00, 0x00, 0x00, 0x00, 0x00, 0x00,
   0x00, 0x00, 0x00, 0x00, 0x00, 0x00, 0x00, 0x00, 0x00, 0x00, 0x00, 0x00,
   0x00, 0x00, 0x00, 0x00, 0x00, 0x00, 0x00, 0x00, 0x00, 0x00, 0x00, 0x00,
   0x00, 0x00, 0x00, 0x00, 0x00, 0x00, 0x00, 0x00, 0x00, 0x00, 0x00, 0x00,
   0x00, 0x00, 0x00, 0x00, 0x00, 0x00, 0x00, 0x00, 0x00, 0x00, 0x00, 0x00,
   0x00, 0x00, 0x00, 0x00, 0x00, 0x00, 0x00, 0x00, 0x00, 0x00, 0x00, 0x00,
   0x00, 0x00, 0x00, 0x00, 0x00, 0x00, 0x00, 0x00, 0x00, 0x00, 0x00, 0x00,
   0x00, 0x00, 0x00, 0x00, 0x00, 0x00, 0x00, 0x00, 0x00, 0x00, 0x00, 0x00,
   0x00, 0x00, 0x00, 0x00, 0x00, 0x00, 0x00, 0x00, 0x00, 0x00, 0x00, 0x00,
   0x00, 0x00, 0x00, 0x00, 0x00, 0x00, 0x00, 0x00, 0x00, 0x00, 0x00, 0x00,
   0x00, 0x00, 0x00, 0x00, 0x00, 0x00, 0x00, 0x00, 0x00, 0x00, 0x00, 0x00,
   0x00, 0x00, 0x00, 0x00, 0x00, 0x00, 0x00, 0x00, 0x00, 0x00, 0x00, 0x00,
   0x00, 0x00, 0x00, 0x00, 0x00, 0x00, 0x00, 0x00, 0x00, 0x00, 0x00, 0x00,
   0x00, 0x00, 0x00, 0x00, 0x00, 0x00, 0x00, 0x00, 0x00, 0x00, 0x00, 0x00,
   0x00, 0x00, 0x00, 0x00, 0x00, 0x00, 0x00, 0x00, 0x00, 0x00, 0x00, 0x00,
   0x00, 0x00, 0x00, 0x00, 0x00, 0x00, 0x00, 0x00, 0x00, 0x00, 0x00, 0x00,
   0x00, 0x00, 0x00, 0x00, 0x00, 0x00, 0x00, 0x00, 0x00, 0x00, 0x00, 0x00,
   0x00, 0x00, 0x00, 0x00, 0x00, 0x00, 0x00, 0x00, 0x00, 0x00, 0x00, 0x00,
   0x00, 0x00, 0x00, 0x00, 0x00, 0x00, 0x00, 0x00, 0x00, 0x00, 0x00, 0x00,
   0x00, 0x00, 0x00, 0x00, 0x00, 0x00, 0x00, 0x00, 0x00, 0x00, 0x00, 0x00,
   0x00, 0x00, 0x00, 0x00, 0x00, 0x00, 0x00, 0x00, 0x00, 0x00, 0x00, 0x00,
   0x00, 0x00, 0x00, 0x00, 0x00, 0x00, 0x00, 0x00, 0x00, 0x00, 0x00, 0x00,
   0x00, 0x00, 0x00, 0x00, 0x00, 0x00, 0x00, 0x00, 0x00, 0x00, 0x00, 0x00,
   0x00, 0x00, 0x00, 0x00, 0x00, 0x00, 0x00, 0x00, 0x00, 0x00, 0x00, 0x00,
   0x00, 0x00, 0x00, 0x00, 0x00, 0x00, 0x00, 0x00, 0x00, 0x00, 0x00, 0x00,
   0x00, 0x00, 0x00, 0x00, 0x00, 0x00, 0x00, 0x00, 0x00, 0x00, 0x00, 0x00,
   0x00, 0x00, 0x00, 0x00, 0x00, 0x00, 0x00, 0x00, 0x00, 0x00, 0x00, 0x00,
   0x00, 0x00, 0x00, 0x00, 0x00, 0x00, 0x00, 0x00, 0x00, 0x00, 0x00, 0x00,
   0x00, 0x00, 0x00, 0x00, 0x00, 0x00, 0x00, 0x00, 0x00, 0x00, 0x00, 0x00,
   0x00, 0x00, 0x00, 0x00, 0x00, 0x00, 0x00, 0x00, 0x00, 0x00, 0x00, 0x00,
   0x00, 0x00, 0x00, 0x00, 0x00, 0x00, 0x00, 0x00, 0x00, 0x00, 0x00, 0x00,
   0x00, 0x00, 0x00, 0x00, 0x00, 0x00, 0x00, 0x00, 0x00, 0x00, 0x00, 0x00,
   0x00, 0x00, 0x00, 0x00, 0x00, 0x00, 0x00, 0x00, 0x00, 0x00, 0x00, 0x00,
   0x00, 0x00, 0x00, 0x00, 0x00, 0x00, 0x00, 0x00, 0x00, 0x00, 0x00, 0x00,
   0x00, 0x00, 0x00, 0x00, 0x00, 0x00, 0x00, 0x00, 0x00, 0x00, 0x00, 0x00,
   0x00, 0x00, 0x00, 0x00, 0x00, 0x00, 0x00, 0x00, 0x00, 0x00, 0x00, 0x00,
   0x00, 0x00, 0x00, 0x00, 0x00, 0x00, 0x00, 0x00, 0x00, 0x00, 0x00, 0x00,
   0x00, 0x00, 0x00, 0x00, 0x00, 0x00, 0x00, 0x00, 0x00, 0x00, 0x00, 0x00,
   0x00, 0x00, 0x00, 0x00, 0x00, 0x00, 0x00, 0x00, 0x00, 0x00, 0x00, 0x00,
   0x00, 0x00, 0x00, 0x00, 0x00, 0x00, 0x00, 0x00, 0x00, 0x00, 0x00, 0x00,
   0x00, 0x00, 0x00, 0x00, 0x00, 0x00, 0x00, 0x00, 0x00, 0x00, 0x00, 0x00,
   0x00, 0x00, 0x00, 0x00, 0x00, 0x00, 0x00, 0x00, 0x00, 0x00, 0x00, 0x00,
   0x00, 0x00, 0x00, 0x00, 0x00, 0x00, 0x00, 0x00, 0x00, 0x00, 0x00, 0x00,
   0x00, 0x00, 0x00, 0x00, 0x00, 0x00, 0x00, 0x00, 0x00, 0x00, 0x00, 0x00,
   0x00, 0x00, 0x00, 0x00, 0x00, 0x00, 0x00, 0x00, 0x00, 0x00, 0x00, 0x00,
   0x00, 0x00, 0x00, 0x00, 0x00, 0x00, 0x00, 0x00, 0x00, 0x00, 0x00, 0x00,
   0x00, 0x00, 0x00, 0x00, 0x00, 0x00, 0x00, 0x00, 0x00, 0x00, 0x00, 0x00,
   0x00, 0x00, 0x00, 0x00, 0x00, 0x00, 0x00, 0x00, 0x00, 0x00, 0x00, 0x00,
   0x00, 0x00, 0x00, 0x00, 0x00, 0x00, 0x00, 0x00, 0x00, 0x00, 0x00, 0x00,
   0x00, 0x00, 0x00, 0x00, 0x00, 0x00, 0x00, 0x00, 0x00, 0x00, 0x00, 0x00,
   0x00, 0x00, 0x00, 0x00, 0x00, 0x00, 0x00, 0x00, 0x00, 0x00, 0x00, 0x00,
   0x00, 0x00, 0x00, 0x00, 0x00, 0x00, 0x00, 0x00, 0x00, 0x00, 0x00, 0x00,
   0x00, 0x00, 0x00, 0x00, 0x00, 0x00, 0x00, 0x00, 0x00, 0x00, 0x00, 0x00,
   0x00, 0x00, 0x00, 0x00, 0x00, 0x00, 0x00, 0x00, 0x00, 0x00, 0x00, 0x00,
   0x00, 0x00, 0x00, 0x00, 0x00, 0x00, 0x00, 0x00, 0x00, 0x00, 0x00, 0x00,
   0x00, 0x00, 0x00, 0x00, 0x00, 0x00, 0x00, 0x00, 0x00, 0x00, 0x00, 0x00,
   0x00, 0x00, 0x00, 0x00, 0x00, 0x00, 0x00, 0x00, 0x00, 0x00, 0x00, 0x00,
   0x00, 0x00, 0x00, 0x00, 0x00, 0x00, 0x00, 0x00, 0x00, 0x00, 0x00, 0x00,
   0x00, 0x00, 0x00, 0x00, 0x00, 0x00, 0x00, 0x00, 0x00, 0x00, 0x00, 0x00,
   0x00, 0x00, 0x00, 0x00, 0x00, 0x00, 0x00, 0x00, 0x00, 0x00, 0x00, 0x00,
   0x00, 0x00, 0x00, 0x00, 0x00, 0x00, 0x00, 0x00, 0x00, 0x00, 0x00, 0x00,
   0x00, 0x00, 0x00, 0x00, 0x00, 0x00, 0x00, 0x00, 0x00, 0x00, 0x00, 0x00,
   0x00, 0x00, 0x00, 0x00, 0x00, 0x00, 0x00, 0x00, 0x00, 0x00, 0x00, 0x00,
   0x00, 0x00, 0x00, 0x00, 0x00, 0x00, 0x00, 0x00, 0x00, 0x00, 0x00, 0x00,
   0x00, 0x00, 0x00, 0x00, 0x00, 0x00, 0x00, 0x00, 0x00, 0x00, 0x00, 0x00,
   0x00, 0x00, 0x00, 0x00 };
