#define u000000_u0000FF_width 256
#define u000000_u0000FF_height 128
static unsigned char u000000_u0000FF_bits[] = {
   0x00, 0x00, 0x00, 0x00, 0x00, 0x00, 0x00, 0x00, 0x00, 0x00, 0x00, 0x00,
   0x00, 0x00, 0x00, 0x00, 0x00, 0x00, 0x00, 0x00, 0x00, 0x00, 0x00, 0x00,
   0x00, 0x00, 0x00, 0x00, 0x00, 0x00, 0x00, 0x00, 0x00, 0x00, 0x00, 0x00,
   0x00, 0x00, 0x00, 0x00, 0x00, 0x00, 0x00, 0x00, 0x00, 0x00, 0x00, 0x00,
   0x00, 0x00, 0x00, 0x00, 0x00, 0x00, 0x00, 0x00, 0x00, 0x00, 0x00, 0x00,
   0x00, 0x00, 0x00, 0x00, 0x00, 0x7f, 0x77, 0x00, 0x00, 0x00, 0x00, 0x00,
   0x00, 0x00, 0x00, 0x00, 0x00, 0x00, 0x00, 0x00, 0x00, 0x00, 0x00, 0x00,
   0x00, 0x00, 0x00, 0x00, 0x00, 0x00, 0x00, 0x00, 0x00, 0x00, 0x00, 0x00,
   0x00, 0x63, 0x63, 0x00, 0x00, 0x00, 0x00, 0x00, 0x00, 0x00, 0x00, 0x00,
   0x00, 0x00, 0x00, 0x00, 0x00, 0x00, 0x00, 0x00, 0x00, 0x00, 0x00, 0x00,
   0x00, 0x00, 0x00, 0x00, 0x00, 0x00, 0x00, 0x00, 0x00, 0x63, 0x00, 0x00,
   0x00, 0x00, 0x00, 0x00, 0x00, 0x00, 0x00, 0x00, 0x00, 0x00, 0x00, 0x00,
   0x00, 0x00, 0x00, 0x00, 0x00, 0x00, 0x00, 0x00, 0x00, 0x00, 0x00, 0x00,
   0x00, 0x00, 0x00, 0x00, 0x00, 0x63, 0x63, 0x00, 0x00, 0x00, 0x00, 0x00,
   0x00, 0x00, 0x00, 0x00, 0x00, 0x00, 0x00, 0x00, 0x00, 0x00, 0x00, 0x00,
   0x00, 0x00, 0x00, 0x00, 0x00, 0x00, 0x00, 0x00, 0x00, 0x00, 0x00, 0x00,
   0x00, 0x63, 0x63, 0x00, 0x00, 0x00, 0x00, 0x00, 0x00, 0x00, 0x00, 0x00,
   0x00, 0x00, 0x00, 0x00, 0x00, 0x00, 0x00, 0x00, 0x00, 0x00, 0x00, 0x00,
   0x00, 0x00, 0x00, 0x00, 0x00, 0x00, 0x00, 0x00, 0x00, 0x63, 0x63, 0x00,
   0x00, 0x00, 0x00, 0x00, 0x00, 0x00, 0x00, 0x00, 0x00, 0x00, 0x00, 0x00,
   0x00, 0x00, 0x00, 0x00, 0x00, 0x00, 0x00, 0x00, 0x00, 0x00, 0x00, 0x00,
   0x00, 0x00, 0x00, 0x00, 0x00, 0x63, 0x00, 0x00, 0x00, 0x00, 0x00, 0x00,
   0x00, 0x00, 0x00, 0x00, 0x00, 0x00, 0x00, 0x00, 0x00, 0x00, 0x00, 0x00,
   0x00, 0x00, 0x00, 0x00, 0x00, 0x00, 0x00, 0x00, 0x00, 0x00, 0x00, 0x00,
   0x00, 0x63, 0x63, 0x00, 0x00, 0x00, 0x00, 0x00, 0x00, 0x00, 0x00, 0x00,
   0x00, 0x00, 0x00, 0x00, 0x00, 0x00, 0x00, 0x00, 0x00, 0x00, 0x00, 0x00,
   0x00, 0x00, 0x00, 0x00, 0x00, 0x00, 0x00, 0x00, 0x00, 0x63, 0x63, 0x00,
   0x00, 0x00, 0x00, 0x00, 0x00, 0x00, 0x00, 0x00, 0x00, 0x00, 0x00, 0x00,
   0x00, 0x00, 0x00, 0x00, 0x00, 0x00, 0x00, 0x00, 0x00, 0x00, 0x00, 0x00,
   0x00, 0x00, 0x00, 0x00, 0x00, 0x7f, 0x77, 0x00, 0x00, 0x00, 0x00, 0x00,
   0x00, 0x00, 0x00, 0x00, 0x00, 0x00, 0x00, 0x00, 0x00, 0x00, 0x00, 0x00,
   0x00, 0x00, 0x00, 0x00, 0x00, 0x00, 0x00, 0x00, 0x00, 0x00, 0x00, 0x00,
   0x00, 0x00, 0x00, 0x00, 0x00, 0x00, 0x00, 0x00, 0x00, 0x00, 0x00, 0x00,
   0x00, 0x00, 0x00, 0x00, 0x00, 0x00, 0x00, 0x00, 0x00, 0x00, 0x00, 0x00,
   0x00, 0x00, 0x00, 0x00, 0x00, 0x00, 0x00, 0x00, 0x00, 0x00, 0x00, 0x00,
   0x00, 0x00, 0x00, 0x00, 0x00, 0x00, 0x00, 0x00, 0x00, 0x00, 0x00, 0x00,
   0x00, 0x00, 0x00, 0x00, 0x00, 0x00, 0x00, 0x00, 0x00, 0x00, 0x00, 0x00,
   0x00, 0x00, 0x00, 0x00, 0x00, 0x00, 0x00, 0x00, 0x00, 0x00, 0x00, 0x00,
   0x00, 0x00, 0x00, 0x00, 0x00, 0x00, 0x00, 0x00, 0x00, 0x00, 0x00, 0x00,
   0x00, 0x00, 0x00, 0x00, 0x00, 0x00, 0x00, 0x00, 0x00, 0x00, 0x00, 0x00,
   0x00, 0x00, 0x00, 0x00, 0x00, 0x00, 0x00, 0x00, 0x00, 0x00, 0x00, 0x00,
   0x00, 0x00, 0x00, 0x00, 0x00, 0x00, 0x00, 0x00, 0x00, 0x00, 0x00, 0x00,
   0x00, 0x00, 0x00, 0x00, 0x00, 0x00, 0x00, 0x00, 0x00, 0x00, 0x00, 0x00,
   0x00, 0x00, 0x00, 0x00, 0x00, 0x00, 0x00, 0x00, 0x00, 0x00, 0x00, 0x00,
   0x00, 0x00, 0x00, 0x00, 0x00, 0x00, 0x00, 0x00, 0x00, 0x00, 0x00, 0x00,
   0x00, 0x00, 0x00, 0x00, 0x00, 0x00, 0x66, 0x00, 0x18, 0x00, 0x00, 0x18,
   0x00, 0x00, 0x00, 0x00, 0x00, 0x00, 0x00, 0x00, 0x00, 0x00, 0x00, 0x00,
   0x00, 0x00, 0x00, 0x00, 0x00, 0x00, 0x00, 0x00, 0x00, 0x00, 0x00, 0x00,
   0x00, 0x18, 0x66, 0x36, 0x18, 0x66, 0x1c, 0x18, 0x30, 0x0c, 0x00, 0x00,
   0x00, 0x00, 0x00, 0x60, 0x3e, 0x18, 0x3e, 0x3e, 0x60, 0x7f, 0x3c, 0x7f,
   0x3e, 0x3e, 0x00, 0x00, 0x00, 0x00, 0x00, 0x3e, 0x00, 0x18, 0x66, 0x36,
   0x7e, 0x6b, 0x36, 0x18, 0x18, 0x18, 0x00, 0x00, 0x00, 0x00, 0x00, 0x60,
   0x63, 0x1c, 0x63, 0x63, 0x70, 0x03, 0x06, 0x60, 0x63, 0x63, 0x00, 0x00,
   0x60, 0x00, 0x06, 0x63, 0x00, 0x18, 0x00, 0x36, 0xdb, 0x36, 0x36, 0x00,
   0x0c, 0x30, 0x00, 0x00, 0x00, 0x00, 0x00, 0x30, 0x63, 0x1e, 0x63, 0x63,
   0x78, 0x03, 0x03, 0x60, 0x63, 0x63, 0x00, 0x00, 0x30, 0x00, 0x0c, 0x63,
   0x00, 0x18, 0x00, 0x7f, 0x1b, 0x30, 0x1c, 0x00, 0x0c, 0x30, 0x36, 0x18,
   0x00, 0x00, 0x00, 0x30, 0x73, 0x18, 0x60, 0x60, 0x6c, 0x03, 0x03, 0x30,
   0x63, 0x63, 0x18, 0x18, 0x18, 0x7f, 0x18, 0x63, 0x00, 0x18, 0x00, 0x36,
   0x1b, 0x18, 0x6e, 0x00, 0x0c, 0x30, 0x1c, 0x18, 0x00, 0x00, 0x00, 0x18,
   0x7b, 0x18, 0x30, 0x3c, 0x66, 0x3f, 0x3f, 0x30, 0x3e, 0x63, 0x18, 0x18,
   0x0c, 0x00, 0x30, 0x30, 0x00, 0x18, 0x00, 0x36, 0x7e, 0x18, 0x3b, 0x00,
   0x0c, 0x30, 0x7f, 0x7e, 0x00, 0x7f, 0x00, 0x18, 0x6f, 0x18, 0x18, 0x60,
   0x63, 0x60, 0x63, 0x18, 0x63, 0x7e, 0x00, 0x00, 0x06, 0x00, 0x60, 0x18,
   0x00, 0x18, 0x00, 0x7f, 0xd8, 0x0c, 0x33, 0x00, 0x0c, 0x30, 0x1c, 0x18,
   0x00, 0x00, 0x00, 0x0c, 0x67, 0x18, 0x0c, 0x60, 0x7f, 0x60, 0x63, 0x18,
   0x63, 0x60, 0x00, 0x00, 0x0c, 0x7f, 0x30, 0x18, 0x00, 0x00, 0x00, 0x36,
   0xd8, 0x6c, 0x33, 0x00, 0x0c, 0x30, 0x36, 0x18, 0x00, 0x00, 0x00, 0x0c,
   0x63, 0x18, 0x06, 0x63, 0x60, 0x60, 0x63, 0x0c, 0x63, 0x60, 0x00, 0x00,
   0x18, 0x00, 0x18, 0x00, 0x00, 0x18, 0x00, 0x36, 0xdb, 0xd6, 0x3b, 0x00,
   0x18, 0x18, 0x00, 0x00, 0x18, 0x00, 0x18, 0x06, 0x63, 0x18, 0x03, 0x63,
   0x60, 0x63, 0x63, 0x0c, 0x63, 0x30, 0x18, 0x18, 0x30, 0x00, 0x0c, 0x18,
   0x00, 0x18, 0x00, 0x36, 0x7e, 0x66, 0x6e, 0x00, 0x30, 0x0c, 0x00, 0x00,
   0x18, 0x00, 0x18, 0x06, 0x3e, 0x7e, 0x7f, 0x3e, 0x60, 0x3e, 0x3e, 0x0c,
   0x3e, 0x1e, 0x18, 0x18, 0x60, 0x00, 0x06, 0x18, 0x00, 0x00, 0x00, 0x00,
   0x18, 0x00, 0x00, 0x00, 0x00, 0x00, 0x00, 0x00, 0x0c, 0x00, 0x00, 0x00,
   0x00, 0x00, 0x00, 0x00, 0x00, 0x00, 0x00, 0x00, 0x00, 0x00, 0x00, 0x0c,
   0x00, 0x00, 0x00, 0x00, 0x00, 0x00, 0x00, 0x00, 0x18, 0x00, 0x00, 0x00,
   0x00, 0x00, 0x00, 0x00, 0x00, 0x00, 0x00, 0x00, 0x00, 0x00, 0x00, 0x00,
   0x00, 0x00, 0x00, 0x00, 0x00, 0x00, 0x00, 0x00, 0x00, 0x00, 0x00, 0x00,
   0x00, 0x00, 0x00, 0x00, 0x00, 0x00, 0x00, 0x00, 0x00, 0x00, 0x00, 0x00,
   0x00, 0x00, 0x00, 0x00, 0x00, 0x00, 0x00, 0x00, 0x00, 0x00, 0x00, 0x00,
   0x00, 0x00, 0x00, 0x00, 0x00, 0x00, 0x00, 0x00, 0x00, 0x00, 0x00, 0x00,
   0x00, 0x00, 0x00, 0x00, 0x00, 0x00, 0x00, 0x00, 0x00, 0x00, 0x00, 0x00,
   0x00, 0x00, 0x00, 0x00, 0x00, 0x00, 0x00, 0x00, 0x00, 0x00, 0x00, 0x00,
   0x00, 0x00, 0x00, 0x00, 0x00, 0x00, 0x00, 0x00, 0x00, 0x00, 0x00, 0x00,
   0x00, 0x00, 0x00, 0x00, 0x00, 0x00, 0x00, 0x00, 0x00, 0x00, 0x00, 0x00,
   0x00, 0x00, 0x00, 0x00, 0x00, 0x00, 0x00, 0x00, 0x00, 0x00, 0x00, 0x00,
   0x00, 0x00, 0x00, 0x00, 0x00, 0x00, 0x00, 0x00, 0x00, 0x00, 0x00, 0x00,
   0x00, 0x00, 0x00, 0x00, 0x00, 0x00, 0x00, 0x00, 0x00, 0x00, 0x00, 0x00,
   0x00, 0x00, 0x00, 0x00, 0x00, 0x00, 0x18, 0x00, 0x7e, 0x3e, 0x3f, 0x3e,
   0x1f, 0x7f, 0x7f, 0x3e, 0x63, 0x3c, 0x78, 0x63, 0x03, 0x81, 0x63, 0x3e,
   0x3f, 0x3e, 0x3f, 0x3e, 0xff, 0x63, 0x63, 0xc3, 0x63, 0xc3, 0x7f, 0x3c,
   0x06, 0x3c, 0x3c, 0x00, 0xc3, 0x63, 0x63, 0x63, 0x33, 0x03, 0x03, 0x63,
   0x63, 0x18, 0x30, 0x63, 0x03, 0xc3, 0x63, 0x63, 0x63, 0x63, 0x63, 0x63,
   0x18, 0x63, 0x63, 0xc3, 0x63, 0xc3, 0x60, 0x0c, 0x06, 0x30, 0x66, 0x00,
   0xf3, 0x63, 0x63, 0x63, 0x63, 0x03, 0x03, 0x63, 0x63, 0x18, 0x30, 0x33,
   0x03, 0xe7, 0x63, 0x63, 0x63, 0x63, 0x63, 0x03, 0x18, 0x63, 0x63, 0xc3,
   0x36, 0x66, 0x60, 0x0c, 0x0c, 0x30, 0x00, 0x00, 0xdb, 0x63, 0x63, 0x03,
   0x63, 0x03, 0x03, 0x03, 0x63, 0x18, 0x30, 0x1b, 0x03, 0xff, 0x67, 0x63,
   0x63, 0x63, 0x63, 0x03, 0x18, 0x63, 0x63, 0xc3, 0x36, 0x66, 0x30, 0x0c,
   0x0c, 0x30, 0x00, 0x00, 0xdb, 0x63, 0x3f, 0x03, 0x63, 0x1f, 0x1f, 0x03,
   0x7f, 0x18, 0x30, 0x0f, 0x03, 0xdb, 0x6f, 0x63, 0x63, 0x63, 0x63, 0x3e,
   0x18, 0x63, 0x63, 0xc3, 0x1c, 0x3c, 0x18, 0x0c, 0x18, 0x30, 0x00, 0x00,
   0xdb, 0x7f, 0x63, 0x03, 0x63, 0x03, 0x03, 0x7b, 0x63, 0x18, 0x30, 0x0f,
   0x03, 0xc3, 0x7b, 0x63, 0x3f, 0x63, 0x3f, 0x60, 0x18, 0x63, 0x36, 0xdb,
   0x1c, 0x18, 0x0c, 0x0c, 0x18, 0x30, 0x00, 0x00, 0xdb, 0x63, 0x63, 0x03,
   0x63, 0x03, 0x03, 0x63, 0x63, 0x18, 0x30, 0x1b, 0x03, 0xc3, 0x73, 0x63,
   0x03, 0x63, 0x0f, 0x60, 0x18, 0x63, 0x36, 0xff, 0x36, 0x18, 0x06, 0x0c,
   0x30, 0x30, 0x00, 0x00, 0xf3, 0x63, 0x63, 0x63, 0x63, 0x03, 0x03, 0x63,
   0x63, 0x18, 0x33, 0x33, 0x03, 0xc3, 0x63, 0x63, 0x03, 0x63, 0x1b, 0x63,
   0x18, 0x63, 0x36, 0xe7, 0x36, 0x18, 0x03, 0x0c, 0x30, 0x30, 0x00, 0x00,
   0x03, 0x63, 0x63, 0x63, 0x33, 0x03, 0x03, 0x63, 0x63, 0x18, 0x33, 0x63,
   0x03, 0xc3, 0x63, 0x63, 0x03, 0x7b, 0x33, 0x63, 0x18, 0x63, 0x1c, 0xc3,
   0x63, 0x18, 0x03, 0x0c, 0x60, 0x30, 0x00, 0x00, 0xfe, 0x63, 0x3f, 0x3e,
   0x1f, 0x7f, 0x03, 0x3e, 0x63, 0x3c, 0x1e, 0x63, 0x7f, 0xc3, 0x63, 0x3e,
   0x03, 0x3e, 0x63, 0x3e, 0x18, 0x3e, 0x1c, 0x81, 0x63, 0x18, 0x7f, 0x3c,
   0x60, 0x3c, 0x00, 0x00, 0x00, 0x00, 0x00, 0x00, 0x00, 0x00, 0x00, 0x00,
   0x00, 0x00, 0x00, 0x00, 0x00, 0x00, 0x00, 0x00, 0x00, 0x60, 0x00, 0x00,
   0x00, 0x00, 0x00, 0x00, 0x00, 0x00, 0x00, 0x00, 0x00, 0x00, 0x00, 0x00,
   0x00, 0x00, 0x00, 0x00, 0x00, 0x00, 0x00, 0x00, 0x00, 0x00, 0x00, 0x00,
   0x00, 0x00, 0x00, 0x00, 0x00, 0x00, 0x00, 0x00, 0x00, 0x00, 0x00, 0x00,
   0x00, 0x00, 0x00, 0x00, 0x00, 0x00, 0x00, 0x7f, 0x00, 0x00, 0x00, 0x00,
   0x00, 0x00, 0x00, 0x00, 0x00, 0x00, 0x00, 0x00, 0x00, 0x00, 0x00, 0x00,
   0x00, 0x00, 0x00, 0x00, 0x00, 0x00, 0x00, 0x00, 0x00, 0x00, 0x00, 0x00,
   0x00, 0x00, 0x00, 0x00, 0x00, 0x00, 0x00, 0x00, 0x00, 0x00, 0x00, 0x00,
   0x00, 0x00, 0x00, 0x00, 0x00, 0x00, 0x00, 0x00, 0x00, 0x00, 0x00, 0x00,
   0x00, 0x00, 0x00, 0x00, 0x00, 0x00, 0x00, 0x00, 0x00, 0x00, 0x00, 0x00,
   0x0c, 0x00, 0x00, 0x00, 0x00, 0x00, 0x00, 0x00, 0x00, 0x00, 0x00, 0x00,
   0x00, 0x00, 0x00, 0x00, 0x00, 0x00, 0x00, 0x00, 0x00, 0x00, 0x00, 0x00,
   0x00, 0x00, 0x00, 0x00, 0x00, 0x00, 0x00, 0x00, 0x18, 0x00, 0x00, 0x00,
   0x00, 0x00, 0x00, 0x00, 0x00, 0x00, 0x00, 0x00, 0x00, 0x00, 0x00, 0x00,
   0x00, 0x00, 0x00, 0x00, 0x00, 0x00, 0x00, 0x00, 0x00, 0x00, 0x00, 0x00,
   0x00, 0x00, 0xce, 0x00, 0x00, 0x00, 0x03, 0x00, 0x60, 0x00, 0x78, 0x00,
   0x03, 0x18, 0x60, 0x03, 0x1c, 0x00, 0x00, 0x00, 0x00, 0x00, 0x00, 0x00,
   0x0c, 0x00, 0x00, 0x00, 0x00, 0x00, 0x00, 0x38, 0x18, 0x0e, 0xdb, 0x00,
   0x00, 0x00, 0x03, 0x00, 0x60, 0x00, 0x0c, 0x00, 0x03, 0x18, 0x60, 0x03,
   0x18, 0x00, 0x00, 0x00, 0x00, 0x00, 0x00, 0x00, 0x0c, 0x00, 0x00, 0x00,
   0x00, 0x00, 0x00, 0x0c, 0x18, 0x18, 0x73, 0x00, 0x00, 0x00, 0x03, 0x00,
   0x60, 0x00, 0x0c, 0x00, 0x03, 0x00, 0x00, 0x03, 0x18, 0x00, 0x00, 0x00,
   0x00, 0x00, 0x00, 0x00, 0x0c, 0x00, 0x00, 0x00, 0x00, 0x00, 0x00, 0x0c,
   0x18, 0x18, 0x00, 0x00, 0x00, 0x3e, 0x3f, 0x3e, 0x7e, 0x3e, 0x3f, 0x7e,
   0x3f, 0x1c, 0x70, 0x63, 0x18, 0x7f, 0x3f, 0x3e, 0x3f, 0x7e, 0x7b, 0x7e,
   0x3f, 0x63, 0x63, 0xc3, 0x63, 0x63, 0x7f, 0x0c, 0x18, 0x18, 0x00, 0x00,
   0x00, 0x60, 0x63, 0x63, 0x63, 0x63, 0x0c, 0x63, 0x63, 0x18, 0x60, 0x33,
   0x18, 0xdb, 0x63, 0x63, 0x63, 0x63, 0x0f, 0x03, 0x0c, 0x63, 0x63, 0xc3,
   0x63, 0x63, 0x30, 0x06, 0x18, 0x30, 0x00, 0x00, 0x00, 0x7e, 0x63, 0x03,
   0x63, 0x63, 0x0c, 0x63, 0x63, 0x18, 0x60, 0x1b, 0x18, 0xdb, 0x63, 0x63,
   0x63, 0x63, 0x07, 0x03, 0x0c, 0x63, 0x63, 0xdb, 0x36, 0x63, 0x18, 0x0c,
   0x18, 0x18, 0x00, 0x00, 0x00, 0x63, 0x63, 0x03, 0x63, 0x7f, 0x0c, 0x63,
   0x63, 0x18, 0x60, 0x0f, 0x18, 0xdb, 0x63, 0x63, 0x63, 0x63, 0x03, 0x3e,
   0x0c, 0x63, 0x36, 0xdb, 0x1c, 0x63, 0x0c, 0x0c, 0x18, 0x18, 0x00, 0x00,
   0x00, 0x63, 0x63, 0x03, 0x63, 0x03, 0x0c, 0x63, 0x63, 0x18, 0x60, 0x1b,
   0x18, 0xdb, 0x63, 0x63, 0x63, 0x63, 0x03, 0x60, 0x0c, 0x63, 0x36, 0xdb,
   0x36, 0x63, 0x06, 0x0c, 0x18, 0x18, 0x00, 0x00, 0x00, 0x63, 0x63, 0x63,
   0x63, 0x03, 0x0c, 0x63, 0x63, 0x18, 0x60, 0x33, 0x18, 0xdb, 0x63, 0x63,
   0x63, 0x63, 0x03, 0x60, 0x0c, 0x63, 0x1c, 0xdb, 0x63, 0x63, 0x03, 0x0c,
   0x18, 0x18, 0x00, 0x00, 0x00, 0x7e, 0x3f, 0x3e, 0x7e, 0x3e, 0x0c, 0x7e,
   0x63, 0x3c, 0x60, 0x63, 0x3c, 0xdb, 0x63, 0x3e, 0x3f, 0x7e, 0x03, 0x3f,
   0x78, 0x7e, 0x1c, 0x7e, 0x63, 0x7e, 0x7f, 0x38, 0x18, 0x0e, 0x00, 0x00,
   0x00, 0x00, 0x00, 0x00, 0x00, 0x00, 0x00, 0x60, 0x00, 0x00, 0x66, 0x00,
   0x00, 0x00, 0x00, 0x00, 0x03, 0x60, 0x00, 0x00, 0x00, 0x00, 0x00, 0x00,
   0x00, 0x60, 0x00, 0x00, 0x00, 0x00, 0x00, 0x00, 0x00, 0x00, 0x00, 0x00,
   0x00, 0x00, 0x00, 0x60, 0x00, 0x00, 0x66, 0x00, 0x00, 0x00, 0x00, 0x00,
   0x03, 0x60, 0x00, 0x00, 0x00, 0x00, 0x00, 0x00, 0x00, 0x60, 0x00, 0x00,
   0x00, 0x00, 0x00, 0x00, 0x00, 0x00, 0x00, 0x00, 0x00, 0x00, 0x00, 0x3e,
   0x00, 0x00, 0x3c, 0x00, 0x00, 0x00, 0x00, 0x00, 0x03, 0x60, 0x00, 0x00,
   0x00, 0x00, 0x00, 0x00, 0x00, 0x3e, 0x00, 0x00, 0x00, 0x00, 0x00, 0x00,
   0x00, 0x00, 0x00, 0x00, 0x00, 0x00, 0x00, 0x00, 0x00, 0x00, 0x00, 0x00,
   0x00, 0x00, 0x00, 0x00, 0x00, 0x00, 0x00, 0x00, 0x00, 0x00, 0x00, 0x00,
   0x00, 0x00, 0x00, 0x00, 0x00, 0x00, 0x00, 0x00, 0x00, 0x00, 0x00, 0x00,
   0x00, 0x00, 0x00, 0x00, 0x00, 0x00, 0x00, 0x00, 0x00, 0x00, 0x00, 0x00,
   0x00, 0x00, 0x00, 0x00, 0x00, 0x00, 0x00, 0x00, 0x00, 0x00, 0x00, 0x00,
   0x00, 0x00, 0x00, 0x00, 0x00, 0x00, 0x00, 0x00, 0x00, 0x00, 0x00, 0x00,
   0x00, 0x00, 0x00, 0x00, 0x00, 0x00, 0x00, 0x00, 0x00, 0x00, 0x00, 0x00,
   0x00, 0x00, 0x00, 0x00, 0x00, 0x00, 0x00, 0x00, 0x00, 0x00, 0x00, 0x00,
   0x00, 0x00, 0x00, 0x00, 0x00, 0x00, 0x00, 0x00, 0x00, 0x00, 0x00, 0x00,
   0x00, 0x00, 0x00, 0x00, 0x00, 0x00, 0x00, 0x00, 0x00, 0x00, 0x00, 0x00,
   0x00, 0x00, 0x00, 0x00, 0x00, 0x00, 0x00, 0x00, 0x00, 0x00, 0x00, 0x00,
   0x00, 0x00, 0x00, 0x00, 0x00, 0x00, 0x00, 0x00, 0x00, 0x00, 0x00, 0x00,
   0x00, 0x00, 0x00, 0x00, 0x00, 0x00, 0x00, 0x00, 0x00, 0x00, 0x00, 0x00,
   0x00, 0x00, 0x00, 0x00, 0x00, 0x00, 0x00, 0x00, 0x00, 0x00, 0x00, 0x00,
   0x00, 0x00, 0x00, 0x00, 0x00, 0x00, 0x00, 0x00, 0x00, 0x00, 0x00, 0x00,
   0x00, 0x00, 0x00, 0x00, 0x00, 0x00, 0x00, 0x00, 0x00, 0x00, 0x00, 0x00,
   0x00, 0x00, 0x00, 0x00, 0x00, 0x00, 0x00, 0x00, 0x00, 0x00, 0x00, 0x00,
   0x00, 0x00, 0x00, 0x00, 0x00, 0x00, 0x00, 0x00, 0x00, 0x00, 0x00, 0x00,
   0x00, 0x00, 0x00, 0x00, 0x00, 0x00, 0x00, 0x00, 0x00, 0x00, 0x00, 0x00,
   0x00, 0x00, 0x00, 0x00, 0x00, 0x00, 0x00, 0x00, 0x00, 0x00, 0x00, 0x00,
   0x00, 0x00, 0x00, 0x00, 0x00, 0x00, 0x00, 0x00, 0x00, 0x00, 0x00, 0x00,
   0x00, 0x00, 0x00, 0x00, 0x00, 0x00, 0x00, 0x00, 0x00, 0x00, 0x00, 0x00,
   0x00, 0x00, 0x00, 0x00, 0x00, 0x00, 0x00, 0x00, 0x00, 0x00, 0x00, 0x00,
   0x00, 0x00, 0x00, 0x00, 0x00, 0x00, 0x00, 0x00, 0x00, 0x00, 0x00, 0x00,
   0x00, 0x00, 0x00, 0x00, 0x00, 0x00, 0x00, 0x00, 0x00, 0x00, 0x00, 0x00,
   0x00, 0x00, 0x00, 0x00, 0x00, 0x00, 0x00, 0x00, 0x00, 0x00, 0x00, 0x00,
   0x00, 0x00, 0x00, 0x00, 0x00, 0x00, 0x00, 0x00, 0x00, 0x00, 0x00, 0x00,
   0x00, 0x00, 0x00, 0x00, 0x00, 0x00, 0x00, 0x00, 0x00, 0x00, 0x00, 0x00,
   0x00, 0x00, 0x00, 0x00, 0x00, 0x00, 0x00, 0x00, 0x00, 0x00, 0x00, 0x00,
   0x00, 0x00, 0x00, 0x00, 0x00, 0x00, 0x00, 0x00, 0x00, 0x00, 0x00, 0x00,
   0x00, 0x00, 0x00, 0x00, 0x00, 0x00, 0x00, 0x00, 0x00, 0x00, 0x00, 0x00,
   0x00, 0x00, 0x00, 0x00, 0x00, 0x00, 0x00, 0x00, 0x00, 0x00, 0x00, 0x00,
   0x00, 0x00, 0x00, 0x00, 0x00, 0x00, 0x00, 0x00, 0x00, 0x00, 0x00, 0x00,
   0x00, 0x00, 0x00, 0x00, 0x00, 0x00, 0x00, 0x00, 0x00, 0x00, 0x00, 0x00,
   0x00, 0x00, 0x00, 0x00, 0x00, 0x00, 0x00, 0x00, 0x00, 0x00, 0x00, 0x00,
   0x00, 0x00, 0x00, 0x00, 0x00, 0x00, 0x00, 0x00, 0x00, 0x00, 0x00, 0x00,
   0x00, 0x00, 0x00, 0x00, 0x00, 0x00, 0x00, 0x00, 0x00, 0x00, 0x00, 0x00,
   0x00, 0x00, 0x00, 0x00, 0x00, 0x00, 0x00, 0x00, 0x00, 0x00, 0x00, 0x00,
   0x00, 0x00, 0x00, 0x00, 0x00, 0x00, 0x00, 0x00, 0x00, 0x00, 0x00, 0x00,
   0x00, 0x00, 0x00, 0x00, 0x00, 0x00, 0x00, 0x00, 0x00, 0x00, 0x00, 0x00,
   0x00, 0x00, 0x00, 0x00, 0x00, 0x00, 0x00, 0x00, 0x00, 0x00, 0x00, 0x00,
   0x00, 0x00, 0x00, 0x00, 0x00, 0x00, 0x00, 0x00, 0x00, 0x00, 0x00, 0x00,
   0x00, 0x00, 0x00, 0x00, 0x00, 0x00, 0x00, 0x00, 0x00, 0x00, 0x00, 0x00,
   0x00, 0x00, 0x00, 0x00, 0x00, 0x00, 0x00, 0x00, 0x00, 0x00, 0x00, 0x00,
   0x00, 0x00, 0x00, 0x00, 0x00, 0x00, 0x00, 0x00, 0x00, 0x00, 0x00, 0x00,
   0x00, 0x00, 0x00, 0x00, 0x00, 0x00, 0x00, 0x00, 0x00, 0x00, 0x00, 0x00,
   0x36, 0x00, 0x00, 0x00, 0x00, 0x00, 0x00, 0x3e, 0x00, 0x00, 0x00, 0x00,
   0x18, 0x00, 0x00, 0x00, 0x00, 0x00, 0x00, 0x00, 0x00, 0x00, 0x00, 0x00,
   0x00, 0x00, 0x00, 0x00, 0x00, 0x00, 0x00, 0x3c, 0x36, 0x00, 0x3c, 0x00,
   0x00, 0x00, 0x00, 0x00, 0x1c, 0x00, 0x1c, 0x1e, 0x0c, 0x00, 0x00, 0x00,
   0x00, 0x18, 0x3c, 0x00, 0x06, 0x06, 0x07, 0x00, 0x00, 0x18, 0x00, 0x1c,
   0x00, 0xc3, 0x18, 0x66, 0x00, 0x00, 0x60, 0x00, 0x00, 0x00, 0x00, 0x00,
   0x36, 0x00, 0x36, 0x30, 0x00, 0x00, 0xfe, 0x00, 0x00, 0x1c, 0x66, 0x00,
   0x07, 0x07, 0x0c, 0x0c, 0x00, 0x18, 0x18, 0x36, 0x00, 0xc3, 0x18, 0x06,
   0x00, 0x7e, 0x7c, 0x00, 0x00, 0x00, 0x7e, 0x00, 0x36, 0x00, 0x30, 0x1c,
   0x00, 0x00, 0xdb, 0x00, 0x00, 0x18, 0x66, 0x00, 0x46, 0x46, 0x46, 0x0c,
   0x00, 0x00, 0x18, 0x06, 0x66, 0x66, 0x18, 0x1c, 0x00, 0x81, 0x66, 0x00,
   0x00, 0x00, 0x81, 0x00, 0x1c, 0x00, 0x18, 0x30, 0x00, 0x00, 0xdb, 0x00,
   0x00, 0x18, 0x66, 0x00, 0x66, 0x66, 0x6c, 0x00, 0x00, 0x18, 0x7e, 0x06,
   0x3c, 0x3c, 0x18, 0x36, 0x00, 0x99, 0x7c, 0xd8, 0x7f, 0x00, 0x9d, 0x00,
   0x00, 0x18, 0x0c, 0x30, 0x00, 0x63, 0xdb, 0x00, 0x00, 0x18, 0x3c, 0x1b,
   0x36, 0x36, 0x37, 0x0c, 0x00, 0x18, 0xdb, 0x1f, 0x66, 0x18, 0x00, 0x66,
   0x00, 0xa5, 0x00, 0x6c, 0x60, 0x00, 0xa5, 0x00, 0x00, 0x18, 0x3e, 0x1e,
   0x00, 0x63, 0xdb, 0x00, 0x00, 0x3c, 0x00, 0x36, 0x18, 0x18, 0x18, 0x0c,
   0x00, 0x18, 0x1b, 0x06, 0x66, 0x7e, 0x00, 0x66, 0x00, 0x85, 0x7e, 0x36,
   0x60, 0x3e, 0x9d, 0x00, 0x00, 0x7e, 0x00, 0x00, 0x00, 0x63, 0xde, 0x18,
   0x00, 0x00, 0x7e, 0x6c, 0x0c, 0x0c, 0x0c, 0x06, 0x00, 0x18, 0x1b, 0x06,
   0x66, 0x18, 0x18, 0x6c, 0x00, 0xa5, 0x00, 0x1b, 0x60, 0x00, 0x95, 0x00,
   0x00, 0x18, 0x00, 0x00, 0x00, 0x63, 0xd8, 0x18, 0x00, 0x00, 0x00, 0xd8,
   0x66, 0x06, 0x66, 0x63, 0x00, 0x18, 0x1b, 0x06, 0x3c, 0x7e, 0x18, 0x38,
   0x00, 0x99, 0x00, 0x36, 0x00, 0x00, 0xa5, 0x00, 0x00, 0x18, 0x00, 0x00,
   0x00, 0x63, 0xd8, 0x00, 0x00, 0x00, 0x00, 0x6c, 0x73, 0x73, 0x73, 0x63,
   0x00, 0x18, 0xdb, 0x66, 0x66, 0x18, 0x18, 0x60, 0x00, 0x81, 0x00, 0x6c,
   0x00, 0x00, 0x81, 0x00, 0x00, 0x00, 0x00, 0x00, 0x00, 0x73, 0xd8, 0x00,
   0x00, 0x00, 0x00, 0x36, 0x59, 0xd9, 0x59, 0x63, 0x00, 0x18, 0x7e, 0x7f,
   0x00, 0x18, 0x18, 0x66, 0x00, 0x7e, 0x00, 0xd8, 0x00, 0x00, 0x7e, 0x00,
   0x00, 0x7e, 0x00, 0x00, 0x00, 0x6f, 0xd8, 0x00, 0x00, 0x00, 0x00, 0x1b,
   0x7c, 0x60, 0x7c, 0x3e, 0x00, 0x00, 0x18, 0x00, 0x00, 0x00, 0x00, 0x3c,
   0x00, 0x00, 0x00, 0x00, 0x00, 0x00, 0x00, 0x00, 0x00, 0x00, 0x00, 0x00,
   0x00, 0x03, 0x00, 0x00, 0x0c, 0x00, 0x00, 0x00, 0x60, 0x30, 0x60, 0x00,
   0x00, 0x00, 0x18, 0x00, 0x00, 0x00, 0x00, 0x00, 0x00, 0x00, 0x00, 0x00,
   0x00, 0x00, 0x00, 0x00, 0x00, 0x00, 0x00, 0x00, 0x00, 0x03, 0x00, 0x00,
   0x0c, 0x00, 0x00, 0x00, 0x60, 0xf8, 0x60, 0x00, 0x00, 0x00, 0x00, 0x00,
   0x00, 0x00, 0x00, 0x00, 0x00, 0x00, 0x00, 0x00, 0x00, 0x00, 0x00, 0x00,
   0x00, 0x00, 0x00, 0x00, 0x00, 0x03, 0x00, 0x00, 0x06, 0x00, 0x00, 0x00,
   0x00, 0x00, 0x00, 0x00, 0x00, 0x00, 0x00, 0x00, 0x00, 0x00, 0x00, 0x00,
   0x00, 0x00, 0x00, 0x00, 0x00, 0x00, 0x00, 0x00, 0x00, 0x00, 0x00, 0x00,
   0x00, 0x00, 0x00, 0x00, 0x00, 0x00, 0x00, 0x00, 0x00, 0x00, 0x00, 0x00,
   0x0c, 0x18, 0x1c, 0x6e, 0x36, 0x1c, 0x00, 0x00, 0x0c, 0x18, 0x1c, 0x36,
   0x0c, 0x30, 0x1c, 0x66, 0x00, 0x6e, 0x0c, 0x18, 0x1c, 0x6e, 0x36, 0x00,
   0x00, 0x0c, 0x18, 0x1c, 0x36, 0x30, 0x00, 0x00, 0x18, 0x0c, 0x36, 0x3b,
   0x36, 0x36, 0x00, 0x00, 0x18, 0x0c, 0x36, 0x36, 0x18, 0x18, 0x36, 0x66,
   0x00, 0x3b, 0x18, 0x0c, 0x36, 0x3b, 0x36, 0x00, 0x00, 0x18, 0x0c, 0x36,
   0x36, 0x18, 0x00, 0x00, 0x00, 0x00, 0x00, 0x00, 0x00, 0x1c, 0xfe, 0x3e,
   0x00, 0x00, 0x00, 0x00, 0x00, 0x00, 0x00, 0x00, 0x3e, 0x00, 0x00, 0x00,
   0x00, 0x00, 0x00, 0x00, 0x3e, 0x63, 0x63, 0x00, 0x00, 0xc3, 0x03, 0x1e,
   0x3e, 0x3e, 0x3e, 0x3e, 0x3e, 0x3e, 0x33, 0x63, 0x7f, 0x7f, 0x7f, 0x7f,
   0x3c, 0x3c, 0x3c, 0x3c, 0x66, 0x63, 0x3e, 0x3e, 0x3e, 0x3e, 0x3e, 0x00,
   0xe3, 0x63, 0x63, 0x63, 0x63, 0xc3, 0x03, 0x33, 0x63, 0x63, 0x63, 0x63,
   0x63, 0x63, 0x33, 0x63, 0x03, 0x03, 0x03, 0x03, 0x18, 0x18, 0x18, 0x18,
   0xc6, 0x63, 0x63, 0x63, 0x63, 0x63, 0x63, 0x00, 0x63, 0x63, 0x63, 0x63,
   0x63, 0x66, 0x3f, 0x33, 0x63, 0x63, 0x63, 0x63, 0x63, 0x63, 0x33, 0x03,
   0x03, 0x03, 0x03, 0x03, 0x18, 0x18, 0x18, 0x18, 0xc6, 0x67, 0x63, 0x63,
   0x63, 0x63, 0x63, 0x63, 0x73, 0x63, 0x63, 0x63, 0x63, 0x66, 0x63, 0x13,
   0x63, 0x63, 0x63, 0x63, 0x63, 0x63, 0xff, 0x03, 0x03, 0x03, 0x03, 0x03,
   0x18, 0x18, 0x18, 0x18, 0xdf, 0x6f, 0x63, 0x63, 0x63, 0x63, 0x63, 0x36,
   0x7b, 0x63, 0x63, 0x63, 0x63, 0x3c, 0x63, 0x3f, 0x7f, 0x7f, 0x7f, 0x7f,
   0x7f, 0x7f, 0x33, 0x03, 0x1f, 0x1f, 0x1f, 0x1f, 0x18, 0x18, 0x18, 0x18,
   0xc6, 0x7b, 0x63, 0x63, 0x63, 0x63, 0x63, 0x1c, 0x6f, 0x63, 0x63, 0x63,
   0x63, 0x18, 0x63, 0x63, 0x63, 0x63, 0x63, 0x63, 0x63, 0x63, 0x33, 0x03,
   0x03, 0x03, 0x03, 0x03, 0x18, 0x18, 0x18, 0x18, 0xc6, 0x73, 0x63, 0x63,
   0x63, 0x63, 0x63, 0x1c, 0x67, 0x63, 0x63, 0x63, 0x63, 0x18, 0x63, 0x63,
   0x63, 0x63, 0x63, 0x63, 0x63, 0x63, 0x33, 0x63, 0x03, 0x03, 0x03, 0x03,
   0x18, 0x18, 0x18, 0x18, 0xc6, 0x63, 0x63, 0x63, 0x63, 0x63, 0x63, 0x36,
   0x63, 0x63, 0x63, 0x63, 0x63, 0x18, 0x3f, 0x63, 0x63, 0x63, 0x63, 0x63,
   0x63, 0x63, 0x33, 0x63, 0x03, 0x03, 0x03, 0x03, 0x18, 0x18, 0x18, 0x18,
   0x66, 0x63, 0x63, 0x63, 0x63, 0x63, 0x63, 0x63, 0x63, 0x63, 0x63, 0x63,
   0x63, 0x18, 0x03, 0x67, 0x63, 0x63, 0x63, 0x63, 0x63, 0x63, 0xf3, 0x3e,
   0x7f, 0x7f, 0x7f, 0x7f, 0x3c, 0x3c, 0x3c, 0x3c, 0x3e, 0x63, 0x3e, 0x3e,
   0x3e, 0x3e, 0x3e, 0x00, 0x3e, 0x3e, 0x3e, 0x3e, 0x3e, 0x18, 0x03, 0x3b,
   0x00, 0x00, 0x00, 0x00, 0x00, 0x00, 0x00, 0x0c, 0x00, 0x00, 0x00, 0x00,
   0x00, 0x00, 0x00, 0x00, 0x00, 0x00, 0x00, 0x00, 0x00, 0x00, 0x00, 0x00,
   0x00, 0x00, 0x00, 0x00, 0x00, 0x00, 0x00, 0x00, 0x00, 0x00, 0x00, 0x00,
   0x00, 0x00, 0x00, 0x0c, 0x00, 0x00, 0x00, 0x00, 0x00, 0x00, 0x00, 0x00,
   0x00, 0x00, 0x00, 0x00, 0x00, 0x00, 0x00, 0x00, 0x00, 0x00, 0x00, 0x00,
   0x00, 0x00, 0x00, 0x00, 0x00, 0x00, 0x00, 0x00, 0x00, 0x00, 0x00, 0x06,
   0x00, 0x00, 0x00, 0x00, 0x00, 0x00, 0x00, 0x00, 0x00, 0x00, 0x00, 0x00,
   0x00, 0x00, 0x00, 0x00, 0x00, 0x00, 0x00, 0x00, 0x00, 0x00, 0x00, 0x00,
   0x00, 0x00, 0x00, 0x00, 0x00, 0x00, 0x00, 0x00, 0x00, 0x00, 0x00, 0x00,
   0x00, 0x00, 0x00, 0x00, 0x00, 0x00, 0x00, 0x00, 0x00, 0x00, 0x00, 0x00,
   0x00, 0x00, 0x00, 0x00, 0x00, 0x00, 0x00, 0x00, 0x00, 0x00, 0x00, 0x00,
   0x00, 0x00, 0x00, 0x00, 0x00, 0x00, 0x00, 0x00, 0x00, 0x00, 0x00, 0x00,
   0x00, 0x00, 0x00, 0x00, 0x00, 0x00, 0x00, 0x00, 0x00, 0x00, 0x00, 0x00,
   0x00, 0x00, 0x00, 0x00, 0x00, 0x00, 0x00, 0x00, 0x00, 0x00, 0x00, 0x00,
   0x00, 0x00, 0x00, 0x00, 0x00, 0x00, 0x00, 0x00, 0x00, 0x00, 0x00, 0x00,
   0x00, 0x00, 0x00, 0x00, 0x00, 0x00, 0x00, 0x00, 0x00, 0x00, 0x00, 0x00,
   0x0c, 0x18, 0x1c, 0x6e, 0x36, 0x1c, 0x00, 0x00, 0x0c, 0x18, 0x1c, 0x36,
   0x0c, 0x30, 0x1c, 0x36, 0x16, 0x6e, 0x0c, 0x18, 0x1c, 0x6e, 0x36, 0x00,
   0x00, 0x0c, 0x18, 0x1c, 0x36, 0x18, 0x03, 0x36, 0x18, 0x0c, 0x36, 0x3b,
   0x36, 0x36, 0x00, 0x00, 0x18, 0x0c, 0x36, 0x36, 0x18, 0x18, 0x36, 0x36,
   0x0c, 0x3b, 0x18, 0x0c, 0x36, 0x3b, 0x36, 0x00, 0x00, 0x18, 0x0c, 0x36,
   0x36, 0x0c, 0x03, 0x36, 0x00, 0x00, 0x00, 0x00, 0x00, 0x1c, 0x00, 0x00,
   0x00, 0x00, 0x00, 0x00, 0x00, 0x00, 0x00, 0x00, 0x1a, 0x00, 0x00, 0x00,
   0x00, 0x00, 0x00, 0x18, 0x00, 0x00, 0x00, 0x00, 0x00, 0x00, 0x03, 0x00,
   0x3e, 0x3e, 0x3e, 0x3e, 0x3e, 0x3e, 0x6e, 0x3e, 0x3e, 0x3e, 0x3e, 0x3e,
   0x1c, 0x1c, 0x1c, 0x1c, 0x3e, 0x3f, 0x3e, 0x3e, 0x3e, 0x3e, 0x3e, 0x18,
   0xbc, 0x63, 0x63, 0x63, 0x63, 0x63, 0x3f, 0x63, 0x60, 0x60, 0x60, 0x60,
   0x60, 0x60, 0xd8, 0x63, 0x63, 0x63, 0x63, 0x63, 0x18, 0x18, 0x18, 0x18,
   0x63, 0x63, 0x63, 0x63, 0x63, 0x63, 0x63, 0x00, 0xe6, 0x63, 0x63, 0x63,
   0x63, 0x63, 0x63, 0x63, 0x7e, 0x7e, 0x7e, 0x7e, 0x7e, 0x7e, 0xde, 0x03,
   0x63, 0x63, 0x63, 0x63, 0x18, 0x18, 0x18, 0x18, 0x63, 0x63, 0x63, 0x63,
   0x63, 0x63, 0x63, 0x7e, 0x76, 0x63, 0x63, 0x63, 0x63, 0x63, 0x63, 0x63,
   0x63, 0x63, 0x63, 0x63, 0x63, 0x63, 0xfb, 0x03, 0x7f, 0x7f, 0x7f, 0x7f,
   0x18, 0x18, 0x18, 0x18, 0x63, 0x63, 0x63, 0x63, 0x63, 0x63, 0x63, 0x00,
   0x7e, 0x63, 0x63, 0x63, 0x63, 0x63, 0x63, 0x63, 0x63, 0x63, 0x63, 0x63,
   0x63, 0x63, 0x1b, 0x03, 0x03, 0x03, 0x03, 0x03, 0x18, 0x18, 0x18, 0x18,
   0x63, 0x63, 0x63, 0x63, 0x63, 0x63, 0x63, 0x18, 0x6e, 0x63, 0x63, 0x63,
   0x63, 0x63, 0x63, 0x63, 0x63, 0x63, 0x63, 0x63, 0x63, 0x63, 0x1b, 0x63,
   0x03, 0x03, 0x03, 0x03, 0x18, 0x18, 0x18, 0x18, 0x63, 0x63, 0x63, 0x63,
   0x63, 0x63, 0x63, 0x18, 0x67, 0x63, 0x63, 0x63, 0x63, 0x63, 0x63, 0x63,
   0x7e, 0x7e, 0x7e, 0x7e, 0x7e, 0x7e, 0x76, 0x3e, 0x3e, 0x3e, 0x3e, 0x3e,
   0x3c, 0x3c, 0x3c, 0x3c, 0x3e, 0x63, 0x3e, 0x3e, 0x3e, 0x3e, 0x3e, 0x00,
   0x3d, 0x7e, 0x7e, 0x7e, 0x7e, 0x7e, 0x3f, 0x7e, 0x00, 0x00, 0x00, 0x00,
   0x00, 0x00, 0x00, 0x0c, 0x00, 0x00, 0x00, 0x00, 0x00, 0x00, 0x00, 0x00,
   0x00, 0x00, 0x00, 0x00, 0x00, 0x00, 0x00, 0x00, 0x00, 0x00, 0x00, 0x00,
   0x00, 0x60, 0x03, 0x60, 0x00, 0x00, 0x00, 0x00, 0x00, 0x00, 0x00, 0x0c,
   0x00, 0x00, 0x00, 0x00, 0x00, 0x00, 0x00, 0x00, 0x00, 0x00, 0x00, 0x00,
   0x00, 0x00, 0x00, 0x00, 0x00, 0x00, 0x00, 0x00, 0x00, 0x60, 0x03, 0x60,
   0x00, 0x00, 0x00, 0x00, 0x00, 0x00, 0x00, 0x06, 0x00, 0x00, 0x00, 0x00,
   0x00, 0x00, 0x00, 0x00, 0x00, 0x00, 0x00, 0x00, 0x00, 0x00, 0x00, 0x00,
   0x00, 0x00, 0x00, 0x00, 0x00, 0x3e, 0x03, 0x3e, 0x00, 0x00, 0x00, 0x00,
   0x00, 0x00, 0x00, 0x00, 0x00, 0x00, 0x00, 0x00, 0x00, 0x00, 0x00, 0x00,
   0x00, 0x00, 0x00, 0x00, 0x00, 0x00, 0x00, 0x00, 0x00, 0x00, 0x00, 0x00,
   0x00, 0x00, 0x00, 0x00 };
