#define u002500_u0025FF_width 256
#define u002500_u0025FF_height 128
static unsigned char u002500_u0025FF_bits[] = {
   0x00, 0x00, 0x18, 0x1c, 0x00, 0x00, 0x00, 0x00, 0x00, 0x00, 0x18, 0x1c,
   0x00, 0x00, 0x00, 0x00, 0x00, 0x00, 0x00, 0x00, 0x18, 0x18, 0x1c, 0x1c,
   0x18, 0x18, 0x1c, 0x1c, 0x18, 0x18, 0x1c, 0x18, 0x00, 0x00, 0x18, 0x1c,
   0x00, 0x00, 0x00, 0x00, 0x00, 0x00, 0x18, 0x1c, 0x00, 0x00, 0x00, 0x00,
   0x00, 0x00, 0x00, 0x00, 0x18, 0x18, 0x1c, 0x1c, 0x18, 0x18, 0x1c, 0x1c,
   0x18, 0x18, 0x1c, 0x18, 0x00, 0x00, 0x18, 0x1c, 0x00, 0x00, 0x00, 0x00,
   0x00, 0x00, 0x18, 0x1c, 0x00, 0x00, 0x00, 0x00, 0x00, 0x00, 0x00, 0x00,
   0x18, 0x18, 0x1c, 0x1c, 0x18, 0x18, 0x1c, 0x1c, 0x18, 0x18, 0x1c, 0x18,
   0x00, 0x00, 0x18, 0x1c, 0x00, 0x00, 0x00, 0x00, 0x00, 0x00, 0x00, 0x00,
   0x00, 0x00, 0x00, 0x00, 0x00, 0x00, 0x00, 0x00, 0x18, 0x18, 0x1c, 0x1c,
   0x18, 0x18, 0x1c, 0x1c, 0x18, 0x18, 0x1c, 0x18, 0x00, 0x00, 0x18, 0x1c,
   0x00, 0x00, 0x00, 0x00, 0x00, 0x00, 0x18, 0x1c, 0x00, 0x00, 0x00, 0x00,
   0x00, 0x00, 0x00, 0x00, 0x18, 0x18, 0x1c, 0x1c, 0x18, 0x18, 0x1c, 0x1c,
   0x18, 0x18, 0x1c, 0x18, 0x00, 0x00, 0x18, 0x1c, 0x00, 0x00, 0x00, 0x00,
   0x00, 0x00, 0x18, 0x1c, 0x00, 0x00, 0x00, 0x00, 0x00, 0x00, 0x00, 0x00,
   0x18, 0x18, 0x1c, 0x1c, 0x18, 0x18, 0x1c, 0x1c, 0x18, 0x18, 0x1c, 0x18,
   0x00, 0xff, 0x18, 0x1c, 0x00, 0x00, 0x00, 0x00, 0x00, 0x55, 0x18, 0x1c,
   0x00, 0xf8, 0x00, 0xfc, 0x00, 0x1f, 0x00, 0x1f, 0x18, 0xf8, 0x1c, 0xfc,
   0x18, 0x1f, 0x1c, 0x1f, 0x18, 0xf8, 0x1c, 0x18, 0xff, 0xff, 0x18, 0x1c,
   0x00, 0x00, 0x00, 0x00, 0x55, 0x55, 0x00, 0x00, 0xf8, 0xf8, 0xfc, 0xfc,
   0x1f, 0x1f, 0x1f, 0x1f, 0xf8, 0xf8, 0xfc, 0xfc, 0x1f, 0x1f, 0x1f, 0x1f,
   0xf8, 0xf8, 0xfc, 0xfc, 0xff, 0xff, 0x18, 0x1c, 0x00, 0x00, 0x00, 0x00,
   0x55, 0x55, 0x18, 0x1c, 0xf8, 0xf8, 0xfc, 0xfc, 0x1f, 0x1f, 0x1f, 0x1f,
   0xf8, 0xf8, 0xfc, 0xfc, 0x1f, 0x1f, 0x1f, 0x1f, 0xf8, 0xf8, 0xfc, 0xfc,
   0x00, 0x00, 0x18, 0x1c, 0x00, 0x00, 0x00, 0x00, 0x00, 0x00, 0x18, 0x1c,
   0x18, 0x18, 0x1c, 0x1c, 0x18, 0x18, 0x1c, 0x1c, 0x00, 0x00, 0x00, 0x00,
   0x00, 0x00, 0x00, 0x00, 0x18, 0x18, 0x18, 0x1c, 0x00, 0x00, 0x18, 0x1c,
   0x00, 0x00, 0x00, 0x00, 0x00, 0x00, 0x18, 0x1c, 0x18, 0x18, 0x1c, 0x1c,
   0x18, 0x18, 0x1c, 0x1c, 0x00, 0x00, 0x00, 0x00, 0x00, 0x00, 0x00, 0x00,
   0x18, 0x18, 0x18, 0x1c, 0x00, 0x00, 0x18, 0x1c, 0x00, 0x00, 0x00, 0x00,
   0x00, 0x00, 0x00, 0x00, 0x18, 0x18, 0x1c, 0x1c, 0x18, 0x18, 0x1c, 0x1c,
   0x00, 0x00, 0x00, 0x00, 0x00, 0x00, 0x00, 0x00, 0x18, 0x18, 0x18, 0x1c,
   0x00, 0x00, 0x18, 0x1c, 0x00, 0x00, 0x00, 0x00, 0x00, 0x00, 0x18, 0x1c,
   0x18, 0x18, 0x1c, 0x1c, 0x18, 0x18, 0x1c, 0x1c, 0x00, 0x00, 0x00, 0x00,
   0x00, 0x00, 0x00, 0x00, 0x18, 0x18, 0x18, 0x1c, 0x00, 0x00, 0x18, 0x1c,
   0x00, 0x00, 0x00, 0x00, 0x00, 0x00, 0x18, 0x1c, 0x18, 0x18, 0x1c, 0x1c,
   0x18, 0x18, 0x1c, 0x1c, 0x00, 0x00, 0x00, 0x00, 0x00, 0x00, 0x00, 0x00,
   0x18, 0x18, 0x18, 0x1c, 0x00, 0x00, 0x18, 0x1c, 0x00, 0x00, 0x00, 0x00,
   0x00, 0x00, 0x18, 0x1c, 0x18, 0x18, 0x1c, 0x1c, 0x18, 0x18, 0x1c, 0x1c,
   0x00, 0x00, 0x00, 0x00, 0x00, 0x00, 0x00, 0x00, 0x18, 0x18, 0x18, 0x1c,
   0x00, 0x00, 0x18, 0x1c, 0x00, 0x00, 0x00, 0x00, 0x00, 0x00, 0x00, 0x00,
   0x18, 0x18, 0x1c, 0x1c, 0x18, 0x18, 0x1c, 0x1c, 0x00, 0x00, 0x00, 0x00,
   0x00, 0x00, 0x00, 0x00, 0x18, 0x18, 0x18, 0x1c, 0x1c, 0x1c, 0x18, 0x1c,
   0x18, 0x18, 0x1c, 0x18, 0x1c, 0x1c, 0x18, 0x1c, 0x00, 0x00, 0x00, 0x00,
   0x00, 0x00, 0x00, 0x00, 0x18, 0x18, 0x18, 0x18, 0x1c, 0x1c, 0x1c, 0x1c,
   0x18, 0x18, 0x18, 0x18, 0x1c, 0x1c, 0x18, 0x1c, 0x18, 0x18, 0x1c, 0x18,
   0x1c, 0x1c, 0x18, 0x1c, 0x00, 0x00, 0x00, 0x00, 0x00, 0x00, 0x00, 0x00,
   0x18, 0x18, 0x18, 0x18, 0x1c, 0x1c, 0x1c, 0x1c, 0x18, 0x18, 0x18, 0x18,
   0x1c, 0x1c, 0x18, 0x1c, 0x18, 0x18, 0x1c, 0x18, 0x1c, 0x1c, 0x18, 0x1c,
   0x00, 0x00, 0x00, 0x00, 0x00, 0x00, 0x00, 0x00, 0x18, 0x18, 0x18, 0x18,
   0x1c, 0x1c, 0x1c, 0x1c, 0x18, 0x18, 0x18, 0x18, 0x1c, 0x1c, 0x18, 0x1c,
   0x18, 0x18, 0x1c, 0x18, 0x1c, 0x1c, 0x18, 0x1c, 0x00, 0x00, 0x00, 0x00,
   0x00, 0x00, 0x00, 0x00, 0x18, 0x18, 0x18, 0x18, 0x1c, 0x1c, 0x1c, 0x1c,
   0x18, 0x18, 0x18, 0x18, 0x1c, 0x1c, 0x18, 0x1c, 0x18, 0x18, 0x1c, 0x18,
   0x1c, 0x1c, 0x18, 0x1c, 0x00, 0x00, 0x00, 0x00, 0x00, 0x00, 0x00, 0x00,
   0x18, 0x18, 0x18, 0x18, 0x1c, 0x1c, 0x1c, 0x1c, 0x18, 0x18, 0x18, 0x18,
   0x1c, 0x1c, 0x18, 0x1c, 0x18, 0x18, 0x1c, 0x18, 0x1c, 0x1c, 0x18, 0x1c,
   0x00, 0x00, 0x00, 0x00, 0x00, 0x00, 0x00, 0x00, 0x18, 0x18, 0x18, 0x18,
   0x1c, 0x1c, 0x1c, 0x1c, 0x18, 0x18, 0x18, 0x18, 0x1c, 0xfc, 0xfc, 0xfc,
   0x18, 0x1f, 0x1c, 0x18, 0x1c, 0x1f, 0x1f, 0x1f, 0x00, 0x1f, 0xf8, 0xff,
   0x00, 0x1f, 0xfc, 0xff, 0x18, 0x1f, 0xf8, 0xff, 0x1c, 0x1f, 0xfc, 0xff,
   0x18, 0x1f, 0xf8, 0xff, 0xfc, 0xfc, 0xfc, 0xfc, 0x1f, 0x1f, 0x1f, 0x1f,
   0x1f, 0x1f, 0x1f, 0x1f, 0xff, 0xff, 0xff, 0xff, 0xff, 0xff, 0xff, 0xff,
   0xff, 0xff, 0xff, 0xff, 0xff, 0xff, 0xff, 0xff, 0xff, 0xff, 0xff, 0xff,
   0xfc, 0xfc, 0xfc, 0xfc, 0x1f, 0x1f, 0x1f, 0x1f, 0x1f, 0x1f, 0x1f, 0x1f,
   0xff, 0xff, 0xff, 0xff, 0xff, 0xff, 0xff, 0xff, 0xff, 0xff, 0xff, 0xff,
   0xff, 0xff, 0xff, 0xff, 0xff, 0xff, 0xff, 0xff, 0x1c, 0x18, 0x1c, 0x1c,
   0x18, 0x18, 0x18, 0x1c, 0x1c, 0x18, 0x1c, 0x1c, 0x18, 0x18, 0x18, 0x18,
   0x1c, 0x1c, 0x1c, 0x1c, 0x00, 0x00, 0x00, 0x00, 0x00, 0x00, 0x00, 0x00,
   0x18, 0x18, 0x18, 0x18, 0x1c, 0x18, 0x1c, 0x1c, 0x18, 0x18, 0x18, 0x1c,
   0x1c, 0x18, 0x1c, 0x1c, 0x18, 0x18, 0x18, 0x18, 0x1c, 0x1c, 0x1c, 0x1c,
   0x00, 0x00, 0x00, 0x00, 0x00, 0x00, 0x00, 0x00, 0x18, 0x18, 0x18, 0x18,
   0x1c, 0x18, 0x1c, 0x1c, 0x18, 0x18, 0x18, 0x1c, 0x1c, 0x18, 0x1c, 0x1c,
   0x18, 0x18, 0x18, 0x18, 0x1c, 0x1c, 0x1c, 0x1c, 0x00, 0x00, 0x00, 0x00,
   0x00, 0x00, 0x00, 0x00, 0x18, 0x18, 0x18, 0x18, 0x1c, 0x18, 0x1c, 0x1c,
   0x18, 0x18, 0x18, 0x1c, 0x1c, 0x18, 0x1c, 0x1c, 0x18, 0x18, 0x18, 0x18,
   0x1c, 0x1c, 0x1c, 0x1c, 0x00, 0x00, 0x00, 0x00, 0x00, 0x00, 0x00, 0x00,
   0x18, 0x18, 0x18, 0x18, 0x1c, 0x18, 0x1c, 0x1c, 0x18, 0x18, 0x18, 0x1c,
   0x1c, 0x18, 0x1c, 0x1c, 0x18, 0x18, 0x18, 0x18, 0x1c, 0x1c, 0x1c, 0x1c,
   0x00, 0x00, 0x00, 0x00, 0x00, 0x00, 0x00, 0x00, 0x18, 0x18, 0x18, 0x18,
   0x1c, 0x18, 0x1c, 0x1c, 0x18, 0x18, 0x18, 0x1c, 0x1c, 0x18, 0x1c, 0x1c,
   0x18, 0x18, 0x18, 0x18, 0x1c, 0x1c, 0x1c, 0x1c, 0x00, 0x00, 0x00, 0x00,
   0x00, 0x00, 0x00, 0x00, 0x18, 0x18, 0x18, 0x18, 0x1c, 0x18, 0x1c, 0x1c,
   0x18, 0x18, 0x18, 0x1c, 0x1c, 0x18, 0x1c, 0x1c, 0x18, 0x18, 0x18, 0x18,
   0x1c, 0x1c, 0x1c, 0x1c, 0x00, 0x00, 0x00, 0x00, 0x00, 0x00, 0x00, 0x00,
   0x18, 0x18, 0x18, 0x18, 0x1c, 0x18, 0x1c, 0x1c, 0x1c, 0x18, 0x18, 0x1c,
   0x18, 0x1c, 0x1c, 0x1c, 0x00, 0x00, 0x00, 0x00, 0x00, 0x36, 0x00, 0x00,
   0x00, 0x00, 0x00, 0x00, 0x18, 0x36, 0x36, 0x18, 0x36, 0x36, 0x18, 0x36,
   0x1c, 0x18, 0x1c, 0x1c, 0x1c, 0x18, 0x18, 0x1c, 0x18, 0x1c, 0x1c, 0x1c,
   0x00, 0x00, 0x00, 0x00, 0x00, 0x36, 0x00, 0x00, 0x00, 0x00, 0x00, 0x00,
   0x18, 0x36, 0x36, 0x18, 0x36, 0x36, 0x18, 0x36, 0x1c, 0x18, 0x1c, 0x1c,
   0x1c, 0x18, 0x18, 0x1c, 0x18, 0x1c, 0x1c, 0x1c, 0x00, 0x00, 0x00, 0x00,
   0x00, 0x36, 0x00, 0x00, 0x00, 0x00, 0x00, 0x00, 0x18, 0x36, 0x36, 0x18,
   0x36, 0x36, 0x18, 0x36, 0x1c, 0x18, 0x1c, 0x1c, 0x1c, 0x18, 0x18, 0x1c,
   0x18, 0x1c, 0x1c, 0x1c, 0x00, 0x00, 0x00, 0x00, 0x00, 0x36, 0x00, 0x00,
   0x00, 0x00, 0x00, 0x00, 0x18, 0x36, 0x36, 0x18, 0x36, 0x36, 0x18, 0x36,
   0x1c, 0x18, 0x1c, 0x1c, 0x1c, 0x18, 0x18, 0x1c, 0x18, 0x1c, 0x1c, 0x1c,
   0x00, 0x00, 0x00, 0x00, 0x00, 0x36, 0x00, 0x00, 0x00, 0x00, 0x00, 0x00,
   0x18, 0x36, 0x36, 0x18, 0x36, 0x36, 0x18, 0x36, 0x1c, 0x18, 0x1c, 0x1c,
   0x1c, 0x18, 0x18, 0x1c, 0x18, 0x1c, 0x1c, 0x1c, 0x00, 0x00, 0x00, 0x00,
   0xff, 0x36, 0xf8, 0x00, 0xfe, 0x1f, 0x00, 0x3f, 0xf8, 0x36, 0xf6, 0x1f,
   0x36, 0x37, 0xf8, 0x36, 0x1c, 0x18, 0x1c, 0x1f, 0xfc, 0x1f, 0xf8, 0xff,
   0xff, 0x1f, 0xfc, 0xff, 0x00, 0x00, 0x00, 0x00, 0xff, 0x36, 0xf8, 0x00,
   0xfe, 0x1f, 0x00, 0x3f, 0xf8, 0x36, 0xf6, 0x1f, 0x36, 0x37, 0xf8, 0x36,
   0xff, 0xff, 0xff, 0xff, 0xff, 0xff, 0xff, 0xff, 0xff, 0xff, 0xff, 0xff,
   0x00, 0x00, 0x00, 0x00, 0x00, 0x36, 0x18, 0xfe, 0x06, 0x18, 0x3f, 0x30,
   0x18, 0xfe, 0x06, 0x18, 0x3f, 0x30, 0x18, 0xf6, 0xff, 0xff, 0xff, 0xff,
   0xff, 0xff, 0xff, 0xff, 0xff, 0xff, 0xff, 0xff, 0x00, 0x00, 0x00, 0x00,
   0xff, 0x36, 0xf8, 0xfe, 0xf6, 0x1f, 0x3f, 0x37, 0xf8, 0xfe, 0xfe, 0x1f,
   0x3f, 0x3f, 0xf8, 0xf6, 0x18, 0x1c, 0x1c, 0x18, 0x18, 0x1c, 0x1c, 0x18,
   0x1c, 0x1c, 0x1c, 0x1c, 0x00, 0x00, 0x00, 0x00, 0xff, 0x36, 0xf8, 0x36,
   0xf6, 0x1f, 0x36, 0x37, 0xf8, 0x00, 0xfe, 0x1f, 0x00, 0x3f, 0xf8, 0x36,
   0x18, 0x1c, 0x1c, 0x18, 0x18, 0x1c, 0x1c, 0x18, 0x1c, 0x1c, 0x1c, 0x1c,
   0x00, 0x00, 0x00, 0x00, 0x00, 0x36, 0x18, 0x36, 0x36, 0x18, 0x36, 0x36,
   0x00, 0x00, 0x00, 0x00, 0x00, 0x00, 0x18, 0x36, 0x18, 0x1c, 0x1c, 0x18,
   0x18, 0x1c, 0x1c, 0x18, 0x1c, 0x1c, 0x1c, 0x1c, 0x00, 0x00, 0x00, 0x00,
   0x00, 0x36, 0x18, 0x36, 0x36, 0x18, 0x36, 0x36, 0x00, 0x00, 0x00, 0x00,
   0x00, 0x00, 0x18, 0x36, 0x18, 0x1c, 0x1c, 0x18, 0x18, 0x1c, 0x1c, 0x18,
   0x1c, 0x1c, 0x1c, 0x1c, 0x00, 0x00, 0x00, 0x00, 0x00, 0x36, 0x18, 0x36,
   0x36, 0x18, 0x36, 0x36, 0x00, 0x00, 0x00, 0x00, 0x00, 0x00, 0x18, 0x36,
   0x18, 0x1c, 0x1c, 0x18, 0x18, 0x1c, 0x1c, 0x18, 0x1c, 0x1c, 0x1c, 0x1c,
   0x00, 0x00, 0x00, 0x00, 0x00, 0x36, 0x18, 0x36, 0x36, 0x18, 0x36, 0x36,
   0x00, 0x00, 0x00, 0x00, 0x00, 0x00, 0x18, 0x36, 0x18, 0x1c, 0x1c, 0x18,
   0x18, 0x1c, 0x1c, 0x18, 0x1c, 0x1c, 0x1c, 0x1c, 0x00, 0x00, 0x00, 0x00,
   0x00, 0x36, 0x18, 0x36, 0x36, 0x18, 0x36, 0x36, 0x00, 0x00, 0x00, 0x00,
   0x00, 0x00, 0x18, 0x36, 0x18, 0x1c, 0x1c, 0x18, 0x18, 0x1c, 0x1c, 0x18,
   0x1c, 0x1c, 0x1c, 0x1c, 0x00, 0x00, 0x00, 0x00, 0x00, 0x36, 0x18, 0x36,
   0x36, 0x18, 0x36, 0x36, 0x00, 0x00, 0x00, 0x00, 0x00, 0x00, 0x18, 0x36,
   0x36, 0x18, 0x36, 0x36, 0x00, 0x00, 0x00, 0x18, 0x36, 0x36, 0x18, 0x36,
   0x36, 0x00, 0x00, 0x18, 0x18, 0x80, 0x01, 0x81, 0x00, 0x18, 0x00, 0x00,
   0x00, 0x1c, 0x00, 0x00, 0x00, 0x18, 0x00, 0x1c, 0x36, 0x18, 0x36, 0x36,
   0x00, 0x00, 0x00, 0x18, 0x36, 0x36, 0x18, 0x36, 0x36, 0x00, 0x00, 0x18,
   0x18, 0x80, 0x03, 0x83, 0x00, 0x18, 0x00, 0x00, 0x00, 0x1c, 0x00, 0x00,
   0x00, 0x18, 0x00, 0x1c, 0x36, 0x18, 0x36, 0x36, 0x00, 0x00, 0x00, 0x18,
   0x36, 0x36, 0x18, 0x36, 0x36, 0x00, 0x00, 0x18, 0x18, 0xc0, 0x02, 0xc2,
   0x00, 0x18, 0x00, 0x00, 0x00, 0x1c, 0x00, 0x00, 0x00, 0x18, 0x00, 0x1c,
   0x36, 0x18, 0x36, 0x36, 0x00, 0x00, 0x00, 0x18, 0x36, 0x36, 0x18, 0x36,
   0x36, 0x00, 0x00, 0x18, 0x18, 0x40, 0x06, 0x46, 0x00, 0x18, 0x00, 0x00,
   0x00, 0x1c, 0x00, 0x00, 0x00, 0x18, 0x00, 0x1c, 0x36, 0x18, 0x36, 0x36,
   0x00, 0x00, 0x00, 0x18, 0x36, 0x36, 0x18, 0x36, 0x36, 0x00, 0x00, 0x18,
   0x18, 0x60, 0x04, 0x64, 0x00, 0x18, 0x00, 0x00, 0x00, 0x1c, 0x00, 0x00,
   0x00, 0x18, 0x00, 0x1c, 0xf6, 0x1f, 0x36, 0x37, 0xff, 0x00, 0xff, 0xff,
   0x36, 0xf7, 0xff, 0x36, 0xf7, 0x00, 0x00, 0x18, 0x18, 0x20, 0x0c, 0x2c,
   0x00, 0x18, 0x00, 0x00, 0x00, 0x1c, 0x00, 0x00, 0x00, 0x18, 0x00, 0x1c,
   0xf6, 0x1f, 0x36, 0x37, 0xff, 0x00, 0xff, 0xff, 0x36, 0xf7, 0xff, 0x36,
   0xf7, 0x00, 0x00, 0x1c, 0x38, 0x30, 0x08, 0x38, 0x00, 0x18, 0x00, 0x00,
   0x1f, 0x1c, 0xf8, 0x00, 0xf8, 0x18, 0x1f, 0x1c, 0x06, 0x18, 0x37, 0x30,
   0x00, 0xff, 0x00, 0x00, 0xff, 0x00, 0x18, 0xff, 0x00, 0xe0, 0x07, 0x0f,
   0xf0, 0x10, 0x18, 0x18, 0x1f, 0x18, 0xf8, 0x18, 0x1f, 0x1c, 0xf8, 0x1c,
   0xff, 0x1c, 0xff, 0x1c, 0xf6, 0x1f, 0x37, 0x37, 0xff, 0xff, 0xf7, 0xff,
   0xff, 0xff, 0xff, 0xff, 0xf7, 0xf0, 0x0f, 0x07, 0xe0, 0x18, 0x10, 0x18,
   0x1f, 0x18, 0xf8, 0x18, 0x1f, 0x1c, 0xf8, 0x1c, 0xff, 0x1c, 0xff, 0x1c,
   0xf6, 0x1f, 0x36, 0x37, 0xff, 0x36, 0xf7, 0xff, 0x00, 0xff, 0xff, 0x36,
   0xf7, 0x38, 0x1c, 0x00, 0x00, 0x08, 0x30, 0x38, 0x00, 0x00, 0x00, 0x18,
   0x00, 0x00, 0x00, 0x1c, 0x00, 0x1c, 0x00, 0x18, 0x36, 0x18, 0x36, 0x36,
   0x18, 0x36, 0x36, 0x00, 0x00, 0x00, 0x18, 0x36, 0x36, 0x18, 0x18, 0x00,
   0x00, 0x0c, 0x20, 0x2c, 0x00, 0x00, 0x00, 0x18, 0x00, 0x00, 0x00, 0x1c,
   0x00, 0x1c, 0x00, 0x18, 0x36, 0x18, 0x36, 0x36, 0x18, 0x36, 0x36, 0x00,
   0x00, 0x00, 0x18, 0x36, 0x36, 0x18, 0x18, 0x00, 0x00, 0x04, 0x60, 0x64,
   0x00, 0x00, 0x00, 0x18, 0x00, 0x00, 0x00, 0x1c, 0x00, 0x1c, 0x00, 0x18,
   0x36, 0x18, 0x36, 0x36, 0x18, 0x36, 0x36, 0x00, 0x00, 0x00, 0x18, 0x36,
   0x36, 0x18, 0x18, 0x00, 0x00, 0x06, 0x40, 0x46, 0x00, 0x00, 0x00, 0x18,
   0x00, 0x00, 0x00, 0x1c, 0x00, 0x1c, 0x00, 0x18, 0x36, 0x18, 0x36, 0x36,
   0x18, 0x36, 0x36, 0x00, 0x00, 0x00, 0x18, 0x36, 0x36, 0x18, 0x18, 0x00,
   0x00, 0x02, 0xc0, 0xc2, 0x00, 0x00, 0x00, 0x18, 0x00, 0x00, 0x00, 0x1c,
   0x00, 0x1c, 0x00, 0x18, 0x36, 0x18, 0x36, 0x36, 0x18, 0x36, 0x36, 0x00,
   0x00, 0x00, 0x18, 0x36, 0x36, 0x18, 0x18, 0x00, 0x00, 0x03, 0x80, 0x83,
   0x00, 0x00, 0x00, 0x18, 0x00, 0x00, 0x00, 0x1c, 0x00, 0x1c, 0x00, 0x18,
   0x36, 0x18, 0x36, 0x36, 0x18, 0x36, 0x36, 0x00, 0x00, 0x00, 0x18, 0x36,
   0x36, 0x18, 0x18, 0x00, 0x00, 0x01, 0x80, 0x81, 0x00, 0x00, 0x00, 0x18,
   0x00, 0x00, 0x00, 0x1c, 0x00, 0x1c, 0x00, 0x18, 0xff, 0x00, 0x00, 0x00,
   0x00, 0x00, 0x00, 0x00, 0xff, 0x7f, 0x3f, 0x1f, 0x0f, 0x07, 0x03, 0x01,
   0xf0, 0x11, 0x55, 0x77, 0x00, 0x00, 0x00, 0x00, 0x0f, 0x0f, 0x0f, 0xff,
   0xff, 0xf0, 0xf0, 0xf0, 0xff, 0x00, 0x00, 0x00, 0x00, 0x00, 0x00, 0x00,
   0xff, 0x7f, 0x3f, 0x1f, 0x0f, 0x07, 0x03, 0x01, 0xf0, 0x44, 0xaa, 0xdd,
   0x00, 0x00, 0x00, 0x00, 0x0f, 0x0f, 0x0f, 0xff, 0xff, 0xf0, 0xf0, 0xf0,
   0xff, 0x00, 0x00, 0x00, 0x00, 0x00, 0x00, 0xff, 0xff, 0x7f, 0x3f, 0x1f,
   0x0f, 0x07, 0x03, 0x01, 0xf0, 0x11, 0x55, 0x77, 0x00, 0x00, 0x00, 0x00,
   0x0f, 0x0f, 0x0f, 0xff, 0xff, 0xf0, 0xf0, 0xf0, 0xff, 0x00, 0x00, 0x00,
   0x00, 0x00, 0x00, 0xff, 0xff, 0x7f, 0x3f, 0x1f, 0x0f, 0x07, 0x03, 0x01,
   0xf0, 0x44, 0xaa, 0xdd, 0x00, 0x00, 0x00, 0x00, 0x0f, 0x0f, 0x0f, 0xff,
   0xff, 0xf0, 0xf0, 0xf0, 0xff, 0x00, 0x00, 0x00, 0x00, 0x00, 0xff, 0xff,
   0xff, 0x7f, 0x3f, 0x1f, 0x0f, 0x07, 0x03, 0x01, 0xf0, 0x11, 0x55, 0x77,
   0x00, 0x00, 0x00, 0x00, 0x0f, 0x0f, 0x0f, 0xff, 0xff, 0xf0, 0xf0, 0xf0,
   0xff, 0x00, 0x00, 0x00, 0x00, 0x00, 0xff, 0xff, 0xff, 0x7f, 0x3f, 0x1f,
   0x0f, 0x07, 0x03, 0x01, 0xf0, 0x44, 0xaa, 0xdd, 0x00, 0x00, 0x00, 0x00,
   0x0f, 0x0f, 0x0f, 0xff, 0xff, 0xf0, 0xf0, 0xf0, 0xff, 0x00, 0x00, 0x00,
   0x00, 0xff, 0xff, 0xff, 0xff, 0x7f, 0x3f, 0x1f, 0x0f, 0x07, 0x03, 0x01,
   0xf0, 0x11, 0x55, 0x77, 0x00, 0x00, 0x00, 0x00, 0x0f, 0x0f, 0x0f, 0xff,
   0xff, 0xf0, 0xf0, 0xf0, 0xff, 0x00, 0x00, 0x00, 0x00, 0xff, 0xff, 0xff,
   0xff, 0x7f, 0x3f, 0x1f, 0x0f, 0x07, 0x03, 0x01, 0xf0, 0x44, 0xaa, 0xdd,
   0x00, 0x00, 0x00, 0x00, 0x0f, 0x0f, 0x0f, 0xff, 0xff, 0xf0, 0xf0, 0xf0,
   0x00, 0x00, 0x00, 0x00, 0xff, 0xff, 0xff, 0xff, 0xff, 0x7f, 0x3f, 0x1f,
   0x0f, 0x07, 0x03, 0x01, 0xf0, 0x11, 0x55, 0x77, 0x00, 0x00, 0x0f, 0xf0,
   0x00, 0xff, 0xf0, 0x0f, 0xf0, 0x00, 0x0f, 0xff, 0x00, 0x00, 0x00, 0x00,
   0xff, 0xff, 0xff, 0xff, 0xff, 0x7f, 0x3f, 0x1f, 0x0f, 0x07, 0x03, 0x01,
   0xf0, 0x44, 0xaa, 0xdd, 0x00, 0x00, 0x0f, 0xf0, 0x00, 0xff, 0xf0, 0x0f,
   0xf0, 0x00, 0x0f, 0xff, 0x00, 0x00, 0x00, 0xff, 0xff, 0xff, 0xff, 0xff,
   0xff, 0x7f, 0x3f, 0x1f, 0x0f, 0x07, 0x03, 0x01, 0xf0, 0x11, 0x55, 0x77,
   0x00, 0x00, 0x0f, 0xf0, 0x00, 0xff, 0xf0, 0x0f, 0xf0, 0x00, 0x0f, 0xff,
   0x00, 0x00, 0x00, 0xff, 0xff, 0xff, 0xff, 0xff, 0xff, 0x7f, 0x3f, 0x1f,
   0x0f, 0x07, 0x03, 0x01, 0xf0, 0x44, 0xaa, 0xdd, 0x00, 0x00, 0x0f, 0xf0,
   0x00, 0xff, 0xf0, 0x0f, 0xf0, 0x00, 0x0f, 0xff, 0x00, 0x00, 0xff, 0xff,
   0xff, 0xff, 0xff, 0xff, 0xff, 0x7f, 0x3f, 0x1f, 0x0f, 0x07, 0x03, 0x01,
   0xf0, 0x11, 0x55, 0x77, 0x00, 0x00, 0x0f, 0xf0, 0x00, 0xff, 0xf0, 0x0f,
   0xf0, 0x00, 0x0f, 0xff, 0x00, 0x00, 0xff, 0xff, 0xff, 0xff, 0xff, 0xff,
   0xff, 0x7f, 0x3f, 0x1f, 0x0f, 0x07, 0x03, 0x01, 0xf0, 0x44, 0xaa, 0xdd,
   0x00, 0x00, 0x0f, 0xf0, 0x00, 0xff, 0xf0, 0x0f, 0xf0, 0x00, 0x0f, 0xff,
   0x00, 0xff, 0xff, 0xff, 0xff, 0xff, 0xff, 0xff, 0xff, 0x7f, 0x3f, 0x1f,
   0x0f, 0x07, 0x03, 0x01, 0xf0, 0x11, 0x55, 0x77, 0x00, 0x00, 0x0f, 0xf0,
   0x00, 0xff, 0xf0, 0x0f, 0xf0, 0x00, 0x0f, 0xff, 0x00, 0xff, 0xff, 0xff,
   0xff, 0xff, 0xff, 0xff, 0xff, 0x7f, 0x3f, 0x1f, 0x0f, 0x07, 0x03, 0x01,
   0xf0, 0x44, 0xaa, 0xdd, 0x00, 0x00, 0x0f, 0xf0, 0x00, 0xff, 0xf0, 0x0f,
   0xf0, 0x00, 0x0f, 0xff, 0x00, 0x00, 0x00, 0x00, 0x00, 0x00, 0x00, 0x00,
   0x00, 0x00, 0x00, 0x00, 0x00, 0x00, 0x00, 0x00, 0x00, 0x00, 0x00, 0x00,
   0x00, 0x00, 0x00, 0x00, 0x00, 0x00, 0x00, 0x00, 0x00, 0x00, 0x00, 0x00,
   0x00, 0x00, 0x00, 0x00, 0x00, 0x00, 0x00, 0x00, 0x00, 0x00, 0x00, 0x00,
   0x00, 0x00, 0x00, 0x00, 0x00, 0x00, 0x00, 0x00, 0x00, 0x00, 0x00, 0x00,
   0x00, 0x00, 0x00, 0x00, 0x00, 0x00, 0x00, 0x00, 0x00, 0x00, 0x00, 0x00,
   0x00, 0x00, 0x00, 0x00, 0x00, 0x00, 0x00, 0x00, 0x00, 0x00, 0x7f, 0x7f,
   0x00, 0x00, 0x00, 0x00, 0x00, 0x00, 0x00, 0x00, 0x00, 0x00, 0x00, 0x00,
   0x00, 0x00, 0x00, 0x00, 0x00, 0x00, 0x00, 0x00, 0x00, 0x00, 0x00, 0x00,
   0x00, 0x00, 0x00, 0x00, 0x00, 0x00, 0x7f, 0x63, 0x00, 0x00, 0x00, 0x00,
   0x00, 0x00, 0x00, 0x00, 0x00, 0x00, 0x00, 0x00, 0x00, 0x00, 0x00, 0x00,
   0x00, 0x00, 0x00, 0x00, 0x00, 0x00, 0x00, 0x00, 0x00, 0x00, 0x00, 0x00,
   0x00, 0x00, 0x7f, 0x63, 0x00, 0x00, 0x18, 0x00, 0x00, 0x00, 0x03, 0x00,
   0x00, 0x00, 0x00, 0x00, 0xff, 0x00, 0x00, 0x00, 0x3e, 0x00, 0x00, 0x00,
   0x00, 0x00, 0x00, 0x00, 0x00, 0x00, 0x00, 0x00, 0x00, 0x00, 0x7f, 0x63,
   0x00, 0x00, 0x18, 0x00, 0x00, 0x00, 0x0f, 0x00, 0x00, 0x00, 0x00, 0x00,
   0xff, 0x00, 0x00, 0x00, 0x3e, 0x00, 0x00, 0x00, 0x00, 0x00, 0x00, 0x00,
   0x00, 0x00, 0x00, 0x00, 0x00, 0x00, 0x7f, 0x63, 0x00, 0x00, 0x3c, 0x00,
   0x00, 0x00, 0x3f, 0x00, 0x00, 0x00, 0x00, 0x00, 0x7e, 0x00, 0x00, 0x00,
   0x3e, 0x00, 0x00, 0x00, 0x00, 0x00, 0x00, 0x00, 0x00, 0x00, 0x00, 0x00,
   0x00, 0x00, 0x7f, 0x63, 0x00, 0x00, 0x3c, 0x00, 0x00, 0x00, 0xff, 0x00,
   0x00, 0x00, 0x00, 0x00, 0x7e, 0x00, 0x00, 0x00, 0x3e, 0x00, 0x00, 0x00,
   0x00, 0x00, 0x00, 0x00, 0x00, 0x00, 0x00, 0x00, 0x7f, 0x00, 0x7f, 0x63,
   0x00, 0x00, 0x7e, 0x00, 0x00, 0x00, 0xff, 0x00, 0x00, 0x00, 0x00, 0x00,
   0x3c, 0x00, 0x00, 0x00, 0x3e, 0x00, 0x00, 0x00, 0x00, 0x00, 0x00, 0x00,
   0x00, 0x00, 0x00, 0x00, 0x7f, 0x00, 0x7f, 0x63, 0x00, 0x00, 0x7e, 0x00,
   0x00, 0x00, 0x3f, 0x00, 0x00, 0x00, 0x00, 0x00, 0x3c, 0x00, 0x00, 0x00,
   0x3e, 0x00, 0x00, 0x00, 0x00, 0x00, 0x00, 0x00, 0x00, 0x00, 0x00, 0x00,
   0x7f, 0x00, 0x7f, 0x63, 0x00, 0x00, 0xff, 0x00, 0x00, 0x00, 0x0f, 0x00,
   0x00, 0x00, 0x00, 0x00, 0x18, 0x00, 0x00, 0x00, 0x00, 0x00, 0x00, 0x00,
   0x00, 0x00, 0x00, 0x00, 0x00, 0x00, 0x00, 0x00, 0x7f, 0x00, 0x7f, 0x7f,
   0x00, 0x00, 0xff, 0x00, 0x00, 0x00, 0x03, 0x00, 0x00, 0x00, 0x00, 0x00,
   0x18, 0x00, 0x00, 0x00, 0x00, 0x00, 0x00, 0x00, 0x00, 0x00, 0x00, 0x00,
   0x00, 0x00, 0x00, 0x00, 0x00, 0x00, 0x00, 0x00, 0x00, 0x00, 0x00, 0x00,
   0x00, 0x00, 0x00, 0x00, 0x00, 0x00, 0x00, 0x00, 0x00, 0x00, 0x00, 0x00,
   0x00, 0x00, 0x00, 0x00, 0x00, 0x00, 0x00, 0x00, 0x00, 0x00, 0x00, 0x00,
   0x00, 0x00, 0x00, 0x00, 0x00, 0x00, 0x00, 0x00, 0x00, 0x00, 0x00, 0x00,
   0x00, 0x00, 0x00, 0x00, 0x00, 0x00, 0x00, 0x00, 0x00, 0x00, 0x00, 0x00,
   0x00, 0x00, 0x00, 0x00, 0x00, 0x00, 0x00, 0x00, 0x00, 0x00, 0x00, 0x00,
   0x00, 0x00, 0x00, 0x00, 0x00, 0x00, 0x00, 0x00, 0x00, 0x00, 0x00, 0x00,
   0x00, 0x00, 0x00, 0x00, 0x00, 0x00, 0x00, 0x00, 0x00, 0x00, 0x00, 0x00,
   0x00, 0x00, 0x00, 0x00, 0x00, 0x00, 0x00, 0x00, 0x00, 0x00, 0x00, 0x00,
   0x00, 0x00, 0x00, 0x00, 0x00, 0x00, 0x00, 0x00, 0x00, 0x00, 0x00, 0x00,
   0x00, 0x00, 0x00, 0x00, 0x00, 0x00, 0x00, 0x00, 0x00, 0x00, 0x00, 0x00,
   0x00, 0x00, 0x00, 0x00, 0x00, 0x00, 0x00, 0x00, 0x00, 0x00, 0x00, 0x00,
   0xff, 0xff, 0x00, 0x00, 0x00, 0x00, 0x00, 0x00, 0x00, 0x00, 0x00, 0x00,
   0x00, 0x00, 0x00, 0x00, 0x00, 0x00, 0x00, 0x00, 0x00, 0x00, 0x00, 0x00,
   0x00, 0x00, 0x00, 0x00, 0x00, 0x00, 0x00, 0x00, 0xff, 0xff, 0x00, 0x00,
   0x00, 0x00, 0x00, 0x00, 0x00, 0x00, 0x00, 0x00, 0x00, 0x00, 0x00, 0x00,
   0x00, 0x00, 0x00, 0x00, 0x00, 0x00, 0x00, 0x00, 0x00, 0x00, 0x00, 0x00,
   0x00, 0x00, 0x00, 0x00, 0xff, 0xff, 0x00, 0x00, 0x00, 0x00, 0x00, 0x00,
   0x00, 0x00, 0x00, 0x00, 0x00, 0x00, 0x00, 0x00, 0x00, 0x00, 0x00, 0x00,
   0x00, 0x00, 0x00, 0x00, 0x00, 0x00, 0x00, 0x00, 0x00, 0x00, 0x00, 0x00,
   0xff, 0xff, 0x00, 0x00, 0x00, 0x00, 0x00, 0x00, 0xc0, 0x00, 0x00, 0x00,
   0x00, 0x00, 0x18, 0x00, 0x00, 0x00, 0x18, 0x00, 0x00, 0x00, 0x00, 0x00,
   0x00, 0x00, 0x00, 0x00, 0x00, 0x00, 0x00, 0x00, 0xff, 0xff, 0x00, 0x00,
   0x00, 0x00, 0x00, 0x00, 0xf0, 0x00, 0x00, 0x00, 0x00, 0x00, 0x3c, 0x00,
   0x00, 0x00, 0x3c, 0x3c, 0x00, 0x00, 0x00, 0x3c, 0x00, 0x00, 0x00, 0x00,
   0x00, 0x00, 0x00, 0x00, 0xff, 0xc3, 0x00, 0x00, 0x00, 0x00, 0x00, 0x00,
   0xfc, 0x00, 0x00, 0x00, 0x00, 0x00, 0x7e, 0x00, 0x00, 0x00, 0x66, 0x66,
   0x00, 0x00, 0x00, 0x7e, 0x00, 0x00, 0x00, 0x00, 0x00, 0x00, 0x00, 0x00,
   0xe7, 0x99, 0x00, 0x00, 0x00, 0x00, 0x00, 0x00, 0xff, 0x00, 0x00, 0x00,
   0x00, 0x00, 0xff, 0x00, 0x00, 0x00, 0xc3, 0x42, 0x00, 0x00, 0x00, 0x7e,
   0x00, 0x00, 0x00, 0x00, 0x00, 0x00, 0x00, 0x00, 0xc3, 0xbd, 0x00, 0x00,
   0x00, 0x00, 0x00, 0x00, 0xff, 0x00, 0x00, 0x00, 0x00, 0x00, 0x7e, 0x00,
   0x00, 0x00, 0x66, 0x42, 0x00, 0x00, 0x00, 0x7e, 0x00, 0x00, 0x00, 0x00,
   0x00, 0x00, 0x00, 0x00, 0xc3, 0xbd, 0x00, 0x00, 0x00, 0x00, 0x00, 0x00,
   0xfc, 0x00, 0x00, 0x00, 0x00, 0x00, 0x3c, 0x00, 0x00, 0x00, 0x3c, 0x66,
   0x00, 0x00, 0x00, 0x7e, 0x00, 0x00, 0x00, 0x00, 0x00, 0x00, 0x00, 0x00,
   0xe7, 0x99, 0x00, 0x00, 0x00, 0x00, 0x00, 0x00, 0xf0, 0x00, 0x00, 0x00,
   0x00, 0x00, 0x18, 0x00, 0x00, 0x00, 0x18, 0x3c, 0x00, 0x00, 0x00, 0x3c,
   0x00, 0x00, 0x00, 0x00, 0x00, 0x00, 0x00, 0x00, 0xff, 0xc3, 0x00, 0x00,
   0x00, 0x00, 0x00, 0x00, 0xc0, 0x00, 0x00, 0x00, 0x00, 0x00, 0x00, 0x00,
   0x00, 0x00, 0x00, 0x00, 0x00, 0x00, 0x00, 0x00, 0x00, 0x00, 0x00, 0x00,
   0x00, 0x00, 0x00, 0x00, 0xff, 0xff, 0x00, 0x00, 0x00, 0x00, 0x00, 0x00,
   0x00, 0x00, 0x00, 0x00, 0x00, 0x00, 0x00, 0x00, 0x00, 0x00, 0x00, 0x00,
   0x00, 0x00, 0x00, 0x00, 0x00, 0x00, 0x00, 0x00, 0x00, 0x00, 0x00, 0x00,
   0xff, 0xff, 0x00, 0x00, 0x00, 0x00, 0x00, 0x00, 0x00, 0x00, 0x00, 0x00,
   0x00, 0x00, 0x00, 0x00, 0x00, 0x00, 0x00, 0x00, 0x00, 0x00, 0x00, 0x00,
   0x00, 0x00, 0x00, 0x00, 0x00, 0x00, 0x00, 0x00, 0xff, 0xff, 0x00, 0x00,
   0x00, 0x00, 0x00, 0x00, 0x00, 0x00, 0x00, 0x00, 0x00, 0x00, 0x00, 0x00,
   0x00, 0x00, 0x00, 0x00, 0x00, 0x00, 0x00, 0x00, 0x00, 0x00, 0x00, 0x00,
   0x00, 0x00, 0x00, 0x00, 0xff, 0xff, 0x00, 0x00, 0x00, 0x00, 0x00, 0x00,
   0x00, 0x00, 0x00, 0x00, 0x00, 0x00, 0x00, 0x00, 0x00, 0x00, 0x00, 0x00,
   0x00, 0x00, 0x00, 0x00, 0x00, 0x00, 0x00, 0x00, 0x00, 0x00, 0x00, 0x00,
   0xff, 0xff, 0x00, 0x00, 0x00, 0x00, 0x00, 0x00, 0x00, 0x00, 0x00, 0x00,
   0x00, 0x00, 0x00, 0x00, 0x00, 0x00, 0x00, 0x00, 0x00, 0x00, 0x00, 0x00,
   0x00, 0x00, 0x00, 0x00, 0x00, 0x00, 0x00, 0x00, 0x00, 0x00, 0x00, 0x00,
   0x00, 0x00, 0x00, 0x00, 0x00, 0x00, 0x00, 0x00, 0x00, 0x00, 0x00, 0x00,
   0x00, 0x00, 0x00, 0x00, 0x00, 0x00, 0x00, 0x00, 0x00, 0x00, 0x00, 0x00,
   0x00, 0x00, 0x00, 0x00, 0x00, 0x00, 0x00, 0x00, 0x00, 0x00, 0x00, 0x00,
   0x00, 0x00, 0x00, 0x00, 0x00, 0x00, 0x00, 0x00, 0x00, 0x00, 0x00, 0x00,
   0x00, 0x00, 0x00, 0x00, 0x00, 0x00, 0x00, 0x00, 0x00, 0x00, 0x00, 0x00,
   0x00, 0x00, 0x00, 0x00, 0x00, 0x00, 0x00, 0x00, 0x00, 0x00, 0x00, 0x00,
   0x00, 0x00, 0x00, 0x00, 0x00, 0x00, 0x00, 0x00, 0x00, 0x00, 0x00, 0x00,
   0x00, 0x00, 0x00, 0x00, 0x00, 0x00, 0x00, 0x00, 0x00, 0x00, 0x00, 0x00,
   0x00, 0x00, 0x00, 0x00, 0x00, 0x00, 0x00, 0x00, 0x00, 0x00, 0x00, 0x00,
   0x00, 0x00, 0x00, 0x00, 0x00, 0x00, 0x00, 0x00, 0x00, 0x00, 0x00, 0x00,
   0x00, 0x00, 0x00, 0x00, 0x00, 0x00, 0x00, 0x00, 0x00, 0x00, 0x00, 0x00,
   0x00, 0x00, 0x00, 0x00, 0x00, 0x00, 0x00, 0x00, 0x00, 0x00, 0x00, 0x00,
   0x00, 0x00, 0x00, 0x00, 0x00, 0x00, 0x00, 0x00, 0x00, 0x00, 0x00, 0x00,
   0x00, 0x00, 0x00, 0x00, 0x00, 0x00, 0x00, 0x00, 0x00, 0x00, 0x00, 0x00,
   0x00, 0x00, 0x00, 0x00, 0x00, 0x00, 0x00, 0x00, 0x00, 0x00, 0x00, 0x00,
   0x00, 0x00, 0x00, 0x00, 0x00, 0x00, 0x00, 0x00, 0x00, 0x00, 0x00, 0x00,
   0x00, 0x00, 0x00, 0x00, 0x00, 0x00, 0x00, 0x00, 0x00, 0x00, 0x00, 0x00,
   0x00, 0x00, 0x00, 0x00, 0x00, 0x00, 0x00, 0x00, 0x00, 0x00, 0x00, 0x00,
   0x00, 0x00, 0x00, 0x00, 0x00, 0x00, 0x00, 0x00, 0x00, 0x00, 0x00, 0x00,
   0x00, 0x00, 0x00, 0x00, 0x00, 0x00, 0x00, 0x00, 0x00, 0x00, 0x00, 0x00,
   0x00, 0x00, 0x00, 0x00, 0x00, 0x00, 0x00, 0x00, 0x00, 0x00, 0x00, 0x00,
   0x00, 0x00, 0x00, 0x00, 0x00, 0x00, 0x00, 0x00, 0x00, 0x00, 0x00, 0x00,
   0x00, 0x00, 0x00, 0x00, 0x00, 0x00, 0x00, 0x00, 0x00, 0x00, 0x00, 0x00,
   0x00, 0x00, 0x00, 0x00, 0x00, 0x00, 0x00, 0x00, 0x00, 0x00, 0x00, 0x00,
   0x00, 0x00, 0x00, 0x00, 0x00, 0x00, 0x00, 0x00, 0x00, 0x00, 0x00, 0x00,
   0x00, 0x00, 0x00, 0x00, 0x00, 0x00, 0x00, 0x00, 0x00, 0x00, 0x00, 0x00,
   0x00, 0x00, 0x00, 0x00, 0x00, 0x00, 0x00, 0x00, 0x00, 0x00, 0x00, 0x00,
   0x00, 0x00, 0x00, 0x00, 0x00, 0x00, 0x00, 0x00, 0x00, 0x00, 0x00, 0x00,
   0x00, 0x00, 0x00, 0x00, 0x00, 0x00, 0x00, 0x00, 0x00, 0x00, 0x00, 0x00,
   0x00, 0x00, 0x00, 0x00, 0x00, 0x00, 0x00, 0x00, 0x00, 0x00, 0x00, 0x00,
   0x00, 0x00, 0x00, 0x00, 0x00, 0x00, 0x00, 0x00, 0x00, 0x00, 0x00, 0x00,
   0x00, 0x00, 0x00, 0x00, 0x00, 0x00, 0x00, 0x00, 0x00, 0x00, 0x00, 0x00,
   0x00, 0x00, 0x00, 0x00, 0x00, 0x00, 0x00, 0x00, 0x00, 0x00, 0x00, 0x00,
   0x00, 0x00, 0x00, 0x00, 0x00, 0x00, 0x00, 0x00, 0x00, 0x00, 0x00, 0x00,
   0x00, 0x00, 0x00, 0x00, 0x00, 0x00, 0x00, 0x00, 0x00, 0x00, 0x00, 0x00,
   0x00, 0x00, 0x00, 0x00, 0x00, 0x00, 0x00, 0x00, 0x00, 0x00, 0x00, 0x00,
   0x00, 0x00, 0x00, 0x00, 0x00, 0x00, 0x00, 0x00, 0x00, 0x00, 0x00, 0x00,
   0x00, 0x00, 0x00, 0x00, 0x00, 0x00, 0x00, 0x00, 0x00, 0x00, 0x00, 0x00,
   0x00, 0x00, 0x00, 0x00, 0x00, 0x00, 0x00, 0x00, 0x00, 0x00, 0x00, 0x00,
   0x00, 0x00, 0x00, 0x00, 0x00, 0x00, 0x00, 0x00, 0x00, 0x00, 0x00, 0x00,
   0x00, 0x00, 0x00, 0x00 };
