#define u000400_u0004FF_width 256
#define u000400_u0004FF_height 128
static unsigned char u000400_u0004FF_bits[] = {
   0x00, 0x00, 0x00, 0x00, 0x00, 0x00, 0x00, 0x00, 0x00, 0x00, 0x00, 0x00,
   0x10, 0x00, 0x00, 0x00, 0x00, 0x00, 0x00, 0x00, 0x00, 0x00, 0x00, 0x00,
   0x00, 0x00, 0x00, 0x00, 0x00, 0x00, 0x00, 0x00, 0x08, 0x24, 0x00, 0x10,
   0x00, 0x00, 0x00, 0x22, 0x00, 0x00, 0x00, 0x00, 0x08, 0x08, 0x42, 0x00,
   0x00, 0x00, 0x00, 0x00, 0x00, 0x00, 0x00, 0x00, 0x00, 0x42, 0x00, 0x00,
   0x00, 0x00, 0x00, 0x00, 0x10, 0x24, 0x3f, 0x08, 0x78, 0x3c, 0x1c, 0x22,
   0x70, 0x0e, 0x09, 0x3f, 0x00, 0x10, 0x3c, 0x22, 0x18, 0x3e, 0x3e, 0x7e,
   0x3c, 0x7e, 0x49, 0x3c, 0x42, 0x3c, 0x42, 0x78, 0x41, 0x42, 0x3c, 0x7e,
   0x00, 0x00, 0x04, 0x00, 0x44, 0x42, 0x08, 0x00, 0x20, 0x09, 0x09, 0x04,
   0x22, 0x42, 0x00, 0x22, 0x24, 0x02, 0x42, 0x42, 0x24, 0x02, 0x49, 0x42,
   0x62, 0x42, 0x22, 0x44, 0x41, 0x42, 0x42, 0x42, 0x7e, 0x7e, 0x04, 0x7e,
   0x02, 0x02, 0x08, 0x3e, 0x20, 0x09, 0x09, 0x04, 0x12, 0x62, 0x42, 0x22,
   0x42, 0x02, 0x42, 0x02, 0x24, 0x02, 0x2a, 0x40, 0x62, 0x62, 0x12, 0x44,
   0x63, 0x42, 0x42, 0x42, 0x02, 0x02, 0x3c, 0x42, 0x02, 0x02, 0x08, 0x08,
   0x20, 0x09, 0x09, 0x34, 0x0a, 0x62, 0x42, 0x22, 0x42, 0x02, 0x42, 0x02,
   0x24, 0x02, 0x1c, 0x40, 0x52, 0x62, 0x0a, 0x44, 0x55, 0x42, 0x42, 0x42,
   0x02, 0x02, 0x44, 0x02, 0x3e, 0x3c, 0x08, 0x08, 0x20, 0x39, 0x3f, 0x4c,
   0x06, 0x52, 0x42, 0x22, 0x42, 0x3e, 0x3e, 0x02, 0x22, 0x3e, 0x2a, 0x30,
   0x52, 0x52, 0x06, 0x44, 0x49, 0x7e, 0x42, 0x42, 0x3e, 0x3e, 0x44, 0x02,
   0x02, 0x40, 0x08, 0x08, 0x20, 0x49, 0x49, 0x44, 0x0a, 0x4a, 0x7c, 0x22,
   0x7e, 0x42, 0x42, 0x02, 0x22, 0x02, 0x49, 0x40, 0x4a, 0x4a, 0x0a, 0x44,
   0x49, 0x42, 0x42, 0x42, 0x02, 0x02, 0x44, 0x02, 0x02, 0x40, 0x08, 0x08,
   0x20, 0x49, 0x49, 0x44, 0x12, 0x46, 0x40, 0x22, 0x42, 0x42, 0x42, 0x02,
   0x22, 0x02, 0x49, 0x40, 0x4a, 0x46, 0x12, 0x44, 0x41, 0x42, 0x42, 0x42,
   0x02, 0x02, 0x44, 0x02, 0x44, 0x42, 0x08, 0x08, 0x22, 0x49, 0x49, 0x44,
   0x22, 0x46, 0x40, 0x22, 0x42, 0x42, 0x42, 0x02, 0x22, 0x02, 0x49, 0x42,
   0x46, 0x46, 0x22, 0x42, 0x41, 0x42, 0x42, 0x42, 0x7e, 0x7e, 0x44, 0x02,
   0x38, 0x3c, 0x1c, 0x3e, 0x1c, 0x39, 0x39, 0x44, 0x22, 0x42, 0x3c, 0x3e,
   0x42, 0x3e, 0x3e, 0x02, 0x7f, 0x7e, 0x49, 0x3c, 0x42, 0x42, 0x42, 0x42,
   0x41, 0x42, 0x3c, 0x42, 0x00, 0x00, 0x40, 0x00, 0x00, 0x00, 0x00, 0x00,
   0x00, 0x00, 0x00, 0x00, 0x00, 0x00, 0x00, 0x08, 0x00, 0x00, 0x00, 0x00,
   0x41, 0x00, 0x00, 0x00, 0x00, 0x00, 0x00, 0x00, 0x00, 0x00, 0x00, 0x00,
   0x00, 0x00, 0x30, 0x00, 0x00, 0x00, 0x00, 0x00, 0x00, 0x00, 0x00, 0x00,
   0x00, 0x00, 0x00, 0x08, 0x00, 0x00, 0x00, 0x00, 0x00, 0x00, 0x00, 0x00,
   0x00, 0x00, 0x00, 0x00, 0x00, 0x00, 0x00, 0x00, 0x00, 0x00, 0x00, 0x00,
   0x00, 0x00, 0x00, 0x00, 0x00, 0x00, 0x00, 0x00, 0x00, 0x00, 0x00, 0x00,
   0x00, 0x00, 0x00, 0x00, 0x00, 0x00, 0x00, 0x00, 0x00, 0x00, 0x00, 0x00,
   0x00, 0x00, 0x00, 0x00, 0x00, 0x00, 0x00, 0x00, 0x00, 0x00, 0x00, 0x00,
   0x00, 0x00, 0x00, 0x00, 0x00, 0x00, 0x00, 0x00, 0x00, 0x00, 0x00, 0x00,
   0x00, 0x00, 0x00, 0x00, 0x00, 0x00, 0x00, 0x00, 0x00, 0x00, 0x00, 0x00,
   0x00, 0x00, 0x00, 0x00, 0x00, 0x00, 0x00, 0x00, 0x00, 0x00, 0x00, 0x00,
   0x00, 0x00, 0x00, 0x00, 0x00, 0x00, 0x00, 0x00, 0x00, 0x00, 0x00, 0x00,
   0x00, 0x00, 0x00, 0x00, 0x00, 0x00, 0x00, 0x00, 0x00, 0x00, 0x00, 0x00,
   0x00, 0x00, 0x00, 0x00, 0x00, 0x00, 0x00, 0x00, 0x00, 0x00, 0x00, 0x00,
   0x00, 0x00, 0x00, 0x00, 0x00, 0x00, 0x00, 0x00, 0x00, 0x00, 0x00, 0x00,
   0x00, 0x00, 0x00, 0x00, 0x00, 0x00, 0x00, 0x00, 0x00, 0x00, 0x00, 0x00,
   0x00, 0x00, 0x00, 0x00, 0x00, 0x00, 0x00, 0x00, 0x00, 0x00, 0x00, 0x00,
   0x00, 0x00, 0x00, 0x00, 0x00, 0x00, 0x00, 0x00, 0x00, 0x00, 0x00, 0x00,
   0x3e, 0x3c, 0x7f, 0x42, 0x08, 0x22, 0x21, 0x42, 0x49, 0x49, 0x07, 0x42,
   0x02, 0x1e, 0x31, 0x3c, 0x00, 0x40, 0x00, 0x00, 0x00, 0x00, 0x00, 0x00,
   0x00, 0x42, 0x00, 0x00, 0x00, 0x00, 0x00, 0x00, 0x42, 0x42, 0x08, 0x42,
   0x3e, 0x22, 0x21, 0x42, 0x49, 0x49, 0x04, 0x42, 0x02, 0x20, 0x49, 0x22,
   0x00, 0x3c, 0x00, 0x00, 0x00, 0x00, 0x00, 0x00, 0x00, 0x3c, 0x00, 0x00,
   0x00, 0x00, 0x00, 0x00, 0x42, 0x02, 0x08, 0x42, 0x49, 0x14, 0x21, 0x42,
   0x49, 0x49, 0x04, 0x42, 0x02, 0x40, 0x49, 0x22, 0x00, 0x02, 0x00, 0x00,
   0x00, 0x00, 0x00, 0x00, 0x00, 0x00, 0x00, 0x00, 0x00, 0x00, 0x00, 0x00,
   0x42, 0x02, 0x08, 0x42, 0x49, 0x14, 0x21, 0x42, 0x49, 0x49, 0x04, 0x4e,
   0x02, 0x40, 0x49, 0x22, 0x3c, 0x3e, 0x3e, 0x7e, 0x38, 0x3c, 0x49, 0x3c,
   0x42, 0x42, 0x22, 0x78, 0x22, 0x42, 0x3c, 0x7e, 0x42, 0x02, 0x08, 0x24,
   0x49, 0x08, 0x21, 0x7c, 0x49, 0x49, 0x3c, 0x52, 0x3e, 0x7c, 0x4f, 0x3c,
   0x40, 0x42, 0x42, 0x42, 0x24, 0x42, 0x49, 0x42, 0x62, 0x62, 0x12, 0x44,
   0x36, 0x42, 0x42, 0x42, 0x3e, 0x02, 0x08, 0x18, 0x49, 0x14, 0x21, 0x40,
   0x49, 0x49, 0x44, 0x52, 0x42, 0x40, 0x49, 0x28, 0x7c, 0x42, 0x3e, 0x02,
   0x24, 0x7e, 0x3e, 0x38, 0x52, 0x52, 0x0e, 0x44, 0x2a, 0x7e, 0x42, 0x42,
   0x02, 0x02, 0x08, 0x08, 0x3e, 0x14, 0x21, 0x40, 0x49, 0x49, 0x44, 0x52,
   0x42, 0x40, 0x49, 0x24, 0x42, 0x42, 0x42, 0x02, 0x24, 0x02, 0x2a, 0x40,
   0x4a, 0x4a, 0x12, 0x44, 0x2a, 0x42, 0x42, 0x42, 0x02, 0x42, 0x08, 0x04,
   0x08, 0x22, 0x21, 0x40, 0x49, 0x49, 0x44, 0x52, 0x42, 0x20, 0x49, 0x22,
   0x42, 0x42, 0x42, 0x02, 0x24, 0x42, 0x49, 0x42, 0x46, 0x46, 0x22, 0x44,
   0x22, 0x42, 0x42, 0x42, 0x02, 0x3c, 0x08, 0x02, 0x08, 0x22, 0x7f, 0x40,
   0x7f, 0x7f, 0x3c, 0x4e, 0x3e, 0x1e, 0x31, 0x22, 0x7c, 0x3c, 0x3e, 0x02,
   0x7e, 0x3c, 0x49, 0x3c, 0x42, 0x42, 0x22, 0x42, 0x22, 0x42, 0x3c, 0x42,
   0x00, 0x00, 0x00, 0x00, 0x00, 0x00, 0x40, 0x00, 0x00, 0x40, 0x00, 0x00,
   0x00, 0x00, 0x00, 0x00, 0x00, 0x00, 0x00, 0x00, 0x42, 0x00, 0x00, 0x00,
   0x00, 0x00, 0x00, 0x00, 0x00, 0x00, 0x00, 0x00, 0x00, 0x00, 0x00, 0x00,
   0x00, 0x00, 0x40, 0x00, 0x00, 0x40, 0x00, 0x00, 0x00, 0x00, 0x00, 0x00,
   0x00, 0x00, 0x00, 0x00, 0x00, 0x00, 0x00, 0x00, 0x00, 0x00, 0x00, 0x00,
   0x00, 0x00, 0x00, 0x00, 0x00, 0x00, 0x00, 0x00, 0x00, 0x00, 0x00, 0x00,
   0x00, 0x00, 0x00, 0x00, 0x00, 0x00, 0x00, 0x00, 0x00, 0x00, 0x00, 0x00,
   0x00, 0x00, 0x00, 0x00, 0x00, 0x00, 0x00, 0x00, 0x00, 0x00, 0x00, 0x00,
   0x00, 0x00, 0x00, 0x00, 0x00, 0x00, 0x00, 0x00, 0x00, 0x00, 0x00, 0x00,
   0x00, 0x00, 0x00, 0x00, 0x00, 0x00, 0x00, 0x00, 0x00, 0x00, 0x00, 0x00,
   0x00, 0x00, 0x00, 0x00, 0x00, 0x00, 0x00, 0x00, 0x00, 0x00, 0x00, 0x00,
   0x00, 0x00, 0x00, 0x00, 0x00, 0x00, 0x00, 0x00, 0x00, 0x00, 0x00, 0x00,
   0x00, 0x00, 0x00, 0x00, 0x00, 0x00, 0x00, 0x00, 0x00, 0x00, 0x00, 0x00,
   0x00, 0x00, 0x00, 0x00, 0x00, 0x00, 0x00, 0x00, 0x00, 0x00, 0x00, 0x00,
   0x00, 0x00, 0x00, 0x00, 0x00, 0x00, 0x00, 0x00, 0x00, 0x00, 0x00, 0x00,
   0x00, 0x00, 0x00, 0x00, 0x00, 0x00, 0x00, 0x00, 0x00, 0x00, 0x00, 0x00,
   0x00, 0x00, 0x00, 0x00, 0x00, 0x00, 0x00, 0x00, 0x00, 0x00, 0x00, 0x00,
   0x00, 0x00, 0x00, 0x00, 0x00, 0x00, 0x00, 0x00, 0x00, 0x00, 0x00, 0x00,
   0x00, 0x00, 0x00, 0x00, 0x00, 0x00, 0x00, 0x00, 0x00, 0x00, 0x00, 0x00,
   0x08, 0x00, 0x00, 0x00, 0x00, 0x00, 0x00, 0x00, 0x00, 0x00, 0x00, 0x00,
   0x08, 0x24, 0x04, 0x10, 0x00, 0x00, 0x00, 0x12, 0x00, 0x00, 0x00, 0x04,
   0x08, 0x08, 0x42, 0x00, 0x00, 0x00, 0x00, 0x00, 0x08, 0x00, 0x00, 0x00,
   0x00, 0x00, 0x00, 0x00, 0x00, 0x00, 0x00, 0x00, 0x10, 0x24, 0x3e, 0x08,
   0x00, 0x00, 0x08, 0x12, 0x20, 0x00, 0x00, 0x3e, 0x04, 0x10, 0x3c, 0x00,
   0x00, 0x00, 0x00, 0x00, 0x08, 0x00, 0x00, 0x00, 0x00, 0x00, 0x00, 0x00,
   0x00, 0x00, 0x00, 0x00, 0x00, 0x00, 0x04, 0x00, 0x00, 0x00, 0x00, 0x00,
   0x00, 0x00, 0x00, 0x04, 0x00, 0x00, 0x00, 0x00, 0x3a, 0x3c, 0x3e, 0x42,
   0x3e, 0x42, 0x22, 0x42, 0x49, 0x49, 0x07, 0x42, 0x04, 0x3c, 0x31, 0x7c,
   0x3c, 0x3c, 0x34, 0x7e, 0x7c, 0x3c, 0x0c, 0x0c, 0x30, 0x0e, 0x09, 0x34,
   0x22, 0x42, 0x42, 0x22, 0x46, 0x42, 0x08, 0x42, 0x49, 0x24, 0x22, 0x42,
   0x49, 0x49, 0x04, 0x42, 0x04, 0x40, 0x49, 0x42, 0x42, 0x42, 0x4c, 0x42,
   0x02, 0x42, 0x08, 0x08, 0x20, 0x09, 0x09, 0x4c, 0x12, 0x62, 0x42, 0x22,
   0x42, 0x02, 0x08, 0x42, 0x49, 0x18, 0x22, 0x62, 0x49, 0x49, 0x3c, 0x4e,
   0x3c, 0x70, 0x49, 0x42, 0x7e, 0x7e, 0x44, 0x02, 0x1e, 0x0c, 0x08, 0x08,
   0x20, 0x39, 0x3f, 0x44, 0x0e, 0x52, 0x42, 0x22, 0x42, 0x02, 0x08, 0x62,
   0x49, 0x18, 0x22, 0x5c, 0x49, 0x49, 0x44, 0x52, 0x44, 0x40, 0x4f, 0x7c,
   0x02, 0x02, 0x44, 0x02, 0x02, 0x30, 0x08, 0x08, 0x20, 0x49, 0x49, 0x44,
   0x12, 0x4a, 0x62, 0x22, 0x46, 0x42, 0x08, 0x5c, 0x49, 0x24, 0x22, 0x40,
   0x49, 0x49, 0x44, 0x52, 0x44, 0x40, 0x49, 0x44, 0x42, 0x42, 0x44, 0x02,
   0x02, 0x42, 0x08, 0x08, 0x20, 0x49, 0x49, 0x44, 0x22, 0x46, 0x5c, 0x22,
   0x3a, 0x3c, 0x08, 0x40, 0x3e, 0x42, 0x7e, 0x40, 0x7f, 0x7f, 0x3c, 0x4e,
   0x3c, 0x3c, 0x31, 0x42, 0x3c, 0x3c, 0x44, 0x02, 0x7c, 0x3c, 0x1c, 0x3e,
   0x24, 0x39, 0x39, 0x44, 0x22, 0x42, 0x40, 0x3e, 0x02, 0x00, 0x00, 0x42,
   0x08, 0x00, 0x40, 0x00, 0x00, 0x40, 0x00, 0x00, 0x00, 0x00, 0x00, 0x00,
   0x00, 0x00, 0x40, 0x00, 0x00, 0x00, 0x00, 0x00, 0x24, 0x00, 0x00, 0x00,
   0x00, 0x00, 0x42, 0x08, 0x02, 0x00, 0x00, 0x3c, 0x08, 0x00, 0x40, 0x00,
   0x00, 0x40, 0x00, 0x00, 0x00, 0x00, 0x00, 0x00, 0x00, 0x00, 0x20, 0x00,
   0x00, 0x00, 0x00, 0x00, 0x18, 0x00, 0x00, 0x00, 0x00, 0x00, 0x3c, 0x08,
   0x00, 0x00, 0x00, 0x00, 0x00, 0x00, 0x00, 0x00, 0x00, 0x00, 0x00, 0x00,
   0x00, 0x00, 0x00, 0x00, 0x00, 0x00, 0x00, 0x00, 0x00, 0x00, 0x00, 0x00,
   0x00, 0x00, 0x00, 0x00, 0x00, 0x00, 0x00, 0x00, 0x00, 0x00, 0x00, 0x00,
   0x00, 0x00, 0x00, 0x00, 0x00, 0x00, 0x00, 0x00, 0x00, 0x00, 0x00, 0x00,
   0x00, 0x00, 0x00, 0x00, 0x00, 0x00, 0x00, 0x00, 0x00, 0x00, 0x00, 0x00,
   0x00, 0x00, 0x00, 0x00, 0x00, 0x00, 0x00, 0x00, 0x00, 0x00, 0x00, 0x00,
   0x00, 0x00, 0x00, 0x00, 0x00, 0x00, 0x00, 0x00, 0x00, 0x00, 0x00, 0x00,
   0x00, 0x00, 0x00, 0x00, 0x00, 0x00, 0x00, 0x00, 0x00, 0x00, 0x00, 0x00,
   0x00, 0x00, 0x00, 0x00, 0x00, 0x00, 0x00, 0x00, 0x00, 0x00, 0x00, 0x00,
   0x00, 0x00, 0x00, 0x00, 0x00, 0x00, 0x00, 0x00, 0x00, 0x00, 0x00, 0x00,
   0x00, 0x00, 0x00, 0x00, 0x20, 0x20, 0x00, 0x00, 0x00, 0x00, 0x00, 0x00,
   0x00, 0x00, 0x00, 0x00, 0x00, 0x00, 0x00, 0x00, 0x00, 0x00, 0x44, 0x44,
   0x00, 0x00, 0x00, 0x00, 0x00, 0x00, 0x12, 0x00, 0x00, 0x00, 0x08, 0x00,
   0x3e, 0x3e, 0x3e, 0x3e, 0x36, 0x00, 0x04, 0x04, 0x71, 0x00, 0x08, 0x00,
   0x09, 0x00, 0x3e, 0x00, 0x7d, 0x00, 0x38, 0x38, 0x49, 0x00, 0x3c, 0x00,
   0x42, 0x00, 0x24, 0x12, 0x02, 0x00, 0x3e, 0x00, 0x02, 0x02, 0x08, 0x08,
   0x41, 0x00, 0x1f, 0x04, 0x09, 0x00, 0x14, 0x00, 0x09, 0x00, 0x22, 0x00,
   0x45, 0x00, 0x00, 0x00, 0x49, 0x00, 0x42, 0x00, 0x22, 0x00, 0x00, 0x24,
   0x05, 0x00, 0x49, 0x00, 0x00, 0x00, 0x00, 0x00, 0x41, 0x00, 0x04, 0x04,
   0x09, 0x00, 0x14, 0x00, 0x15, 0x00, 0x22, 0x00, 0x45, 0x00, 0x3c, 0x00,
   0x49, 0x00, 0x42, 0x00, 0x22, 0x00, 0x42, 0x00, 0x05, 0x00, 0x41, 0x08,
   0x36, 0x00, 0x36, 0x00, 0x41, 0x22, 0x04, 0x1f, 0x09, 0x71, 0x22, 0x08,
   0x15, 0x12, 0x14, 0x1c, 0x29, 0x39, 0x42, 0x3c, 0x49, 0x49, 0x42, 0x3c,
   0x12, 0x42, 0x22, 0x42, 0x55, 0x52, 0x41, 0x3e, 0x41, 0x36, 0x41, 0x49,
   0x41, 0x49, 0x3c, 0x04, 0x3f, 0x09, 0x22, 0x14, 0x15, 0x2a, 0x1c, 0x14,
   0x1f, 0x29, 0x40, 0x42, 0x49, 0x49, 0x7e, 0x42, 0x14, 0x22, 0x12, 0x22,
   0x55, 0x55, 0x41, 0x49, 0x49, 0x41, 0x49, 0x49, 0x49, 0x49, 0x44, 0x3c,
   0x09, 0x3f, 0x36, 0x22, 0x23, 0x2a, 0x2a, 0x14, 0x39, 0x1f, 0x38, 0x38,
   0x3e, 0x49, 0x42, 0x7e, 0x14, 0x12, 0x14, 0x12, 0x55, 0x55, 0x41, 0x41,
   0x49, 0x49, 0x49, 0x49, 0x49, 0x49, 0x44, 0x44, 0x09, 0x09, 0x49, 0x36,
   0x2b, 0x46, 0x49, 0x3e, 0x55, 0x39, 0x40, 0x40, 0x08, 0x49, 0x42, 0x42,
   0x14, 0x14, 0x14, 0x14, 0x55, 0x55, 0x41, 0x41, 0x49, 0x49, 0x49, 0x2a,
   0x49, 0x49, 0x44, 0x44, 0x09, 0x09, 0x49, 0x49, 0x49, 0x56, 0x49, 0x49,
   0x55, 0x55, 0x40, 0x40, 0x08, 0x49, 0x42, 0x42, 0x08, 0x14, 0x08, 0x14,
   0x55, 0x55, 0x49, 0x49, 0x49, 0x49, 0x49, 0x2a, 0x36, 0x36, 0x3c, 0x3c,
   0x71, 0x71, 0x49, 0x49, 0x49, 0x52, 0x49, 0x49, 0x55, 0x55, 0x3c, 0x3c,
   0x08, 0x3e, 0x3c, 0x3c, 0x08, 0x08, 0x08, 0x08, 0x62, 0x62, 0x3e, 0x3e,
   0x36, 0x36, 0x36, 0x14, 0x00, 0x00, 0x00, 0x00, 0x00, 0x00, 0x00, 0x00,
   0x00, 0x00, 0x00, 0x00, 0x00, 0x00, 0x02, 0x02, 0x00, 0x08, 0x00, 0x00,
   0x00, 0x00, 0x00, 0x00, 0x40, 0x40, 0x08, 0x08, 0x00, 0x00, 0x00, 0x00,
   0x00, 0x00, 0x00, 0x00, 0x00, 0x00, 0x00, 0x00, 0x00, 0x00, 0x00, 0x00,
   0x00, 0x00, 0x1c, 0x1c, 0x00, 0x08, 0x00, 0x00, 0x00, 0x00, 0x00, 0x00,
   0x30, 0x30, 0x00, 0x00, 0x00, 0x00, 0x00, 0x00, 0x00, 0x00, 0x00, 0x00,
   0x00, 0x00, 0x00, 0x00, 0x00, 0x00, 0x00, 0x00, 0x00, 0x00, 0x00, 0x00,
   0x00, 0x00, 0x00, 0x00, 0x00, 0x00, 0x00, 0x00, 0x00, 0x00, 0x00, 0x00,
   0x00, 0x00, 0x00, 0x00, 0x00, 0x00, 0x00, 0x00, 0x00, 0x00, 0x00, 0x00,
   0x00, 0x00, 0x00, 0x00, 0x00, 0x00, 0x00, 0x00, 0x00, 0x00, 0x00, 0x00,
   0x00, 0x00, 0x00, 0x00, 0x00, 0x00, 0x00, 0x00, 0x00, 0x00, 0x00, 0x00,
   0x00, 0x00, 0x00, 0x00, 0x00, 0x00, 0x00, 0x00, 0x00, 0x00, 0x00, 0x00,
   0x00, 0x00, 0x00, 0x00, 0x00, 0x00, 0x00, 0x00, 0x00, 0x00, 0x00, 0x00,
   0x00, 0x00, 0x00, 0x00, 0x00, 0x00, 0x00, 0x00, 0x00, 0x00, 0x00, 0x40,
   0x1c, 0x1e, 0x78, 0x00, 0x02, 0x24, 0x00, 0x00, 0x00, 0x00, 0x00, 0x00,
   0x00, 0x00, 0x00, 0x00, 0x00, 0x00, 0x00, 0x00, 0x00, 0x00, 0x00, 0x00,
   0x00, 0x00, 0x00, 0x00, 0x00, 0x00, 0x00, 0x7e, 0x62, 0x66, 0x66, 0x00,
   0x25, 0x12, 0x21, 0x00, 0x00, 0x00, 0x00, 0x00, 0x40, 0x00, 0x00, 0x00,
   0x00, 0x00, 0x00, 0x00, 0x00, 0x00, 0x00, 0x00, 0x00, 0x00, 0x00, 0x00,
   0x3c, 0x00, 0x00, 0x02, 0x00, 0x00, 0x00, 0x00, 0x50, 0x36, 0x1e, 0x21,
   0x04, 0x00, 0x3e, 0x00, 0x7e, 0x00, 0x7c, 0x00, 0x7e, 0x00, 0x49, 0x00,
   0x3c, 0x00, 0x42, 0x00, 0x42, 0x00, 0x44, 0x04, 0x42, 0x00, 0x28, 0x00,
   0x00, 0x00, 0x00, 0x00, 0x00, 0x00, 0x00, 0x1e, 0x1e, 0x00, 0x42, 0x00,
   0x02, 0x00, 0x44, 0x00, 0x02, 0x00, 0x49, 0x00, 0x42, 0x00, 0x22, 0x00,
   0x42, 0x00, 0x2e, 0x04, 0x42, 0x00, 0x10, 0x00, 0x00, 0x00, 0x00, 0x00,
   0x00, 0x00, 0x21, 0x00, 0x04, 0x00, 0x42, 0x00, 0x02, 0x40, 0x04, 0x00,
   0x02, 0x00, 0x2a, 0x00, 0x40, 0x00, 0x12, 0x00, 0x2a, 0x00, 0x14, 0x4e,
   0x02, 0x3c, 0x2a, 0x00, 0x00, 0x00, 0x00, 0x00, 0x00, 0x00, 0x31, 0x21,
   0x04, 0x04, 0x52, 0x3e, 0x02, 0x7e, 0x04, 0x7c, 0x02, 0x7e, 0x1c, 0x49,
   0x40, 0x3c, 0x0a, 0x12, 0x2a, 0x42, 0x0c, 0x24, 0x02, 0x42, 0x04, 0x00,
   0x00, 0x00, 0x00, 0x00, 0x00, 0x00, 0x29, 0x31, 0x3c, 0x1e, 0x22, 0x42,
   0x02, 0x02, 0x0e, 0x44, 0x3e, 0x02, 0x2a, 0x49, 0x38, 0x42, 0x06, 0x0a,
   0x1e, 0x2a, 0x0c, 0x14, 0x02, 0x02, 0x0a, 0x00, 0x00, 0x00, 0x00, 0x00,
   0x00, 0x00, 0x25, 0x29, 0x44, 0x04, 0x5e, 0x52, 0x02, 0x02, 0x04, 0x0e,
   0x42, 0x3e, 0x49, 0x3e, 0x40, 0x38, 0x0a, 0x06, 0x2a, 0x1e, 0x0c, 0x0c,
   0x02, 0x02, 0x00, 0x00, 0x00, 0x00, 0x00, 0x00, 0x00, 0x00, 0x23, 0x25,
   0x44, 0x3c, 0x02, 0x22, 0x02, 0x02, 0x04, 0x04, 0x42, 0x42, 0x49, 0x2a,
   0x40, 0x40, 0x12, 0x0a, 0x2a, 0x2a, 0x14, 0x14, 0x02, 0x3c, 0x00, 0x00,
   0x00, 0x00, 0x00, 0x00, 0x00, 0x04, 0x21, 0x23, 0x44, 0x44, 0x02, 0x5e,
   0x02, 0x02, 0x04, 0x04, 0x42, 0x42, 0x49, 0x49, 0x42, 0x42, 0x22, 0x12,
   0x42, 0x22, 0x24, 0x24, 0x3c, 0x20, 0x00, 0x00, 0x00, 0x00, 0x00, 0x00,
   0x02, 0x22, 0x61, 0x61, 0x3c, 0x3c, 0x02, 0x02, 0x02, 0x02, 0x04, 0x04,
   0x47, 0x47, 0xc9, 0xc9, 0x3c, 0x3c, 0x42, 0x22, 0x42, 0x42, 0x44, 0x44,
   0x20, 0x20, 0x00, 0x00, 0x00, 0x00, 0x00, 0x00, 0x25, 0x16, 0x40, 0x40,
   0x00, 0x00, 0x00, 0x02, 0x00, 0x00, 0x00, 0x00, 0x30, 0x30, 0x80, 0x80,
   0x08, 0x08, 0x40, 0x20, 0x00, 0x00, 0x00, 0x00, 0x70, 0x00, 0x00, 0x00,
   0x00, 0x00, 0x00, 0x00, 0x50, 0x30, 0x20, 0x20, 0x00, 0x00, 0x00, 0x02,
   0x00, 0x00, 0x00, 0x00, 0x00, 0x00, 0x80, 0x80, 0x04, 0x04, 0x40, 0x20,
   0x00, 0x00, 0x00, 0x00, 0x00, 0x00, 0x00, 0x00, 0x00, 0x00, 0x00, 0x00,
   0x00, 0x00, 0x00, 0x00, 0x00, 0x00, 0x00, 0x00, 0x00, 0x00, 0x00, 0x00,
   0x00, 0x00, 0x00, 0x00, 0x00, 0x00, 0x00, 0x00, 0x00, 0x00, 0x00, 0x00,
   0x00, 0x00, 0x00, 0x00, 0x00, 0x00, 0x00, 0x00, 0x00, 0x00, 0x00, 0x00,
   0x00, 0x00, 0x00, 0x00, 0x00, 0x00, 0x00, 0x00, 0x00, 0x00, 0x00, 0x00,
   0x00, 0x00, 0x00, 0x00, 0x00, 0x00, 0x00, 0x00, 0x00, 0x00, 0x00, 0x00,
   0x00, 0x00, 0x00, 0x00, 0x00, 0x00, 0x00, 0x00, 0x00, 0x00, 0x00, 0x00,
   0x00, 0x00, 0x00, 0x00, 0x00, 0x00, 0x00, 0x00, 0x00, 0x00, 0x00, 0x00,
   0x00, 0x00, 0x00, 0x00, 0x00, 0x00, 0x00, 0x00, 0x00, 0x00, 0x00, 0x00,
   0x00, 0x00, 0x00, 0x00, 0x00, 0x00, 0x00, 0x00, 0x00, 0x00, 0x00, 0x00,
   0x00, 0x00, 0x00, 0x00, 0x00, 0x00, 0x00, 0x00, 0x00, 0x00, 0x00, 0x00,
   0x00, 0x00, 0x00, 0x00, 0x00, 0x00, 0x00, 0x00, 0x00, 0x00, 0x00, 0x00,
   0x00, 0x00, 0x00, 0x00, 0x00, 0x00, 0x00, 0x00, 0x00, 0x00, 0x00, 0x00,
   0x00, 0x00, 0x00, 0x00, 0x00, 0x00, 0x00, 0x00, 0x46, 0x00, 0x22, 0x00,
   0x72, 0x00, 0x0f, 0x00, 0x3c, 0x00, 0x3c, 0x00, 0x7f, 0x00, 0x41, 0x00,
   0x41, 0x00, 0x22, 0x00, 0x4e, 0x00, 0x22, 0x00, 0x42, 0x00, 0x02, 0x04,
   0x38, 0x00, 0x38, 0x00, 0x24, 0x00, 0x22, 0x00, 0x12, 0x00, 0x09, 0x00,
   0x42, 0x00, 0x42, 0x00, 0x08, 0x00, 0x41, 0x00, 0x41, 0x00, 0x22, 0x00,
   0x44, 0x00, 0x22, 0x00, 0x42, 0x00, 0x02, 0x04, 0x44, 0x00, 0x44, 0x00,
   0x14, 0x00, 0x22, 0x00, 0x12, 0x00, 0x09, 0x00, 0x02, 0x00, 0x02, 0x00,
   0x08, 0x00, 0x22, 0x00, 0x22, 0x00, 0x14, 0x00, 0x44, 0x00, 0x22, 0x00,
   0x42, 0x00, 0x02, 0x04, 0x45, 0x00, 0x45, 0x00, 0x0c, 0x26, 0x22, 0x22,
   0x12, 0x72, 0x09, 0x0f, 0x32, 0x3c, 0x02, 0x3c, 0x08, 0x7f, 0x14, 0x41,
   0x14, 0x41, 0x14, 0x22, 0x44, 0x4e, 0x22, 0x22, 0x4a, 0x42, 0x3a, 0x04,
   0x45, 0x39, 0x45, 0x39, 0x0c, 0x14, 0x3e, 0x22, 0x1e, 0x12, 0x39, 0x09,
   0x4a, 0x02, 0x02, 0x42, 0x08, 0x49, 0x08, 0x41, 0x08, 0x41, 0x08, 0x14,
   0x44, 0x44, 0x32, 0x22, 0x6a, 0x42, 0x46, 0x34, 0x7e, 0x45, 0x7e, 0x45,
   0x0c, 0x0c, 0x22, 0x3e, 0x12, 0x1e, 0x49, 0x39, 0x4a, 0x32, 0x02, 0x02,
   0x08, 0x08, 0x08, 0x22, 0x3e, 0x22, 0x14, 0x08, 0x44, 0x44, 0x2c, 0x32,
   0x5c, 0x6a, 0x42, 0x4c, 0x04, 0x7e, 0x04, 0x7e, 0x14, 0x14, 0x22, 0x22,
   0x12, 0x12, 0x49, 0x49, 0x4a, 0x4a, 0x02, 0x02, 0x08, 0x08, 0x08, 0x14,
   0x08, 0x14, 0x14, 0x14, 0x44, 0x44, 0x20, 0x2c, 0x48, 0x5c, 0x42, 0x44,
   0x04, 0x04, 0x04, 0x04, 0x24, 0x24, 0x22, 0x22, 0x12, 0x12, 0x49, 0x49,
   0x3c, 0x3c, 0x42, 0x42, 0x08, 0x08, 0x08, 0x08, 0x08, 0x08, 0x22, 0x22,
   0x44, 0x44, 0x20, 0x20, 0x48, 0x48, 0x42, 0x44, 0x44, 0x44, 0x44, 0x44,
   0x44, 0x44, 0x62, 0x62, 0x12, 0x12, 0x49, 0x49, 0x08, 0x08, 0x3c, 0x3c,
   0x18, 0x18, 0x08, 0x08, 0x08, 0x3e, 0x62, 0x62, 0x7c, 0x7c, 0x60, 0x60,
   0x40, 0x40, 0x42, 0x44, 0x38, 0x38, 0x38, 0x38, 0x00, 0x00, 0x40, 0x40,
   0x00, 0x00, 0x40, 0x40, 0x70, 0x70, 0x08, 0x08, 0x10, 0x10, 0x00, 0x08,
   0x00, 0x08, 0x40, 0x40, 0x40, 0x40, 0x40, 0x40, 0x00, 0x00, 0x00, 0x00,
   0x00, 0x00, 0x10, 0x10, 0x00, 0x00, 0x40, 0x40, 0x00, 0x00, 0x30, 0x30,
   0x00, 0x00, 0x18, 0x18, 0x10, 0x10, 0x00, 0x08, 0x00, 0x08, 0x40, 0x40,
   0x40, 0x40, 0x40, 0x40, 0x00, 0x00, 0x00, 0x00, 0x00, 0x00, 0x30, 0x30,
   0x00, 0x00, 0x00, 0x00, 0x00, 0x00, 0x00, 0x00, 0x00, 0x00, 0x00, 0x00,
   0x00, 0x00, 0x00, 0x00, 0x00, 0x00, 0x00, 0x00, 0x00, 0x00, 0x00, 0x00,
   0x00, 0x00, 0x00, 0x00, 0x00, 0x00, 0x00, 0x00, 0x00, 0x00, 0x00, 0x00,
   0x00, 0x00, 0x00, 0x00, 0x00, 0x00, 0x00, 0x00, 0x00, 0x00, 0x00, 0x00,
   0x00, 0x00, 0x00, 0x00, 0x00, 0x00, 0x00, 0x00, 0x00, 0x00, 0x00, 0x00,
   0x00, 0x00, 0x00, 0x00, 0x00, 0x00, 0x00, 0x00, 0x00, 0x00, 0x00, 0x00,
   0x00, 0x00, 0x00, 0x00, 0x00, 0x00, 0x00, 0x00, 0x00, 0x00, 0x00, 0x00,
   0x00, 0x00, 0x00, 0x00, 0x00, 0x00, 0x00, 0x00, 0x00, 0x00, 0x00, 0x00,
   0x00, 0x22, 0x00, 0x00, 0x00, 0x00, 0x00, 0x00, 0x00, 0x00, 0x00, 0x00,
   0x00, 0x00, 0x00, 0x00, 0x00, 0x00, 0x00, 0x00, 0x00, 0x00, 0x00, 0x00,
   0x00, 0x00, 0x00, 0x00, 0x14, 0x00, 0x00, 0x00, 0x00, 0x1c, 0x00, 0x00,
   0x00, 0x00, 0x00, 0x00, 0x00, 0x00, 0x00, 0x00, 0x00, 0x00, 0x00, 0x00,
   0x42, 0x00, 0x24, 0x00, 0x00, 0x00, 0x42, 0x00, 0x00, 0x00, 0x24, 0x00,
   0x14, 0x00, 0x24, 0x00, 0x38, 0x00, 0x22, 0x42, 0x00, 0x3c, 0x00, 0x42,
   0x00, 0x21, 0x00, 0x42, 0x00, 0x41, 0x00, 0x00, 0x3c, 0x42, 0x24, 0x24,
   0x76, 0x00, 0x3c, 0x42, 0x3c, 0x00, 0x24, 0x24, 0x00, 0x14, 0x24, 0x24,
   0x10, 0x49, 0x1c, 0x22, 0x00, 0x22, 0x00, 0x42, 0x00, 0x21, 0x00, 0x42,
   0x00, 0x41, 0x00, 0x00, 0x00, 0x3c, 0x00, 0x24, 0x09, 0x00, 0x00, 0x3c,
   0x42, 0x00, 0x00, 0x24, 0x49, 0x14, 0x00, 0x24, 0x10, 0x49, 0x00, 0x12,
   0x00, 0x22, 0x00, 0x42, 0x00, 0x21, 0x00, 0x42, 0x00, 0x63, 0x00, 0x00,
   0x18, 0x00, 0x18, 0x00, 0x09, 0x00, 0x7e, 0x00, 0x40, 0x00, 0x3c, 0x00,
   0x49, 0x00, 0x3c, 0x00, 0x10, 0x2a, 0x49, 0x0a, 0x22, 0x22, 0x3c, 0x42,
   0x42, 0x21, 0x21, 0x42, 0x42, 0x55, 0x22, 0x00, 0x24, 0x3c, 0x24, 0x38,
   0x09, 0x3e, 0x02, 0x3c, 0x40, 0x3c, 0x42, 0x3c, 0x2a, 0x49, 0x42, 0x3c,
   0x10, 0x1c, 0x49, 0x06, 0x12, 0x22, 0x22, 0x7e, 0x42, 0x3f, 0x21, 0x62,
   0x42, 0x49, 0x36, 0x00, 0x42, 0x40, 0x42, 0x40, 0x39, 0x48, 0x02, 0x42,
   0x7e, 0x42, 0x40, 0x42, 0x1c, 0x49, 0x40, 0x42, 0x10, 0x2a, 0x3e, 0x0a,
   0x0e, 0x22, 0x22, 0x42, 0x7e, 0x21, 0x3f, 0x5c, 0x62, 0x49, 0x2a, 0x00,
   0x42, 0x7c, 0x42, 0x7c, 0x0f, 0x3e, 0x3e, 0x7e, 0x42, 0x40, 0x7e, 0x40,
   0x2a, 0x3e, 0x38, 0x38, 0x10, 0x49, 0x2a, 0x12, 0x12, 0x22, 0x22, 0x42,
   0x42, 0x21, 0x21, 0x40, 0x5c, 0x41, 0x2a, 0x00, 0x7e, 0x42, 0x7e, 0x42,
   0x09, 0x09, 0x02, 0x02, 0x42, 0x7e, 0x42, 0x7e, 0x49, 0x2a, 0x40, 0x40,
   0x10, 0x49, 0x49, 0x22, 0x22, 0x21, 0x22, 0x42, 0x42, 0x21, 0x21, 0x40,
   0x40, 0x41, 0x22, 0x00, 0x42, 0x62, 0x42, 0x62, 0x09, 0x49, 0x02, 0x42,
   0x42, 0x42, 0x42, 0x42, 0x49, 0x49, 0x42, 0x42, 0x38, 0x49, 0x49, 0x42,
   0x22, 0x61, 0x61, 0x42, 0x42, 0x61, 0x61, 0x60, 0x60, 0xc1, 0x62, 0x00,
   0x42, 0x5c, 0x42, 0x5c, 0x79, 0x36, 0x7e, 0x3c, 0x3c, 0x3c, 0x3c, 0x3c,
   0x49, 0x49, 0x3c, 0x3c, 0x00, 0x00, 0x00, 0x40, 0x20, 0x40, 0x40, 0x40,
   0x40, 0x40, 0x40, 0x20, 0x20, 0x80, 0x40, 0x00, 0x00, 0x00, 0x00, 0x00,
   0x00, 0x00, 0x00, 0x00, 0x00, 0x00, 0x00, 0x00, 0x00, 0x00, 0x00, 0x00,
   0x00, 0x00, 0x00, 0x38, 0x18, 0x20, 0x20, 0x38, 0x38, 0x20, 0x20, 0x20,
   0x20, 0x40, 0x20, 0x00, 0x00, 0x00, 0x00, 0x00, 0x00, 0x00, 0x00, 0x00,
   0x00, 0x00, 0x00, 0x00, 0x00, 0x00, 0x00, 0x00, 0x00, 0x00, 0x00, 0x00,
   0x00, 0x00, 0x00, 0x00, 0x00, 0x00, 0x00, 0x00, 0x00, 0x00, 0x00, 0x00,
   0x00, 0x00, 0x00, 0x00, 0x00, 0x00, 0x00, 0x00, 0x00, 0x00, 0x00, 0x00,
   0x00, 0x00, 0x00, 0x00, 0x00, 0x00, 0x00, 0x00, 0x00, 0x00, 0x00, 0x00,
   0x00, 0x00, 0x00, 0x00, 0x00, 0x00, 0x00, 0x00, 0x00, 0x00, 0x00, 0x00,
   0x00, 0x00, 0x00, 0x00, 0x00, 0x00, 0x00, 0x00, 0x00, 0x00, 0x00, 0x00,
   0x00, 0x00, 0x00, 0x00, 0x00, 0x00, 0x00, 0x00, 0x00, 0x00, 0x00, 0x00,
   0x00, 0x00, 0x00, 0x00, 0x00, 0x00, 0x00, 0x00, 0x00, 0x00, 0x00, 0x00,
   0x00, 0x00, 0x00, 0x00, 0x00, 0x00, 0x00, 0x00, 0x00, 0x00, 0x00, 0x00,
   0x00, 0x00, 0x00, 0x00, 0x00, 0x00, 0x00, 0x00, 0x14, 0x00, 0x00, 0x00,
   0x00, 0x00, 0x00, 0x00, 0x00, 0x00, 0x00, 0x00, 0x00, 0x00, 0x00, 0x00,
   0x00, 0x00, 0x00, 0x00, 0x00, 0x00, 0x00, 0x00, 0x24, 0x00, 0x24, 0x00,
   0x00, 0x00, 0x24, 0x00, 0x00, 0x00, 0x00, 0x00, 0x24, 0x00, 0x48, 0x00,
   0x24, 0x00, 0x00, 0x00, 0x24, 0x00, 0x00, 0x00, 0x00, 0x00, 0x00, 0x00,
   0x7e, 0x00, 0x7e, 0x00, 0x24, 0x24, 0x24, 0x24, 0x3c, 0x00, 0x24, 0x24,
   0x1e, 0x00, 0x7e, 0x00, 0x24, 0x24, 0x24, 0x48, 0x24, 0x24, 0x00, 0x00,
   0x24, 0x24, 0x00, 0x00, 0x00, 0x00, 0x00, 0x00, 0x40, 0x00, 0x00, 0x7e,
   0x00, 0x24, 0x00, 0x24, 0x42, 0x00, 0x00, 0x24, 0x20, 0x28, 0x00, 0x7e,
   0x00, 0x24, 0x00, 0x24, 0x00, 0x24, 0x00, 0x00, 0x00, 0x24, 0x00, 0x00,
   0x00, 0x00, 0x00, 0x00, 0x20, 0x00, 0x42, 0x00, 0x42, 0x00, 0x3c, 0x00,
   0x42, 0x00, 0x3c, 0x00, 0x40, 0x00, 0x42, 0x00, 0x42, 0x00, 0x42, 0x00,
   0x42, 0x00, 0x00, 0x00, 0x42, 0x00, 0x00, 0x00, 0x00, 0x00, 0x00, 0x00,
   0x10, 0x7e, 0x62, 0x42, 0x62, 0x42, 0x42, 0x3c, 0x42, 0x3c, 0x42, 0x3c,
   0x40, 0x3c, 0x42, 0x42, 0x42, 0x42, 0x42, 0x42, 0x42, 0x42, 0x00, 0x00,
   0x42, 0x42, 0x00, 0x00, 0x00, 0x00, 0x00, 0x00, 0x38, 0x20, 0x52, 0x62,
   0x52, 0x62, 0x42, 0x42, 0x7e, 0x42, 0x42, 0x42, 0x7c, 0x40, 0x62, 0x42,
   0x62, 0x42, 0x62, 0x42, 0x62, 0x42, 0x00, 0x00, 0x4e, 0x42, 0x00, 0x00,
   0x00, 0x00, 0x00, 0x00, 0x40, 0x10, 0x4a, 0x52, 0x4a, 0x52, 0x42, 0x42,
   0x42, 0x7e, 0x7e, 0x7e, 0x40, 0x70, 0x5c, 0x42, 0x5c, 0x42, 0x5c, 0x42,
   0x5c, 0x62, 0x00, 0x00, 0x52, 0x4e, 0x00, 0x00, 0x00, 0x00, 0x00, 0x00,
   0x40, 0x38, 0x46, 0x4a, 0x46, 0x4a, 0x42, 0x42, 0x42, 0x42, 0x42, 0x42,
   0x40, 0x40, 0x40, 0x62, 0x40, 0x62, 0x40, 0x62, 0x40, 0x5c, 0x00, 0x00,
   0x52, 0x52, 0x00, 0x00, 0x00, 0x00, 0x00, 0x00, 0x42, 0x40, 0x42, 0x46,
   0x42, 0x46, 0x42, 0x42, 0x42, 0x42, 0x42, 0x42, 0x20, 0x40, 0x42, 0x5c,
   0x42, 0x5c, 0x42, 0x5c, 0x40, 0x40, 0x00, 0x00, 0x52, 0x52, 0x00, 0x00,
   0x00, 0x00, 0x00, 0x00, 0x3c, 0x40, 0x42, 0x42, 0x42, 0x42, 0x3c, 0x3c,
   0x3c, 0x3c, 0x3c, 0x3c, 0x1e, 0x3c, 0x3c, 0x40, 0x3c, 0x40, 0x3c, 0x40,
   0x40, 0x40, 0x00, 0x00, 0x4e, 0x4e, 0x00, 0x00, 0x00, 0x00, 0x00, 0x00,
   0x00, 0x42, 0x00, 0x00, 0x00, 0x00, 0x00, 0x00, 0x00, 0x00, 0x00, 0x00,
   0x00, 0x00, 0x00, 0x42, 0x00, 0x42, 0x00, 0x42, 0x00, 0x00, 0x00, 0x00,
   0x00, 0x00, 0x00, 0x00, 0x00, 0x00, 0x00, 0x00, 0x00, 0x3c, 0x00, 0x00,
   0x00, 0x00, 0x00, 0x00, 0x00, 0x00, 0x00, 0x00, 0x00, 0x00, 0x00, 0x3c,
   0x00, 0x3c, 0x00, 0x3c, 0x00, 0x00, 0x00, 0x00, 0x00, 0x00, 0x00, 0x00,
   0x00, 0x00, 0x00, 0x00, 0x00, 0x00, 0x00, 0x00, 0x00, 0x00, 0x00, 0x00,
   0x00, 0x00, 0x00, 0x00, 0x00, 0x00, 0x00, 0x00, 0x00, 0x00, 0x00, 0x00,
   0x00, 0x00, 0x00, 0x00, 0x00, 0x00, 0x00, 0x00, 0x00, 0x00, 0x00, 0x00,
   0x00, 0x00, 0x00, 0x00, 0x00, 0x00, 0x00, 0x00, 0x00, 0x00, 0x00, 0x00,
   0x00, 0x00, 0x00, 0x00, 0x00, 0x00, 0x00, 0x00, 0x00, 0x00, 0x00, 0x00,
   0x00, 0x00, 0x00, 0x00, 0x00, 0x00, 0x00, 0x00, 0x00, 0x00, 0x00, 0x00,
   0x00, 0x00, 0x00, 0x00, 0x00, 0x00, 0x00, 0x00, 0x00, 0x00, 0x00, 0x00,
   0x00, 0x00, 0x00, 0x00, 0x00, 0x00, 0x00, 0x00, 0x00, 0x00, 0x00, 0x00,
   0x00, 0x00, 0x00, 0x00 };
