#define u000200_u0002FF_width 256
#define u000200_u0002FF_height 128
static unsigned char u000200_u0002FF_bits[] = {
   0x00, 0x00, 0x00, 0x00, 0x00, 0x00, 0x00, 0x00, 0x00, 0x00, 0x00, 0x00,
   0x00, 0x00, 0x00, 0x00, 0x00, 0x00, 0x00, 0x00, 0x00, 0x00, 0x00, 0x00,
   0x00, 0x00, 0x00, 0x00, 0x00, 0x00, 0x00, 0x00, 0x12, 0x00, 0x3c, 0x00,
   0x12, 0x00, 0x3c, 0x00, 0x12, 0x00, 0x1c, 0x00, 0x09, 0x00, 0x1c, 0x00,
   0x12, 0x00, 0x3c, 0x00, 0x12, 0x00, 0x3c, 0x00, 0x00, 0x00, 0x00, 0x00,
   0x00, 0x00, 0x24, 0x24, 0x24, 0x12, 0x42, 0x3c, 0x24, 0x12, 0x42, 0x3c,
   0x24, 0x12, 0x22, 0x1c, 0x12, 0x12, 0x22, 0x3c, 0x24, 0x12, 0x42, 0x3c,
   0x24, 0x12, 0x42, 0x1c, 0x3c, 0x00, 0x7f, 0x00, 0x7e, 0x00, 0x18, 0x18,
   0x00, 0x24, 0x00, 0x42, 0x00, 0x24, 0x00, 0x42, 0x00, 0x24, 0x00, 0x22,
   0x00, 0x24, 0x00, 0x42, 0x00, 0x24, 0x00, 0x42, 0x00, 0x24, 0x00, 0x22,
   0x42, 0x00, 0x08, 0x04, 0x40, 0x00, 0x42, 0x02, 0x18, 0x00, 0x18, 0x00,
   0x7e, 0x00, 0x7e, 0x00, 0x3e, 0x00, 0x3e, 0x00, 0x3e, 0x00, 0x3e, 0x00,
   0x3e, 0x00, 0x3e, 0x00, 0x42, 0x00, 0x42, 0x00, 0x02, 0x00, 0x08, 0x04,
   0x20, 0x7e, 0x42, 0x02, 0x24, 0x3c, 0x24, 0x3c, 0x02, 0x3c, 0x02, 0x3c,
   0x08, 0x18, 0x08, 0x0c, 0x41, 0x3c, 0x41, 0x3c, 0x42, 0x3a, 0x42, 0x3a,
   0x42, 0x22, 0x42, 0x22, 0x02, 0x3c, 0x08, 0x3e, 0x10, 0x40, 0x42, 0x3a,
   0x42, 0x40, 0x42, 0x40, 0x02, 0x42, 0x02, 0x42, 0x08, 0x10, 0x08, 0x08,
   0x41, 0x42, 0x41, 0x42, 0x42, 0x44, 0x42, 0x44, 0x42, 0x22, 0x42, 0x22,
   0x3c, 0x42, 0x08, 0x04, 0x38, 0x20, 0x7e, 0x46, 0x42, 0x7c, 0x42, 0x7c,
   0x1e, 0x7e, 0x1e, 0x7e, 0x08, 0x10, 0x08, 0x08, 0x41, 0x42, 0x41, 0x42,
   0x3e, 0x04, 0x3e, 0x04, 0x42, 0x22, 0x42, 0x22, 0x40, 0x0c, 0x08, 0x04,
   0x40, 0x10, 0x42, 0x42, 0x7e, 0x42, 0x7e, 0x42, 0x02, 0x02, 0x02, 0x02,
   0x08, 0x10, 0x08, 0x08, 0x41, 0x42, 0x41, 0x42, 0x12, 0x04, 0x12, 0x04,
   0x42, 0x22, 0x42, 0x22, 0x40, 0x30, 0x08, 0x04, 0x40, 0x38, 0x42, 0x42,
   0x42, 0x62, 0x42, 0x62, 0x02, 0x42, 0x02, 0x42, 0x08, 0x10, 0x08, 0x08,
   0x41, 0x42, 0x41, 0x42, 0x22, 0x04, 0x22, 0x04, 0x42, 0x22, 0x42, 0x22,
   0x42, 0x42, 0x08, 0x44, 0x42, 0x40, 0x42, 0x42, 0x42, 0x5c, 0x42, 0x5c,
   0x7e, 0x3c, 0x7e, 0x3c, 0x3e, 0x7c, 0x3e, 0x3e, 0x3e, 0x3c, 0x3e, 0x3c,
   0x42, 0x04, 0x42, 0x04, 0x3c, 0x5c, 0x3c, 0x5c, 0x3c, 0x3c, 0x08, 0x38,
   0x3c, 0x40, 0x42, 0x42, 0x00, 0x00, 0x00, 0x00, 0x00, 0x00, 0x00, 0x00,
   0x00, 0x00, 0x00, 0x00, 0x00, 0x00, 0x00, 0x00, 0x00, 0x00, 0x00, 0x00,
   0x00, 0x00, 0x00, 0x00, 0x10, 0x10, 0x10, 0x10, 0x00, 0x42, 0x00, 0x00,
   0x00, 0x00, 0x00, 0x00, 0x00, 0x00, 0x00, 0x00, 0x00, 0x00, 0x00, 0x00,
   0x00, 0x00, 0x00, 0x00, 0x00, 0x00, 0x00, 0x00, 0x00, 0x00, 0x00, 0x00,
   0x08, 0x08, 0x08, 0x08, 0x00, 0x3c, 0x00, 0x00, 0x00, 0x00, 0x00, 0x00,
   0x00, 0x00, 0x00, 0x00, 0x00, 0x00, 0x00, 0x00, 0x00, 0x00, 0x00, 0x00,
   0x00, 0x00, 0x00, 0x00, 0x00, 0x00, 0x00, 0x00, 0x00, 0x00, 0x00, 0x00,
   0x00, 0x00, 0x00, 0x00, 0x00, 0x00, 0x00, 0x00, 0x00, 0x00, 0x00, 0x00,
   0x00, 0x00, 0x00, 0x00, 0x00, 0x00, 0x00, 0x00, 0x00, 0x00, 0x00, 0x00,
   0x00, 0x00, 0x00, 0x00, 0x00, 0x00, 0x00, 0x00, 0x00, 0x00, 0x00, 0x00,
   0x00, 0x00, 0x00, 0x00, 0x00, 0x00, 0x00, 0x00, 0x00, 0x00, 0x00, 0x00,
   0x00, 0x00, 0x00, 0x00, 0x00, 0x00, 0x00, 0x00, 0x00, 0x00, 0x00, 0x00,
   0x00, 0x00, 0x00, 0x00, 0x00, 0x00, 0x00, 0x00, 0x00, 0x00, 0x00, 0x00,
   0x00, 0x00, 0x00, 0x00, 0x00, 0x00, 0x3e, 0x00, 0x3e, 0x7e, 0x08, 0x00,
   0x3e, 0x00, 0x00, 0x00, 0x00, 0x00, 0x00, 0x00, 0x00, 0x00, 0x00, 0x00,
   0x00, 0x00, 0x00, 0x00, 0x00, 0x00, 0x00, 0x00, 0x00, 0x00, 0x18, 0x00,
   0x00, 0x00, 0x00, 0x7e, 0x2c, 0x00, 0x00, 0x00, 0x00, 0x7e, 0x3e, 0x00,
   0x00, 0x00, 0x00, 0x00, 0x00, 0x00, 0x00, 0x00, 0x00, 0x00, 0x00, 0x00,
   0x3a, 0x00, 0x24, 0x28, 0x7e, 0x00, 0x00, 0x00, 0x7e, 0x00, 0x14, 0x00,
   0x1a, 0x28, 0x3e, 0x00, 0x08, 0x00, 0x00, 0x00, 0x00, 0x00, 0x00, 0x00,
   0x00, 0x00, 0x00, 0x00, 0x00, 0x00, 0x00, 0x00, 0x46, 0x00, 0x42, 0x44,
   0x40, 0x00, 0x18, 0x18, 0x02, 0x00, 0x00, 0x24, 0x00, 0x14, 0x41, 0x18,
   0x00, 0x18, 0x41, 0x3c, 0x00, 0x00, 0x00, 0x00, 0x00, 0x00, 0x00, 0x00,
   0x00, 0x00, 0x00, 0x00, 0x42, 0x00, 0x42, 0x44, 0x20, 0x00, 0x24, 0x00,
   0x02, 0x00, 0x3e, 0x00, 0x3e, 0x00, 0x41, 0x00, 0x3e, 0x00, 0x22, 0x00,
   0x00, 0x00, 0x00, 0x00, 0x00, 0x00, 0x00, 0x00, 0x00, 0x00, 0x00, 0x00,
   0x42, 0x00, 0x42, 0x44, 0x10, 0x7e, 0x42, 0x3c, 0x02, 0x3c, 0x41, 0x3c,
   0x41, 0x3c, 0x41, 0x3c, 0x41, 0x3c, 0x14, 0x42, 0x00, 0x00, 0x00, 0x00,
   0x00, 0x00, 0x00, 0x00, 0x00, 0x00, 0x00, 0x00, 0x42, 0x00, 0x3c, 0x38,
   0x08, 0x20, 0x42, 0x40, 0x1e, 0x42, 0x41, 0x42, 0x41, 0x42, 0x41, 0x42,
   0x41, 0x42, 0x08, 0x42, 0x00, 0x00, 0x00, 0x00, 0x00, 0x00, 0x00, 0x00,
   0x00, 0x00, 0x00, 0x00, 0x42, 0x00, 0x42, 0x44, 0x04, 0x10, 0x7e, 0x7c,
   0x02, 0x7e, 0x41, 0x42, 0x41, 0x42, 0x41, 0x42, 0x41, 0x42, 0x08, 0x42,
   0x00, 0x00, 0x00, 0x00, 0x00, 0x00, 0x00, 0x00, 0x00, 0x00, 0x00, 0x00,
   0x42, 0x00, 0x42, 0x44, 0x02, 0x08, 0x42, 0x42, 0x02, 0x02, 0x41, 0x42,
   0x41, 0x42, 0x41, 0x42, 0x41, 0x42, 0x08, 0x62, 0x00, 0x00, 0x00, 0x00,
   0x00, 0x00, 0x00, 0x00, 0x00, 0x00, 0x00, 0x00, 0x42, 0x00, 0x42, 0x44,
   0x02, 0x04, 0x42, 0x62, 0x02, 0x42, 0x41, 0x42, 0x41, 0x42, 0x41, 0x42,
   0x41, 0x42, 0x08, 0x5c, 0x00, 0x00, 0x00, 0x00, 0x00, 0x00, 0x00, 0x00,
   0x00, 0x00, 0x00, 0x00, 0x42, 0x00, 0x3c, 0x38, 0x7e, 0x7e, 0x42, 0x5c,
   0x7e, 0x7c, 0x3e, 0x3c, 0x3e, 0x3c, 0x3e, 0x3c, 0x3e, 0x3c, 0x08, 0x40,
   0x00, 0x00, 0x00, 0x00, 0x00, 0x00, 0x00, 0x00, 0x00, 0x00, 0x00, 0x00,
   0x40, 0x00, 0x00, 0x00, 0x40, 0x40, 0x00, 0x00, 0x40, 0x40, 0x00, 0x00,
   0x00, 0x00, 0x00, 0x00, 0x00, 0x00, 0x00, 0x42, 0x00, 0x00, 0x00, 0x00,
   0x00, 0x00, 0x00, 0x00, 0x00, 0x00, 0x00, 0x00, 0x40, 0x00, 0x00, 0x00,
   0x30, 0x30, 0x00, 0x00, 0x30, 0x30, 0x00, 0x00, 0x00, 0x00, 0x00, 0x00,
   0x00, 0x00, 0x00, 0x3c, 0x00, 0x00, 0x00, 0x00, 0x00, 0x00, 0x00, 0x00,
   0x00, 0x00, 0x00, 0x00, 0x00, 0x00, 0x00, 0x00, 0x00, 0x00, 0x00, 0x00,
   0x00, 0x00, 0x00, 0x00, 0x00, 0x00, 0x00, 0x00, 0x00, 0x00, 0x00, 0x00,
   0x00, 0x00, 0x00, 0x00, 0x00, 0x00, 0x00, 0x00, 0x00, 0x00, 0x00, 0x00,
   0x00, 0x00, 0x00, 0x00, 0x00, 0x00, 0x00, 0x00, 0x00, 0x00, 0x00, 0x00,
   0x00, 0x00, 0x00, 0x00, 0x00, 0x00, 0x00, 0x00, 0x00, 0x00, 0x00, 0x00,
   0x00, 0x00, 0x00, 0x00, 0x00, 0x00, 0x00, 0x00, 0x00, 0x00, 0x00, 0x00,
   0x00, 0x00, 0x00, 0x00, 0x00, 0x00, 0x00, 0x00, 0x00, 0x00, 0x00, 0x00,
   0x00, 0x00, 0x00, 0x00, 0x00, 0x00, 0x00, 0x00, 0x00, 0x00, 0x00, 0x00,
   0x00, 0x00, 0x00, 0x00, 0x00, 0x00, 0x00, 0x00, 0x00, 0x00, 0x00, 0x00,
   0x00, 0x00, 0x00, 0x00, 0x00, 0x00, 0x00, 0x00, 0x00, 0x00, 0x00, 0x00,
   0x00, 0x00, 0x00, 0x00, 0x00, 0x00, 0x00, 0x00, 0x00, 0x00, 0x00, 0x00,
   0x00, 0x00, 0x00, 0x00, 0x00, 0x00, 0x00, 0x00, 0x00, 0x00, 0x00, 0x00,
   0x00, 0x00, 0x00, 0x00, 0x00, 0x00, 0x00, 0x1c, 0x00, 0x00, 0x00, 0x40,
   0x00, 0x00, 0x00, 0x00, 0x00, 0x00, 0x00, 0x00, 0x00, 0x00, 0x00, 0x00,
   0x00, 0x00, 0x00, 0x00, 0x00, 0x00, 0x00, 0x00, 0x00, 0x00, 0x00, 0x00,
   0x00, 0x00, 0x00, 0x22, 0x00, 0x00, 0x20, 0xa0, 0x00, 0x00, 0x00, 0x00,
   0x00, 0x00, 0x00, 0x00, 0x00, 0x00, 0x00, 0x00, 0x00, 0x00, 0x00, 0x00,
   0x00, 0x00, 0x00, 0x00, 0x00, 0x00, 0x00, 0x00, 0x00, 0x00, 0x00, 0x02,
   0x00, 0x00, 0x20, 0x20, 0x00, 0x00, 0x00, 0x00, 0x00, 0x00, 0x00, 0x00,
   0x00, 0x00, 0x00, 0x00, 0x00, 0x00, 0x00, 0x00, 0x00, 0x00, 0x00, 0x00,
   0x00, 0x00, 0x00, 0x00, 0x00, 0x00, 0x00, 0x02, 0x00, 0x00, 0x20, 0x20,
   0x00, 0x00, 0x00, 0x00, 0x00, 0x00, 0x00, 0x00, 0x00, 0x00, 0x00, 0x00,
   0x00, 0x00, 0x00, 0x00, 0x00, 0x00, 0x00, 0x00, 0x00, 0x00, 0x00, 0x00,
   0x3a, 0x5c, 0x3a, 0x3a, 0x3c, 0x3c, 0x2c, 0x2c, 0x3c, 0x3c, 0x1c, 0x3c,
   0x3c, 0x1c, 0x3c, 0x20, 0x00, 0x00, 0x00, 0x00, 0x00, 0x00, 0x00, 0x00,
   0x00, 0x00, 0x00, 0x00, 0x00, 0x00, 0x00, 0x00, 0x46, 0x62, 0x46, 0x46,
   0x42, 0x42, 0x32, 0x32, 0x42, 0x42, 0x22, 0x42, 0x42, 0x62, 0x42, 0x20,
   0x00, 0x00, 0x00, 0x00, 0x00, 0x00, 0x00, 0x00, 0x00, 0x00, 0x00, 0x00,
   0x00, 0x00, 0x00, 0x00, 0x42, 0x42, 0x42, 0x42, 0x40, 0x02, 0x22, 0x22,
   0x7e, 0x40, 0x60, 0x1c, 0x38, 0x98, 0x3a, 0x20, 0x00, 0x00, 0x00, 0x00,
   0x00, 0x00, 0x00, 0x00, 0x00, 0x00, 0x00, 0x00, 0x00, 0x00, 0x00, 0x00,
   0x3e, 0x42, 0x42, 0x42, 0x40, 0x22, 0x22, 0x22, 0x40, 0x7e, 0xbe, 0x02,
   0x40, 0x20, 0x42, 0x7c, 0x00, 0x00, 0x00, 0x00, 0x00, 0x00, 0x00, 0x00,
   0x00, 0x00, 0x00, 0x00, 0x00, 0x00, 0x00, 0x00, 0x02, 0x62, 0x46, 0x46,
   0x42, 0x52, 0x32, 0x32, 0x42, 0x42, 0xa2, 0x42, 0x42, 0x22, 0x42, 0x20,
   0x00, 0x00, 0x00, 0x00, 0x00, 0x00, 0x00, 0x00, 0x00, 0x00, 0x00, 0x00,
   0x00, 0x00, 0x00, 0x00, 0x3c, 0x5c, 0x3a, 0x3a, 0x3c, 0x3c, 0x2c, 0x2c,
   0x3c, 0x3c, 0x1c, 0x3c, 0x3c, 0x1c, 0x3c, 0x20, 0x00, 0x00, 0x00, 0x00,
   0x00, 0x00, 0x00, 0x00, 0x00, 0x00, 0x00, 0x00, 0x00, 0x00, 0x00, 0x00,
   0x00, 0x00, 0x00, 0x00, 0x00, 0x08, 0x20, 0x00, 0x00, 0x00, 0x00, 0x00,
   0x00, 0x00, 0x00, 0x22, 0x00, 0x00, 0x00, 0x00, 0x00, 0x00, 0x00, 0x00,
   0x00, 0x00, 0x00, 0x00, 0x00, 0x00, 0x00, 0x00, 0x00, 0x00, 0x00, 0x00,
   0x00, 0x00, 0x40, 0x00, 0x00, 0x00, 0x00, 0x00, 0x00, 0x00, 0x00, 0x1c,
   0x00, 0x00, 0x00, 0x00, 0x00, 0x00, 0x00, 0x00, 0x00, 0x00, 0x00, 0x00,
   0x00, 0x00, 0x00, 0x00, 0x00, 0x00, 0x00, 0x00, 0x00, 0x00, 0x00, 0x00,
   0x00, 0x00, 0x00, 0x00, 0x00, 0x00, 0x00, 0x00, 0x00, 0x00, 0x00, 0x00,
   0x00, 0x00, 0x00, 0x00, 0x00, 0x00, 0x00, 0x00, 0x00, 0x00, 0x00, 0x00,
   0x00, 0x00, 0x00, 0x00, 0x00, 0x00, 0x00, 0x00, 0x00, 0x00, 0x00, 0x00,
   0x00, 0x00, 0x00, 0x00, 0x00, 0x00, 0x00, 0x00, 0x00, 0x00, 0x00, 0x00,
   0x00, 0x00, 0x00, 0x00, 0x00, 0x00, 0x00, 0x00, 0x00, 0x00, 0x00, 0x00,
   0x00, 0x00, 0x00, 0x00, 0x00, 0x00, 0x00, 0x00, 0x00, 0x00, 0x00, 0x00,
   0x00, 0x00, 0x00, 0x00, 0x00, 0x00, 0x00, 0x00, 0x00, 0x00, 0x00, 0x00,
   0x00, 0x00, 0x00, 0x00, 0x00, 0x00, 0x00, 0x00, 0x00, 0x00, 0x00, 0x00,
   0x00, 0x00, 0x00, 0x00, 0x00, 0x00, 0x00, 0x00, 0x00, 0x00, 0x00, 0x00,
   0x00, 0x00, 0x3c, 0x3c, 0x00, 0x00, 0x00, 0x00, 0x00, 0x00, 0x00, 0x00,
   0x00, 0x00, 0x00, 0x00, 0x00, 0x00, 0x00, 0x00, 0x00, 0x00, 0x00, 0x00,
   0x00, 0x00, 0x00, 0x00, 0x00, 0x00, 0x00, 0x00, 0x00, 0x00, 0x02, 0x02,
   0x00, 0x00, 0x00, 0x0c, 0x0c, 0x0c, 0x06, 0x00, 0x00, 0x00, 0x00, 0x00,
   0x00, 0x00, 0x00, 0x00, 0x00, 0x00, 0x20, 0x00, 0x00, 0x00, 0x00, 0x00,
   0x00, 0x00, 0x00, 0x00, 0x00, 0x00, 0x02, 0x02, 0x08, 0x00, 0x00, 0x08,
   0x08, 0x08, 0x04, 0x00, 0x00, 0x00, 0x00, 0x00, 0x00, 0x00, 0x00, 0x00,
   0x08, 0x00, 0x20, 0x00, 0x00, 0x00, 0x00, 0x00, 0xc0, 0x00, 0x00, 0x00,
   0x00, 0x00, 0x02, 0x02, 0x00, 0x00, 0x00, 0x08, 0x08, 0x08, 0x04, 0x00,
   0x00, 0x00, 0x00, 0x00, 0x00, 0x00, 0x00, 0x00, 0x08, 0x00, 0x20, 0x00,
   0x00, 0x00, 0x00, 0x00, 0x2c, 0x5c, 0x3c, 0x22, 0x44, 0x42, 0x3a, 0x3a,
   0x0c, 0x0c, 0x3e, 0x2c, 0x0c, 0x08, 0x7c, 0x41, 0x41, 0x37, 0x34, 0x1a,
   0x42, 0x3c, 0x7c, 0x3e, 0x3e, 0x20, 0x20, 0x10, 0x3a, 0x3a, 0x38, 0x38,
   0x32, 0x62, 0x42, 0x22, 0xaa, 0x42, 0x46, 0x46, 0x08, 0x08, 0x08, 0x1a,
   0x0a, 0x08, 0x44, 0x49, 0x49, 0x49, 0x4c, 0x26, 0x46, 0x42, 0x12, 0x41,
   0x49, 0x20, 0x20, 0x10, 0x44, 0x44, 0x44, 0x44, 0x22, 0x42, 0x02, 0x14,
   0x10, 0x42, 0x42, 0x42, 0x3e, 0x08, 0x08, 0x08, 0x3c, 0x08, 0x24, 0x49,
   0x49, 0x49, 0x44, 0x22, 0x4a, 0x7e, 0x72, 0x49, 0x49, 0x20, 0x20, 0x10,
   0x04, 0x04, 0x04, 0x40, 0x32, 0x62, 0x62, 0x14, 0x10, 0x42, 0x42, 0x42,
   0x08, 0x08, 0x08, 0x08, 0x08, 0x08, 0x34, 0x49, 0x49, 0x49, 0x44, 0x22,
   0x52, 0x42, 0x12, 0x49, 0x49, 0x20, 0x20, 0x10, 0x04, 0x04, 0x04, 0x40,
   0x2c, 0x5c, 0x42, 0x08, 0x28, 0x62, 0x42, 0x42, 0x08, 0x08, 0x08, 0x08,
   0x08, 0x08, 0x44, 0x49, 0x49, 0x49, 0x44, 0x22, 0x62, 0x42, 0x12, 0x49,
   0x49, 0x22, 0x22, 0x12, 0x04, 0x04, 0x04, 0x40, 0x20, 0x40, 0x3c, 0x14,
   0x10, 0x5c, 0x42, 0x42, 0x3e, 0x30, 0x3e, 0x3e, 0x3e, 0x08, 0x4e, 0x76,
   0x76, 0x41, 0x44, 0xa2, 0x42, 0x3c, 0x7c, 0x36, 0x3e, 0x5c, 0x5c, 0x1c,
   0x04, 0x04, 0x04, 0x40, 0x22, 0x42, 0x00, 0x08, 0x00, 0x40, 0x00, 0x48,
   0x00, 0x00, 0x00, 0x00, 0x00, 0x08, 0x40, 0x00, 0x40, 0x40, 0x04, 0x40,
   0x00, 0x00, 0x00, 0x00, 0x08, 0x00, 0x00, 0x10, 0x04, 0x24, 0x00, 0x00,
   0x1c, 0x3c, 0x00, 0x00, 0x00, 0x40, 0x00, 0x30, 0x00, 0x00, 0x00, 0x00,
   0x00, 0x30, 0x38, 0x00, 0x40, 0x30, 0x03, 0x00, 0x00, 0x00, 0x00, 0x00,
   0x08, 0x00, 0x00, 0x60, 0x04, 0x18, 0x00, 0x00, 0x00, 0x00, 0x00, 0x00,
   0x00, 0x00, 0x00, 0x00, 0x00, 0x00, 0x00, 0x00, 0x00, 0x00, 0x00, 0x00,
   0x00, 0x00, 0x00, 0x00, 0x00, 0x00, 0x00, 0x00, 0x00, 0x00, 0x00, 0x00,
   0x00, 0x00, 0x00, 0x00, 0x00, 0x00, 0x00, 0x00, 0x00, 0x00, 0x00, 0x00,
   0x00, 0x00, 0x00, 0x00, 0x00, 0x00, 0x00, 0x00, 0x00, 0x00, 0x00, 0x00,
   0x00, 0x00, 0x00, 0x00, 0x00, 0x00, 0x00, 0x00, 0x00, 0x00, 0x00, 0x00,
   0x00, 0x00, 0x00, 0x00, 0x00, 0x00, 0x00, 0x00, 0x00, 0x00, 0x00, 0x00,
   0x00, 0x00, 0x00, 0x00, 0x00, 0x00, 0x00, 0x00, 0x00, 0x00, 0x00, 0x00,
   0x00, 0x00, 0x00, 0x00, 0x00, 0x00, 0x00, 0x00, 0x00, 0x00, 0x00, 0x00,
   0x00, 0x00, 0x00, 0x00, 0x00, 0x00, 0x00, 0x00, 0x00, 0x00, 0x00, 0x00,
   0x00, 0x00, 0x00, 0x00, 0x00, 0x00, 0x00, 0x00, 0x00, 0x00, 0x00, 0x00,
   0x00, 0x00, 0x00, 0x00, 0x00, 0x00, 0x00, 0x20, 0x20, 0x08, 0x20, 0x00,
   0x00, 0x00, 0x00, 0x00, 0x00, 0x00, 0x00, 0x00, 0x00, 0x00, 0x00, 0x00,
   0x00, 0x00, 0x00, 0x00, 0x00, 0x00, 0x00, 0x00, 0x00, 0x00, 0x00, 0x00,
   0x00, 0x00, 0x00, 0x50, 0x50, 0x14, 0x50, 0x00, 0x00, 0x00, 0x00, 0x00,
   0x00, 0x00, 0x20, 0x00, 0x00, 0x00, 0x00, 0x00, 0x38, 0x38, 0x10, 0x00,
   0x00, 0x00, 0x00, 0x00, 0x00, 0x00, 0x00, 0x00, 0x00, 0x00, 0x00, 0x10,
   0x10, 0x10, 0x10, 0x00, 0x04, 0x00, 0x00, 0x00, 0x00, 0x00, 0x50, 0x00,
   0x00, 0x00, 0x00, 0x00, 0x44, 0x44, 0x10, 0x00, 0x00, 0x00, 0x00, 0x80,
   0x00, 0x20, 0x00, 0x00, 0x00, 0x00, 0x00, 0x10, 0x10, 0x10, 0x10, 0x00,
   0x04, 0x00, 0x00, 0x00, 0x00, 0x00, 0x10, 0x00, 0x00, 0x00, 0x7e, 0x7e,
   0x40, 0x04, 0x10, 0x00, 0x00, 0x00, 0x1c, 0x40, 0x00, 0x00, 0x00, 0x00,
   0x3e, 0x42, 0x3c, 0x10, 0x10, 0x10, 0x10, 0x1c, 0x3e, 0x22, 0x66, 0x22,
   0x08, 0x22, 0x08, 0x41, 0x7e, 0x7e, 0x40, 0x40, 0x40, 0x04, 0x30, 0x3c,
   0x3c, 0x3e, 0x22, 0x3c, 0x42, 0x30, 0x42, 0x02, 0x42, 0x22, 0x42, 0x10,
   0x10, 0x10, 0x10, 0x22, 0x04, 0x22, 0x24, 0x42, 0x14, 0x55, 0x08, 0x22,
   0x20, 0x20, 0x20, 0x20, 0x40, 0x04, 0x40, 0x42, 0x42, 0x42, 0x42, 0x42,
   0x42, 0x20, 0x44, 0x02, 0x42, 0x3e, 0x0c, 0x10, 0x38, 0x10, 0x10, 0x20,
   0x04, 0x7f, 0x42, 0x42, 0x14, 0x49, 0x14, 0x14, 0x10, 0x10, 0x10, 0x10,
   0x30, 0x18, 0x40, 0x02, 0x5a, 0x3e, 0x5c, 0x02, 0x7e, 0x20, 0x48, 0x02,
   0x3e, 0x42, 0x30, 0x10, 0x10, 0x10, 0x38, 0x20, 0x04, 0x22, 0x42, 0x42,
   0x22, 0x49, 0x14, 0x08, 0x08, 0x48, 0x38, 0x38, 0x10, 0x10, 0x40, 0x02,
   0x5a, 0x42, 0x42, 0x62, 0x42, 0xe0, 0x70, 0x02, 0x22, 0x42, 0x40, 0x10,
   0x10, 0x10, 0x54, 0x20, 0x04, 0x22, 0x42, 0x22, 0x22, 0x41, 0x22, 0x08,
   0x04, 0xa4, 0x40, 0x40, 0x10, 0x10, 0x44, 0x02, 0x42, 0x42, 0x22, 0x42,
   0x42, 0x30, 0x48, 0x02, 0x42, 0x3e, 0x3c, 0x14, 0x14, 0x50, 0x14, 0x7c,
   0x04, 0x5c, 0x3c, 0x1c, 0x22, 0x41, 0x22, 0x08, 0x3e, 0x7e, 0x40, 0x7c,
   0x10, 0x10, 0x38, 0x02, 0x3c, 0x3e, 0x1c, 0x3c, 0x42, 0x28, 0x44, 0x7e,
   0x00, 0x00, 0x02, 0x08, 0x08, 0x20, 0x08, 0x20, 0x44, 0x00, 0x00, 0x00,
   0x00, 0x00, 0x00, 0x00, 0x20, 0x10, 0x42, 0xc2, 0x00, 0x00, 0x00, 0x42,
   0x00, 0x00, 0x00, 0x00, 0x00, 0x24, 0x40, 0x00, 0x00, 0x00, 0x0c, 0x00,
   0x00, 0x00, 0x00, 0x20, 0x38, 0x00, 0x00, 0x00, 0x00, 0x00, 0x00, 0x00,
   0xc0, 0x00, 0x3c, 0x3c, 0x00, 0x00, 0x00, 0x3c, 0x00, 0x00, 0x00, 0x00,
   0x00, 0x18, 0x40, 0x00, 0x00, 0x00, 0x00, 0x00, 0x00, 0x00, 0x00, 0x00,
   0x00, 0x00, 0x00, 0x00, 0x00, 0x00, 0x00, 0x00, 0x00, 0x00, 0x00, 0x00,
   0x00, 0x00, 0x00, 0x00, 0x00, 0x00, 0x00, 0x00, 0x00, 0x00, 0x00, 0x00,
   0x00, 0x00, 0x00, 0x00, 0x00, 0x00, 0x00, 0x00, 0x00, 0x00, 0x00, 0x00,
   0x00, 0x00, 0x00, 0x00, 0x00, 0x00, 0x00, 0x00, 0x00, 0x00, 0x00, 0x00,
   0x00, 0x00, 0x00, 0x00, 0x00, 0x00, 0x00, 0x00, 0x00, 0x00, 0x00, 0x00,
   0x00, 0x00, 0x00, 0x00, 0x00, 0x00, 0x00, 0x00, 0x00, 0x00, 0x00, 0x00,
   0x00, 0x00, 0x00, 0x00, 0x00, 0x00, 0x00, 0x00, 0x00, 0x00, 0x00, 0x00,
   0x00, 0x00, 0x00, 0x00, 0x00, 0x00, 0x00, 0x00, 0x00, 0x00, 0x00, 0x00,
   0x00, 0x00, 0x00, 0x00, 0x00, 0x00, 0x00, 0x00, 0x00, 0x00, 0x00, 0x00,
   0x00, 0x00, 0x00, 0x00, 0x00, 0x00, 0x00, 0x00, 0x00, 0x00, 0x00, 0x00,
   0x00, 0x00, 0x00, 0x00, 0x00, 0x00, 0x00, 0x40, 0x00, 0x00, 0x00, 0x00,
   0x00, 0x00, 0x00, 0x00, 0x00, 0x18, 0x10, 0x00, 0x00, 0x00, 0x00, 0x00,
   0x00, 0x00, 0x00, 0x00, 0x00, 0x00, 0x08, 0x10, 0xc0, 0x38, 0x38, 0x08,
   0x08, 0x08, 0x02, 0xa2, 0x02, 0x1c, 0x06, 0x06, 0x2a, 0x00, 0x00, 0x00,
   0x04, 0x04, 0x00, 0x14, 0x10, 0x10, 0x22, 0x41, 0x22, 0x08, 0x28, 0x10,
   0x18, 0x18, 0x10, 0x08, 0x20, 0x44, 0x44, 0x08, 0x08, 0x08, 0x02, 0x22,
   0x02, 0x22, 0x04, 0x04, 0x2a, 0x00, 0x00, 0x00, 0x14, 0x14, 0x10, 0x2c,
   0x10, 0x10, 0x12, 0x49, 0x14, 0x08, 0x28, 0x08, 0x10, 0x08, 0x10, 0x08,
   0x20, 0x40, 0x04, 0x08, 0x08, 0x08, 0x02, 0x22, 0x02, 0x02, 0x04, 0x04,
   0x14, 0x7e, 0x00, 0x00, 0x2c, 0x2c, 0x10, 0x04, 0x10, 0x10, 0x0e, 0x49,
   0x08, 0x04, 0x14, 0x18, 0x08, 0x10, 0x08, 0x10, 0x2c, 0x40, 0x04, 0xea,
   0xea, 0xea, 0xcf, 0x2f, 0x6f, 0x02, 0x34, 0x7c, 0x14, 0x42, 0x00, 0x00,
   0x24, 0x24, 0x14, 0x04, 0x1a, 0x1a, 0x12, 0x36, 0x04, 0x00, 0x00, 0x00,
   0x00, 0x00, 0x00, 0x00, 0x32, 0x40, 0x04, 0x8d, 0x8d, 0x8d, 0x22, 0x22,
   0x92, 0x2f, 0x4c, 0x44, 0x00, 0x00, 0x00, 0x00, 0x24, 0x24, 0x08, 0x04,
   0x14, 0x54, 0x0e, 0x00, 0x02, 0x00, 0x00, 0x00, 0x00, 0x00, 0x00, 0x00,
   0x22, 0x30, 0x18, 0x49, 0x49, 0x49, 0x42, 0x22, 0x12, 0x5a, 0x14, 0x24,
   0x2a, 0x7e, 0x00, 0x00, 0x00, 0x00, 0x00, 0x00, 0x00, 0x20, 0x00, 0x00,
   0x00, 0x00, 0x00, 0x00, 0x00, 0x00, 0x00, 0x00, 0x32, 0x10, 0x10, 0x49,
   0x69, 0x49, 0x82, 0x22, 0x52, 0x4a, 0x24, 0x14, 0x2a, 0x42, 0x00, 0x00,
   0x00, 0x00, 0x00, 0x00, 0x00, 0x00, 0x00, 0x00, 0x00, 0x00, 0x00, 0x00,
   0x00, 0x00, 0x00, 0x00, 0x2c, 0x38, 0x38, 0x2d, 0x8d, 0xad, 0x82, 0x22,
   0xb2, 0x4a, 0x4c, 0x0c, 0x14, 0x00, 0x00, 0x00, 0x00, 0x00, 0x00, 0x00,
   0x00, 0x00, 0x00, 0x00, 0x00, 0x00, 0x00, 0x00, 0x00, 0x00, 0x00, 0x00,
   0x20, 0x10, 0x10, 0xea, 0x8a, 0xea, 0x6c, 0x24, 0x6c, 0x4a, 0x3e, 0x7e,
   0x14, 0x00, 0x00, 0x00, 0x00, 0x00, 0x00, 0x00, 0x00, 0x00, 0x00, 0x00,
   0x00, 0x00, 0x00, 0x00, 0x00, 0x00, 0x00, 0x00, 0x20, 0x10, 0x10, 0x00,
   0x60, 0x40, 0x00, 0x28, 0x20, 0x40, 0x00, 0x00, 0x00, 0x00, 0x00, 0x00,
   0x00, 0x00, 0x00, 0x00, 0x00, 0x00, 0x00, 0x00, 0x00, 0x00, 0x00, 0x00,
   0x00, 0x00, 0x00, 0x00, 0x20, 0x00, 0x00, 0x00, 0x00, 0x40, 0x00, 0x10,
   0x00, 0x30, 0x00, 0x00, 0x00, 0x00, 0x00, 0x00, 0x00, 0x00, 0x00, 0x00,
   0x00, 0x00, 0x00, 0x00, 0x00, 0x00, 0x00, 0x00, 0x00, 0x00, 0x00, 0x00,
   0x00, 0x00, 0x00, 0x00, 0x00, 0x00, 0x00, 0x00, 0x00, 0x00, 0x00, 0x00,
   0x00, 0x00, 0x00, 0x00, 0x00, 0x00, 0x00, 0x00, 0x00, 0x00, 0x00, 0x00,
   0x00, 0x00, 0x00, 0x00, 0x00, 0x00, 0x00, 0x00, 0x00, 0x00, 0x00, 0x00,
   0x00, 0x00, 0x00, 0x00, 0x00, 0x00, 0x00, 0x00, 0x00, 0x00, 0x00, 0x00,
   0x00, 0x00, 0x00, 0x00, 0x00, 0x00, 0x00, 0x00, 0x00, 0x00, 0x00, 0x00,
   0x00, 0x00, 0x00, 0x00, 0x00, 0x00, 0x00, 0x00, 0x00, 0x00, 0x00, 0x00,
   0x00, 0x00, 0x00, 0x00, 0x00, 0x00, 0x00, 0x00, 0x00, 0x00, 0x00, 0x00,
   0x00, 0x00, 0x00, 0x00, 0x00, 0x00, 0x00, 0x00, 0x00, 0x00, 0x00, 0x00,
   0x00, 0x00, 0x00, 0x00, 0x00, 0x00, 0x00, 0x00, 0x00, 0x00, 0x00, 0x00,
   0x00, 0x00, 0x00, 0x00, 0x00, 0x00, 0x00, 0x00, 0x00, 0x00, 0x00, 0x00,
   0x00, 0x00, 0x18, 0x00, 0x00, 0x00, 0x00, 0x00, 0x08, 0x08, 0x10, 0x04,
   0x08, 0x22, 0x18, 0x24, 0x00, 0x00, 0x00, 0x00, 0x00, 0x00, 0x00, 0x00,
   0x00, 0x00, 0x00, 0x00, 0x00, 0x00, 0x00, 0x00, 0x42, 0x00, 0x24, 0x00,
   0x28, 0x44, 0x00, 0x14, 0x14, 0x14, 0x08, 0x08, 0x14, 0x14, 0x24, 0x18,
   0x08, 0x3e, 0x08, 0x04, 0x00, 0x00, 0x00, 0x00, 0x00, 0x00, 0x00, 0x00,
   0x00, 0x00, 0x00, 0x00, 0x3c, 0x18, 0x18, 0x00, 0x14, 0x22, 0x00, 0x08,
   0x10, 0x04, 0x04, 0x10, 0x22, 0x08, 0x00, 0x00, 0x08, 0x00, 0x04, 0x08,
   0x00, 0x00, 0x00, 0x00, 0x00, 0x00, 0x00, 0x00, 0x00, 0x00, 0x00, 0x00,
   0x00, 0x00, 0x00, 0x00, 0x00, 0x00, 0x00, 0x14, 0x08, 0x08, 0x08, 0x08,
   0x00, 0x00, 0x00, 0x00, 0x08, 0x00, 0x00, 0x00, 0x00, 0x00, 0x00, 0x00,
   0x00, 0x00, 0x00, 0x00, 0x08, 0x00, 0x08, 0x00, 0x00, 0x00, 0x00, 0x00,
   0x00, 0x00, 0x00, 0x00, 0x08, 0x08, 0x10, 0x04, 0x00, 0x00, 0x00, 0x00,
   0x00, 0x00, 0x00, 0x00, 0x00, 0x00, 0x00, 0x00, 0x1c, 0x1c, 0x08, 0x08,
   0x08, 0x00, 0x08, 0x22, 0x00, 0x00, 0x00, 0x00, 0x00, 0x00, 0x06, 0x00,
   0x00, 0x00, 0x00, 0x00, 0x00, 0x00, 0x00, 0x00, 0x00, 0x00, 0x00, 0x00,
   0x00, 0x00, 0x00, 0x00, 0x08, 0x08, 0x10, 0x04, 0x3e, 0x3e, 0x3e, 0x3e,
   0x00, 0x00, 0x00, 0x00, 0x00, 0x00, 0x49, 0x00, 0x00, 0x00, 0x00, 0x00,
   0x00, 0x00, 0x00, 0x00, 0x00, 0x00, 0x00, 0x00, 0x00, 0x00, 0x00, 0x00,
   0x00, 0x00, 0x10, 0x04, 0x00, 0x08, 0x08, 0x22, 0x00, 0x00, 0x00, 0x00,
   0x00, 0x00, 0x30, 0x00, 0x00, 0x00, 0x00, 0x00, 0x00, 0x00, 0x00, 0x00,
   0x00, 0x00, 0x00, 0x00, 0x04, 0x00, 0x00, 0x00, 0x00, 0x00, 0x08, 0x08,
   0x00, 0x08, 0x08, 0x00, 0x00, 0x00, 0x00, 0x00, 0x00, 0x00, 0x00, 0x00,
   0x00, 0x00, 0x00, 0x00, 0x00, 0x00, 0x00, 0x00, 0x00, 0x00, 0x00, 0x00,
   0x04, 0x00, 0x00, 0x00, 0x08, 0x00, 0x00, 0x00, 0x00, 0x00, 0x00, 0x00,
   0x00, 0x00, 0x00, 0x00, 0x00, 0x00, 0x00, 0x00, 0x00, 0x00, 0x00, 0x00,
   0x00, 0x00, 0x00, 0x00, 0x00, 0x00, 0x00, 0x00, 0x04, 0x00, 0x00, 0x00,
   0x1c, 0x00, 0x00, 0x00, 0x00, 0x00, 0x00, 0x00, 0x00, 0x00, 0x00, 0x00,
   0x00, 0x00, 0x00, 0x00, 0x00, 0x00, 0x00, 0x00, 0x00, 0x00, 0x00, 0x00,
   0x00, 0x00, 0x00, 0x00, 0x00, 0x00, 0x08, 0x08, 0x00, 0x00, 0x00, 0x00,
   0x00, 0x00, 0x00, 0x00, 0x00, 0x00, 0x00, 0x08, 0x00, 0x00, 0x00, 0x00,
   0x00, 0x00, 0x00, 0x00, 0x00, 0x00, 0x00, 0x00, 0x00, 0x00, 0x00, 0x00,
   0x00, 0x1c, 0x10, 0x04, 0x00, 0x00, 0x00, 0x00, 0x00, 0x00, 0x00, 0x00,
   0x00, 0x00, 0x00, 0x38, 0x00, 0x00, 0x00, 0x00, 0x00, 0x00, 0x00, 0x00,
   0x00, 0x00, 0x00, 0x00, 0x00, 0x00, 0x00, 0x00, 0x00, 0x00, 0x00, 0x00,
   0x00, 0x00, 0x00, 0x00, 0x00, 0x00, 0x00, 0x00, 0x00, 0x00, 0x00, 0x00,
   0x00, 0x00, 0x00, 0x00, 0x00, 0x00, 0x00, 0x00, 0x00, 0x00, 0x00, 0x00,
   0x00, 0x00, 0x00, 0x00, 0x00, 0x00, 0x00, 0x00, 0x00, 0x00, 0x00, 0x00,
   0x00, 0x00, 0x00, 0x00, 0x00, 0x00, 0x00, 0x00, 0x00, 0x00, 0x00, 0x00,
   0x00, 0x00, 0x00, 0x00, 0x00, 0x00, 0x00, 0x00, 0x00, 0x00, 0x00, 0x00,
   0x00, 0x00, 0x00, 0x00, 0x00, 0x00, 0x00, 0x00, 0x00, 0x00, 0x00, 0x00,
   0x00, 0x00, 0x00, 0x00, 0x00, 0x00, 0x00, 0x00, 0x00, 0x00, 0x00, 0x00,
   0x00, 0x00, 0x00, 0x00, 0x00, 0x00, 0x00, 0x00, 0x00, 0x00, 0x00, 0x00,
   0x00, 0x00, 0x00, 0x00, 0x00, 0x00, 0x00, 0x00, 0x00, 0x00, 0x00, 0x00,
   0x00, 0x00, 0x00, 0x00, 0x00, 0x0c, 0x00, 0x00, 0x00, 0x00, 0x00, 0x00,
   0x00, 0x00, 0x00, 0x00, 0x00, 0x00, 0x00, 0x00, 0x00, 0x00, 0x00, 0x00,
   0x00, 0x00, 0x00, 0x00, 0x00, 0x00, 0x00, 0x00, 0x00, 0x00, 0x00, 0x00,
   0x22, 0x08, 0x18, 0x24, 0x1c, 0x1e, 0x10, 0x10, 0x10, 0x10, 0x00, 0x00,
   0x00, 0x7e, 0x66, 0x00, 0x00, 0x00, 0x00, 0x00, 0x00, 0x00, 0x00, 0x00,
   0x00, 0x00, 0x00, 0x00, 0x00, 0x00, 0x00, 0x00, 0x14, 0x08, 0x04, 0x18,
   0x22, 0x10, 0x10, 0x10, 0x10, 0x10, 0x00, 0x00, 0x00, 0x00, 0x44, 0x00,
   0x00, 0x00, 0x00, 0x00, 0x00, 0x00, 0x00, 0x00, 0x00, 0x00, 0x00, 0x00,
   0x00, 0x00, 0x00, 0x00, 0x08, 0x08, 0x08, 0x18, 0x02, 0x10, 0x1e, 0x10,
   0x10, 0x10, 0x00, 0x04, 0x00, 0x7e, 0x22, 0x00, 0x00, 0x00, 0x00, 0x00,
   0x00, 0x00, 0x00, 0x00, 0x00, 0x00, 0x00, 0x00, 0x00, 0x00, 0x00, 0x00,
   0x14, 0x1c, 0x10, 0x24, 0x02, 0x10, 0x10, 0x10, 0x10, 0x10, 0x00, 0x04,
   0x00, 0x00, 0x00, 0x00, 0x00, 0x00, 0x00, 0x00, 0x00, 0x00, 0x00, 0x00,
   0x00, 0x00, 0x00, 0x00, 0x00, 0x00, 0x00, 0x00, 0x08, 0x00, 0x0c, 0x00,
   0x0c, 0x10, 0x10, 0x10, 0x10, 0x10, 0x00, 0x04, 0x00, 0x00, 0x00, 0x00,
   0x00, 0x00, 0x00, 0x00, 0x00, 0x00, 0x00, 0x00, 0x00, 0x00, 0x00, 0x00,
   0x00, 0x00, 0x00, 0x00, 0x00, 0x00, 0x00, 0x00, 0x08, 0x10, 0x10, 0x1e,
   0x10, 0x10, 0x02, 0x3c, 0x00, 0x00, 0x00, 0x00, 0x00, 0x00, 0x00, 0x00,
   0x00, 0x00, 0x00, 0x00, 0x00, 0x00, 0x00, 0x00, 0x00, 0x00, 0x00, 0x00,
   0x00, 0x00, 0x00, 0x00, 0x08, 0x10, 0x10, 0x10, 0x10, 0x10, 0x02, 0x04,
   0x00, 0x00, 0x00, 0x00, 0x00, 0x00, 0x00, 0x00, 0x00, 0x00, 0x00, 0x00,
   0x00, 0x00, 0x00, 0x00, 0x00, 0x00, 0x00, 0x00, 0x00, 0x00, 0x00, 0x00,
   0x00, 0x10, 0x10, 0x10, 0x10, 0x10, 0x02, 0x04, 0x00, 0x00, 0x00, 0x00,
   0x00, 0x00, 0x00, 0x00, 0x00, 0x00, 0x00, 0x00, 0x00, 0x00, 0x00, 0x00,
   0x00, 0x00, 0x00, 0x00, 0x00, 0x00, 0x00, 0x00, 0x00, 0x10, 0x10, 0x10,
   0x1e, 0x10, 0x1e, 0x04, 0x22, 0x00, 0x00, 0x00, 0x00, 0x00, 0x00, 0x00,
   0x00, 0x00, 0x00, 0x00, 0x00, 0x00, 0x00, 0x00, 0x00, 0x00, 0x00, 0x00,
   0x00, 0x00, 0x00, 0x00, 0x00, 0x10, 0x10, 0x10, 0x10, 0x10, 0x00, 0x00,
   0x14, 0x00, 0x00, 0x00, 0x00, 0x00, 0x00, 0x00, 0x00, 0x00, 0x00, 0x00,
   0x00, 0x00, 0x00, 0x00, 0x00, 0x00, 0x00, 0x00, 0x00, 0x00, 0x00, 0x00,
   0x00, 0x10, 0x10, 0x10, 0x10, 0x1e, 0x00, 0x00, 0x08, 0x00, 0x00, 0x00,
   0x00, 0x00, 0x00, 0x00, 0x00, 0x00, 0x00, 0x00, 0x00, 0x00, 0x00, 0x00,
   0x00, 0x00, 0x00, 0x00, 0x00, 0x00, 0x00, 0x00, 0x00, 0x00, 0x00, 0x00,
   0x00, 0x00, 0x00, 0x00, 0x00, 0x00, 0x00, 0x00, 0x00, 0x00, 0x00, 0x00,
   0x00, 0x00, 0x00, 0x00, 0x00, 0x00, 0x00, 0x00, 0x00, 0x00, 0x00, 0x00,
   0x00, 0x00, 0x00, 0x00, 0x00, 0x00, 0x00, 0x00, 0x00, 0x00, 0x00, 0x00,
   0x00, 0x00, 0x00, 0x00, 0x00, 0x00, 0x00, 0x00, 0x00, 0x00, 0x00, 0x00,
   0x00, 0x00, 0x00, 0x00, 0x00, 0x00, 0x00, 0x00, 0x00, 0x00, 0x00, 0x00,
   0x00, 0x00, 0x00, 0x00, 0x00, 0x00, 0x00, 0x00, 0x00, 0x00, 0x00, 0x00,
   0x00, 0x00, 0x00, 0x00, 0x00, 0x00, 0x00, 0x00, 0x00, 0x00, 0x00, 0x00,
   0x00, 0x00, 0x00, 0x00 };
