#define u000100_u0001FF_width 256
#define u000100_u0001FF_height 128
static unsigned char u000100_u0001FF_bits[] = {
   0x00, 0x00, 0x00, 0x00, 0x00, 0x00, 0x00, 0x00, 0x00, 0x00, 0x00, 0x00,
   0x00, 0x00, 0x00, 0x00, 0x00, 0x00, 0x00, 0x00, 0x00, 0x00, 0x00, 0x00,
   0x00, 0x00, 0x00, 0x00, 0x00, 0x00, 0x00, 0x00, 0x7e, 0x00, 0x42, 0x00,
   0x00, 0x00, 0x10, 0x00, 0x18, 0x00, 0x18, 0x00, 0x24, 0x00, 0x24, 0x24,
   0x00, 0x00, 0x7e, 0x00, 0x42, 0x00, 0x18, 0x00, 0x00, 0x00, 0x24, 0x00,
   0x18, 0x00, 0x42, 0x00, 0x00, 0x00, 0x3c, 0x42, 0x18, 0x00, 0x08, 0x10,
   0x24, 0x18, 0x00, 0x00, 0x18, 0x24, 0x18, 0x18, 0x1e, 0x20, 0x00, 0x00,
   0x3c, 0x42, 0x00, 0x00, 0x7e, 0x00, 0x18, 0x24, 0x24, 0x18, 0x3c, 0x42,
   0x18, 0x7e, 0x00, 0x3c, 0x24, 0x00, 0x00, 0x08, 0x00, 0x24, 0x3c, 0x18,
   0x00, 0x18, 0x00, 0x40, 0x22, 0x78, 0x7e, 0x7e, 0x00, 0x3c, 0x7e, 0x18,
   0x02, 0x00, 0x00, 0x18, 0x00, 0x24, 0x00, 0x3c, 0x24, 0x00, 0x18, 0x00,
   0x42, 0x00, 0x3c, 0x00, 0x3c, 0x00, 0x42, 0x00, 0x3c, 0x00, 0x1e, 0x40,
   0x42, 0x20, 0x02, 0x00, 0x7e, 0x00, 0x02, 0x00, 0x02, 0x00, 0x7e, 0x00,
   0x3c, 0x00, 0x3c, 0x00, 0x42, 0x3c, 0x24, 0x3c, 0x42, 0x3c, 0x42, 0x3c,
   0x42, 0x3c, 0x02, 0x3c, 0x42, 0x3c, 0x22, 0x5c, 0x42, 0x2e, 0x02, 0x3c,
   0x02, 0x3c, 0x02, 0x3c, 0x02, 0x3c, 0x02, 0x3c, 0x42, 0x5c, 0x42, 0x5c,
   0x42, 0x40, 0x42, 0x40, 0x42, 0x40, 0x02, 0x42, 0x02, 0x42, 0x02, 0x42,
   0x02, 0x42, 0x42, 0x62, 0x4f, 0x31, 0x1e, 0x42, 0x02, 0x42, 0x1e, 0x42,
   0x1e, 0x42, 0x02, 0x42, 0x02, 0x22, 0x02, 0x22, 0x7e, 0x7c, 0x42, 0x7c,
   0x7e, 0x7c, 0x02, 0x02, 0x02, 0x02, 0x02, 0x02, 0x02, 0x02, 0x42, 0x42,
   0x42, 0x21, 0x02, 0x7e, 0x1e, 0x7e, 0x02, 0x7e, 0x02, 0x7e, 0x1e, 0x7e,
   0x72, 0x22, 0x72, 0x22, 0x42, 0x42, 0x7e, 0x42, 0x42, 0x42, 0x02, 0x02,
   0x02, 0x02, 0x02, 0x02, 0x02, 0x02, 0x42, 0x42, 0x42, 0x21, 0x02, 0x02,
   0x02, 0x02, 0x02, 0x02, 0x02, 0x02, 0x02, 0x02, 0x42, 0x1c, 0x42, 0x1c,
   0x42, 0x62, 0x42, 0x62, 0x42, 0x62, 0x42, 0x42, 0x42, 0x42, 0x42, 0x42,
   0x42, 0x42, 0x22, 0x62, 0x22, 0x31, 0x02, 0x42, 0x02, 0x42, 0x02, 0x42,
   0x02, 0x42, 0x02, 0x42, 0x62, 0x02, 0x62, 0x02, 0x42, 0x5c, 0x42, 0x5c,
   0x42, 0x5c, 0x3c, 0x3c, 0x3c, 0x3c, 0x3c, 0x3c, 0x3c, 0x3c, 0x1e, 0x5c,
   0x1e, 0x2e, 0x7e, 0x3c, 0x7e, 0x3c, 0x7e, 0x3c, 0x7e, 0x3c, 0x7e, 0x3c,
   0x5c, 0x3c, 0x5c, 0x3c, 0x00, 0x00, 0x00, 0x00, 0x20, 0x20, 0x00, 0x00,
   0x00, 0x00, 0x00, 0x00, 0x00, 0x00, 0x00, 0x00, 0x00, 0x00, 0x00, 0x00,
   0x00, 0x00, 0x00, 0x00, 0x08, 0x08, 0x00, 0x00, 0x00, 0x42, 0x00, 0x42,
   0x00, 0x00, 0x00, 0x00, 0xc0, 0xc0, 0x00, 0x00, 0x00, 0x00, 0x00, 0x00,
   0x00, 0x00, 0x00, 0x00, 0x00, 0x00, 0x00, 0x00, 0x00, 0x00, 0x00, 0x00,
   0x38, 0x38, 0x00, 0x00, 0x00, 0x3c, 0x00, 0x3c, 0x00, 0x00, 0x00, 0x00,
   0x00, 0x00, 0x00, 0x00, 0x00, 0x00, 0x00, 0x00, 0x00, 0x00, 0x00, 0x00,
   0x00, 0x00, 0x00, 0x00, 0x00, 0x00, 0x00, 0x00, 0x00, 0x00, 0x00, 0x00,
   0x00, 0x00, 0x00, 0x00, 0x00, 0x00, 0x00, 0x00, 0x00, 0x00, 0x00, 0x00,
   0x00, 0x00, 0x00, 0x00, 0x00, 0x00, 0x00, 0x00, 0x00, 0x00, 0x00, 0x00,
   0x00, 0x00, 0x00, 0x00, 0x00, 0x00, 0x00, 0x00, 0x00, 0x00, 0x00, 0x00,
   0x00, 0x00, 0x00, 0x00, 0x00, 0x00, 0x00, 0x00, 0x00, 0x00, 0x00, 0x00,
   0x00, 0x00, 0x00, 0x00, 0x00, 0x00, 0x00, 0x00, 0x00, 0x00, 0x00, 0x00,
   0x00, 0x00, 0x00, 0x00, 0x00, 0x00, 0x00, 0x00, 0x00, 0x00, 0x00, 0x00,
   0x00, 0x00, 0x00, 0x00, 0x00, 0x00, 0x00, 0x00, 0x00, 0x00, 0x00, 0x00,
   0x00, 0x00, 0x00, 0x00, 0x00, 0x00, 0x00, 0x00, 0x00, 0x00, 0x10, 0x00,
   0x00, 0x12, 0x12, 0x00, 0x18, 0x00, 0x00, 0x10, 0x18, 0x30, 0x00, 0x00,
   0x26, 0x00, 0x3e, 0x00, 0x22, 0x00, 0x00, 0x00, 0x08, 0x00, 0x00, 0x00,
   0x30, 0x00, 0x00, 0x00, 0x00, 0x10, 0x08, 0x00, 0x00, 0x0c, 0x0c, 0x00,
   0x00, 0x00, 0x3c, 0x08, 0x24, 0x48, 0x42, 0x02, 0x19, 0x26, 0x00, 0x00,
   0x1c, 0x22, 0x3e, 0x00, 0x00, 0x00, 0x77, 0x00, 0x48, 0x30, 0x42, 0x02,
   0x00, 0x08, 0x00, 0x02, 0x0c, 0x00, 0x00, 0x02, 0x3c, 0x18, 0x42, 0x18,
   0x00, 0x02, 0x42, 0x1f, 0x00, 0x19, 0x3e, 0x3e, 0x00, 0x1c, 0x08, 0x0c,
   0x3e, 0x00, 0x42, 0x42, 0x00, 0x48, 0x22, 0x02, 0x00, 0x02, 0x0c, 0x02,
   0x08, 0x02, 0x0c, 0x02, 0x42, 0x00, 0x02, 0x00, 0x42, 0x02, 0xff, 0x02,
   0x3e, 0x00, 0x08, 0x00, 0x3e, 0x00, 0x08, 0x00, 0x08, 0x00, 0x42, 0x00,
   0x78, 0x00, 0x12, 0x02, 0x00, 0x02, 0x08, 0x02, 0x08, 0x02, 0x08, 0x02,
   0x02, 0x5c, 0x02, 0x5c, 0x42, 0x02, 0x42, 0x3a, 0x08, 0x0c, 0x08, 0x0c,
   0x08, 0x0c, 0x08, 0x0c, 0x08, 0x0c, 0x42, 0x63, 0x20, 0x30, 0x0a, 0x22,
   0x42, 0x02, 0x08, 0x02, 0x08, 0x02, 0x08, 0x12, 0x02, 0x22, 0x02, 0x22,
   0x42, 0x3a, 0x7e, 0x46, 0x08, 0x08, 0x08, 0x08, 0x08, 0x08, 0x08, 0x08,
   0x08, 0x08, 0x42, 0x42, 0x20, 0x20, 0x06, 0x12, 0x22, 0x02, 0x08, 0x02,
   0x08, 0x02, 0x08, 0x12, 0x72, 0x22, 0x72, 0x22, 0x7e, 0x46, 0x42, 0x42,
   0x08, 0x08, 0x08, 0x08, 0x08, 0x08, 0x08, 0x08, 0x08, 0x08, 0x42, 0x42,
   0x20, 0x20, 0x0a, 0x0e, 0x1e, 0x02, 0x08, 0x02, 0x08, 0x02, 0x08, 0x02,
   0x42, 0x1c, 0x42, 0x1c, 0x42, 0x42, 0x42, 0x42, 0x08, 0x08, 0x08, 0x08,
   0x08, 0x08, 0x08, 0x08, 0x08, 0x08, 0x42, 0x42, 0x20, 0x20, 0x12, 0x12,
   0x22, 0x02, 0x08, 0x02, 0x08, 0x02, 0x08, 0x02, 0x62, 0x02, 0x62, 0x02,
   0x42, 0x42, 0x42, 0x42, 0x08, 0x08, 0x08, 0x08, 0x08, 0x08, 0x08, 0x08,
   0x08, 0x08, 0x4a, 0x42, 0x22, 0x20, 0x22, 0x22, 0x42, 0x02, 0x08, 0x02,
   0x08, 0x02, 0x08, 0x02, 0x5c, 0x3c, 0x5c, 0x3c, 0x42, 0x42, 0x42, 0x42,
   0x3e, 0x3e, 0x3e, 0x3e, 0x3e, 0x3e, 0x3e, 0x3e, 0x3e, 0x3e, 0x37, 0x4f,
   0x1c, 0x22, 0x42, 0x42, 0x42, 0x7e, 0x3e, 0x7e, 0x3e, 0x7e, 0x3e, 0x7e,
   0x00, 0x42, 0x10, 0x42, 0x00, 0x00, 0x00, 0x00, 0x00, 0x00, 0x00, 0x00,
   0x00, 0x00, 0x08, 0x08, 0x00, 0x00, 0x00, 0x48, 0x00, 0x22, 0x04, 0x04,
   0x00, 0x00, 0x00, 0x10, 0x08, 0x00, 0x00, 0x00, 0x00, 0x3c, 0x08, 0x3c,
   0x00, 0x00, 0x00, 0x00, 0x00, 0x00, 0x00, 0x00, 0x00, 0x00, 0x18, 0x18,
   0x00, 0x00, 0x00, 0x30, 0x00, 0x1c, 0x03, 0x03, 0x00, 0x00, 0x00, 0x08,
   0x04, 0x00, 0x00, 0x00, 0x00, 0x00, 0x00, 0x00, 0x00, 0x00, 0x00, 0x00,
   0x00, 0x00, 0x00, 0x00, 0x00, 0x00, 0x00, 0x00, 0x00, 0x00, 0x00, 0x00,
   0x00, 0x00, 0x00, 0x00, 0x00, 0x00, 0x00, 0x00, 0x00, 0x00, 0x00, 0x00,
   0x00, 0x00, 0x00, 0x00, 0x00, 0x00, 0x00, 0x00, 0x00, 0x00, 0x00, 0x00,
   0x00, 0x00, 0x00, 0x00, 0x00, 0x00, 0x00, 0x00, 0x00, 0x00, 0x00, 0x00,
   0x00, 0x00, 0x00, 0x00, 0x00, 0x00, 0x00, 0x00, 0x00, 0x00, 0x00, 0x00,
   0x00, 0x00, 0x00, 0x00, 0x00, 0x00, 0x00, 0x00, 0x00, 0x00, 0x00, 0x00,
   0x00, 0x00, 0x00, 0x00, 0x00, 0x00, 0x00, 0x00, 0x00, 0x00, 0x00, 0x00,
   0x00, 0x00, 0x00, 0x00, 0x00, 0x00, 0x00, 0x00, 0x00, 0x00, 0x00, 0x00,
   0x00, 0x00, 0x00, 0x00, 0x00, 0x00, 0x00, 0x00, 0x00, 0x00, 0x00, 0x00,
   0x00, 0x00, 0x00, 0x00, 0x00, 0x00, 0x00, 0x00, 0x00, 0x00, 0x00, 0x00,
   0x00, 0x00, 0x00, 0x10, 0x00, 0x00, 0x00, 0x24, 0x00, 0x03, 0x00, 0x00,
   0x00, 0x00, 0x22, 0x00, 0x24, 0x00, 0x00, 0x00, 0x10, 0x00, 0x00, 0x00,
   0x24, 0x00, 0x10, 0x00, 0x18, 0x00, 0x00, 0x00, 0x0c, 0x02, 0x0c, 0x08,
   0x10, 0x42, 0x00, 0x18, 0x24, 0x02, 0x42, 0x00, 0x3e, 0x00, 0x1c, 0x42,
   0x12, 0x48, 0x7e, 0x00, 0x08, 0x10, 0x3e, 0x00, 0x18, 0x24, 0x08, 0x10,
   0x24, 0x18, 0x3c, 0x00, 0x08, 0x02, 0x08, 0x42, 0x08, 0x42, 0x00, 0x42,
   0x18, 0x01, 0x42, 0x00, 0x00, 0x7e, 0x00, 0x3c, 0x00, 0x24, 0x09, 0x00,
   0x00, 0x08, 0x42, 0x00, 0x00, 0x18, 0x00, 0x08, 0x00, 0x24, 0x42, 0x00,
   0x08, 0x02, 0x08, 0x42, 0x00, 0x46, 0x00, 0x42, 0x00, 0x00, 0x46, 0x00,
   0x3e, 0x00, 0x3e, 0x00, 0x3e, 0x00, 0x09, 0x00, 0x3e, 0x00, 0x42, 0x00,
   0x3e, 0x00, 0x3c, 0x00, 0x3c, 0x00, 0x02, 0x00, 0x48, 0x06, 0x18, 0x46,
   0x3a, 0x4a, 0x3a, 0x46, 0x3a, 0x3a, 0x4a, 0x3a, 0x41, 0x3c, 0x41, 0x3c,
   0x41, 0x3c, 0x09, 0x36, 0x42, 0x3a, 0x42, 0x3a, 0x42, 0x3a, 0x42, 0x3c,
   0x42, 0x3c, 0x02, 0x3c, 0x48, 0x03, 0x0c, 0x4a, 0x46, 0x52, 0x46, 0x4a,
   0x46, 0x46, 0x52, 0x46, 0x41, 0x42, 0x41, 0x42, 0x41, 0x42, 0x39, 0x49,
   0x42, 0x44, 0x3e, 0x44, 0x42, 0x44, 0x02, 0x42, 0x02, 0x42, 0x3c, 0x42,
   0x08, 0x02, 0x08, 0x52, 0x42, 0x62, 0x42, 0x52, 0x42, 0x42, 0x62, 0x42,
   0x41, 0x42, 0x41, 0x42, 0x41, 0x42, 0x09, 0x39, 0x3e, 0x04, 0x0a, 0x04,
   0x3e, 0x04, 0x3c, 0x0c, 0x3c, 0x0c, 0x40, 0x0c, 0x08, 0x02, 0x08, 0x62,
   0x42, 0x42, 0x42, 0x62, 0x42, 0x42, 0x42, 0x42, 0x41, 0x42, 0x41, 0x42,
   0x41, 0x42, 0x09, 0x09, 0x12, 0x04, 0x12, 0x04, 0x12, 0x04, 0x40, 0x30,
   0x40, 0x30, 0x40, 0x30, 0x08, 0x02, 0x08, 0x42, 0x42, 0x42, 0x42, 0x42,
   0x42, 0x42, 0x42, 0x42, 0x41, 0x42, 0x41, 0x42, 0x41, 0x42, 0x09, 0x49,
   0x22, 0x04, 0x22, 0x04, 0x22, 0x04, 0x42, 0x42, 0x42, 0x42, 0x42, 0x42,
   0x3e, 0x7e, 0x3e, 0x42, 0x42, 0x42, 0x42, 0x42, 0x42, 0x42, 0x42, 0x42,
   0x3e, 0x3c, 0x3e, 0x3c, 0x3e, 0x3c, 0x7e, 0x36, 0x42, 0x04, 0x42, 0x04,
   0x42, 0x04, 0x3c, 0x3c, 0x3c, 0x3c, 0x3c, 0x3c, 0x00, 0x00, 0x00, 0x00,
   0x00, 0x04, 0x04, 0x00, 0x00, 0x00, 0x40, 0x40, 0x00, 0x00, 0x00, 0x00,
   0x00, 0x00, 0x00, 0x00, 0x00, 0x00, 0x04, 0x08, 0x00, 0x00, 0x00, 0x00,
   0x00, 0x00, 0x10, 0x10, 0x00, 0x00, 0x00, 0x00, 0x00, 0x02, 0x02, 0x00,
   0x00, 0x00, 0x30, 0x30, 0x00, 0x00, 0x00, 0x00, 0x00, 0x00, 0x00, 0x00,
   0x00, 0x00, 0x02, 0x04, 0x00, 0x00, 0x00, 0x00, 0x00, 0x00, 0x08, 0x08,
   0x00, 0x00, 0x00, 0x00, 0x00, 0x00, 0x00, 0x00, 0x00, 0x00, 0x00, 0x00,
   0x00, 0x00, 0x00, 0x00, 0x00, 0x00, 0x00, 0x00, 0x00, 0x00, 0x00, 0x00,
   0x00, 0x00, 0x00, 0x00, 0x00, 0x00, 0x00, 0x00, 0x00, 0x00, 0x00, 0x00,
   0x00, 0x00, 0x00, 0x00, 0x00, 0x00, 0x00, 0x00, 0x00, 0x00, 0x00, 0x00,
   0x00, 0x00, 0x00, 0x00, 0x00, 0x00, 0x00, 0x00, 0x00, 0x00, 0x00, 0x00,
   0x00, 0x00, 0x00, 0x00, 0x00, 0x00, 0x00, 0x00, 0x00, 0x00, 0x00, 0x00,
   0x00, 0x00, 0x00, 0x00, 0x00, 0x00, 0x00, 0x00, 0x00, 0x00, 0x00, 0x00,
   0x00, 0x00, 0x00, 0x00, 0x00, 0x00, 0x00, 0x00, 0x00, 0x00, 0x00, 0x00,
   0x00, 0x00, 0x00, 0x00, 0x00, 0x00, 0x00, 0x00, 0x00, 0x00, 0x00, 0x00,
   0x00, 0x00, 0x00, 0x00, 0x00, 0x00, 0x00, 0x00, 0x00, 0x00, 0x00, 0x00,
   0x00, 0x00, 0x00, 0x00, 0x00, 0x00, 0x00, 0x00, 0x24, 0x00, 0x00, 0x00,
   0x14, 0x12, 0x00, 0x00, 0x4c, 0x00, 0x7e, 0x00, 0x42, 0x00, 0x18, 0x18,
   0x48, 0x00, 0x00, 0x00, 0x08, 0x00, 0x18, 0x00, 0x22, 0x10, 0x00, 0x18,
   0x00, 0x24, 0x00, 0x00, 0x18, 0x24, 0x7f, 0x00, 0x08, 0x0c, 0x7f, 0x00,
   0x32, 0x4c, 0x00, 0x00, 0x3c, 0x22, 0x24, 0x24, 0x24, 0x48, 0x42, 0x00,
   0x14, 0x08, 0x24, 0x18, 0x22, 0x08, 0x10, 0x00, 0x00, 0x18, 0x24, 0x18,
   0x00, 0x18, 0x08, 0x04, 0x00, 0x00, 0x08, 0x04, 0x00, 0x32, 0x42, 0x3e,
   0x00, 0x1c, 0x18, 0x18, 0x00, 0x24, 0x42, 0x00, 0x00, 0x14, 0x00, 0x24,
   0x00, 0x00, 0x08, 0x7e, 0x18, 0x00, 0x18, 0x24, 0x3c, 0x00, 0x08, 0x04,
   0x7f, 0x04, 0x08, 0x3e, 0x42, 0x00, 0x42, 0x00, 0x42, 0x00, 0x42, 0x00,
   0x42, 0x00, 0x42, 0x00, 0x41, 0x00, 0x41, 0x00, 0x41, 0x7e, 0x00, 0x40,
   0x00, 0x7e, 0x00, 0x04, 0x42, 0x3c, 0x08, 0x3e, 0x08, 0x04, 0x3e, 0x04,
   0x42, 0x22, 0x42, 0x22, 0x42, 0x22, 0x42, 0x22, 0x42, 0x22, 0x42, 0x22,
   0x41, 0x41, 0x22, 0x42, 0x22, 0x20, 0x7e, 0x20, 0x7e, 0x20, 0x7e, 0x04,
   0x02, 0x42, 0x08, 0x04, 0x08, 0x3e, 0x08, 0x3e, 0x42, 0x22, 0x42, 0x22,
   0x42, 0x22, 0x42, 0x22, 0x42, 0x22, 0x42, 0x22, 0x49, 0x41, 0x14, 0x42,
   0x14, 0x10, 0x20, 0x10, 0x20, 0x10, 0x20, 0x06, 0x3c, 0x0c, 0x08, 0x04,
   0x08, 0x04, 0x08, 0x04, 0x42, 0x22, 0x42, 0x22, 0x42, 0x22, 0x42, 0x22,
   0x42, 0x22, 0x42, 0x22, 0x49, 0x49, 0x08, 0x42, 0x08, 0x08, 0x10, 0x08,
   0x10, 0x08, 0x10, 0x04, 0x40, 0x30, 0x08, 0x04, 0x08, 0x04, 0x08, 0x04,
   0x42, 0x22, 0x42, 0x22, 0x42, 0x22, 0x42, 0x22, 0x42, 0x22, 0x42, 0x22,
   0x49, 0x49, 0x08, 0x62, 0x08, 0x04, 0x08, 0x04, 0x08, 0x04, 0x08, 0x04,
   0x42, 0x42, 0x08, 0x44, 0x08, 0x44, 0x08, 0x44, 0x42, 0x22, 0x42, 0x22,
   0x42, 0x22, 0x42, 0x22, 0x42, 0x22, 0x42, 0x22, 0x55, 0x55, 0x08, 0x5c,
   0x08, 0x02, 0x04, 0x02, 0x04, 0x02, 0x04, 0x04, 0x3c, 0x3c, 0x08, 0x38,
   0x08, 0x38, 0x08, 0x38, 0x3c, 0x5c, 0x3c, 0x5c, 0x3c, 0x5c, 0x3c, 0x5c,
   0x3c, 0x5c, 0x3c, 0x5c, 0x22, 0x22, 0x08, 0x40, 0x08, 0x7e, 0x7e, 0x7e,
   0x7e, 0x7e, 0x7e, 0x04, 0x00, 0x00, 0x10, 0x10, 0x00, 0x00, 0x00, 0x00,
   0x00, 0x00, 0x00, 0x00, 0x00, 0x00, 0x00, 0x00, 0x00, 0x00, 0x10, 0x10,
   0x00, 0x00, 0x00, 0x42, 0x00, 0x00, 0x00, 0x00, 0x00, 0x00, 0x00, 0x00,
   0x00, 0x00, 0x08, 0x08, 0x00, 0x00, 0x00, 0x00, 0x00, 0x00, 0x00, 0x00,
   0x00, 0x00, 0x00, 0x00, 0x00, 0x00, 0x30, 0x30, 0x00, 0x00, 0x00, 0x3c,
   0x00, 0x00, 0x00, 0x00, 0x00, 0x00, 0x00, 0x00, 0x00, 0x00, 0x00, 0x00,
   0x00, 0x00, 0x00, 0x00, 0x00, 0x00, 0x00, 0x00, 0x00, 0x00, 0x00, 0x00,
   0x00, 0x00, 0x00, 0x00, 0x00, 0x00, 0x00, 0x00, 0x00, 0x00, 0x00, 0x00,
   0x00, 0x00, 0x00, 0x00, 0x00, 0x00, 0x00, 0x00, 0x00, 0x00, 0x00, 0x00,
   0x00, 0x00, 0x00, 0x00, 0x00, 0x00, 0x00, 0x00, 0x00, 0x00, 0x00, 0x00,
   0x00, 0x00, 0x00, 0x00, 0x00, 0x00, 0x00, 0x00, 0x00, 0x00, 0x00, 0x00,
   0x00, 0x00, 0x00, 0x00, 0x00, 0x00, 0x00, 0x00, 0x00, 0x00, 0x00, 0x00,
   0x00, 0x00, 0x00, 0x00, 0x00, 0x00, 0x00, 0x00, 0x00, 0x00, 0x00, 0x00,
   0x00, 0x00, 0x00, 0x00, 0x00, 0x00, 0x00, 0x00, 0x00, 0x00, 0x00, 0x00,
   0x00, 0x00, 0x00, 0x00, 0x00, 0x00, 0x00, 0x00, 0x00, 0x00, 0x00, 0x00,
   0x00, 0x00, 0x00, 0x80, 0x00, 0x00, 0x00, 0x00, 0x00, 0x00, 0x00, 0x00,
   0x00, 0x00, 0x00, 0x00, 0x00, 0x00, 0x00, 0x00, 0x00, 0x00, 0x00, 0x40,
   0x00, 0x00, 0x00, 0x00, 0x00, 0x00, 0x00, 0x00, 0x00, 0x00, 0x00, 0x40,
   0x00, 0x00, 0x00, 0x00, 0x00, 0x00, 0x00, 0x00, 0x00, 0x00, 0x00, 0x00,
   0x02, 0x3f, 0x3f, 0x3e, 0x04, 0x04, 0x3c, 0x3c, 0x00, 0x1e, 0x3e, 0x7c,
   0x1e, 0x00, 0x7e, 0x3c, 0x3c, 0x7c, 0x30, 0x7c, 0x41, 0x02, 0x0c, 0x3e,
   0x22, 0x0c, 0x0c, 0x24, 0x49, 0x42, 0x00, 0x3c, 0x0f, 0x45, 0x02, 0x02,
   0x06, 0x06, 0x42, 0x22, 0x00, 0x22, 0x45, 0x40, 0x10, 0x00, 0x40, 0x42,
   0x42, 0x04, 0x48, 0x42, 0x41, 0x02, 0x08, 0x08, 0x52, 0x12, 0x08, 0x1a,
   0x49, 0x42, 0x00, 0x42, 0x02, 0x44, 0x02, 0x02, 0x04, 0x04, 0x40, 0x02,
   0x00, 0x42, 0x44, 0x40, 0x10, 0x00, 0x40, 0x40, 0x02, 0x04, 0x08, 0x02,
   0x22, 0x02, 0x08, 0x08, 0x0a, 0x02, 0x08, 0x0c, 0x49, 0x46, 0x00, 0x42,
   0x3a, 0x44, 0x02, 0x3a, 0x34, 0x3c, 0x40, 0x02, 0x5c, 0x42, 0x44, 0x5c,
   0x14, 0x3c, 0x40, 0x40, 0x02, 0x04, 0x08, 0x02, 0x22, 0x4a, 0x08, 0x08,
   0x06, 0x22, 0x1c, 0x0a, 0x49, 0x4a, 0x3a, 0x42, 0x46, 0x3c, 0x3e, 0x46,
   0x4c, 0x44, 0x40, 0x02, 0x22, 0x4f, 0x44, 0x62, 0x1a, 0x42, 0x78, 0x40,
   0x1c, 0x3c, 0x3c, 0x02, 0x14, 0x56, 0x08, 0x1c, 0x06, 0x12, 0x08, 0x08,
   0x49, 0x52, 0x46, 0x7e, 0x42, 0x44, 0x42, 0x42, 0x44, 0x44, 0x40, 0x02,
   0x02, 0x42, 0x44, 0x42, 0x12, 0x42, 0x40, 0x7e, 0x02, 0x04, 0x08, 0x72,
   0x14, 0x52, 0x08, 0x08, 0x0a, 0x0e, 0x08, 0x14, 0x49, 0x62, 0x42, 0x42,
   0x42, 0x44, 0x42, 0x42, 0x44, 0x44, 0x40, 0x02, 0x02, 0x42, 0x44, 0x42,
   0x12, 0x42, 0x40, 0x42, 0x02, 0x04, 0x08, 0x42, 0x08, 0x52, 0x08, 0x08,
   0x12, 0x12, 0x08, 0x14, 0x49, 0x42, 0x42, 0x42, 0x46, 0x44, 0x42, 0x46,
   0x4c, 0x44, 0x42, 0x22, 0x22, 0x22, 0x44, 0x62, 0x1a, 0x24, 0x40, 0x42,
   0x42, 0x04, 0x08, 0x62, 0x14, 0x52, 0x08, 0x08, 0x22, 0x22, 0x08, 0x52,
   0x49, 0x42, 0x42, 0x42, 0x3a, 0x3c, 0x3f, 0x3a, 0x34, 0x38, 0x3c, 0x1c,
   0x1c, 0x1e, 0x3c, 0x5c, 0x14, 0x18, 0x7e, 0x3c, 0x3c, 0x05, 0x08, 0x5c,
   0x14, 0x22, 0x30, 0x3e, 0x42, 0x42, 0x3e, 0x22, 0x76, 0x42, 0x42, 0x3c,
   0x00, 0x00, 0x00, 0x00, 0x00, 0x00, 0x00, 0x00, 0x00, 0x00, 0x00, 0x00,
   0x00, 0x20, 0x00, 0x00, 0x00, 0x02, 0x09, 0x00, 0x08, 0x00, 0x00, 0x00,
   0x00, 0x00, 0x00, 0x00, 0x00, 0x02, 0x40, 0x00, 0x00, 0x00, 0x00, 0x00,
   0x00, 0x00, 0x00, 0x00, 0x00, 0x00, 0x00, 0x00, 0x00, 0x1c, 0x00, 0x00,
   0x00, 0x00, 0x06, 0x00, 0x00, 0x00, 0x00, 0x00, 0x00, 0x00, 0x00, 0x00,
   0x00, 0x01, 0x40, 0x00, 0x00, 0x00, 0x00, 0x00, 0x00, 0x00, 0x00, 0x00,
   0x00, 0x00, 0x00, 0x00, 0x00, 0x00, 0x00, 0x00, 0x00, 0x00, 0x00, 0x00,
   0x00, 0x00, 0x00, 0x00, 0x00, 0x00, 0x00, 0x00, 0x00, 0x00, 0x00, 0x00,
   0x00, 0x00, 0x00, 0x00, 0x00, 0x00, 0x00, 0x00, 0x00, 0x00, 0x00, 0x00,
   0x00, 0x00, 0x00, 0x00, 0x00, 0x00, 0x00, 0x00, 0x00, 0x00, 0x00, 0x00,
   0x00, 0x00, 0x00, 0x00, 0x00, 0x00, 0x00, 0x00, 0x00, 0x00, 0x00, 0x00,
   0x00, 0x00, 0x00, 0x00, 0x00, 0x00, 0x00, 0x00, 0x00, 0x00, 0x00, 0x00,
   0x00, 0x00, 0x00, 0x00, 0x00, 0x00, 0x00, 0x00, 0x00, 0x00, 0x00, 0x00,
   0x00, 0x00, 0x00, 0x00, 0x00, 0x00, 0x00, 0x00, 0x00, 0x00, 0x00, 0x00,
   0x00, 0x00, 0x00, 0x00, 0x00, 0x00, 0x00, 0x40, 0x00, 0x00, 0x00, 0x00,
   0x00, 0x00, 0x00, 0x00, 0x00, 0x00, 0x00, 0x00, 0x00, 0x00, 0x00, 0x00,
   0x80, 0x00, 0x00, 0x00, 0x00, 0x00, 0x00, 0x00, 0x00, 0x00, 0x00, 0x00,
   0x00, 0x38, 0x00, 0x40, 0x00, 0x00, 0x00, 0x00, 0x00, 0x00, 0x00, 0x00,
   0x00, 0x00, 0x00, 0x00, 0x00, 0x00, 0x00, 0x00, 0xbc, 0x00, 0x6c, 0x00,
   0x3e, 0x00, 0x02, 0x3c, 0x00, 0x7e, 0x0c, 0x00, 0x7e, 0x44, 0x7f, 0x22,
   0x00, 0x24, 0x12, 0x43, 0x40, 0x7e, 0x00, 0x7e, 0x7e, 0x00, 0x7e, 0x3c,
   0x7e, 0x00, 0x08, 0x00, 0x42, 0x00, 0x52, 0x00, 0x45, 0x0c, 0x02, 0x42,
   0x00, 0x04, 0x12, 0x04, 0x09, 0x04, 0x08, 0x22, 0x40, 0x24, 0x22, 0x44,
   0xa0, 0x40, 0x00, 0x40, 0x02, 0x00, 0x40, 0x42, 0x42, 0x00, 0x08, 0x00,
   0x42, 0x80, 0x52, 0x00, 0x45, 0x02, 0x3e, 0x40, 0x00, 0x08, 0x12, 0x04,
   0x09, 0x04, 0x08, 0x22, 0x40, 0x24, 0x22, 0x28, 0x20, 0x20, 0x00, 0x20,
   0x04, 0x7e, 0x20, 0x42, 0x1e, 0x00, 0x3e, 0x00, 0x42, 0xbc, 0x52, 0x6c,
   0x44, 0x1a, 0x42, 0x40, 0x3c, 0x10, 0x1c, 0x3e, 0x08, 0x3e, 0x08, 0x22,
   0x22, 0x42, 0x42, 0x28, 0x22, 0x10, 0x7e, 0x10, 0x08, 0x02, 0x10, 0x40,
   0x20, 0x1e, 0x08, 0x1a, 0x42, 0x42, 0x52, 0x52, 0x3c, 0x26, 0x42, 0x3c,
   0x42, 0x20, 0x10, 0x04, 0x08, 0x04, 0x08, 0x22, 0x22, 0x42, 0x42, 0x10,
   0x22, 0x7e, 0x20, 0x38, 0x1c, 0x04, 0x38, 0x20, 0x40, 0x02, 0x18, 0x26,
   0x42, 0x42, 0x52, 0x52, 0x04, 0x22, 0x3e, 0x02, 0x30, 0x10, 0x10, 0x04,
   0x08, 0x04, 0x08, 0x22, 0x22, 0x42, 0x42, 0x10, 0x22, 0x04, 0x7e, 0x40,
   0x02, 0x08, 0x40, 0x7e, 0x40, 0x0e, 0x20, 0x22, 0x42, 0x42, 0x52, 0x52,
   0x04, 0x22, 0x12, 0x02, 0x0c, 0x08, 0x10, 0x04, 0x08, 0x04, 0x08, 0x22,
   0x22, 0x42, 0x42, 0x10, 0x32, 0x02, 0x08, 0x40, 0x02, 0x1c, 0x30, 0x04,
   0x40, 0x10, 0x20, 0x12, 0x42, 0x42, 0x52, 0x52, 0x04, 0x26, 0x22, 0x42,
   0x42, 0x04, 0x10, 0x24, 0x08, 0x44, 0x08, 0x22, 0x22, 0x24, 0x22, 0x10,
   0x2c, 0x02, 0x04, 0x42, 0x42, 0x02, 0x0c, 0x02, 0x42, 0x12, 0x22, 0x0a,
   0x3c, 0x3c, 0x4c, 0x4c, 0x04, 0x1a, 0x22, 0x3c, 0x3c, 0x7e, 0x10, 0x58,
   0x08, 0x38, 0x08, 0x1c, 0x5c, 0x18, 0x1c, 0x10, 0x20, 0x7e, 0x7e, 0x3c,
   0x3c, 0x02, 0x42, 0x7e, 0x3c, 0x0e, 0x1c, 0x06, 0x00, 0x00, 0x40, 0x40,
   0x00, 0x02, 0x20, 0x00, 0x00, 0x00, 0x50, 0x40, 0x00, 0x00, 0x48, 0x00,
   0x00, 0x00, 0x00, 0x00, 0x22, 0x00, 0x00, 0x00, 0x00, 0x42, 0x3c, 0x00,
   0x00, 0x00, 0x00, 0x02, 0x00, 0x00, 0x00, 0x00, 0x00, 0x02, 0x40, 0x00,
   0x00, 0x00, 0x20, 0x30, 0x00, 0x00, 0x30, 0x00, 0x00, 0x00, 0x00, 0x00,
   0x1c, 0x00, 0x00, 0x00, 0x00, 0x3c, 0x00, 0x00, 0x00, 0x00, 0x00, 0x02,
   0x00, 0x00, 0x00, 0x00, 0x00, 0x00, 0x00, 0x00, 0x00, 0x00, 0x00, 0x00,
   0x00, 0x00, 0x00, 0x00, 0x00, 0x00, 0x00, 0x00, 0x00, 0x00, 0x00, 0x00,
   0x00, 0x00, 0x00, 0x00, 0x00, 0x00, 0x00, 0x00, 0x00, 0x00, 0x00, 0x00,
   0x00, 0x00, 0x00, 0x00, 0x00, 0x00, 0x00, 0x00, 0x00, 0x00, 0x00, 0x00,
   0x00, 0x00, 0x00, 0x00, 0x00, 0x00, 0x00, 0x00, 0x00, 0x00, 0x00, 0x00,
   0x00, 0x00, 0x00, 0x00, 0x00, 0x00, 0x00, 0x00, 0x00, 0x00, 0x00, 0x00,
   0x00, 0x00, 0x00, 0x00, 0x00, 0x00, 0x00, 0x00, 0x00, 0x00, 0x00, 0x00,
   0x00, 0x00, 0x00, 0x00, 0x00, 0x00, 0x00, 0x00, 0x00, 0x00, 0x00, 0x00,
   0x00, 0x00, 0x00, 0x00, 0x50, 0x00, 0x00, 0x00, 0x00, 0x00, 0x00, 0x00,
   0x00, 0x00, 0x00, 0x00, 0x00, 0x00, 0x00, 0x00, 0x00, 0x3c, 0x00, 0x20,
   0x00, 0x28, 0x00, 0x08, 0x00, 0x00, 0x3c, 0x00, 0x00, 0x00, 0x00, 0x00,
   0x20, 0x00, 0x00, 0x00, 0x00, 0x00, 0x00, 0x00, 0x00, 0x24, 0x00, 0x24,
   0x00, 0x24, 0x00, 0x24, 0x00, 0x00, 0x3c, 0x10, 0x10, 0x10, 0x14, 0x10,
   0x04, 0x00, 0x00, 0x3c, 0x08, 0x14, 0x08, 0x08, 0x03, 0x53, 0x54, 0x71,
   0x01, 0x01, 0xe9, 0x09, 0x00, 0x18, 0x24, 0x18, 0x12, 0x18, 0x24, 0x18,
   0x24, 0x24, 0x00, 0x44, 0x08, 0x44, 0x08, 0x44, 0x08, 0x00, 0x24, 0x00,
   0x08, 0x14, 0x08, 0x08, 0x75, 0x25, 0x24, 0x41, 0x41, 0x41, 0x89, 0x89,
   0x80, 0x00, 0x18, 0x00, 0x0c, 0x00, 0x18, 0x00, 0x18, 0x00, 0x24, 0x00,
   0x22, 0x00, 0x22, 0x00, 0x22, 0x00, 0x00, 0x24, 0x08, 0x14, 0x08, 0x08,
   0x45, 0x05, 0x04, 0x41, 0x01, 0x01, 0x8b, 0x0b, 0x00, 0x18, 0x00, 0x3e,
   0x00, 0x3e, 0x00, 0x42, 0x00, 0x42, 0x00, 0x42, 0x00, 0x42, 0x00, 0x42,
   0x00, 0x00, 0x18, 0x00, 0x08, 0x14, 0x3e, 0x08, 0x45, 0x75, 0x76, 0x41,
   0x61, 0x61, 0x8d, 0xcd, 0xc7, 0x24, 0x3c, 0x08, 0x0c, 0x41, 0x3c, 0x42,
   0x22, 0x42, 0x22, 0x42, 0x22, 0x42, 0x22, 0x42, 0x22, 0x3c, 0x24, 0x3c,
   0x08, 0x14, 0x08, 0x08, 0x25, 0x45, 0x45, 0x41, 0x41, 0x41, 0x89, 0x89,
   0x89, 0x42, 0x40, 0x08, 0x08, 0x41, 0x42, 0x42, 0x22, 0x42, 0x22, 0x42,
   0x22, 0x42, 0x22, 0x42, 0x22, 0x42, 0x42, 0x40, 0x08, 0x14, 0x3e, 0x08,
   0x25, 0x25, 0x25, 0x41, 0x41, 0x41, 0x89, 0x89, 0x89, 0x42, 0x7c, 0x08,
   0x08, 0x41, 0x42, 0x42, 0x22, 0x42, 0x22, 0x42, 0x22, 0x42, 0x22, 0x42,
   0x22, 0x40, 0x42, 0x7c, 0x08, 0x14, 0x08, 0x08, 0x15, 0x15, 0x15, 0x41,
   0x41, 0x41, 0x89, 0x89, 0x89, 0x7e, 0x42, 0x08, 0x08, 0x41, 0x42, 0x42,
   0x22, 0x42, 0x22, 0x42, 0x22, 0x42, 0x22, 0x42, 0x22, 0x7e, 0x7e, 0x42,
   0x08, 0x14, 0x08, 0x00, 0x15, 0x15, 0x15, 0x49, 0x41, 0x41, 0xa9, 0x89,
   0x89, 0x42, 0x62, 0x08, 0x08, 0x41, 0x42, 0x42, 0x22, 0x42, 0x22, 0x42,
   0x22, 0x42, 0x22, 0x42, 0x22, 0x42, 0x42, 0x62, 0x08, 0x14, 0x08, 0x08,
   0x73, 0x73, 0x76, 0x37, 0x57, 0x56, 0x49, 0xa9, 0xa9, 0x42, 0x5c, 0x3e,
   0x3e, 0x3e, 0x3c, 0x3c, 0x5c, 0x3c, 0x5c, 0x3c, 0x5c, 0x3c, 0x5c, 0x3c,
   0x5c, 0x3c, 0x42, 0x5c, 0x00, 0x00, 0x00, 0x00, 0x00, 0x00, 0x00, 0x00,
   0x50, 0x50, 0x00, 0xa0, 0xa0, 0x00, 0x00, 0x00, 0x00, 0x00, 0x00, 0x00,
   0x00, 0x00, 0x00, 0x00, 0x00, 0x00, 0x00, 0x00, 0x00, 0x00, 0x00, 0x00,
   0x00, 0x00, 0x00, 0x00, 0x00, 0x00, 0x00, 0x00, 0x20, 0x20, 0x00, 0x40,
   0x40, 0x00, 0x00, 0x00, 0x00, 0x00, 0x00, 0x00, 0x00, 0x00, 0x00, 0x00,
   0x00, 0x00, 0x00, 0x00, 0x00, 0x00, 0x00, 0x00, 0x00, 0x00, 0x00, 0x00,
   0x00, 0x00, 0x00, 0x00, 0x00, 0x00, 0x00, 0x00, 0x00, 0x00, 0x00, 0x00,
   0x00, 0x00, 0x00, 0x00, 0x00, 0x00, 0x00, 0x00, 0x00, 0x00, 0x00, 0x00,
   0x00, 0x00, 0x00, 0x00, 0x00, 0x00, 0x00, 0x00, 0x00, 0x00, 0x00, 0x00,
   0x00, 0x00, 0x00, 0x00, 0x00, 0x00, 0x00, 0x00, 0x00, 0x00, 0x00, 0x00,
   0x00, 0x00, 0x00, 0x00, 0x00, 0x00, 0x00, 0x00, 0x00, 0x00, 0x00, 0x00,
   0x00, 0x00, 0x00, 0x00, 0x00, 0x00, 0x00, 0x00, 0x00, 0x00, 0x00, 0x00,
   0x00, 0x00, 0x00, 0x00, 0x00, 0x00, 0x00, 0x00, 0x00, 0x00, 0x00, 0x00,
   0x00, 0x00, 0x00, 0x00, 0x00, 0x00, 0x00, 0x00, 0x3c, 0x00, 0x00, 0x00,
   0x00, 0x00, 0x00, 0x00, 0x00, 0x00, 0x00, 0x00, 0x00, 0x00, 0x24, 0x00,
   0x00, 0x00, 0x00, 0x00, 0x00, 0x00, 0x00, 0x00, 0x08, 0x00, 0x10, 0x10,
   0x00, 0x00, 0x00, 0x00, 0x00, 0x3c, 0x00, 0x00, 0x00, 0x00, 0x24, 0x00,
   0x24, 0x24, 0x00, 0x00, 0x00, 0x00, 0x18, 0x24, 0x00, 0x00, 0x00, 0x00,
   0x10, 0x00, 0x00, 0x00, 0x10, 0x00, 0x08, 0x08, 0x10, 0x00, 0x10, 0x00,
   0x18, 0x00, 0x3c, 0x00, 0x3c, 0x00, 0x18, 0x24, 0x18, 0x18, 0x3c, 0x00,
   0x3c, 0x00, 0x00, 0x18, 0x48, 0x73, 0x03, 0x04, 0x08, 0x10, 0x12, 0x3a,
   0x42, 0x08, 0x00, 0x18, 0x08, 0x10, 0x08, 0x10, 0x00, 0x18, 0x00, 0x3c,
   0x42, 0x00, 0x00, 0x18, 0x00, 0x02, 0x42, 0x00, 0x00, 0x3c, 0x7e, 0x00,
   0x30, 0x45, 0x05, 0x04, 0x00, 0x08, 0x12, 0x46, 0x42, 0x10, 0x18, 0x24,
   0x00, 0x08, 0x40, 0x08, 0x18, 0x00, 0x7e, 0x00, 0x02, 0x00, 0x3c, 0x00,
   0x22, 0x02, 0x42, 0x00, 0x3c, 0x00, 0x20, 0x7e, 0x00, 0x45, 0x05, 0x04,
   0x3c, 0x00, 0x12, 0x42, 0x46, 0x00, 0x24, 0x18, 0x7e, 0x00, 0x3c, 0x40,
   0x24, 0x3c, 0x09, 0x36, 0x02, 0x5c, 0x42, 0x5c, 0x12, 0x22, 0x42, 0x3c,
   0x42, 0x3c, 0x10, 0x40, 0x30, 0x25, 0x75, 0x76, 0x42, 0x5c, 0x52, 0x22,
   0x4a, 0x3a, 0x18, 0x3c, 0x09, 0x36, 0x62, 0x3c, 0x42, 0x40, 0x09, 0x48,
   0x72, 0x22, 0x02, 0x22, 0x0a, 0x12, 0x42, 0x42, 0x42, 0x42, 0x38, 0x20,
   0x20, 0x25, 0x45, 0x45, 0x02, 0x22, 0x5e, 0x12, 0x52, 0x46, 0x24, 0x40,
   0x09, 0x48, 0x52, 0x62, 0x42, 0x7c, 0x3f, 0x3e, 0x42, 0x22, 0x72, 0x22,
   0x06, 0x0e, 0x42, 0x42, 0x42, 0x42, 0x40, 0x10, 0x20, 0x25, 0x25, 0x25,
   0x72, 0x22, 0x52, 0x0a, 0x62, 0x42, 0x42, 0x7c, 0x3f, 0x3e, 0x4a, 0x52,
   0x7e, 0x42, 0x09, 0x09, 0xe2, 0x1c, 0x42, 0x1c, 0x0a, 0x12, 0x42, 0x42,
   0x42, 0x42, 0x40, 0x38, 0x20, 0x15, 0x15, 0x15, 0x42, 0x1c, 0x52, 0x06,
   0x42, 0x42, 0x7e, 0x42, 0x09, 0x09, 0x4a, 0x4a, 0x42, 0x62, 0x09, 0x49,
   0x42, 0x02, 0x62, 0x02, 0x12, 0x22, 0x42, 0x42, 0x42, 0x42, 0x42, 0x40,
   0x20, 0x15, 0x15, 0x15, 0x62, 0x02, 0x52, 0x02, 0x42, 0x42, 0x42, 0x62,
   0x09, 0x49, 0x46, 0x46, 0x42, 0x5c, 0x79, 0x36, 0x3c, 0x3c, 0x5c, 0x3c,
   0x22, 0x42, 0x3c, 0x3c, 0x3c, 0x3c, 0x3c, 0x40, 0x22, 0x73, 0x73, 0x76,
   0x5c, 0x3c, 0x22, 0x02, 0x42, 0x42, 0x42, 0x5c, 0x79, 0x36, 0x3c, 0x3c,
   0x00, 0x00, 0x00, 0x00, 0x00, 0xe2, 0x00, 0x42, 0x00, 0x00, 0x08, 0x08,
   0x08, 0x08, 0x00, 0x42, 0x22, 0x00, 0x00, 0x00, 0x00, 0x42, 0x00, 0x00,
   0x00, 0x00, 0x00, 0x00, 0x00, 0x00, 0x02, 0x02, 0x00, 0x00, 0x00, 0x00,
   0x00, 0x3c, 0x00, 0x3c, 0x00, 0x00, 0x10, 0x10, 0x10, 0x10, 0x00, 0x3c,
   0x1c, 0x00, 0x00, 0x00, 0x00, 0x3c, 0x00, 0x00, 0x00, 0x00, 0x00, 0x00,
   0x00, 0x00, 0x00, 0x00, 0x00, 0x00, 0x00, 0x00, 0x00, 0x00, 0x00, 0x00,
   0x00, 0x00, 0x00, 0x00, 0x00, 0x00, 0x00, 0x00, 0x00, 0x00, 0x00, 0x00,
   0x00, 0x00, 0x00, 0x00, 0x00, 0x00, 0x00, 0x00, 0x00, 0x00, 0x00, 0x00,
   0x00, 0x00, 0x00, 0x00, 0x00, 0x00, 0x00, 0x00, 0x00, 0x00, 0x00, 0x00,
   0x00, 0x00, 0x00, 0x00, 0x00, 0x00, 0x00, 0x00, 0x00, 0x00, 0x00, 0x00,
   0x00, 0x00, 0x00, 0x00, 0x00, 0x00, 0x00, 0x00, 0x00, 0x00, 0x00, 0x00,
   0x00, 0x00, 0x00, 0x00, 0x00, 0x00, 0x00, 0x00, 0x00, 0x00, 0x00, 0x00,
   0x00, 0x00, 0x00, 0x00, 0x00, 0x00, 0x00, 0x00, 0x00, 0x00, 0x00, 0x00,
   0x00, 0x00, 0x00, 0x00 };
