#define u001F00_u001FFF_width 256
#define u001F00_u001FFF_height 128
static unsigned char u001F00_u001FFF_bits[] = {
   0x00, 0x00, 0x00, 0x00, 0x00, 0x00, 0x2c, 0x2c, 0x00, 0x00, 0x00, 0x00,
   0x00, 0x00, 0x00, 0x00, 0x00, 0x00, 0x00, 0x00, 0x00, 0x00, 0x00, 0x00,
   0x00, 0x00, 0x00, 0x00, 0x00, 0x00, 0x00, 0x00, 0x18, 0x18, 0x2c, 0x2c,
   0x4c, 0x4c, 0x1a, 0x1a, 0x00, 0x00, 0x00, 0x00, 0x00, 0x00, 0x00, 0x00,
   0x18, 0x18, 0x2c, 0x2c, 0x4c, 0x4c, 0x00, 0x00, 0x00, 0x00, 0x00, 0x00,
   0x00, 0x00, 0x00, 0x00, 0x10, 0x08, 0x48, 0x44, 0x28, 0x24, 0x10, 0x08,
   0x33, 0x33, 0x33, 0x33, 0x33, 0x33, 0x33, 0x33, 0x10, 0x08, 0x48, 0x44,
   0x28, 0x24, 0x00, 0x00, 0x7b, 0x7b, 0x7b, 0x7b, 0x7b, 0x7b, 0x00, 0x00,
   0x08, 0x10, 0x04, 0x08, 0x04, 0x08, 0x08, 0x10, 0x4a, 0x49, 0x4a, 0x49,
   0x4a, 0x49, 0x48, 0x48, 0x08, 0x10, 0x04, 0x08, 0x04, 0x08, 0x00, 0x00,
   0x0a, 0x09, 0x0a, 0x09, 0x0a, 0x09, 0x00, 0x00, 0x00, 0x00, 0x00, 0x00,
   0x00, 0x00, 0x00, 0x00, 0x49, 0x4a, 0x49, 0x4a, 0x49, 0x4a, 0x4b, 0x4b,
   0x00, 0x00, 0x00, 0x00, 0x00, 0x00, 0x00, 0x00, 0x09, 0x0a, 0x09, 0x0a,
   0x09, 0x0a, 0x00, 0x00, 0x5c, 0x5c, 0x5c, 0x5c, 0x5c, 0x5c, 0x5c, 0x5c,
   0x48, 0x48, 0x49, 0x49, 0x4a, 0x4a, 0x4a, 0x49, 0x3c, 0x3c, 0x3c, 0x3c,
   0x3c, 0x3c, 0x00, 0x00, 0x08, 0x08, 0x09, 0x09, 0x0a, 0x0a, 0x00, 0x00,
   0x62, 0x62, 0x62, 0x62, 0x62, 0x62, 0x62, 0x62, 0x48, 0x48, 0x4a, 0x4a,
   0x49, 0x49, 0x49, 0x4a, 0x42, 0x42, 0x42, 0x42, 0x42, 0x42, 0x00, 0x00,
   0x38, 0x38, 0x3a, 0x3a, 0x39, 0x39, 0x00, 0x00, 0x42, 0x42, 0x42, 0x42,
   0x42, 0x42, 0x42, 0x42, 0x78, 0x78, 0x78, 0x78, 0x78, 0x78, 0x78, 0x78,
   0x1c, 0x1c, 0x1c, 0x1c, 0x1c, 0x1c, 0x00, 0x00, 0x08, 0x08, 0x08, 0x08,
   0x08, 0x08, 0x00, 0x00, 0x62, 0x62, 0x62, 0x62, 0x62, 0x62, 0x62, 0x62,
   0x48, 0x48, 0x48, 0x48, 0x48, 0x48, 0x48, 0x48, 0x02, 0x02, 0x02, 0x02,
   0x02, 0x02, 0x00, 0x00, 0x08, 0x08, 0x08, 0x08, 0x08, 0x08, 0x00, 0x00,
   0x52, 0x52, 0x52, 0x52, 0x52, 0x52, 0x52, 0x52, 0x48, 0x48, 0x48, 0x48,
   0x48, 0x48, 0x48, 0x48, 0x42, 0x42, 0x42, 0x42, 0x42, 0x42, 0x00, 0x00,
   0x08, 0x08, 0x08, 0x08, 0x08, 0x08, 0x00, 0x00, 0x4c, 0x4c, 0x4c, 0x4c,
   0x4c, 0x4c, 0x4c, 0x4c, 0x48, 0x48, 0x48, 0x48, 0x48, 0x48, 0x48, 0x48,
   0x3c, 0x3c, 0x3c, 0x3c, 0x3c, 0x3c, 0x00, 0x00, 0x78, 0x78, 0x78, 0x78,
   0x78, 0x78, 0x00, 0x00, 0x00, 0x00, 0x00, 0x00, 0x00, 0x00, 0x00, 0x00,
   0x00, 0x00, 0x00, 0x00, 0x00, 0x00, 0x00, 0x00, 0x00, 0x00, 0x00, 0x00,
   0x00, 0x00, 0x00, 0x00, 0x00, 0x00, 0x00, 0x00, 0x00, 0x00, 0x00, 0x00,
   0x00, 0x00, 0x00, 0x00, 0x00, 0x00, 0x00, 0x00, 0x00, 0x00, 0x00, 0x00,
   0x00, 0x00, 0x00, 0x00, 0x00, 0x00, 0x00, 0x00, 0x00, 0x00, 0x00, 0x00,
   0x00, 0x00, 0x00, 0x00, 0x00, 0x00, 0x00, 0x00, 0x00, 0x00, 0x00, 0x00,
   0x00, 0x00, 0x00, 0x00, 0x00, 0x00, 0x00, 0x00, 0x00, 0x00, 0x00, 0x00,
   0x00, 0x00, 0x00, 0x00, 0x00, 0x00, 0x00, 0x00, 0x00, 0x00, 0x00, 0x00,
   0x00, 0x00, 0x00, 0x00, 0x00, 0x00, 0x00, 0x00, 0x00, 0x00, 0x00, 0x00,
   0x00, 0x00, 0x00, 0x00, 0x00, 0x00, 0x00, 0x00, 0x00, 0x00, 0x00, 0x00,
   0x00, 0x00, 0x00, 0x00, 0x00, 0x00, 0x00, 0x00, 0x00, 0x00, 0x00, 0x00,
   0x00, 0x00, 0x00, 0x00, 0x00, 0x00, 0x00, 0x00, 0x00, 0x00, 0x00, 0x00,
   0x00, 0x00, 0x00, 0x00, 0x00, 0x00, 0x00, 0x00, 0x00, 0x00, 0x00, 0x00,
   0x00, 0x00, 0x00, 0x00, 0x00, 0x00, 0x00, 0x00, 0x00, 0x00, 0x00, 0x00,
   0x00, 0x00, 0x2c, 0x2c, 0x00, 0x00, 0x00, 0x00, 0x00, 0x00, 0x00, 0x00,
   0x00, 0x00, 0x00, 0x00, 0x00, 0x00, 0x2c, 0x2c, 0x00, 0x00, 0x00, 0x00,
   0x00, 0x00, 0x00, 0x00, 0x18, 0x18, 0x2c, 0x2c, 0x4c, 0x4c, 0x1a, 0x1a,
   0x00, 0x00, 0x00, 0x00, 0x00, 0x00, 0x00, 0x00, 0x0c, 0x0c, 0x16, 0x16,
   0x26, 0x26, 0x1a, 0x1a, 0x00, 0x00, 0x00, 0x00, 0x00, 0x00, 0x00, 0x00,
   0x10, 0x08, 0x48, 0x44, 0x28, 0x24, 0x10, 0x08, 0x4b, 0x4b, 0x4b, 0x4b,
   0x4b, 0x4b, 0x4b, 0x4b, 0x08, 0x04, 0x24, 0x22, 0x14, 0x12, 0x10, 0x08,
   0x76, 0x76, 0x76, 0x76, 0x76, 0x76, 0x76, 0x76, 0x08, 0x10, 0x04, 0x08,
   0x04, 0x08, 0x08, 0x10, 0x4a, 0x49, 0x4a, 0x49, 0x4a, 0x49, 0x48, 0x48,
   0x04, 0x08, 0x02, 0x04, 0x02, 0x04, 0x08, 0x10, 0x24, 0x22, 0x24, 0x22,
   0x24, 0x22, 0x20, 0x20, 0x00, 0x00, 0x00, 0x00, 0x00, 0x00, 0x00, 0x00,
   0x49, 0x4a, 0x49, 0x4a, 0x49, 0x4a, 0x4b, 0x4b, 0x00, 0x00, 0x00, 0x00,
   0x00, 0x00, 0x00, 0x00, 0x22, 0x24, 0x22, 0x24, 0x22, 0x24, 0x26, 0x26,
   0x3a, 0x3a, 0x3a, 0x3a, 0x3a, 0x3a, 0x3a, 0x3a, 0x48, 0x48, 0x49, 0x49,
   0x4a, 0x4a, 0x4a, 0x49, 0x04, 0x04, 0x08, 0x08, 0x08, 0x08, 0x08, 0x08,
   0x20, 0x20, 0x22, 0x22, 0x24, 0x24, 0x24, 0x22, 0x46, 0x46, 0x46, 0x46,
   0x46, 0x46, 0x46, 0x46, 0x78, 0x78, 0x7a, 0x7a, 0x79, 0x79, 0x79, 0x7a,
   0x04, 0x04, 0x08, 0x08, 0x08, 0x08, 0x08, 0x08, 0x20, 0x20, 0x24, 0x24,
   0x22, 0x22, 0x22, 0x24, 0x42, 0x42, 0x42, 0x42, 0x42, 0x42, 0x42, 0x42,
   0x48, 0x48, 0x48, 0x48, 0x48, 0x48, 0x48, 0x48, 0x04, 0x04, 0x08, 0x08,
   0x08, 0x08, 0x08, 0x08, 0x20, 0x20, 0x20, 0x20, 0x20, 0x20, 0x20, 0x20,
   0x42, 0x42, 0x42, 0x42, 0x42, 0x42, 0x42, 0x42, 0x48, 0x48, 0x48, 0x48,
   0x48, 0x48, 0x48, 0x48, 0x04, 0x04, 0x08, 0x08, 0x08, 0x08, 0x08, 0x08,
   0x20, 0x20, 0x20, 0x20, 0x20, 0x20, 0x20, 0x20, 0x42, 0x42, 0x42, 0x42,
   0x42, 0x42, 0x42, 0x42, 0x48, 0x48, 0x48, 0x48, 0x48, 0x48, 0x48, 0x48,
   0x24, 0x24, 0x48, 0x48, 0x48, 0x48, 0x48, 0x48, 0x20, 0x20, 0x20, 0x20,
   0x20, 0x20, 0x20, 0x20, 0x42, 0x42, 0x42, 0x42, 0x42, 0x42, 0x42, 0x42,
   0x48, 0x48, 0x48, 0x48, 0x48, 0x48, 0x48, 0x48, 0x18, 0x18, 0x30, 0x30,
   0x30, 0x30, 0x30, 0x30, 0x70, 0x70, 0x70, 0x70, 0x70, 0x70, 0x70, 0x70,
   0x40, 0x40, 0x40, 0x40, 0x40, 0x40, 0x40, 0x40, 0x00, 0x00, 0x00, 0x00,
   0x00, 0x00, 0x00, 0x00, 0x00, 0x00, 0x00, 0x00, 0x00, 0x00, 0x00, 0x00,
   0x00, 0x00, 0x00, 0x00, 0x00, 0x00, 0x00, 0x00, 0x40, 0x40, 0x40, 0x40,
   0x40, 0x40, 0x40, 0x40, 0x00, 0x00, 0x00, 0x00, 0x00, 0x00, 0x00, 0x00,
   0x00, 0x00, 0x00, 0x00, 0x00, 0x00, 0x00, 0x00, 0x00, 0x00, 0x00, 0x00,
   0x00, 0x00, 0x00, 0x00, 0x00, 0x00, 0x00, 0x00, 0x00, 0x00, 0x00, 0x00,
   0x00, 0x00, 0x00, 0x00, 0x00, 0x00, 0x00, 0x00, 0x00, 0x00, 0x00, 0x00,
   0x00, 0x00, 0x00, 0x00, 0x00, 0x00, 0x00, 0x00, 0x00, 0x00, 0x00, 0x00,
   0x00, 0x00, 0x00, 0x00, 0x00, 0x00, 0x00, 0x00, 0x00, 0x00, 0x00, 0x00,
   0x00, 0x00, 0x00, 0x00, 0x00, 0x00, 0x00, 0x00, 0x00, 0x00, 0x00, 0x00,
   0x00, 0x00, 0x00, 0x00, 0x00, 0x00, 0x00, 0x00, 0x00, 0x00, 0x00, 0x00,
   0x00, 0x00, 0x00, 0x00, 0x00, 0x00, 0x00, 0x00, 0x00, 0x00, 0x00, 0x00,
   0x00, 0x00, 0x00, 0x00, 0x00, 0x00, 0x00, 0x00, 0x00, 0x00, 0x00, 0x00,
   0x00, 0x00, 0x00, 0x00, 0x00, 0x00, 0x00, 0x00, 0x00, 0x00, 0x00, 0x00,
   0x00, 0x00, 0x00, 0x00, 0x00, 0x00, 0x00, 0x00, 0x00, 0x00, 0x00, 0x00,
   0x00, 0x00, 0x2c, 0x2c, 0x00, 0x00, 0x00, 0x00, 0x00, 0x00, 0x00, 0x00,
   0x18, 0x18, 0x2c, 0x2c, 0x4c, 0x4c, 0x00, 0x00, 0x00, 0x00, 0x00, 0x00,
   0x00, 0x00, 0x00, 0x00, 0x18, 0x18, 0x2c, 0x2c, 0x4c, 0x4c, 0x1a, 0x1a,
   0x00, 0x00, 0x00, 0x00, 0x00, 0x00, 0x00, 0x00, 0x10, 0x08, 0x48, 0x44,
   0x28, 0x24, 0x00, 0x00, 0x33, 0x33, 0x33, 0x33, 0x33, 0x33, 0x00, 0x00,
   0x10, 0x08, 0x48, 0x44, 0x28, 0x24, 0x18, 0x18, 0x00, 0x56, 0x00, 0x56,
   0x00, 0x56, 0x00, 0x56, 0x08, 0x10, 0x04, 0x08, 0x04, 0x08, 0x00, 0x00,
   0x4a, 0x49, 0x4a, 0x49, 0x4a, 0x49, 0x00, 0x00, 0x08, 0x10, 0x04, 0x08,
   0x04, 0x08, 0x10, 0x08, 0x00, 0x52, 0x00, 0x52, 0x00, 0x52, 0x00, 0x50,
   0x00, 0x00, 0x00, 0x00, 0x00, 0x00, 0x00, 0x00, 0x49, 0x4a, 0x49, 0x4a,
   0x49, 0x4a, 0x00, 0x00, 0x00, 0x00, 0x00, 0x00, 0x00, 0x00, 0x08, 0x10,
   0x00, 0x54, 0x00, 0x54, 0x00, 0x54, 0x00, 0x56, 0x3c, 0x3c, 0x3c, 0x3c,
   0x3c, 0x3c, 0x00, 0x00, 0x48, 0x48, 0x49, 0x49, 0x4a, 0x4a, 0x00, 0x00,
   0x42, 0x42, 0x42, 0x42, 0x42, 0x42, 0x42, 0x42, 0x00, 0x20, 0x00, 0x22,
   0x00, 0x24, 0x00, 0x22, 0x42, 0x42, 0x42, 0x42, 0x42, 0x42, 0x00, 0x00,
   0x48, 0x48, 0x4a, 0x4a, 0x49, 0x49, 0x00, 0x00, 0x42, 0x42, 0x42, 0x42,
   0x42, 0x42, 0x42, 0x42, 0x00, 0x20, 0x00, 0x24, 0x00, 0x22, 0x00, 0x24,
   0x42, 0x42, 0x42, 0x42, 0x42, 0x42, 0x00, 0x00, 0x48, 0x48, 0x48, 0x48,
   0x48, 0x48, 0x00, 0x00, 0x42, 0x42, 0x42, 0x42, 0x42, 0x42, 0x42, 0x42,
   0x00, 0x20, 0x00, 0x20, 0x00, 0x20, 0x00, 0x20, 0x42, 0x42, 0x42, 0x42,
   0x42, 0x42, 0x00, 0x00, 0x48, 0x48, 0x48, 0x48, 0x48, 0x48, 0x00, 0x00,
   0x42, 0x42, 0x42, 0x42, 0x42, 0x42, 0x42, 0x42, 0x00, 0x20, 0x00, 0x20,
   0x00, 0x20, 0x00, 0x20, 0x42, 0x42, 0x42, 0x42, 0x42, 0x42, 0x00, 0x00,
   0x48, 0x48, 0x48, 0x48, 0x48, 0x48, 0x00, 0x00, 0x42, 0x42, 0x42, 0x42,
   0x42, 0x42, 0x42, 0x42, 0x00, 0x20, 0x00, 0x20, 0x00, 0x20, 0x00, 0x20,
   0x3c, 0x3c, 0x3c, 0x3c, 0x3c, 0x3c, 0x00, 0x00, 0x30, 0x30, 0x30, 0x30,
   0x30, 0x30, 0x00, 0x00, 0x3c, 0x3c, 0x3c, 0x3c, 0x3c, 0x3c, 0x3c, 0x3c,
   0x00, 0x20, 0x00, 0x20, 0x00, 0x20, 0x00, 0x20, 0x00, 0x00, 0x00, 0x00,
   0x00, 0x00, 0x00, 0x00, 0x00, 0x00, 0x00, 0x00, 0x00, 0x00, 0x00, 0x00,
   0x00, 0x00, 0x00, 0x00, 0x00, 0x00, 0x00, 0x00, 0x00, 0x00, 0x00, 0x00,
   0x00, 0x00, 0x00, 0x00, 0x00, 0x00, 0x00, 0x00, 0x00, 0x00, 0x00, 0x00,
   0x00, 0x00, 0x00, 0x00, 0x00, 0x00, 0x00, 0x00, 0x00, 0x00, 0x00, 0x00,
   0x00, 0x00, 0x00, 0x00, 0x00, 0x00, 0x00, 0x00, 0x00, 0x00, 0x00, 0x00,
   0x00, 0x00, 0x00, 0x00, 0x00, 0x00, 0x00, 0x00, 0x00, 0x00, 0x00, 0x00,
   0x00, 0x00, 0x00, 0x00, 0x00, 0x00, 0x00, 0x00, 0x00, 0x00, 0x00, 0x00,
   0x00, 0x00, 0x00, 0x00, 0x00, 0x00, 0x00, 0x00, 0x00, 0x00, 0x00, 0x00,
   0x00, 0x00, 0x00, 0x00, 0x00, 0x00, 0x00, 0x00, 0x00, 0x00, 0x00, 0x00,
   0x00, 0x00, 0x00, 0x00, 0x00, 0x00, 0x00, 0x00, 0x00, 0x00, 0x00, 0x00,
   0x00, 0x00, 0x00, 0x00, 0x00, 0x00, 0x00, 0x00, 0x00, 0x00, 0x00, 0x00,
   0x00, 0x00, 0x00, 0x00, 0x00, 0x00, 0x00, 0x00, 0x00, 0x00, 0x00, 0x00,
   0x00, 0x00, 0x00, 0x00, 0x00, 0x00, 0x00, 0x00, 0x00, 0x00, 0x00, 0x00,
   0x00, 0x00, 0x00, 0x00, 0x00, 0x00, 0x2c, 0x2c, 0x00, 0x00, 0x00, 0x00,
   0x00, 0x00, 0x00, 0x00, 0x00, 0x00, 0x00, 0x00, 0x00, 0x00, 0x00, 0x00,
   0x00, 0x00, 0x00, 0x00, 0x00, 0x00, 0x00, 0x00, 0x18, 0x18, 0x16, 0x16,
   0x26, 0x26, 0x1a, 0x1a, 0x00, 0x00, 0x00, 0x00, 0x00, 0x00, 0x00, 0x00,
   0x00, 0x00, 0x00, 0x00, 0x00, 0x00, 0x00, 0x00, 0x00, 0x00, 0x00, 0x00,
   0x00, 0x00, 0x00, 0x00, 0x10, 0x08, 0x24, 0x22, 0x14, 0x12, 0x18, 0x18,
   0x33, 0x33, 0x33, 0x33, 0x33, 0x33, 0x33, 0x33, 0x08, 0x10, 0x08, 0x10,
   0x08, 0x10, 0x02, 0x08, 0x08, 0x10, 0x08, 0x10, 0x04, 0x10, 0x00, 0x00,
   0x08, 0x10, 0x02, 0x04, 0x02, 0x04, 0x10, 0x08, 0x4a, 0x49, 0x4a, 0x49,
   0x4a, 0x49, 0x48, 0x48, 0x10, 0x08, 0x10, 0x08, 0x10, 0x08, 0x04, 0x04,
   0x10, 0x08, 0x10, 0x08, 0x08, 0x08, 0x00, 0x00, 0x00, 0x00, 0x00, 0x00,
   0x00, 0x00, 0x08, 0x10, 0x49, 0x4a, 0x49, 0x4a, 0x49, 0x4a, 0x4b, 0x4b,
   0x00, 0x00, 0x00, 0x00, 0x00, 0x00, 0x00, 0x00, 0x00, 0x00, 0x00, 0x00,
   0x00, 0x00, 0x00, 0x00, 0x41, 0x41, 0x41, 0x41, 0x41, 0x41, 0x41, 0x41,
   0x48, 0x48, 0x49, 0x49, 0x4a, 0x4a, 0x4a, 0x49, 0x5c, 0x5c, 0x3c, 0x3c,
   0x3a, 0x3a, 0x04, 0x04, 0x3c, 0x3c, 0x42, 0x42, 0x41, 0x41, 0x00, 0x00,
   0x49, 0x49, 0x49, 0x49, 0x49, 0x49, 0x49, 0x49, 0x48, 0x48, 0x4a, 0x4a,
   0x49, 0x49, 0x49, 0x4a, 0x62, 0x62, 0x42, 0x42, 0x46, 0x46, 0x04, 0x04,
   0x42, 0x42, 0x42, 0x42, 0x49, 0x49, 0x00, 0x00, 0x49, 0x49, 0x49, 0x49,
   0x49, 0x49, 0x49, 0x49, 0x48, 0x48, 0x48, 0x48, 0x48, 0x48, 0x48, 0x48,
   0x42, 0x42, 0x1c, 0x1c, 0x42, 0x42, 0x04, 0x04, 0x42, 0x42, 0x42, 0x42,
   0x49, 0x49, 0x00, 0x00, 0x49, 0x49, 0x49, 0x49, 0x49, 0x49, 0x49, 0x49,
   0x30, 0x30, 0x30, 0x30, 0x30, 0x30, 0x30, 0x30, 0x62, 0x62, 0x02, 0x02,
   0x42, 0x42, 0x04, 0x04, 0x42, 0x42, 0x42, 0x42, 0x49, 0x49, 0x00, 0x00,
   0x49, 0x49, 0x49, 0x49, 0x49, 0x49, 0x49, 0x49, 0x30, 0x30, 0x30, 0x30,
   0x30, 0x30, 0x30, 0x30, 0x52, 0x52, 0x42, 0x42, 0x42, 0x42, 0x24, 0x24,
   0x42, 0x42, 0x42, 0x42, 0x49, 0x49, 0x00, 0x00, 0x36, 0x36, 0x36, 0x36,
   0x36, 0x36, 0x36, 0x36, 0x48, 0x48, 0x48, 0x48, 0x48, 0x48, 0x48, 0x48,
   0x4c, 0x4c, 0x3c, 0x3c, 0x42, 0x42, 0x18, 0x18, 0x3c, 0x3c, 0x3c, 0x3c,
   0x36, 0x36, 0x00, 0x00, 0x00, 0x00, 0x00, 0x00, 0x00, 0x00, 0x00, 0x00,
   0x00, 0x00, 0x00, 0x00, 0x00, 0x00, 0x00, 0x00, 0x00, 0x00, 0x00, 0x00,
   0x40, 0x40, 0x00, 0x00, 0x00, 0x00, 0x00, 0x00, 0x00, 0x00, 0x00, 0x00,
   0x00, 0x00, 0x00, 0x00, 0x00, 0x00, 0x00, 0x00, 0x00, 0x00, 0x00, 0x00,
   0x00, 0x00, 0x00, 0x00, 0x00, 0x00, 0x00, 0x00, 0x40, 0x40, 0x00, 0x00,
   0x00, 0x00, 0x00, 0x00, 0x00, 0x00, 0x00, 0x00, 0x00, 0x00, 0x00, 0x00,
   0x00, 0x00, 0x00, 0x00, 0x00, 0x00, 0x00, 0x00, 0x00, 0x00, 0x00, 0x00,
   0x00, 0x00, 0x00, 0x00, 0x00, 0x00, 0x00, 0x00, 0x00, 0x00, 0x00, 0x00,
   0x00, 0x00, 0x00, 0x00, 0x00, 0x00, 0x00, 0x00, 0x00, 0x00, 0x00, 0x00,
   0x00, 0x00, 0x00, 0x00, 0x00, 0x00, 0x00, 0x00, 0x00, 0x00, 0x00, 0x00,
   0x00, 0x00, 0x00, 0x00, 0x00, 0x00, 0x00, 0x00, 0x00, 0x00, 0x00, 0x00,
   0x00, 0x00, 0x00, 0x00, 0x00, 0x00, 0x00, 0x00, 0x00, 0x00, 0x00, 0x00,
   0x00, 0x00, 0x00, 0x00, 0x00, 0x00, 0x00, 0x00, 0x00, 0x00, 0x00, 0x00,
   0x00, 0x00, 0x00, 0x00, 0x00, 0x00, 0x00, 0x00, 0x00, 0x00, 0x00, 0x00,
   0x00, 0x00, 0x2c, 0x2c, 0x00, 0x00, 0x00, 0x00, 0x00, 0x00, 0x00, 0x00,
   0x00, 0x00, 0x00, 0x00, 0x00, 0x00, 0x2c, 0x2c, 0x00, 0x00, 0x00, 0x00,
   0x00, 0x00, 0x00, 0x00, 0x18, 0x18, 0x2c, 0x2c, 0x4c, 0x4c, 0x1a, 0x1a,
   0x00, 0x00, 0x00, 0x00, 0x00, 0x00, 0x00, 0x00, 0x18, 0x18, 0x2c, 0x2c,
   0x4c, 0x4c, 0x1a, 0x1a, 0x00, 0x00, 0x00, 0x00, 0x00, 0x00, 0x00, 0x00,
   0x10, 0x08, 0x48, 0x44, 0x28, 0x24, 0x10, 0x08, 0x33, 0x33, 0x33, 0x33,
   0x33, 0x33, 0x33, 0x33, 0x10, 0x08, 0x48, 0x44, 0x28, 0x24, 0x10, 0x08,
   0x4b, 0x4b, 0x4b, 0x4b, 0x4b, 0x4b, 0x4b, 0x4b, 0x08, 0x10, 0x04, 0x08,
   0x04, 0x08, 0x08, 0x10, 0x4a, 0x49, 0x4a, 0x49, 0x4a, 0x49, 0x48, 0x48,
   0x08, 0x10, 0x04, 0x08, 0x04, 0x08, 0x08, 0x10, 0x4a, 0x49, 0x4a, 0x49,
   0x4a, 0x49, 0x48, 0x48, 0x00, 0x00, 0x00, 0x00, 0x00, 0x00, 0x00, 0x00,
   0x49, 0x4a, 0x49, 0x4a, 0x49, 0x4a, 0x4b, 0x4b, 0x00, 0x00, 0x00, 0x00,
   0x00, 0x00, 0x00, 0x00, 0x49, 0x4a, 0x49, 0x4a, 0x49, 0x4a, 0x4b, 0x4b,
   0x5c, 0x5c, 0x5c, 0x5c, 0x5c, 0x5c, 0x5c, 0x5c, 0x48, 0x48, 0x49, 0x49,
   0x4a, 0x4a, 0x4a, 0x49, 0x3a, 0x3a, 0x3a, 0x3a, 0x3a, 0x3a, 0x3a, 0x3a,
   0x48, 0x48, 0x49, 0x49, 0x4a, 0x4a, 0x4a, 0x49, 0x62, 0x62, 0x62, 0x62,
   0x62, 0x62, 0x62, 0x62, 0x48, 0x48, 0x4a, 0x4a, 0x49, 0x49, 0x49, 0x4a,
   0x46, 0x46, 0x46, 0x46, 0x46, 0x46, 0x46, 0x46, 0x78, 0x78, 0x7a, 0x7a,
   0x79, 0x79, 0x79, 0x7a, 0x42, 0x42, 0x42, 0x42, 0x42, 0x42, 0x42, 0x42,
   0x78, 0x78, 0x78, 0x78, 0x78, 0x78, 0x78, 0x78, 0x42, 0x42, 0x42, 0x42,
   0x42, 0x42, 0x42, 0x42, 0x48, 0x48, 0x48, 0x48, 0x48, 0x48, 0x48, 0x48,
   0x62, 0x62, 0x62, 0x62, 0x62, 0x62, 0x62, 0x62, 0x48, 0x48, 0x48, 0x48,
   0x48, 0x48, 0x48, 0x48, 0x42, 0x42, 0x42, 0x42, 0x42, 0x42, 0x42, 0x42,
   0x48, 0x48, 0x48, 0x48, 0x48, 0x48, 0x48, 0x48, 0x52, 0x52, 0x52, 0x52,
   0x52, 0x52, 0x52, 0x52, 0x48, 0x48, 0x48, 0x48, 0x48, 0x48, 0x48, 0x48,
   0x42, 0x42, 0x42, 0x42, 0x42, 0x42, 0x42, 0x42, 0x48, 0x48, 0x48, 0x48,
   0x48, 0x48, 0x48, 0x48, 0x4c, 0x4c, 0x4c, 0x4c, 0x4c, 0x4c, 0x4c, 0x4c,
   0x48, 0x48, 0x48, 0x48, 0x48, 0x48, 0x48, 0x48, 0x42, 0x42, 0x42, 0x42,
   0x42, 0x42, 0x42, 0x42, 0x48, 0x48, 0x48, 0x48, 0x48, 0x48, 0x48, 0x48,
   0x00, 0x00, 0x00, 0x00, 0x00, 0x00, 0x00, 0x00, 0x00, 0x00, 0x00, 0x00,
   0x00, 0x00, 0x00, 0x00, 0x40, 0x40, 0x40, 0x40, 0x40, 0x40, 0x40, 0x40,
   0x00, 0x00, 0x00, 0x00, 0x00, 0x00, 0x00, 0x00, 0x08, 0x08, 0x08, 0x08,
   0x08, 0x08, 0x08, 0x08, 0x10, 0x10, 0x10, 0x10, 0x10, 0x10, 0x10, 0x10,
   0x42, 0x42, 0x42, 0x42, 0x42, 0x42, 0x42, 0x42, 0x10, 0x10, 0x10, 0x10,
   0x10, 0x10, 0x10, 0x10, 0x00, 0x00, 0x00, 0x00, 0x00, 0x00, 0x00, 0x00,
   0x00, 0x00, 0x00, 0x00, 0x00, 0x00, 0x00, 0x00, 0x00, 0x00, 0x00, 0x00,
   0x00, 0x00, 0x00, 0x00, 0x00, 0x00, 0x00, 0x00, 0x00, 0x00, 0x00, 0x00,
   0x00, 0x00, 0x00, 0x00, 0x00, 0x00, 0x00, 0x00, 0x00, 0x00, 0x00, 0x00,
   0x00, 0x00, 0x00, 0x00, 0x00, 0x00, 0x00, 0x00, 0x00, 0x00, 0x00, 0x00,
   0x00, 0x00, 0x00, 0x00, 0x00, 0x00, 0x00, 0x00, 0x00, 0x00, 0x00, 0x00,
   0x00, 0x00, 0x00, 0x00, 0x00, 0x00, 0x00, 0x00, 0x00, 0x00, 0x00, 0x00,
   0x00, 0x00, 0x00, 0x00, 0x00, 0x00, 0x00, 0x00, 0x00, 0x00, 0x00, 0x00,
   0x00, 0x00, 0x00, 0x00, 0x00, 0x00, 0x00, 0x00, 0x00, 0x00, 0x2c, 0x2c,
   0x00, 0x00, 0x00, 0x00, 0x00, 0x00, 0x00, 0x00, 0x00, 0x00, 0x00, 0x00,
   0x00, 0x00, 0x00, 0x00, 0x00, 0x00, 0x00, 0x00, 0x00, 0x00, 0x00, 0x00,
   0x18, 0x18, 0x16, 0x16, 0x26, 0x26, 0x1a, 0x1a, 0x00, 0x00, 0x00, 0x00,
   0x00, 0x00, 0x00, 0x00, 0x00, 0x00, 0x00, 0x00, 0x00, 0x00, 0x00, 0x00,
   0x42, 0x7e, 0x00, 0x00, 0x00, 0x00, 0x00, 0x00, 0x10, 0x08, 0x24, 0x22,
   0x14, 0x12, 0x10, 0x08, 0x33, 0x33, 0x33, 0x33, 0x33, 0x33, 0x33, 0x33,
   0x42, 0x00, 0x08, 0x00, 0x10, 0x00, 0x58, 0x58, 0x3c, 0x00, 0x31, 0x32,
   0x18, 0x18, 0x00, 0x18, 0x08, 0x10, 0x02, 0x04, 0x02, 0x04, 0x08, 0x10,
   0x4a, 0x49, 0x4a, 0x49, 0x4a, 0x49, 0x48, 0x48, 0x3c, 0x7e, 0x10, 0x00,
   0x08, 0x00, 0x34, 0x34, 0x00, 0x18, 0x4a, 0x49, 0x24, 0x10, 0x00, 0x10,
   0x00, 0x00, 0x00, 0x00, 0x00, 0x00, 0x00, 0x00, 0x49, 0x4a, 0x49, 0x4a,
   0x49, 0x4a, 0x4b, 0x4b, 0x00, 0x00, 0x00, 0x00, 0x00, 0x00, 0x00, 0x00,
   0x18, 0x24, 0x48, 0x48, 0x42, 0x08, 0x00, 0x08, 0x41, 0x41, 0x41, 0x41,
   0x41, 0x41, 0x41, 0x41, 0x48, 0x48, 0x49, 0x49, 0x4a, 0x4a, 0x4a, 0x49,
   0x5c, 0x5c, 0x5c, 0x5c, 0x5c, 0x00, 0x5c, 0x5c, 0x24, 0x42, 0x48, 0x48,
   0x42, 0x00, 0x00, 0x00, 0x49, 0x49, 0x49, 0x49, 0x49, 0x49, 0x49, 0x49,
   0x48, 0x48, 0x4a, 0x4a, 0x49, 0x49, 0x49, 0x4a, 0x62, 0x62, 0x62, 0x62,
   0x62, 0x00, 0x62, 0x62, 0x42, 0x42, 0x48, 0x48, 0x42, 0x00, 0x00, 0x00,
   0x49, 0x49, 0x49, 0x49, 0x49, 0x49, 0x49, 0x49, 0x48, 0x48, 0x48, 0x48,
   0x48, 0x48, 0x48, 0x48, 0x42, 0x42, 0x42, 0x42, 0x42, 0x00, 0x42, 0x42,
   0x42, 0x7e, 0x78, 0x78, 0x7e, 0x00, 0x08, 0x00, 0x49, 0x49, 0x49, 0x49,
   0x49, 0x49, 0x49, 0x49, 0x30, 0x30, 0x30, 0x30, 0x30, 0x30, 0x30, 0x30,
   0x62, 0x62, 0x62, 0x62, 0x62, 0x00, 0x62, 0x62, 0x7e, 0x42, 0x48, 0x48,
   0x42, 0x00, 0x08, 0x00, 0x49, 0x49, 0x49, 0x49, 0x49, 0x49, 0x49, 0x49,
   0x30, 0x30, 0x30, 0x30, 0x30, 0x30, 0x30, 0x30, 0x52, 0x52, 0x52, 0x52,
   0x52, 0x00, 0x52, 0x52, 0x42, 0x42, 0x48, 0x48, 0x42, 0x00, 0x08, 0x00,
   0x36, 0x36, 0x36, 0x36, 0x36, 0x36, 0x36, 0x36, 0x48, 0x48, 0x48, 0x48,
   0x48, 0x48, 0x48, 0x48, 0x4c, 0x4c, 0x4c, 0x4c, 0x4c, 0x00, 0x4c, 0x4c,
   0x42, 0x42, 0x48, 0x48, 0x42, 0x00, 0x10, 0x00, 0x00, 0x00, 0x00, 0x00,
   0x00, 0x00, 0x00, 0x00, 0x00, 0x00, 0x00, 0x00, 0x00, 0x00, 0x00, 0x00,
   0x00, 0x00, 0x00, 0x00, 0x00, 0x00, 0x00, 0x00, 0x00, 0x00, 0x00, 0x00,
   0x08, 0x00, 0x00, 0x00, 0x08, 0x08, 0x08, 0x08, 0x08, 0x08, 0x08, 0x08,
   0x10, 0x10, 0x10, 0x10, 0x10, 0x10, 0x10, 0x10, 0x00, 0x00, 0x08, 0x08,
   0x08, 0x00, 0x00, 0x08, 0x00, 0x00, 0x00, 0x00, 0x18, 0x00, 0x00, 0x00,
   0x00, 0x00, 0x00, 0x00, 0x00, 0x00, 0x00, 0x00, 0x00, 0x00, 0x00, 0x00,
   0x00, 0x00, 0x00, 0x00, 0x00, 0x00, 0x00, 0x00, 0x00, 0x00, 0x00, 0x00,
   0x00, 0x00, 0x00, 0x00, 0x00, 0x00, 0x00, 0x00, 0x00, 0x00, 0x00, 0x00,
   0x00, 0x00, 0x00, 0x00, 0x00, 0x00, 0x00, 0x00, 0x00, 0x00, 0x00, 0x00,
   0x00, 0x00, 0x00, 0x00, 0x00, 0x00, 0x00, 0x00, 0x00, 0x00, 0x00, 0x00,
   0x00, 0x00, 0x00, 0x00, 0x00, 0x00, 0x00, 0x00, 0x00, 0x00, 0x00, 0x00,
   0x00, 0x00, 0x00, 0x00, 0x00, 0x00, 0x00, 0x00, 0x00, 0x00, 0x00, 0x00,
   0x00, 0x00, 0x00, 0x00, 0x00, 0x00, 0x00, 0x00, 0x00, 0x00, 0x00, 0x00,
   0x00, 0x00, 0x00, 0x00, 0x00, 0x00, 0x00, 0x00, 0x00, 0x00, 0x00, 0x00,
   0x00, 0x00, 0x00, 0x00, 0x00, 0x00, 0x00, 0x00, 0x00, 0x00, 0x00, 0x2c,
   0x00, 0x00, 0x00, 0x00, 0x00, 0x00, 0x00, 0x00, 0x00, 0x58, 0x00, 0x00,
   0x00, 0x00, 0x00, 0x00, 0x00, 0x00, 0x00, 0x00, 0x00, 0x00, 0x00, 0x00,
   0x00, 0x00, 0x08, 0x10, 0x00, 0x00, 0x00, 0x1a, 0x21, 0x3e, 0x00, 0x00,
   0x00, 0x00, 0x00, 0x00, 0x58, 0x34, 0x08, 0x00, 0x20, 0x00, 0x58, 0x58,
   0x79, 0x7a, 0x49, 0x4a, 0x42, 0x2c, 0x4c, 0x58, 0x42, 0x00, 0x52, 0x4a,
   0x00, 0x00, 0x2c, 0x00, 0x1e, 0x00, 0x72, 0x74, 0x00, 0x2c, 0x4c, 0x58,
   0x34, 0x00, 0x10, 0x00, 0x10, 0x00, 0x34, 0x34, 0x0a, 0x09, 0x4a, 0x49,
   0x42, 0x48, 0x28, 0x34, 0x3c, 0x7e, 0x42, 0x42, 0x00, 0x00, 0x1a, 0x36,
   0x00, 0x3e, 0x24, 0x22, 0x00, 0x44, 0x24, 0x34, 0x00, 0x6c, 0x00, 0x00,
   0x00, 0x00, 0x00, 0x00, 0x08, 0x08, 0x48, 0x48, 0x42, 0x04, 0x04, 0x20,
   0x00, 0x00, 0x00, 0x00, 0x00, 0x00, 0x00, 0x00, 0x3e, 0x08, 0x20, 0x20,
   0x00, 0x08, 0x08, 0x10, 0x00, 0x00, 0x3a, 0x3a, 0x3a, 0x00, 0x3a, 0x3a,
   0x08, 0x08, 0x48, 0x48, 0x42, 0x00, 0x00, 0x10, 0x08, 0x08, 0x08, 0x08,
   0x00, 0x00, 0x08, 0x08, 0x08, 0x08, 0x20, 0x20, 0x00, 0x00, 0x00, 0x20,
   0x00, 0x00, 0x46, 0x46, 0x46, 0x00, 0x46, 0x46, 0x38, 0x38, 0x78, 0x78,
   0x7e, 0x00, 0x00, 0x00, 0x08, 0x08, 0x08, 0x08, 0x00, 0x00, 0x08, 0x08,
   0x08, 0x08, 0x20, 0x20, 0x00, 0x00, 0x00, 0x00, 0x00, 0x00, 0x42, 0x42,
   0x42, 0x00, 0x42, 0x42, 0x08, 0x08, 0x48, 0x48, 0x42, 0x00, 0x00, 0x00,
   0x08, 0x08, 0x08, 0x08, 0x00, 0x00, 0x08, 0x08, 0x08, 0x08, 0x20, 0x20,
   0x00, 0x00, 0x00, 0x00, 0x00, 0x00, 0x42, 0x42, 0x42, 0x00, 0x42, 0x42,
   0x08, 0x08, 0x48, 0x48, 0x42, 0x00, 0x00, 0x00, 0x08, 0x08, 0x08, 0x08,
   0x00, 0x00, 0x08, 0x08, 0x08, 0x08, 0x20, 0x20, 0x00, 0x00, 0x00, 0x00,
   0x00, 0x00, 0x42, 0x42, 0x42, 0x00, 0x42, 0x42, 0x08, 0x08, 0x48, 0x48,
   0x42, 0x00, 0x00, 0x00, 0x48, 0x48, 0x48, 0x48, 0x00, 0x00, 0x48, 0x48,
   0x08, 0x08, 0x20, 0x20, 0x00, 0x00, 0x00, 0x00, 0x00, 0x00, 0x42, 0x42,
   0x42, 0x00, 0x42, 0x42, 0x78, 0x78, 0x48, 0x48, 0x42, 0x00, 0x00, 0x00,
   0x30, 0x30, 0x30, 0x30, 0x00, 0x00, 0x30, 0x30, 0x3e, 0x3e, 0x70, 0x70,
   0x00, 0x00, 0x00, 0x00, 0x00, 0x00, 0x40, 0x40, 0x40, 0x00, 0x40, 0x40,
   0x00, 0x00, 0x00, 0x00, 0x08, 0x00, 0x00, 0x00, 0x00, 0x00, 0x00, 0x00,
   0x00, 0x00, 0x00, 0x00, 0x00, 0x00, 0x00, 0x00, 0x00, 0x00, 0x00, 0x00,
   0x00, 0x00, 0x42, 0x42, 0x42, 0x00, 0x40, 0x42, 0x00, 0x00, 0x00, 0x00,
   0x18, 0x00, 0x00, 0x00, 0x00, 0x00, 0x00, 0x00, 0x00, 0x00, 0x00, 0x00,
   0x00, 0x00, 0x00, 0x00, 0x00, 0x00, 0x00, 0x00, 0x00, 0x00, 0x00, 0x00,
   0x00, 0x00, 0x00, 0x00, 0x00, 0x00, 0x00, 0x00, 0x00, 0x00, 0x00, 0x00,
   0x00, 0x00, 0x00, 0x00, 0x00, 0x00, 0x00, 0x00, 0x00, 0x00, 0x00, 0x00,
   0x00, 0x00, 0x00, 0x00, 0x00, 0x00, 0x00, 0x00, 0x00, 0x00, 0x00, 0x00,
   0x00, 0x00, 0x00, 0x00, 0x00, 0x00, 0x00, 0x00, 0x00, 0x00, 0x00, 0x00,
   0x00, 0x00, 0x00, 0x00, 0x00, 0x00, 0x00, 0x00, 0x00, 0x00, 0x00, 0x00,
   0x00, 0x00, 0x00, 0x00, 0x00, 0x00, 0x00, 0x00, 0x00, 0x00, 0x00, 0x00,
   0x00, 0x00, 0x00, 0x00, 0x00, 0x00, 0x00, 0x00, 0x00, 0x00, 0x00, 0x00,
   0x00, 0x00, 0x00, 0x00, 0x00, 0x00, 0x00, 0x00, 0x00, 0x00, 0x00, 0x00,
   0x00, 0x00, 0x00, 0x4c, 0x00, 0x00, 0x00, 0x00, 0x00, 0x00, 0x00, 0x00,
   0x00, 0x00, 0x00, 0x00, 0x00, 0x00, 0x00, 0x00, 0x00, 0x00, 0x00, 0x00,
   0x00, 0x00, 0x00, 0x00, 0x00, 0x00, 0x08, 0x10, 0x18, 0x18, 0x00, 0x3a,
   0x21, 0x3e, 0x00, 0x00, 0x00, 0x08, 0x10, 0x00, 0x00, 0x00, 0x00, 0x00,
   0x00, 0x00, 0x00, 0x00, 0x00, 0x00, 0x00, 0x00, 0x00, 0x00, 0x00, 0x00,
   0x42, 0x00, 0x52, 0x4a, 0x10, 0x08, 0x58, 0x00, 0x1e, 0x00, 0x52, 0x54,
   0x3b, 0x52, 0x4a, 0x08, 0x00, 0x00, 0x04, 0x00, 0x10, 0x00, 0x2c, 0x2c,
   0x31, 0x32, 0x31, 0x32, 0x3e, 0x10, 0x18, 0x00, 0x3c, 0x7e, 0x42, 0x42,
   0x08, 0x10, 0x34, 0x66, 0x00, 0x41, 0x54, 0x52, 0x49, 0x42, 0x42, 0x10,
   0x00, 0x00, 0x08, 0x00, 0x08, 0x00, 0x1a, 0x1a, 0x4a, 0x49, 0x4a, 0x49,
   0x41, 0x08, 0x08, 0x00, 0x00, 0x00, 0x00, 0x00, 0x00, 0x00, 0x00, 0x00,
   0x41, 0x41, 0x50, 0x50, 0x4a, 0x00, 0x00, 0x00, 0x00, 0x00, 0x00, 0x00,
   0x00, 0x00, 0x00, 0x00, 0x48, 0x48, 0x48, 0x48, 0x41, 0x00, 0x10, 0x00,
   0x42, 0x42, 0x42, 0x42, 0x3c, 0x3c, 0x42, 0x42, 0x22, 0x22, 0x20, 0x20,
   0x48, 0x00, 0x00, 0x00, 0x00, 0x00, 0x41, 0x41, 0x41, 0x00, 0x41, 0x41,
   0x48, 0x48, 0x48, 0x48, 0x41, 0x00, 0x00, 0x00, 0x42, 0x42, 0x42, 0x42,
   0x42, 0x42, 0x42, 0x42, 0x14, 0x14, 0x20, 0x20, 0x38, 0x00, 0x00, 0x00,
   0x00, 0x00, 0x49, 0x49, 0x49, 0x00, 0x49, 0x49, 0x48, 0x48, 0x48, 0x48,
   0x41, 0x00, 0x00, 0x00, 0x42, 0x42, 0x42, 0x42, 0x42, 0x42, 0x42, 0x42,
   0x08, 0x08, 0x20, 0x20, 0x08, 0x00, 0x00, 0x00, 0x00, 0x00, 0x49, 0x49,
   0x49, 0x00, 0x49, 0x49, 0x48, 0x48, 0x48, 0x48, 0x41, 0x00, 0x00, 0x00,
   0x42, 0x42, 0x42, 0x42, 0x42, 0x42, 0x42, 0x42, 0x08, 0x08, 0x20, 0x20,
   0x08, 0x00, 0x00, 0x00, 0x00, 0x00, 0x49, 0x49, 0x49, 0x00, 0x49, 0x49,
   0x48, 0x48, 0x30, 0x30, 0x36, 0x00, 0x00, 0x00, 0x42, 0x42, 0x42, 0x42,
   0x46, 0x46, 0x42, 0x42, 0x08, 0x08, 0x20, 0x20, 0x08, 0x00, 0x00, 0x00,
   0x00, 0x00, 0x49, 0x49, 0x49, 0x00, 0x49, 0x49, 0x48, 0x48, 0x30, 0x30,
   0x14, 0x00, 0x00, 0x00, 0x3c, 0x3c, 0x3c, 0x3c, 0x3a, 0x3a, 0x3c, 0x3c,
   0x08, 0x08, 0x20, 0x20, 0x08, 0x00, 0x00, 0x00, 0x00, 0x00, 0x36, 0x36,
   0x36, 0x00, 0x36, 0x36, 0x30, 0x30, 0x48, 0x48, 0x77, 0x00, 0x00, 0x00,
   0x00, 0x00, 0x00, 0x00, 0x02, 0x02, 0x00, 0x00, 0x00, 0x00, 0x00, 0x00,
   0x00, 0x00, 0x00, 0x00, 0x00, 0x00, 0x00, 0x00, 0x00, 0x00, 0x00, 0x00,
   0x00, 0x00, 0x00, 0x00, 0x08, 0x00, 0x00, 0x00, 0x00, 0x00, 0x00, 0x00,
   0x02, 0x02, 0x00, 0x00, 0x00, 0x00, 0x00, 0x00, 0x00, 0x00, 0x00, 0x00,
   0x00, 0x00, 0x08, 0x08, 0x08, 0x00, 0x00, 0x08, 0x00, 0x00, 0x00, 0x00,
   0x18, 0x00, 0x00, 0x00, 0x00, 0x00, 0x00, 0x00, 0x00, 0x00, 0x00, 0x00,
   0x00, 0x00, 0x00, 0x00, 0x00, 0x00, 0x00, 0x00, 0x00, 0x00, 0x00, 0x00,
   0x00, 0x00, 0x00, 0x00, 0x00, 0x00, 0x00, 0x00, 0x00, 0x00, 0x00, 0x00,
   0x00, 0x00, 0x00, 0x00, 0x00, 0x00, 0x00, 0x00, 0x00, 0x00, 0x00, 0x00,
   0x00, 0x00, 0x00, 0x00, 0x00, 0x00, 0x00, 0x00, 0x00, 0x00, 0x00, 0x00,
   0x00, 0x00, 0x00, 0x00, 0x00, 0x00, 0x00, 0x00, 0x00, 0x00, 0x00, 0x00,
   0x00, 0x00, 0x00, 0x00, 0x00, 0x00, 0x00, 0x00, 0x00, 0x00, 0x00, 0x00,
   0x00, 0x00, 0x00, 0x00, 0x00, 0x00, 0x00, 0x00, 0x00, 0x00, 0x00, 0x00,
   0x00, 0x00, 0x00, 0x00 };
