#define u001E00_u001EFF_width 256
#define u001E00_u001EFF_height 128
static unsigned char u001E00_u001EFF_bits[] = {
   0x00, 0x00, 0x00, 0x00, 0x00, 0x00, 0x00, 0x00, 0x00, 0x00, 0x00, 0x00,
   0x00, 0x00, 0x00, 0x00, 0x00, 0x00, 0x00, 0x00, 0x08, 0x08, 0x10, 0x10,
   0x00, 0x00, 0x00, 0x00, 0x00, 0x00, 0x00, 0x00, 0x00, 0x00, 0x18, 0x10,
   0x00, 0x00, 0x00, 0x00, 0x10, 0x00, 0x18, 0x18, 0x00, 0x00, 0x00, 0x00,
   0x00, 0x00, 0x00, 0x00, 0x10, 0x10, 0x08, 0x08, 0x00, 0x00, 0x00, 0x00,
   0x42, 0x00, 0x18, 0x18, 0x18, 0x00, 0x00, 0x02, 0x1e, 0x02, 0x1e, 0x02,
   0x08, 0x10, 0x00, 0x40, 0x1e, 0x40, 0x1e, 0x40, 0x1e, 0x40, 0x1e, 0x40,
   0x3c, 0x00, 0x3c, 0x00, 0x7e, 0x00, 0x7e, 0x00, 0x3c, 0x42, 0x00, 0x00,
   0x24, 0x00, 0x3e, 0x02, 0x22, 0x02, 0x22, 0x02, 0x00, 0x08, 0x1e, 0x40,
   0x22, 0x40, 0x22, 0x40, 0x22, 0x40, 0x22, 0x40, 0x00, 0x3c, 0x00, 0x3c,
   0x02, 0x00, 0x02, 0x00, 0x00, 0x3c, 0x7e, 0x38, 0x42, 0x3c, 0x42, 0x02,
   0x42, 0x02, 0x42, 0x02, 0x3c, 0x00, 0x22, 0x40, 0x42, 0x40, 0x42, 0x40,
   0x42, 0x40, 0x42, 0x5c, 0x7e, 0x00, 0x7e, 0x00, 0x02, 0x3c, 0x02, 0x3c,
   0x7e, 0x00, 0x02, 0x44, 0x42, 0x40, 0x42, 0x3a, 0x22, 0x3a, 0x22, 0x3a,
   0x42, 0x3c, 0x42, 0x5c, 0x42, 0x5c, 0x42, 0x5c, 0x42, 0x5c, 0x42, 0x62,
   0x02, 0x3c, 0x02, 0x3c, 0x1e, 0x42, 0x1e, 0x42, 0x02, 0x3c, 0x02, 0x04,
   0x42, 0x7c, 0x3e, 0x46, 0x1e, 0x46, 0x1e, 0x46, 0x02, 0x42, 0x42, 0x62,
   0x42, 0x62, 0x42, 0x62, 0x42, 0x62, 0x42, 0x42, 0x02, 0x42, 0x02, 0x42,
   0x02, 0x7e, 0x02, 0x7e, 0x02, 0x42, 0x1e, 0x3e, 0x7e, 0x42, 0x42, 0x42,
   0x22, 0x42, 0x22, 0x42, 0x02, 0x02, 0x42, 0x42, 0x42, 0x42, 0x42, 0x42,
   0x42, 0x42, 0x42, 0x42, 0x1e, 0x7e, 0x1e, 0x7e, 0x02, 0x02, 0x02, 0x02,
   0x1e, 0x7e, 0x02, 0x04, 0x42, 0x62, 0x42, 0x42, 0x42, 0x42, 0x42, 0x42,
   0x02, 0x02, 0x42, 0x42, 0x42, 0x42, 0x42, 0x42, 0x42, 0x42, 0x42, 0x62,
   0x02, 0x02, 0x02, 0x02, 0x02, 0x42, 0x02, 0x42, 0x02, 0x02, 0x02, 0x04,
   0x42, 0x5c, 0x42, 0x46, 0x22, 0x46, 0x22, 0x46, 0x42, 0x42, 0x22, 0x62,
   0x22, 0x62, 0x22, 0x62, 0x22, 0x62, 0x22, 0x5c, 0x02, 0x42, 0x02, 0x42,
   0x7e, 0x3c, 0x7e, 0x3c, 0x02, 0x42, 0x02, 0x04, 0x18, 0x18, 0x3e, 0x3a,
   0x1e, 0x3a, 0x1e, 0x3a, 0x3c, 0x3c, 0x1e, 0x5c, 0x1e, 0x5c, 0x1e, 0x5c,
   0x1e, 0x5c, 0x1e, 0x00, 0x7e, 0x3c, 0x7e, 0x3c, 0x00, 0x00, 0x00, 0x00,
   0x7e, 0x3c, 0x02, 0x04, 0x24, 0x24, 0x00, 0x00, 0x00, 0x00, 0x00, 0x00,
   0x10, 0x10, 0x00, 0x00, 0x00, 0x00, 0x00, 0x00, 0x10, 0x10, 0x18, 0x18,
   0x00, 0x00, 0x00, 0x00, 0x18, 0x18, 0x4c, 0x4c, 0x10, 0x10, 0x00, 0x00,
   0x18, 0x18, 0x00, 0x00, 0x18, 0x18, 0x3e, 0x7e, 0x08, 0x08, 0x00, 0x00,
   0x18, 0x18, 0x3e, 0x7e, 0x08, 0x08, 0x24, 0x24, 0x00, 0x00, 0x00, 0x00,
   0x24, 0x24, 0x32, 0x32, 0x08, 0x08, 0x00, 0x00, 0x00, 0x00, 0x00, 0x00,
   0x00, 0x00, 0x00, 0x00, 0x00, 0x00, 0x00, 0x00, 0x00, 0x00, 0x00, 0x00,
   0x00, 0x00, 0x00, 0x00, 0x00, 0x00, 0x00, 0x00, 0x00, 0x00, 0x00, 0x00,
   0x00, 0x00, 0x00, 0x00, 0x00, 0x00, 0x00, 0x00, 0x00, 0x00, 0x00, 0x00,
   0x00, 0x00, 0x00, 0x00, 0x00, 0x00, 0x00, 0x00, 0x00, 0x00, 0x00, 0x00,
   0x00, 0x00, 0x00, 0x00, 0x00, 0x00, 0x00, 0x00, 0x00, 0x00, 0x00, 0x00,
   0x00, 0x00, 0x00, 0x00, 0x00, 0x00, 0x00, 0x00, 0x00, 0x00, 0x00, 0x00,
   0x00, 0x00, 0x00, 0x00, 0x00, 0x00, 0x00, 0x00, 0x00, 0x00, 0x00, 0x00,
   0x00, 0x00, 0x00, 0x00, 0x00, 0x00, 0x00, 0x00, 0x00, 0x00, 0x00, 0x00,
   0x00, 0x00, 0x00, 0x00, 0x00, 0x00, 0x00, 0x00, 0x00, 0x00, 0x10, 0x10,
   0x10, 0x00, 0x00, 0x00, 0x00, 0x00, 0x00, 0x00, 0x00, 0x00, 0x00, 0x00,
   0x00, 0x00, 0x00, 0x00, 0x7e, 0x00, 0x18, 0x10, 0x00, 0x00, 0x24, 0x24,
   0x00, 0x00, 0x00, 0x00, 0x00, 0x00, 0x08, 0x08, 0x08, 0x20, 0x00, 0x00,
   0x00, 0x00, 0x00, 0x00, 0x7e, 0x3e, 0x00, 0x00, 0x00, 0x00, 0x10, 0x00,
   0x00, 0x00, 0x00, 0x02, 0x42, 0x02, 0x24, 0x24, 0x42, 0x02, 0x42, 0x02,
   0x7c, 0x00, 0x22, 0x00, 0x42, 0x12, 0x42, 0x02, 0x42, 0x02, 0x02, 0x0c,
   0x00, 0x00, 0x02, 0x0c, 0x02, 0x0c, 0x08, 0x10, 0x3c, 0x7e, 0x42, 0x02,
   0x42, 0x02, 0x00, 0x00, 0x42, 0x02, 0x42, 0x02, 0x10, 0x18, 0x00, 0x12,
   0x22, 0x02, 0x22, 0x02, 0x22, 0x02, 0x02, 0x08, 0x02, 0x0c, 0x02, 0x08,
   0x02, 0x08, 0x41, 0x08, 0x42, 0x00, 0x42, 0x02, 0x42, 0x02, 0x42, 0x02,
   0x42, 0x02, 0x42, 0x02, 0x10, 0x00, 0x3e, 0x00, 0x12, 0x02, 0x12, 0x02,
   0x12, 0x02, 0x02, 0x08, 0x02, 0x08, 0x02, 0x08, 0x02, 0x08, 0x63, 0x00,
   0x02, 0x5c, 0x42, 0x3a, 0x42, 0x3a, 0x42, 0x02, 0x42, 0x3a, 0x7e, 0x3a,
   0x10, 0x18, 0x08, 0x0c, 0x0a, 0x22, 0x0a, 0x22, 0x0a, 0x22, 0x02, 0x08,
   0x02, 0x08, 0x02, 0x08, 0x02, 0x08, 0x55, 0x37, 0x02, 0x22, 0x7e, 0x46,
   0x7e, 0x46, 0x42, 0x3a, 0x7e, 0x46, 0x42, 0x46, 0x10, 0x10, 0x08, 0x08,
   0x06, 0x12, 0x06, 0x12, 0x06, 0x12, 0x02, 0x08, 0x02, 0x08, 0x02, 0x08,
   0x02, 0x08, 0x49, 0x49, 0x72, 0x22, 0x42, 0x42, 0x42, 0x42, 0x7e, 0x46,
   0x42, 0x42, 0x42, 0x42, 0x10, 0x10, 0x08, 0x08, 0x0a, 0x0e, 0x0a, 0x0e,
   0x0a, 0x0e, 0x02, 0x08, 0x02, 0x08, 0x02, 0x08, 0x02, 0x08, 0x49, 0x49,
   0x42, 0x1c, 0x42, 0x42, 0x42, 0x42, 0x42, 0x42, 0x42, 0x42, 0x42, 0x42,
   0x10, 0x10, 0x08, 0x08, 0x12, 0x12, 0x12, 0x12, 0x12, 0x12, 0x02, 0x08,
   0x02, 0x08, 0x02, 0x08, 0x02, 0x08, 0x41, 0x49, 0x62, 0x02, 0x42, 0x42,
   0x42, 0x42, 0x42, 0x42, 0x42, 0x42, 0x42, 0x42, 0x7c, 0x7c, 0x08, 0x08,
   0x22, 0x22, 0x22, 0x22, 0x22, 0x22, 0x02, 0x08, 0x02, 0x08, 0x02, 0x08,
   0x7e, 0x3e, 0x41, 0x49, 0x5c, 0x3c, 0x42, 0x42, 0x42, 0x42, 0x42, 0x42,
   0x42, 0x42, 0x00, 0x00, 0x00, 0x00, 0x3e, 0x3e, 0x42, 0x42, 0x42, 0x42,
   0x42, 0x42, 0x7e, 0x3e, 0x7e, 0x3e, 0x7e, 0x3e, 0x00, 0x00, 0x41, 0x41,
   0x00, 0x42, 0x00, 0x00, 0x00, 0x00, 0x00, 0x00, 0x20, 0x20, 0x42, 0x42,
   0x4c, 0x4c, 0x00, 0x00, 0x00, 0x00, 0x00, 0x00, 0x00, 0x00, 0x00, 0x00,
   0x00, 0x00, 0x00, 0x00, 0x18, 0x08, 0x00, 0x00, 0x00, 0x3c, 0x00, 0x00,
   0x18, 0x18, 0x00, 0x00, 0x10, 0x10, 0x3c, 0x3c, 0x32, 0x32, 0x00, 0x00,
   0x00, 0x00, 0x18, 0x18, 0x7e, 0x7e, 0x18, 0x18, 0x18, 0x18, 0x7e, 0x3e,
   0x24, 0x14, 0x00, 0x00, 0x00, 0x00, 0x00, 0x00, 0x00, 0x00, 0x00, 0x00,
   0x00, 0x00, 0x00, 0x00, 0x00, 0x00, 0x00, 0x00, 0x00, 0x00, 0x00, 0x00,
   0x00, 0x00, 0x00, 0x00, 0x00, 0x00, 0x00, 0x00, 0x00, 0x00, 0x00, 0x00,
   0x00, 0x00, 0x00, 0x00, 0x00, 0x00, 0x00, 0x00, 0x00, 0x00, 0x00, 0x00,
   0x00, 0x00, 0x00, 0x00, 0x00, 0x00, 0x00, 0x00, 0x00, 0x00, 0x00, 0x00,
   0x00, 0x00, 0x00, 0x00, 0x00, 0x00, 0x00, 0x00, 0x00, 0x00, 0x00, 0x00,
   0x00, 0x00, 0x00, 0x00, 0x00, 0x00, 0x00, 0x00, 0x00, 0x00, 0x00, 0x00,
   0x00, 0x00, 0x00, 0x00, 0x00, 0x00, 0x00, 0x00, 0x00, 0x00, 0x00, 0x00,
   0x00, 0x00, 0x00, 0x00, 0x00, 0x00, 0x00, 0x00, 0x00, 0x00, 0x00, 0x00,
   0x00, 0x00, 0x00, 0x00, 0x20, 0x20, 0x24, 0x00, 0x04, 0x04, 0x10, 0x20,
   0x00, 0x00, 0x00, 0x00, 0x00, 0x00, 0x00, 0x00, 0x00, 0x00, 0x00, 0x00,
   0x0c, 0x00, 0x00, 0x00, 0x18, 0x00, 0x00, 0x00, 0x00, 0x00, 0x00, 0x00,
   0x10, 0x10, 0x00, 0x24, 0x08, 0x08, 0x08, 0x10, 0x10, 0x00, 0x18, 0x00,
   0x18, 0x00, 0x00, 0x00, 0x3c, 0x00, 0x00, 0x00, 0x00, 0x08, 0x41, 0x00,
   0x00, 0x00, 0x42, 0x00, 0x42, 0x00, 0x42, 0x00, 0x4c, 0x00, 0x4c, 0x00,
   0x3e, 0x00, 0x3e, 0x00, 0x08, 0x10, 0x00, 0x00, 0x00, 0x00, 0x3e, 0x00,
   0x00, 0x00, 0x3e, 0x00, 0x41, 0x08, 0x41, 0x00, 0x42, 0x18, 0x42, 0x00,
   0x42, 0x00, 0x42, 0x00, 0x32, 0x4c, 0x32, 0x4c, 0x00, 0x3c, 0x00, 0x3c,
   0x00, 0x08, 0x3e, 0x18, 0x3e, 0x18, 0x42, 0x00, 0x3e, 0x3c, 0x42, 0x00,
   0x63, 0x00, 0x63, 0x00, 0x42, 0x00, 0x46, 0x00, 0x46, 0x00, 0x46, 0x00,
   0x00, 0x32, 0x00, 0x32, 0x3e, 0x00, 0x3e, 0x00, 0x3e, 0x00, 0x42, 0x00,
   0x42, 0x00, 0x42, 0x00, 0x42, 0x00, 0x42, 0x00, 0x55, 0x37, 0x55, 0x37,
   0x46, 0x3a, 0x4a, 0x3a, 0x4a, 0x3a, 0x4a, 0x3a, 0x3e, 0x00, 0x3e, 0x00,
   0x41, 0x3c, 0x41, 0x3c, 0x42, 0x3a, 0x42, 0x3a, 0x42, 0x3a, 0x42, 0x3a,
   0x42, 0x3a, 0x42, 0x3a, 0x49, 0x49, 0x49, 0x49, 0x4a, 0x46, 0x52, 0x46,
   0x52, 0x46, 0x52, 0x46, 0x41, 0x3c, 0x41, 0x3c, 0x41, 0x42, 0x41, 0x42,
   0x42, 0x46, 0x3e, 0x46, 0x3e, 0x44, 0x3e, 0x44, 0x3e, 0x44, 0x3e, 0x44,
   0x41, 0x49, 0x49, 0x49, 0x52, 0x42, 0x62, 0x42, 0x62, 0x42, 0x62, 0x42,
   0x41, 0x42, 0x41, 0x42, 0x41, 0x42, 0x41, 0x42, 0x3e, 0x42, 0x02, 0x42,
   0x0a, 0x04, 0x0a, 0x04, 0x0a, 0x04, 0x0a, 0x04, 0x41, 0x49, 0x41, 0x49,
   0x62, 0x42, 0x42, 0x42, 0x42, 0x42, 0x42, 0x42, 0x41, 0x42, 0x41, 0x42,
   0x41, 0x42, 0x41, 0x42, 0x02, 0x46, 0x02, 0x46, 0x12, 0x04, 0x12, 0x04,
   0x12, 0x04, 0x12, 0x04, 0x41, 0x49, 0x41, 0x49, 0x42, 0x42, 0x42, 0x42,
   0x42, 0x42, 0x42, 0x42, 0x41, 0x42, 0x41, 0x42, 0x41, 0x42, 0x41, 0x42,
   0x02, 0x3a, 0x02, 0x3a, 0x22, 0x04, 0x22, 0x04, 0x22, 0x04, 0x22, 0x04,
   0x41, 0x41, 0x41, 0x41, 0x42, 0x42, 0x42, 0x42, 0x42, 0x42, 0x00, 0x42,
   0x3e, 0x3c, 0x3e, 0x3c, 0x3e, 0x3c, 0x3e, 0x3c, 0x02, 0x02, 0x02, 0x02,
   0x42, 0x04, 0x42, 0x04, 0x42, 0x04, 0x42, 0x04, 0x00, 0x00, 0x08, 0x08,
   0x00, 0x00, 0x00, 0x00, 0x00, 0x00, 0x18, 0x18, 0x00, 0x00, 0x00, 0x00,
   0x00, 0x00, 0x00, 0x00, 0x00, 0x02, 0x00, 0x02, 0x00, 0x00, 0x00, 0x00,
   0x00, 0x00, 0x00, 0x00, 0x00, 0x00, 0x08, 0x08, 0x00, 0x00, 0x18, 0x18,
   0x7e, 0x7e, 0x24, 0x24, 0x00, 0x00, 0x00, 0x00, 0x00, 0x00, 0x00, 0x00,
   0x00, 0x02, 0x00, 0x02, 0x00, 0x00, 0x18, 0x18, 0x18, 0x18, 0x7e, 0x7e,
   0x00, 0x00, 0x00, 0x00, 0x00, 0x00, 0x00, 0x00, 0x00, 0x00, 0x00, 0x00,
   0x00, 0x00, 0x00, 0x00, 0x00, 0x00, 0x00, 0x00, 0x00, 0x00, 0x00, 0x00,
   0x00, 0x00, 0x00, 0x00, 0x00, 0x00, 0x00, 0x00, 0x00, 0x00, 0x00, 0x00,
   0x00, 0x00, 0x00, 0x00, 0x00, 0x00, 0x00, 0x00, 0x00, 0x00, 0x00, 0x00,
   0x00, 0x00, 0x00, 0x00, 0x00, 0x00, 0x00, 0x00, 0x00, 0x00, 0x00, 0x00,
   0x00, 0x00, 0x00, 0x00, 0x00, 0x00, 0x00, 0x00, 0x00, 0x00, 0x00, 0x00,
   0x00, 0x00, 0x00, 0x00, 0x00, 0x00, 0x00, 0x00, 0x00, 0x00, 0x00, 0x00,
   0x00, 0x00, 0x00, 0x00, 0x00, 0x00, 0x00, 0x00, 0x00, 0x00, 0x00, 0x00,
   0x00, 0x00, 0x00, 0x00, 0x04, 0x00, 0x18, 0x18, 0x00, 0x00, 0x00, 0x00,
   0x00, 0x00, 0x00, 0x00, 0x00, 0x00, 0x00, 0x00, 0x00, 0x00, 0x00, 0x00,
   0x20, 0x20, 0x24, 0x00, 0x00, 0x00, 0x00, 0x00, 0x18, 0x00, 0x00, 0x00,
   0x10, 0x04, 0x00, 0x00, 0x18, 0x00, 0x08, 0x0c, 0x00, 0x00, 0x00, 0x00,
   0x00, 0x00, 0x00, 0x00, 0x00, 0x00, 0x00, 0x00, 0x10, 0x10, 0x00, 0x22,
   0x4c, 0x00, 0x00, 0x00, 0x00, 0x00, 0x3c, 0x00, 0x08, 0x10, 0x24, 0x24,
   0x00, 0x00, 0x00, 0x00, 0x7f, 0x00, 0x7f, 0x00, 0x7f, 0x00, 0x42, 0x00,
   0x42, 0x00, 0x42, 0x00, 0x4c, 0x00, 0x3c, 0x00, 0x32, 0x4c, 0x41, 0x00,
   0x3c, 0x18, 0x42, 0x00, 0x00, 0x08, 0x18, 0x18, 0x3c, 0x18, 0x7f, 0x04,
   0x08, 0x04, 0x08, 0x04, 0x08, 0x04, 0x42, 0x00, 0x42, 0x00, 0x42, 0x00,
   0x32, 0x4c, 0x00, 0x3e, 0x00, 0x32, 0x41, 0x00, 0x42, 0x00, 0x02, 0x00,
   0x3c, 0x00, 0x3c, 0x00, 0x42, 0x00, 0x08, 0x04, 0x08, 0x04, 0x08, 0x04,
   0x08, 0x04, 0x42, 0x00, 0x42, 0x00, 0x42, 0x00, 0x00, 0x32, 0x42, 0x00,
   0x41, 0x00, 0x22, 0x00, 0x02, 0x3c, 0x02, 0x3c, 0x42, 0x3c, 0x42, 0x3c,
   0x02, 0x3c, 0x08, 0x3e, 0x08, 0x3e, 0x08, 0x3e, 0x08, 0x3e, 0x42, 0x22,
   0x42, 0x22, 0x42, 0x22, 0x42, 0x00, 0x42, 0x22, 0x41, 0x44, 0x22, 0x22,
   0x3c, 0x42, 0x3c, 0x42, 0x02, 0x42, 0x02, 0x42, 0x3c, 0x42, 0x08, 0x04,
   0x08, 0x04, 0x08, 0x04, 0x08, 0x04, 0x42, 0x22, 0x42, 0x22, 0x42, 0x22,
   0x42, 0x22, 0x42, 0x22, 0x22, 0x44, 0x22, 0x22, 0x40, 0x0c, 0x40, 0x0c,
   0x3c, 0x0c, 0x3c, 0x0c, 0x40, 0x0c, 0x08, 0x04, 0x08, 0x04, 0x08, 0x04,
   0x08, 0x04, 0x42, 0x22, 0x42, 0x22, 0x42, 0x22, 0x42, 0x22, 0x42, 0x22,
   0x22, 0x44, 0x14, 0x22, 0x40, 0x30, 0x40, 0x30, 0x40, 0x30, 0x40, 0x30,
   0x40, 0x30, 0x08, 0x04, 0x08, 0x04, 0x08, 0x04, 0x08, 0x44, 0x42, 0x22,
   0x42, 0x22, 0x42, 0x22, 0x42, 0x22, 0x42, 0x22, 0x14, 0x28, 0x14, 0x14,
   0x42, 0x42, 0x42, 0x42, 0x42, 0x42, 0x42, 0x42, 0x42, 0x42, 0x08, 0x44,
   0x08, 0x44, 0x08, 0x44, 0x08, 0x38, 0x42, 0x22, 0x3c, 0x5c, 0x3c, 0x5c,
   0x42, 0x22, 0x42, 0x22, 0x14, 0x28, 0x14, 0x14, 0x3c, 0x3c, 0x3c, 0x3c,
   0x3c, 0x3c, 0x3c, 0x3c, 0x3c, 0x3c, 0x08, 0x38, 0x08, 0x38, 0x08, 0x38,
   0x00, 0x00, 0x3c, 0x5c, 0x00, 0x00, 0x00, 0x00, 0x3c, 0x5c, 0x3c, 0x5c,
   0x08, 0x10, 0x08, 0x08, 0x00, 0x00, 0x00, 0x00, 0x00, 0x00, 0x00, 0x00,
   0x00, 0x00, 0x00, 0x00, 0x00, 0x00, 0x00, 0x00, 0x08, 0x18, 0x00, 0x00,
   0x4c, 0x4c, 0x18, 0x18, 0x00, 0x00, 0x00, 0x00, 0x00, 0x00, 0x00, 0x00,
   0x00, 0x00, 0x18, 0x18, 0x00, 0x00, 0x00, 0x00, 0x18, 0x18, 0x00, 0x00,
   0x08, 0x18, 0x7f, 0x7e, 0x14, 0x24, 0x66, 0x36, 0x32, 0x32, 0x24, 0x24,
   0x00, 0x00, 0x00, 0x00, 0x00, 0x00, 0x08, 0x08, 0x00, 0x00, 0x00, 0x00,
   0x00, 0x00, 0x00, 0x00, 0x00, 0x00, 0x00, 0x00, 0x00, 0x00, 0x00, 0x00,
   0x00, 0x00, 0x00, 0x00, 0x00, 0x00, 0x00, 0x00, 0x00, 0x00, 0x00, 0x00,
   0x00, 0x00, 0x00, 0x00, 0x00, 0x00, 0x00, 0x00, 0x00, 0x00, 0x00, 0x00,
   0x00, 0x00, 0x00, 0x00, 0x00, 0x00, 0x00, 0x00, 0x00, 0x00, 0x00, 0x00,
   0x00, 0x00, 0x00, 0x00, 0x00, 0x00, 0x00, 0x00, 0x00, 0x00, 0x00, 0x00,
   0x00, 0x00, 0x00, 0x00, 0x00, 0x00, 0x00, 0x00, 0x00, 0x00, 0x00, 0x00,
   0x00, 0x00, 0x00, 0x00, 0x00, 0x00, 0x00, 0x00, 0x00, 0x00, 0x00, 0x00,
   0x00, 0x00, 0x00, 0x00, 0x00, 0x00, 0x00, 0x00, 0x00, 0x00, 0x00, 0x00,
   0x00, 0x00, 0x00, 0x00, 0x00, 0x00, 0x00, 0x00, 0x00, 0x00, 0x00, 0x00,
   0x00, 0x00, 0x00, 0x00, 0x00, 0x00, 0x00, 0x00, 0x00, 0x00, 0x20, 0x00,
   0x00, 0x00, 0x00, 0x00, 0x04, 0x00, 0x10, 0x00, 0x22, 0x00, 0x08, 0x00,
   0x00, 0x00, 0x08, 0x00, 0x22, 0x00, 0x08, 0x00, 0x18, 0x00, 0x00, 0x00,
   0x00, 0x00, 0x00, 0x48, 0x00, 0x00, 0x40, 0x18, 0x00, 0x00, 0x00, 0x00,
   0x08, 0x04, 0x08, 0x10, 0x22, 0x22, 0x08, 0x08, 0x41, 0x00, 0x08, 0x00,
   0x22, 0x24, 0x08, 0x00, 0x24, 0x18, 0x7e, 0x00, 0x7e, 0x00, 0x02, 0x48,
   0x0c, 0x18, 0x40, 0x00, 0x00, 0x00, 0x00, 0x00, 0x00, 0x08, 0x00, 0x08,
   0x00, 0x22, 0x41, 0x08, 0x41, 0x00, 0x00, 0x18, 0x00, 0x24, 0x41, 0x18,
   0x00, 0x24, 0x40, 0x00, 0x40, 0x00, 0x02, 0x00, 0x12, 0x24, 0x20, 0x18,
   0x00, 0x00, 0x00, 0x00, 0x41, 0x00, 0x41, 0x00, 0x41, 0x00, 0x41, 0x00,
   0x41, 0x00, 0x41, 0x00, 0x41, 0x00, 0x41, 0x00, 0x7e, 0x00, 0x20, 0x00,
   0x20, 0x00, 0x02, 0x04, 0x0c, 0x18, 0x00, 0x24, 0x00, 0x00, 0x00, 0x00,
   0x41, 0x41, 0x41, 0x41, 0x41, 0x41, 0x41, 0x41, 0x41, 0x41, 0x22, 0x42,
   0x22, 0x42, 0x22, 0x42, 0x40, 0x7e, 0x10, 0x7e, 0x10, 0x7e, 0x3a, 0x04,
   0x41, 0x42, 0x3c, 0x04, 0x00, 0x00, 0x00, 0x00, 0x49, 0x41, 0x49, 0x41,
   0x49, 0x41, 0x49, 0x41, 0x49, 0x41, 0x14, 0x24, 0x14, 0x24, 0x14, 0x42,
   0x20, 0x20, 0x08, 0x20, 0x08, 0x20, 0x46, 0x3e, 0x41, 0x42, 0x40, 0x04,
   0x00, 0x00, 0x00, 0x00, 0x49, 0x49, 0x49, 0x49, 0x49, 0x49, 0x49, 0x49,
   0x49, 0x49, 0x08, 0x18, 0x08, 0x18, 0x08, 0x42, 0x10, 0x10, 0x04, 0x10,
   0x04, 0x10, 0x42, 0x04, 0x49, 0x42, 0x7c, 0x06, 0x00, 0x00, 0x00, 0x00,
   0x49, 0x49, 0x49, 0x49, 0x49, 0x49, 0x49, 0x49, 0x49, 0x49, 0x14, 0x18,
   0x14, 0x18, 0x08, 0x62, 0x08, 0x08, 0x02, 0x08, 0x02, 0x08, 0x42, 0x04,
   0x49, 0x62, 0x42, 0x04, 0x00, 0x00, 0x00, 0x00, 0x55, 0x55, 0x55, 0x55,
   0x55, 0x55, 0x55, 0x55, 0x55, 0x55, 0x22, 0x24, 0x22, 0x24, 0x08, 0x5c,
   0x04, 0x04, 0x02, 0x04, 0x02, 0x04, 0x42, 0x44, 0x55, 0x5c, 0x62, 0x04,
   0x00, 0x00, 0x00, 0x00, 0x22, 0x22, 0x22, 0x22, 0x22, 0x22, 0x22, 0x22,
   0x22, 0x22, 0x41, 0x42, 0x41, 0x42, 0x08, 0x40, 0x7e, 0x7e, 0x7e, 0x7e,
   0x7e, 0x7e, 0x42, 0x38, 0x22, 0x40, 0x5c, 0x04, 0x00, 0x00, 0x00, 0x00,
   0x00, 0x00, 0x00, 0x00, 0x00, 0x00, 0x00, 0x00, 0x08, 0x08, 0x00, 0x00,
   0x00, 0x00, 0x00, 0x42, 0x00, 0x00, 0x00, 0x00, 0x00, 0x00, 0x00, 0x00,
   0x00, 0x42, 0x00, 0x00, 0x00, 0x00, 0x00, 0x00, 0x00, 0x00, 0x00, 0x00,
   0x00, 0x00, 0x00, 0x00, 0x08, 0x08, 0x00, 0x00, 0x00, 0x00, 0x00, 0x3c,
   0x00, 0x00, 0x18, 0x18, 0x3c, 0x3c, 0x3c, 0x00, 0x00, 0x3c, 0x00, 0x00,
   0x00, 0x00, 0x00, 0x00, 0x00, 0x00, 0x00, 0x00, 0x00, 0x00, 0x00, 0x00,
   0x00, 0x00, 0x00, 0x00, 0x00, 0x00, 0x00, 0x00, 0x00, 0x00, 0x00, 0x00,
   0x00, 0x00, 0x00, 0x00, 0x00, 0x00, 0x00, 0x00, 0x00, 0x00, 0x00, 0x00,
   0x00, 0x00, 0x00, 0x00, 0x00, 0x00, 0x00, 0x00, 0x00, 0x00, 0x00, 0x00,
   0x00, 0x00, 0x00, 0x00, 0x00, 0x00, 0x00, 0x00, 0x00, 0x00, 0x00, 0x00,
   0x00, 0x00, 0x00, 0x00, 0x00, 0x00, 0x00, 0x00, 0x00, 0x00, 0x00, 0x00,
   0x00, 0x00, 0x00, 0x00, 0x00, 0x00, 0x00, 0x00, 0x00, 0x00, 0x00, 0x00,
   0x00, 0x00, 0x00, 0x00, 0x00, 0x00, 0x00, 0x00, 0x00, 0x00, 0x00, 0x00,
   0x00, 0x00, 0x00, 0x00, 0x00, 0x00, 0x18, 0x00, 0x00, 0x00, 0x00, 0x00,
   0x20, 0x00, 0x4c, 0x4c, 0x00, 0x00, 0x10, 0x20, 0x04, 0x04, 0x18, 0x18,
   0x4c, 0x4c, 0x00, 0x00, 0x00, 0x00, 0x18, 0x18, 0x00, 0x00, 0x00, 0x00,
   0x00, 0x00, 0x24, 0x18, 0x84, 0x00, 0x21, 0x00, 0x52, 0x20, 0x32, 0x32,
   0x18, 0x00, 0x4a, 0x10, 0x08, 0x08, 0x10, 0x10, 0x32, 0x32, 0x42, 0x00,
   0x00, 0x00, 0x24, 0x24, 0x4c, 0x00, 0x42, 0x00, 0x18, 0x00, 0x20, 0x24,
   0x4a, 0x42, 0x52, 0x21, 0x44, 0x52, 0x08, 0x08, 0x24, 0x18, 0x3c, 0x42,
   0x42, 0x42, 0x4a, 0x4a, 0x42, 0x42, 0x3c, 0x42, 0x7e, 0x00, 0x20, 0x20,
   0x32, 0x4c, 0x25, 0x42, 0x24, 0x00, 0x10, 0x20, 0x00, 0x25, 0x00, 0x52,
   0x20, 0x44, 0x14, 0x14, 0x00, 0x24, 0x00, 0x3c, 0x3c, 0x3c, 0x3c, 0x3c,
   0x3c, 0x3c, 0x00, 0x3c, 0x02, 0x00, 0x10, 0x10, 0x00, 0x32, 0x00, 0x25,
   0x42, 0x00, 0x18, 0x10, 0x18, 0x00, 0x18, 0x00, 0x38, 0x20, 0x00, 0x00,
   0x18, 0x00, 0x18, 0x00, 0x00, 0x00, 0x00, 0x00, 0x00, 0x00, 0x18, 0x00,
   0x02, 0x00, 0x7e, 0x10, 0x7e, 0x00, 0x3f, 0x00, 0x42, 0x3c, 0x24, 0x3c,
   0x24, 0x1e, 0x24, 0x1e, 0x24, 0x3c, 0x18, 0x3c, 0x24, 0x3c, 0x24, 0x3c,
   0x18, 0x3c, 0x18, 0x3c, 0x18, 0x3c, 0x24, 0x3c, 0x02, 0x3c, 0x02, 0x3c,
   0x02, 0x3c, 0x01, 0x1e, 0x42, 0x40, 0x42, 0x40, 0x42, 0x20, 0x42, 0x20,
   0x42, 0x40, 0x24, 0x40, 0x42, 0x40, 0x42, 0x40, 0x24, 0x40, 0x24, 0x40,
   0x24, 0x40, 0x42, 0x40, 0x1e, 0x42, 0x02, 0x42, 0x02, 0x42, 0x01, 0x21,
   0x7e, 0x7c, 0x42, 0x7c, 0x42, 0x3e, 0x42, 0x3e, 0x42, 0x7c, 0x42, 0x7c,
   0x42, 0x7c, 0x42, 0x7c, 0x42, 0x7c, 0x42, 0x7c, 0x42, 0x7c, 0x42, 0x7c,
   0x02, 0x7e, 0x1e, 0x7e, 0x1e, 0x7e, 0x0f, 0x3f, 0x42, 0x42, 0x7e, 0x42,
   0x7e, 0x21, 0x7e, 0x21, 0x7e, 0x42, 0x7e, 0x42, 0x7e, 0x42, 0x7e, 0x42,
   0x7e, 0x42, 0x42, 0x42, 0x7e, 0x42, 0x7e, 0x42, 0x02, 0x02, 0x02, 0x02,
   0x02, 0x02, 0x01, 0x01, 0x42, 0x62, 0x42, 0x62, 0x42, 0x31, 0x42, 0x31,
   0x42, 0x62, 0x42, 0x62, 0x42, 0x62, 0x42, 0x62, 0x42, 0x62, 0x7e, 0x62,
   0x42, 0x62, 0x42, 0x62, 0x02, 0x42, 0x02, 0x42, 0x02, 0x42, 0x01, 0x21,
   0x42, 0x5c, 0x42, 0x5c, 0x42, 0x2e, 0x42, 0x2e, 0x42, 0x5c, 0x42, 0x5c,
   0x42, 0x5c, 0x42, 0x5c, 0x42, 0x5c, 0x42, 0x5c, 0x42, 0x5c, 0x42, 0x5c,
   0x7e, 0x3c, 0x7e, 0x3c, 0x7e, 0x3c, 0x3f, 0x1e, 0x00, 0x00, 0x00, 0x00,
   0x00, 0x00, 0x00, 0x00, 0x00, 0x00, 0x00, 0x00, 0x00, 0x00, 0x00, 0x00,
   0x00, 0x00, 0x00, 0x00, 0x00, 0x00, 0x00, 0x00, 0x00, 0x00, 0x00, 0x00,
   0x00, 0x00, 0x00, 0x00, 0x18, 0x18, 0x00, 0x00, 0x00, 0x00, 0x00, 0x00,
   0x00, 0x00, 0x00, 0x00, 0x18, 0x18, 0x00, 0x00, 0x00, 0x00, 0x00, 0x00,
   0x00, 0x00, 0x18, 0x18, 0x18, 0x18, 0x00, 0x00, 0x00, 0x00, 0x00, 0x00,
   0x00, 0x00, 0x00, 0x00, 0x00, 0x00, 0x00, 0x00, 0x00, 0x00, 0x00, 0x00,
   0x00, 0x00, 0x00, 0x00, 0x00, 0x00, 0x00, 0x00, 0x00, 0x00, 0x00, 0x00,
   0x00, 0x00, 0x00, 0x00, 0x00, 0x00, 0x00, 0x00, 0x00, 0x00, 0x00, 0x00,
   0x00, 0x00, 0x00, 0x00, 0x00, 0x00, 0x00, 0x00, 0x00, 0x00, 0x00, 0x00,
   0x00, 0x00, 0x00, 0x00, 0x00, 0x00, 0x00, 0x00, 0x00, 0x00, 0x00, 0x00,
   0x00, 0x00, 0x00, 0x00, 0x00, 0x00, 0x00, 0x00, 0x00, 0x00, 0x00, 0x00,
   0x00, 0x00, 0x00, 0x00, 0x00, 0x00, 0x00, 0x00, 0x00, 0x00, 0x00, 0x00,
   0x00, 0x00, 0x00, 0x00, 0x00, 0x00, 0x00, 0x00, 0x00, 0x00, 0x00, 0x00,
   0x00, 0x00, 0x20, 0x20, 0x4c, 0x4c, 0x00, 0x00, 0x08, 0x08, 0x00, 0x00,
   0x00, 0x00, 0x0c, 0x00, 0x00, 0x00, 0x00, 0x00, 0x20, 0x00, 0x4c, 0x4c,
   0x00, 0x00, 0x00, 0x00, 0x00, 0x00, 0x0c, 0x00, 0x21, 0x00, 0x52, 0x50,
   0x32, 0x32, 0x18, 0x00, 0x14, 0x14, 0x00, 0x00, 0x00, 0x00, 0x12, 0x18,
   0x42, 0x00, 0x21, 0x00, 0x52, 0x20, 0x32, 0x32, 0x18, 0x00, 0x10, 0x00,
   0x10, 0x00, 0x12, 0x0c, 0x52, 0x21, 0x45, 0x44, 0x08, 0x08, 0x24, 0x18,
   0x10, 0x10, 0x3e, 0x00, 0x3c, 0x00, 0x10, 0x24, 0x25, 0x44, 0x52, 0x22,
   0x45, 0x52, 0x08, 0x00, 0x24, 0x18, 0x08, 0x10, 0x08, 0x04, 0x10, 0x12,
   0x00, 0x52, 0x20, 0x2a, 0x14, 0x14, 0x00, 0x24, 0x08, 0x08, 0x08, 0x08,
   0x42, 0x00, 0x08, 0x20, 0x00, 0x2a, 0x00, 0x54, 0x20, 0x45, 0x14, 0x18,
   0x00, 0x24, 0x00, 0x08, 0x00, 0x08, 0x08, 0x10, 0x7e, 0x00, 0x7e, 0x20,
   0x00, 0x00, 0x7e, 0x00, 0x3e, 0x00, 0x08, 0x00, 0x42, 0x00, 0x3e, 0x10,
   0x3e, 0x00, 0x3e, 0x00, 0x3e, 0x20, 0x00, 0x24, 0x3e, 0x00, 0x9e, 0x00,
   0x9e, 0x00, 0x9e, 0x08, 0x02, 0x3c, 0x02, 0x3c, 0x7e, 0x3c, 0x02, 0x3c,
   0x08, 0x0c, 0x08, 0x0c, 0x42, 0x3c, 0x41, 0x3c, 0x41, 0x3c, 0x41, 0x3c,
   0x41, 0x3c, 0x3e, 0x00, 0x41, 0x3c, 0xa1, 0x9e, 0xa1, 0x9e, 0xa1, 0x9e,
   0x02, 0x42, 0x02, 0x42, 0x02, 0x42, 0x02, 0x42, 0x08, 0x08, 0x08, 0x08,
   0x42, 0x42, 0x41, 0x42, 0x41, 0x42, 0x41, 0x42, 0x41, 0x42, 0x41, 0x3c,
   0x41, 0x42, 0x61, 0xa1, 0x61, 0xa1, 0x61, 0xa1, 0x1e, 0x7e, 0x1e, 0x7e,
   0x1e, 0x7e, 0x1e, 0x7e, 0x08, 0x08, 0x08, 0x08, 0x42, 0x42, 0x41, 0x42,
   0x41, 0x42, 0x41, 0x42, 0x41, 0x42, 0x41, 0x42, 0x41, 0x42, 0x21, 0x61,
   0x21, 0x61, 0x21, 0x61, 0x02, 0x02, 0x02, 0x02, 0x02, 0x02, 0x02, 0x02,
   0x08, 0x08, 0x08, 0x08, 0x42, 0x42, 0x41, 0x42, 0x41, 0x42, 0x41, 0x42,
   0x41, 0x42, 0x41, 0x42, 0x41, 0x42, 0x21, 0x21, 0x21, 0x21, 0x21, 0x21,
   0x02, 0x42, 0x02, 0x42, 0x02, 0x42, 0x02, 0x42, 0x08, 0x08, 0x08, 0x08,
   0x42, 0x42, 0x41, 0x42, 0x41, 0x42, 0x41, 0x42, 0x41, 0x42, 0x41, 0x42,
   0x41, 0x42, 0x21, 0x21, 0x21, 0x21, 0x21, 0x21, 0x7e, 0x3c, 0x7e, 0x3c,
   0x7e, 0x3c, 0x7e, 0x3c, 0x3e, 0x3e, 0x3e, 0x3e, 0x3c, 0x3c, 0x3e, 0x3c,
   0x3e, 0x3c, 0x3e, 0x3c, 0x3e, 0x3c, 0x3e, 0x3c, 0x3e, 0x3c, 0x1e, 0x1e,
   0x1e, 0x1e, 0x1e, 0x1e, 0x00, 0x00, 0x00, 0x00, 0x00, 0x00, 0x00, 0x00,
   0x00, 0x00, 0x00, 0x00, 0x00, 0x00, 0x00, 0x00, 0x00, 0x00, 0x00, 0x00,
   0x00, 0x00, 0x00, 0x00, 0x00, 0x00, 0x00, 0x00, 0x00, 0x00, 0x00, 0x00,
   0x00, 0x00, 0x00, 0x00, 0x00, 0x00, 0x18, 0x18, 0x00, 0x00, 0x0c, 0x0c,
   0x18, 0x18, 0x00, 0x00, 0x00, 0x00, 0x00, 0x00, 0x00, 0x00, 0x00, 0x00,
   0x18, 0x18, 0x00, 0x00, 0x00, 0x00, 0x00, 0x00, 0x00, 0x00, 0x00, 0x00,
   0x00, 0x00, 0x00, 0x00, 0x00, 0x00, 0x00, 0x00, 0x00, 0x00, 0x00, 0x00,
   0x00, 0x00, 0x00, 0x00, 0x00, 0x00, 0x00, 0x00, 0x00, 0x00, 0x00, 0x00,
   0x00, 0x00, 0x00, 0x00, 0x00, 0x00, 0x00, 0x00, 0x00, 0x00, 0x00, 0x00,
   0x00, 0x00, 0x00, 0x00, 0x00, 0x00, 0x00, 0x00, 0x00, 0x00, 0x00, 0x00,
   0x00, 0x00, 0x00, 0x00, 0x00, 0x00, 0x00, 0x00, 0x00, 0x00, 0x00, 0x00,
   0x00, 0x00, 0x00, 0x00, 0x00, 0x00, 0x00, 0x00, 0x00, 0x00, 0x00, 0x00,
   0x00, 0x00, 0x00, 0x00, 0x00, 0x00, 0x00, 0x00, 0x00, 0x00, 0x00, 0x00,
   0x00, 0x00, 0x00, 0x00, 0x00, 0x00, 0x00, 0x00, 0x00, 0x00, 0x00, 0x00,
   0x00, 0x00, 0x18, 0x0c, 0x00, 0x00, 0x00, 0x00, 0x04, 0x04, 0x00, 0x00,
   0x00, 0x00, 0x00, 0x00, 0x00, 0x00, 0x0c, 0x18, 0x00, 0x00, 0x00, 0x00,
   0x00, 0x00, 0x00, 0x00, 0x4c, 0x00, 0x00, 0x00, 0x00, 0x00, 0x24, 0x12,
   0x08, 0x00, 0x02, 0x00, 0x0a, 0x0a, 0x26, 0x00, 0x00, 0x00, 0x04, 0x00,
   0x00, 0x00, 0x12, 0x24, 0x4c, 0x00, 0x00, 0x00, 0x00, 0x00, 0x00, 0x00,
   0x32, 0x4c, 0x9e, 0x00, 0x42, 0x00, 0x20, 0x10, 0x04, 0x08, 0x04, 0x02,
   0x08, 0x08, 0x19, 0x26, 0x51, 0x00, 0x08, 0x08, 0x41, 0x00, 0x10, 0x20,
   0x32, 0x4c, 0x00, 0x00, 0x00, 0x00, 0x00, 0x00, 0x00, 0x32, 0xa1, 0x00,
   0x42, 0x00, 0x10, 0x08, 0x00, 0x04, 0x00, 0x04, 0x04, 0x04, 0x00, 0x19,
   0x51, 0x00, 0x00, 0x10, 0x41, 0x00, 0x08, 0x10, 0x00, 0x32, 0x00, 0x00,
   0x00, 0x00, 0x00, 0x00, 0x9e, 0x00, 0x61, 0x00, 0x42, 0x00, 0x52, 0x08,
   0x51, 0x00, 0x51, 0x00, 0x55, 0x04, 0x51, 0x00, 0x31, 0x00, 0x41, 0x00,
   0x22, 0x42, 0x49, 0x10, 0x41, 0x00, 0x00, 0x00, 0x00, 0x00, 0x00, 0x00,
   0xa1, 0x9e, 0x21, 0x9e, 0x42, 0x22, 0x42, 0x22, 0x51, 0x51, 0x51, 0x51,
   0x51, 0x51, 0x51, 0x51, 0x11, 0x51, 0x22, 0x42, 0x14, 0x42, 0x22, 0x42,
   0x22, 0x42, 0x00, 0x00, 0x00, 0x00, 0x00, 0x00, 0x61, 0xa1, 0x21, 0xa1,
   0x42, 0x22, 0x42, 0x22, 0x31, 0x51, 0x31, 0x51, 0x31, 0x51, 0x31, 0x51,
   0x11, 0x51, 0x14, 0x42, 0x08, 0x62, 0x14, 0x42, 0x14, 0x42, 0x00, 0x00,
   0x00, 0x00, 0x00, 0x00, 0x21, 0x61, 0x21, 0x61, 0x42, 0x22, 0x42, 0x22,
   0x11, 0x31, 0x11, 0x31, 0x11, 0x31, 0x11, 0x31, 0x11, 0x31, 0x08, 0x42,
   0x08, 0x5c, 0x08, 0x42, 0x08, 0x42, 0x00, 0x00, 0x00, 0x00, 0x00, 0x00,
   0x21, 0x21, 0x21, 0x21, 0x42, 0x22, 0x42, 0x22, 0x11, 0x11, 0x11, 0x11,
   0x11, 0x11, 0x11, 0x11, 0x11, 0x11, 0x08, 0x62, 0x08, 0x40, 0x08, 0x62,
   0x08, 0x62, 0x00, 0x00, 0x00, 0x00, 0x00, 0x00, 0x21, 0x21, 0x21, 0x21,
   0x42, 0x22, 0x42, 0x22, 0x11, 0x11, 0x11, 0x11, 0x11, 0x11, 0x11, 0x11,
   0x11, 0x11, 0x08, 0x5c, 0x08, 0x42, 0x08, 0x5c, 0x08, 0x5c, 0x00, 0x00,
   0x00, 0x00, 0x00, 0x00, 0x1e, 0x1e, 0x1e, 0x1e, 0x3c, 0x5c, 0x3c, 0x5c,
   0x0e, 0x2e, 0x0e, 0x2e, 0x0e, 0x2e, 0x0e, 0x2e, 0x0e, 0x2e, 0x08, 0x40,
   0x08, 0x3c, 0x08, 0x40, 0x08, 0x40, 0x00, 0x00, 0x00, 0x00, 0x00, 0x00,
   0x00, 0x00, 0x00, 0x00, 0x00, 0x00, 0x00, 0x00, 0x00, 0x00, 0x00, 0x00,
   0x00, 0x00, 0x00, 0x00, 0x00, 0x00, 0x00, 0x42, 0x00, 0x00, 0x00, 0x42,
   0x00, 0x42, 0x00, 0x00, 0x00, 0x00, 0x00, 0x00, 0x00, 0x00, 0x0c, 0x0c,
   0x18, 0x18, 0x00, 0x00, 0x00, 0x00, 0x00, 0x00, 0x00, 0x00, 0x00, 0x00,
   0x0c, 0x0c, 0x00, 0x3c, 0x18, 0x18, 0x00, 0x3c, 0x00, 0x3c, 0x00, 0x00,
   0x00, 0x00, 0x00, 0x00, 0x00, 0x00, 0x00, 0x00, 0x00, 0x00, 0x00, 0x00,
   0x00, 0x00, 0x00, 0x00, 0x00, 0x00, 0x00, 0x00, 0x00, 0x00, 0x00, 0x00,
   0x00, 0x00, 0x00, 0x00, 0x00, 0x00, 0x00, 0x00, 0x00, 0x00, 0x00, 0x00,
   0x00, 0x00, 0x00, 0x00, 0x00, 0x00, 0x00, 0x00, 0x00, 0x00, 0x00, 0x00,
   0x00, 0x00, 0x00, 0x00, 0x00, 0x00, 0x00, 0x00, 0x00, 0x00, 0x00, 0x00,
   0x00, 0x00, 0x00, 0x00, 0x00, 0x00, 0x00, 0x00, 0x00, 0x00, 0x00, 0x00,
   0x00, 0x00, 0x00, 0x00, 0x00, 0x00, 0x00, 0x00, 0x00, 0x00, 0x00, 0x00,
   0x00, 0x00, 0x00, 0x00, 0x00, 0x00, 0x00, 0x00, 0x00, 0x00, 0x00, 0x00,
   0x00, 0x00, 0x00, 0x00 };
