#define u002200_u0022FF_width 256
#define u002200_u0022FF_height 128
static unsigned char u002200_u0022FF_bits[] = {
   0x00, 0x00, 0x00, 0x00, 0x20, 0x00, 0x00, 0x00, 0x00, 0x00, 0x00, 0x00,
   0x00, 0x00, 0x00, 0x00, 0x00, 0x00, 0x00, 0x00, 0x00, 0x00, 0x00, 0x00,
   0x00, 0x00, 0x00, 0x00, 0x00, 0x00, 0x00, 0x00, 0x00, 0x00, 0x00, 0x00,
   0x20, 0x40, 0x00, 0x00, 0x00, 0x00, 0x00, 0x00, 0x00, 0x00, 0x00, 0x7e,
   0x6e, 0x7e, 0x00, 0x00, 0x00, 0x00, 0x00, 0x00, 0x00, 0x00, 0x00, 0x00,
   0x00, 0x00, 0x00, 0x00, 0x42, 0x0c, 0x00, 0x7e, 0x7f, 0x40, 0x08, 0x7f,
   0x00, 0x10, 0x00, 0x00, 0x08, 0x00, 0x00, 0x24, 0x24, 0x02, 0x00, 0x00,
   0x00, 0x20, 0x00, 0x00, 0x00, 0x00, 0x40, 0x43, 0x41, 0x00, 0x00, 0x00,
   0x42, 0x12, 0x1c, 0x40, 0x50, 0x3c, 0x08, 0x41, 0x00, 0x10, 0x00, 0x00,
   0x08, 0x00, 0x7e, 0x24, 0x24, 0x04, 0x00, 0x3e, 0x08, 0x20, 0x02, 0x00,
   0x00, 0x00, 0x40, 0x44, 0x41, 0x00, 0x00, 0x00, 0x42, 0x02, 0x22, 0x40,
   0x50, 0x62, 0x14, 0x41, 0x78, 0x78, 0x00, 0x1e, 0x1e, 0x00, 0x7e, 0x24,
   0x24, 0x08, 0x00, 0x00, 0x00, 0x10, 0x04, 0x00, 0x00, 0x00, 0x20, 0x22,
   0x25, 0x00, 0x00, 0x00, 0x7e, 0x02, 0x20, 0x40, 0x48, 0x52, 0x14, 0x22,
   0x04, 0x14, 0x38, 0x20, 0x28, 0x1c, 0x7e, 0x24, 0x24, 0x10, 0x00, 0x08,
   0x08, 0x10, 0x04, 0x2a, 0x18, 0x18, 0x20, 0x24, 0x27, 0x2c, 0x36, 0x02,
   0x42, 0x02, 0x3c, 0x7c, 0x7e, 0x52, 0x22, 0x22, 0x02, 0x12, 0x04, 0x40,
   0x48, 0x20, 0x7e, 0x24, 0x24, 0x20, 0x3e, 0x08, 0x08, 0x08, 0x08, 0x1c,
   0x24, 0x3c, 0x10, 0x13, 0x14, 0x12, 0x49, 0x02, 0x42, 0x02, 0x22, 0x40,
   0x48, 0x4a, 0x22, 0x14, 0x7e, 0x7e, 0x3c, 0x7e, 0x7e, 0x3c, 0x7e, 0x24,
   0x24, 0x10, 0x00, 0x3e, 0x3e, 0x08, 0x08, 0x3e, 0x24, 0x3c, 0x10, 0x10,
   0x10, 0x12, 0x49, 0x02, 0x42, 0x02, 0x22, 0x40, 0x44, 0x46, 0x41, 0x14,
   0x02, 0x12, 0x04, 0x40, 0x48, 0x20, 0x7e, 0x24, 0x24, 0x08, 0x00, 0x08,
   0x08, 0x04, 0x10, 0x1c, 0x18, 0x18, 0x09, 0x09, 0x09, 0x2c, 0x36, 0x02,
   0x24, 0x12, 0x12, 0x40, 0x44, 0x3c, 0x41, 0x08, 0x04, 0x14, 0x38, 0x20,
   0x28, 0x1c, 0x7e, 0x24, 0x24, 0x04, 0x00, 0x08, 0x08, 0x04, 0x10, 0x2a,
   0x00, 0x00, 0x0a, 0x0a, 0x0a, 0x00, 0x00, 0x02, 0x18, 0x0c, 0x0c, 0x7e,
   0x7f, 0x02, 0x7f, 0x08, 0x78, 0x78, 0x00, 0x1e, 0x1e, 0x00, 0x00, 0x24,
   0x24, 0x02, 0x00, 0x00, 0x00, 0x02, 0x20, 0x00, 0x00, 0x00, 0x04, 0x04,
   0x04, 0x00, 0x00, 0x7e, 0x00, 0x00, 0x00, 0x00, 0x02, 0x02, 0x00, 0x00,
   0x00, 0x10, 0x00, 0x00, 0x08, 0x00, 0x00, 0x6e, 0x7e, 0x7e, 0x00, 0x00,
   0x00, 0x00, 0x00, 0x00, 0x00, 0x00, 0x00, 0x00, 0x00, 0x00, 0x00, 0x00,
   0x00, 0x00, 0x00, 0x00, 0x02, 0x00, 0x00, 0x00, 0x00, 0x10, 0x00, 0x00,
   0x08, 0x00, 0x00, 0x00, 0x00, 0x00, 0x00, 0x00, 0x00, 0x00, 0x00, 0x00,
   0x00, 0x00, 0x00, 0x00, 0x00, 0x00, 0x00, 0x00, 0x00, 0x00, 0x00, 0x00,
   0x00, 0x00, 0x00, 0x00, 0x00, 0x00, 0x00, 0x00, 0x00, 0x00, 0x00, 0x00,
   0x00, 0x00, 0x00, 0x00, 0x00, 0x00, 0x00, 0x00, 0x00, 0x00, 0x00, 0x00,
   0x00, 0x00, 0x00, 0x00, 0x00, 0x00, 0x00, 0x00, 0x00, 0x00, 0x00, 0x00,
   0x00, 0x00, 0x00, 0x00, 0x00, 0x00, 0x00, 0x00, 0x00, 0x00, 0x00, 0x00,
   0x00, 0x00, 0x00, 0x00, 0x00, 0x00, 0x00, 0x00, 0x00, 0x00, 0x00, 0x00,
   0x00, 0x00, 0x00, 0x00, 0x00, 0x00, 0x00, 0x00, 0x00, 0x00, 0x00, 0x00,
   0x00, 0x00, 0x00, 0x00, 0x00, 0x00, 0x00, 0x00, 0x00, 0x00, 0x00, 0x00,
   0x00, 0x00, 0x00, 0x00, 0x00, 0x00, 0x00, 0x00, 0x00, 0x00, 0x00, 0x00,
   0x00, 0x00, 0x00, 0x00, 0x00, 0x00, 0x00, 0x10, 0x00, 0x00, 0x10, 0x00,
   0x00, 0x08, 0x08, 0x08, 0x00, 0x00, 0x00, 0x00, 0x00, 0x00, 0x00, 0x00,
   0x00, 0x00, 0x00, 0x00, 0x00, 0x00, 0x00, 0x00, 0x00, 0x00, 0x00, 0x00,
   0x00, 0x00, 0x00, 0x28, 0x48, 0x54, 0x28, 0x48, 0x54, 0x14, 0x14, 0x14,
   0x00, 0x00, 0x00, 0x00, 0x00, 0x00, 0x00, 0x00, 0x00, 0x00, 0x00, 0x00,
   0x00, 0x00, 0x20, 0x08, 0x08, 0x14, 0x14, 0x00, 0x00, 0x00, 0x00, 0x08,
   0x24, 0x2a, 0x08, 0x24, 0x2a, 0x04, 0x04, 0x04, 0x00, 0x00, 0x00, 0x00,
   0x00, 0x00, 0x00, 0x00, 0x00, 0x00, 0x00, 0x00, 0x40, 0x40, 0x14, 0x08,
   0x08, 0x14, 0x54, 0x00, 0x00, 0x00, 0x00, 0x08, 0x24, 0x2a, 0x08, 0x24,
   0x2a, 0x04, 0x04, 0x04, 0x00, 0x00, 0x00, 0x00, 0x00, 0x00, 0x00, 0x00,
   0x00, 0x00, 0x00, 0x06, 0x20, 0x22, 0x08, 0x08, 0x28, 0x14, 0x34, 0x00,
   0x00, 0x00, 0x00, 0x08, 0x24, 0x2a, 0x1c, 0x7e, 0x7e, 0x04, 0x2e, 0x0e,
   0x00, 0x00, 0x00, 0x00, 0x00, 0x00, 0x00, 0x00, 0x00, 0x00, 0x00, 0x09,
   0x10, 0x14, 0x14, 0x08, 0x18, 0x14, 0x14, 0x08, 0x41, 0x18, 0x42, 0x08,
   0x24, 0x2a, 0x2a, 0xa5, 0xab, 0x5e, 0x35, 0x15, 0x00, 0x00, 0x00, 0x00,
   0x00, 0x20, 0x22, 0x20, 0x00, 0x00, 0x46, 0x09, 0x08, 0x08, 0x12, 0x08,
   0x08, 0x14, 0x1c, 0x14, 0x22, 0x24, 0x42, 0x08, 0x24, 0x2a, 0x2a, 0xa5,
   0xab, 0x65, 0x3d, 0x3d, 0x08, 0x22, 0x08, 0x24, 0x08, 0x00, 0x00, 0x06,
   0x06, 0x30, 0x89, 0x09, 0x04, 0x14, 0x14, 0x08, 0x0c, 0x14, 0x14, 0x14,
   0x22, 0x42, 0x42, 0x08, 0x24, 0x2a, 0x2a, 0xa5, 0xab, 0x74, 0x15, 0x35,
   0x00, 0x00, 0x00, 0x00, 0x00, 0x0f, 0x3e, 0x49, 0x49, 0x49, 0x91, 0x48,
   0x02, 0x12, 0x08, 0x08, 0x0a, 0x14, 0x16, 0x22, 0x14, 0x42, 0x42, 0x08,
   0x24, 0x2a, 0x1c, 0x7e, 0x7e, 0x04, 0x0e, 0x2e, 0x00, 0x00, 0x00, 0x00,
   0x3e, 0x00, 0x00, 0x49, 0x49, 0x49, 0x62, 0x48, 0x7e, 0x7e, 0x14, 0x08,
   0x08, 0x14, 0x15, 0x22, 0x14, 0x42, 0x24, 0x08, 0x24, 0x2a, 0x08, 0x24,
   0x2a, 0x04, 0x04, 0x04, 0x22, 0x08, 0x08, 0x24, 0x00, 0x20, 0x22, 0x30,
   0x30, 0x06, 0x00, 0x48, 0x00, 0x10, 0x20, 0x08, 0x08, 0x14, 0x14, 0x41,
   0x08, 0x42, 0x18, 0x08, 0x24, 0x2a, 0x08, 0x24, 0x2a, 0x04, 0x04, 0x04,
   0x00, 0x00, 0x00, 0x00, 0x00, 0x00, 0x00, 0x02, 0x00, 0x00, 0x00, 0x30,
   0x00, 0x00, 0x00, 0x00, 0x00, 0x00, 0x00, 0x00, 0x00, 0x00, 0x00, 0x0a,
   0x24, 0x2a, 0x0a, 0x24, 0x2a, 0x05, 0x05, 0x05, 0x00, 0x00, 0x00, 0x00,
   0x00, 0x00, 0x00, 0x00, 0x00, 0x00, 0x00, 0x00, 0x00, 0x00, 0x00, 0x00,
   0x00, 0x00, 0x00, 0x00, 0x00, 0x00, 0x00, 0x04, 0x12, 0x16, 0x04, 0x12,
   0x15, 0x02, 0x02, 0x02, 0x00, 0x00, 0x00, 0x00, 0x00, 0x00, 0x00, 0x00,
   0x00, 0x00, 0x00, 0x00, 0x00, 0x00, 0x00, 0x00, 0x00, 0x00, 0x00, 0x00,
   0x00, 0x00, 0x00, 0x00, 0x00, 0x00, 0x00, 0x00, 0x00, 0x00, 0x00, 0x00,
   0x00, 0x00, 0x00, 0x00, 0x00, 0x00, 0x00, 0x00, 0x00, 0x00, 0x00, 0x00,
   0x00, 0x00, 0x00, 0x00, 0x00, 0x00, 0x00, 0x00, 0x00, 0x00, 0x00, 0x00,
   0x00, 0x00, 0x00, 0x00, 0x00, 0x00, 0x00, 0x00, 0x00, 0x00, 0x00, 0x00,
   0x00, 0x00, 0x00, 0x00, 0x00, 0x00, 0x00, 0x00, 0x00, 0x00, 0x00, 0x00,
   0x00, 0x00, 0x00, 0x00, 0x00, 0x00, 0x00, 0x00, 0x00, 0x00, 0x00, 0x00,
   0x00, 0x00, 0x00, 0x00, 0x00, 0x00, 0x00, 0x00, 0x00, 0x00, 0x00, 0x00,
   0x00, 0x00, 0x00, 0x00, 0x00, 0x00, 0x00, 0x00, 0x00, 0x00, 0x00, 0x00,
   0x00, 0x00, 0x00, 0x00, 0x00, 0x00, 0x00, 0x00, 0x00, 0x00, 0x00, 0x00,
   0x00, 0x00, 0x00, 0x00, 0x00, 0x00, 0x00, 0x00, 0x00, 0x00, 0x00, 0x08,
   0x00, 0x00, 0x00, 0x00, 0x00, 0x00, 0x00, 0x00, 0x00, 0x00, 0x00, 0x00,
   0x00, 0x00, 0x00, 0x00, 0x00, 0x00, 0x00, 0x00, 0x00, 0x00, 0x00, 0x00,
   0x00, 0x00, 0x00, 0x00, 0x00, 0x00, 0x00, 0x14, 0x0c, 0x00, 0x00, 0x00,
   0x00, 0x00, 0x00, 0x08, 0x00, 0x08, 0x00, 0x46, 0x00, 0x00, 0x00, 0x00,
   0x00, 0x00, 0x00, 0x00, 0x00, 0x00, 0x00, 0x08, 0x00, 0x00, 0x22, 0x2a,
   0x08, 0x64, 0x16, 0x10, 0x10, 0x00, 0x00, 0x00, 0x08, 0x46, 0x46, 0x4e,
   0x00, 0x08, 0x46, 0x49, 0x31, 0x00, 0x00, 0x00, 0x00, 0x00, 0x00, 0x00,
   0x00, 0x00, 0x00, 0x14, 0x1c, 0x08, 0x14, 0x1c, 0x14, 0x36, 0x2a, 0x08,
   0x10, 0x08, 0x00, 0x00, 0x08, 0x49, 0x49, 0x49, 0x06, 0x4e, 0x49, 0x31,
   0x49, 0x00, 0x00, 0x00, 0x08, 0x08, 0x02, 0x20, 0x00, 0x00, 0x00, 0x08,
   0x22, 0x14, 0x08, 0x3e, 0x14, 0x26, 0x2a, 0x00, 0x10, 0x08, 0x7f, 0x46,
   0x4e, 0x31, 0x31, 0x39, 0x49, 0x49, 0x31, 0x46, 0x46, 0x42, 0x18, 0x18,
   0x00, 0x00, 0x00, 0x00, 0x00, 0x00, 0x00, 0x00, 0x00, 0x00, 0x00, 0x1c,
   0x22, 0x00, 0x2a, 0x08, 0x08, 0x4e, 0x00, 0x49, 0x49, 0x00, 0x08, 0x08,
   0x30, 0x39, 0x46, 0x49, 0x00, 0x3c, 0x66, 0x66, 0x3e, 0x3e, 0x3e, 0x3e,
   0x72, 0x4e, 0x7e, 0x3e, 0x3e, 0x3e, 0x3e, 0x2a, 0x3e, 0x7e, 0x00, 0x3e,
   0x04, 0x49, 0x46, 0x31, 0x39, 0x7f, 0x7f, 0x7f, 0x06, 0x4e, 0x49, 0x31,
   0x7f, 0x00, 0x00, 0x00, 0x00, 0x00, 0x00, 0x00, 0x00, 0x00, 0x24, 0x00,
   0x00, 0x00, 0x00, 0x00, 0x00, 0x00, 0x3e, 0x00, 0x04, 0x39, 0x49, 0x00,
   0x08, 0x00, 0x08, 0x08, 0x49, 0x49, 0x31, 0x46, 0x00, 0x3c, 0x66, 0x7e,
   0x3e, 0x3e, 0x3e, 0x3e, 0x72, 0x4e, 0x7e, 0x3e, 0x3e, 0x3e, 0x3e, 0x3e,
   0x3e, 0x7e, 0x00, 0x3e, 0x04, 0x08, 0x31, 0x7f, 0x7f, 0x7f, 0x7f, 0x7f,
   0x30, 0x39, 0x00, 0x49, 0x7f, 0x42, 0x18, 0x00, 0x00, 0x00, 0x00, 0x00,
   0x00, 0x00, 0x00, 0x00, 0x00, 0x00, 0x00, 0x00, 0x00, 0x00, 0x3e, 0x00,
   0x18, 0x08, 0x00, 0x00, 0x08, 0x00, 0x08, 0x08, 0x00, 0x08, 0x3e, 0x31,
   0x00, 0x00, 0x00, 0x00, 0x00, 0x08, 0x20, 0x02, 0x00, 0x00, 0x00, 0x00,
   0x00, 0x00, 0x00, 0x3e, 0x3e, 0x00, 0x00, 0x00, 0x00, 0x00, 0x00, 0x00,
   0x00, 0x00, 0x00, 0x00, 0x00, 0x08, 0x00, 0x00, 0x00, 0x00, 0x00, 0x00,
   0x00, 0x00, 0x00, 0x00, 0x00, 0x00, 0x00, 0x00, 0x00, 0x00, 0x00, 0x00,
   0x00, 0x00, 0x00, 0x00, 0x00, 0x00, 0x00, 0x00, 0x00, 0x00, 0x00, 0x00,
   0x00, 0x00, 0x00, 0x00, 0x00, 0x00, 0x00, 0x00, 0x00, 0x00, 0x00, 0x00,
   0x00, 0x00, 0x00, 0x00, 0x00, 0x00, 0x00, 0x00, 0x00, 0x00, 0x00, 0x00,
   0x00, 0x00, 0x00, 0x00, 0x00, 0x00, 0x00, 0x00, 0x00, 0x00, 0x00, 0x00,
   0x00, 0x00, 0x00, 0x00, 0x00, 0x00, 0x00, 0x00, 0x00, 0x00, 0x00, 0x00,
   0x00, 0x00, 0x00, 0x00, 0x00, 0x00, 0x00, 0x00, 0x00, 0x00, 0x00, 0x00,
   0x00, 0x00, 0x00, 0x00, 0x00, 0x00, 0x00, 0x00, 0x00, 0x00, 0x00, 0x00,
   0x00, 0x00, 0x00, 0x00, 0x00, 0x00, 0x00, 0x00, 0x00, 0x00, 0x00, 0x00,
   0x00, 0x00, 0x00, 0x00, 0x00, 0x00, 0x00, 0x00, 0x00, 0x00, 0x00, 0x00,
   0x00, 0x00, 0x00, 0x00, 0x00, 0x00, 0x00, 0x00, 0x00, 0x00, 0x00, 0x00,
   0x00, 0x00, 0x00, 0x00, 0x00, 0x00, 0x00, 0x00, 0x00, 0x00, 0x00, 0x00,
   0x00, 0x00, 0x00, 0x00, 0x00, 0x00, 0x00, 0x00, 0x00, 0x00, 0x00, 0x00,
   0x00, 0x00, 0x00, 0x00, 0x00, 0x00, 0x00, 0x00, 0x08, 0x08, 0x00, 0x00,
   0x08, 0x08, 0x00, 0x00, 0x00, 0x00, 0x00, 0x00, 0x00, 0x00, 0x00, 0x00,
   0x00, 0x00, 0x00, 0x00, 0x00, 0x00, 0x00, 0x00, 0x00, 0x00, 0x08, 0x08,
   0x08, 0x08, 0x00, 0x00, 0x08, 0x08, 0x70, 0x07, 0x78, 0x0f, 0x00, 0x00,
   0x00, 0x00, 0x00, 0x00, 0x00, 0x00, 0x00, 0x00, 0x00, 0x00, 0x70, 0x07,
   0x70, 0x07, 0x00, 0x00, 0x24, 0x00, 0x28, 0x0a, 0x08, 0x08, 0x30, 0x06,
   0x38, 0x0e, 0x0c, 0x18, 0x0c, 0x18, 0x00, 0x00, 0x00, 0x00, 0x20, 0x02,
   0x20, 0x00, 0x20, 0x00, 0x00, 0x00, 0x0c, 0x18, 0x0c, 0x18, 0x48, 0x09,
   0x18, 0x00, 0x18, 0x0c, 0x38, 0x0e, 0x0c, 0x18, 0x0c, 0x18, 0x03, 0x60,
   0x0b, 0x68, 0x40, 0x02, 0x40, 0x02, 0x10, 0x04, 0x20, 0x00, 0x20, 0x7e,
   0x70, 0x07, 0x03, 0x60, 0x03, 0x60, 0x24, 0x12, 0x24, 0x08, 0x08, 0x08,
   0x0c, 0x18, 0x02, 0x20, 0x0a, 0x28, 0x0c, 0x18, 0x0c, 0x18, 0x20, 0x04,
   0x20, 0x04, 0x0e, 0x38, 0x7e, 0x7e, 0x7e, 0x00, 0x0c, 0x18, 0x0c, 0x18,
   0x0c, 0x18, 0x12, 0x24, 0x24, 0x2a, 0x0c, 0x18, 0x0a, 0x28, 0x0c, 0x18,
   0x0c, 0x18, 0x70, 0x07, 0x78, 0x0f, 0x10, 0x08, 0x10, 0x08, 0x10, 0x04,
   0x10, 0x00, 0x10, 0x7e, 0x03, 0x60, 0x70, 0x07, 0x70, 0x07, 0x09, 0x48,
   0x24, 0x1c, 0x0a, 0x28, 0x0c, 0x18, 0x30, 0x06, 0x38, 0x0e, 0x07, 0x70,
   0x0f, 0x78, 0x0e, 0x70, 0x0e, 0x70, 0x20, 0x02, 0x08, 0x7e, 0x7e, 0x00,
   0x0c, 0x18, 0x00, 0x00, 0x08, 0x08, 0x12, 0x24, 0x24, 0x08, 0x0c, 0x18,
   0x38, 0x0e, 0x00, 0x00, 0x08, 0x08, 0x18, 0x0c, 0x18, 0x0c, 0x10, 0x08,
   0x10, 0x08, 0x00, 0x00, 0x7e, 0x00, 0x08, 0x7e, 0x70, 0x07, 0x7f, 0x7f,
   0x7f, 0x7f, 0x24, 0x12, 0x24, 0x1c, 0x08, 0x08, 0x08, 0x08, 0x24, 0x24,
   0x2c, 0x2c, 0x60, 0x03, 0x68, 0x0b, 0x20, 0x04, 0x2e, 0x74, 0x24, 0x24,
   0x04, 0x7e, 0x7e, 0x00, 0x00, 0x00, 0x00, 0x00, 0x08, 0x08, 0x48, 0x09,
   0x18, 0x2a, 0x18, 0x0c, 0x3e, 0x3e, 0x2a, 0x2a, 0x2a, 0x2a, 0x18, 0x0c,
   0x18, 0x0c, 0x40, 0x02, 0x50, 0x0a, 0x2a, 0x2a, 0x04, 0x00, 0x04, 0x7e,
   0x7f, 0x7f, 0x7f, 0x7f, 0x7f, 0x7f, 0x00, 0x00, 0x24, 0x08, 0x28, 0x0a,
   0x08, 0x08, 0x12, 0x12, 0x1a, 0x1a, 0x07, 0x70, 0x0f, 0x78, 0x00, 0x00,
   0x20, 0x04, 0x12, 0x12, 0x00, 0x00, 0x04, 0x00, 0x00, 0x00, 0x00, 0x00,
   0x08, 0x08, 0x00, 0x00, 0x00, 0x00, 0x08, 0x08, 0x08, 0x08, 0x00, 0x00,
   0x08, 0x08, 0x00, 0x00, 0x08, 0x08, 0x00, 0x00, 0x40, 0x02, 0x00, 0x00,
   0x00, 0x00, 0x00, 0x00, 0x00, 0x00, 0x00, 0x00, 0x00, 0x00, 0x00, 0x00,
   0x00, 0x00, 0x00, 0x00, 0x00, 0x00, 0x00, 0x00, 0x00, 0x00, 0x00, 0x00,
   0x00, 0x00, 0x00, 0x00, 0x00, 0x00, 0x00, 0x00, 0x00, 0x00, 0x00, 0x00,
   0x00, 0x00, 0x00, 0x00, 0x00, 0x00, 0x00, 0x00, 0x00, 0x00, 0x00, 0x00,
   0x00, 0x00, 0x00, 0x00, 0x00, 0x00, 0x00, 0x00, 0x00, 0x00, 0x00, 0x00,
   0x00, 0x00, 0x00, 0x00, 0x00, 0x00, 0x00, 0x00, 0x00, 0x00, 0x00, 0x00,
   0x00, 0x00, 0x00, 0x00, 0x00, 0x00, 0x00, 0x00, 0x00, 0x00, 0x00, 0x00,
   0x00, 0x00, 0x00, 0x00, 0x00, 0x00, 0x00, 0x00, 0x00, 0x00, 0x00, 0x00,
   0x00, 0x00, 0x00, 0x00, 0x00, 0x00, 0x00, 0x00, 0x00, 0x00, 0x00, 0x00,
   0x00, 0x00, 0x00, 0x00, 0x00, 0x00, 0x00, 0x00, 0x00, 0x00, 0x00, 0x00,
   0x00, 0x00, 0x00, 0x00, 0x00, 0x00, 0x00, 0x00, 0x00, 0x00, 0x00, 0x00,
   0x00, 0x00, 0x00, 0x00, 0x00, 0x00, 0x00, 0x00, 0x00, 0x00, 0x00, 0x00,
   0x00, 0x00, 0x00, 0x00, 0x00, 0x00, 0x00, 0x00, 0x00, 0x00, 0x00, 0x00,
   0x00, 0x00, 0x00, 0x00, 0x00, 0x00, 0x00, 0x00, 0x00, 0x00, 0x00, 0x00,
   0x10, 0x08, 0x00, 0x00, 0x00, 0x00, 0x00, 0x00, 0x00, 0x00, 0x00, 0x00,
   0x00, 0x00, 0x00, 0x00, 0x00, 0x00, 0x00, 0x00, 0x00, 0x00, 0x00, 0x00,
   0x08, 0x10, 0x00, 0x00, 0x00, 0x00, 0x00, 0x00, 0x10, 0x08, 0x00, 0x00,
   0x00, 0x00, 0x00, 0x00, 0x00, 0x00, 0x00, 0x00, 0x00, 0x00, 0x00, 0x00,
   0x00, 0x00, 0x00, 0x00, 0x00, 0x00, 0x00, 0x00, 0x48, 0x12, 0x00, 0x00,
   0x10, 0x08, 0x7c, 0x3e, 0x7c, 0x3e, 0x7c, 0x3e, 0x42, 0x42, 0x42, 0x00,
   0x00, 0x7e, 0x7e, 0x00, 0x00, 0x00, 0x00, 0x00, 0x00, 0x00, 0x1c, 0x1c,
   0x1c, 0x1c, 0x00, 0x00, 0x28, 0x14, 0x00, 0x00, 0x10, 0x08, 0x02, 0x40,
   0x12, 0x48, 0x02, 0x40, 0x52, 0x42, 0x4a, 0x00, 0x00, 0x02, 0x40, 0x00,
   0x00, 0x1c, 0x1c, 0x1c, 0x1c, 0x1c, 0x22, 0x22, 0x22, 0x22, 0x3e, 0x3e,
   0x18, 0x18, 0x7c, 0x3e, 0x7c, 0x3e, 0x02, 0x40, 0x12, 0x48, 0x02, 0x40,
   0x4a, 0x42, 0x4a, 0x7e, 0x7e, 0x02, 0x40, 0x7e, 0x42, 0x2a, 0x22, 0x36,
   0x32, 0x22, 0x2a, 0x36, 0x3e, 0x22, 0x2a, 0x22, 0x0e, 0x70, 0x02, 0x40,
   0x12, 0x48, 0x02, 0x40, 0x12, 0x48, 0x02, 0x40, 0x7e, 0x5a, 0x5e, 0x02,
   0x40, 0x02, 0x40, 0x42, 0x42, 0x3e, 0x3e, 0x2a, 0x2a, 0x2a, 0x36, 0x2a,
   0x22, 0x3e, 0x3e, 0x3e, 0x18, 0x18, 0x02, 0x40, 0x12, 0x48, 0x7c, 0x3e,
   0x7c, 0x3e, 0x7c, 0x3e, 0x4a, 0x5a, 0x4a, 0x02, 0x40, 0x7e, 0x7e, 0x42,
   0x42, 0x2a, 0x22, 0x36, 0x26, 0x22, 0x2a, 0x36, 0x3e, 0x22, 0x2a, 0x22,
   0x28, 0x14, 0x02, 0x40, 0x12, 0x48, 0x00, 0x00, 0x10, 0x08, 0x10, 0x10,
   0x52, 0x42, 0x4a, 0x02, 0x40, 0x00, 0x00, 0x42, 0x42, 0x1c, 0x1c, 0x1c,
   0x1c, 0x1c, 0x22, 0x22, 0x22, 0x22, 0x3e, 0x3e, 0x48, 0x12, 0x7c, 0x3e,
   0x7c, 0x3e, 0x7e, 0x7e, 0x7e, 0x7e, 0x7e, 0x7e, 0x42, 0x42, 0x42, 0x7e,
   0x7e, 0x7e, 0x7e, 0x42, 0x42, 0x00, 0x00, 0x00, 0x00, 0x00, 0x1c, 0x1c,
   0x1c, 0x1c, 0x00, 0x00, 0x08, 0x10, 0x00, 0x00, 0x10, 0x08, 0x00, 0x00,
   0x10, 0x08, 0x08, 0x08, 0x3c, 0x3c, 0x3c, 0x00, 0x00, 0x00, 0x00, 0x42,
   0x7e, 0x00, 0x00, 0x00, 0x00, 0x00, 0x00, 0x00, 0x00, 0x00, 0x00, 0x00,
   0x00, 0x00, 0x00, 0x00, 0x10, 0x08, 0x00, 0x00, 0x10, 0x08, 0x00, 0x00,
   0x00, 0x00, 0x00, 0x00, 0x00, 0x00, 0x00, 0x00, 0x00, 0x00, 0x00, 0x00,
   0x00, 0x00, 0x00, 0x00, 0x00, 0x00, 0x00, 0x00, 0x00, 0x00, 0x00, 0x00,
   0x00, 0x00, 0x00, 0x00, 0x00, 0x00, 0x00, 0x00, 0x00, 0x00, 0x00, 0x00,
   0x00, 0x00, 0x00, 0x00, 0x00, 0x00, 0x00, 0x00, 0x00, 0x00, 0x00, 0x00,
   0x00, 0x00, 0x00, 0x00, 0x00, 0x00, 0x00, 0x00, 0x00, 0x00, 0x00, 0x00,
   0x00, 0x00, 0x00, 0x00, 0x00, 0x00, 0x00, 0x00, 0x00, 0x00, 0x00, 0x00,
   0x00, 0x00, 0x00, 0x00, 0x00, 0x00, 0x00, 0x00, 0x00, 0x00, 0x00, 0x00,
   0x00, 0x00, 0x00, 0x00, 0x00, 0x00, 0x00, 0x00, 0x00, 0x00, 0x00, 0x00,
   0x00, 0x00, 0x00, 0x00, 0x00, 0x00, 0x00, 0x00, 0x00, 0x00, 0x00, 0x00,
   0x00, 0x00, 0x00, 0x00, 0x00, 0x00, 0x00, 0x00, 0x00, 0x00, 0x00, 0x00,
   0x00, 0x00, 0x00, 0x00, 0x00, 0x00, 0x00, 0x00, 0x00, 0x00, 0x00, 0x00,
   0x00, 0x00, 0x00, 0x00, 0x00, 0x00, 0x00, 0x00, 0x00, 0x00, 0x00, 0x00,
   0x00, 0x00, 0x00, 0x00, 0x00, 0x00, 0x00, 0x00, 0x00, 0x00, 0x00, 0x00,
   0x00, 0x00, 0x00, 0x00, 0x00, 0x00, 0x00, 0x00, 0x00, 0x00, 0x00, 0x00,
   0x00, 0x00, 0x00, 0x00, 0x00, 0x00, 0x00, 0x00, 0x00, 0x00, 0x00, 0x00,
   0x00, 0x00, 0x00, 0x00, 0x00, 0x00, 0x00, 0x00, 0x00, 0x00, 0x00, 0x00,
   0x00, 0x00, 0x00, 0x00, 0x00, 0x00, 0x00, 0x00, 0x00, 0x00, 0x00, 0x00,
   0x00, 0x00, 0x00, 0x00, 0x00, 0x00, 0x00, 0x00, 0x00, 0x00, 0x02, 0x20,
   0x00, 0x00, 0x02, 0x02, 0x02, 0x0a, 0x2a, 0x0a, 0x02, 0x02, 0x05, 0x05,
   0x00, 0x00, 0x00, 0x00, 0x00, 0x00, 0x00, 0x00, 0x00, 0x00, 0x00, 0x00,
   0x00, 0x00, 0x00, 0x00, 0x00, 0x00, 0x02, 0x20, 0x3e, 0x08, 0x02, 0x02,
   0x02, 0x0a, 0x2a, 0x0a, 0x02, 0x22, 0x05, 0x45, 0x30, 0x0c, 0x00, 0x00,
   0x60, 0x06, 0x00, 0x00, 0x00, 0x00, 0x00, 0x22, 0x3e, 0x3e, 0x00, 0x00,
   0x3e, 0x3e, 0x02, 0x20, 0x08, 0x08, 0x02, 0x02, 0x02, 0x0a, 0x2a, 0x0a,
   0x12, 0x22, 0x25, 0x45, 0x40, 0x02, 0x60, 0x06, 0x58, 0x1a, 0x00, 0x00,
   0x00, 0x08, 0x00, 0x22, 0x00, 0x00, 0x00, 0x00, 0x36, 0x22, 0x02, 0x20,
   0x08, 0x08, 0x02, 0x1e, 0x3e, 0x0a, 0x2a, 0x3a, 0x12, 0x3e, 0x25, 0x7d,
   0x20, 0x04, 0x58, 0x1a, 0x46, 0x62, 0x24, 0x24, 0x20, 0x08, 0x1c, 0x14,
   0x08, 0x22, 0x02, 0x40, 0x2a, 0x2a, 0x3e, 0x3e, 0x08, 0x08, 0x1e, 0x02,
   0x02, 0x3a, 0x6a, 0x0a, 0x3e, 0x12, 0x7d, 0x25, 0x1e, 0x78, 0x46, 0x62,
   0x58, 0x1a, 0x7a, 0x5e, 0x5e, 0x36, 0x08, 0x14, 0x08, 0x22, 0x02, 0x60,
   0x36, 0x22, 0x02, 0x20, 0x08, 0x08, 0x02, 0x1e, 0x3e, 0x0a, 0x2a, 0x3a,
   0x0a, 0x3e, 0x15, 0x7d, 0x20, 0x04, 0x58, 0x1a, 0x60, 0x06, 0x24, 0x24,
   0x20, 0x08, 0x08, 0x08, 0x14, 0x14, 0x02, 0x50, 0x3e, 0x3e, 0x02, 0x20,
   0x08, 0x08, 0x02, 0x02, 0x02, 0x0a, 0x2a, 0x0a, 0x0a, 0x0a, 0x15, 0x15,
   0x40, 0x02, 0x60, 0x06, 0x00, 0x00, 0x00, 0x00, 0x00, 0x08, 0x08, 0x08,
   0x14, 0x14, 0x06, 0x48, 0x00, 0x00, 0x02, 0x20, 0x08, 0x08, 0x02, 0x02,
   0x02, 0x0a, 0x2a, 0x0a, 0x02, 0x0a, 0x05, 0x15, 0x30, 0x0c, 0x00, 0x00,
   0x7e, 0x7e, 0x00, 0x00, 0x00, 0x00, 0x08, 0x00, 0x22, 0x08, 0x0a, 0x44,
   0x00, 0x00, 0x02, 0x20, 0x08, 0x3e, 0x02, 0x02, 0x02, 0x0a, 0x2a, 0x0a,
   0x02, 0x02, 0x05, 0x05, 0x00, 0x00, 0x00, 0x00, 0x00, 0x00, 0x00, 0x00,
   0x00, 0x00, 0x08, 0x3e, 0x22, 0x08, 0x3e, 0x7e, 0x00, 0x00, 0x00, 0x00,
   0x00, 0x00, 0x00, 0x00, 0x00, 0x00, 0x00, 0x00, 0x00, 0x00, 0x00, 0x00,
   0x00, 0x00, 0x00, 0x00, 0x00, 0x00, 0x00, 0x00, 0x00, 0x00, 0x00, 0x00,
   0x00, 0x00, 0x00, 0x00, 0x00, 0x00, 0x00, 0x00, 0x00, 0x00, 0x00, 0x00,
   0x00, 0x00, 0x00, 0x00, 0x00, 0x00, 0x00, 0x00, 0x00, 0x00, 0x00, 0x00,
   0x00, 0x00, 0x00, 0x00, 0x00, 0x00, 0x00, 0x00, 0x00, 0x00, 0x00, 0x00,
   0x00, 0x00, 0x00, 0x00, 0x00, 0x00, 0x00, 0x00, 0x00, 0x00, 0x00, 0x00,
   0x00, 0x00, 0x00, 0x00, 0x00, 0x00, 0x00, 0x00, 0x00, 0x00, 0x00, 0x00,
   0x00, 0x00, 0x00, 0x00, 0x00, 0x00, 0x00, 0x00, 0x00, 0x00, 0x00, 0x00,
   0x00, 0x00, 0x00, 0x00, 0x00, 0x00, 0x00, 0x00, 0x00, 0x00, 0x00, 0x00,
   0x00, 0x00, 0x00, 0x00, 0x00, 0x00, 0x00, 0x00, 0x00, 0x00, 0x00, 0x00,
   0x00, 0x00, 0x00, 0x00, 0x00, 0x00, 0x00, 0x00, 0x00, 0x00, 0x00, 0x00,
   0x00, 0x00, 0x00, 0x00, 0x00, 0x00, 0x00, 0x00, 0x00, 0x00, 0x00, 0x00,
   0x00, 0x00, 0x00, 0x00, 0x00, 0x00, 0x00, 0x00, 0x00, 0x00, 0x00, 0x00,
   0x00, 0x00, 0x00, 0x00, 0x00, 0x00, 0x00, 0x00, 0x00, 0x00, 0x00, 0x00,
   0x00, 0x00, 0x00, 0x00, 0x00, 0x00, 0x00, 0x00, 0x00, 0x00, 0x00, 0x00,
   0x00, 0x00, 0x70, 0x07, 0x00, 0x00, 0x00, 0x00, 0x08, 0x41, 0x1c, 0x41,
   0x00, 0x00, 0x00, 0x00, 0x00, 0x00, 0x00, 0x00, 0x00, 0x00, 0x00, 0x00,
   0x00, 0x00, 0x00, 0x00, 0x00, 0x00, 0x00, 0x00, 0x00, 0x00, 0x0c, 0x18,
   0x00, 0x00, 0x00, 0x00, 0x08, 0x41, 0x22, 0x41, 0x00, 0x00, 0x00, 0x00,
   0x00, 0x00, 0x00, 0x00, 0x00, 0x00, 0x00, 0x00, 0x00, 0x00, 0x00, 0x00,
   0x00, 0x14, 0x20, 0x02, 0x00, 0x00, 0x03, 0x60, 0x00, 0x00, 0x40, 0x02,
   0x14, 0x41, 0x41, 0x41, 0x08, 0x00, 0x08, 0x08, 0x00, 0x00, 0x00, 0x00,
   0x00, 0x00, 0x00, 0x00, 0x00, 0x00, 0x00, 0x00, 0x08, 0x14, 0x10, 0x04,
   0x00, 0x00, 0x0c, 0x18, 0x7f, 0x7f, 0x20, 0x04, 0x14, 0x41, 0x41, 0x41,
   0x08, 0x00, 0x08, 0x22, 0x22, 0x22, 0x22, 0x02, 0x20, 0x00, 0x00, 0x00,
   0x78, 0x1e, 0x1c, 0x2a, 0x08, 0x14, 0x08, 0x08, 0x48, 0x09, 0x70, 0x07,
   0x00, 0x00, 0x50, 0x0a, 0x22, 0x22, 0x41, 0x41, 0x14, 0x18, 0x3e, 0x14,
   0x36, 0x16, 0x34, 0x04, 0x10, 0x12, 0x41, 0x08, 0x04, 0x20, 0x22, 0x2a,
   0x1c, 0x3e, 0x04, 0x10, 0x24, 0x12, 0x00, 0x00, 0x70, 0x07, 0x2e, 0x74,
   0x22, 0x22, 0x41, 0x41, 0x22, 0x18, 0x1c, 0x3e, 0x2a, 0x0a, 0x28, 0x08,
   0x08, 0x2a, 0x22, 0x14, 0x72, 0x4e, 0x2a, 0x2a, 0x2a, 0x14, 0x22, 0x22,
   0x12, 0x24, 0x7f, 0x7f, 0x0c, 0x18, 0x10, 0x08, 0x22, 0x22, 0x41, 0x41,
   0x14, 0x00, 0x1c, 0x14, 0x36, 0x16, 0x34, 0x14, 0x14, 0x24, 0x22, 0x14,
   0x0a, 0x50, 0x2a, 0x2a, 0x2a, 0x14, 0x04, 0x10, 0x09, 0x48, 0x00, 0x00,
   0x03, 0x60, 0x0e, 0x70, 0x41, 0x14, 0x41, 0x41, 0x08, 0x00, 0x22, 0x22,
   0x22, 0x22, 0x22, 0x22, 0x22, 0x00, 0x14, 0x22, 0x72, 0x4e, 0x2a, 0x2a,
   0x2a, 0x3e, 0x08, 0x08, 0x12, 0x24, 0x07, 0x70, 0x0c, 0x18, 0x10, 0x08,
   0x41, 0x14, 0x41, 0x41, 0x08, 0x00, 0x00, 0x08, 0x00, 0x00, 0x00, 0x00,
   0x00, 0x3e, 0x14, 0x22, 0x04, 0x20, 0x2a, 0x22, 0x2a, 0x14, 0x10, 0x04,
   0x24, 0x12, 0x18, 0x0c, 0x70, 0x07, 0x20, 0x04, 0x41, 0x08, 0x41, 0x22,
   0x00, 0x00, 0x00, 0x00, 0x00, 0x00, 0x00, 0x00, 0x00, 0x00, 0x08, 0x41,
   0x78, 0x1e, 0x2a, 0x1c, 0x2a, 0x14, 0x20, 0x02, 0x48, 0x09, 0x60, 0x03,
   0x00, 0x00, 0x40, 0x02, 0x41, 0x08, 0x41, 0x1c, 0x00, 0x00, 0x00, 0x00,
   0x00, 0x00, 0x00, 0x00, 0x00, 0x00, 0x00, 0x00, 0x00, 0x00, 0x00, 0x00,
   0x00, 0x00, 0x00, 0x00, 0x00, 0x00, 0x18, 0x0c, 0x00, 0x00, 0x00, 0x00,
   0x00, 0x00, 0x00, 0x00, 0x00, 0x00, 0x00, 0x00, 0x00, 0x00, 0x00, 0x00,
   0x00, 0x00, 0x00, 0x00, 0x00, 0x00, 0x00, 0x00, 0x00, 0x00, 0x00, 0x00,
   0x00, 0x00, 0x07, 0x70, 0x00, 0x00, 0x00, 0x00, 0x00, 0x00, 0x00, 0x00,
   0x00, 0x00, 0x00, 0x00, 0x00, 0x00, 0x00, 0x00, 0x00, 0x00, 0x00, 0x00,
   0x00, 0x00, 0x00, 0x00, 0x00, 0x00, 0x00, 0x00, 0x00, 0x00, 0x00, 0x00,
   0x00, 0x00, 0x00, 0x00, 0x00, 0x00, 0x00, 0x00, 0x00, 0x00, 0x00, 0x00,
   0x00, 0x00, 0x00, 0x00, 0x00, 0x00, 0x00, 0x00, 0x00, 0x00, 0x00, 0x00,
   0x00, 0x00, 0x00, 0x00, 0x00, 0x00, 0x00, 0x00, 0x00, 0x00, 0x00, 0x00,
   0x00, 0x00, 0x00, 0x00, 0x00, 0x00, 0x00, 0x00, 0x00, 0x00, 0x00, 0x00,
   0x00, 0x00, 0x00, 0x00, 0x00, 0x00, 0x00, 0x00, 0x00, 0x00, 0x00, 0x00,
   0x00, 0x00, 0x00, 0x00, 0x00, 0x00, 0x00, 0x00, 0x00, 0x00, 0x00, 0x00,
   0x00, 0x00, 0x00, 0x00, 0x00, 0x00, 0x00, 0x00, 0x00, 0x00, 0x00, 0x00,
   0x00, 0x00, 0x00, 0x00, 0x00, 0x00, 0x00, 0x00, 0x00, 0x00, 0x00, 0x00,
   0x00, 0x00, 0x00, 0x00, 0x00, 0x00, 0x10, 0x08, 0x00, 0x00, 0x00, 0x00,
   0x00, 0x00, 0x00, 0x00, 0x08, 0x08, 0x00, 0x00, 0x00, 0x00, 0x00, 0x00,
   0x00, 0x10, 0x00, 0x00, 0x00, 0x00, 0x00, 0x00, 0x00, 0x00, 0x00, 0x00,
   0x00, 0x00, 0x10, 0x08, 0x00, 0x00, 0x70, 0x07, 0x40, 0x01, 0x10, 0x08,
   0x08, 0x08, 0x08, 0x00, 0x20, 0x02, 0x00, 0x00, 0x00, 0x10, 0x7e, 0x00,
   0x00, 0x78, 0x00, 0x00, 0x00, 0x7e, 0x00, 0x7f, 0x48, 0x12, 0x7e, 0x7e,
   0x7e, 0x7e, 0x0c, 0x18, 0x20, 0x02, 0x10, 0x08, 0x3c, 0x1e, 0x00, 0x00,
   0x00, 0x00, 0x00, 0x00, 0x00, 0x00, 0x00, 0x3c, 0x00, 0x04, 0x00, 0x00,
   0x00, 0x00, 0x3c, 0x01, 0x28, 0x14, 0x12, 0x48, 0x02, 0x40, 0x03, 0x60,
   0x1f, 0x7c, 0x78, 0x1e, 0x2a, 0x2a, 0x00, 0x00, 0x00, 0x00, 0x78, 0x78,
   0x38, 0x78, 0x78, 0x00, 0x78, 0x02, 0x0f, 0x1e, 0x1c, 0x1e, 0x00, 0x01,
   0x18, 0x18, 0x12, 0x48, 0x02, 0x40, 0x0c, 0x18, 0x20, 0x02, 0x54, 0x2a,
   0x29, 0x4a, 0x00, 0x00, 0x00, 0x00, 0x04, 0x04, 0x04, 0x04, 0x04, 0x38,
   0x04, 0x7e, 0x10, 0x20, 0x20, 0x20, 0x1c, 0x01, 0x0e, 0x70, 0x12, 0x48,
   0x02, 0x40, 0x78, 0x0f, 0x48, 0x09, 0x52, 0x4a, 0x2a, 0x2a, 0x08, 0x49,
   0x08, 0x08, 0x04, 0x42, 0x24, 0x02, 0x02, 0x04, 0x02, 0x02, 0x10, 0x42,
   0x24, 0x40, 0x20, 0x7f, 0x18, 0x18, 0x7e, 0x7e, 0x7e, 0x7e, 0x08, 0x08,
   0x08, 0x08, 0x54, 0x2a, 0x3c, 0x1e, 0x00, 0x00, 0x00, 0x00, 0x7f, 0x7e,
   0x3c, 0x7e, 0x7e, 0x3c, 0x7e, 0x7e, 0x7f, 0x7e, 0x3c, 0x7e, 0x3c, 0x01,
   0x2e, 0x74, 0x10, 0x08, 0x10, 0x10, 0x4e, 0x4e, 0x4e, 0x4e, 0x78, 0x1e,
   0x08, 0x08, 0x00, 0x00, 0x00, 0x00, 0x04, 0x42, 0x24, 0x02, 0x02, 0x04,
   0x02, 0x02, 0x10, 0x42, 0x24, 0x40, 0x20, 0x01, 0x58, 0x1a, 0x7e, 0x7e,
   0x7e, 0x7e, 0x49, 0x49, 0x49, 0x49, 0x10, 0x08, 0x3e, 0x3e, 0x00, 0x00,
   0x00, 0x00, 0x04, 0x04, 0x04, 0x04, 0x04, 0x38, 0x04, 0x04, 0x10, 0x20,
   0x20, 0x20, 0x1c, 0x01, 0x28, 0x14, 0x10, 0x08, 0x08, 0x08, 0x39, 0x39,
   0x39, 0x39, 0x10, 0x08, 0x08, 0x08, 0x08, 0x00, 0x02, 0x20, 0x78, 0x78,
   0x38, 0x78, 0x78, 0x00, 0x78, 0x78, 0x0f, 0x1e, 0x1c, 0x1e, 0x00, 0x7f,
   0x48, 0x12, 0x10, 0x08, 0x00, 0x00, 0x08, 0x08, 0x08, 0x08, 0x00, 0x00,
   0x08, 0x08, 0x00, 0x00, 0x00, 0x00, 0x00, 0x00, 0x00, 0x00, 0x00, 0x00,
   0x00, 0x00, 0x00, 0x00, 0x00, 0x00, 0x00, 0x00, 0x00, 0x00, 0x00, 0x00,
   0x00, 0x00, 0x08, 0x08, 0x08, 0x08, 0x00, 0x00, 0x00, 0x00, 0x00, 0x00,
   0x00, 0x00, 0x00, 0x00, 0x00, 0x00, 0x00, 0x00, 0x7e, 0x00, 0x00, 0x00,
   0x00, 0x00, 0x00, 0x00, 0x00, 0x00, 0x00, 0x00, 0x00, 0x00, 0x00, 0x00,
   0x00, 0x00, 0x00, 0x00, 0x00, 0x00, 0x00, 0x00, 0x00, 0x00, 0x00, 0x00,
   0x00, 0x00, 0x00, 0x00, 0x00, 0x00, 0x00, 0x00, 0x00, 0x00, 0x00, 0x00,
   0x00, 0x00, 0x00, 0x00, 0x00, 0x00, 0x00, 0x00, 0x00, 0x00, 0x00, 0x00,
   0x00, 0x00, 0x00, 0x00, 0x00, 0x00, 0x00, 0x00, 0x00, 0x00, 0x00, 0x00,
   0x00, 0x00, 0x00, 0x00, 0x00, 0x00, 0x00, 0x00, 0x00, 0x00, 0x00, 0x00,
   0x00, 0x00, 0x00, 0x00, 0x00, 0x00, 0x00, 0x00, 0x00, 0x00, 0x00, 0x00,
   0x00, 0x00, 0x00, 0x00, 0x00, 0x00, 0x00, 0x00, 0x00, 0x00, 0x00, 0x00,
   0x00, 0x00, 0x00, 0x00 };
