#define u002300_u0023FF_width 256
#define u002300_u0023FF_height 128
static unsigned char u002300_u0023FF_bits[] = {
   0x00, 0x00, 0x00, 0x00, 0x00, 0x00, 0x00, 0x00, 0x00, 0x00, 0x00, 0x00,
   0x00, 0x00, 0x00, 0x00, 0x00, 0x00, 0x00, 0x00, 0x00, 0x00, 0x00, 0x00,
   0x00, 0x00, 0x00, 0x00, 0x00, 0x00, 0x00, 0x00, 0x00, 0x00, 0x00, 0x08,
   0x00, 0x00, 0x00, 0x04, 0x3c, 0x3c, 0x04, 0x20, 0x00, 0x00, 0x00, 0x00,
   0x00, 0x00, 0x00, 0x00, 0x00, 0x00, 0x00, 0x00, 0x00, 0x00, 0x1c, 0x00,
   0x3e, 0x7c, 0x00, 0x00, 0x00, 0x00, 0x00, 0x1c, 0x00, 0x00, 0x00, 0x08,
   0x04, 0x20, 0x04, 0x20, 0x00, 0x00, 0x08, 0x10, 0x00, 0x00, 0x00, 0x00,
   0x00, 0x00, 0x08, 0x24, 0x22, 0x00, 0x14, 0x7f, 0x02, 0x40, 0x00, 0x00,
   0x00, 0x00, 0x00, 0x36, 0x00, 0x00, 0x7f, 0x10, 0x04, 0x20, 0x04, 0x20,
   0x00, 0x00, 0x08, 0x10, 0x00, 0x42, 0x00, 0x00, 0x00, 0x00, 0x08, 0x24,
   0x55, 0x00, 0x1c, 0x41, 0x02, 0x40, 0x00, 0x00, 0x5c, 0x08, 0x18, 0x63,
   0x00, 0x00, 0x00, 0x08, 0x04, 0x20, 0x04, 0x20, 0x00, 0x00, 0x08, 0x10,
   0x00, 0x3c, 0x00, 0x00, 0x1c, 0x1c, 0x1c, 0xff, 0x55, 0x00, 0x22, 0x22,
   0x02, 0x40, 0x00, 0x00, 0x22, 0x19, 0x24, 0x00, 0x00, 0x7f, 0x7f, 0x04,
   0x04, 0x20, 0x04, 0x20, 0x00, 0x00, 0x00, 0x00, 0x00, 0x24, 0x1c, 0x1c,
   0x22, 0x22, 0x2a, 0x24, 0x3e, 0x02, 0x49, 0x1c, 0x02, 0x40, 0x00, 0x00,
   0x51, 0x2a, 0x42, 0x00, 0x00, 0x00, 0x00, 0x08, 0x04, 0x20, 0x04, 0x20,
   0xe0, 0x07, 0xe0, 0x07, 0x7e, 0x24, 0x22, 0x22, 0x41, 0x41, 0x7f, 0x24,
   0x14, 0x02, 0x49, 0x08, 0x00, 0x00, 0x02, 0x40, 0x49, 0x4c, 0x42, 0x00,
   0x63, 0x08, 0x08, 0x10, 0x04, 0x20, 0x04, 0x20, 0x00, 0x00, 0x00, 0x00,
   0x02, 0x24, 0x41, 0x41, 0x22, 0x41, 0x2a, 0x24, 0x3e, 0x7e, 0x4d, 0x14,
   0x00, 0x00, 0x02, 0x40, 0x45, 0x08, 0x42, 0x00, 0x36, 0x1c, 0x1c, 0x08,
   0x04, 0x20, 0x04, 0x20, 0x08, 0x10, 0x00, 0x00, 0x02, 0x3c, 0x41, 0x41,
   0x14, 0x45, 0x1c, 0xff, 0x55, 0x00, 0x41, 0x2a, 0x00, 0x00, 0x02, 0x40,
   0x22, 0x00, 0x42, 0x00, 0x1c, 0x36, 0x36, 0x04, 0x04, 0x20, 0x04, 0x20,
   0x08, 0x10, 0x00, 0x00, 0x02, 0x42, 0x41, 0x7f, 0x08, 0x22, 0x08, 0x24,
   0x55, 0x00, 0x22, 0x55, 0x00, 0x00, 0x02, 0x40, 0x1d, 0x00, 0x7e, 0x00,
   0x08, 0x63, 0x63, 0x08, 0x04, 0x20, 0x04, 0x20, 0x08, 0x10, 0x00, 0x00,
   0x00, 0x00, 0x00, 0x00, 0x00, 0x1d, 0x08, 0x24, 0x22, 0x00, 0x1c, 0x7f,
   0x00, 0x00, 0x3e, 0x7c, 0x00, 0x00, 0x00, 0x00, 0x00, 0x00, 0x00, 0x10,
   0x04, 0x20, 0x3c, 0x3c, 0x00, 0x00, 0x00, 0x00, 0x00, 0x00, 0x00, 0x00,
   0x00, 0x00, 0x00, 0x00, 0x00, 0x00, 0x14, 0x00, 0x00, 0x00, 0x00, 0x00,
   0x00, 0x00, 0x00, 0x00, 0x00, 0x00, 0x00, 0x00, 0x00, 0x00, 0x00, 0x00,
   0x00, 0x00, 0x00, 0x00, 0x00, 0x00, 0x00, 0x00, 0x00, 0x00, 0x00, 0x00,
   0x00, 0x00, 0x1c, 0x00, 0x00, 0x00, 0x00, 0x00, 0x00, 0x00, 0x00, 0x00,
   0x00, 0x00, 0x00, 0x00, 0x00, 0x00, 0x00, 0x00, 0x00, 0x00, 0x00, 0x00,
   0x00, 0x00, 0x00, 0x00, 0x00, 0x00, 0x00, 0x00, 0x00, 0x00, 0x00, 0x00,
   0x00, 0x00, 0x00, 0x00, 0x00, 0x00, 0x00, 0x00, 0x00, 0x00, 0x00, 0x00,
   0x00, 0x00, 0x00, 0x00, 0x00, 0x00, 0x00, 0x00, 0x00, 0x00, 0x00, 0x00,
   0x00, 0x00, 0x00, 0x00, 0x00, 0x00, 0x00, 0x00, 0x00, 0x00, 0x00, 0x00,
   0x00, 0x00, 0x00, 0x00, 0x00, 0x00, 0x00, 0x00, 0x00, 0x00, 0x00, 0x00,
   0x00, 0x00, 0x00, 0x00, 0x00, 0x00, 0x00, 0x00, 0x00, 0x00, 0x00, 0x00,
   0x00, 0x00, 0x00, 0x00, 0x00, 0x00, 0x00, 0x00, 0x00, 0x08, 0x00, 0x00,
   0x00, 0x00, 0x00, 0x00, 0x00, 0x00, 0x00, 0x00, 0x00, 0x00, 0x00, 0x00,
   0x00, 0x00, 0x00, 0x00, 0x00, 0x00, 0x00, 0x00, 0x00, 0x00, 0x00, 0x00,
   0x00, 0x00, 0x00, 0x00, 0x30, 0x08, 0x00, 0x00, 0x00, 0x00, 0x00, 0x00,
   0x00, 0x00, 0x00, 0x00, 0x00, 0x00, 0x00, 0x00, 0x00, 0x00, 0x00, 0x00,
   0x00, 0x00, 0x7f, 0x00, 0x00, 0x00, 0x00, 0x00, 0x00, 0x00, 0x00, 0x00,
   0x48, 0x08, 0x00, 0x00, 0x00, 0x00, 0x00, 0x00, 0x00, 0x00, 0x00, 0x00,
   0x00, 0x00, 0x00, 0x00, 0x00, 0x08, 0x00, 0x00, 0x00, 0x00, 0x08, 0x3e,
   0x7f, 0x7f, 0x7f, 0x7f, 0x7f, 0x08, 0x00, 0x20, 0x08, 0x08, 0x00, 0x00,
   0x00, 0x00, 0x00, 0x00, 0xff, 0x00, 0x00, 0x00, 0x08, 0x10, 0x00, 0x00,
   0x44, 0x1c, 0x03, 0x00, 0x00, 0x00, 0x08, 0x22, 0x41, 0x41, 0x49, 0x41,
   0x41, 0x08, 0x1c, 0x20, 0x08, 0x08, 0x00, 0x00, 0x00, 0x00, 0x1f, 0xff,
   0x81, 0x00, 0x00, 0x7c, 0x1c, 0x08, 0x18, 0x00, 0x44, 0x2a, 0x0d, 0x00,
   0x00, 0x00, 0x08, 0x22, 0x41, 0x49, 0x55, 0x41, 0x5d, 0x1c, 0x22, 0x10,
   0x08, 0x08, 0x3e, 0x41, 0x6b, 0x73, 0x33, 0xa5, 0xd5, 0x00, 0x00, 0x66,
   0x32, 0x14, 0x24, 0x18, 0x22, 0x69, 0x11, 0x00, 0x00, 0x00, 0x08, 0x22,
   0x7f, 0x41, 0x55, 0x49, 0x63, 0x2a, 0x49, 0x10, 0x08, 0x08, 0x41, 0x41,
   0x1c, 0x04, 0x4d, 0x99, 0x81, 0x00, 0x00, 0x59, 0x63, 0x62, 0x7e, 0x00,
   0x22, 0xf9, 0x7f, 0x03, 0x42, 0x41, 0x08, 0x22, 0x41, 0x7f, 0x63, 0x55,
   0x41, 0x49, 0x55, 0x7f, 0x08, 0x08, 0x41, 0x3e, 0x36, 0x08, 0x4d, 0x99,
   0xd5, 0x00, 0x00, 0x59, 0x43, 0x23, 0x25, 0x7e, 0x22, 0x69, 0x11, 0x0d,
   0x42, 0x22, 0x08, 0x22, 0x7f, 0x41, 0x55, 0x49, 0x63, 0x49, 0x49, 0x04,
   0x08, 0x08, 0x00, 0x00, 0x63, 0x70, 0x33, 0xa5, 0x81, 0x00, 0x00, 0x66,
   0x62, 0x14, 0x18, 0x00, 0x11, 0x2a, 0x0d, 0x31, 0x42, 0x14, 0x08, 0x22,
   0x41, 0x49, 0x55, 0x41, 0x5d, 0x2a, 0x22, 0x04, 0x08, 0x08, 0x00, 0x00,
   0x00, 0x00, 0x1f, 0xff, 0xff, 0x00, 0x00, 0x7c, 0x34, 0x08, 0x00, 0x18,
   0x1f, 0x1c, 0x03, 0x7f, 0x7e, 0x08, 0x08, 0x22, 0x41, 0x41, 0x49, 0x41,
   0x41, 0x1c, 0x1c, 0x02, 0x08, 0x09, 0x00, 0x00, 0x00, 0x00, 0x00, 0x00,
   0x00, 0x00, 0x00, 0x00, 0x18, 0x04, 0x00, 0x00, 0x00, 0x08, 0x00, 0x00,
   0x00, 0x00, 0x7f, 0x3e, 0x7f, 0x7f, 0x7f, 0x7f, 0x7f, 0x08, 0x00, 0x02,
   0x08, 0x06, 0x00, 0x00, 0x00, 0x00, 0x00, 0x00, 0x00, 0x00, 0x00, 0x00,
   0x00, 0x00, 0x00, 0x00, 0x00, 0x00, 0x00, 0x00, 0x00, 0x00, 0x00, 0x00,
   0x00, 0x00, 0x00, 0x00, 0x00, 0x08, 0x00, 0x00, 0x08, 0x00, 0x00, 0x00,
   0x00, 0x00, 0x00, 0x00, 0x00, 0x00, 0x00, 0x00, 0x00, 0x00, 0x00, 0x00,
   0x00, 0x00, 0x00, 0x00, 0x00, 0x00, 0x00, 0x00, 0x00, 0x00, 0x00, 0x00,
   0x00, 0x00, 0x00, 0x00, 0x00, 0x00, 0x00, 0x00, 0x00, 0x00, 0x00, 0x00,
   0x00, 0x00, 0x00, 0x00, 0x00, 0x00, 0x00, 0x00, 0x00, 0x00, 0x00, 0x00,
   0x00, 0x00, 0x00, 0x00, 0x00, 0x00, 0x00, 0x00, 0x00, 0x00, 0x00, 0x00,
   0x00, 0x00, 0x00, 0x00, 0x00, 0x00, 0x00, 0x00, 0x00, 0x00, 0x00, 0x00,
   0x00, 0x00, 0x00, 0x00, 0x00, 0x00, 0x00, 0x00, 0x00, 0x00, 0x00, 0x00,
   0x00, 0x00, 0x00, 0x00, 0x00, 0x00, 0x00, 0x00, 0x00, 0x00, 0x00, 0x00,
   0x00, 0x00, 0x00, 0x00, 0x00, 0x00, 0x00, 0x00, 0x00, 0x00, 0x00, 0x00,
   0x00, 0x00, 0x00, 0x00, 0x00, 0x00, 0x00, 0x00, 0x00, 0x00, 0x00, 0x00,
   0x00, 0x00, 0x00, 0x00, 0x00, 0x00, 0x00, 0x00, 0x00, 0x00, 0x00, 0x00,
   0x00, 0x00, 0x00, 0x00, 0x00, 0x00, 0x00, 0x00, 0x00, 0x00, 0x00, 0x00,
   0x00, 0x00, 0x00, 0x00, 0x00, 0x00, 0x00, 0x00, 0x00, 0x00, 0x00, 0x00,
   0x00, 0x00, 0x00, 0x00, 0x00, 0x00, 0x00, 0x00, 0x00, 0x00, 0x00, 0x08,
   0x00, 0x00, 0x00, 0x00, 0x00, 0x00, 0x08, 0x00, 0x00, 0x00, 0x00, 0x00,
   0x00, 0x00, 0x00, 0x00, 0x00, 0x00, 0x00, 0x00, 0x02, 0x7f, 0x7f, 0x7f,
   0x7f, 0x08, 0x08, 0x7f, 0x7f, 0x00, 0x08, 0x08, 0x7f, 0x7f, 0x08, 0x08,
   0x7f, 0x7f, 0x08, 0x7f, 0x7f, 0x7f, 0x08, 0x7f, 0x08, 0x08, 0x08, 0x00,
   0x1c, 0x3e, 0x7f, 0x00, 0x02, 0x61, 0x43, 0x41, 0x41, 0x08, 0x08, 0x41,
   0x41, 0x00, 0x08, 0x08, 0x41, 0x41, 0x08, 0x1c, 0x49, 0x00, 0x7f, 0x49,
   0x41, 0x08, 0x08, 0x49, 0x08, 0x14, 0x14, 0x1c, 0x22, 0x41, 0x41, 0x1c,
   0x04, 0x51, 0x45, 0x71, 0x47, 0x08, 0x08, 0x41, 0x41, 0x1d, 0x08, 0x1c,
   0x63, 0x49, 0x1c, 0x2a, 0x5d, 0x7f, 0x49, 0x49, 0x7f, 0x08, 0x08, 0x49,
   0x08, 0x14, 0x22, 0x22, 0x41, 0x41, 0x49, 0x2a, 0x04, 0x51, 0x45, 0x4d,
   0x59, 0x0a, 0x28, 0x45, 0x51, 0x22, 0x08, 0x1c, 0x63, 0x55, 0x2a, 0x08,
   0x6b, 0x08, 0x49, 0x55, 0x63, 0x1c, 0x08, 0x49, 0x00, 0x22, 0x41, 0x22,
   0x41, 0x5d, 0x49, 0x5d, 0x7f, 0x49, 0x49, 0x43, 0x61, 0x7f, 0x7f, 0x7f,
   0x7f, 0x45, 0x08, 0x2a, 0x55, 0x55, 0x2a, 0x7f, 0x49, 0x08, 0x2a, 0x55,
   0x55, 0x2a, 0x7f, 0x49, 0x00, 0x22, 0x22, 0x22, 0x41, 0x63, 0x49, 0x49,
   0x10, 0x45, 0x51, 0x4d, 0x59, 0x0a, 0x28, 0x45, 0x51, 0x49, 0x08, 0x2a,
   0x55, 0x63, 0x1c, 0x08, 0x49, 0x08, 0x2a, 0x63, 0x55, 0x2a, 0x08, 0x6b,
   0x00, 0x41, 0x14, 0x1c, 0x22, 0x63, 0x41, 0x55, 0x10, 0x45, 0x51, 0x71,
   0x47, 0x08, 0x08, 0x41, 0x41, 0x51, 0x7f, 0x49, 0x49, 0x7f, 0x08, 0x08,
   0x49, 0x08, 0x1c, 0x63, 0x49, 0x1c, 0x2a, 0x5d, 0x00, 0x7f, 0x08, 0x00,
   0x1c, 0x63, 0x41, 0x22, 0x20, 0x43, 0x61, 0x41, 0x41, 0x08, 0x08, 0x41,
   0x41, 0x22, 0x00, 0x49, 0x49, 0x41, 0x08, 0x08, 0x49, 0x08, 0x1c, 0x41,
   0x41, 0x08, 0x1c, 0x49, 0x00, 0x00, 0x00, 0x00, 0x00, 0x5d, 0x41, 0x1c,
   0x20, 0x7f, 0x7f, 0x7f, 0x7f, 0x08, 0x08, 0x7f, 0x7f, 0x5c, 0x7f, 0x7f,
   0x7f, 0x7f, 0x7f, 0x08, 0x7f, 0x08, 0x08, 0x7f, 0x7f, 0x08, 0x08, 0x7f,
   0x7f, 0x7f, 0x7f, 0x7f, 0x7f, 0x41, 0x7f, 0x00, 0x00, 0x00, 0x00, 0x00,
   0x00, 0x00, 0x00, 0x00, 0x00, 0x00, 0x00, 0x08, 0x00, 0x00, 0x00, 0x00,
   0x00, 0x00, 0x08, 0x00, 0x00, 0x00, 0x00, 0x00, 0x00, 0x00, 0x00, 0x00,
   0x00, 0x00, 0x00, 0x00, 0x00, 0x00, 0x00, 0x00, 0x00, 0x00, 0x00, 0x00,
   0x00, 0x00, 0x00, 0x08, 0x00, 0x00, 0x00, 0x00, 0x00, 0x00, 0x08, 0x00,
   0x00, 0x00, 0x00, 0x00, 0x00, 0x00, 0x00, 0x00, 0x00, 0x00, 0x00, 0x00,
   0x00, 0x00, 0x00, 0x00, 0x00, 0x00, 0x00, 0x00, 0x00, 0x00, 0x00, 0x00,
   0x00, 0x00, 0x00, 0x00, 0x00, 0x00, 0x00, 0x00, 0x00, 0x00, 0x00, 0x00,
   0x00, 0x00, 0x00, 0x00, 0x00, 0x00, 0x00, 0x00, 0x00, 0x00, 0x00, 0x00,
   0x00, 0x00, 0x00, 0x00, 0x00, 0x00, 0x00, 0x00, 0x00, 0x00, 0x00, 0x00,
   0x00, 0x00, 0x00, 0x00, 0x00, 0x00, 0x00, 0x00, 0x00, 0x00, 0x00, 0x00,
   0x00, 0x00, 0x00, 0x00, 0x00, 0x00, 0x00, 0x00, 0x00, 0x00, 0x00, 0x00,
   0x00, 0x00, 0x00, 0x00, 0x00, 0x00, 0x00, 0x00, 0x00, 0x00, 0x00, 0x00,
   0x00, 0x00, 0x00, 0x00, 0x00, 0x00, 0x00, 0x00, 0x00, 0x00, 0x00, 0x00,
   0x00, 0x00, 0x00, 0x00, 0x00, 0x00, 0x00, 0x00, 0x00, 0x00, 0x00, 0x00,
   0x00, 0x00, 0x00, 0x00, 0x00, 0x00, 0x00, 0x00, 0x00, 0x00, 0x00, 0x00,
   0x00, 0x00, 0x00, 0x00, 0x00, 0x00, 0x00, 0x00, 0x00, 0x22, 0x22, 0x00,
   0x00, 0x22, 0x00, 0x00, 0x00, 0x00, 0x00, 0x00, 0x00, 0x00, 0x00, 0x00,
   0x00, 0x00, 0x00, 0x00, 0x00, 0x00, 0x00, 0x00, 0x00, 0x00, 0x00, 0x00,
   0x00, 0x00, 0x00, 0x00, 0x7f, 0x22, 0x22, 0x22, 0x22, 0x22, 0x08, 0x08,
   0x00, 0x24, 0x00, 0x7f, 0x1c, 0x08, 0x00, 0x7f, 0x7f, 0x00, 0x00, 0x00,
   0x00, 0x00, 0x00, 0x00, 0x00, 0x00, 0x00, 0x40, 0x14, 0x00, 0x00, 0x08,
   0x41, 0x00, 0x00, 0x22, 0x22, 0x00, 0x08, 0x08, 0x22, 0x24, 0x00, 0x41,
   0x22, 0x08, 0x00, 0x41, 0x41, 0x41, 0x08, 0x00, 0x00, 0x00, 0x00, 0x00,
   0x00, 0x00, 0x00, 0x20, 0x0c, 0x00, 0x00, 0x08, 0x49, 0x7f, 0x7f, 0x00,
   0x00, 0x1c, 0x49, 0x7c, 0x22, 0x00, 0x00, 0x41, 0x41, 0x08, 0x00, 0x51,
   0x4d, 0x41, 0x08, 0x00, 0x00, 0x00, 0x00, 0x78, 0x00, 0x00, 0x00, 0x20,
   0x04, 0x00, 0x1c, 0x1c, 0x49, 0x08, 0x41, 0x08, 0x1c, 0x22, 0x49, 0x0a,
   0x00, 0x06, 0x00, 0x4e, 0x47, 0x4e, 0x18, 0x7f, 0x51, 0x22, 0x14, 0x0c,
   0x3c, 0x22, 0x5c, 0x04, 0x0c, 0x22, 0x5c, 0x7c, 0x06, 0x00, 0x22, 0x3e,
   0x41, 0x08, 0x22, 0x08, 0x22, 0x41, 0x49, 0x09, 0x06, 0x18, 0x7e, 0x3b,
   0x49, 0x39, 0x18, 0x49, 0x49, 0x6e, 0x14, 0x08, 0x42, 0x41, 0x62, 0x02,
   0x08, 0x41, 0x62, 0x10, 0x04, 0x77, 0x41, 0x3e, 0x49, 0x08, 0x22, 0x3e,
   0x22, 0x41, 0x49, 0x09, 0x49, 0x60, 0x00, 0x24, 0x71, 0x08, 0x00, 0x7f,
   0x41, 0x3d, 0x6e, 0x08, 0x42, 0x49, 0x42, 0x1e, 0x08, 0x49, 0x42, 0x09,
   0x0c, 0x14, 0x7f, 0x3e, 0x49, 0x08, 0x14, 0x1c, 0x22, 0x41, 0x49, 0x09,
   0x30, 0x18, 0x18, 0x14, 0x41, 0x08, 0x18, 0x45, 0x49, 0x14, 0x3b, 0x08,
   0x42, 0x49, 0x42, 0x02, 0x08, 0x49, 0x42, 0x0a, 0x14, 0x1c, 0x14, 0x1c,
   0x41, 0x08, 0x14, 0x1c, 0x1c, 0x22, 0x2a, 0x0a, 0x00, 0x06, 0x10, 0x08,
   0x22, 0x08, 0x7e, 0x41, 0x41, 0x08, 0x41, 0x28, 0x46, 0x49, 0x62, 0x04,
   0x28, 0x49, 0x62, 0x04, 0x0c, 0x00, 0x14, 0x08, 0x7f, 0x08, 0x08, 0x22,
   0x00, 0x1c, 0x1c, 0x7c, 0x00, 0x00, 0x08, 0x08, 0x1c, 0x08, 0x10, 0x7f,
   0x7f, 0x08, 0x41, 0x10, 0x3a, 0x36, 0x5c, 0x78, 0x10, 0x36, 0x5c, 0x00,
   0x7d, 0x00, 0x77, 0x08, 0x00, 0x00, 0x00, 0x00, 0x00, 0x00, 0x08, 0x08,
   0x00, 0x00, 0x00, 0x00, 0x00, 0x00, 0x08, 0x00, 0x00, 0x00, 0x00, 0x00,
   0x02, 0x00, 0x00, 0x00, 0x00, 0x00, 0x00, 0x00, 0x03, 0x00, 0x00, 0x00,
   0x00, 0x00, 0x00, 0x00, 0x00, 0x00, 0x08, 0x08, 0x00, 0x00, 0x00, 0x00,
   0x00, 0x00, 0x00, 0x00, 0x00, 0x00, 0x00, 0x00, 0x02, 0x00, 0x7e, 0x7e,
   0x7e, 0x7f, 0x00, 0x00, 0x07, 0x00, 0x00, 0x00, 0x00, 0x00, 0x00, 0x00,
   0x00, 0x00, 0x00, 0x00, 0x00, 0x00, 0x00, 0x00, 0x00, 0x00, 0x00, 0x00,
   0x00, 0x00, 0x00, 0x00, 0x00, 0x00, 0x00, 0x00, 0x00, 0x00, 0x00, 0x00,
   0x00, 0x00, 0x00, 0x00, 0x00, 0x00, 0x00, 0x00, 0x00, 0x00, 0x00, 0x00,
   0x00, 0x00, 0x00, 0x00, 0x00, 0x00, 0x00, 0x00, 0x00, 0x00, 0x00, 0x00,
   0x00, 0x00, 0x00, 0x00, 0x00, 0x00, 0x00, 0x00, 0x00, 0x00, 0x00, 0x00,
   0x00, 0x00, 0x00, 0x00, 0x00, 0x00, 0x00, 0x00, 0x00, 0x00, 0x00, 0x00,
   0x00, 0x00, 0x00, 0x00, 0x00, 0x00, 0x00, 0x00, 0x00, 0x00, 0x00, 0x00,
   0x00, 0x00, 0x00, 0x00, 0x00, 0x00, 0x00, 0x00, 0x00, 0x00, 0x00, 0x00,
   0x00, 0x00, 0x00, 0x00, 0x00, 0x00, 0x00, 0x00, 0x00, 0x00, 0x00, 0x00,
   0x00, 0x00, 0x00, 0x00, 0x00, 0x00, 0x00, 0x15, 0x1f, 0x00, 0x00, 0x00,
   0x08, 0x08, 0x00, 0x10, 0x00, 0x00, 0x00, 0x00, 0x00, 0x08, 0x00, 0x00,
   0x08, 0x00, 0x00, 0x00, 0x00, 0x00, 0x00, 0x00, 0x00, 0x00, 0x00, 0x00,
   0x00, 0x00, 0x00, 0x00, 0x11, 0x18, 0x00, 0x20, 0x08, 0x08, 0x04, 0x10,
   0x00, 0x00, 0x00, 0x00, 0x1f, 0x08, 0x04, 0x00, 0x08, 0x1c, 0x1c, 0x00,
   0x00, 0x00, 0x00, 0x00, 0x00, 0x00, 0x00, 0x00, 0x00, 0x7f, 0x00, 0x7d,
   0x55, 0x1c, 0x00, 0x10, 0x08, 0x08, 0x08, 0x10, 0x1c, 0x00, 0x00, 0x00,
   0x39, 0x7f, 0x0a, 0x00, 0x1c, 0x22, 0x22, 0x0f, 0x1a, 0x00, 0x00, 0x7f,
   0x08, 0x7f, 0x08, 0x00, 0x00, 0x41, 0x00, 0x44, 0x01, 0x14, 0x3e, 0x10,
   0x08, 0x08, 0x08, 0x10, 0x20, 0x00, 0x00, 0x81, 0x55, 0x49, 0x11, 0x00,
   0x6b, 0x41, 0x7f, 0x25, 0x26, 0x00, 0x00, 0x08, 0x14, 0x08, 0x14, 0x00,
   0x1c, 0x41, 0x1c, 0x51, 0x49, 0x36, 0x69, 0x08, 0x08, 0x08, 0x10, 0x10,
   0x3c, 0x06, 0x66, 0x5a, 0x55, 0x49, 0x24, 0x30, 0x3e, 0x41, 0x63, 0x47,
   0x2e, 0x3e, 0x7c, 0x14, 0x22, 0x14, 0x22, 0x00, 0x22, 0x41, 0x1c, 0x48,
   0x11, 0x55, 0x55, 0x08, 0x08, 0x08, 0x10, 0x10, 0x22, 0x08, 0x88, 0x20,
   0x55, 0x49, 0x4f, 0x58, 0x2a, 0x63, 0x55, 0x49, 0x22, 0x22, 0x14, 0x22,
   0x41, 0x22, 0x7f, 0x3e, 0x41, 0x41, 0x0c, 0x7d, 0x7f, 0x55, 0x6b, 0x08,
   0x08, 0x08, 0x10, 0x10, 0x32, 0x0e, 0xee, 0xfb, 0x55, 0x49, 0x24, 0x34,
   0x3e, 0x55, 0x55, 0x48, 0x55, 0x22, 0x14, 0x41, 0x22, 0x7f, 0x22, 0x00,
   0x22, 0x41, 0x0c, 0x48, 0x11, 0x5d, 0x55, 0x08, 0x08, 0x08, 0x10, 0x10,
   0x2c, 0x09, 0x99, 0x24, 0x55, 0x49, 0x11, 0x04, 0x6b, 0x49, 0x49, 0x52,
   0x55, 0x22, 0x14, 0x22, 0x14, 0x22, 0x14, 0x2a, 0x1c, 0x41, 0x04, 0x51,
   0x4b, 0x41, 0x4b, 0x08, 0x08, 0x08, 0x10, 0x10, 0x41, 0x0d, 0xdd, 0x76,
   0x39, 0x7f, 0x0a, 0x7b, 0x1c, 0x22, 0x2a, 0x22, 0x22, 0x63, 0x1f, 0x14,
   0x08, 0x14, 0x08, 0x00, 0x00, 0x41, 0x04, 0x44, 0x00, 0x41, 0x3e, 0x08,
   0x08, 0x10, 0x10, 0x10, 0x22, 0xaa, 0xaa, 0xa9, 0x1f, 0x08, 0x04, 0x00,
   0x08, 0x1c, 0x1c, 0x1c, 0x00, 0x00, 0x00, 0x08, 0x7f, 0x08, 0x7f, 0x00,
   0x00, 0x7f, 0x00, 0x7c, 0x54, 0x3e, 0x00, 0x08, 0x08, 0x10, 0x10, 0x10,
   0x14, 0x00, 0x00, 0x00, 0x00, 0x08, 0x00, 0x00, 0x08, 0x00, 0x00, 0x00,
   0x00, 0x00, 0x00, 0x00, 0x00, 0x00, 0x00, 0x00, 0x00, 0x00, 0x00, 0x00,
   0x00, 0x00, 0x00, 0x08, 0x08, 0x20, 0x10, 0x10, 0x08, 0xff, 0xee, 0x00,
   0x00, 0x00, 0x00, 0x00, 0x00, 0x00, 0x00, 0x00, 0x00, 0x00, 0x00, 0x00,
   0x00, 0x00, 0x00, 0x00, 0x00, 0x00, 0x00, 0x00, 0x00, 0x00, 0x00, 0x08,
   0x08, 0x00, 0x10, 0x10, 0x00, 0x00, 0x00, 0x00, 0x00, 0x00, 0x00, 0x00,
   0x00, 0x00, 0x00, 0x00, 0x00, 0x00, 0x00, 0x00, 0x00, 0x00, 0x00, 0x00,
   0x00, 0x00, 0x00, 0x00, 0x00, 0x00, 0x00, 0x00, 0x00, 0x00, 0x00, 0x00,
   0x00, 0x00, 0x00, 0x00, 0x00, 0x00, 0x00, 0x00, 0x00, 0x00, 0x00, 0x00,
   0x00, 0x00, 0x00, 0x00, 0x00, 0x00, 0x00, 0x00, 0x00, 0x00, 0x00, 0x00,
   0x00, 0x00, 0x00, 0x00, 0x00, 0x00, 0x00, 0x00, 0x00, 0x00, 0x00, 0x00,
   0x00, 0x00, 0x00, 0x00, 0x00, 0x00, 0x00, 0x00, 0x00, 0x00, 0x00, 0x00,
   0x00, 0x00, 0x00, 0x00, 0x00, 0x00, 0x00, 0x00, 0x00, 0x00, 0x00, 0x00,
   0x00, 0x00, 0x00, 0x00, 0x10, 0x00, 0x04, 0x04, 0x00, 0x10, 0x10, 0x00,
   0x08, 0x08, 0x08, 0x00, 0x08, 0x08, 0x08, 0x00, 0x30, 0x06, 0x00, 0x08,
   0x00, 0x00, 0x00, 0x08, 0x01, 0x80, 0xff, 0x00, 0x00, 0x00, 0x00, 0x00,
   0x10, 0x3c, 0x04, 0x04, 0x1e, 0x10, 0x10, 0x70, 0x08, 0x08, 0x08, 0x07,
   0x08, 0x08, 0x08, 0x00, 0x08, 0x08, 0x00, 0x08, 0x00, 0x00, 0x00, 0x08,
   0x01, 0x80, 0x00, 0x00, 0x00, 0x00, 0x00, 0x00, 0x10, 0x04, 0x04, 0x04,
   0x10, 0x10, 0x10, 0x08, 0x08, 0x08, 0x08, 0x08, 0x08, 0x08, 0x08, 0x00,
   0x08, 0x08, 0x7f, 0x04, 0x7e, 0x00, 0x00, 0x08, 0x01, 0x80, 0x00, 0x00,
   0x00, 0x00, 0x7e, 0x02, 0x10, 0x04, 0x04, 0x04, 0x10, 0x10, 0x10, 0x08,
   0x08, 0x08, 0x08, 0x08, 0x08, 0x08, 0x08, 0x00, 0x08, 0x08, 0x41, 0x04,
   0x42, 0x00, 0x42, 0x08, 0x01, 0x80, 0x00, 0xff, 0x00, 0x00, 0x02, 0x02,
   0x10, 0x04, 0x04, 0x04, 0x10, 0x10, 0x10, 0x08, 0x08, 0x08, 0x08, 0x08,
   0x08, 0x08, 0x08, 0x00, 0x08, 0x08, 0x41, 0x04, 0x00, 0x00, 0x7e, 0x08,
   0x01, 0x80, 0x00, 0x00, 0x00, 0x00, 0x02, 0x02, 0x10, 0x04, 0x04, 0x04,
   0x10, 0x10, 0x10, 0x08, 0x08, 0x08, 0x08, 0x08, 0x08, 0x08, 0x08, 0x00,
   0x08, 0x08, 0x02, 0x02, 0x00, 0x00, 0x00, 0x09, 0x01, 0x80, 0x00, 0x00,
   0x00, 0x00, 0x02, 0x02, 0x10, 0x04, 0x04, 0x04, 0x10, 0x10, 0x10, 0x08,
   0x06, 0x08, 0x08, 0x08, 0x30, 0x08, 0x08, 0xff, 0x08, 0x08, 0x02, 0x02,
   0x00, 0x00, 0x00, 0x0a, 0x01, 0x80, 0x00, 0x00, 0x00, 0x00, 0x02, 0x02,
   0x10, 0x04, 0x04, 0x04, 0x10, 0x10, 0x10, 0x08, 0x08, 0x08, 0x08, 0x08,
   0x08, 0x08, 0x08, 0x00, 0x08, 0x08, 0x02, 0x02, 0x00, 0x00, 0x00, 0x0a,
   0x01, 0x80, 0x00, 0x00, 0x00, 0x00, 0x02, 0x02, 0x10, 0x04, 0x04, 0x04,
   0x10, 0x10, 0x10, 0x08, 0x08, 0x08, 0x08, 0x08, 0x08, 0x08, 0x08, 0x00,
   0x08, 0x08, 0x04, 0x41, 0x00, 0x00, 0x7e, 0x0c, 0x01, 0x80, 0x00, 0x00,
   0x00, 0x00, 0x02, 0x02, 0x08, 0x04, 0x04, 0x04, 0x10, 0x10, 0x10, 0x08,
   0x08, 0x08, 0x08, 0x08, 0x08, 0x08, 0x08, 0x00, 0x08, 0x08, 0x04, 0x41,
   0x00, 0x42, 0x42, 0x0c, 0x01, 0x80, 0x00, 0x00, 0xff, 0x00, 0x02, 0x02,
   0x08, 0x04, 0x04, 0x04, 0x10, 0x10, 0x10, 0x08, 0x08, 0x08, 0x08, 0x08,
   0x08, 0x08, 0x08, 0x00, 0x08, 0x08, 0x04, 0x7f, 0x00, 0x7e, 0x00, 0x08,
   0x01, 0x80, 0x00, 0x00, 0x00, 0x00, 0x02, 0x7e, 0x04, 0x04, 0x04, 0x3c,
   0x10, 0x10, 0x1e, 0x08, 0x08, 0x70, 0x08, 0x08, 0x08, 0x07, 0x08, 0x00,
   0x08, 0x08, 0x08, 0x00, 0x00, 0x00, 0x00, 0x08, 0x01, 0x80, 0x00, 0x00,
   0x00, 0x00, 0x00, 0x00, 0x00, 0x04, 0x04, 0x00, 0x10, 0x10, 0x00, 0x08,
   0x08, 0x00, 0x08, 0x08, 0x08, 0x00, 0x08, 0x00, 0x06, 0x30, 0x08, 0x00,
   0x00, 0x00, 0x00, 0x00, 0x01, 0x80, 0x00, 0x00, 0x00, 0xff, 0x00, 0x00,
   0x00, 0x00, 0x00, 0x00, 0x00, 0x00, 0x00, 0x00, 0x00, 0x00, 0x00, 0x00,
   0x00, 0x00, 0x00, 0x00, 0x00, 0x00, 0x00, 0x00, 0x00, 0x00, 0x00, 0x00,
   0x00, 0x00, 0x00, 0x00, 0x00, 0x00, 0x00, 0x00, 0x00, 0x00, 0x00, 0x00,
   0x00, 0x00, 0x00, 0x00, 0x00, 0x00, 0x00, 0x00, 0x00, 0x00, 0x00, 0x00,
   0x00, 0x00, 0x00, 0x00, 0x00, 0x00, 0x00, 0x00, 0x00, 0x00, 0x00, 0x00,
   0x00, 0x00, 0x00, 0x00, 0x00, 0x00, 0x00, 0x00, 0x00, 0x00, 0x00, 0x00,
   0x00, 0x00, 0x00, 0x00, 0x00, 0x00, 0x00, 0x00, 0x00, 0x00, 0x00, 0x00,
   0x00, 0x00, 0x00, 0x00, 0x00, 0x00, 0x00, 0x00, 0x00, 0x00, 0x00, 0x00,
   0x00, 0x00, 0x00, 0x00, 0x00, 0x00, 0x00, 0x00, 0x00, 0x00, 0x00, 0x00,
   0x00, 0x00, 0x00, 0x00, 0x00, 0x00, 0x00, 0x00, 0x00, 0x00, 0x00, 0x00,
   0x00, 0x00, 0x00, 0x00, 0x00, 0x00, 0x00, 0x00, 0x00, 0x00, 0x00, 0x00,
   0x00, 0x00, 0x00, 0x00, 0x00, 0x00, 0x00, 0x00, 0x00, 0x00, 0x00, 0x00,
   0x00, 0x00, 0x00, 0x00, 0x00, 0x00, 0x00, 0x00, 0x00, 0x00, 0x00, 0x00,
   0x00, 0x00, 0x00, 0x00, 0x08, 0x7f, 0x08, 0x08, 0x7f, 0x08, 0x08, 0x7f,
   0x08, 0x7f, 0x08, 0x7e, 0x40, 0x10, 0x70, 0x00, 0x00, 0x00, 0x00, 0x00,
   0x00, 0x00, 0x00, 0x00, 0x00, 0x00, 0x00, 0x00, 0x00, 0x00, 0x00, 0x00,
   0x08, 0x08, 0x08, 0x08, 0x08, 0x08, 0x08, 0x08, 0x08, 0x08, 0x08, 0x40,
   0x40, 0x52, 0x50, 0x00, 0x00, 0x00, 0x00, 0x00, 0x00, 0x00, 0x00, 0x00,
   0x00, 0x00, 0x00, 0x00, 0x00, 0x00, 0x00, 0x00, 0x3e, 0x3e, 0x3e, 0x1c,
   0x08, 0x1c, 0x08, 0x08, 0x08, 0x08, 0x08, 0x40, 0x40, 0x4a, 0x50, 0x00,
   0x00, 0x00, 0x00, 0x00, 0x00, 0x00, 0x00, 0x00, 0x00, 0x00, 0x00, 0x00,
   0x00, 0x00, 0x00, 0x00, 0x49, 0x49, 0x49, 0x2a, 0x1c, 0x2a, 0x08, 0x08,
   0x08, 0x08, 0x08, 0x40, 0x40, 0x42, 0x50, 0x00, 0x00, 0x00, 0x00, 0x00,
   0x00, 0x00, 0x00, 0x00, 0x00, 0x00, 0x00, 0x00, 0x00, 0x00, 0x00, 0x00,
   0x49, 0x49, 0x49, 0x2a, 0x2a, 0x2a, 0x4e, 0x4e, 0x4e, 0x08, 0x08, 0x40,
   0x40, 0x42, 0x54, 0x00, 0x00, 0x00, 0x00, 0x00, 0x00, 0x00, 0x00, 0x00,
   0x00, 0x00, 0x00, 0x00, 0x00, 0x00, 0x00, 0x00, 0x49, 0x49, 0x49, 0x49,
   0x2a, 0x49, 0x39, 0x39, 0x39, 0x08, 0x08, 0x40, 0x40, 0x42, 0x5a, 0x00,
   0x00, 0x00, 0x00, 0x00, 0x00, 0x00, 0x00, 0x00, 0x00, 0x00, 0x00, 0x00,
   0x00, 0x00, 0x00, 0x00, 0x3e, 0x3e, 0x3e, 0x7f, 0x49, 0x7f, 0x08, 0x08,
   0x08, 0x08, 0x08, 0x40, 0x40, 0x42, 0x41, 0x00, 0x00, 0x00, 0x00, 0x00,
   0x00, 0x00, 0x00, 0x00, 0x00, 0x00, 0x00, 0x00, 0x00, 0x00, 0x00, 0x00,
   0x08, 0x08, 0x08, 0x08, 0x7f, 0x08, 0x08, 0x08, 0x08, 0x08, 0x08, 0x40,
   0x40, 0x42, 0x3a, 0x00, 0x00, 0x00, 0x00, 0x00, 0x00, 0x00, 0x00, 0x00,
   0x00, 0x00, 0x00, 0x00, 0x00, 0x00, 0x00, 0x00, 0x08, 0x08, 0x7f, 0x08,
   0x08, 0x7f, 0x08, 0x08, 0x7f, 0x08, 0x7f, 0x40, 0x7e, 0x7e, 0x04, 0x00,
   0x00, 0x00, 0x00, 0x00, 0x00, 0x00, 0x00, 0x00, 0x00, 0x00, 0x00, 0x00,
   0x00, 0x00, 0x00, 0x00, 0x00, 0x00, 0x00, 0x00, 0x00, 0x00, 0x00, 0x00,
   0x00, 0x00, 0x00, 0x00, 0x00, 0x00, 0x00, 0x00, 0x00, 0x00, 0x00, 0x00,
   0x00, 0x00, 0x00, 0x00, 0x00, 0x00, 0x00, 0x00, 0x00, 0x00, 0x00, 0x00,
   0x00, 0x00, 0x00, 0x00, 0x00, 0x00, 0x00, 0x00, 0x00, 0x00, 0x00, 0x00,
   0x00, 0x00, 0x00, 0x00, 0x00, 0x00, 0x00, 0x00, 0x00, 0x00, 0x00, 0x00,
   0x00, 0x00, 0x00, 0x00, 0x00, 0x00, 0x00, 0x00, 0x00, 0x00, 0x00, 0x00,
   0x00, 0x00, 0x00, 0x00, 0x00, 0x00, 0x00, 0x00, 0x00, 0x00, 0x00, 0x00,
   0x00, 0x00, 0x00, 0x00, 0x00, 0x00, 0x00, 0x00, 0x00, 0x00, 0x00, 0x00,
   0x00, 0x00, 0x00, 0x00, 0x00, 0x00, 0x00, 0x00, 0x00, 0x00, 0x00, 0x00,
   0x00, 0x00, 0x00, 0x00, 0x00, 0x00, 0x00, 0x00, 0x00, 0x00, 0x00, 0x00,
   0x00, 0x00, 0x00, 0x00, 0x00, 0x00, 0x00, 0x00, 0x00, 0x00, 0x00, 0x00,
   0x00, 0x00, 0x00, 0x00, 0x00, 0x00, 0x00, 0x00, 0x00, 0x00, 0x00, 0x00,
   0x00, 0x00, 0x00, 0x00, 0x00, 0x00, 0x00, 0x00, 0x00, 0x00, 0x00, 0x00,
   0x00, 0x00, 0x00, 0x00, 0x00, 0x00, 0x00, 0x00, 0x00, 0x00, 0x00, 0x00,
   0x00, 0x00, 0x00, 0x00, 0x00, 0x00, 0x00, 0x00, 0x00, 0x00, 0x00, 0x00,
   0x00, 0x00, 0x00, 0x00, 0x00, 0x00, 0x00, 0x00, 0x00, 0x00, 0x00, 0x00,
   0x00, 0x00, 0x00, 0x00, 0x00, 0x00, 0x00, 0x00, 0x00, 0x00, 0x00, 0x00,
   0x00, 0x00, 0x00, 0x00, 0x00, 0x00, 0x00, 0x00, 0x00, 0x00, 0x00, 0x00,
   0x00, 0x00, 0x00, 0x00, 0x00, 0x00, 0x00, 0x00, 0x00, 0x00, 0x00, 0x00,
   0x00, 0x00, 0x00, 0x00, 0x00, 0x00, 0x00, 0x00, 0x00, 0x00, 0x00, 0x00,
   0x00, 0x00, 0x00, 0x00, 0x00, 0x00, 0x00, 0x00, 0x00, 0x00, 0x00, 0x00,
   0x00, 0x00, 0x00, 0x00, 0x00, 0x00, 0x00, 0x00, 0x00, 0x00, 0x00, 0x00,
   0x00, 0x00, 0x00, 0x00, 0x00, 0x00, 0x00, 0x00, 0x00, 0x00, 0x00, 0x00,
   0x00, 0x00, 0x00, 0x00, 0x00, 0x00, 0x00, 0x00, 0x00, 0x00, 0x00, 0x00,
   0x00, 0x00, 0x00, 0x00, 0x00, 0x00, 0x00, 0x00, 0x00, 0x00, 0x00, 0x00,
   0x00, 0x00, 0x00, 0x00, 0x00, 0x00, 0x00, 0x00, 0x00, 0x00, 0x00, 0x00,
   0x00, 0x00, 0x00, 0x00, 0x00, 0x00, 0x00, 0x00, 0x00, 0x00, 0x00, 0x00,
   0x00, 0x00, 0x00, 0x00, 0x00, 0x00, 0x00, 0x00, 0x00, 0x00, 0x00, 0x00,
   0x00, 0x00, 0x00, 0x00, 0x00, 0x00, 0x00, 0x00, 0x00, 0x00, 0x00, 0x00,
   0x00, 0x00, 0x00, 0x00, 0x00, 0x00, 0x00, 0x00, 0x00, 0x00, 0x00, 0x00,
   0x00, 0x00, 0x00, 0x00, 0x00, 0x00, 0x00, 0x00, 0x00, 0x00, 0x00, 0x00,
   0x00, 0x00, 0x00, 0x00, 0x00, 0x00, 0x00, 0x00, 0x00, 0x00, 0x00, 0x00,
   0x00, 0x00, 0x00, 0x00, 0x00, 0x00, 0x00, 0x00, 0x00, 0x00, 0x00, 0x00,
   0x00, 0x00, 0x00, 0x00, 0x00, 0x00, 0x00, 0x00, 0x00, 0x00, 0x00, 0x00,
   0x00, 0x00, 0x00, 0x00, 0x00, 0x00, 0x00, 0x00, 0x00, 0x00, 0x00, 0x00,
   0x00, 0x00, 0x00, 0x00, 0x00, 0x00, 0x00, 0x00, 0x00, 0x00, 0x00, 0x00,
   0x00, 0x00, 0x00, 0x00, 0x00, 0x00, 0x00, 0x00, 0x00, 0x00, 0x00, 0x00,
   0x00, 0x00, 0x00, 0x00, 0x00, 0x00, 0x00, 0x00, 0x00, 0x00, 0x00, 0x00,
   0x00, 0x00, 0x00, 0x00, 0x00, 0x00, 0x00, 0x00, 0x00, 0x00, 0x00, 0x00,
   0x00, 0x00, 0x00, 0x00, 0x00, 0x00, 0x00, 0x00, 0x00, 0x00, 0x00, 0x00,
   0x00, 0x00, 0x00, 0x00, 0x00, 0x00, 0x00, 0x00, 0x00, 0x00, 0x00, 0x00,
   0x00, 0x00, 0x00, 0x00, 0x00, 0x00, 0x00, 0x00, 0x00, 0x00, 0x00, 0x00,
   0x00, 0x00, 0x00, 0x00, 0x00, 0x00, 0x00, 0x00, 0x00, 0x00, 0x00, 0x00,
   0x00, 0x00, 0x00, 0x00, 0x00, 0x00, 0x00, 0x00, 0x00, 0x00, 0x00, 0x00,
   0x00, 0x00, 0x00, 0x00, 0x00, 0x00, 0x00, 0x00, 0x00, 0x00, 0x00, 0x00,
   0x00, 0x00, 0x00, 0x00, 0x00, 0x00, 0x00, 0x00, 0x00, 0x00, 0x00, 0x00,
   0x00, 0x00, 0x00, 0x00, 0x00, 0x00, 0x00, 0x00, 0x00, 0x00, 0x00, 0x00,
   0x00, 0x00, 0x00, 0x00, 0x00, 0x00, 0x00, 0x00, 0x00, 0x00, 0x00, 0x00,
   0x00, 0x00, 0x00, 0x00, 0x00, 0x00, 0x00, 0x00, 0x00, 0x00, 0x00, 0x00,
   0x00, 0x00, 0x00, 0x00, 0x00, 0x00, 0x00, 0x00, 0x00, 0x00, 0x00, 0x00,
   0x00, 0x00, 0x00, 0x00, 0x00, 0x00, 0x00, 0x00, 0x00, 0x00, 0x00, 0x00,
   0x00, 0x00, 0x00, 0x00, 0x00, 0x00, 0x00, 0x00, 0x00, 0x00, 0x00, 0x00,
   0x00, 0x00, 0x00, 0x00, 0x00, 0x00, 0x00, 0x00, 0x00, 0x00, 0x00, 0x00,
   0x00, 0x00, 0x00, 0x00, 0x00, 0x00, 0x00, 0x00, 0x00, 0x00, 0x00, 0x00,
   0x00, 0x00, 0x00, 0x00, 0x00, 0x00, 0x00, 0x00, 0x00, 0x00, 0x00, 0x00,
   0x00, 0x00, 0x00, 0x00, 0x00, 0x00, 0x00, 0x00, 0x00, 0x00, 0x00, 0x00,
   0x00, 0x00, 0x00, 0x00 };
