#define u002500_u0025FF_width 256
#define u002500_u0025FF_height 128
static unsigned char u002500_u0025FF_bits[] = {
   0x00, 0x00, 0x08, 0x18, 0x00, 0x00, 0x08, 0x18, 0x00, 0x00, 0x08, 0x18,
   0x00, 0x00, 0x00, 0x00, 0x00, 0x00, 0x00, 0x00, 0x08, 0x08, 0x18, 0x18,
   0x08, 0x08, 0x18, 0x18, 0x08, 0x08, 0x18, 0x08, 0x00, 0x00, 0x08, 0x18,
   0x00, 0x00, 0x08, 0x18, 0x00, 0x00, 0x08, 0x18, 0x00, 0x00, 0x00, 0x00,
   0x00, 0x00, 0x00, 0x00, 0x08, 0x08, 0x18, 0x18, 0x08, 0x08, 0x18, 0x18,
   0x08, 0x08, 0x18, 0x08, 0x00, 0x00, 0x08, 0x18, 0x00, 0x00, 0x08, 0x18,
   0x00, 0x00, 0x00, 0x00, 0x00, 0x00, 0x00, 0x00, 0x00, 0x00, 0x00, 0x00,
   0x08, 0x08, 0x18, 0x18, 0x08, 0x08, 0x18, 0x18, 0x08, 0x08, 0x18, 0x08,
   0x00, 0x00, 0x08, 0x18, 0x00, 0x00, 0x08, 0x18, 0x00, 0x00, 0x08, 0x18,
   0x00, 0x00, 0x00, 0x00, 0x00, 0x00, 0x00, 0x00, 0x08, 0x08, 0x18, 0x18,
   0x08, 0x08, 0x18, 0x18, 0x08, 0x08, 0x18, 0x08, 0x00, 0x00, 0x08, 0x18,
   0x00, 0x00, 0x00, 0x00, 0x00, 0x00, 0x08, 0x18, 0x00, 0x00, 0x00, 0x00,
   0x00, 0x00, 0x00, 0x00, 0x08, 0x08, 0x18, 0x18, 0x08, 0x08, 0x18, 0x18,
   0x08, 0x08, 0x18, 0x08, 0x00, 0xff, 0x08, 0x18, 0x00, 0xdb, 0x08, 0x18,
   0x00, 0xa5, 0x08, 0x18, 0x00, 0xf8, 0x00, 0xf8, 0x00, 0x0f, 0x00, 0x1f,
   0x08, 0xf8, 0x18, 0xf8, 0x08, 0x0f, 0x18, 0x1f, 0x08, 0xf8, 0x18, 0x08,
   0xff, 0xff, 0x08, 0x18, 0xdb, 0xdb, 0x08, 0x18, 0xa5, 0xa5, 0x00, 0x00,
   0xf8, 0xf8, 0xf8, 0xf8, 0x0f, 0x0f, 0x1f, 0x1f, 0xf8, 0xf8, 0xf8, 0xf8,
   0x0f, 0x0f, 0x1f, 0x1f, 0xf8, 0xf8, 0xf8, 0xf8, 0x00, 0x00, 0x08, 0x18,
   0x00, 0x00, 0x08, 0x18, 0x00, 0x00, 0x08, 0x18, 0x08, 0x08, 0x18, 0x18,
   0x08, 0x08, 0x18, 0x18, 0x00, 0x00, 0x00, 0x00, 0x00, 0x00, 0x00, 0x00,
   0x08, 0x08, 0x08, 0x18, 0x00, 0x00, 0x08, 0x18, 0x00, 0x00, 0x00, 0x00,
   0x00, 0x00, 0x08, 0x18, 0x08, 0x08, 0x18, 0x18, 0x08, 0x08, 0x18, 0x18,
   0x00, 0x00, 0x00, 0x00, 0x00, 0x00, 0x00, 0x00, 0x08, 0x08, 0x08, 0x18,
   0x00, 0x00, 0x08, 0x18, 0x00, 0x00, 0x08, 0x18, 0x00, 0x00, 0x08, 0x18,
   0x08, 0x08, 0x18, 0x18, 0x08, 0x08, 0x18, 0x18, 0x00, 0x00, 0x00, 0x00,
   0x00, 0x00, 0x00, 0x00, 0x08, 0x08, 0x08, 0x18, 0x00, 0x00, 0x08, 0x18,
   0x00, 0x00, 0x08, 0x18, 0x00, 0x00, 0x00, 0x00, 0x08, 0x08, 0x18, 0x18,
   0x08, 0x08, 0x18, 0x18, 0x00, 0x00, 0x00, 0x00, 0x00, 0x00, 0x00, 0x00,
   0x08, 0x08, 0x08, 0x18, 0x00, 0x00, 0x08, 0x18, 0x00, 0x00, 0x08, 0x18,
   0x00, 0x00, 0x08, 0x18, 0x08, 0x08, 0x18, 0x18, 0x08, 0x08, 0x18, 0x18,
   0x00, 0x00, 0x00, 0x00, 0x00, 0x00, 0x00, 0x00, 0x08, 0x08, 0x08, 0x18,
   0x00, 0x00, 0x08, 0x18, 0x00, 0x00, 0x08, 0x18, 0x00, 0x00, 0x08, 0x18,
   0x08, 0x08, 0x18, 0x18, 0x08, 0x08, 0x18, 0x18, 0x00, 0x00, 0x00, 0x00,
   0x00, 0x00, 0x00, 0x00, 0x08, 0x08, 0x08, 0x18, 0x00, 0x00, 0x00, 0x00,
   0x00, 0x00, 0x00, 0x00, 0x00, 0x00, 0x00, 0x00, 0x00, 0x00, 0x00, 0x00,
   0x00, 0x00, 0x00, 0x00, 0x00, 0x00, 0x00, 0x00, 0x00, 0x00, 0x00, 0x00,
   0x00, 0x00, 0x00, 0x00, 0x00, 0x00, 0x00, 0x00, 0x00, 0x00, 0x00, 0x00,
   0x00, 0x00, 0x00, 0x00, 0x00, 0x00, 0x00, 0x00, 0x00, 0x00, 0x00, 0x00,
   0x00, 0x00, 0x00, 0x00, 0x00, 0x00, 0x00, 0x00, 0x00, 0x00, 0x00, 0x00,
   0x00, 0x00, 0x00, 0x00, 0x00, 0x00, 0x00, 0x00, 0x00, 0x00, 0x00, 0x00,
   0x00, 0x00, 0x00, 0x00, 0x00, 0x00, 0x00, 0x00, 0x00, 0x00, 0x00, 0x00,
   0x00, 0x00, 0x00, 0x00, 0x00, 0x00, 0x00, 0x00, 0x18, 0x18, 0x08, 0x18,
   0x08, 0x08, 0x18, 0x08, 0x18, 0x18, 0x08, 0x18, 0x00, 0x00, 0x00, 0x00,
   0x00, 0x00, 0x00, 0x00, 0x08, 0x08, 0x08, 0x08, 0x18, 0x18, 0x18, 0x18,
   0x08, 0x08, 0x08, 0x08, 0x18, 0x18, 0x08, 0x18, 0x08, 0x08, 0x18, 0x08,
   0x18, 0x18, 0x08, 0x18, 0x00, 0x00, 0x00, 0x00, 0x00, 0x00, 0x00, 0x00,
   0x08, 0x08, 0x08, 0x08, 0x18, 0x18, 0x18, 0x18, 0x08, 0x08, 0x08, 0x08,
   0x18, 0x18, 0x08, 0x18, 0x08, 0x08, 0x18, 0x08, 0x18, 0x18, 0x08, 0x18,
   0x00, 0x00, 0x00, 0x00, 0x00, 0x00, 0x00, 0x00, 0x08, 0x08, 0x08, 0x08,
   0x18, 0x18, 0x18, 0x18, 0x08, 0x08, 0x08, 0x08, 0x18, 0x18, 0x08, 0x18,
   0x08, 0x08, 0x18, 0x08, 0x18, 0x18, 0x08, 0x18, 0x00, 0x00, 0x00, 0x00,
   0x00, 0x00, 0x00, 0x00, 0x08, 0x08, 0x08, 0x08, 0x18, 0x18, 0x18, 0x18,
   0x08, 0x08, 0x08, 0x08, 0x18, 0x18, 0x08, 0x18, 0x08, 0x08, 0x18, 0x08,
   0x18, 0x18, 0x08, 0x18, 0x00, 0x00, 0x00, 0x00, 0x00, 0x00, 0x00, 0x00,
   0x08, 0x08, 0x08, 0x08, 0x18, 0x18, 0x18, 0x18, 0x08, 0x08, 0x08, 0x08,
   0x18, 0xf8, 0xf8, 0xf8, 0x08, 0x0f, 0x18, 0x08, 0x18, 0x1f, 0x0f, 0x1f,
   0x00, 0x0f, 0xf0, 0xff, 0x00, 0x0f, 0xf0, 0xff, 0x08, 0x0f, 0xf8, 0xff,
   0x18, 0x1f, 0xf8, 0xff, 0x08, 0x0f, 0xf8, 0xff, 0xf8, 0xf8, 0xf8, 0xf8,
   0x0f, 0x0f, 0x0f, 0x1f, 0x1f, 0x0f, 0x1f, 0x1f, 0xff, 0xff, 0xff, 0xff,
   0xff, 0xff, 0xff, 0xff, 0xff, 0xff, 0xff, 0xff, 0xff, 0xff, 0xff, 0xff,
   0xff, 0xff, 0xff, 0xff, 0x18, 0x08, 0x18, 0x18, 0x08, 0x08, 0x08, 0x18,
   0x18, 0x08, 0x18, 0x18, 0x08, 0x08, 0x08, 0x08, 0x18, 0x18, 0x18, 0x18,
   0x00, 0x00, 0x00, 0x00, 0x00, 0x00, 0x00, 0x00, 0x08, 0x08, 0x08, 0x08,
   0x18, 0x08, 0x18, 0x18, 0x08, 0x08, 0x08, 0x18, 0x18, 0x08, 0x18, 0x18,
   0x08, 0x08, 0x08, 0x08, 0x18, 0x18, 0x18, 0x18, 0x00, 0x00, 0x00, 0x00,
   0x00, 0x00, 0x00, 0x00, 0x08, 0x08, 0x08, 0x08, 0x18, 0x08, 0x18, 0x18,
   0x08, 0x08, 0x08, 0x18, 0x18, 0x08, 0x18, 0x18, 0x08, 0x08, 0x08, 0x08,
   0x18, 0x18, 0x18, 0x18, 0x00, 0x00, 0x00, 0x00, 0x00, 0x00, 0x00, 0x00,
   0x08, 0x08, 0x08, 0x08, 0x18, 0x08, 0x18, 0x18, 0x08, 0x08, 0x08, 0x18,
   0x18, 0x08, 0x18, 0x18, 0x08, 0x08, 0x08, 0x08, 0x18, 0x18, 0x18, 0x18,
   0x00, 0x00, 0x00, 0x00, 0x00, 0x00, 0x00, 0x00, 0x08, 0x08, 0x08, 0x08,
   0x18, 0x08, 0x18, 0x18, 0x08, 0x08, 0x08, 0x18, 0x18, 0x08, 0x18, 0x18,
   0x08, 0x08, 0x08, 0x08, 0x18, 0x18, 0x18, 0x18, 0x00, 0x00, 0x00, 0x00,
   0x00, 0x00, 0x00, 0x00, 0x08, 0x08, 0x08, 0x08, 0x18, 0x08, 0x18, 0x18,
   0x08, 0x08, 0x08, 0x18, 0x18, 0x08, 0x18, 0x18, 0x08, 0x08, 0x08, 0x08,
   0x18, 0x18, 0x18, 0x18, 0x00, 0x00, 0x00, 0x00, 0x00, 0x00, 0x00, 0x00,
   0x08, 0x08, 0x08, 0x08, 0x00, 0x00, 0x00, 0x00, 0x00, 0x00, 0x00, 0x00,
   0x00, 0x00, 0x00, 0x00, 0x00, 0x00, 0x00, 0x00, 0x00, 0x00, 0x00, 0x00,
   0x00, 0x00, 0x00, 0x00, 0x00, 0x00, 0x00, 0x00, 0x00, 0x00, 0x00, 0x00,
   0x00, 0x00, 0x00, 0x00, 0x00, 0x00, 0x00, 0x00, 0x00, 0x00, 0x00, 0x00,
   0x00, 0x00, 0x00, 0x00, 0x00, 0x00, 0x00, 0x00, 0x00, 0x00, 0x00, 0x00,
   0x00, 0x00, 0x00, 0x00, 0x00, 0x00, 0x00, 0x00, 0x00, 0x00, 0x00, 0x00,
   0x00, 0x00, 0x00, 0x00, 0x00, 0x00, 0x00, 0x00, 0x00, 0x00, 0x00, 0x00,
   0x00, 0x00, 0x00, 0x00, 0x00, 0x00, 0x00, 0x00, 0x00, 0x00, 0x00, 0x00,
   0x00, 0x00, 0x00, 0x00, 0x18, 0x08, 0x18, 0x18, 0x18, 0x08, 0x08, 0x18,
   0x08, 0x18, 0x18, 0x18, 0x00, 0x00, 0x08, 0x18, 0x00, 0x14, 0x00, 0x00,
   0x00, 0x00, 0x00, 0x00, 0x08, 0x14, 0x14, 0x08, 0x14, 0x14, 0x08, 0x14,
   0x18, 0x08, 0x18, 0x18, 0x18, 0x08, 0x08, 0x18, 0x08, 0x18, 0x18, 0x18,
   0x00, 0x00, 0x08, 0x18, 0x00, 0x14, 0x00, 0x00, 0x00, 0x00, 0x00, 0x00,
   0x08, 0x14, 0x14, 0x08, 0x14, 0x14, 0x08, 0x14, 0x18, 0x08, 0x18, 0x18,
   0x18, 0x08, 0x08, 0x18, 0x08, 0x18, 0x18, 0x18, 0x00, 0x00, 0x08, 0x18,
   0x00, 0x14, 0x00, 0x00, 0x00, 0x00, 0x00, 0x00, 0x08, 0x14, 0x14, 0x08,
   0x14, 0x14, 0x08, 0x14, 0x18, 0x08, 0x18, 0x18, 0x18, 0x08, 0x08, 0x18,
   0x08, 0x18, 0x18, 0x18, 0x00, 0x00, 0x08, 0x18, 0x00, 0x14, 0x00, 0x00,
   0x00, 0x00, 0x00, 0x00, 0x08, 0x14, 0x14, 0x08, 0x14, 0x14, 0x08, 0x14,
   0x18, 0x08, 0x18, 0x18, 0x18, 0x08, 0x08, 0x18, 0x08, 0x18, 0x18, 0x18,
   0x00, 0x00, 0x08, 0x18, 0x00, 0x14, 0x00, 0x00, 0x00, 0x00, 0x00, 0x00,
   0x08, 0x14, 0x14, 0x08, 0x14, 0x14, 0x08, 0x14, 0x18, 0x08, 0x18, 0x1f,
   0xf8, 0x0f, 0xf8, 0xff, 0xff, 0x1f, 0xf8, 0xff, 0x00, 0xef, 0x08, 0x18,
   0xff, 0x14, 0xf8, 0x00, 0xfc, 0x0f, 0x00, 0x1f, 0xf8, 0x14, 0xf4, 0x0f,
   0x14, 0x17, 0xf8, 0x14, 0xff, 0xff, 0xff, 0xff, 0xff, 0xff, 0xff, 0xff,
   0xff, 0xff, 0xff, 0xff, 0xef, 0xef, 0x00, 0x00, 0x00, 0x14, 0x08, 0xfc,
   0x04, 0x08, 0x1f, 0x10, 0x08, 0xfc, 0x04, 0x08, 0x1f, 0x10, 0x08, 0xf4,
   0x08, 0x18, 0x18, 0x08, 0x08, 0x18, 0x18, 0x08, 0x18, 0x18, 0x18, 0x18,
   0x00, 0x00, 0x08, 0x18, 0xff, 0x14, 0xf8, 0x14, 0xf4, 0x0f, 0x14, 0x17,
   0xf8, 0x00, 0xfc, 0x0f, 0x00, 0x1f, 0xf8, 0x14, 0x08, 0x18, 0x18, 0x08,
   0x08, 0x18, 0x18, 0x08, 0x18, 0x18, 0x18, 0x18, 0x00, 0x00, 0x08, 0x18,
   0x00, 0x14, 0x08, 0x14, 0x14, 0x08, 0x14, 0x14, 0x00, 0x00, 0x00, 0x00,
   0x00, 0x00, 0x08, 0x14, 0x08, 0x18, 0x18, 0x08, 0x08, 0x18, 0x18, 0x08,
   0x18, 0x18, 0x18, 0x18, 0x00, 0x00, 0x08, 0x18, 0x00, 0x14, 0x08, 0x14,
   0x14, 0x08, 0x14, 0x14, 0x00, 0x00, 0x00, 0x00, 0x00, 0x00, 0x08, 0x14,
   0x08, 0x18, 0x18, 0x08, 0x08, 0x18, 0x18, 0x08, 0x18, 0x18, 0x18, 0x18,
   0x00, 0x00, 0x08, 0x18, 0x00, 0x14, 0x08, 0x14, 0x14, 0x08, 0x14, 0x14,
   0x00, 0x00, 0x00, 0x00, 0x00, 0x00, 0x08, 0x14, 0x08, 0x18, 0x18, 0x08,
   0x08, 0x18, 0x18, 0x08, 0x18, 0x18, 0x18, 0x18, 0x00, 0x00, 0x08, 0x18,
   0x00, 0x14, 0x08, 0x14, 0x14, 0x08, 0x14, 0x14, 0x00, 0x00, 0x00, 0x00,
   0x00, 0x00, 0x08, 0x14, 0x08, 0x18, 0x18, 0x08, 0x08, 0x18, 0x18, 0x08,
   0x18, 0x18, 0x18, 0x18, 0x00, 0x00, 0x08, 0x18, 0x00, 0x14, 0x08, 0x14,
   0x14, 0x08, 0x14, 0x14, 0x00, 0x00, 0x00, 0x00, 0x00, 0x00, 0x08, 0x14,
   0x00, 0x00, 0x00, 0x00, 0x00, 0x00, 0x00, 0x00, 0x00, 0x00, 0x00, 0x00,
   0x00, 0x00, 0x00, 0x00, 0x00, 0x00, 0x00, 0x00, 0x00, 0x00, 0x00, 0x00,
   0x00, 0x00, 0x00, 0x00, 0x00, 0x00, 0x00, 0x00, 0x00, 0x00, 0x00, 0x00,
   0x00, 0x00, 0x00, 0x00, 0x00, 0x00, 0x00, 0x00, 0x00, 0x00, 0x00, 0x00,
   0x00, 0x00, 0x00, 0x00, 0x00, 0x00, 0x00, 0x00, 0x00, 0x00, 0x00, 0x00,
   0x00, 0x00, 0x00, 0x00, 0x00, 0x00, 0x00, 0x00, 0x00, 0x00, 0x00, 0x00,
   0x00, 0x00, 0x00, 0x00, 0x00, 0x00, 0x00, 0x00, 0x00, 0x00, 0x00, 0x00,
   0x00, 0x00, 0x00, 0x00, 0x00, 0x00, 0x00, 0x00, 0x00, 0x00, 0x00, 0x00,
   0x14, 0x08, 0x14, 0x14, 0x00, 0x00, 0x00, 0x08, 0x14, 0x14, 0x08, 0x14,
   0x14, 0x00, 0x00, 0x08, 0x08, 0x80, 0x01, 0x81, 0x00, 0x08, 0x00, 0x00,
   0x00, 0x18, 0x00, 0x00, 0x00, 0x08, 0x00, 0x18, 0x14, 0x08, 0x14, 0x14,
   0x00, 0x00, 0x00, 0x08, 0x14, 0x14, 0x08, 0x14, 0x14, 0x00, 0x00, 0x08,
   0x08, 0x40, 0x02, 0x42, 0x00, 0x08, 0x00, 0x00, 0x00, 0x18, 0x00, 0x00,
   0x00, 0x08, 0x00, 0x18, 0x14, 0x08, 0x14, 0x14, 0x00, 0x00, 0x00, 0x08,
   0x14, 0x14, 0x08, 0x14, 0x14, 0x00, 0x00, 0x08, 0x08, 0x40, 0x02, 0x42,
   0x00, 0x08, 0x00, 0x00, 0x00, 0x18, 0x00, 0x00, 0x00, 0x08, 0x00, 0x18,
   0x14, 0x08, 0x14, 0x14, 0x00, 0x00, 0x00, 0x08, 0x14, 0x14, 0x08, 0x14,
   0x14, 0x00, 0x00, 0x08, 0x08, 0x20, 0x04, 0x24, 0x00, 0x08, 0x00, 0x00,
   0x00, 0x18, 0x00, 0x00, 0x00, 0x08, 0x00, 0x18, 0x14, 0x08, 0x14, 0x14,
   0x00, 0x00, 0x00, 0x08, 0x14, 0x14, 0x08, 0x14, 0x14, 0x00, 0x00, 0x08,
   0x08, 0x20, 0x04, 0x24, 0x00, 0x08, 0x00, 0x00, 0x00, 0x18, 0x00, 0x00,
   0x00, 0x08, 0x00, 0x18, 0xf4, 0x0f, 0x14, 0x17, 0xff, 0x00, 0xff, 0xff,
   0x14, 0xf7, 0xff, 0x14, 0xf7, 0x00, 0x00, 0x04, 0x10, 0x10, 0x08, 0x18,
   0x00, 0x08, 0x00, 0x00, 0x0f, 0x18, 0xf0, 0x00, 0xf0, 0x08, 0x0f, 0x18,
   0x04, 0x08, 0x17, 0x10, 0x00, 0xff, 0x00, 0x00, 0xff, 0x00, 0x08, 0xff,
   0x00, 0xe0, 0x03, 0x03, 0xe0, 0x08, 0x10, 0x18, 0x0f, 0x00, 0xf0, 0x08,
   0x0f, 0x00, 0xf0, 0x18, 0xff, 0x18, 0xff, 0x08, 0xf4, 0x0f, 0x14, 0x17,
   0xff, 0x14, 0xf7, 0xff, 0x00, 0xff, 0xff, 0x14, 0xf7, 0x10, 0x04, 0x00,
   0x00, 0x08, 0x10, 0x18, 0x00, 0x00, 0x00, 0x08, 0x00, 0x00, 0x00, 0x18,
   0x00, 0x18, 0x00, 0x08, 0x14, 0x08, 0x14, 0x14, 0x08, 0x14, 0x14, 0x00,
   0x00, 0x00, 0x08, 0x14, 0x14, 0x08, 0x08, 0x00, 0x00, 0x04, 0x20, 0x24,
   0x00, 0x00, 0x00, 0x08, 0x00, 0x00, 0x00, 0x18, 0x00, 0x18, 0x00, 0x08,
   0x14, 0x08, 0x14, 0x14, 0x08, 0x14, 0x14, 0x00, 0x00, 0x00, 0x08, 0x14,
   0x14, 0x08, 0x08, 0x00, 0x00, 0x04, 0x20, 0x24, 0x00, 0x00, 0x00, 0x08,
   0x00, 0x00, 0x00, 0x18, 0x00, 0x18, 0x00, 0x08, 0x14, 0x08, 0x14, 0x14,
   0x08, 0x14, 0x14, 0x00, 0x00, 0x00, 0x08, 0x14, 0x14, 0x08, 0x08, 0x00,
   0x00, 0x02, 0x40, 0x42, 0x00, 0x00, 0x00, 0x08, 0x00, 0x00, 0x00, 0x18,
   0x00, 0x18, 0x00, 0x08, 0x14, 0x08, 0x14, 0x14, 0x08, 0x14, 0x14, 0x00,
   0x00, 0x00, 0x08, 0x14, 0x14, 0x08, 0x08, 0x00, 0x00, 0x02, 0x40, 0x42,
   0x00, 0x00, 0x00, 0x08, 0x00, 0x00, 0x00, 0x18, 0x00, 0x18, 0x00, 0x08,
   0x14, 0x08, 0x14, 0x14, 0x08, 0x14, 0x14, 0x00, 0x00, 0x00, 0x08, 0x14,
   0x14, 0x08, 0x08, 0x00, 0x00, 0x01, 0x80, 0x81, 0x00, 0x00, 0x00, 0x08,
   0x00, 0x00, 0x00, 0x18, 0x00, 0x18, 0x00, 0x08, 0x00, 0x00, 0x00, 0x00,
   0x00, 0x00, 0x00, 0x00, 0x00, 0x00, 0x00, 0x00, 0x00, 0x00, 0x00, 0x00,
   0x00, 0x00, 0x00, 0x00, 0x00, 0x00, 0x00, 0x00, 0x00, 0x00, 0x00, 0x00,
   0x00, 0x00, 0x00, 0x00, 0x00, 0x00, 0x00, 0x00, 0x00, 0x00, 0x00, 0x00,
   0x00, 0x00, 0x00, 0x00, 0x00, 0x00, 0x00, 0x00, 0x00, 0x00, 0x00, 0x00,
   0x00, 0x00, 0x00, 0x00, 0x00, 0x00, 0x00, 0x00, 0x00, 0x00, 0x00, 0x00,
   0x00, 0x00, 0x00, 0x00, 0x00, 0x00, 0x00, 0x00, 0x00, 0x00, 0x00, 0x00,
   0x00, 0x00, 0x00, 0x00, 0x00, 0x00, 0x00, 0x00, 0x00, 0x00, 0x00, 0x00,
   0x00, 0x00, 0x00, 0x00, 0x00, 0x00, 0x00, 0x00, 0xff, 0x00, 0x00, 0x00,
   0x00, 0x00, 0x00, 0x00, 0xff, 0x7f, 0x3f, 0x1f, 0x0f, 0x07, 0x03, 0x01,
   0xf0, 0x00, 0x55, 0xff, 0xff, 0x80, 0x00, 0x00, 0x0f, 0x0f, 0x0f, 0xff,
   0xff, 0xf0, 0xf0, 0xf0, 0xff, 0x00, 0x00, 0x00, 0x00, 0x00, 0x00, 0x00,
   0xff, 0x7f, 0x3f, 0x1f, 0x0f, 0x07, 0x03, 0x01, 0xf0, 0xaa, 0xaa, 0xaa,
   0xff, 0x80, 0x00, 0x00, 0x0f, 0x0f, 0x0f, 0xff, 0xff, 0xf0, 0xf0, 0xf0,
   0xff, 0x00, 0x00, 0x00, 0x00, 0x00, 0x00, 0xff, 0xff, 0x7f, 0x3f, 0x1f,
   0x0f, 0x07, 0x03, 0x01, 0xf0, 0x00, 0x55, 0xff, 0x00, 0x80, 0x00, 0x00,
   0x0f, 0x0f, 0x0f, 0xff, 0xff, 0xf0, 0xf0, 0xf0, 0xff, 0x00, 0x00, 0x00,
   0x00, 0x00, 0xff, 0xff, 0xff, 0x7f, 0x3f, 0x1f, 0x0f, 0x07, 0x03, 0x01,
   0xf0, 0x55, 0xaa, 0x55, 0x00, 0x80, 0x00, 0x00, 0x0f, 0x0f, 0x0f, 0xff,
   0xff, 0xf0, 0xf0, 0xf0, 0xff, 0x00, 0x00, 0x00, 0x00, 0x00, 0xff, 0xff,
   0xff, 0x7f, 0x3f, 0x1f, 0x0f, 0x07, 0x03, 0x01, 0xf0, 0x00, 0x55, 0xff,
   0x00, 0x80, 0x00, 0x00, 0x0f, 0x0f, 0x0f, 0xff, 0xff, 0xf0, 0xf0, 0xf0,
   0xff, 0x00, 0x00, 0x00, 0x00, 0xff, 0xff, 0xff, 0xff, 0x7f, 0x3f, 0x1f,
   0x0f, 0x07, 0x03, 0x01, 0xf0, 0xaa, 0xaa, 0xaa, 0x00, 0x80, 0x00, 0x00,
   0x0f, 0x0f, 0x0f, 0xff, 0xff, 0xf0, 0xf0, 0xf0, 0x00, 0x00, 0x00, 0x00,
   0xff, 0xff, 0xff, 0xff, 0xff, 0x7f, 0x3f, 0x1f, 0x0f, 0x07, 0x03, 0x01,
   0xf0, 0x00, 0x55, 0xff, 0x00, 0x80, 0x0f, 0xf0, 0x00, 0xff, 0xf0, 0x0f,
   0xf0, 0x00, 0x0f, 0xff, 0x00, 0x00, 0x00, 0x00, 0xff, 0xff, 0xff, 0xff,
   0xff, 0x7f, 0x3f, 0x1f, 0x0f, 0x07, 0x03, 0x01, 0xf0, 0x55, 0xaa, 0x55,
   0x00, 0x80, 0x0f, 0xf0, 0x00, 0xff, 0xf0, 0x0f, 0xf0, 0x00, 0x0f, 0xff,
   0x00, 0x00, 0x00, 0xff, 0xff, 0xff, 0xff, 0xff, 0xff, 0x7f, 0x3f, 0x1f,
   0x0f, 0x07, 0x03, 0x01, 0xf0, 0x00, 0x55, 0xff, 0x00, 0x80, 0x0f, 0xf0,
   0x00, 0xff, 0xf0, 0x0f, 0xf0, 0x00, 0x0f, 0xff, 0x00, 0x00, 0x00, 0xff,
   0xff, 0xff, 0xff, 0xff, 0xff, 0x7f, 0x3f, 0x1f, 0x0f, 0x07, 0x03, 0x01,
   0xf0, 0xaa, 0xaa, 0xaa, 0x00, 0x80, 0x0f, 0xf0, 0x00, 0xff, 0xf0, 0x0f,
   0xf0, 0x00, 0x0f, 0xff, 0x00, 0x00, 0xff, 0xff, 0xff, 0xff, 0xff, 0xff,
   0xff, 0x7f, 0x3f, 0x1f, 0x0f, 0x07, 0x03, 0x01, 0xf0, 0x00, 0x55, 0xff,
   0x00, 0x80, 0x0f, 0xf0, 0x00, 0xff, 0xf0, 0x0f, 0xf0, 0x00, 0x0f, 0xff,
   0x00, 0xff, 0xff, 0xff, 0xff, 0xff, 0xff, 0xff, 0xff, 0x7f, 0x3f, 0x1f,
   0x0f, 0x07, 0x03, 0x01, 0xf0, 0x55, 0xaa, 0x55, 0x00, 0x80, 0x0f, 0xf0,
   0x00, 0xff, 0xf0, 0x0f, 0xf0, 0x00, 0x0f, 0xff, 0x00, 0xff, 0xff, 0xff,
   0xff, 0xff, 0xff, 0xff, 0xff, 0x7f, 0x3f, 0x1f, 0x0f, 0x07, 0x03, 0x01,
   0xf0, 0x00, 0x55, 0xff, 0x00, 0x80, 0x0f, 0xf0, 0x00, 0xff, 0xf0, 0x0f,
   0xf0, 0x00, 0x0f, 0xff, 0x00, 0x00, 0x00, 0x00, 0x00, 0x00, 0x00, 0x00,
   0x00, 0x00, 0x00, 0x00, 0x00, 0x00, 0x00, 0x00, 0x00, 0x00, 0x00, 0x00,
   0x00, 0x00, 0x00, 0x00, 0x00, 0x00, 0x00, 0x00, 0x00, 0x00, 0x00, 0x00,
   0x00, 0x00, 0x00, 0x00, 0x00, 0x00, 0x00, 0x00, 0x00, 0x00, 0x00, 0x00,
   0x00, 0x00, 0x00, 0x00, 0x00, 0x00, 0x00, 0x00, 0x00, 0x00, 0x00, 0x00,
   0x00, 0x00, 0x00, 0x00, 0x00, 0x00, 0x00, 0x00, 0x00, 0x00, 0x00, 0x00,
   0x00, 0x00, 0x00, 0x00, 0x00, 0x00, 0x00, 0x00, 0x00, 0x00, 0x00, 0x00,
   0x00, 0x00, 0x00, 0x00, 0x00, 0x00, 0x00, 0x00, 0x00, 0x00, 0x00, 0x00,
   0x00, 0x00, 0x00, 0x00, 0x00, 0x00, 0x00, 0x00, 0x00, 0x00, 0x00, 0x00,
   0x00, 0x00, 0x00, 0x00, 0x00, 0x00, 0x00, 0x00, 0x00, 0x00, 0x00, 0x00,
   0x00, 0x00, 0x02, 0x02, 0x00, 0x00, 0x00, 0x00, 0x00, 0x00, 0x00, 0x00,
   0x00, 0x00, 0x00, 0x00, 0x00, 0x00, 0x00, 0x00, 0x00, 0x00, 0x00, 0x00,
   0x00, 0x00, 0x00, 0x00, 0x00, 0x00, 0x00, 0x00, 0x00, 0x00, 0x06, 0x06,
   0x00, 0x00, 0x00, 0x00, 0x00, 0x00, 0x00, 0x00, 0x00, 0x00, 0x00, 0x00,
   0x00, 0x00, 0x00, 0x00, 0x00, 0x00, 0x00, 0x00, 0x00, 0x00, 0x3e, 0x3e,
   0x00, 0x00, 0x00, 0x00, 0x00, 0x00, 0x0e, 0x0a, 0x00, 0x00, 0x00, 0x00,
   0x00, 0x00, 0x00, 0x00, 0x00, 0x00, 0x00, 0x00, 0x00, 0x00, 0x00, 0x00,
   0x00, 0x00, 0x00, 0x00, 0x00, 0x00, 0x3e, 0x22, 0x00, 0x00, 0x18, 0x18,
   0x00, 0x00, 0x1e, 0x12, 0x00, 0x00, 0x01, 0x01, 0xff, 0xff, 0x00, 0x00,
   0x7f, 0x7f, 0x3e, 0x7f, 0x7f, 0x7f, 0x7f, 0x7f, 0x7f, 0x7f, 0x00, 0x00,
   0x7e, 0x7e, 0x3e, 0x22, 0xf8, 0xf8, 0x18, 0x18, 0x00, 0x00, 0x3e, 0x22,
   0x06, 0x06, 0x07, 0x07, 0xff, 0x81, 0x00, 0x00, 0x7f, 0x41, 0x41, 0x41,
   0x41, 0x55, 0x55, 0x49, 0x49, 0x6b, 0x1c, 0x1c, 0x7e, 0x42, 0x3e, 0x22,
   0x7c, 0x44, 0x3c, 0x24, 0x18, 0x18, 0x7e, 0x42, 0x1e, 0x1a, 0x1f, 0x19,
   0x7e, 0x42, 0x7e, 0x7e, 0x7f, 0x41, 0x41, 0x5d, 0x7f, 0x55, 0x7f, 0x51,
   0x45, 0x55, 0x1c, 0x14, 0x7e, 0x42, 0x3e, 0x22, 0x3e, 0x22, 0x3c, 0x24,
   0x18, 0x18, 0x3e, 0x22, 0x7e, 0x62, 0x7f, 0x61, 0x7e, 0x42, 0x7e, 0x42,
   0x7f, 0x41, 0x41, 0x5d, 0x41, 0x55, 0x55, 0x63, 0x63, 0x6b, 0x1c, 0x1c,
   0x7e, 0x7e, 0x3e, 0x22, 0x1f, 0x1f, 0x7e, 0x42, 0x3c, 0x24, 0x1e, 0x12,
   0x1e, 0x1a, 0x1f, 0x19, 0x3c, 0x24, 0x3c, 0x24, 0x7f, 0x41, 0x41, 0x5d,
   0x7f, 0x55, 0x7f, 0x45, 0x51, 0x55, 0x00, 0x00, 0x00, 0x00, 0x3e, 0x22,
   0x00, 0x00, 0x7e, 0x42, 0x3c, 0x24, 0x0e, 0x0a, 0x06, 0x06, 0x07, 0x07,
   0x3c, 0x24, 0x3c, 0x24, 0x7f, 0x41, 0x41, 0x41, 0x41, 0x55, 0x55, 0x49,
   0x49, 0x6b, 0x00, 0x00, 0x00, 0x00, 0x3e, 0x22, 0x00, 0x00, 0xff, 0x81,
   0x7e, 0x42, 0x06, 0x06, 0x00, 0x00, 0x01, 0x01, 0x18, 0x18, 0x18, 0x18,
   0x7f, 0x7f, 0x3e, 0x7f, 0x7f, 0x7f, 0x7f, 0x7f, 0x7f, 0x7f, 0x00, 0x00,
   0x00, 0x00, 0x3e, 0x3e, 0x00, 0x00, 0xff, 0xff, 0x7e, 0x7e, 0x02, 0x02,
   0x00, 0x00, 0x00, 0x00, 0x18, 0x18, 0x18, 0x18, 0x00, 0x00, 0x00, 0x00,
   0x00, 0x00, 0x00, 0x00, 0x00, 0x00, 0x00, 0x00, 0x00, 0x00, 0x00, 0x00,
   0x00, 0x00, 0x00, 0x00, 0x00, 0x00, 0x00, 0x00, 0x00, 0x00, 0x00, 0x00,
   0x00, 0x00, 0x00, 0x00, 0x00, 0x00, 0x00, 0x00, 0x00, 0x00, 0x00, 0x00,
   0x00, 0x00, 0x00, 0x00, 0x00, 0x00, 0x00, 0x00, 0x00, 0x00, 0x00, 0x00,
   0x00, 0x00, 0x00, 0x00, 0x00, 0x00, 0x00, 0x00, 0x00, 0x00, 0x00, 0x00,
   0x00, 0x00, 0x00, 0x00, 0x00, 0x00, 0x00, 0x00, 0x00, 0x00, 0x00, 0x00,
   0x00, 0x00, 0x00, 0x00, 0x00, 0x00, 0x00, 0x00, 0x00, 0x00, 0x00, 0x00,
   0x00, 0x00, 0x00, 0x00, 0x00, 0x00, 0x00, 0x00, 0x00, 0x00, 0x00, 0x00,
   0x00, 0x00, 0x00, 0x00, 0x00, 0x00, 0x00, 0x00, 0x00, 0x00, 0x00, 0x00,
   0x00, 0x00, 0x00, 0x00, 0x00, 0x00, 0x00, 0x00, 0x00, 0x00, 0x00, 0x00,
   0x00, 0x00, 0x00, 0x00, 0x00, 0x00, 0x00, 0x00, 0x00, 0x00, 0x00, 0x00,
   0x00, 0x00, 0x00, 0x00, 0x00, 0x00, 0x00, 0x00, 0x00, 0x00, 0x00, 0x00,
   0x00, 0x00, 0x00, 0x00, 0x00, 0x00, 0x00, 0x00, 0x00, 0x00, 0x00, 0x00,
   0x40, 0x40, 0x00, 0x00, 0x00, 0x00, 0x00, 0x00, 0x00, 0x00, 0x00, 0x00,
   0x00, 0x00, 0x00, 0x00, 0x00, 0x00, 0x00, 0x00, 0x00, 0x00, 0x00, 0x00,
   0xff, 0xff, 0xff, 0x00, 0x00, 0x00, 0x00, 0x00, 0x60, 0x60, 0x00, 0x00,
   0x00, 0x00, 0x00, 0x00, 0x00, 0x00, 0x00, 0x00, 0x00, 0x00, 0x00, 0x00,
   0x00, 0x00, 0x00, 0x00, 0x00, 0x00, 0x00, 0x00, 0xff, 0xff, 0xff, 0x00,
   0x00, 0x00, 0x00, 0x00, 0x70, 0x50, 0x00, 0x00, 0x00, 0x00, 0x00, 0x00,
   0x00, 0x00, 0x18, 0x00, 0x00, 0x00, 0x00, 0x00, 0x00, 0x00, 0x00, 0x00,
   0x00, 0x00, 0x00, 0x00, 0xff, 0xff, 0xff, 0x00, 0x00, 0x00, 0x00, 0x00,
   0x78, 0x48, 0x00, 0x00, 0x40, 0x40, 0x08, 0x08, 0x08, 0x1c, 0x18, 0x3c,
   0x18, 0x3c, 0x3c, 0x3c, 0x3c, 0x3c, 0x3c, 0x3c, 0x3c, 0x3c, 0x0c, 0x30,
   0xff, 0xff, 0xff, 0x00, 0x0c, 0x30, 0x00, 0x00, 0x7c, 0x44, 0x60, 0x60,
   0x70, 0x70, 0x1c, 0x14, 0x14, 0x22, 0x24, 0x42, 0x42, 0x56, 0x42, 0x7e,
   0x4e, 0x72, 0x42, 0x7e, 0x72, 0x72, 0x0e, 0x70, 0xc3, 0xc3, 0xc3, 0x00,
   0x02, 0x40, 0x00, 0x00, 0x7e, 0x42, 0x78, 0x58, 0x7c, 0x4c, 0x3e, 0x22,
   0x2a, 0x49, 0x24, 0x81, 0x00, 0xd5, 0x99, 0xff, 0x8f, 0xf1, 0x81, 0xff,
   0xf1, 0xf1, 0x0f, 0xf0, 0x81, 0x99, 0x99, 0x00, 0x01, 0x80, 0x00, 0x00,
   0x7c, 0x44, 0x7e, 0x46, 0x7f, 0x43, 0x7f, 0x41, 0x5d, 0x5d, 0x42, 0x81,
   0x81, 0xd5, 0xa5, 0xff, 0x8f, 0xf1, 0x81, 0xff, 0xf1, 0xf1, 0x0f, 0xf0,
   0x81, 0xbd, 0xbd, 0x00, 0x01, 0x80, 0x00, 0x00, 0x78, 0x48, 0x78, 0x58,
   0x7c, 0x4c, 0x3e, 0x22, 0x2a, 0x49, 0x24, 0x81, 0x81, 0xd5, 0xa5, 0xff,
   0x8f, 0xf1, 0xff, 0x81, 0x81, 0xff, 0x0f, 0xf0, 0x81, 0xbd, 0x00, 0xbd,
   0x00, 0x00, 0x80, 0x01, 0x70, 0x50, 0x60, 0x60, 0x70, 0x70, 0x1c, 0x14,
   0x14, 0x22, 0x24, 0x81, 0x00, 0xd5, 0x99, 0xff, 0x8f, 0xf1, 0xff, 0x81,
   0x81, 0xff, 0x0f, 0xf0, 0x81, 0x99, 0x00, 0x99, 0x00, 0x00, 0x80, 0x01,
   0x60, 0x60, 0x00, 0x00, 0x40, 0x40, 0x08, 0x08, 0x08, 0x1c, 0x18, 0x42,
   0x42, 0x56, 0x42, 0x7e, 0x4e, 0x72, 0x7e, 0x42, 0x42, 0x7e, 0x0e, 0x70,
   0xc3, 0xc3, 0x00, 0xc3, 0x00, 0x00, 0x40, 0x02, 0x40, 0x40, 0x00, 0x00,
   0x00, 0x00, 0x00, 0x00, 0x00, 0x00, 0x18, 0x3c, 0x18, 0x3c, 0x3c, 0x3c,
   0x3c, 0x3c, 0x3c, 0x3c, 0x3c, 0x3c, 0x0c, 0x30, 0xff, 0xff, 0x00, 0xff,
   0x00, 0x00, 0x30, 0x0c, 0x00, 0x00, 0x00, 0x00, 0x00, 0x00, 0x00, 0x00,
   0x00, 0x00, 0x00, 0x00, 0x00, 0x00, 0x00, 0x00, 0x00, 0x00, 0x00, 0x00,
   0x00, 0x00, 0x00, 0x00, 0xff, 0xff, 0x00, 0xff, 0x00, 0x00, 0x00, 0x00,
   0x00, 0x00, 0x00, 0x00, 0x00, 0x00, 0x00, 0x00, 0x00, 0x00, 0x00, 0x00,
   0x00, 0x00, 0x00, 0x00, 0x00, 0x00, 0x00, 0x00, 0x00, 0x00, 0x00, 0x00,
   0xff, 0xff, 0x00, 0xff, 0x00, 0x00, 0x00, 0x00, 0x00, 0x00, 0x00, 0x00,
   0x00, 0x00, 0x00, 0x00, 0x00, 0x00, 0x00, 0x00, 0x00, 0x00, 0x00, 0x00,
   0x00, 0x00, 0x00, 0x00, 0x00, 0x00, 0x00, 0x00, 0x00, 0x00, 0x00, 0x00,
   0x00, 0x00, 0x00, 0x00, 0x00, 0x00, 0x00, 0x00, 0x00, 0x00, 0x00, 0x00,
   0x00, 0x00, 0x00, 0x00, 0x00, 0x00, 0x00, 0x00, 0x00, 0x00, 0x00, 0x00,
   0x00, 0x00, 0x00, 0x00, 0x00, 0x00, 0x00, 0x00, 0x00, 0x00, 0x00, 0x00,
   0x00, 0x00, 0x00, 0x00, 0x00, 0x00, 0x00, 0x00, 0x00, 0x00, 0x00, 0x00,
   0x00, 0x00, 0x00, 0x00, 0x00, 0x00, 0x00, 0x00, 0x00, 0x00, 0x00, 0x00,
   0x00, 0x00, 0x00, 0x00, 0x00, 0x00, 0x00, 0x00, 0x00, 0x00, 0x00, 0x00,
   0x00, 0x00, 0x00, 0x00, 0x00, 0x00, 0x00, 0x00, 0x00, 0x00, 0x00, 0x00,
   0x00, 0x00, 0x00, 0x00, 0x00, 0x00, 0x00, 0x00, 0x00, 0x00, 0x00, 0x00,
   0x00, 0x00, 0x00, 0x00, 0x00, 0x00, 0x00, 0x00, 0x00, 0x00, 0x00, 0x00,
   0x00, 0x00, 0x00, 0x00, 0x08, 0x08, 0x08, 0x00, 0x00, 0x00, 0x00, 0x00,
   0x00, 0x00, 0x00, 0x00, 0x00, 0x00, 0x00, 0x00, 0x00, 0x00, 0x00, 0x00,
   0x00, 0x00, 0x00, 0x00, 0x00, 0x00, 0x00, 0x00, 0x00, 0x00, 0x00, 0x00,
   0x08, 0x08, 0x08, 0x00, 0x00, 0x00, 0x00, 0x00, 0x00, 0x00, 0x00, 0x00,
   0x00, 0x00, 0x00, 0x00, 0x00, 0x00, 0x00, 0x00, 0x3c, 0x00, 0x80, 0x01,
   0xff, 0xff, 0x00, 0x7f, 0x7f, 0x7f, 0x7f, 0x7f, 0x14, 0x1c, 0x1c, 0x3c,
   0x00, 0x00, 0x00, 0x00, 0x00, 0x00, 0x00, 0x00, 0x00, 0x00, 0x00, 0x00,
   0x00, 0x00, 0x00, 0x00, 0x42, 0x00, 0xc0, 0x03, 0x7f, 0xfe, 0x1c, 0x47,
   0x71, 0x7f, 0x41, 0x49, 0x14, 0x1c, 0x1c, 0x42, 0x7f, 0x7f, 0x7f, 0x7f,
   0x3e, 0x3e, 0x3e, 0x3e, 0x7e, 0x7e, 0x02, 0x7e, 0x7e, 0x3c, 0x3c, 0x40,
   0x81, 0x00, 0xe0, 0x07, 0x3f, 0xfc, 0x22, 0x47, 0x71, 0x5f, 0x61, 0x49,
   0x22, 0x2e, 0x3a, 0x81, 0x49, 0x41, 0x41, 0x49, 0x49, 0x41, 0x41, 0x49,
   0x22, 0x44, 0x06, 0x42, 0x7e, 0x24, 0x3c, 0x60, 0x81, 0x00, 0xf0, 0x0f,
   0x1f, 0xf8, 0x22, 0x47, 0x71, 0x4f, 0x71, 0x49, 0x2a, 0x2e, 0x3a, 0x81,
   0x49, 0x41, 0x41, 0x49, 0x49, 0x41, 0x41, 0x49, 0x12, 0x48, 0x0a, 0x42,
   0x7e, 0x24, 0x3c, 0x50, 0x00, 0x81, 0xf8, 0x1f, 0x0f, 0xf0, 0x22, 0x47,
   0x71, 0x47, 0x79, 0x49, 0x3e, 0x2e, 0x3a, 0x81, 0x4f, 0x4f, 0x79, 0x79,
   0x4f, 0x4f, 0x79, 0x79, 0x0a, 0x50, 0x12, 0x42, 0x7e, 0x3c, 0x3c, 0x48,
   0x00, 0x81, 0xfc, 0x3f, 0x07, 0xe0, 0x1c, 0x47, 0x71, 0x43, 0x7d, 0x49,
   0x49, 0x4f, 0x79, 0x81, 0x41, 0x49, 0x49, 0x41, 0x41, 0x49, 0x49, 0x41,
   0x06, 0x60, 0x22, 0x42, 0x7e, 0x00, 0x00, 0x44, 0x00, 0x42, 0xfe, 0x7f,
   0x03, 0xc0, 0x00, 0x47, 0x71, 0x41, 0x7f, 0x49, 0x41, 0x4f, 0x79, 0x42,
   0x41, 0x49, 0x49, 0x41, 0x41, 0x49, 0x49, 0x41, 0x02, 0x40, 0x7e, 0x7e,
   0x7e, 0x00, 0x00, 0x7e, 0x00, 0x3c, 0xff, 0xff, 0x01, 0x80, 0x00, 0x7f,
   0x7f, 0x7f, 0x7f, 0x7f, 0x7f, 0x7f, 0x7f, 0x3c, 0x7f, 0x7f, 0x7f, 0x7f,
   0x3e, 0x3e, 0x3e, 0x3e, 0x00, 0x00, 0x00, 0x00, 0x00, 0x00, 0x00, 0x00,
   0x00, 0x00, 0x00, 0x00, 0x00, 0x00, 0x00, 0x00, 0x00, 0x00, 0x00, 0x00,
   0x00, 0x00, 0x00, 0x00, 0x00, 0x00, 0x00, 0x00, 0x00, 0x00, 0x00, 0x00,
   0x00, 0x00, 0x00, 0x00, 0x00, 0x00, 0x00, 0x00, 0x00, 0x00, 0x00, 0x00,
   0x00, 0x00, 0x00, 0x00, 0x00, 0x00, 0x00, 0x00, 0x00, 0x00, 0x00, 0x00,
   0x00, 0x00, 0x00, 0x00, 0x00, 0x00, 0x00, 0x00, 0x00, 0x00, 0x00, 0x00,
   0x00, 0x00, 0x00, 0x00, 0x00, 0x00, 0x00, 0x00, 0x00, 0x00, 0x00, 0x00,
   0x00, 0x00, 0x00, 0x00, 0x00, 0x00, 0x00, 0x00, 0x00, 0x00, 0x00, 0x00,
   0x00, 0x00, 0x00, 0x00, 0x00, 0x00, 0x00, 0x00, 0x00, 0x00, 0x00, 0x00,
   0x00, 0x00, 0x00, 0x00, 0x00, 0x00, 0x00, 0x00, 0x00, 0x00, 0x00, 0x00,
   0x00, 0x00, 0x00, 0x00, 0x00, 0x00, 0x00, 0x00, 0x00, 0x00, 0x00, 0x00,
   0x00, 0x00, 0x00, 0x00, 0x00, 0x00, 0x00, 0x00, 0x00, 0x00, 0x00, 0x00,
   0x00, 0x00, 0x00, 0x00, 0x00, 0x00, 0x00, 0x00, 0x00, 0x00, 0x00, 0x00,
   0x00, 0x00, 0x00, 0x00, 0x00, 0x00, 0x00, 0x00, 0x00, 0x00, 0x00, 0x00,
   0x00, 0x00, 0x00, 0x00 };
