#define u002100_u0021FF_width 256
#define u002100_u0021FF_height 128
static unsigned char u002100_u0021FF_bits[] = {
   0x00, 0x00, 0x00, 0x00, 0x00, 0x00, 0x00, 0x00, 0x00, 0x04, 0x00, 0x00,
   0x00, 0x00, 0x00, 0x00, 0x00, 0x00, 0x00, 0x00, 0x00, 0x00, 0x00, 0x00,
   0x00, 0x00, 0x00, 0x00, 0x00, 0x00, 0x00, 0x0c, 0x00, 0x00, 0x00, 0x02,
   0x00, 0x00, 0x00, 0x00, 0x00, 0x0a, 0x00, 0x00, 0x00, 0x00, 0x00, 0x00,
   0x00, 0x00, 0x00, 0x00, 0x00, 0x00, 0x00, 0x00, 0x00, 0x00, 0x00, 0x00,
   0x00, 0x00, 0x00, 0x08, 0x26, 0x26, 0x3c, 0x35, 0x08, 0x26, 0x26, 0x7c,
   0x1c, 0x04, 0x00, 0x46, 0x16, 0x45, 0x08, 0x08, 0x38, 0x7e, 0x18, 0x08,
   0x09, 0x47, 0x09, 0x3e, 0x00, 0x3e, 0x3e, 0x3e, 0x3e, 0x3e, 0x3e, 0x3e,
   0x25, 0x25, 0x4a, 0x4a, 0x08, 0x21, 0x21, 0x42, 0x22, 0x78, 0x00, 0x44,
   0x09, 0x45, 0x08, 0x38, 0x20, 0x42, 0x2a, 0x14, 0x3f, 0x4d, 0x29, 0x41,
   0x00, 0x4a, 0x45, 0x44, 0x4a, 0x4a, 0x42, 0x4a, 0x25, 0x25, 0x0a, 0x08,
   0x1c, 0x11, 0x11, 0x02, 0x40, 0x08, 0x00, 0x44, 0x01, 0x45, 0x08, 0x0e,
   0x20, 0x44, 0x1c, 0x14, 0x09, 0x4d, 0x59, 0x4d, 0x02, 0x4a, 0x45, 0x44,
   0x4c, 0x4a, 0x42, 0x4a, 0x16, 0x16, 0x0a, 0x08, 0x0a, 0x16, 0x16, 0x02,
   0x48, 0x08, 0x38, 0x44, 0x0d, 0x45, 0x04, 0x04, 0x10, 0x40, 0x08, 0x14,
   0x29, 0x55, 0x2b, 0x55, 0x39, 0x4a, 0x45, 0x44, 0x48, 0x4a, 0x42, 0x4a,
   0x08, 0x68, 0x0a, 0x08, 0x0a, 0x08, 0x08, 0x1c, 0x78, 0x38, 0x44, 0x7c,
   0x13, 0x7d, 0x3c, 0x3c, 0x10, 0x20, 0x08, 0x14, 0x59, 0x55, 0x0b, 0x4d,
   0x45, 0x4a, 0x45, 0x3c, 0x38, 0x3a, 0x3e, 0x3e, 0x64, 0x14, 0x0a, 0x08,
   0x0a, 0x24, 0x54, 0x02, 0x48, 0x08, 0x42, 0x22, 0x12, 0x45, 0x44, 0x44,
   0x10, 0x20, 0x04, 0x14, 0x49, 0x65, 0x7d, 0x45, 0x42, 0x3a, 0x45, 0x12,
   0x28, 0x4a, 0x52, 0x1a, 0x12, 0x22, 0x0a, 0x08, 0x1c, 0x54, 0x54, 0x42,
   0x40, 0x08, 0x42, 0x22, 0x14, 0x45, 0x44, 0x44, 0x08, 0x40, 0x0e, 0x08,
   0x49, 0x65, 0x0d, 0x45, 0x42, 0x0a, 0x45, 0x22, 0x4a, 0x4a, 0x22, 0x2a,
   0x12, 0x42, 0x4a, 0x48, 0x08, 0x52, 0x52, 0x42, 0x22, 0x08, 0x3c, 0x22,
   0x15, 0x45, 0x22, 0x22, 0x0a, 0x46, 0x15, 0x0c, 0x4d, 0x45, 0x09, 0x41,
   0x4d, 0x0a, 0x45, 0x22, 0x4a, 0x4a, 0x52, 0x4a, 0x62, 0x32, 0x3c, 0x30,
   0x38, 0x22, 0x62, 0x3c, 0x1c, 0x08, 0x20, 0x62, 0x12, 0x45, 0x22, 0x22,
   0x04, 0x38, 0x62, 0x32, 0x32, 0x45, 0x09, 0x3e, 0x35, 0x0a, 0x3e, 0x22,
   0x44, 0x4a, 0x42, 0x4a, 0x00, 0x00, 0x00, 0x00, 0x00, 0x00, 0x00, 0x00,
   0x00, 0x00, 0x22, 0x00, 0x08, 0x00, 0x00, 0x00, 0x00, 0x00, 0x00, 0x00,
   0x00, 0x00, 0x00, 0x00, 0x05, 0x00, 0x40, 0x00, 0x00, 0x00, 0x00, 0x08,
   0x00, 0x00, 0x00, 0x00, 0x00, 0x00, 0x00, 0x00, 0x00, 0x00, 0x1c, 0x00,
   0x04, 0x00, 0x00, 0x00, 0x00, 0x00, 0x00, 0x00, 0x00, 0x00, 0x00, 0x00,
   0x02, 0x00, 0x00, 0x00, 0x00, 0x00, 0x00, 0x00, 0x00, 0x00, 0x00, 0x00,
   0x00, 0x00, 0x00, 0x00, 0x00, 0x00, 0x00, 0x00, 0x00, 0x00, 0x00, 0x00,
   0x00, 0x00, 0x00, 0x00, 0x00, 0x00, 0x00, 0x00, 0x00, 0x00, 0x00, 0x00,
   0x00, 0x00, 0x00, 0x00, 0x00, 0x00, 0x00, 0x00, 0x00, 0x00, 0x00, 0x00,
   0x00, 0x00, 0x00, 0x00, 0x00, 0x00, 0x00, 0x00, 0x00, 0x00, 0x00, 0x00,
   0x00, 0x00, 0x00, 0x00, 0x00, 0x00, 0x00, 0x00, 0x00, 0x00, 0x00, 0x00,
   0x00, 0x00, 0x00, 0x00, 0x00, 0x00, 0x00, 0x00, 0x00, 0x00, 0x00, 0x00,
   0x00, 0x00, 0x00, 0x00, 0x00, 0x00, 0x00, 0x00, 0x00, 0x00, 0x00, 0x00,
   0x00, 0x00, 0x00, 0x00, 0x00, 0x00, 0x00, 0x00, 0x2c, 0x00, 0x00, 0x0c,
   0x00, 0x00, 0x00, 0x00, 0x00, 0x00, 0x00, 0x00, 0x00, 0x00, 0x00, 0x00,
   0x00, 0x00, 0x00, 0x00, 0x00, 0x00, 0x00, 0x00, 0x00, 0x00, 0x00, 0x00,
   0x00, 0x00, 0x00, 0x00, 0x3a, 0x07, 0x00, 0x08, 0x00, 0x00, 0x00, 0x00,
   0x00, 0x00, 0x00, 0x08, 0x00, 0x00, 0x00, 0x00, 0x00, 0x00, 0x00, 0x00,
   0x00, 0x00, 0x00, 0x00, 0x00, 0x00, 0x00, 0x00, 0x00, 0x00, 0x00, 0x00,
   0x2c, 0x02, 0x57, 0x49, 0x7f, 0x78, 0x3e, 0x66, 0x3c, 0x00, 0x42, 0x14,
   0x3e, 0x78, 0x00, 0x00, 0x3c, 0x7e, 0x40, 0x14, 0x00, 0x00, 0x00, 0x00,
   0x00, 0x00, 0x00, 0x00, 0x00, 0x00, 0x7e, 0xff, 0x2a, 0x1e, 0x72, 0x49,
   0x50, 0x20, 0x41, 0x24, 0x42, 0x00, 0x22, 0x08, 0x44, 0x14, 0x00, 0x00,
   0x42, 0x09, 0x40, 0x14, 0x00, 0x00, 0x00, 0x00, 0x00, 0x1c, 0x00, 0x00,
   0x00, 0x00, 0x4a, 0x4a, 0x00, 0x06, 0x52, 0x49, 0x28, 0x10, 0x41, 0x24,
   0x40, 0x00, 0x12, 0x08, 0x44, 0x12, 0x3c, 0x00, 0x42, 0x08, 0x40, 0x14,
   0x00, 0x00, 0x00, 0x00, 0x00, 0x1c, 0x80, 0x00, 0x00, 0x00, 0x4a, 0x4a,
   0x00, 0x0e, 0x52, 0x49, 0x28, 0x78, 0x41, 0x42, 0x48, 0x0c, 0x0a, 0x14,
   0x44, 0x22, 0x66, 0x78, 0x02, 0x08, 0x40, 0x2a, 0x78, 0x12, 0x3e, 0x0c,
   0x7e, 0x00, 0x7c, 0x00, 0x00, 0x45, 0x0a, 0x4a, 0x00, 0x24, 0x00, 0x2a,
   0x14, 0x20, 0x41, 0x42, 0x30, 0x10, 0x06, 0x22, 0x3c, 0x2a, 0x66, 0x44,
   0x1c, 0x3e, 0x7c, 0x2a, 0x44, 0x24, 0x20, 0x10, 0x20, 0x1c, 0x62, 0x00,
   0x00, 0x45, 0x0a, 0x4a, 0x00, 0x3c, 0x00, 0x2a, 0x0a, 0x10, 0x41, 0x42,
   0x48, 0x10, 0x0a, 0x22, 0x22, 0x12, 0x7e, 0x7c, 0x02, 0x04, 0x40, 0x22,
   0x44, 0x2c, 0x20, 0x20, 0x20, 0x1c, 0x52, 0x00, 0x00, 0x45, 0x0a, 0x4a,
   0x00, 0x20, 0x00, 0x1c, 0x0a, 0x38, 0x36, 0x42, 0x40, 0x10, 0x12, 0x3e,
   0x22, 0x02, 0x06, 0x02, 0x42, 0x04, 0x40, 0x22, 0x22, 0x12, 0x20, 0x20,
   0x20, 0x1c, 0x42, 0x00, 0x00, 0x2a, 0x0a, 0x4a, 0x00, 0x20, 0x00, 0x08,
   0x05, 0x40, 0x14, 0x42, 0x42, 0x10, 0x22, 0x22, 0x22, 0x42, 0x46, 0x22,
   0x42, 0x05, 0x40, 0x22, 0x22, 0x22, 0x20, 0x50, 0x20, 0x1c, 0x42, 0x00,
   0x00, 0x2a, 0x0a, 0x4a, 0x00, 0xe0, 0x00, 0x08, 0x7f, 0x40, 0x77, 0x3c,
   0x3c, 0x10, 0x42, 0x22, 0x1e, 0x3c, 0x3c, 0x1c, 0x3c, 0x02, 0x7e, 0x11,
   0x1e, 0x26, 0x7e, 0x4c, 0x20, 0x3e, 0x3c, 0x00, 0x00, 0x14, 0x0a, 0x4a,
   0x00, 0x00, 0x00, 0x08, 0x00, 0x44, 0x00, 0x00, 0x00, 0x00, 0x00, 0x00,
   0x00, 0x00, 0x00, 0x00, 0x00, 0x00, 0x00, 0x00, 0x00, 0x00, 0x00, 0x00,
   0x00, 0x00, 0x00, 0x00, 0x00, 0x14, 0x00, 0x00, 0x00, 0x00, 0x00, 0x00,
   0x00, 0x38, 0x00, 0x00, 0x00, 0x00, 0x00, 0x00, 0x00, 0x00, 0x00, 0x00,
   0x00, 0x00, 0x00, 0x00, 0x00, 0x00, 0x00, 0x00, 0x00, 0x00, 0x00, 0x00,
   0x00, 0x0a, 0x00, 0x00, 0x00, 0x00, 0x00, 0x00, 0x00, 0x00, 0x00, 0x00,
   0x00, 0x00, 0x00, 0x00, 0x00, 0x00, 0x00, 0x00, 0x00, 0x00, 0x00, 0x00,
   0x00, 0x00, 0x00, 0x00, 0x00, 0x00, 0x00, 0x00, 0x00, 0x00, 0x00, 0x00,
   0x00, 0x00, 0x00, 0x00, 0x00, 0x00, 0x00, 0x00, 0x00, 0x00, 0x00, 0x00,
   0x00, 0x00, 0x00, 0x00, 0x00, 0x00, 0x00, 0x00, 0x00, 0x00, 0x00, 0x00,
   0x00, 0x00, 0x00, 0x00, 0x00, 0x00, 0x00, 0x00, 0x00, 0x00, 0x00, 0x00,
   0x00, 0x00, 0x00, 0x00, 0x00, 0x00, 0x00, 0x00, 0x00, 0x00, 0x00, 0x00,
   0x00, 0x00, 0x00, 0x00, 0x00, 0x00, 0x00, 0x00, 0x00, 0x00, 0x00, 0x00,
   0x00, 0x00, 0x00, 0x00, 0x00, 0x00, 0x00, 0x00, 0x00, 0x00, 0x00, 0x00,
   0x00, 0x00, 0x00, 0x00, 0x00, 0x00, 0x00, 0x00, 0x00, 0x00, 0x00, 0x00,
   0x00, 0x00, 0x00, 0x00, 0x00, 0x00, 0x00, 0x00, 0x00, 0x00, 0x00, 0x00,
   0x00, 0x00, 0x00, 0x00, 0x00, 0x00, 0x00, 0x00, 0x00, 0x00, 0x00, 0x00,
   0x00, 0x00, 0x00, 0x00, 0x00, 0x00, 0x00, 0x00, 0x00, 0x00, 0x04, 0x04,
   0x00, 0x00, 0x00, 0x02, 0x03, 0x07, 0x07, 0x00, 0x7f, 0x3c, 0x7e, 0x40,
   0x08, 0x7e, 0xa0, 0x00, 0x30, 0x60, 0x04, 0x00, 0x00, 0x00, 0x00, 0x00,
   0x00, 0x00, 0x00, 0x02, 0x04, 0x02, 0x0a, 0x0a, 0x02, 0x02, 0x0e, 0x03,
   0x04, 0x01, 0x04, 0x02, 0x45, 0x42, 0x40, 0x40, 0x08, 0x8a, 0xa0, 0x00,
   0x30, 0x60, 0x04, 0x00, 0x00, 0x00, 0x00, 0x00, 0x00, 0x00, 0x00, 0x02,
   0x0a, 0x02, 0x04, 0x04, 0x0a, 0x02, 0x02, 0x02, 0x03, 0x03, 0x04, 0x02,
   0x0a, 0x42, 0x40, 0x40, 0x08, 0x8a, 0xa0, 0x00, 0x00, 0x00, 0x3f, 0x3a,
   0x00, 0x00, 0x00, 0x00, 0x00, 0x00, 0x00, 0x02, 0x04, 0x02, 0x02, 0x08,
   0x0e, 0x02, 0x06, 0x02, 0x04, 0x04, 0x02, 0x02, 0x0a, 0x4e, 0x40, 0x40,
   0x08, 0x8a, 0xbc, 0x7c, 0x3c, 0x78, 0x45, 0x44, 0x00, 0x00, 0x00, 0x00,
   0x00, 0x00, 0x00, 0x02, 0x02, 0x02, 0x0e, 0x06, 0x08, 0x02, 0x08, 0x32,
   0x34, 0x34, 0x32, 0x02, 0x14, 0x40, 0x40, 0x40, 0x08, 0x45, 0x52, 0x8a,
   0x28, 0x50, 0x45, 0x4a, 0x00, 0x00, 0x00, 0x00, 0x00, 0x00, 0x00, 0x12,
   0x3e, 0x3a, 0x70, 0x70, 0x70, 0x32, 0x76, 0x4f, 0x4b, 0x4b, 0x4a, 0x02,
   0x0a, 0x40, 0x40, 0x40, 0x14, 0x45, 0x51, 0x7a, 0x28, 0x50, 0x3d, 0x30,
   0x00, 0x00, 0x00, 0x00, 0x00, 0x00, 0x00, 0x28, 0x40, 0x08, 0x10, 0x10,
   0x10, 0x08, 0x10, 0x30, 0x30, 0x30, 0x30, 0x00, 0x0a, 0x40, 0x40, 0x40,
   0x22, 0x45, 0x51, 0x05, 0x14, 0x28, 0x05, 0x48, 0x00, 0x00, 0x00, 0x00,
   0x00, 0x00, 0x00, 0x10, 0x20, 0x18, 0x30, 0x30, 0x30, 0x18, 0x30, 0x48,
   0x48, 0x48, 0x48, 0x00, 0x45, 0x42, 0x40, 0x40, 0x41, 0x45, 0x51, 0x05,
   0x14, 0x28, 0x04, 0x48, 0x00, 0x00, 0x00, 0x00, 0x00, 0x00, 0x00, 0x20,
   0x40, 0x20, 0x40, 0x40, 0x40, 0x28, 0x50, 0x48, 0x48, 0x48, 0x48, 0x00,
   0x7f, 0x3c, 0x40, 0x7e, 0x41, 0x3f, 0x5e, 0x3e, 0x3e, 0x28, 0x7c, 0x30,
   0x00, 0x00, 0x00, 0x00, 0x00, 0x00, 0x00, 0x18, 0x30, 0x18, 0x30, 0x30,
   0x30, 0x10, 0x20, 0x30, 0x30, 0x30, 0x30, 0x00, 0x00, 0x00, 0x00, 0x00,
   0x00, 0x00, 0x00, 0x00, 0x00, 0x14, 0x00, 0x00, 0x00, 0x00, 0x00, 0x00,
   0x00, 0x00, 0x00, 0x00, 0x00, 0x00, 0x00, 0x00, 0x00, 0x00, 0x00, 0x00,
   0x00, 0x00, 0x00, 0x00, 0x00, 0x00, 0x00, 0x00, 0x00, 0x00, 0x00, 0x00,
   0x00, 0x0e, 0x00, 0x00, 0x00, 0x00, 0x00, 0x00, 0x00, 0x00, 0x00, 0x00,
   0x00, 0x00, 0x00, 0x00, 0x00, 0x00, 0x00, 0x00, 0x00, 0x00, 0x00, 0x00,
   0x00, 0x00, 0x00, 0x00, 0x00, 0x00, 0x00, 0x00, 0x00, 0x00, 0x00, 0x00,
   0x00, 0x00, 0x00, 0x00, 0x00, 0x00, 0x00, 0x00, 0x00, 0x00, 0x00, 0x00,
   0x00, 0x00, 0x00, 0x00, 0x00, 0x00, 0x00, 0x00, 0x00, 0x00, 0x00, 0x00,
   0x00, 0x00, 0x00, 0x00, 0x00, 0x00, 0x00, 0x00, 0x00, 0x00, 0x00, 0x00,
   0x00, 0x00, 0x00, 0x00, 0x00, 0x00, 0x00, 0x00, 0x00, 0x00, 0x00, 0x00,
   0x00, 0x00, 0x00, 0x00, 0x00, 0x00, 0x00, 0x00, 0x00, 0x00, 0x00, 0x00,
   0x00, 0x00, 0x00, 0x00, 0x00, 0x00, 0x00, 0x00, 0x00, 0x00, 0x00, 0x00,
   0x00, 0x00, 0x00, 0x00, 0x00, 0x00, 0x00, 0x00, 0x00, 0x00, 0x00, 0x00,
   0x00, 0x00, 0x00, 0x00, 0x00, 0x00, 0x00, 0x00, 0x00, 0x00, 0x00, 0x00,
   0x00, 0x00, 0x00, 0x00, 0x00, 0x00, 0x00, 0x00, 0x00, 0x00, 0x00, 0x00,
   0x00, 0x00, 0x00, 0x00, 0x00, 0x00, 0x00, 0x00, 0x00, 0x00, 0x00, 0x00,
   0x00, 0x00, 0x00, 0x00, 0x00, 0x00, 0x00, 0x00, 0x00, 0x00, 0x00, 0x00,
   0x00, 0x00, 0x00, 0x00, 0x00, 0x00, 0x00, 0x00, 0x00, 0x00, 0x00, 0x00,
   0x00, 0x00, 0x00, 0x00, 0x08, 0x24, 0x2a, 0x45, 0x22, 0x51, 0x55, 0xb5,
   0x45, 0x11, 0x51, 0x55, 0x02, 0x3c, 0x3e, 0x41, 0x00, 0x00, 0x00, 0x00,
   0x00, 0x00, 0x00, 0x00, 0x00, 0x00, 0x00, 0x00, 0x0c, 0x00, 0x40, 0x00,
   0x08, 0x24, 0x2a, 0x45, 0x22, 0x51, 0x55, 0xb5, 0x45, 0x11, 0x51, 0x55,
   0x02, 0x42, 0x44, 0x63, 0x08, 0x24, 0x2a, 0x01, 0x00, 0x40, 0x50, 0xb0,
   0x01, 0x00, 0x40, 0x50, 0x08, 0x00, 0x40, 0x00, 0x08, 0x24, 0x2a, 0x45,
   0x22, 0x51, 0x55, 0xb5, 0x29, 0x0a, 0x4a, 0x55, 0x02, 0x02, 0x44, 0x55,
   0x00, 0x00, 0x00, 0x00, 0x00, 0x00, 0x00, 0x00, 0x00, 0x00, 0x00, 0x00,
   0x08, 0x00, 0x40, 0x00, 0x08, 0x24, 0x2a, 0x45, 0x22, 0x51, 0x55, 0xb5,
   0x29, 0x0a, 0x4a, 0x52, 0x02, 0x02, 0x44, 0x49, 0x08, 0x24, 0x2a, 0x45,
   0x22, 0x51, 0x55, 0xb5, 0x45, 0x22, 0x51, 0x55, 0x08, 0x3c, 0x7c, 0x37,
   0x08, 0x24, 0x2a, 0x29, 0x14, 0x4a, 0x55, 0xb5, 0x11, 0x04, 0x44, 0x52,
   0x02, 0x02, 0x44, 0x49, 0x08, 0x24, 0x2a, 0x45, 0x22, 0x51, 0x55, 0xb5,
   0x29, 0x14, 0x4a, 0x55, 0x08, 0x42, 0x42, 0x49, 0x08, 0x24, 0x2a, 0x29,
   0x14, 0x4a, 0x55, 0xb5, 0x29, 0x0a, 0x4a, 0x52, 0x02, 0x02, 0x44, 0x41,
   0x08, 0x24, 0x2a, 0x29, 0x22, 0x4a, 0x55, 0xb5, 0x11, 0x08, 0x44, 0x52,
   0x08, 0x02, 0x42, 0x49, 0x08, 0x24, 0x2a, 0x29, 0x14, 0x4a, 0x55, 0xb5,
   0x29, 0x0a, 0x4a, 0x55, 0x02, 0x02, 0x44, 0x41, 0x08, 0x24, 0x2a, 0x29,
   0x14, 0x4a, 0x55, 0xb5, 0x11, 0x08, 0x44, 0x52, 0x08, 0x02, 0x42, 0x49,
   0x08, 0x24, 0x2a, 0x11, 0x08, 0x44, 0x52, 0xb2, 0x45, 0x11, 0x51, 0x55,
   0x02, 0x42, 0x44, 0x41, 0x08, 0x24, 0x2a, 0x11, 0x14, 0x44, 0x52, 0xb2,
   0x29, 0x14, 0x4a, 0x55, 0x08, 0x42, 0x42, 0x49, 0x08, 0x24, 0x2a, 0x11,
   0x08, 0x44, 0x52, 0xb2, 0x45, 0x11, 0x51, 0x55, 0x7e, 0x3c, 0x3e, 0x41,
   0x08, 0x24, 0x2a, 0x11, 0x08, 0x44, 0x52, 0xb2, 0x45, 0x22, 0x51, 0x55,
   0x1c, 0x3c, 0x7c, 0x41, 0x00, 0x00, 0x00, 0x00, 0x00, 0x00, 0x00, 0x00,
   0x00, 0x00, 0x00, 0x00, 0x00, 0x00, 0x00, 0x00, 0x00, 0x00, 0x00, 0x00,
   0x00, 0x00, 0x00, 0x00, 0x00, 0x00, 0x00, 0x00, 0x00, 0x00, 0x00, 0x00,
   0x00, 0x00, 0x00, 0x00, 0x00, 0x00, 0x00, 0x00, 0x00, 0x00, 0x00, 0x00,
   0x00, 0x00, 0x00, 0x00, 0x00, 0x00, 0x00, 0x00, 0x00, 0x00, 0x00, 0x00,
   0x00, 0x00, 0x00, 0x00, 0x00, 0x00, 0x00, 0x00, 0x00, 0x00, 0x00, 0x00,
   0x00, 0x00, 0x00, 0x00, 0x00, 0x00, 0x00, 0x00, 0x00, 0x00, 0x00, 0x00,
   0x00, 0x00, 0x00, 0x00, 0x00, 0x00, 0x00, 0x00, 0x00, 0x00, 0x00, 0x00,
   0x00, 0x00, 0x00, 0x00, 0x00, 0x00, 0x00, 0x00, 0x00, 0x00, 0x00, 0x00,
   0x00, 0x00, 0x00, 0x00, 0x00, 0x00, 0x00, 0x00, 0x00, 0x00, 0x00, 0x00,
   0x00, 0x00, 0x00, 0x00, 0x00, 0x00, 0x00, 0x00, 0x00, 0x00, 0x00, 0x00,
   0x00, 0x00, 0x00, 0x00, 0x00, 0x00, 0x00, 0x00, 0x00, 0x00, 0x00, 0x00,
   0x00, 0x00, 0x00, 0x00, 0x00, 0x00, 0x00, 0x00, 0x00, 0x00, 0x00, 0x00,
   0x00, 0x00, 0x00, 0x00, 0x00, 0x00, 0x00, 0x00, 0x00, 0x00, 0x00, 0x00,
   0x00, 0x00, 0x00, 0x00, 0x00, 0x00, 0x00, 0x00, 0x00, 0x00, 0x00, 0x00,
   0x00, 0x00, 0x00, 0x00, 0x00, 0x00, 0x00, 0x00, 0x00, 0x00, 0x00, 0x00,
   0x00, 0x00, 0x00, 0x00, 0x00, 0x00, 0x00, 0x00, 0x00, 0x00, 0x00, 0x00,
   0x00, 0x00, 0x00, 0x00, 0x00, 0x00, 0x00, 0x00, 0x00, 0x00, 0x00, 0x00,
   0x00, 0x00, 0x00, 0x00, 0x00, 0x00, 0x00, 0x00, 0x00, 0x00, 0x00, 0x00,
   0x3e, 0x3e, 0x3e, 0x3c, 0x00, 0x00, 0x00, 0x00, 0x00, 0x00, 0x00, 0x00,
   0x00, 0x00, 0x00, 0x00, 0x00, 0x08, 0x00, 0x08, 0x00, 0x00, 0x00, 0x00,
   0x00, 0x00, 0x00, 0x00, 0x00, 0x00, 0x00, 0x00, 0x49, 0x42, 0x49, 0x42,
   0x00, 0x00, 0x00, 0x00, 0x00, 0x00, 0x00, 0x00, 0x00, 0x00, 0x00, 0x00,
   0x00, 0x1c, 0x00, 0x08, 0x00, 0x08, 0x00, 0x00, 0x00, 0x00, 0x00, 0x00,
   0x00, 0x00, 0x00, 0x08, 0x49, 0x4e, 0x5d, 0x40, 0x00, 0x00, 0x00, 0x00,
   0x00, 0x00, 0x00, 0x00, 0x00, 0x00, 0x00, 0x00, 0x04, 0x2a, 0x20, 0x08,
   0x24, 0x1c, 0x00, 0x00, 0x00, 0x00, 0x00, 0x00, 0x00, 0x00, 0x00, 0x1c,
   0x49, 0x4a, 0x55, 0x40, 0x00, 0x00, 0x00, 0x00, 0x00, 0x00, 0x00, 0x00,
   0x00, 0x00, 0x00, 0x00, 0x02, 0x08, 0x40, 0x08, 0x42, 0x2a, 0x0e, 0x70,
   0x02, 0x40, 0x44, 0x24, 0x04, 0x20, 0x24, 0x2a, 0x49, 0x4a, 0x55, 0x40,
   0x00, 0x00, 0x00, 0x00, 0x00, 0x00, 0x00, 0x00, 0x00, 0x00, 0x00, 0x00,
   0x7f, 0x08, 0xfe, 0x08, 0xff, 0x08, 0x06, 0x60, 0x04, 0x20, 0x42, 0x44,
   0x42, 0x42, 0x12, 0x08, 0x49, 0x4a, 0x55, 0x40, 0x00, 0x00, 0x00, 0x00,
   0x00, 0x00, 0x00, 0x00, 0x00, 0x00, 0x00, 0x00, 0x02, 0x08, 0x40, 0x08,
   0x42, 0x08, 0x0a, 0x50, 0x08, 0x10, 0xff, 0xff, 0xaf, 0xf5, 0xff, 0x1c,
   0x49, 0x4e, 0x5d, 0x40, 0x00, 0x00, 0x00, 0x00, 0x00, 0x00, 0x00, 0x00,
   0x00, 0x00, 0x00, 0x00, 0x04, 0x08, 0x20, 0x2a, 0x24, 0x2a, 0x10, 0x08,
   0x50, 0x0a, 0x22, 0x42, 0x12, 0x48, 0x12, 0x2a, 0x49, 0x42, 0x49, 0x42,
   0x00, 0x00, 0x00, 0x00, 0x00, 0x00, 0x00, 0x00, 0x00, 0x00, 0x00, 0x00,
   0x00, 0x08, 0x00, 0x1c, 0x00, 0x1c, 0x20, 0x04, 0x60, 0x06, 0x24, 0x22,
   0x04, 0x20, 0x24, 0x08, 0x3e, 0x3e, 0x3e, 0x3c, 0x00, 0x00, 0x00, 0x00,
   0x00, 0x00, 0x00, 0x00, 0x00, 0x00, 0x00, 0x00, 0x00, 0x08, 0x00, 0x08,
   0x00, 0x08, 0x40, 0x02, 0x70, 0x0e, 0x00, 0x00, 0x00, 0x00, 0x00, 0x08,
   0x00, 0x00, 0x00, 0x00, 0x00, 0x00, 0x00, 0x00, 0x00, 0x00, 0x00, 0x00,
   0x00, 0x00, 0x00, 0x00, 0x00, 0x00, 0x00, 0x00, 0x00, 0x00, 0x00, 0x00,
   0x00, 0x00, 0x00, 0x00, 0x00, 0x00, 0x00, 0x00, 0x00, 0x00, 0x00, 0x00,
   0x00, 0x00, 0x00, 0x00, 0x00, 0x00, 0x00, 0x00, 0x00, 0x00, 0x00, 0x00,
   0x00, 0x00, 0x00, 0x00, 0x00, 0x00, 0x00, 0x00, 0x00, 0x00, 0x00, 0x00,
   0x00, 0x00, 0x00, 0x00, 0x00, 0x00, 0x00, 0x00, 0x00, 0x00, 0x00, 0x00,
   0x00, 0x00, 0x00, 0x00, 0x00, 0x00, 0x00, 0x00, 0x00, 0x00, 0x00, 0x00,
   0x00, 0x00, 0x00, 0x00, 0x00, 0x00, 0x00, 0x00, 0x00, 0x00, 0x00, 0x00,
   0x00, 0x00, 0x00, 0x00, 0x00, 0x00, 0x00, 0x00, 0x00, 0x00, 0x00, 0x00,
   0x00, 0x00, 0x00, 0x00, 0x00, 0x00, 0x00, 0x00, 0x00, 0x00, 0x00, 0x00,
   0x00, 0x00, 0x00, 0x00, 0x00, 0x00, 0x00, 0x00, 0x00, 0x00, 0x00, 0x00,
   0x00, 0x00, 0x00, 0x00, 0x00, 0x00, 0x00, 0x00, 0x00, 0x00, 0x00, 0x00,
   0x00, 0x00, 0x00, 0x00, 0x00, 0x00, 0x00, 0x00, 0x00, 0x00, 0x00, 0x00,
   0x00, 0x00, 0x00, 0x00, 0x00, 0x00, 0x00, 0x00, 0x00, 0x00, 0x00, 0x00,
   0x00, 0x00, 0x00, 0x00, 0x00, 0x00, 0x00, 0x00, 0x00, 0x00, 0x00, 0x00,
   0x00, 0x00, 0x00, 0x00, 0x00, 0x00, 0x00, 0x00, 0x00, 0x00, 0x00, 0x00,
   0x00, 0x00, 0x00, 0x00, 0x00, 0x00, 0x00, 0x00, 0x08, 0x00, 0x00, 0x00,
   0x00, 0x00, 0x00, 0x04, 0x08, 0x10, 0x40, 0x02, 0x00, 0x20, 0x00, 0x00,
   0x00, 0x00, 0x00, 0x00, 0x00, 0x00, 0x00, 0x00, 0x00, 0x00, 0x00, 0x00,
   0x00, 0x08, 0x00, 0x1c, 0x1c, 0x00, 0x00, 0x00, 0x00, 0x00, 0x00, 0x04,
   0x04, 0x20, 0x40, 0x02, 0x00, 0x20, 0x30, 0x0c, 0x00, 0x00, 0x26, 0x64,
   0x00, 0x00, 0x08, 0x10, 0x00, 0x08, 0x00, 0x00, 0x00, 0x1c, 0x00, 0x08,
   0x2a, 0x00, 0x00, 0x00, 0x00, 0x00, 0x00, 0x02, 0x7e, 0x7e, 0x40, 0x02,
   0x1e, 0x20, 0x48, 0x12, 0xff, 0x11, 0x71, 0x8e, 0x00, 0x00, 0x18, 0x18,
   0x00, 0x08, 0x08, 0x10, 0x00, 0x2a, 0x00, 0x08, 0x08, 0x00, 0x00, 0x00,
   0x00, 0x00, 0x00, 0x32, 0x44, 0x22, 0x40, 0x02, 0x10, 0x20, 0x84, 0x21,
   0x00, 0x09, 0xa9, 0x95, 0x00, 0x00, 0x28, 0x14, 0x24, 0x2a, 0x44, 0x22,
   0x04, 0x08, 0x20, 0x08, 0x08, 0x44, 0x22, 0x44, 0x22, 0x24, 0x24, 0x2c,
   0x48, 0x12, 0x40, 0x02, 0x10, 0x20, 0x84, 0x21, 0x0e, 0x7d, 0x21, 0x84,
   0x04, 0x00, 0x08, 0x10, 0x48, 0x1c, 0x22, 0x44, 0x82, 0x08, 0x41, 0x08,
   0x08, 0x82, 0x41, 0xa2, 0x45, 0x5a, 0x4a, 0x20, 0x40, 0x02, 0x48, 0x12,
   0x10, 0x28, 0x95, 0xa9, 0x06, 0x09, 0x21, 0x84, 0x02, 0x00, 0x08, 0x10,
   0xff, 0x08, 0x1f, 0xf8, 0xff, 0x08, 0xff, 0x08, 0x2a, 0x7f, 0xfe, 0x7f,
   0xfe, 0xe7, 0xff, 0x10, 0x40, 0x02, 0x44, 0x22, 0x10, 0x24, 0x0e, 0x70,
   0x0a, 0x90, 0x12, 0x48, 0xff, 0xff, 0x08, 0x10, 0x48, 0x2a, 0x22, 0x44,
   0x82, 0x08, 0x41, 0x2a, 0x1c, 0x02, 0x40, 0x22, 0x44, 0x42, 0x4a, 0x54,
   0x40, 0x02, 0x7e, 0x7e, 0x54, 0x3e, 0x04, 0x20, 0x10, 0xbe, 0x0c, 0x30,
   0x00, 0x02, 0x08, 0x10, 0x24, 0x1c, 0x44, 0x22, 0x04, 0x08, 0x20, 0x1c,
   0x08, 0x04, 0x20, 0x24, 0x24, 0x24, 0x24, 0x38, 0x40, 0x02, 0x04, 0x20,
   0x38, 0x04, 0x00, 0x00, 0x20, 0x90, 0x00, 0x00, 0x00, 0x04, 0x08, 0x10,
   0x00, 0x08, 0x08, 0x10, 0x00, 0x1c, 0x00, 0x08, 0x7f, 0x00, 0x00, 0x00,
   0x00, 0x00, 0x00, 0x10, 0x40, 0x02, 0x08, 0x10, 0x10, 0x08, 0x00, 0x00,
   0x40, 0x88, 0x00, 0x00, 0x00, 0x00, 0x08, 0x10, 0x00, 0x00, 0x00, 0x00,
   0x00, 0x00, 0x00, 0x00, 0x00, 0x00, 0x00, 0x00, 0x00, 0x00, 0x00, 0x00,
   0x00, 0x00, 0x00, 0x00, 0x00, 0x00, 0x00, 0x00, 0x00, 0x00, 0x00, 0x00,
   0x00, 0x00, 0x00, 0x00, 0x00, 0x00, 0x00, 0x00, 0x00, 0x00, 0x00, 0x00,
   0x00, 0x00, 0x00, 0x00, 0x00, 0x00, 0x00, 0x00, 0x00, 0x00, 0x00, 0x00,
   0x00, 0x00, 0x00, 0x00, 0x00, 0x00, 0x00, 0x00, 0x00, 0x00, 0x00, 0x00,
   0x00, 0x00, 0x00, 0x00, 0x00, 0x00, 0x00, 0x00, 0x00, 0x00, 0x00, 0x00,
   0x00, 0x00, 0x00, 0x00, 0x00, 0x00, 0x00, 0x00, 0x00, 0x00, 0x00, 0x00,
   0x00, 0x00, 0x00, 0x00, 0x00, 0x00, 0x00, 0x00, 0x00, 0x00, 0x00, 0x00,
   0x00, 0x00, 0x00, 0x00, 0x00, 0x00, 0x00, 0x00, 0x00, 0x00, 0x00, 0x00,
   0x00, 0x00, 0x00, 0x00, 0x00, 0x00, 0x00, 0x00, 0x00, 0x00, 0x00, 0x00,
   0x00, 0x00, 0x00, 0x00, 0x00, 0x00, 0x00, 0x00, 0x00, 0x00, 0x00, 0x00,
   0x00, 0x00, 0x00, 0x00, 0x00, 0x00, 0x00, 0x00, 0x00, 0x00, 0x00, 0x00,
   0x00, 0x00, 0x00, 0x00, 0x00, 0x00, 0x00, 0x00, 0x00, 0x00, 0x00, 0x00,
   0x00, 0x00, 0x00, 0x00, 0x00, 0x00, 0x00, 0x04, 0x00, 0x20, 0x00, 0x00,
   0x00, 0x00, 0x00, 0x00, 0x00, 0x00, 0x00, 0x00, 0x00, 0x08, 0x00, 0x00,
   0x00, 0x00, 0x00, 0x00, 0x00, 0x00, 0x00, 0x00, 0x00, 0x00, 0x00, 0x00,
   0x00, 0x24, 0x00, 0x02, 0x22, 0x40, 0x22, 0x00, 0x00, 0x00, 0x00, 0x00,
   0x00, 0x00, 0x00, 0x00, 0x00, 0x14, 0x00, 0x00, 0x00, 0x00, 0x00, 0x00,
   0x00, 0x00, 0x08, 0x08, 0x00, 0x00, 0x08, 0x10, 0x10, 0x2e, 0x04, 0xff,
   0x77, 0xff, 0x22, 0x00, 0x00, 0x00, 0x00, 0x00, 0x00, 0x10, 0x00, 0x14,
   0x00, 0x36, 0x00, 0x00, 0x00, 0x00, 0x10, 0x08, 0x00, 0x00, 0x1c, 0x08,
   0x00, 0x00, 0x08, 0x10, 0x20, 0x35, 0x02, 0x02, 0x22, 0x40, 0x22, 0x00,
   0x00, 0x00, 0x00, 0x00, 0x00, 0x28, 0x00, 0x14, 0x00, 0x55, 0x00, 0x00,
   0x00, 0x00, 0x08, 0x10, 0x00, 0x00, 0x2a, 0x3e, 0x00, 0x00, 0x08, 0x10,
   0x7f, 0x24, 0x7f, 0x04, 0x22, 0x20, 0x22, 0x04, 0x10, 0x08, 0x00, 0x10,
   0x08, 0x6c, 0x10, 0x14, 0x00, 0x14, 0x3f, 0xfc, 0x08, 0x10, 0xfc, 0x3f,
   0x08, 0x10, 0x49, 0x08, 0x20, 0x00, 0x08, 0x10, 0x20, 0x24, 0x02, 0x00,
   0x22, 0x00, 0x22, 0x02, 0x20, 0x84, 0x24, 0x24, 0x04, 0xaa, 0x20, 0x14,
   0x24, 0x14, 0x09, 0x90, 0x90, 0x09, 0x02, 0x40, 0x04, 0x20, 0x08, 0x3e,
   0x40, 0x00, 0x08, 0x10, 0x14, 0x24, 0x14, 0x04, 0x22, 0x20, 0x22, 0x7f,
   0x7f, 0xfe, 0x7e, 0x7f, 0xfe, 0x28, 0x7f, 0x14, 0x7e, 0x14, 0x11, 0x88,
   0xa2, 0x45, 0xff, 0xff, 0x12, 0x48, 0x3e, 0x08, 0xff, 0xff, 0x08, 0x10,
   0x02, 0x24, 0x20, 0x02, 0x22, 0x40, 0x22, 0x00, 0x00, 0x41, 0x99, 0x82,
   0x01, 0x28, 0x80, 0x55, 0x81, 0x55, 0x23, 0xc4, 0xc4, 0x23, 0x02, 0x40,
   0xaf, 0xf5, 0x08, 0x49, 0x00, 0x40, 0x28, 0x14, 0x7f, 0xac, 0x7f, 0xff,
   0x22, 0xff, 0x22, 0x7f, 0x7f, 0xfe, 0x7e, 0x7f, 0xfe, 0x28, 0x7f, 0x36,
   0x7e, 0x36, 0x45, 0xa2, 0x88, 0x11, 0xfc, 0x3f, 0x42, 0x42, 0x3e, 0x2a,
   0x00, 0x20, 0x18, 0x18, 0x02, 0x74, 0x20, 0x02, 0x22, 0x40, 0x77, 0x20,
   0x02, 0x24, 0x24, 0x21, 0x04, 0x28, 0x20, 0x14, 0x24, 0x14, 0x09, 0x90,
   0x90, 0x09, 0x08, 0x10, 0x04, 0x20, 0x08, 0x1c, 0x00, 0x00, 0x08, 0x10,
   0x04, 0x24, 0x10, 0x04, 0x22, 0x20, 0x22, 0x10, 0x04, 0x08, 0x00, 0x10,
   0x08, 0x28, 0x10, 0x08, 0x00, 0x08, 0x10, 0x08, 0xfc, 0x3f, 0x10, 0x08,
   0x08, 0x10, 0x08, 0x08, 0x00, 0x00, 0x00, 0x00, 0x00, 0x00, 0x00, 0x00,
   0x00, 0x00, 0x00, 0x00, 0x00, 0x00, 0x00, 0x00, 0x00, 0x00, 0x00, 0x00,
   0x00, 0x00, 0x00, 0x00, 0x00, 0x00, 0x00, 0x00, 0x00, 0x00, 0x00, 0x00,
   0x00, 0x00, 0x00, 0x00, 0x00, 0x00, 0x00, 0x00, 0x00, 0x00, 0x00, 0x00,
   0x00, 0x00, 0x00, 0x00, 0x00, 0x00, 0x00, 0x00, 0x00, 0x00, 0x00, 0x00,
   0x00, 0x00, 0x00, 0x00, 0x00, 0x00, 0x00, 0x00, 0x00, 0x00, 0x00, 0x00,
   0x00, 0x00, 0x00, 0x00, 0x00, 0x00, 0x00, 0x00, 0x00, 0x00, 0x00, 0x00,
   0x00, 0x00, 0x00, 0x00, 0x00, 0x00, 0x00, 0x00, 0x00, 0x00, 0x00, 0x00,
   0x00, 0x00, 0x00, 0x00, 0x00, 0x00, 0x00, 0x00, 0x00, 0x00, 0x00, 0x00,
   0x00, 0x00, 0x00, 0x00, 0x00, 0x00, 0x00, 0x00, 0x00, 0x00, 0x00, 0x00,
   0x00, 0x00, 0x00, 0x00, 0x00, 0x00, 0x00, 0x00, 0x00, 0x00, 0x00, 0x00,
   0x00, 0x00, 0x00, 0x00, 0x00, 0x00, 0x00, 0x00, 0x00, 0x00, 0x00, 0x00,
   0x00, 0x00, 0x00, 0x00, 0x00, 0x00, 0x00, 0x00, 0x00, 0x00, 0x00, 0x00,
   0x00, 0x00, 0x00, 0x00, 0x00, 0x00, 0x00, 0x00, 0x00, 0x00, 0x00, 0x00,
   0x00, 0x00, 0x00, 0x00, 0x00, 0x00, 0x00, 0x00, 0x00, 0x00, 0x00, 0x00,
   0x00, 0x00, 0x00, 0x00, 0x00, 0x00, 0x20, 0x00, 0x00, 0x00, 0x00, 0x00,
   0x00, 0x00, 0x00, 0x00, 0x00, 0x08, 0x00, 0x08, 0x00, 0x00, 0x00, 0x00,
   0x00, 0x00, 0x08, 0x00, 0x00, 0x00, 0x00, 0x00, 0x00, 0x00, 0x00, 0x00,
   0x00, 0x24, 0x40, 0x00, 0x00, 0x00, 0x00, 0x00, 0x00, 0x00, 0x00, 0x00,
   0x00, 0x14, 0x00, 0x08, 0x00, 0x00, 0x00, 0x08, 0x00, 0x1c, 0x14, 0x08,
   0x08, 0x08, 0x08, 0x08, 0x00, 0x00, 0x00, 0x08, 0x00, 0x74, 0xff, 0x00,
   0x00, 0x00, 0x00, 0x00, 0x00, 0x00, 0x00, 0x00, 0x00, 0x2a, 0x00, 0x00,
   0x00, 0x00, 0x00, 0x14, 0x00, 0x14, 0x22, 0x14, 0x14, 0x14, 0x14, 0x14,
   0x00, 0x00, 0x00, 0x14, 0x00, 0xac, 0x40, 0x00, 0x00, 0x00, 0x00, 0x00,
   0x00, 0x08, 0x10, 0x00, 0x08, 0x49, 0x10, 0x08, 0x00, 0x00, 0x08, 0x22,
   0x10, 0x14, 0x77, 0x22, 0x22, 0x22, 0x22, 0x22, 0x11, 0x7f, 0x41, 0x22,
   0x24, 0x24, 0x20, 0x14, 0x28, 0x08, 0x54, 0x2a, 0x18, 0x0c, 0x30, 0x24,
   0x04, 0x00, 0x20, 0x08, 0x09, 0x90, 0x0c, 0x77, 0x30, 0x14, 0x14, 0x77,
   0x7f, 0x7f, 0x77, 0x77, 0x31, 0x01, 0x52, 0x77, 0x4a, 0x24, 0x40, 0x12,
   0x48, 0x2a, 0x52, 0x4a, 0x5a, 0x0a, 0x50, 0x66, 0x02, 0x08, 0x40, 0x00,
   0x05, 0xa0, 0xfa, 0x14, 0x5f, 0x14, 0x14, 0x14, 0x14, 0x1c, 0x22, 0x22,
   0x5f, 0x3d, 0x54, 0x14, 0xff, 0x24, 0xff, 0x7f, 0xfe, 0x7f, 0xff, 0xff,
   0xff, 0xf9, 0x9f, 0xbd, 0x6d, 0x08, 0xb6, 0x49, 0x7f, 0xfe, 0x81, 0x14,
   0x81, 0x77, 0x1c, 0x14, 0x14, 0x1c, 0x77, 0x77, 0x81, 0x0d, 0x58, 0x77,
   0x4a, 0x24, 0x40, 0x12, 0x48, 0x2a, 0x52, 0x4a, 0x5a, 0x0a, 0x50, 0x66,
   0x02, 0x00, 0x40, 0x2a, 0x05, 0xa0, 0xfa, 0x14, 0x5f, 0x22, 0x00, 0x14,
   0x14, 0x1c, 0x14, 0x14, 0x5f, 0x15, 0x5e, 0x22, 0x24, 0x35, 0x20, 0x14,
   0x28, 0x08, 0x54, 0x2a, 0x18, 0x0c, 0x30, 0x24, 0x04, 0x08, 0x20, 0x14,
   0x09, 0x90, 0x0c, 0x14, 0x30, 0x14, 0x1c, 0x36, 0x36, 0x3e, 0x14, 0x36,
   0x31, 0x25, 0x40, 0x14, 0x00, 0x2e, 0x40, 0x00, 0x00, 0x00, 0x00, 0x00,
   0x00, 0x08, 0x10, 0x00, 0x08, 0x08, 0x10, 0x08, 0x00, 0x00, 0x08, 0x1c,
   0x10, 0x08, 0x14, 0x22, 0x22, 0x22, 0x1c, 0x22, 0x11, 0x41, 0x7f, 0x08,
   0x00, 0x24, 0xff, 0x00, 0x00, 0x00, 0x00, 0x00, 0x00, 0x00, 0x00, 0x00,
   0x00, 0x00, 0x00, 0x00, 0x00, 0x00, 0x00, 0x00, 0x00, 0x00, 0x1c, 0x3e,
   0x3e, 0x3e, 0x00, 0x3e, 0x00, 0x00, 0x00, 0x00, 0x00, 0x00, 0x40, 0x00,
   0x00, 0x00, 0x00, 0x00, 0x00, 0x00, 0x00, 0x00, 0x00, 0x00, 0x00, 0x00,
   0x00, 0x00, 0x00, 0x00, 0x00, 0x00, 0x00, 0x00, 0x00, 0x00, 0x00, 0x00,
   0x00, 0x00, 0x00, 0x00, 0x00, 0x00, 0x20, 0x00, 0x00, 0x00, 0x00, 0x00,
   0x00, 0x00, 0x00, 0x00, 0x00, 0x00, 0x00, 0x00, 0x00, 0x00, 0x00, 0x00,
   0x00, 0x00, 0x00, 0x00, 0x00, 0x00, 0x00, 0x00, 0x00, 0x00, 0x00, 0x00,
   0x00, 0x00, 0x00, 0x00, 0x00, 0x00, 0x00, 0x00, 0x00, 0x00, 0x00, 0x00,
   0x00, 0x00, 0x00, 0x00, 0x00, 0x00, 0x00, 0x00, 0x00, 0x00, 0x00, 0x00,
   0x00, 0x00, 0x00, 0x00, 0x00, 0x00, 0x00, 0x00, 0x00, 0x00, 0x00, 0x00,
   0x00, 0x00, 0x00, 0x00, 0x00, 0x00, 0x00, 0x00, 0x00, 0x00, 0x00, 0x00,
   0x00, 0x00, 0x00, 0x00, 0x00, 0x00, 0x00, 0x00, 0x00, 0x00, 0x00, 0x00,
   0x00, 0x00, 0x00, 0x00, 0x00, 0x00, 0x00, 0x00, 0x00, 0x00, 0x00, 0x00,
   0x00, 0x00, 0x00, 0x00 };
