#define u000000_u0000FF_width 256
#define u000000_u0000FF_height 128
static unsigned char u000000_u0000FF_bits[] = {
   0x00, 0x00, 0x00, 0x00, 0x00, 0x00, 0x00, 0x00, 0x00, 0x00, 0x00, 0x00,
   0x00, 0x00, 0x00, 0x00, 0x00, 0x00, 0x00, 0x00, 0x00, 0x00, 0x00, 0x00,
   0x00, 0x00, 0x00, 0x00, 0x00, 0x00, 0x00, 0x00, 0x00, 0x00, 0x00, 0x00,
   0x00, 0x00, 0x00, 0x00, 0x00, 0x00, 0x00, 0x00, 0x00, 0x00, 0x00, 0x00,
   0x00, 0x00, 0x00, 0x00, 0x00, 0x00, 0x00, 0x00, 0x00, 0x00, 0x00, 0x00,
   0x00, 0x00, 0x00, 0x00, 0x00, 0x00, 0x00, 0x00, 0x00, 0x00, 0x00, 0x00,
   0x00, 0x00, 0x00, 0x00, 0x00, 0x00, 0x00, 0x00, 0x00, 0x00, 0x00, 0x00,
   0x00, 0x00, 0x00, 0x00, 0x00, 0x00, 0x00, 0x00, 0x00, 0x00, 0x00, 0x00,
   0x00, 0x00, 0x00, 0x00, 0x00, 0x00, 0x00, 0x00, 0x00, 0x00, 0x00, 0x00,
   0x00, 0x00, 0x00, 0x00, 0x00, 0x00, 0x00, 0x00, 0x00, 0x00, 0x00, 0x00,
   0x00, 0x00, 0x00, 0x00, 0x00, 0x00, 0x00, 0x00, 0x00, 0x00, 0x00, 0x00,
   0x00, 0x00, 0x00, 0x00, 0x00, 0x00, 0x00, 0x00, 0x00, 0x00, 0x00, 0x00,
   0x00, 0x00, 0x00, 0x00, 0x00, 0x00, 0x00, 0x00, 0x00, 0x00, 0x00, 0x00,
   0x00, 0x00, 0x00, 0x00, 0x00, 0x00, 0x00, 0x00, 0x00, 0x00, 0x00, 0x00,
   0x00, 0x00, 0x00, 0x00, 0x00, 0x00, 0x00, 0x00, 0x00, 0x00, 0x00, 0x00,
   0x00, 0x00, 0x00, 0x00, 0x00, 0x00, 0x00, 0x00, 0x00, 0x00, 0x00, 0x00,
   0x00, 0x00, 0x00, 0x00, 0x00, 0x00, 0x00, 0x00, 0x00, 0x00, 0x00, 0x00,
   0x00, 0x00, 0x00, 0x00, 0x00, 0x00, 0x00, 0x00, 0x00, 0x00, 0x00, 0x00,
   0x00, 0x00, 0x00, 0x00, 0x00, 0x00, 0x00, 0x00, 0x00, 0x00, 0x00, 0x00,
   0x00, 0x00, 0x00, 0x00, 0x00, 0x00, 0x00, 0x00, 0x00, 0x00, 0x00, 0x00,
   0x00, 0x00, 0x00, 0x00, 0x00, 0x00, 0x00, 0x00, 0x00, 0x00, 0x00, 0x00,
   0x00, 0x00, 0x00, 0x00, 0x00, 0x00, 0x00, 0x00, 0x00, 0x00, 0x00, 0x00,
   0x00, 0x00, 0x00, 0x00, 0x00, 0x00, 0x00, 0x00, 0x00, 0x00, 0x00, 0x00,
   0x00, 0x00, 0x00, 0x00, 0x00, 0x00, 0x00, 0x00, 0x00, 0x00, 0x00, 0x00,
   0x00, 0x00, 0x00, 0x00, 0x00, 0x00, 0x00, 0x00, 0x00, 0x00, 0x00, 0x00,
   0x00, 0x00, 0x00, 0x00, 0x00, 0x00, 0x00, 0x00, 0x00, 0x00, 0x00, 0x00,
   0x00, 0x00, 0x00, 0x00, 0x00, 0x00, 0x00, 0x00, 0x00, 0x00, 0x00, 0x00,
   0x00, 0x00, 0x00, 0x00, 0x00, 0x00, 0x00, 0x00, 0x00, 0x00, 0x00, 0x00,
   0x00, 0x00, 0x00, 0x00, 0x00, 0x00, 0x00, 0x00, 0x00, 0x00, 0x00, 0x00,
   0x00, 0x00, 0x00, 0x00, 0x00, 0x00, 0x00, 0x00, 0x00, 0x00, 0x00, 0x00,
   0x00, 0x00, 0x00, 0x00, 0x00, 0x00, 0x00, 0x00, 0x00, 0x00, 0x00, 0x00,
   0x00, 0x00, 0x00, 0x00, 0x00, 0x00, 0x00, 0x00, 0x00, 0x00, 0x00, 0x00,
   0x00, 0x00, 0x00, 0x00, 0x00, 0x00, 0x00, 0x00, 0x00, 0x00, 0x00, 0x00,
   0x00, 0x00, 0x00, 0x00, 0x00, 0x00, 0x00, 0x00, 0x00, 0x00, 0x00, 0x00,
   0x00, 0x00, 0x00, 0x00, 0x00, 0x00, 0x00, 0x00, 0x00, 0x00, 0x00, 0x00,
   0x00, 0x00, 0x00, 0x00, 0x00, 0x00, 0x00, 0x00, 0x00, 0x00, 0x00, 0x00,
   0x00, 0x00, 0x00, 0x00, 0x00, 0x00, 0x00, 0x00, 0x00, 0x00, 0x00, 0x00,
   0x00, 0x00, 0x00, 0x00, 0x00, 0x00, 0x00, 0x00, 0x00, 0x00, 0x00, 0x00,
   0x00, 0x00, 0x00, 0x00, 0x00, 0x00, 0x00, 0x00, 0x00, 0x00, 0x00, 0x00,
   0x00, 0x00, 0x00, 0x00, 0x00, 0x00, 0x00, 0x00, 0x00, 0x00, 0x00, 0x00,
   0x00, 0x00, 0x00, 0x00, 0x00, 0x00, 0x00, 0x00, 0x00, 0x00, 0x00, 0x00,
   0x00, 0x00, 0x00, 0x00, 0x00, 0x00, 0x00, 0x00, 0x00, 0x00, 0x00, 0x00,
   0x00, 0x00, 0x00, 0x00, 0x00, 0x00, 0x00, 0x00, 0x00, 0x00, 0x00, 0x00,
   0x00, 0x00, 0x00, 0x00, 0x00, 0x00, 0x00, 0x00, 0x00, 0x00, 0x00, 0x00,
   0x00, 0x00, 0x00, 0x00, 0x00, 0x00, 0x00, 0x00, 0x00, 0x00, 0x00, 0x00,
   0x00, 0x00, 0x00, 0x00, 0x00, 0x18, 0x36, 0x00, 0x08, 0x67, 0x00, 0x18,
   0x30, 0x06, 0x00, 0x00, 0x00, 0x00, 0x00, 0x40, 0x1c, 0x18, 0x3e, 0x7f,
   0x30, 0x7f, 0x3c, 0x7f, 0x3e, 0x3e, 0x00, 0x00, 0x00, 0x00, 0x00, 0x3e,
   0x00, 0x18, 0x36, 0x36, 0x3e, 0x65, 0x00, 0x18, 0x18, 0x0c, 0x00, 0x00,
   0x00, 0x00, 0x00, 0x60, 0x36, 0x1c, 0x63, 0x60, 0x38, 0x03, 0x06, 0x60,
   0x63, 0x73, 0x00, 0x00, 0x60, 0x00, 0x06, 0x63, 0x00, 0x18, 0x36, 0x36,
   0x6b, 0x37, 0x00, 0x18, 0x0c, 0x18, 0x08, 0x18, 0x00, 0x00, 0x00, 0x60,
   0x63, 0x1e, 0x63, 0x30, 0x3c, 0x03, 0x03, 0x60, 0x63, 0x63, 0x18, 0x18,
   0x30, 0x00, 0x0c, 0x63, 0x00, 0x18, 0x36, 0x7f, 0x0b, 0x18, 0x1e, 0x18,
   0x0c, 0x18, 0x08, 0x18, 0x00, 0x00, 0x00, 0x30, 0x63, 0x18, 0x60, 0x18,
   0x36, 0x3f, 0x03, 0x30, 0x63, 0x63, 0x3c, 0x3c, 0x18, 0x00, 0x18, 0x60,
   0x00, 0x18, 0x00, 0x7f, 0x0f, 0x18, 0x33, 0x00, 0x06, 0x30, 0x7f, 0x7e,
   0x00, 0x00, 0x00, 0x18, 0x63, 0x18, 0x30, 0x3c, 0x33, 0x67, 0x3f, 0x18,
   0x3e, 0x73, 0x18, 0x18, 0x0c, 0x7e, 0x30, 0x30, 0x00, 0x18, 0x00, 0x36,
   0x3e, 0x0c, 0x33, 0x00, 0x06, 0x30, 0x1c, 0x7e, 0x00, 0x7e, 0x00, 0x0c,
   0x63, 0x18, 0x18, 0x60, 0x33, 0x60, 0x67, 0x18, 0x63, 0x7e, 0x00, 0x00,
   0x06, 0x00, 0x60, 0x18, 0x00, 0x18, 0x00, 0x7f, 0x78, 0x0c, 0x1e, 0x00,
   0x06, 0x30, 0x1c, 0x18, 0x3c, 0x00, 0x00, 0x06, 0x63, 0x18, 0x0c, 0x60,
   0x7f, 0x60, 0x63, 0x0c, 0x63, 0x60, 0x00, 0x3c, 0x0c, 0x00, 0x30, 0x18,
   0x00, 0x00, 0x00, 0x7f, 0x68, 0x76, 0x73, 0x00, 0x0c, 0x18, 0x36, 0x18,
   0x38, 0x00, 0x18, 0x03, 0x63, 0x18, 0x06, 0x60, 0x30, 0x60, 0x63, 0x0c,
   0x63, 0x60, 0x18, 0x38, 0x18, 0x7e, 0x18, 0x00, 0x00, 0x18, 0x00, 0x36,
   0x6b, 0x53, 0x33, 0x00, 0x0c, 0x18, 0x22, 0x00, 0x38, 0x00, 0x3c, 0x03,
   0x36, 0x18, 0x03, 0x63, 0x30, 0x63, 0x67, 0x0c, 0x63, 0x30, 0x3c, 0x38,
   0x30, 0x00, 0x0c, 0x18, 0x00, 0x18, 0x00, 0x36, 0x3e, 0x73, 0x7e, 0x00,
   0x18, 0x0c, 0x00, 0x00, 0x18, 0x00, 0x18, 0x01, 0x1c, 0x7e, 0x7f, 0x3e,
   0x30, 0x3e, 0x3e, 0x0c, 0x3e, 0x1e, 0x18, 0x18, 0x60, 0x00, 0x06, 0x18,
   0x00, 0x00, 0x00, 0x00, 0x08, 0x00, 0x00, 0x00, 0x30, 0x06, 0x00, 0x00,
   0x0c, 0x00, 0x00, 0x00, 0x00, 0x00, 0x00, 0x00, 0x00, 0x00, 0x00, 0x00,
   0x00, 0x00, 0x00, 0x0c, 0x00, 0x00, 0x00, 0x00, 0x00, 0x00, 0x00, 0x00,
   0x00, 0x00, 0x00, 0x00, 0x00, 0x00, 0x00, 0x00, 0x00, 0x00, 0x00, 0x00,
   0x00, 0x00, 0x00, 0x00, 0x00, 0x00, 0x00, 0x00, 0x00, 0x00, 0x00, 0x00,
   0x00, 0x00, 0x00, 0x00, 0x00, 0x00, 0x00, 0x00, 0x00, 0x00, 0x00, 0x00,
   0x00, 0x00, 0x00, 0x00, 0x00, 0x00, 0x00, 0x00, 0x00, 0x00, 0x00, 0x00,
   0x00, 0x00, 0x00, 0x00, 0x00, 0x00, 0x00, 0x00, 0x00, 0x00, 0x00, 0x00,
   0x00, 0x00, 0x00, 0x00, 0x00, 0x00, 0x00, 0x00, 0x00, 0x00, 0x00, 0x00,
   0x00, 0x00, 0x00, 0x00, 0x00, 0x00, 0x00, 0x00, 0x00, 0x00, 0x00, 0x00,
   0x00, 0x00, 0x00, 0x00, 0x00, 0x00, 0x00, 0x00, 0x00, 0x00, 0x00, 0x00,
   0x00, 0x00, 0x00, 0x00, 0x00, 0x00, 0x00, 0x00, 0x00, 0x00, 0x00, 0x00,
   0x00, 0x00, 0x00, 0x00, 0x00, 0x00, 0x00, 0x00, 0x00, 0x00, 0x00, 0x00,
   0x00, 0x00, 0x00, 0x00, 0x00, 0x00, 0x00, 0x00, 0x00, 0x00, 0x00, 0x00,
   0x00, 0x00, 0x00, 0x00, 0x00, 0x00, 0x00, 0x00, 0x00, 0x00, 0x00, 0x00,
   0x00, 0x00, 0x00, 0x00, 0x00, 0x00, 0x00, 0x00, 0x00, 0x00, 0x00, 0x00,
   0x00, 0x1c, 0x3f, 0x3e, 0x3f, 0x7f, 0x7f, 0x3e, 0x63, 0x3c, 0x70, 0x63,
   0x03, 0x63, 0x63, 0x3e, 0x3f, 0x3e, 0x3f, 0x3e, 0x7e, 0x63, 0x63, 0x63,
   0x63, 0x66, 0x7f, 0x3e, 0x01, 0x3e, 0x08, 0x00, 0x3e, 0x3e, 0x66, 0x67,
   0x66, 0x03, 0x03, 0x63, 0x63, 0x18, 0x60, 0x63, 0x03, 0x63, 0x63, 0x63,
   0x63, 0x63, 0x63, 0x63, 0x18, 0x63, 0x63, 0x63, 0x63, 0x66, 0x60, 0x06,
   0x03, 0x30, 0x1c, 0x00, 0x7f, 0x63, 0x66, 0x63, 0x66, 0x03, 0x03, 0x63,
   0x63, 0x18, 0x60, 0x33, 0x03, 0x77, 0x67, 0x63, 0x63, 0x63, 0x63, 0x63,
   0x18, 0x63, 0x63, 0x63, 0x36, 0x66, 0x60, 0x06, 0x03, 0x30, 0x36, 0x00,
   0x73, 0x63, 0x66, 0x03, 0x66, 0x03, 0x03, 0x03, 0x63, 0x18, 0x60, 0x1b,
   0x03, 0x7f, 0x67, 0x63, 0x63, 0x63, 0x63, 0x03, 0x18, 0x63, 0x63, 0x63,
   0x36, 0x3c, 0x30, 0x06, 0x06, 0x30, 0x63, 0x00, 0x7b, 0x63, 0x3e, 0x03,
   0x66, 0x1f, 0x1f, 0x03, 0x7f, 0x18, 0x60, 0x0f, 0x03, 0x6b, 0x6f, 0x63,
   0x63, 0x63, 0x3f, 0x3e, 0x18, 0x63, 0x22, 0x63, 0x1c, 0x3c, 0x18, 0x06,
   0x0c, 0x30, 0x00, 0x00, 0x4b, 0x7f, 0x66, 0x03, 0x66, 0x03, 0x03, 0x03,
   0x63, 0x18, 0x60, 0x0f, 0x03, 0x63, 0x7b, 0x63, 0x3f, 0x63, 0x1f, 0x60,
   0x18, 0x63, 0x36, 0x63, 0x1c, 0x18, 0x0c, 0x06, 0x18, 0x30, 0x00, 0x00,
   0x4b, 0x63, 0x66, 0x03, 0x66, 0x03, 0x03, 0x73, 0x63, 0x18, 0x60, 0x1b,
   0x03, 0x63, 0x73, 0x63, 0x03, 0x63, 0x33, 0x60, 0x18, 0x63, 0x36, 0x6b,
   0x36, 0x18, 0x06, 0x06, 0x30, 0x30, 0x00, 0x00, 0x7b, 0x63, 0x66, 0x63,
   0x66, 0x03, 0x03, 0x63, 0x63, 0x18, 0x63, 0x33, 0x03, 0x63, 0x73, 0x63,
   0x03, 0x63, 0x33, 0x63, 0x18, 0x63, 0x1c, 0x6b, 0x36, 0x18, 0x03, 0x06,
   0x60, 0x30, 0x00, 0x00, 0x07, 0x63, 0x66, 0x67, 0x66, 0x03, 0x03, 0x63,
   0x63, 0x18, 0x63, 0x63, 0x43, 0x63, 0x63, 0x63, 0x03, 0x7b, 0x63, 0x63,
   0x18, 0x63, 0x1c, 0x7f, 0x63, 0x18, 0x03, 0x06, 0x60, 0x30, 0x00, 0x00,
   0x7e, 0x63, 0x3f, 0x3e, 0x3f, 0x7f, 0x03, 0x3e, 0x63, 0x3c, 0x3e, 0x63,
   0x7f, 0x63, 0x63, 0x3e, 0x03, 0x3e, 0x63, 0x3e, 0x18, 0x3e, 0x08, 0x36,
   0x63, 0x18, 0x7f, 0x06, 0x40, 0x30, 0x00, 0x00, 0x00, 0x00, 0x00, 0x00,
   0x00, 0x00, 0x00, 0x00, 0x00, 0x00, 0x00, 0x00, 0x00, 0x00, 0x00, 0x00,
   0x00, 0x60, 0x00, 0x00, 0x00, 0x00, 0x00, 0x00, 0x00, 0x00, 0x00, 0x3e,
   0x00, 0x3e, 0x00, 0x7f, 0x00, 0x00, 0x00, 0x00, 0x00, 0x00, 0x00, 0x00,
   0x00, 0x00, 0x00, 0x00, 0x00, 0x00, 0x00, 0x00, 0x00, 0x00, 0x00, 0x00,
   0x00, 0x00, 0x00, 0x00, 0x00, 0x00, 0x00, 0x00, 0x00, 0x00, 0x00, 0x00,
   0x00, 0x00, 0x00, 0x00, 0x00, 0x00, 0x00, 0x00, 0x00, 0x00, 0x00, 0x00,
   0x00, 0x00, 0x00, 0x00, 0x00, 0x00, 0x00, 0x00, 0x00, 0x00, 0x00, 0x00,
   0x00, 0x00, 0x00, 0x00, 0x00, 0x00, 0x00, 0x00, 0x00, 0x00, 0x00, 0x00,
   0x00, 0x00, 0x00, 0x00, 0x00, 0x00, 0x00, 0x00, 0x00, 0x00, 0x00, 0x00,
   0x00, 0x00, 0x00, 0x00, 0x00, 0x00, 0x00, 0x00, 0x00, 0x00, 0x00, 0x00,
   0x00, 0x00, 0x00, 0x00, 0x00, 0x00, 0x00, 0x00, 0x00, 0x00, 0x00, 0x00,
   0x00, 0x00, 0x00, 0x00, 0x00, 0x00, 0x00, 0x00, 0x00, 0x00, 0x00, 0x00,
   0x00, 0x00, 0x00, 0x00, 0x00, 0x00, 0x00, 0x00, 0x00, 0x00, 0x00, 0x00,
   0x00, 0x00, 0x00, 0x00, 0x00, 0x00, 0x00, 0x00, 0x00, 0x00, 0x00, 0x00,
   0x00, 0x00, 0x00, 0x00, 0x00, 0x00, 0x00, 0x00, 0x00, 0x00, 0x00, 0x00,
   0x00, 0x00, 0x00, 0x00, 0x00, 0x00, 0x00, 0x00, 0x0c, 0x00, 0x03, 0x00,
   0x60, 0x00, 0x3c, 0x00, 0x03, 0x00, 0x00, 0x03, 0x1c, 0x00, 0x00, 0x00,
   0x00, 0x00, 0x00, 0x00, 0x06, 0x00, 0x00, 0x00, 0x00, 0x00, 0x00, 0x78,
   0x18, 0x1e, 0x00, 0x00, 0x18, 0x00, 0x03, 0x00, 0x60, 0x00, 0x66, 0x00,
   0x03, 0x18, 0x60, 0x03, 0x18, 0x00, 0x00, 0x00, 0x00, 0x00, 0x00, 0x00,
   0x06, 0x00, 0x00, 0x00, 0x00, 0x00, 0x00, 0x0c, 0x18, 0x30, 0x4e, 0x00,
   0x30, 0x00, 0x03, 0x00, 0x60, 0x00, 0x06, 0x00, 0x03, 0x18, 0x60, 0x03,
   0x18, 0x00, 0x00, 0x00, 0x00, 0x00, 0x00, 0x00, 0x06, 0x00, 0x00, 0x00,
   0x00, 0x00, 0x00, 0x0c, 0x18, 0x30, 0x7f, 0x00, 0x00, 0x3e, 0x3b, 0x3e,
   0x6e, 0x3e, 0x06, 0x7e, 0x3b, 0x00, 0x00, 0x33, 0x18, 0x36, 0x3b, 0x3e,
   0x3b, 0x6e, 0x3b, 0x3e, 0x06, 0x63, 0x63, 0x63, 0x63, 0x63, 0x7f, 0x0c,
   0x18, 0x30, 0x39, 0x00, 0x00, 0x60, 0x67, 0x67, 0x73, 0x63, 0x06, 0x33,
   0x67, 0x1c, 0x70, 0x1b, 0x18, 0x7f, 0x67, 0x63, 0x67, 0x73, 0x67, 0x63,
   0x3f, 0x63, 0x63, 0x63, 0x63, 0x63, 0x30, 0x18, 0x18, 0x18, 0x00, 0x00,
   0x00, 0x7e, 0x63, 0x03, 0x63, 0x63, 0x3f, 0x33, 0x63, 0x18, 0x60, 0x0f,
   0x18, 0x6b, 0x63, 0x63, 0x63, 0x63, 0x03, 0x06, 0x06, 0x63, 0x63, 0x63,
   0x36, 0x63, 0x18, 0x0e, 0x18, 0x70, 0x00, 0x00, 0x00, 0x63, 0x63, 0x03,
   0x63, 0x7f, 0x06, 0x33, 0x63, 0x18, 0x60, 0x0f, 0x18, 0x6b, 0x63, 0x63,
   0x63, 0x63, 0x03, 0x1c, 0x06, 0x63, 0x63, 0x6b, 0x1c, 0x63, 0x0c, 0x18,
   0x18, 0x18, 0x00, 0x00, 0x00, 0x63, 0x63, 0x03, 0x63, 0x03, 0x06, 0x1e,
   0x63, 0x18, 0x60, 0x1b, 0x18, 0x63, 0x63, 0x63, 0x63, 0x63, 0x03, 0x30,
   0x06, 0x63, 0x36, 0x6b, 0x36, 0x73, 0x06, 0x0c, 0x18, 0x30, 0x00, 0x00,
   0x00, 0x73, 0x67, 0x67, 0x73, 0x63, 0x06, 0x0f, 0x63, 0x18, 0x60, 0x33,
   0x18, 0x63, 0x63, 0x63, 0x67, 0x73, 0x03, 0x63, 0x66, 0x73, 0x36, 0x7f,
   0x63, 0x6e, 0x03, 0x0c, 0x18, 0x30, 0x00, 0x00, 0x00, 0x6e, 0x3b, 0x3e,
   0x6e, 0x3e, 0x06, 0x3e, 0x63, 0x3c, 0x63, 0x63, 0x3c, 0x63, 0x63, 0x3e,
   0x3b, 0x6e, 0x03, 0x3e, 0x3c, 0x6e, 0x1c, 0x36, 0x63, 0x60, 0x7f, 0x0c,
   0x18, 0x30, 0x00, 0x00, 0x00, 0x00, 0x00, 0x00, 0x00, 0x00, 0x00, 0x63,
   0x00, 0x00, 0x63, 0x00, 0x00, 0x00, 0x00, 0x00, 0x03, 0x60, 0x00, 0x00,
   0x00, 0x00, 0x00, 0x00, 0x00, 0x63, 0x00, 0x78, 0x00, 0x1e, 0x00, 0x00,
   0x00, 0x00, 0x00, 0x00, 0x00, 0x00, 0x00, 0x3e, 0x00, 0x00, 0x3e, 0x00,
   0x00, 0x00, 0x00, 0x00, 0x03, 0x60, 0x00, 0x00, 0x00, 0x00, 0x00, 0x00,
   0x00, 0x3e, 0x00, 0x00, 0x00, 0x00, 0x00, 0x00, 0x00, 0x00, 0x00, 0x00,
   0x00, 0x00, 0x00, 0x00, 0x00, 0x00, 0x00, 0x00, 0x00, 0x00, 0x00, 0x00,
   0x00, 0x00, 0x00, 0x00, 0x00, 0x00, 0x00, 0x00, 0x00, 0x00, 0x00, 0x00,
   0x00, 0x00, 0x00, 0x00, 0x00, 0x00, 0x00, 0x00, 0x00, 0x00, 0x00, 0x00,
   0x00, 0x00, 0x00, 0x00, 0x00, 0x00, 0x00, 0x00, 0x00, 0x00, 0x00, 0x00,
   0x00, 0x00, 0x00, 0x00, 0x00, 0x00, 0x00, 0x00, 0x00, 0x00, 0x00, 0x00,
   0x00, 0x00, 0x00, 0x00, 0x00, 0x00, 0x00, 0x00, 0x00, 0x00, 0x00, 0x00,
   0x00, 0x00, 0x00, 0x00, 0x00, 0x00, 0x00, 0x00, 0x00, 0x00, 0x00, 0x00,
   0x00, 0x00, 0x00, 0x00, 0x00, 0x00, 0x00, 0x00, 0x00, 0x00, 0x00, 0x00,
   0x00, 0x00, 0x00, 0x00, 0x00, 0x00, 0x00, 0x00, 0x00, 0x00, 0x00, 0x00,
   0x00, 0x00, 0x00, 0x00, 0x00, 0x00, 0x00, 0x00, 0x00, 0x00, 0x00, 0x00,
   0x00, 0x00, 0x00, 0x00, 0x00, 0x00, 0x00, 0x00, 0x00, 0x00, 0x00, 0x00,
   0x00, 0x00, 0x00, 0x00, 0x00, 0x00, 0x00, 0x00, 0x00, 0x00, 0x00, 0x00,
   0x00, 0x00, 0x00, 0x00, 0x00, 0x00, 0x00, 0x00, 0x00, 0x00, 0x00, 0x00,
   0x00, 0x00, 0x00, 0x00, 0x00, 0x00, 0x00, 0x00, 0x00, 0x00, 0x00, 0x00,
   0x00, 0x00, 0x00, 0x00, 0x00, 0x00, 0x00, 0x00, 0x00, 0x00, 0x00, 0x00,
   0x00, 0x00, 0x00, 0x00, 0x00, 0x00, 0x00, 0x00, 0x00, 0x00, 0x00, 0x00,
   0x00, 0x00, 0x00, 0x00, 0x00, 0x00, 0x00, 0x00, 0x00, 0x00, 0x00, 0x00,
   0x00, 0x00, 0x00, 0x00, 0x00, 0x00, 0x00, 0x00, 0x00, 0x00, 0x00, 0x00,
   0x00, 0x00, 0x00, 0x00, 0x00, 0x00, 0x00, 0x00, 0x00, 0x00, 0x00, 0x00,
   0x00, 0x00, 0x00, 0x00, 0x00, 0x00, 0x00, 0x00, 0x00, 0x00, 0x00, 0x00,
   0x00, 0x00, 0x00, 0x00, 0x00, 0x00, 0x00, 0x00, 0x00, 0x00, 0x00, 0x00,
   0x00, 0x00, 0x00, 0x00, 0x00, 0x00, 0x00, 0x00, 0x00, 0x00, 0x00, 0x00,
   0x00, 0x00, 0x00, 0x00, 0x00, 0x00, 0x00, 0x00, 0x00, 0x00, 0x00, 0x00,
   0x00, 0x00, 0x00, 0x00, 0x00, 0x00, 0x00, 0x00, 0x00, 0x00, 0x00, 0x00,
   0x00, 0x00, 0x00, 0x00, 0x00, 0x00, 0x00, 0x00, 0x00, 0x00, 0x00, 0x00,
   0x00, 0x00, 0x00, 0x00, 0x00, 0x00, 0x00, 0x00, 0x00, 0x00, 0x00, 0x00,
   0x00, 0x00, 0x00, 0x00, 0x00, 0x00, 0x00, 0x00, 0x00, 0x00, 0x00, 0x00,
   0x00, 0x00, 0x00, 0x00, 0x00, 0x00, 0x00, 0x00, 0x00, 0x00, 0x00, 0x00,
   0x00, 0x00, 0x00, 0x00, 0x00, 0x00, 0x00, 0x00, 0x00, 0x00, 0x00, 0x00,
   0x00, 0x00, 0x00, 0x00, 0x00, 0x00, 0x00, 0x00, 0x00, 0x00, 0x00, 0x00,
   0x00, 0x00, 0x00, 0x00, 0x00, 0x00, 0x00, 0x00, 0x00, 0x00, 0x00, 0x00,
   0x00, 0x00, 0x00, 0x00, 0x00, 0x00, 0x00, 0x00, 0x00, 0x00, 0x00, 0x00,
   0x00, 0x00, 0x00, 0x00, 0x00, 0x00, 0x00, 0x00, 0x00, 0x00, 0x00, 0x00,
   0x00, 0x00, 0x00, 0x00, 0x00, 0x00, 0x00, 0x00, 0x00, 0x00, 0x00, 0x00,
   0x00, 0x00, 0x00, 0x00, 0x00, 0x00, 0x00, 0x00, 0x00, 0x00, 0x00, 0x00,
   0x00, 0x00, 0x00, 0x00, 0x00, 0x00, 0x00, 0x00, 0x00, 0x00, 0x00, 0x00,
   0x00, 0x00, 0x00, 0x00, 0x00, 0x00, 0x00, 0x00, 0x00, 0x00, 0x00, 0x00,
   0x00, 0x00, 0x00, 0x00, 0x00, 0x00, 0x00, 0x00, 0x00, 0x00, 0x00, 0x00,
   0x00, 0x00, 0x00, 0x00, 0x00, 0x00, 0x00, 0x00, 0x00, 0x00, 0x00, 0x00,
   0x00, 0x00, 0x00, 0x00, 0x00, 0x00, 0x00, 0x00, 0x00, 0x00, 0x00, 0x00,
   0x00, 0x00, 0x00, 0x00, 0x00, 0x00, 0x00, 0x00, 0x00, 0x00, 0x00, 0x00,
   0x00, 0x00, 0x00, 0x00, 0x00, 0x00, 0x00, 0x00, 0x00, 0x00, 0x00, 0x00,
   0x00, 0x00, 0x00, 0x00, 0x00, 0x00, 0x00, 0x00, 0x00, 0x00, 0x00, 0x00,
   0x00, 0x00, 0x00, 0x00, 0x00, 0x00, 0x00, 0x00, 0x00, 0x00, 0x00, 0x00,
   0x00, 0x00, 0x00, 0x00, 0x00, 0x00, 0x00, 0x00, 0x00, 0x00, 0x00, 0x00,
   0x00, 0x00, 0x00, 0x00, 0x00, 0x00, 0x00, 0x00, 0x00, 0x00, 0x00, 0x00,
   0x00, 0x00, 0x00, 0x00, 0x00, 0x00, 0x00, 0x00, 0x00, 0x00, 0x00, 0x00,
   0x00, 0x00, 0x00, 0x00, 0x00, 0x00, 0x00, 0x00, 0x00, 0x00, 0x00, 0x00,
   0x00, 0x00, 0x00, 0x00, 0x00, 0x00, 0x00, 0x00, 0x00, 0x00, 0x00, 0x00,
   0x00, 0x00, 0x00, 0x00, 0x00, 0x00, 0x00, 0x00, 0x00, 0x00, 0x00, 0x00,
   0x00, 0x00, 0x00, 0x00, 0x00, 0x00, 0x00, 0x00, 0x00, 0x00, 0x00, 0x00,
   0x00, 0x00, 0x00, 0x00, 0x00, 0x00, 0x00, 0x7e, 0x00, 0x00, 0x00, 0x00,
   0x00, 0x00, 0x00, 0x00, 0x00, 0x00, 0x00, 0x00, 0x00, 0x00, 0x00, 0x00,
   0x00, 0x18, 0x00, 0x3c, 0x00, 0x66, 0x18, 0x3c, 0x36, 0x3e, 0x1e, 0x00,
   0x00, 0x00, 0x3e, 0x00, 0x3c, 0x00, 0x0e, 0x0e, 0x30, 0x00, 0x7c, 0x00,
   0x00, 0x0c, 0x1c, 0x00, 0x06, 0x06, 0x07, 0x18, 0x00, 0x18, 0x08, 0x66,
   0x00, 0x66, 0x18, 0x66, 0x36, 0x63, 0x30, 0x00, 0x00, 0x00, 0x63, 0x00,
   0x66, 0x00, 0x1a, 0x1a, 0x18, 0x00, 0x5e, 0x00, 0x00, 0x0e, 0x3e, 0x00,
   0x07, 0x07, 0x0d, 0x18, 0x00, 0x00, 0x3e, 0x06, 0x63, 0x66, 0x18, 0x06,
   0x00, 0x5d, 0x3e, 0x6c, 0x00, 0x00, 0x5d, 0x00, 0x66, 0x18, 0x18, 0x0c,
   0x0c, 0x00, 0x53, 0x00, 0x00, 0x0c, 0x22, 0x1b, 0x06, 0x06, 0x06, 0x00,
   0x00, 0x18, 0x2b, 0x06, 0x7f, 0x3c, 0x18, 0x3c, 0x00, 0x57, 0x32, 0x36,
   0x00, 0x00, 0x55, 0x00, 0x3c, 0x18, 0x0c, 0x18, 0x00, 0x63, 0x53, 0x00,
   0x00, 0x0c, 0x3e, 0x36, 0x06, 0x06, 0x0c, 0x18, 0x00, 0x18, 0x0b, 0x3f,
   0x36, 0x3c, 0x00, 0x66, 0x00, 0x47, 0x3e, 0x1b, 0x3f, 0x00, 0x5d, 0x00,
   0x00, 0x7e, 0x06, 0x1a, 0x00, 0x63, 0x53, 0x18, 0x00, 0x0c, 0x1c, 0x6c,
   0x46, 0x3e, 0x4d, 0x18, 0x00, 0x18, 0x0b, 0x06, 0x22, 0x7e, 0x00, 0x66,
   0x00, 0x57, 0x00, 0x0d, 0x3f, 0x3e, 0x4d, 0x00, 0x00, 0x18, 0x1e, 0x0e,
   0x00, 0x63, 0x5e, 0x18, 0x00, 0x1e, 0x00, 0x58, 0x6f, 0x6f, 0x67, 0x0c,
   0x00, 0x18, 0x2b, 0x06, 0x36, 0x18, 0x18, 0x3c, 0x00, 0x5d, 0x3e, 0x1b,
   0x20, 0x00, 0x55, 0x00, 0x00, 0x18, 0x00, 0x00, 0x00, 0x63, 0x5c, 0x00,
   0x00, 0x00, 0x3e, 0x6c, 0x70, 0x60, 0x70, 0x06, 0x00, 0x18, 0x3e, 0x06,
   0x7f, 0x7e, 0x18, 0x60, 0x00, 0x63, 0x00, 0x36, 0x20, 0x00, 0x63, 0x00,
   0x00, 0x00, 0x00, 0x00, 0x00, 0x63, 0x50, 0x00, 0x00, 0x00, 0x00, 0x36,
   0x58, 0x30, 0x58, 0x66, 0x00, 0x18, 0x08, 0x0f, 0x63, 0x18, 0x18, 0x66,
   0x00, 0x3e, 0x00, 0x6c, 0x20, 0x00, 0x3e, 0x00, 0x00, 0x7e, 0x00, 0x00,
   0x00, 0x77, 0x50, 0x00, 0x00, 0x00, 0x00, 0x1b, 0x78, 0x18, 0x78, 0x66,
   0x00, 0x18, 0x00, 0x7d, 0x00, 0x18, 0x18, 0x3c, 0x00, 0x00, 0x00, 0x00,
   0x00, 0x00, 0x00, 0x00, 0x00, 0x00, 0x00, 0x00, 0x00, 0x3f, 0x50, 0x00,
   0x18, 0x00, 0x00, 0x00, 0x60, 0x78, 0x60, 0x3c, 0x00, 0x00, 0x00, 0x07,
   0x00, 0x00, 0x00, 0x00, 0x00, 0x00, 0x00, 0x00, 0x00, 0x00, 0x00, 0x00,
   0x00, 0x00, 0x00, 0x00, 0x00, 0x03, 0x70, 0x00, 0x12, 0x00, 0x00, 0x00,
   0x00, 0x00, 0x00, 0x00, 0x00, 0x00, 0x00, 0x00, 0x00, 0x00, 0x00, 0x00,
   0x00, 0x00, 0x00, 0x00, 0x00, 0x00, 0x00, 0x00, 0x00, 0x00, 0x00, 0x00,
   0x00, 0x03, 0x00, 0x00, 0x0c, 0x00, 0x00, 0x00, 0x00, 0x00, 0x00, 0x00,
   0x00, 0x00, 0x00, 0x00, 0x00, 0x00, 0x00, 0x00, 0x00, 0x00, 0x00, 0x00,
   0x00, 0x00, 0x00, 0x00, 0x00, 0x00, 0x00, 0x00, 0x00, 0x00, 0x00, 0x00,
   0x00, 0x00, 0x00, 0x00, 0x00, 0x00, 0x00, 0x00, 0x00, 0x00, 0x00, 0x00,
   0x00, 0x00, 0x00, 0x00, 0x00, 0x00, 0x00, 0x00, 0x00, 0x00, 0x00, 0x00,
   0x00, 0x00, 0x00, 0x00, 0x00, 0x00, 0x00, 0x00, 0x00, 0x00, 0x00, 0x00,
   0x00, 0x00, 0x00, 0x00, 0x00, 0x00, 0x00, 0x00, 0x00, 0x00, 0x00, 0x00,
   0x00, 0x00, 0x00, 0x00, 0x00, 0x00, 0x00, 0x00, 0x00, 0x00, 0x00, 0x00,
   0x00, 0x00, 0x00, 0x00, 0x00, 0x00, 0x00, 0x00, 0x00, 0x00, 0x00, 0x00,
   0x00, 0x00, 0x00, 0x00, 0x00, 0x18, 0x00, 0x00, 0x00, 0x00, 0x00, 0x00,
   0x00, 0x00, 0x00, 0x00, 0x00, 0x00, 0x0c, 0x18, 0x1c, 0x2c, 0x36, 0x00,
   0x00, 0x00, 0x00, 0x00, 0x00, 0x00, 0x00, 0x00, 0x0c, 0x18, 0x1c, 0x2c,
   0x36, 0x24, 0x7e, 0x3e, 0x0c, 0x18, 0x1c, 0x36, 0x0c, 0x30, 0x38, 0x6c,
   0x00, 0x2c, 0x18, 0x0c, 0x36, 0x1a, 0x36, 0x00, 0x00, 0x0c, 0x18, 0x1c,
   0x36, 0x30, 0x00, 0x3c, 0x18, 0x0c, 0x36, 0x1a, 0x36, 0x18, 0x1f, 0x67,
   0x18, 0x0c, 0x36, 0x36, 0x18, 0x18, 0x6c, 0x6c, 0x00, 0x1a, 0x00, 0x00,
   0x00, 0x00, 0x00, 0x00, 0x40, 0x18, 0x0c, 0x36, 0x36, 0x18, 0x03, 0x66,
   0x00, 0x00, 0x00, 0x00, 0x00, 0x00, 0x1b, 0x03, 0x00, 0x00, 0x00, 0x00,
   0x00, 0x00, 0x00, 0x00, 0x3f, 0x00, 0x3e, 0x3e, 0x3e, 0x3e, 0x3e, 0x00,
   0x3e, 0x00, 0x00, 0x00, 0x00, 0x00, 0x3f, 0x66, 0x1c, 0x1c, 0x1c, 0x1c,
   0x1c, 0x1c, 0x1b, 0x03, 0x7f, 0x7f, 0x7f, 0x7f, 0x3c, 0x3c, 0x3c, 0x3c,
   0x66, 0x63, 0x63, 0x63, 0x63, 0x63, 0x63, 0x63, 0x73, 0x63, 0x63, 0x63,
   0x63, 0x66, 0x63, 0x36, 0x3e, 0x3e, 0x3e, 0x3e, 0x3e, 0x3e, 0x1b, 0x03,
   0x03, 0x03, 0x03, 0x03, 0x18, 0x18, 0x18, 0x18, 0x66, 0x67, 0x63, 0x63,
   0x63, 0x63, 0x63, 0x63, 0x6b, 0x63, 0x63, 0x63, 0x63, 0x24, 0x63, 0x37,
   0x63, 0x63, 0x63, 0x63, 0x63, 0x63, 0x3f, 0x03, 0x03, 0x03, 0x03, 0x03,
   0x18, 0x18, 0x18, 0x18, 0x6f, 0x6f, 0x63, 0x63, 0x63, 0x63, 0x63, 0x3e,
   0x6b, 0x63, 0x63, 0x63, 0x63, 0x3c, 0x63, 0x36, 0x63, 0x63, 0x63, 0x63,
   0x63, 0x63, 0x1b, 0x03, 0x1f, 0x1f, 0x1f, 0x1f, 0x18, 0x18, 0x18, 0x18,
   0x66, 0x6b, 0x63, 0x63, 0x63, 0x63, 0x63, 0x1c, 0x6b, 0x63, 0x63, 0x63,
   0x63, 0x18, 0x3f, 0x66, 0x7f, 0x7f, 0x7f, 0x7f, 0x7f, 0x7f, 0x1b, 0x67,
   0x03, 0x03, 0x03, 0x03, 0x18, 0x18, 0x18, 0x18, 0x66, 0x7b, 0x63, 0x63,
   0x63, 0x63, 0x63, 0x3e, 0x6b, 0x63, 0x63, 0x63, 0x63, 0x18, 0x03, 0x66,
   0x63, 0x63, 0x63, 0x63, 0x63, 0x63, 0x1b, 0x3e, 0x03, 0x03, 0x03, 0x03,
   0x18, 0x18, 0x18, 0x18, 0x66, 0x73, 0x63, 0x63, 0x63, 0x63, 0x63, 0x63,
   0x67, 0x63, 0x63, 0x63, 0x63, 0x18, 0x03, 0x66, 0x63, 0x63, 0x63, 0x63,
   0x63, 0x63, 0x7b, 0x18, 0x7f, 0x7f, 0x7f, 0x7f, 0x3c, 0x3c, 0x3c, 0x3c,
   0x3f, 0x63, 0x3e, 0x3e, 0x3e, 0x3e, 0x3e, 0x63, 0x3e, 0x3e, 0x3e, 0x3e,
   0x3e, 0x18, 0x03, 0x36, 0x00, 0x00, 0x00, 0x00, 0x00, 0x00, 0x00, 0x12,
   0x00, 0x00, 0x00, 0x00, 0x00, 0x00, 0x00, 0x00, 0x00, 0x00, 0x00, 0x00,
   0x00, 0x00, 0x00, 0x00, 0x01, 0x00, 0x00, 0x00, 0x00, 0x00, 0x00, 0x00,
   0x00, 0x00, 0x00, 0x00, 0x00, 0x00, 0x00, 0x0c, 0x00, 0x00, 0x00, 0x00,
   0x00, 0x00, 0x00, 0x00, 0x00, 0x00, 0x00, 0x00, 0x00, 0x00, 0x00, 0x00,
   0x00, 0x00, 0x00, 0x00, 0x00, 0x00, 0x00, 0x00, 0x00, 0x00, 0x00, 0x00,
   0x00, 0x00, 0x00, 0x00, 0x00, 0x00, 0x00, 0x00, 0x00, 0x00, 0x00, 0x00,
   0x00, 0x00, 0x00, 0x00, 0x00, 0x00, 0x00, 0x00, 0x00, 0x00, 0x00, 0x00,
   0x00, 0x00, 0x00, 0x00, 0x00, 0x00, 0x00, 0x00, 0x00, 0x00, 0x00, 0x00,
   0x00, 0x00, 0x00, 0x00, 0x00, 0x00, 0x00, 0x00, 0x00, 0x00, 0x00, 0x00,
   0x00, 0x00, 0x00, 0x00, 0x00, 0x00, 0x00, 0x00, 0x00, 0x00, 0x00, 0x00,
   0x00, 0x00, 0x00, 0x00, 0x00, 0x00, 0x00, 0x00, 0x00, 0x00, 0x00, 0x00,
   0x00, 0x00, 0x00, 0x00, 0x00, 0x00, 0x00, 0x00, 0x00, 0x00, 0x00, 0x00,
   0x00, 0x00, 0x00, 0x00, 0x00, 0x00, 0x00, 0x00, 0x00, 0x00, 0x00, 0x00,
   0x00, 0x18, 0x00, 0x00, 0x00, 0x00, 0x00, 0x00, 0x00, 0x00, 0x00, 0x00,
   0x00, 0x00, 0x00, 0x00, 0x00, 0x00, 0x00, 0x00, 0x00, 0x00, 0x00, 0x00,
   0x00, 0x00, 0x00, 0x00, 0x0c, 0x18, 0x1c, 0x2c, 0x36, 0x24, 0x00, 0x00,
   0x0c, 0x18, 0x1c, 0x36, 0x0c, 0x18, 0x1c, 0x36, 0x36, 0x2c, 0x0c, 0x18,
   0x1c, 0x2c, 0x36, 0x00, 0x00, 0x0c, 0x18, 0x1c, 0x36, 0x18, 0x00, 0x36,
   0x18, 0x0c, 0x36, 0x1a, 0x36, 0x18, 0x00, 0x00, 0x18, 0x0c, 0x36, 0x36,
   0x18, 0x0c, 0x36, 0x36, 0x1c, 0x1a, 0x18, 0x0c, 0x36, 0x1a, 0x36, 0x00,
   0x00, 0x18, 0x0c, 0x36, 0x36, 0x0c, 0x03, 0x36, 0x00, 0x00, 0x00, 0x00,
   0x00, 0x00, 0x00, 0x3e, 0x00, 0x00, 0x00, 0x00, 0x00, 0x00, 0x00, 0x00,
   0x1e, 0x00, 0x00, 0x00, 0x00, 0x00, 0x00, 0x18, 0x40, 0x00, 0x00, 0x00,
   0x00, 0x00, 0x03, 0x00, 0x3e, 0x3e, 0x3e, 0x3e, 0x3e, 0x3e, 0x36, 0x67,
   0x3e, 0x3e, 0x3e, 0x3e, 0x1c, 0x1c, 0x1c, 0x1c, 0x30, 0x3b, 0x3e, 0x3e,
   0x3e, 0x3e, 0x3e, 0x18, 0x3e, 0x63, 0x63, 0x63, 0x63, 0x63, 0x3b, 0x63,
   0x60, 0x60, 0x60, 0x60, 0x60, 0x60, 0x5b, 0x03, 0x63, 0x63, 0x63, 0x63,
   0x18, 0x18, 0x18, 0x18, 0x7e, 0x67, 0x63, 0x63, 0x63, 0x63, 0x63, 0x00,
   0x73, 0x63, 0x63, 0x63, 0x63, 0x63, 0x67, 0x63, 0x7e, 0x7e, 0x7e, 0x7e,
   0x7e, 0x7e, 0x58, 0x03, 0x63, 0x63, 0x63, 0x63, 0x18, 0x18, 0x18, 0x18,
   0x63, 0x63, 0x63, 0x63, 0x63, 0x63, 0x63, 0x7e, 0x6b, 0x63, 0x63, 0x63,
   0x63, 0x63, 0x63, 0x63, 0x63, 0x63, 0x63, 0x63, 0x63, 0x63, 0x3e, 0x03,
   0x7f, 0x7f, 0x7f, 0x7f, 0x18, 0x18, 0x18, 0x18, 0x63, 0x63, 0x63, 0x63,
   0x63, 0x63, 0x63, 0x00, 0x6b, 0x63, 0x63, 0x63, 0x63, 0x63, 0x63, 0x63,
   0x63, 0x63, 0x63, 0x63, 0x63, 0x63, 0x1b, 0x67, 0x03, 0x03, 0x03, 0x03,
   0x18, 0x18, 0x18, 0x18, 0x63, 0x63, 0x63, 0x63, 0x63, 0x63, 0x63, 0x18,
   0x6b, 0x63, 0x63, 0x63, 0x63, 0x73, 0x63, 0x73, 0x73, 0x73, 0x73, 0x73,
   0x73, 0x73, 0x5b, 0x3e, 0x63, 0x63, 0x63, 0x63, 0x18, 0x18, 0x18, 0x18,
   0x63, 0x63, 0x63, 0x63, 0x63, 0x63, 0x63, 0x18, 0x67, 0x73, 0x73, 0x73,
   0x73, 0x6e, 0x67, 0x6e, 0x6e, 0x6e, 0x6e, 0x6e, 0x6e, 0x6e, 0x36, 0x18,
   0x3e, 0x3e, 0x3e, 0x3e, 0x3c, 0x3c, 0x3c, 0x3c, 0x3e, 0x63, 0x3e, 0x3e,
   0x3e, 0x3e, 0x3e, 0x00, 0x3e, 0x6e, 0x6e, 0x6e, 0x6e, 0x60, 0x3b, 0x60,
   0x00, 0x00, 0x00, 0x00, 0x00, 0x00, 0x00, 0x12, 0x00, 0x00, 0x00, 0x00,
   0x00, 0x00, 0x00, 0x00, 0x00, 0x00, 0x00, 0x00, 0x00, 0x00, 0x00, 0x00,
   0x01, 0x00, 0x00, 0x00, 0x00, 0x63, 0x03, 0x63, 0x00, 0x00, 0x00, 0x00,
   0x00, 0x00, 0x00, 0x0c, 0x00, 0x00, 0x00, 0x00, 0x00, 0x00, 0x00, 0x00,
   0x00, 0x00, 0x00, 0x00, 0x00, 0x00, 0x00, 0x00, 0x00, 0x00, 0x00, 0x00,
   0x00, 0x3e, 0x03, 0x3e, 0x00, 0x00, 0x00, 0x00, 0x00, 0x00, 0x00, 0x00,
   0x00, 0x00, 0x00, 0x00, 0x00, 0x00, 0x00, 0x00, 0x00, 0x00, 0x00, 0x00,
   0x00, 0x00, 0x00, 0x00, 0x00, 0x00, 0x00, 0x00, 0x00, 0x00, 0x00, 0x00,
   0x00, 0x00, 0x00, 0x00, 0x00, 0x00, 0x00, 0x00, 0x00, 0x00, 0x00, 0x00,
   0x00, 0x00, 0x00, 0x00, 0x00, 0x00, 0x00, 0x00, 0x00, 0x00, 0x00, 0x00,
   0x00, 0x00, 0x00, 0x00, 0x00, 0x00, 0x00, 0x00, 0x00, 0x00, 0x00, 0x00,
   0x00, 0x00, 0x00, 0x00, 0x00, 0x00, 0x00, 0x00, 0x00, 0x00, 0x00, 0x00,
   0x00, 0x00, 0x00, 0x00, 0x00, 0x00, 0x00, 0x00, 0x00, 0x00, 0x00, 0x00,
   0x00, 0x00, 0x00, 0x00 };
