#define u000100_u0001FF_width 256
#define u000100_u0001FF_height 128
static unsigned char u000100_u0001FF_bits[] = {
   0x00, 0x00, 0x00, 0x00, 0x00, 0x00, 0x30, 0x00, 0x1c, 0x00, 0x18, 0x00,
   0x36, 0x00, 0x36, 0x36, 0x00, 0x00, 0x00, 0x00, 0x00, 0x00, 0x00, 0x00,
   0x00, 0x00, 0x00, 0x00, 0x1c, 0x00, 0x63, 0x00, 0x3e, 0x00, 0x22, 0x22,
   0x1c, 0x00, 0x18, 0x30, 0x36, 0x1c, 0x18, 0x18, 0x1c, 0x36, 0x1c, 0x1c,
   0x00, 0x60, 0x3e, 0x00, 0x63, 0x63, 0x18, 0x18, 0x7f, 0x00, 0x36, 0x36,
   0x36, 0x1c, 0x3e, 0x63, 0x00, 0x7e, 0x1c, 0x1c, 0x3e, 0x00, 0x00, 0x18,
   0x00, 0x36, 0x00, 0x18, 0x00, 0x1c, 0x00, 0x00, 0x3f, 0xf8, 0x00, 0x3e,
   0x3e, 0x3e, 0x18, 0x18, 0x03, 0x00, 0x1c, 0x1c, 0x00, 0x36, 0x00, 0x3e,
   0x1c, 0x00, 0x00, 0x00, 0x63, 0x00, 0x3e, 0x00, 0x3e, 0x00, 0x3e, 0x00,
   0x3e, 0x00, 0x3f, 0x60, 0x66, 0x60, 0x7f, 0x00, 0x00, 0x00, 0x00, 0x00,
   0x03, 0x00, 0x00, 0x00, 0x3e, 0x00, 0x3e, 0x00, 0x3e, 0x3e, 0x1c, 0x3e,
   0x63, 0x3e, 0x67, 0x3e, 0x67, 0x3e, 0x67, 0x3e, 0x67, 0x3e, 0x66, 0x60,
   0x66, 0x60, 0x03, 0x3e, 0x7f, 0x3e, 0x7f, 0x3e, 0x03, 0x3e, 0x7f, 0x3e,
   0x63, 0x7e, 0x63, 0x7e, 0x63, 0x60, 0x3e, 0x60, 0x63, 0x60, 0x63, 0x67,
   0x63, 0x67, 0x63, 0x67, 0x63, 0x67, 0x66, 0x60, 0x66, 0x6e, 0x03, 0x63,
   0x03, 0x63, 0x03, 0x63, 0x1f, 0x63, 0x43, 0x63, 0x03, 0x33, 0x63, 0x33,
   0x63, 0x7e, 0x63, 0x7e, 0x7f, 0x7e, 0x03, 0x03, 0x03, 0x03, 0x03, 0x03,
   0x03, 0x03, 0x66, 0x6e, 0x6f, 0x73, 0x1f, 0x63, 0x03, 0x63, 0x03, 0x63,
   0x03, 0x63, 0x03, 0x63, 0x03, 0x33, 0x03, 0x33, 0x7f, 0x63, 0x63, 0x63,
   0x63, 0x63, 0x03, 0x03, 0x03, 0x03, 0x03, 0x03, 0x03, 0x03, 0x66, 0x73,
   0x66, 0x63, 0x03, 0x7f, 0x1f, 0x7f, 0x1f, 0x7f, 0x03, 0x7f, 0x1f, 0x7f,
   0x73, 0x33, 0x03, 0x33, 0x63, 0x63, 0x7f, 0x63, 0x63, 0x63, 0x63, 0x03,
   0x63, 0x03, 0x63, 0x03, 0x63, 0x03, 0x66, 0x63, 0x66, 0x63, 0x03, 0x03,
   0x03, 0x03, 0x03, 0x03, 0x03, 0x03, 0x03, 0x03, 0x63, 0x1e, 0x73, 0x1e,
   0x63, 0x73, 0x63, 0x73, 0x63, 0x73, 0x67, 0x67, 0x67, 0x67, 0x67, 0x67,
   0x67, 0x67, 0x66, 0x73, 0x66, 0x73, 0x03, 0x63, 0x03, 0x63, 0x03, 0x63,
   0x03, 0x63, 0x43, 0x63, 0x63, 0x0f, 0x63, 0x0f, 0x63, 0x6e, 0x63, 0x6e,
   0x63, 0x6e, 0x3e, 0x3e, 0x3e, 0x3e, 0x3e, 0x3e, 0x3e, 0x3e, 0x3f, 0x6e,
   0x3f, 0x6e, 0x7f, 0x3e, 0x7f, 0x3e, 0x7f, 0x3e, 0x7f, 0x3e, 0x7f, 0x3e,
   0x3e, 0x3e, 0x3e, 0x3e, 0x00, 0x00, 0x00, 0x00, 0x30, 0x30, 0x00, 0x00,
   0x00, 0x00, 0x00, 0x00, 0x00, 0x00, 0x00, 0x00, 0x00, 0x00, 0x00, 0x00,
   0x00, 0x00, 0x00, 0x00, 0x0c, 0x0c, 0x00, 0x00, 0x00, 0x63, 0x00, 0x63,
   0x00, 0x00, 0x00, 0x00, 0xe0, 0xe0, 0x00, 0x00, 0x00, 0x00, 0x00, 0x00,
   0x00, 0x00, 0x00, 0x00, 0x00, 0x00, 0x00, 0x00, 0x00, 0x00, 0x00, 0x00,
   0x3c, 0x3c, 0x00, 0x00, 0x00, 0x3e, 0x00, 0x3e, 0x00, 0x00, 0x00, 0x00,
   0x00, 0x00, 0x00, 0x00, 0x00, 0x00, 0x00, 0x00, 0x00, 0x00, 0x00, 0x00,
   0x00, 0x00, 0x00, 0x00, 0x00, 0x00, 0x00, 0x00, 0x00, 0x00, 0x00, 0x00,
   0x00, 0x00, 0x00, 0x00, 0x00, 0x00, 0x00, 0x00, 0x00, 0x00, 0x00, 0x00,
   0x00, 0x00, 0x00, 0x00, 0x00, 0x00, 0x00, 0x00, 0x00, 0x00, 0x00, 0x00,
   0x00, 0x00, 0x00, 0x00, 0x00, 0x00, 0x00, 0x00, 0x00, 0x00, 0x00, 0x00,
   0x00, 0x00, 0x00, 0x00, 0x00, 0x00, 0x00, 0x00, 0x00, 0x00, 0x00, 0x00,
   0x00, 0x00, 0x00, 0x00, 0x00, 0x00, 0x00, 0x00, 0x00, 0x00, 0x00, 0x00,
   0x00, 0x00, 0x00, 0x00, 0x00, 0x00, 0x00, 0x00, 0x18, 0x00, 0x00, 0x18,
   0x00, 0x00, 0x00, 0x00, 0x2c, 0x00, 0x00, 0x00, 0x42, 0x00, 0x00, 0x00,
   0x18, 0x00, 0x00, 0x00, 0x00, 0x00, 0x00, 0x00, 0x00, 0x00, 0x30, 0x00,
   0x00, 0x36, 0x36, 0x00, 0x18, 0x18, 0x3e, 0x0c, 0x1c, 0x33, 0x66, 0x06,
   0x1a, 0x00, 0x7e, 0x00, 0x3c, 0x00, 0x3c, 0x00, 0x18, 0x00, 0x7f, 0x00,
   0x38, 0x38, 0x63, 0x03, 0x00, 0x30, 0x18, 0x03, 0x1c, 0x1c, 0x1c, 0x03,
   0x00, 0x18, 0x63, 0x1c, 0x36, 0x5b, 0x66, 0x3f, 0x00, 0x2c, 0x00, 0x00,
   0x00, 0x22, 0x18, 0x18, 0x00, 0x00, 0x66, 0x66, 0x6c, 0x6c, 0x63, 0x03,
   0x00, 0x18, 0x00, 0x03, 0x18, 0x00, 0x00, 0x03, 0x3e, 0x00, 0x63, 0x00,
   0x00, 0x03, 0xff, 0x06, 0x3c, 0x1a, 0x3c, 0x7e, 0x3c, 0x1c, 0x18, 0x18,
   0x3c, 0x00, 0x66, 0x66, 0x00, 0x00, 0x33, 0x03, 0x00, 0x03, 0x1c, 0x03,
   0x18, 0x03, 0x1c, 0x03, 0x63, 0x7e, 0x03, 0x7e, 0x63, 0x1b, 0x66, 0x36,
   0x18, 0x00, 0x18, 0x00, 0x18, 0x00, 0x18, 0x00, 0x18, 0x00, 0x66, 0x00,
   0x70, 0x70, 0x1b, 0x33, 0x33, 0x03, 0x18, 0x03, 0x18, 0x03, 0x18, 0x33,
   0x03, 0x33, 0x03, 0x33, 0x63, 0x37, 0x66, 0x6e, 0x18, 0x1c, 0x18, 0x1c,
   0x18, 0x1c, 0x18, 0x1c, 0x18, 0x1c, 0x66, 0x77, 0x60, 0x60, 0x0f, 0x1b,
   0x1b, 0x03, 0x18, 0x03, 0x18, 0x03, 0x18, 0x33, 0x03, 0x33, 0x03, 0x33,
   0x63, 0x33, 0x7e, 0x66, 0x18, 0x18, 0x18, 0x18, 0x18, 0x18, 0x18, 0x18,
   0x18, 0x18, 0x66, 0x66, 0x60, 0x60, 0x0f, 0x0f, 0x0f, 0x03, 0x18, 0x03,
   0x18, 0x03, 0x18, 0x03, 0x73, 0x33, 0x73, 0x33, 0x7f, 0x33, 0x66, 0x66,
   0x18, 0x18, 0x18, 0x18, 0x18, 0x18, 0x18, 0x18, 0x18, 0x18, 0x66, 0x66,
   0x60, 0x60, 0x1b, 0x0f, 0x0f, 0x03, 0x18, 0x03, 0x18, 0x03, 0x18, 0x03,
   0x63, 0x1e, 0x63, 0x1e, 0x63, 0x33, 0x66, 0x66, 0x18, 0x18, 0x18, 0x18,
   0x18, 0x18, 0x18, 0x18, 0x18, 0x18, 0x66, 0x66, 0x63, 0x60, 0x33, 0x1b,
   0x1b, 0x03, 0x18, 0x03, 0x18, 0x03, 0x18, 0x03, 0x63, 0x0f, 0x63, 0x0f,
   0x63, 0x33, 0x66, 0x66, 0x18, 0x18, 0x18, 0x18, 0x18, 0x18, 0x18, 0x18,
   0x18, 0x18, 0x66, 0x66, 0x63, 0x60, 0x63, 0x33, 0x33, 0x43, 0x18, 0x43,
   0x18, 0x43, 0x18, 0x43, 0x3e, 0x3e, 0x3e, 0x3e, 0x63, 0x33, 0x66, 0x66,
   0x3c, 0x3c, 0x3c, 0x3c, 0x3c, 0x3c, 0x3c, 0x3c, 0x3c, 0x3c, 0x6f, 0x6f,
   0x3e, 0x63, 0x63, 0x63, 0x63, 0x7f, 0x3c, 0x7f, 0x3c, 0x7f, 0x3c, 0x7f,
   0x00, 0x63, 0x18, 0x63, 0x00, 0x00, 0x00, 0x00, 0x00, 0x00, 0x00, 0x00,
   0x00, 0x00, 0x18, 0x18, 0x00, 0x00, 0x63, 0x63, 0x00, 0x63, 0x06, 0x06,
   0x00, 0x00, 0x00, 0x18, 0x18, 0x00, 0x00, 0x00, 0x00, 0x3e, 0x0c, 0x3e,
   0x00, 0x00, 0x00, 0x00, 0x00, 0x00, 0x00, 0x00, 0x00, 0x00, 0x30, 0x30,
   0x00, 0x00, 0x3e, 0x3e, 0x00, 0x3e, 0x03, 0x03, 0x00, 0x00, 0x00, 0x0c,
   0x0c, 0x00, 0x00, 0x00, 0x00, 0x00, 0x00, 0x00, 0x00, 0x00, 0x00, 0x00,
   0x00, 0x00, 0x00, 0x00, 0x00, 0x00, 0x00, 0x00, 0x00, 0x00, 0x00, 0x00,
   0x00, 0x00, 0x00, 0x00, 0x00, 0x00, 0x00, 0x00, 0x00, 0x00, 0x00, 0x00,
   0x00, 0x00, 0x00, 0x00, 0x00, 0x00, 0x00, 0x00, 0x00, 0x00, 0x00, 0x00,
   0x00, 0x00, 0x00, 0x00, 0x00, 0x00, 0x00, 0x00, 0x00, 0x00, 0x00, 0x00,
   0x00, 0x00, 0x00, 0x00, 0x00, 0x00, 0x00, 0x00, 0x00, 0x00, 0x00, 0x00,
   0x00, 0x00, 0x00, 0x00, 0x00, 0x00, 0x00, 0x00, 0x00, 0x00, 0x00, 0x00,
   0x00, 0x00, 0x00, 0x00, 0x00, 0x00, 0x00, 0x00, 0x00, 0x00, 0x00, 0x00,
   0x00, 0x00, 0x00, 0x00, 0x00, 0x00, 0x00, 0x30, 0x00, 0x00, 0x00, 0x36,
   0x00, 0x06, 0x00, 0x00, 0x00, 0x00, 0x22, 0x00, 0x66, 0x00, 0x00, 0x00,
   0x18, 0x00, 0x00, 0x00, 0x36, 0x00, 0x18, 0x00, 0x1c, 0x00, 0x00, 0x00,
   0x0e, 0x06, 0x1c, 0x18, 0x30, 0x63, 0x00, 0x1c, 0x36, 0x04, 0x63, 0x00,
   0x3e, 0x00, 0x1c, 0x22, 0x33, 0x66, 0x7e, 0x00, 0x0c, 0x18, 0x3f, 0x00,
   0x1c, 0x36, 0x0c, 0x00, 0x36, 0x00, 0x3e, 0x00, 0x0c, 0x06, 0x18, 0x00,
   0x18, 0x63, 0x00, 0x00, 0x1c, 0x02, 0x63, 0x00, 0x00, 0x3e, 0x00, 0x1c,
   0x00, 0x33, 0x1b, 0x00, 0x00, 0x0c, 0x63, 0x00, 0x00, 0x1c, 0x00, 0x18,
   0x00, 0x1c, 0x63, 0x00, 0x0c, 0x16, 0x58, 0x63, 0x00, 0x67, 0x00, 0x63,
   0x00, 0x00, 0x67, 0x00, 0x3e, 0x00, 0x3e, 0x00, 0x3e, 0x00, 0x1b, 0x00,
   0x3f, 0x00, 0x63, 0x00, 0x3f, 0x00, 0x3e, 0x0c, 0x3e, 0x36, 0x63, 0x00,
   0x6c, 0x1e, 0x78, 0x67, 0x3b, 0x67, 0x3b, 0x67, 0x3b, 0x3b, 0x67, 0x3b,
   0x63, 0x3e, 0x63, 0x3e, 0x63, 0x3e, 0x1b, 0x76, 0x63, 0x3b, 0x63, 0x3b,
   0x63, 0x3b, 0x63, 0x00, 0x63, 0x00, 0x03, 0x3e, 0x6c, 0x0e, 0x38, 0x67,
   0x67, 0x6f, 0x67, 0x67, 0x67, 0x67, 0x6f, 0x67, 0x63, 0x63, 0x63, 0x63,
   0x63, 0x63, 0x3b, 0xdb, 0x63, 0x67, 0x3f, 0x67, 0x63, 0x67, 0x03, 0x3e,
   0x03, 0x3e, 0x3e, 0x63, 0x0c, 0x07, 0x1c, 0x6f, 0x63, 0x7b, 0x63, 0x6f,
   0x63, 0x63, 0x7b, 0x63, 0x63, 0x63, 0x63, 0x63, 0x63, 0x63, 0x1b, 0xdb,
   0x3f, 0x03, 0x1f, 0x03, 0x3f, 0x03, 0x3e, 0x63, 0x3e, 0x63, 0x60, 0x06,
   0x0c, 0x07, 0x1e, 0x7b, 0x63, 0x73, 0x63, 0x7b, 0x63, 0x63, 0x73, 0x63,
   0x63, 0x63, 0x63, 0x63, 0x63, 0x63, 0x1b, 0x7b, 0x1f, 0x03, 0x33, 0x03,
   0x1f, 0x03, 0x60, 0x0e, 0x60, 0x0e, 0x60, 0x1c, 0x0c, 0x06, 0x1a, 0x73,
   0x63, 0x73, 0x63, 0x73, 0x63, 0x63, 0x73, 0x63, 0x63, 0x63, 0x63, 0x63,
   0x63, 0x63, 0x1b, 0x1b, 0x33, 0x03, 0x33, 0x03, 0x33, 0x03, 0x60, 0x38,
   0x60, 0x38, 0x63, 0x30, 0x0c, 0x46, 0x18, 0x73, 0x63, 0x63, 0x63, 0x73,
   0x63, 0x63, 0x63, 0x63, 0x63, 0x63, 0x63, 0x63, 0x63, 0x63, 0x1b, 0xdb,
   0x33, 0x03, 0x63, 0x03, 0x33, 0x03, 0x63, 0x63, 0x63, 0x63, 0x63, 0x63,
   0x1e, 0x7e, 0x3c, 0x63, 0x63, 0x63, 0x63, 0x63, 0x63, 0x63, 0x63, 0x63,
   0x3e, 0x3e, 0x3e, 0x3e, 0x3e, 0x3e, 0x7e, 0x76, 0x63, 0x03, 0x63, 0x03,
   0x63, 0x03, 0x3e, 0x3e, 0x3e, 0x3e, 0x3e, 0x3e, 0x00, 0x00, 0x00, 0x00,
   0x00, 0x06, 0x06, 0x00, 0x00, 0x00, 0x60, 0x60, 0x00, 0x00, 0x00, 0x00,
   0x00, 0x00, 0x00, 0x00, 0x00, 0x00, 0x06, 0x06, 0x00, 0x00, 0x00, 0x00,
   0x00, 0x00, 0x18, 0x18, 0x00, 0x00, 0x00, 0x00, 0x00, 0x03, 0x03, 0x00,
   0x00, 0x00, 0x38, 0x38, 0x00, 0x00, 0x00, 0x00, 0x00, 0x00, 0x00, 0x00,
   0x00, 0x00, 0x03, 0x03, 0x00, 0x00, 0x00, 0x00, 0x00, 0x00, 0x0c, 0x0c,
   0x00, 0x00, 0x00, 0x00, 0x00, 0x00, 0x00, 0x00, 0x00, 0x00, 0x00, 0x00,
   0x00, 0x00, 0x00, 0x00, 0x00, 0x00, 0x00, 0x00, 0x00, 0x00, 0x00, 0x00,
   0x00, 0x00, 0x00, 0x00, 0x00, 0x00, 0x00, 0x00, 0x00, 0x00, 0x00, 0x00,
   0x00, 0x00, 0x00, 0x00, 0x00, 0x00, 0x00, 0x00, 0x00, 0x00, 0x00, 0x00,
   0x00, 0x00, 0x00, 0x00, 0x00, 0x00, 0x00, 0x00, 0x00, 0x00, 0x00, 0x00,
   0x00, 0x00, 0x00, 0x00, 0x00, 0x00, 0x00, 0x00, 0x00, 0x00, 0x00, 0x00,
   0x00, 0x00, 0x00, 0x00, 0x00, 0x00, 0x00, 0x00, 0x00, 0x00, 0x00, 0x00,
   0x00, 0x00, 0x00, 0x00, 0x00, 0x00, 0x00, 0x00, 0x00, 0x00, 0x00, 0x00,
   0x36, 0x00, 0x00, 0x00, 0x36, 0x36, 0x00, 0x00, 0x2c, 0x00, 0x00, 0x00,
   0x22, 0x00, 0x18, 0x00, 0x66, 0x00, 0x00, 0x00, 0x1c, 0x00, 0x1c, 0x00,
   0x66, 0x00, 0x00, 0x00, 0x00, 0x00, 0x00, 0x00, 0x1c, 0x00, 0x7e, 0x06,
   0x1c, 0x1c, 0x7e, 0x06, 0x1a, 0x2c, 0x3e, 0x3e, 0x1c, 0x22, 0x24, 0x18,
   0x33, 0x66, 0x63, 0x00, 0x36, 0x1c, 0x36, 0x1c, 0x66, 0x18, 0x00, 0x18,
   0x00, 0x36, 0x00, 0x3c, 0x00, 0x36, 0x18, 0x06, 0x00, 0x00, 0x18, 0x06,
   0x00, 0x1a, 0x00, 0x00, 0x00, 0x1c, 0x18, 0x24, 0x00, 0x33, 0x63, 0x00,
   0x00, 0x36, 0x00, 0x36, 0x00, 0x0c, 0x18, 0x18, 0x18, 0x1c, 0x36, 0x66,
   0x3e, 0x1c, 0x18, 0x06, 0x7e, 0x06, 0x18, 0x3f, 0x63, 0x00, 0x63, 0x00,
   0x63, 0x00, 0x63, 0x18, 0x63, 0x00, 0x63, 0x00, 0x63, 0x00, 0x66, 0x00,
   0x66, 0x00, 0x0c, 0x00, 0x18, 0x00, 0x1c, 0x06, 0x63, 0x00, 0x18, 0x06,
   0x18, 0x06, 0x7e, 0x06, 0x63, 0x63, 0x63, 0x63, 0x63, 0x63, 0x63, 0x63,
   0x63, 0x63, 0x63, 0x63, 0x63, 0x63, 0x66, 0x63, 0x66, 0x7f, 0x00, 0x7f,
   0x00, 0x7f, 0x00, 0x06, 0x03, 0x3e, 0x18, 0x3f, 0x18, 0x3f, 0x18, 0x3f,
   0x63, 0x63, 0x63, 0x63, 0x63, 0x63, 0x63, 0x63, 0x63, 0x63, 0x63, 0x63,
   0x63, 0x63, 0x66, 0x63, 0x66, 0x30, 0x7f, 0x30, 0x7f, 0x30, 0x7f, 0x07,
   0x3e, 0x63, 0x18, 0x06, 0x18, 0x06, 0x18, 0x06, 0x63, 0x63, 0x63, 0x63,
   0x63, 0x63, 0x63, 0x63, 0x63, 0x63, 0x63, 0x63, 0x63, 0x63, 0x3c, 0x63,
   0x3c, 0x18, 0x30, 0x18, 0x30, 0x18, 0x30, 0x06, 0x60, 0x0e, 0x18, 0x06,
   0x18, 0x06, 0x18, 0x06, 0x63, 0x63, 0x63, 0x63, 0x63, 0x63, 0x63, 0x63,
   0x63, 0x63, 0x63, 0x63, 0x6b, 0x6b, 0x3c, 0x63, 0x3c, 0x0c, 0x18, 0x0c,
   0x18, 0x0c, 0x18, 0x06, 0x60, 0x38, 0x18, 0x06, 0x18, 0x06, 0x18, 0x06,
   0x63, 0x63, 0x63, 0x63, 0x63, 0x63, 0x63, 0x63, 0x63, 0x63, 0x63, 0x63,
   0x6b, 0x6b, 0x18, 0x73, 0x18, 0x06, 0x0c, 0x06, 0x0c, 0x06, 0x0c, 0x06,
   0x63, 0x63, 0x18, 0x66, 0x18, 0x66, 0x18, 0x66, 0x63, 0x73, 0x63, 0x73,
   0x63, 0x73, 0x63, 0x73, 0x63, 0x73, 0x63, 0x73, 0x7f, 0x7f, 0x18, 0x6e,
   0x18, 0x03, 0x06, 0x03, 0x06, 0x03, 0x06, 0x06, 0x3e, 0x3e, 0x18, 0x3c,
   0x18, 0x3c, 0x18, 0x3c, 0x3e, 0x6e, 0x3e, 0x6e, 0x3e, 0x6e, 0x3e, 0x6e,
   0x3e, 0x6e, 0x3e, 0x6e, 0x36, 0x36, 0x18, 0x60, 0x18, 0x7f, 0x7f, 0x7f,
   0x7f, 0x7f, 0x7f, 0x06, 0x00, 0x00, 0x30, 0x18, 0x00, 0x00, 0x00, 0x00,
   0x00, 0x00, 0x00, 0x00, 0x00, 0x00, 0x00, 0x00, 0x00, 0x00, 0x0c, 0x0c,
   0x00, 0x00, 0x00, 0x63, 0x00, 0x00, 0x00, 0x00, 0x00, 0x00, 0x00, 0x00,
   0x00, 0x00, 0x18, 0x0c, 0x00, 0x00, 0x00, 0x00, 0x00, 0x00, 0x00, 0x00,
   0x00, 0x00, 0x00, 0x00, 0x00, 0x00, 0x3c, 0x3c, 0x00, 0x00, 0x00, 0x3e,
   0x00, 0x00, 0x00, 0x00, 0x00, 0x00, 0x00, 0x00, 0x00, 0x00, 0x00, 0x00,
   0x00, 0x00, 0x00, 0x00, 0x00, 0x00, 0x00, 0x00, 0x00, 0x00, 0x00, 0x00,
   0x00, 0x00, 0x00, 0x00, 0x00, 0x00, 0x00, 0x00, 0x00, 0x00, 0x00, 0x00,
   0x00, 0x00, 0x00, 0x00, 0x00, 0x00, 0x00, 0x00, 0x00, 0x00, 0x00, 0x00,
   0x00, 0x00, 0x00, 0x00, 0x00, 0x00, 0x00, 0x00, 0x00, 0x00, 0x00, 0x00,
   0x00, 0x00, 0x00, 0x00, 0x00, 0x00, 0x00, 0x00, 0x00, 0x00, 0x00, 0x00,
   0x00, 0x00, 0x00, 0x00, 0x00, 0x00, 0x00, 0x00, 0x00, 0x00, 0x00, 0x00,
   0x00, 0x00, 0x00, 0x00, 0x00, 0x00, 0x00, 0x00, 0x00, 0x00, 0x00, 0x00,
   0x00, 0x00, 0x00, 0x00, 0x00, 0x00, 0x00, 0x00, 0x00, 0x00, 0x00, 0x00,
   0x00, 0x00, 0x00, 0x80, 0x00, 0x00, 0x00, 0x00, 0x00, 0x00, 0x00, 0x00,
   0x00, 0x00, 0x00, 0x80, 0x00, 0x00, 0x00, 0x00, 0x00, 0x00, 0x00, 0x00,
   0x00, 0x00, 0x00, 0x00, 0x06, 0x3f, 0x3f, 0x3e, 0x06, 0x06, 0x3e, 0xbe,
   0x00, 0x3f, 0x3f, 0x7e, 0x7c, 0x00, 0x7f, 0x00, 0x3e, 0xfc, 0x00, 0xbe,
   0x63, 0x03, 0x1c, 0x3c, 0x33, 0x0e, 0x1c, 0x1b, 0x63, 0x66, 0x00, 0x3e,
   0x0f, 0x6d, 0x03, 0x06, 0x07, 0x07, 0x73, 0x67, 0x00, 0x66, 0x6d, 0x60,
   0x60, 0x00, 0x60, 0x3e, 0x63, 0x0c, 0x70, 0x63, 0x63, 0x03, 0x18, 0x18,
   0x53, 0x13, 0x18, 0x0e, 0x63, 0x66, 0x00, 0x63, 0x06, 0x6d, 0x03, 0x06,
   0x07, 0x07, 0x63, 0x63, 0x80, 0x66, 0x6d, 0x60, 0x60, 0x00, 0x60, 0x63,
   0x03, 0x0c, 0xd8, 0x63, 0x63, 0x03, 0x18, 0x18, 0x5b, 0x03, 0x18, 0x0f,
   0x63, 0x66, 0x00, 0x63, 0x36, 0x6c, 0x03, 0x36, 0x06, 0x36, 0x60, 0x03,
   0xbe, 0x66, 0x6c, 0x60, 0x6c, 0x3e, 0x60, 0x60, 0x06, 0x0c, 0x18, 0x03,
   0x63, 0x4f, 0x18, 0x18, 0x0f, 0x33, 0x18, 0x19, 0x6b, 0x6e, 0x3b, 0x63,
   0x6e, 0x3c, 0x3f, 0x6e, 0x3e, 0x6e, 0x60, 0x03, 0x67, 0x6f, 0x6c, 0x7e,
   0x76, 0x63, 0x7c, 0x60, 0x0c, 0x3c, 0x18, 0x03, 0x36, 0x5b, 0x18, 0x7e,
   0x07, 0x1b, 0x7e, 0x1c, 0x6b, 0x6e, 0x67, 0x7f, 0x66, 0x6c, 0x63, 0x66,
   0x66, 0x66, 0x60, 0x03, 0x03, 0x66, 0x6c, 0x63, 0x66, 0x63, 0x60, 0x7f,
   0x06, 0x0c, 0x7e, 0x03, 0x36, 0x5b, 0x18, 0x18, 0x0f, 0x0f, 0x18, 0x36,
   0x6b, 0x7e, 0x63, 0x63, 0x66, 0x6c, 0x63, 0x66, 0x66, 0x66, 0x60, 0x03,
   0x03, 0x66, 0x6c, 0x63, 0x66, 0x63, 0x60, 0x63, 0x03, 0x0c, 0x18, 0x73,
   0x1c, 0x5b, 0x18, 0x18, 0x1b, 0x0f, 0x18, 0x36, 0x6b, 0x76, 0x63, 0x63,
   0x66, 0x6c, 0x63, 0x66, 0x66, 0x66, 0x63, 0x63, 0x03, 0x66, 0x6c, 0x63,
   0x66, 0x63, 0x60, 0x63, 0x03, 0x0c, 0x18, 0x63, 0x36, 0x5b, 0x18, 0x18,
   0x33, 0x1b, 0x18, 0x63, 0x6b, 0x66, 0x63, 0x63, 0x36, 0x6c, 0x63, 0x36,
   0x66, 0x36, 0x73, 0x67, 0x67, 0x66, 0x6c, 0x63, 0x6c, 0x63, 0x60, 0x63,
   0x63, 0x0c, 0x18, 0x63, 0x36, 0x5b, 0x58, 0x18, 0x63, 0x33, 0x18, 0x63,
   0x7f, 0x66, 0x63, 0x63, 0x1c, 0x3e, 0x3f, 0x1c, 0x3e, 0x1c, 0x3e, 0x3e,
   0x3e, 0x3f, 0x3e, 0x7e, 0x38, 0x3e, 0x7f, 0x3e, 0x3e, 0x0c, 0x18, 0x3e,
   0x1c, 0x33, 0x30, 0x3c, 0x63, 0x63, 0x7e, 0x63, 0xd6, 0x66, 0x63, 0x3e,
   0x00, 0x00, 0x00, 0x00, 0x00, 0x00, 0x00, 0x00, 0x00, 0x00, 0x00, 0x00,
   0x00, 0x18, 0x00, 0x00, 0x00, 0x0d, 0x1b, 0x00, 0x00, 0x00, 0x00, 0x00,
   0x00, 0x00, 0x00, 0x00, 0x00, 0x06, 0x60, 0x00, 0x00, 0x00, 0x00, 0x00,
   0x00, 0x00, 0x00, 0x00, 0x00, 0x00, 0x00, 0x00, 0x00, 0x0e, 0x00, 0x00,
   0x00, 0x06, 0x0e, 0x00, 0x00, 0x00, 0x00, 0x00, 0x00, 0x00, 0x00, 0x00,
   0x00, 0x03, 0x60, 0x00, 0x00, 0x00, 0x00, 0x00, 0x00, 0x00, 0x00, 0x00,
   0x00, 0x00, 0x00, 0x00, 0x00, 0x00, 0x00, 0x00, 0x00, 0x00, 0x00, 0x00,
   0x00, 0x00, 0x00, 0x00, 0x00, 0x00, 0x00, 0x00, 0x00, 0x00, 0x00, 0x00,
   0x00, 0x00, 0x00, 0x00, 0x00, 0x00, 0x00, 0x00, 0x00, 0x00, 0x00, 0x00,
   0x00, 0x00, 0x00, 0x00, 0x00, 0x00, 0x00, 0x00, 0x00, 0x00, 0x00, 0x00,
   0x00, 0x00, 0x00, 0x00, 0x00, 0x00, 0x00, 0x00, 0x00, 0x00, 0x00, 0x00,
   0x00, 0x00, 0x00, 0x00, 0x00, 0x00, 0x00, 0x00, 0x00, 0x00, 0x00, 0x00,
   0x00, 0x00, 0x00, 0x00, 0x00, 0x00, 0x00, 0x00, 0x00, 0x00, 0x00, 0x00,
   0x00, 0x00, 0x00, 0x00, 0x00, 0x00, 0x00, 0x00, 0x00, 0x00, 0x00, 0x00,
   0x00, 0x00, 0x00, 0x00, 0x00, 0x00, 0x00, 0x00, 0x00, 0x00, 0x00, 0x00,
   0x00, 0x00, 0x00, 0x00, 0x00, 0x00, 0x00, 0x00, 0x00, 0x00, 0x00, 0x00,
   0x9e, 0x00, 0x2e, 0x00, 0x3f, 0x00, 0x03, 0x3e, 0x00, 0x7f, 0x0e, 0x06,
   0x7f, 0x1c, 0x3f, 0xb3, 0x00, 0x63, 0x1b, 0x00, 0x00, 0x7f, 0x00, 0x7f,
   0x7f, 0x00, 0x00, 0x3e, 0x7f, 0x00, 0x18, 0x00, 0xb3, 0x00, 0x5b, 0x00,
   0x6d, 0x00, 0x03, 0x63, 0x00, 0x43, 0x19, 0x06, 0x19, 0x26, 0x0c, 0xb3,
   0x00, 0x36, 0x33, 0x67, 0x00, 0x60, 0x00, 0x60, 0x03, 0x00, 0x00, 0x63,
   0x43, 0x7e, 0x18, 0x00, 0x73, 0x00, 0x5b, 0x00, 0x6d, 0x00, 0x3f, 0x63,
   0x00, 0x03, 0x19, 0x06, 0x19, 0x06, 0x0c, 0x73, 0x00, 0x36, 0x33, 0x6d,
   0x40, 0x60, 0x00, 0x30, 0x06, 0x00, 0x7e, 0x63, 0x03, 0x46, 0x7e, 0x38,
   0x33, 0x9e, 0x5b, 0x2e, 0x6c, 0x9b, 0x63, 0x60, 0x3e, 0x06, 0x1e, 0x06,
   0x18, 0x06, 0x0c, 0x33, 0xb3, 0x36, 0x63, 0x6d, 0xb3, 0x30, 0x7f, 0x18,
   0x0c, 0x7f, 0x30, 0x60, 0x3b, 0x06, 0x18, 0x67, 0x33, 0xb3, 0x5b, 0x5b,
   0x6c, 0xb7, 0x63, 0x3e, 0x63, 0x0c, 0x18, 0x3f, 0x18, 0x3f, 0x0c, 0x33,
   0xb3, 0x63, 0x63, 0x3c, 0xb3, 0x7f, 0x30, 0x3c, 0x1e, 0x06, 0x18, 0x30,
   0x67, 0x36, 0x38, 0x63, 0x33, 0x73, 0x5b, 0x5b, 0x3c, 0x73, 0x63, 0x03,
   0x30, 0x0c, 0x18, 0x06, 0x18, 0x06, 0x0c, 0x33, 0x73, 0x63, 0x63, 0x38,
   0x33, 0x0c, 0x18, 0x60, 0x03, 0x0c, 0x3c, 0x7f, 0x60, 0x6e, 0x60, 0x63,
   0x33, 0x33, 0x5b, 0x5b, 0x0c, 0x33, 0x3f, 0x03, 0x1c, 0x06, 0x18, 0x06,
   0x18, 0x06, 0x0c, 0x33, 0x33, 0x63, 0x63, 0x18, 0x33, 0x06, 0x3f, 0x60,
   0x03, 0x1e, 0x60, 0x0c, 0x60, 0x60, 0x60, 0x63, 0x33, 0x33, 0x5b, 0x5b,
   0x0c, 0x33, 0x1f, 0x63, 0x06, 0x03, 0x18, 0x06, 0x18, 0x06, 0x0c, 0x33,
   0x33, 0x63, 0x63, 0x18, 0x3b, 0x03, 0x06, 0x61, 0x43, 0x03, 0x60, 0x06,
   0x60, 0x60, 0x60, 0x33, 0x33, 0x33, 0x5b, 0x5b, 0x0c, 0x37, 0x33, 0x63,
   0x63, 0x43, 0x58, 0x36, 0x18, 0x66, 0x4c, 0x33, 0x3b, 0x63, 0x63, 0x18,
   0x36, 0x03, 0x03, 0x33, 0x66, 0x03, 0x30, 0x03, 0x63, 0x66, 0x66, 0x1b,
   0x1e, 0x1e, 0x4e, 0x4e, 0x0c, 0x1b, 0x33, 0x3e, 0x3e, 0x7f, 0x58, 0x6c,
   0x18, 0x3c, 0x4c, 0x1e, 0x36, 0x3e, 0x3e, 0x18, 0x30, 0x7f, 0x7f, 0x1e,
   0x3c, 0x43, 0x1c, 0x7f, 0x3e, 0x3c, 0x3c, 0x0f, 0x00, 0x00, 0x40, 0x40,
   0x00, 0x03, 0x60, 0x00, 0x00, 0x00, 0x30, 0x60, 0x00, 0x00, 0x38, 0x00,
   0x00, 0x00, 0x00, 0x00, 0x33, 0x00, 0x00, 0x00, 0x00, 0x66, 0x46, 0x00,
   0x00, 0x00, 0x00, 0x03, 0x00, 0x00, 0x40, 0x40, 0x00, 0x03, 0x60, 0x00,
   0x00, 0x00, 0x00, 0x30, 0x00, 0x00, 0x00, 0x00, 0x00, 0x00, 0x00, 0x00,
   0x1e, 0x00, 0x00, 0x00, 0x00, 0x3c, 0x3c, 0x00, 0x00, 0x00, 0x00, 0x03,
   0x00, 0x00, 0x00, 0x00, 0x00, 0x00, 0x00, 0x00, 0x00, 0x00, 0x00, 0x00,
   0x00, 0x00, 0x00, 0x00, 0x00, 0x00, 0x00, 0x00, 0x00, 0x00, 0x00, 0x00,
   0x00, 0x00, 0x00, 0x00, 0x00, 0x00, 0x00, 0x00, 0x00, 0x00, 0x00, 0x00,
   0x00, 0x00, 0x00, 0x00, 0x00, 0x00, 0x00, 0x00, 0x00, 0x00, 0x00, 0x00,
   0x00, 0x00, 0x00, 0x00, 0x00, 0x00, 0x00, 0x00, 0x00, 0x00, 0x00, 0x00,
   0x00, 0x00, 0x00, 0x00, 0x00, 0x00, 0x00, 0x00, 0x00, 0x00, 0x00, 0x00,
   0x00, 0x00, 0x00, 0x00, 0x00, 0x00, 0x00, 0x00, 0x00, 0x00, 0x00, 0x00,
   0x00, 0x00, 0x00, 0x00, 0x00, 0x00, 0x00, 0x00, 0x00, 0x00, 0x00, 0x00,
   0x00, 0x00, 0x00, 0x00, 0xa0, 0xa0, 0xa0, 0x00, 0x00, 0x00, 0x00, 0x00,
   0x00, 0x00, 0x00, 0x24, 0x00, 0x24, 0x00, 0x24, 0x00, 0x3e, 0x3e, 0x10,
   0x10, 0x14, 0x14, 0x04, 0x04, 0x00, 0x3e, 0x3e, 0x18, 0x36, 0x18, 0x18,
   0x4f, 0x4f, 0x58, 0xe3, 0x03, 0x07, 0xcf, 0x0f, 0x00, 0x24, 0x24, 0x18,
   0x00, 0x18, 0x24, 0x18, 0x24, 0x00, 0x00, 0x08, 0x08, 0x08, 0x08, 0x08,
   0x08, 0x00, 0x00, 0x00, 0x18, 0x36, 0x18, 0x3c, 0xfb, 0x1b, 0x18, 0xc3,
   0xc3, 0xc6, 0xdf, 0xdf, 0x00, 0x18, 0x18, 0x00, 0x24, 0x00, 0x18, 0x00,
   0x18, 0x63, 0x22, 0x63, 0x00, 0x63, 0x00, 0x63, 0x00, 0x00, 0x36, 0x36,
   0x18, 0x36, 0x18, 0x3c, 0x9b, 0x1b, 0x18, 0xc3, 0xc3, 0xc6, 0xdb, 0xdb,
   0xcd, 0x00, 0x00, 0x3c, 0x18, 0x3e, 0x00, 0x63, 0x00, 0x00, 0x22, 0x00,
   0x63, 0x00, 0x63, 0x00, 0x63, 0x00, 0x00, 0x00, 0x18, 0x36, 0x18, 0x3c,
   0x9b, 0xfb, 0xfe, 0xc3, 0x03, 0x06, 0xdb, 0x1b, 0xdb, 0x1c, 0x3e, 0x18,
   0x00, 0x63, 0x3e, 0x63, 0x63, 0x63, 0x00, 0x63, 0x00, 0x63, 0x00, 0x63,
   0x00, 0x3e, 0x1c, 0x3e, 0x18, 0x36, 0x7e, 0x18, 0x5b, 0x9b, 0x9b, 0xc3,
   0xe3, 0xe6, 0xdb, 0xfb, 0x1b, 0x3e, 0x60, 0x18, 0x1c, 0x63, 0x63, 0x63,
   0x63, 0x63, 0x63, 0x63, 0x63, 0x63, 0x63, 0x63, 0x63, 0x63, 0x3e, 0x60,
   0x18, 0x36, 0x18, 0x18, 0x5b, 0x9b, 0x9b, 0xc3, 0xc3, 0xc6, 0xdb, 0xdb,
   0xdb, 0x63, 0x7e, 0x18, 0x18, 0x63, 0x63, 0x63, 0x63, 0x63, 0x63, 0x63,
   0x63, 0x63, 0x63, 0x63, 0x63, 0x60, 0x63, 0x7e, 0x18, 0x36, 0x7e, 0x00,
   0x5b, 0x5b, 0x5b, 0xc3, 0xc3, 0xc6, 0xdb, 0xdb, 0xdb, 0x63, 0x63, 0x18,
   0x18, 0x63, 0x63, 0x63, 0x63, 0x63, 0x63, 0x63, 0x63, 0x63, 0x63, 0x63,
   0x63, 0x7f, 0x63, 0x63, 0x18, 0x36, 0x18, 0x00, 0x3b, 0x3b, 0x3b, 0xc3,
   0xc3, 0xc6, 0xdb, 0xdb, 0xdb, 0x7f, 0x63, 0x18, 0x18, 0x63, 0x63, 0x63,
   0x63, 0x63, 0x63, 0x63, 0x63, 0x63, 0x63, 0x63, 0x63, 0x63, 0x7f, 0x63,
   0x18, 0x36, 0x18, 0x18, 0x3b, 0x3b, 0x3b, 0xcf, 0xcf, 0xcf, 0xdb, 0xdb,
   0xdb, 0x63, 0x73, 0x18, 0x18, 0x63, 0x63, 0x63, 0x73, 0x63, 0x73, 0x63,
   0x73, 0x63, 0x73, 0x63, 0x73, 0x63, 0x63, 0x73, 0x18, 0x36, 0x18, 0x18,
   0xef, 0xef, 0xfe, 0xc0, 0xc0, 0xc0, 0xc0, 0xc0, 0xc0, 0x63, 0x6e, 0x3c,
   0x3c, 0x3e, 0x3e, 0x3e, 0x6e, 0x3e, 0x6e, 0x3e, 0x6e, 0x3e, 0x6e, 0x3e,
   0x6e, 0x3e, 0x63, 0x6e, 0x18, 0x36, 0x18, 0x00, 0x00, 0x00, 0x00, 0xc6,
   0xc6, 0xc6, 0xc6, 0xc6, 0xc6, 0x00, 0x00, 0x00, 0x00, 0x00, 0x00, 0x00,
   0x00, 0x00, 0x00, 0x00, 0x00, 0x00, 0x00, 0x00, 0x00, 0x00, 0x00, 0x00,
   0x18, 0x36, 0x18, 0x00, 0x00, 0x00, 0x00, 0x7c, 0x7c, 0x7c, 0x7c, 0x7c,
   0x7c, 0x00, 0x00, 0x00, 0x00, 0x00, 0x00, 0x00, 0x00, 0x00, 0x00, 0x00,
   0x00, 0x00, 0x00, 0x00, 0x00, 0x00, 0x00, 0x00, 0x00, 0x00, 0x00, 0x00,
   0x00, 0x00, 0x00, 0x00, 0x00, 0x00, 0x00, 0x00, 0x00, 0x00, 0x00, 0x00,
   0x00, 0x00, 0x00, 0x00, 0x00, 0x00, 0x00, 0x00, 0x00, 0x00, 0x00, 0x00,
   0x00, 0x00, 0x00, 0x00, 0x00, 0x00, 0x00, 0x00, 0x00, 0x00, 0x00, 0x00,
   0x00, 0x00, 0x00, 0x00, 0x00, 0x00, 0x00, 0x00, 0x00, 0x00, 0x00, 0x00,
   0x00, 0x00, 0x00, 0x00, 0x00, 0x00, 0x00, 0x00, 0x00, 0x00, 0x00, 0x00,
   0x00, 0x00, 0x00, 0x00, 0x00, 0x00, 0x00, 0x00, 0x00, 0x00, 0x00, 0x00,
   0x00, 0x00, 0x00, 0x00, 0x00, 0x00, 0x00, 0x00, 0x00, 0x00, 0x00, 0x00,
   0x00, 0x00, 0x00, 0x00, 0x00, 0x00, 0x00, 0x00, 0x3e, 0x7e, 0x7e, 0x00,
   0x00, 0x00, 0x24, 0x00, 0x24, 0x00, 0x00, 0x00, 0x3e, 0x00, 0x24, 0x00,
   0x00, 0x00, 0x00, 0x00, 0x30, 0x00, 0x00, 0x00, 0x00, 0x00, 0x18, 0x30,
   0x30, 0x00, 0x30, 0x00, 0x00, 0x00, 0x00, 0x00, 0x3e, 0x00, 0x18, 0x24,
   0x18, 0x53, 0x3e, 0x00, 0x00, 0x00, 0x18, 0x24, 0x00, 0xef, 0x0f, 0x18,
   0x18, 0x30, 0x00, 0x00, 0x00, 0x00, 0x0c, 0x18, 0x18, 0x30, 0x18, 0x30,
   0x0c, 0x18, 0x7e, 0x3e, 0x63, 0x00, 0x00, 0x18, 0x00, 0x23, 0x63, 0x00,
   0x3e, 0x3e, 0x00, 0x18, 0x48, 0x9b, 0x1b, 0x18, 0x00, 0x18, 0x00, 0x00,
   0x00, 0x00, 0x1c, 0x18, 0x00, 0x18, 0x40, 0x18, 0x00, 0x00, 0x1f, 0x00,
   0x63, 0x7c, 0x3e, 0x00, 0x63, 0x03, 0x63, 0x00, 0x63, 0x00, 0x7f, 0x00,
   0x30, 0x9b, 0x1b, 0x18, 0x3e, 0x00, 0x00, 0x00, 0x00, 0x00, 0x22, 0x24,
   0x7e, 0x00, 0x3e, 0x40, 0x1c, 0x3e, 0x1b, 0x36, 0x03, 0x36, 0x63, 0x7e,
   0x33, 0x33, 0x63, 0x3e, 0x63, 0x3e, 0x30, 0x7f, 0x00, 0x9b, 0xfb, 0xfe,
   0x63, 0x7e, 0x00, 0x00, 0x00, 0x00, 0x1c, 0x3e, 0x1f, 0x36, 0x73, 0x3e,
   0x3e, 0x60, 0x1b, 0x5b, 0x03, 0x36, 0x63, 0x33, 0x1b, 0x1b, 0x63, 0x63,
   0x63, 0x63, 0x18, 0x30, 0x70, 0x5b, 0x9b, 0x9b, 0x63, 0x33, 0x00, 0x00,
   0x00, 0x00, 0x3e, 0x60, 0x1b, 0x5b, 0x6b, 0x73, 0x63, 0x7e, 0x1b, 0x58,
   0x73, 0x1c, 0x03, 0x33, 0x0f, 0x0f, 0x63, 0x63, 0x63, 0x63, 0x3c, 0x18,
   0x60, 0x5b, 0x9b, 0x9b, 0x03, 0x33, 0x00, 0x00, 0x00, 0x00, 0x63, 0x7e,
   0x1b, 0x58, 0x6b, 0x6b, 0x63, 0x63, 0x3f, 0x3e, 0x63, 0x0e, 0x73, 0x33,
   0x0f, 0x0f, 0x63, 0x63, 0x63, 0x63, 0x60, 0x3c, 0x60, 0x5b, 0x5b, 0x5b,
   0x73, 0x33, 0x00, 0x00, 0x00, 0x00, 0x63, 0x63, 0x3f, 0x3e, 0x6b, 0x6b,
   0x7f, 0x63, 0x1b, 0x1b, 0xf3, 0x3c, 0x63, 0x1e, 0x1b, 0x1b, 0x63, 0x63,
   0x63, 0x63, 0x61, 0x60, 0x60, 0x3b, 0x3b, 0x3b, 0x63, 0x1e, 0x00, 0x00,
   0x00, 0x00, 0x7f, 0x63, 0x1b, 0x1b, 0x6b, 0x6b, 0x63, 0x73, 0x1b, 0x5b,
   0x63, 0x66, 0x63, 0x0f, 0x33, 0x33, 0x63, 0x63, 0x63, 0x63, 0x33, 0x60,
   0x60, 0x3b, 0x3b, 0x3b, 0x63, 0x0f, 0x00, 0x00, 0x00, 0x00, 0x63, 0x73,
   0x1b, 0x5b, 0x67, 0x67, 0x63, 0x6e, 0x7b, 0x36, 0x3e, 0xff, 0x3e, 0x3e,
   0x63, 0x63, 0x3e, 0x3e, 0x3e, 0x3e, 0x1e, 0x61, 0x63, 0xef, 0xef, 0xfe,
   0x3e, 0x3e, 0x00, 0x00, 0x00, 0x00, 0x63, 0x6e, 0x7b, 0x36, 0x3e, 0x3e,
   0x00, 0x00, 0x00, 0x00, 0x00, 0x66, 0x00, 0x63, 0x00, 0x00, 0x0c, 0x0c,
   0x0c, 0x0c, 0x00, 0x33, 0x63, 0x00, 0x00, 0x00, 0x00, 0x63, 0x00, 0x00,
   0x00, 0x00, 0x00, 0x00, 0x00, 0x00, 0x01, 0x01, 0x00, 0x00, 0x00, 0x00,
   0x00, 0x3c, 0x00, 0x3e, 0x00, 0x00, 0x1c, 0x1c, 0x1c, 0x1c, 0x00, 0x1e,
   0x3e, 0x00, 0x00, 0x00, 0x00, 0x3e, 0x00, 0x00, 0x00, 0x00, 0x00, 0x00,
   0x00, 0x00, 0x00, 0x00, 0x00, 0x00, 0x00, 0x00, 0x00, 0x00, 0x00, 0x00,
   0x00, 0x00, 0x00, 0x00, 0x00, 0x00, 0x00, 0x00, 0x00, 0x00, 0x00, 0x00,
   0x00, 0x00, 0x00, 0x00, 0x00, 0x00, 0x00, 0x00, 0x00, 0x00, 0x00, 0x00,
   0x00, 0x00, 0x00, 0x00, 0x00, 0x00, 0x00, 0x00, 0x00, 0x00, 0x00, 0x00,
   0x00, 0x00, 0x00, 0x00, 0x00, 0x00, 0x00, 0x00, 0x00, 0x00, 0x00, 0x00,
   0x00, 0x00, 0x00, 0x00, 0x00, 0x00, 0x00, 0x00, 0x00, 0x00, 0x00, 0x00,
   0x00, 0x00, 0x00, 0x00, 0x00, 0x00, 0x00, 0x00, 0x00, 0x00, 0x00, 0x00,
   0x00, 0x00, 0x00, 0x00, 0x00, 0x00, 0x00, 0x00, 0x00, 0x00, 0x00, 0x00,
   0x00, 0x00, 0x00, 0x00 };
