#define u001F00_u001FFF_width 256
#define u001F00_u001FFF_height 128
static unsigned char u001F00_u001FFF_bits[] = {
   0x1c, 0x1c, 0x3e, 0x3e, 0x6e, 0x6e, 0x4c, 0x4c, 0x00, 0x00, 0x00, 0x00,
   0x00, 0x00, 0x00, 0x00, 0x1c, 0x1c, 0x3e, 0x3e, 0x6e, 0x6e, 0x00, 0x00,
   0x00, 0x00, 0x00, 0x00, 0x00, 0x00, 0x00, 0x00, 0x18, 0x0c, 0x6c, 0x66,
   0x3c, 0x36, 0x3a, 0x3a, 0x13, 0x13, 0x13, 0x13, 0x13, 0x13, 0x13, 0x13,
   0x18, 0x0c, 0x6c, 0x66, 0x3c, 0x36, 0x00, 0x00, 0x7f, 0x7f, 0x7f, 0x7f,
   0x7f, 0x7f, 0x00, 0x00, 0x0c, 0x18, 0x06, 0x0c, 0x06, 0x0c, 0x30, 0x18,
   0x3a, 0x39, 0x3a, 0x39, 0x3a, 0x39, 0x38, 0x38, 0x0c, 0x18, 0x06, 0x0c,
   0x06, 0x0c, 0x00, 0x00, 0x0e, 0x0d, 0x0e, 0x0d, 0x0e, 0x0d, 0x00, 0x00,
   0x00, 0x00, 0x00, 0x00, 0x00, 0x00, 0x18, 0x30, 0x6d, 0x6e, 0x6d, 0x6e,
   0x6d, 0x6e, 0x6f, 0x6f, 0x00, 0x00, 0x00, 0x00, 0x00, 0x00, 0x00, 0x00,
   0x0d, 0x0e, 0x0d, 0x0e, 0x0d, 0x0e, 0x00, 0x00, 0x6e, 0x6e, 0x6e, 0x6e,
   0x6e, 0x6e, 0x6e, 0x6e, 0x6c, 0x6c, 0x6d, 0x6d, 0x6e, 0x6e, 0x6e, 0x6d,
   0x3e, 0x3e, 0x3e, 0x3e, 0x3e, 0x3e, 0x00, 0x00, 0x0c, 0x0c, 0x0d, 0x0d,
   0x0e, 0x0e, 0x00, 0x00, 0x73, 0x73, 0x73, 0x73, 0x73, 0x73, 0x73, 0x73,
   0x6c, 0x6c, 0x6e, 0x6e, 0x6d, 0x6d, 0x6d, 0x6e, 0x63, 0x63, 0x63, 0x63,
   0x63, 0x63, 0x00, 0x00, 0x3c, 0x3c, 0x3e, 0x3e, 0x3d, 0x3d, 0x00, 0x00,
   0x63, 0x63, 0x63, 0x63, 0x63, 0x63, 0x63, 0x63, 0x7c, 0x7c, 0x7c, 0x7c,
   0x7c, 0x7c, 0x7c, 0x7c, 0x03, 0x03, 0x03, 0x03, 0x03, 0x03, 0x00, 0x00,
   0x0c, 0x0c, 0x0c, 0x0c, 0x0c, 0x0c, 0x00, 0x00, 0x63, 0x63, 0x63, 0x63,
   0x63, 0x63, 0x63, 0x63, 0x6c, 0x6c, 0x6c, 0x6c, 0x6c, 0x6c, 0x6c, 0x6c,
   0x1e, 0x1e, 0x1e, 0x1e, 0x1e, 0x1e, 0x00, 0x00, 0x0c, 0x0c, 0x0c, 0x0c,
   0x0c, 0x0c, 0x00, 0x00, 0x73, 0x73, 0x73, 0x73, 0x73, 0x73, 0x73, 0x73,
   0x6c, 0x6c, 0x6c, 0x6c, 0x6c, 0x6c, 0x6c, 0x6c, 0x03, 0x03, 0x03, 0x03,
   0x03, 0x03, 0x00, 0x00, 0x0c, 0x0c, 0x0c, 0x0c, 0x0c, 0x0c, 0x00, 0x00,
   0x6b, 0x6b, 0x6b, 0x6b, 0x6b, 0x6b, 0x6b, 0x6b, 0x6c, 0x6c, 0x6c, 0x6c,
   0x6c, 0x6c, 0x6c, 0x6c, 0x63, 0x63, 0x63, 0x63, 0x63, 0x63, 0x00, 0x00,
   0x0c, 0x0c, 0x0c, 0x0c, 0x0c, 0x0c, 0x00, 0x00, 0x66, 0x66, 0x66, 0x66,
   0x66, 0x66, 0x66, 0x66, 0x6c, 0x6c, 0x6c, 0x6c, 0x6c, 0x6c, 0x6c, 0x6c,
   0x3e, 0x3e, 0x3e, 0x3e, 0x3e, 0x3e, 0x00, 0x00, 0x7c, 0x7c, 0x7c, 0x7c,
   0x7c, 0x7c, 0x00, 0x00, 0x00, 0x00, 0x00, 0x00, 0x00, 0x00, 0x00, 0x00,
   0x00, 0x00, 0x00, 0x00, 0x00, 0x00, 0x00, 0x00, 0x00, 0x00, 0x00, 0x00,
   0x00, 0x00, 0x00, 0x00, 0x00, 0x00, 0x00, 0x00, 0x00, 0x00, 0x00, 0x00,
   0x00, 0x00, 0x00, 0x00, 0x00, 0x00, 0x00, 0x00, 0x00, 0x00, 0x00, 0x00,
   0x00, 0x00, 0x00, 0x00, 0x00, 0x00, 0x00, 0x00, 0x00, 0x00, 0x00, 0x00,
   0x00, 0x00, 0x00, 0x00, 0x00, 0x00, 0x00, 0x00, 0x00, 0x00, 0x00, 0x00,
   0x00, 0x00, 0x00, 0x00, 0x00, 0x00, 0x00, 0x00, 0x00, 0x00, 0x00, 0x00,
   0x00, 0x00, 0x00, 0x00, 0x00, 0x00, 0x00, 0x00, 0x00, 0x00, 0x00, 0x00,
   0x00, 0x00, 0x00, 0x00, 0x00, 0x00, 0x00, 0x00, 0x00, 0x00, 0x00, 0x00,
   0x00, 0x00, 0x00, 0x00, 0x00, 0x00, 0x00, 0x00, 0x00, 0x00, 0x00, 0x00,
   0x00, 0x00, 0x00, 0x00, 0x00, 0x00, 0x00, 0x00, 0x00, 0x00, 0x00, 0x00,
   0x00, 0x00, 0x00, 0x00, 0x00, 0x00, 0x00, 0x00, 0x00, 0x00, 0x00, 0x00,
   0x00, 0x00, 0x00, 0x00, 0x00, 0x00, 0x00, 0x00, 0x00, 0x00, 0x00, 0x00,
   0x00, 0x00, 0x00, 0x00, 0x00, 0x00, 0x00, 0x00, 0x1c, 0x1c, 0x3e, 0x3e,
   0x6e, 0x6e, 0x4c, 0x4c, 0x00, 0x00, 0x00, 0x00, 0x00, 0x00, 0x00, 0x00,
   0x0e, 0x0e, 0x1f, 0x1f, 0x37, 0x37, 0x26, 0x26, 0x00, 0x00, 0x00, 0x00,
   0x00, 0x00, 0x00, 0x00, 0x18, 0x0c, 0x6c, 0x66, 0x3c, 0x36, 0x3a, 0x3a,
   0x6f, 0x6f, 0x6f, 0x6f, 0x6f, 0x6f, 0x6f, 0x6f, 0x0c, 0x06, 0x36, 0x33,
   0x1e, 0x1b, 0x1d, 0x1d, 0x7b, 0x7b, 0x7b, 0x7b, 0x7b, 0x7b, 0x7b, 0x7b,
   0x0c, 0x18, 0x06, 0x0c, 0x06, 0x0c, 0x30, 0x18, 0x6e, 0x6d, 0x6e, 0x6d,
   0x6e, 0x6d, 0x6c, 0x6c, 0x06, 0x0c, 0x03, 0x06, 0x03, 0x06, 0x18, 0x0c,
   0x32, 0x31, 0x32, 0x31, 0x32, 0x31, 0x30, 0x30, 0x00, 0x00, 0x00, 0x00,
   0x00, 0x00, 0x18, 0x30, 0x6d, 0x6e, 0x6d, 0x6e, 0x6d, 0x6e, 0x6f, 0x6f,
   0x00, 0x00, 0x00, 0x00, 0x00, 0x00, 0x0c, 0x18, 0x31, 0x32, 0x31, 0x32,
   0x31, 0x32, 0x33, 0x33, 0x3f, 0x3f, 0x3f, 0x3f, 0x3f, 0x3f, 0x3f, 0x3f,
   0x6c, 0x6c, 0x6d, 0x6d, 0x6e, 0x6e, 0x6e, 0x6d, 0x06, 0x06, 0x0c, 0x0c,
   0x0c, 0x0c, 0x08, 0x04, 0x30, 0x30, 0x31, 0x31, 0x32, 0x32, 0x32, 0x31,
   0x67, 0x67, 0x67, 0x67, 0x67, 0x67, 0x67, 0x67, 0x7c, 0x7c, 0x7e, 0x7e,
   0x7d, 0x7d, 0x7d, 0x7e, 0x06, 0x06, 0x0c, 0x0c, 0x0c, 0x0c, 0x0c, 0x0c,
   0x30, 0x30, 0x32, 0x32, 0x31, 0x31, 0x31, 0x32, 0x63, 0x63, 0x63, 0x63,
   0x63, 0x63, 0x63, 0x63, 0x6c, 0x6c, 0x6c, 0x6c, 0x6c, 0x6c, 0x6c, 0x6c,
   0x06, 0x06, 0x0c, 0x0c, 0x0c, 0x0c, 0x0c, 0x0c, 0x30, 0x30, 0x30, 0x30,
   0x30, 0x30, 0x30, 0x30, 0x63, 0x63, 0x63, 0x63, 0x63, 0x63, 0x63, 0x63,
   0x6c, 0x6c, 0x6c, 0x6c, 0x6c, 0x6c, 0x6c, 0x6c, 0x06, 0x06, 0x0c, 0x0c,
   0x0c, 0x0c, 0x0c, 0x0c, 0x30, 0x30, 0x30, 0x30, 0x30, 0x30, 0x30, 0x30,
   0x63, 0x63, 0x63, 0x63, 0x63, 0x63, 0x63, 0x63, 0x6c, 0x6c, 0x6c, 0x6c,
   0x6c, 0x6c, 0x6c, 0x6c, 0x06, 0x06, 0x0c, 0x0c, 0x0c, 0x0c, 0x0c, 0x0c,
   0x30, 0x30, 0x30, 0x30, 0x30, 0x30, 0x30, 0x30, 0x63, 0x63, 0x63, 0x63,
   0x63, 0x63, 0x63, 0x63, 0x6c, 0x6c, 0x6c, 0x6c, 0x6c, 0x6c, 0x6c, 0x6c,
   0x36, 0x36, 0x6c, 0x6c, 0x6c, 0x6c, 0x6c, 0x6c, 0x30, 0x30, 0x30, 0x30,
   0x30, 0x30, 0x30, 0x30, 0x63, 0x63, 0x63, 0x63, 0x63, 0x63, 0x63, 0x63,
   0x6c, 0x6c, 0x6c, 0x6c, 0x6c, 0x6c, 0x6c, 0x6c, 0x1c, 0x1c, 0x38, 0x38,
   0x38, 0x38, 0x38, 0x38, 0x78, 0x78, 0x78, 0x78, 0x78, 0x78, 0x78, 0x78,
   0x60, 0x60, 0x60, 0x60, 0x60, 0x60, 0x60, 0x60, 0x00, 0x00, 0x00, 0x00,
   0x00, 0x00, 0x00, 0x00, 0x00, 0x00, 0x00, 0x00, 0x00, 0x00, 0x00, 0x00,
   0x00, 0x00, 0x00, 0x00, 0x00, 0x00, 0x00, 0x00, 0x60, 0x60, 0x60, 0x60,
   0x60, 0x60, 0x60, 0x60, 0x00, 0x00, 0x00, 0x00, 0x00, 0x00, 0x00, 0x00,
   0x00, 0x00, 0x00, 0x00, 0x00, 0x00, 0x00, 0x00, 0x00, 0x00, 0x00, 0x00,
   0x00, 0x00, 0x00, 0x00, 0x00, 0x00, 0x00, 0x00, 0x00, 0x00, 0x00, 0x00,
   0x00, 0x00, 0x00, 0x00, 0x00, 0x00, 0x00, 0x00, 0x00, 0x00, 0x00, 0x00,
   0x00, 0x00, 0x00, 0x00, 0x00, 0x00, 0x00, 0x00, 0x00, 0x00, 0x00, 0x00,
   0x00, 0x00, 0x00, 0x00, 0x00, 0x00, 0x00, 0x00, 0x00, 0x00, 0x00, 0x00,
   0x00, 0x00, 0x00, 0x00, 0x00, 0x00, 0x00, 0x00, 0x00, 0x00, 0x00, 0x00,
   0x00, 0x00, 0x00, 0x00, 0x00, 0x00, 0x00, 0x00, 0x00, 0x00, 0x00, 0x00,
   0x00, 0x00, 0x00, 0x00, 0x00, 0x00, 0x00, 0x00, 0x00, 0x00, 0x00, 0x00,
   0x00, 0x00, 0x00, 0x00, 0x00, 0x00, 0x00, 0x00, 0x00, 0x00, 0x00, 0x00,
   0x00, 0x00, 0x00, 0x00, 0x1c, 0x1c, 0x3e, 0x3e, 0x6e, 0x6e, 0x00, 0x00,
   0x00, 0x00, 0x00, 0x00, 0x00, 0x00, 0x00, 0x00, 0x1c, 0x1c, 0x3e, 0x3e,
   0x6e, 0x6e, 0x26, 0x26, 0x00, 0x00, 0x00, 0x00, 0x00, 0x00, 0x00, 0x00,
   0x18, 0x0c, 0x6c, 0x66, 0x3c, 0x36, 0x00, 0x00, 0x3b, 0x3b, 0x3b, 0x3b,
   0x3b, 0x3b, 0x00, 0x00, 0x18, 0x0c, 0x6c, 0x66, 0x3c, 0x36, 0x1d, 0x1d,
   0x00, 0xcf, 0x00, 0xcf, 0x00, 0xcf, 0x00, 0xcf, 0x0c, 0x18, 0x06, 0x0c,
   0x06, 0x0c, 0x00, 0x00, 0x6e, 0x6d, 0x6e, 0x6d, 0x6e, 0x6d, 0x00, 0x00,
   0x0c, 0x18, 0x06, 0x0c, 0x06, 0x0c, 0x18, 0x0c, 0x00, 0xcd, 0x00, 0xcd,
   0x00, 0xcd, 0x00, 0xcc, 0x00, 0x00, 0x00, 0x00, 0x00, 0x00, 0x00, 0x00,
   0x6d, 0x6e, 0x6d, 0x6e, 0x6d, 0x6e, 0x00, 0x00, 0x00, 0x00, 0x00, 0x00,
   0x00, 0x00, 0x0c, 0x18, 0x00, 0xce, 0x00, 0xce, 0x00, 0xce, 0x00, 0xcf,
   0x3e, 0x3e, 0x3e, 0x3e, 0x3e, 0x3e, 0x00, 0x00, 0x6c, 0x6c, 0x6d, 0x6d,
   0x6e, 0x6e, 0x00, 0x00, 0x63, 0x63, 0x63, 0x63, 0x63, 0x63, 0x63, 0x63,
   0x00, 0x78, 0x00, 0x79, 0x00, 0x7a, 0x00, 0x79, 0x63, 0x63, 0x63, 0x63,
   0x63, 0x63, 0x00, 0x00, 0x6c, 0x6c, 0x6e, 0x6e, 0x6d, 0x6d, 0x00, 0x00,
   0x63, 0x63, 0x63, 0x63, 0x63, 0x63, 0x63, 0x63, 0x00, 0x78, 0x00, 0x7a,
   0x00, 0x79, 0x00, 0x7a, 0x63, 0x63, 0x63, 0x63, 0x63, 0x63, 0x00, 0x00,
   0x6c, 0x6c, 0x6c, 0x6c, 0x6c, 0x6c, 0x00, 0x00, 0x63, 0x63, 0x63, 0x63,
   0x63, 0x63, 0x63, 0x63, 0x00, 0x30, 0x00, 0x30, 0x00, 0x30, 0x00, 0x30,
   0x63, 0x63, 0x63, 0x63, 0x63, 0x63, 0x00, 0x00, 0x6c, 0x6c, 0x6c, 0x6c,
   0x6c, 0x6c, 0x00, 0x00, 0x63, 0x63, 0x63, 0x63, 0x63, 0x63, 0x63, 0x63,
   0x00, 0x30, 0x00, 0x30, 0x00, 0x30, 0x00, 0x30, 0x63, 0x63, 0x63, 0x63,
   0x63, 0x63, 0x00, 0x00, 0x6c, 0x6c, 0x6c, 0x6c, 0x6c, 0x6c, 0x00, 0x00,
   0x63, 0x63, 0x63, 0x63, 0x63, 0x63, 0x63, 0x63, 0x00, 0x30, 0x00, 0x30,
   0x00, 0x30, 0x00, 0x30, 0x63, 0x63, 0x63, 0x63, 0x63, 0x63, 0x00, 0x00,
   0x6c, 0x6c, 0x6c, 0x6c, 0x6c, 0x6c, 0x00, 0x00, 0x63, 0x63, 0x63, 0x63,
   0x63, 0x63, 0x63, 0x63, 0x00, 0x30, 0x00, 0x30, 0x00, 0x30, 0x00, 0x30,
   0x3e, 0x3e, 0x3e, 0x3e, 0x3e, 0x3e, 0x00, 0x00, 0x38, 0x38, 0x38, 0x38,
   0x38, 0x38, 0x00, 0x00, 0x3e, 0x3e, 0x3e, 0x3e, 0x3e, 0x3e, 0x3e, 0x3e,
   0x00, 0x30, 0x00, 0x30, 0x00, 0x30, 0x00, 0x30, 0x00, 0x00, 0x00, 0x00,
   0x00, 0x00, 0x00, 0x00, 0x00, 0x00, 0x00, 0x00, 0x00, 0x00, 0x00, 0x00,
   0x00, 0x00, 0x00, 0x00, 0x00, 0x00, 0x00, 0x00, 0x00, 0x00, 0x00, 0x00,
   0x00, 0x00, 0x00, 0x00, 0x00, 0x00, 0x00, 0x00, 0x00, 0x00, 0x00, 0x00,
   0x00, 0x00, 0x00, 0x00, 0x00, 0x00, 0x00, 0x00, 0x00, 0x00, 0x00, 0x00,
   0x00, 0x00, 0x00, 0x00, 0x00, 0x00, 0x00, 0x00, 0x00, 0x00, 0x00, 0x00,
   0x00, 0x00, 0x00, 0x00, 0x00, 0x00, 0x00, 0x00, 0x00, 0x00, 0x00, 0x00,
   0x00, 0x00, 0x00, 0x00, 0x00, 0x00, 0x00, 0x00, 0x00, 0x00, 0x00, 0x00,
   0x00, 0x00, 0x00, 0x00, 0x00, 0x00, 0x00, 0x00, 0x00, 0x00, 0x00, 0x00,
   0x00, 0x00, 0x00, 0x00, 0x00, 0x00, 0x00, 0x00, 0x00, 0x00, 0x00, 0x00,
   0x00, 0x00, 0x00, 0x00, 0x00, 0x00, 0x00, 0x00, 0x00, 0x00, 0x00, 0x00,
   0x00, 0x00, 0x00, 0x00, 0x00, 0x00, 0x00, 0x00, 0x00, 0x00, 0x00, 0x00,
   0x00, 0x00, 0x00, 0x00, 0x00, 0x00, 0x00, 0x00, 0x00, 0x00, 0x00, 0x00,
   0x00, 0x00, 0x00, 0x00, 0x00, 0x00, 0x00, 0x00, 0x00, 0x00, 0x00, 0x00,
   0x1c, 0x1c, 0x3e, 0x3e, 0x6e, 0x6e, 0x4c, 0x26, 0x00, 0x00, 0x00, 0x00,
   0x00, 0x00, 0x00, 0x00, 0x00, 0x00, 0x00, 0x00, 0x00, 0x00, 0x00, 0x00,
   0x00, 0x00, 0x00, 0x00, 0x00, 0x00, 0x00, 0x00, 0x18, 0x0c, 0x6c, 0x66,
   0x3c, 0x36, 0x3a, 0x1d, 0x3b, 0x3b, 0x3b, 0x3b, 0x3b, 0x3b, 0x3b, 0x3b,
   0x0c, 0x30, 0x0c, 0x30, 0x0c, 0x30, 0x03, 0x0c, 0x0c, 0x30, 0x0c, 0x30,
   0x0c, 0x30, 0x00, 0x00, 0x0c, 0x18, 0x06, 0x0c, 0x06, 0x0c, 0x30, 0x0c,
   0x6e, 0x6d, 0x6e, 0x6d, 0x6e, 0x6d, 0x6c, 0x6c, 0x18, 0x18, 0x18, 0x18,
   0x18, 0x18, 0x06, 0x06, 0x18, 0x18, 0x18, 0x18, 0x18, 0x18, 0x00, 0x00,
   0x00, 0x00, 0x00, 0x00, 0x00, 0x00, 0x18, 0x18, 0x6d, 0x6e, 0x6d, 0x6e,
   0x6d, 0x6e, 0x6f, 0x6f, 0x00, 0x00, 0x00, 0x00, 0x00, 0x00, 0x00, 0x00,
   0x00, 0x00, 0x00, 0x00, 0x00, 0x00, 0x00, 0x00, 0x63, 0x63, 0x63, 0x63,
   0x63, 0x63, 0x63, 0x63, 0x6c, 0x6c, 0x6d, 0x6d, 0x6e, 0x6e, 0x6e, 0x6d,
   0x6e, 0x6e, 0x3e, 0x3e, 0x3f, 0x3f, 0x06, 0x06, 0x3e, 0x3e, 0x63, 0x63,
   0x63, 0x63, 0x00, 0x00, 0x63, 0x63, 0x63, 0x63, 0x63, 0x63, 0x63, 0x63,
   0x6c, 0x6c, 0x6e, 0x6e, 0x6d, 0x6d, 0x6d, 0x6e, 0x73, 0x73, 0x63, 0x63,
   0x67, 0x67, 0x06, 0x06, 0x63, 0x63, 0x63, 0x63, 0x63, 0x63, 0x00, 0x00,
   0x6b, 0x6b, 0x6b, 0x6b, 0x6b, 0x6b, 0x6b, 0x6b, 0x6c, 0x6c, 0x6c, 0x6c,
   0x6c, 0x6c, 0x6c, 0x6c, 0x63, 0x63, 0x03, 0x03, 0x63, 0x63, 0x06, 0x06,
   0x63, 0x63, 0x63, 0x63, 0x6b, 0x6b, 0x00, 0x00, 0x6b, 0x6b, 0x6b, 0x6b,
   0x6b, 0x6b, 0x6b, 0x6b, 0x6c, 0x6c, 0x6c, 0x6c, 0x6c, 0x6c, 0x6c, 0x6c,
   0x63, 0x63, 0x1e, 0x1e, 0x63, 0x63, 0x06, 0x06, 0x63, 0x63, 0x63, 0x63,
   0x6b, 0x6b, 0x00, 0x00, 0x6b, 0x6b, 0x6b, 0x6b, 0x6b, 0x6b, 0x6b, 0x6b,
   0x38, 0x38, 0x38, 0x38, 0x38, 0x38, 0x38, 0x38, 0x73, 0x73, 0x03, 0x03,
   0x63, 0x63, 0x06, 0x06, 0x63, 0x63, 0x63, 0x63, 0x6b, 0x6b, 0x00, 0x00,
   0x7f, 0x7f, 0x7f, 0x7f, 0x7f, 0x7f, 0x7f, 0x7f, 0x38, 0x38, 0x38, 0x38,
   0x38, 0x38, 0x38, 0x38, 0x6b, 0x6b, 0x63, 0x63, 0x63, 0x63, 0x36, 0x36,
   0x63, 0x63, 0x63, 0x63, 0x7f, 0x7f, 0x00, 0x00, 0x36, 0x36, 0x36, 0x36,
   0x36, 0x36, 0x36, 0x36, 0x6c, 0x6c, 0x6c, 0x6c, 0x6c, 0x6c, 0x6c, 0x6c,
   0x66, 0x66, 0x3e, 0x3e, 0x63, 0x63, 0x1c, 0x1c, 0x3e, 0x3e, 0x3e, 0x3e,
   0x36, 0x36, 0x00, 0x00, 0x00, 0x00, 0x00, 0x00, 0x00, 0x00, 0x00, 0x00,
   0x00, 0x00, 0x00, 0x00, 0x00, 0x00, 0x00, 0x00, 0x00, 0x00, 0x00, 0x00,
   0x60, 0x60, 0x00, 0x00, 0x00, 0x00, 0x00, 0x00, 0x00, 0x00, 0x00, 0x00,
   0x00, 0x00, 0x00, 0x00, 0x00, 0x00, 0x00, 0x00, 0x00, 0x00, 0x00, 0x00,
   0x00, 0x00, 0x00, 0x00, 0x00, 0x00, 0x00, 0x00, 0x60, 0x60, 0x00, 0x00,
   0x00, 0x00, 0x00, 0x00, 0x00, 0x00, 0x00, 0x00, 0x00, 0x00, 0x00, 0x00,
   0x00, 0x00, 0x00, 0x00, 0x00, 0x00, 0x00, 0x00, 0x00, 0x00, 0x00, 0x00,
   0x00, 0x00, 0x00, 0x00, 0x00, 0x00, 0x00, 0x00, 0x00, 0x00, 0x00, 0x00,
   0x00, 0x00, 0x00, 0x00, 0x00, 0x00, 0x00, 0x00, 0x00, 0x00, 0x00, 0x00,
   0x00, 0x00, 0x00, 0x00, 0x00, 0x00, 0x00, 0x00, 0x00, 0x00, 0x00, 0x00,
   0x00, 0x00, 0x00, 0x00, 0x00, 0x00, 0x00, 0x00, 0x00, 0x00, 0x00, 0x00,
   0x00, 0x00, 0x00, 0x00, 0x00, 0x00, 0x00, 0x00, 0x00, 0x00, 0x00, 0x00,
   0x00, 0x00, 0x00, 0x00, 0x00, 0x00, 0x00, 0x00, 0x00, 0x00, 0x00, 0x00,
   0x00, 0x00, 0x00, 0x00, 0x00, 0x00, 0x00, 0x00, 0x1c, 0x1c, 0x3e, 0x3e,
   0x6e, 0x6e, 0x4c, 0x4c, 0x00, 0x00, 0x00, 0x00, 0x00, 0x00, 0x00, 0x00,
   0x1c, 0x1c, 0x3e, 0x3e, 0x6e, 0x6e, 0x4c, 0x4c, 0x00, 0x00, 0x00, 0x00,
   0x00, 0x00, 0x00, 0x00, 0x18, 0x0c, 0x6c, 0x66, 0x3c, 0x36, 0x3a, 0x3a,
   0x13, 0x13, 0x13, 0x13, 0x13, 0x13, 0x13, 0x13, 0x18, 0x0c, 0x6c, 0x66,
   0x3c, 0x36, 0x3a, 0x3a, 0x6f, 0x6f, 0x6f, 0x6f, 0x6f, 0x6f, 0x6f, 0x6f,
   0x0c, 0x18, 0x06, 0x0c, 0x06, 0x0c, 0x30, 0x18, 0x3a, 0x39, 0x3a, 0x39,
   0x3a, 0x39, 0x38, 0x38, 0x0c, 0x18, 0x06, 0x0c, 0x06, 0x0c, 0x30, 0x18,
   0x6e, 0x6d, 0x6e, 0x6d, 0x6e, 0x6d, 0x6c, 0x6c, 0x00, 0x00, 0x00, 0x00,
   0x00, 0x00, 0x18, 0x30, 0x6d, 0x6e, 0x6d, 0x6e, 0x6d, 0x6e, 0x6f, 0x6f,
   0x00, 0x00, 0x00, 0x00, 0x00, 0x00, 0x18, 0x30, 0x6d, 0x6e, 0x6d, 0x6e,
   0x6d, 0x6e, 0x6f, 0x6f, 0x6e, 0x6e, 0x6e, 0x6e, 0x6e, 0x6e, 0x6e, 0x6e,
   0x6c, 0x6c, 0x6d, 0x6d, 0x6e, 0x6e, 0x6e, 0x6d, 0x3f, 0x3f, 0x3f, 0x3f,
   0x3f, 0x3f, 0x3f, 0x3f, 0x6c, 0x6c, 0x6d, 0x6d, 0x6e, 0x6e, 0x6e, 0x6d,
   0x73, 0x73, 0x73, 0x73, 0x73, 0x73, 0x73, 0x73, 0x6c, 0x6c, 0x6e, 0x6e,
   0x6d, 0x6d, 0x6d, 0x6e, 0x67, 0x67, 0x67, 0x67, 0x67, 0x67, 0x67, 0x67,
   0x7c, 0x7c, 0x7e, 0x7e, 0x7d, 0x7d, 0x7d, 0x7e, 0x63, 0x63, 0x63, 0x63,
   0x63, 0x63, 0x63, 0x63, 0x7c, 0x7c, 0x7c, 0x7c, 0x7c, 0x7c, 0x7c, 0x7c,
   0x63, 0x63, 0x63, 0x63, 0x63, 0x63, 0x63, 0x63, 0x6c, 0x6c, 0x6c, 0x6c,
   0x6c, 0x6c, 0x6c, 0x6c, 0x63, 0x63, 0x63, 0x63, 0x63, 0x63, 0x63, 0x63,
   0x6c, 0x6c, 0x6c, 0x6c, 0x6c, 0x6c, 0x6c, 0x6c, 0x63, 0x63, 0x63, 0x63,
   0x63, 0x63, 0x63, 0x63, 0x6c, 0x6c, 0x6c, 0x6c, 0x6c, 0x6c, 0x6c, 0x6c,
   0x73, 0x73, 0x73, 0x73, 0x73, 0x73, 0x73, 0x73, 0x6c, 0x6c, 0x6c, 0x6c,
   0x6c, 0x6c, 0x6c, 0x6c, 0x63, 0x63, 0x63, 0x63, 0x63, 0x63, 0x63, 0x63,
   0x6c, 0x6c, 0x6c, 0x6c, 0x6c, 0x6c, 0x6c, 0x6c, 0x6b, 0x6b, 0x6b, 0x6b,
   0x6b, 0x6b, 0x6b, 0x6b, 0x6c, 0x6c, 0x6c, 0x6c, 0x6c, 0x6c, 0x6c, 0x6c,
   0x63, 0x63, 0x63, 0x63, 0x63, 0x63, 0x63, 0x63, 0x6c, 0x6c, 0x6c, 0x6c,
   0x6c, 0x6c, 0x6c, 0x6c, 0x66, 0x66, 0x66, 0x66, 0x66, 0x66, 0x66, 0x66,
   0x6c, 0x6c, 0x6c, 0x6c, 0x6c, 0x6c, 0x6c, 0x6c, 0x63, 0x63, 0x63, 0x63,
   0x63, 0x63, 0x63, 0x63, 0x6c, 0x6c, 0x6c, 0x6c, 0x6c, 0x6c, 0x6c, 0x6c,
   0x00, 0x00, 0x00, 0x00, 0x00, 0x00, 0x00, 0x00, 0x00, 0x00, 0x00, 0x00,
   0x00, 0x00, 0x00, 0x00, 0x60, 0x60, 0x60, 0x60, 0x60, 0x60, 0x60, 0x60,
   0x00, 0x00, 0x00, 0x00, 0x00, 0x00, 0x00, 0x00, 0x18, 0x18, 0x18, 0x18,
   0x18, 0x18, 0x18, 0x18, 0x30, 0x30, 0x30, 0x30, 0x30, 0x30, 0x30, 0x30,
   0x63, 0x63, 0x63, 0x63, 0x63, 0x63, 0x63, 0x63, 0x30, 0x30, 0x30, 0x30,
   0x30, 0x30, 0x30, 0x30, 0x00, 0x00, 0x00, 0x00, 0x00, 0x00, 0x00, 0x00,
   0x00, 0x00, 0x00, 0x00, 0x00, 0x00, 0x00, 0x00, 0x00, 0x00, 0x00, 0x00,
   0x00, 0x00, 0x00, 0x00, 0x00, 0x00, 0x00, 0x00, 0x00, 0x00, 0x00, 0x00,
   0x00, 0x00, 0x00, 0x00, 0x00, 0x00, 0x00, 0x00, 0x00, 0x00, 0x00, 0x00,
   0x00, 0x00, 0x00, 0x00, 0x00, 0x00, 0x00, 0x00, 0x00, 0x00, 0x00, 0x00,
   0x00, 0x00, 0x00, 0x00, 0x00, 0x00, 0x00, 0x00, 0x00, 0x00, 0x00, 0x00,
   0x00, 0x00, 0x00, 0x00, 0x00, 0x00, 0x00, 0x00, 0x00, 0x00, 0x00, 0x00,
   0x00, 0x00, 0x00, 0x00, 0x00, 0x00, 0x00, 0x00, 0x00, 0x00, 0x00, 0x00,
   0x00, 0x00, 0x00, 0x00, 0x1c, 0x1c, 0x3e, 0x3e, 0x6e, 0x6e, 0x4c, 0x26,
   0x00, 0x00, 0x00, 0x00, 0x00, 0x00, 0x00, 0x00, 0x00, 0x00, 0x00, 0x00,
   0x00, 0x00, 0x4c, 0x4c, 0x63, 0x00, 0x00, 0x00, 0x00, 0x00, 0x00, 0x00,
   0x18, 0x0c, 0x6c, 0x66, 0x3c, 0x36, 0x3a, 0x1d, 0x3b, 0x3b, 0x3b, 0x3b,
   0x3b, 0x3b, 0x3b, 0x3b, 0x63, 0x7f, 0x0c, 0x00, 0x30, 0x00, 0x7e, 0x7e,
   0x3e, 0x7f, 0x13, 0x13, 0x1c, 0x1c, 0x00, 0x1c, 0x0c, 0x18, 0x06, 0x0c,
   0x06, 0x0c, 0x30, 0x0c, 0x6e, 0x6d, 0x6e, 0x6d, 0x6e, 0x6d, 0x6c, 0x6c,
   0x3e, 0x00, 0x18, 0x00, 0x18, 0x00, 0x32, 0x32, 0x00, 0x00, 0x3a, 0x39,
   0x3e, 0x18, 0x00, 0x18, 0x00, 0x00, 0x00, 0x00, 0x00, 0x00, 0x18, 0x18,
   0x6d, 0x6e, 0x6d, 0x6e, 0x6d, 0x6e, 0x6f, 0x6f, 0x00, 0x00, 0x00, 0x00,
   0x00, 0x00, 0x00, 0x00, 0x1c, 0x1c, 0x6c, 0x6c, 0x63, 0x0c, 0x00, 0x0c,
   0x63, 0x63, 0x63, 0x63, 0x63, 0x63, 0x63, 0x63, 0x6c, 0x6c, 0x6d, 0x6d,
   0x6e, 0x6e, 0x6e, 0x6d, 0x6e, 0x6e, 0x6e, 0x6e, 0x6e, 0x00, 0x6e, 0x6e,
   0x3e, 0x3e, 0x6c, 0x6c, 0x63, 0x00, 0x00, 0x00, 0x63, 0x63, 0x63, 0x63,
   0x63, 0x63, 0x63, 0x63, 0x6c, 0x6c, 0x6e, 0x6e, 0x6d, 0x6d, 0x6d, 0x6e,
   0x73, 0x73, 0x73, 0x73, 0x73, 0x00, 0x73, 0x73, 0x63, 0x63, 0x6c, 0x6c,
   0x63, 0x00, 0x00, 0x00, 0x6b, 0x6b, 0x6b, 0x6b, 0x6b, 0x6b, 0x6b, 0x6b,
   0x6c, 0x6c, 0x6c, 0x6c, 0x6c, 0x6c, 0x6c, 0x6c, 0x63, 0x63, 0x63, 0x63,
   0x63, 0x00, 0x63, 0x63, 0x63, 0x63, 0x7c, 0x7c, 0x7f, 0x00, 0x00, 0x00,
   0x6b, 0x6b, 0x6b, 0x6b, 0x6b, 0x6b, 0x6b, 0x6b, 0x6c, 0x6c, 0x6c, 0x6c,
   0x6c, 0x6c, 0x6c, 0x6c, 0x63, 0x63, 0x63, 0x63, 0x63, 0x00, 0x63, 0x63,
   0x7f, 0x7f, 0x6c, 0x6c, 0x63, 0x00, 0x0c, 0x00, 0x6b, 0x6b, 0x6b, 0x6b,
   0x6b, 0x6b, 0x6b, 0x6b, 0x38, 0x38, 0x38, 0x38, 0x38, 0x38, 0x38, 0x38,
   0x73, 0x73, 0x73, 0x73, 0x73, 0x00, 0x73, 0x73, 0x63, 0x63, 0x6c, 0x6c,
   0x63, 0x00, 0x0c, 0x00, 0x7f, 0x7f, 0x7f, 0x7f, 0x7f, 0x7f, 0x7f, 0x7f,
   0x38, 0x38, 0x38, 0x38, 0x38, 0x38, 0x38, 0x38, 0x6b, 0x6b, 0x6b, 0x6b,
   0x6b, 0x00, 0x6b, 0x6b, 0x63, 0x63, 0x6c, 0x6c, 0x63, 0x00, 0x0c, 0x00,
   0x36, 0x36, 0x36, 0x36, 0x36, 0x36, 0x36, 0x36, 0x6c, 0x6c, 0x6c, 0x6c,
   0x6c, 0x6c, 0x6c, 0x6c, 0x66, 0x66, 0x66, 0x66, 0x66, 0x00, 0x66, 0x66,
   0x63, 0x63, 0x6c, 0x6c, 0x63, 0x00, 0x18, 0x00, 0x00, 0x00, 0x00, 0x00,
   0x00, 0x00, 0x00, 0x00, 0x00, 0x00, 0x00, 0x00, 0x00, 0x00, 0x00, 0x00,
   0x00, 0x00, 0x00, 0x00, 0x00, 0x00, 0x00, 0x00, 0x00, 0x00, 0x00, 0x00,
   0x0c, 0x00, 0x00, 0x00, 0x18, 0x18, 0x18, 0x18, 0x18, 0x18, 0x18, 0x18,
   0x30, 0x30, 0x30, 0x30, 0x30, 0x30, 0x30, 0x30, 0x00, 0x00, 0x18, 0x18,
   0x18, 0x00, 0x00, 0x18, 0x00, 0x00, 0x00, 0x00, 0x1c, 0x00, 0x00, 0x00,
   0x00, 0x00, 0x00, 0x00, 0x00, 0x00, 0x00, 0x00, 0x00, 0x00, 0x00, 0x00,
   0x00, 0x00, 0x00, 0x00, 0x00, 0x00, 0x00, 0x00, 0x00, 0x00, 0x00, 0x00,
   0x00, 0x00, 0x00, 0x00, 0x00, 0x00, 0x00, 0x00, 0x00, 0x00, 0x00, 0x00,
   0x00, 0x00, 0x00, 0x00, 0x00, 0x00, 0x00, 0x00, 0x00, 0x00, 0x00, 0x00,
   0x00, 0x00, 0x00, 0x00, 0x00, 0x00, 0x00, 0x00, 0x00, 0x00, 0x00, 0x00,
   0x00, 0x00, 0x00, 0x00, 0x00, 0x00, 0x00, 0x00, 0x00, 0x00, 0x00, 0x00,
   0x00, 0x00, 0x00, 0x00, 0x00, 0x00, 0x00, 0x00, 0x00, 0x00, 0x00, 0x00,
   0x00, 0x00, 0x00, 0x00, 0x00, 0x00, 0x00, 0x00, 0x00, 0x00, 0x00, 0x00,
   0x00, 0x00, 0x00, 0x00, 0x00, 0x00, 0x4c, 0x4c, 0x00, 0x00, 0x00, 0x00,
   0x00, 0x00, 0x00, 0x00, 0x00, 0x00, 0x00, 0x00, 0x00, 0x00, 0x26, 0x26,
   0x63, 0x00, 0x00, 0x00, 0x00, 0x00, 0x00, 0x00, 0x26, 0x26, 0x0c, 0x00,
   0x30, 0x00, 0x7e, 0x7e, 0x7f, 0x7f, 0x6f, 0x6f, 0x63, 0x1f, 0x37, 0x26,
   0x63, 0x7f, 0x6f, 0x7b, 0x00, 0x00, 0x3f, 0x3f, 0x3e, 0x7e, 0x7b, 0x7b,
   0x00, 0x1f, 0x37, 0x26, 0x3f, 0x3f, 0x18, 0x00, 0x18, 0x00, 0x32, 0x32,
   0x0e, 0x0d, 0x6e, 0x6d, 0x63, 0x36, 0x1e, 0x1d, 0x3e, 0x00, 0x7b, 0x6f,
   0x00, 0x00, 0x19, 0x19, 0x00, 0x00, 0x32, 0x31, 0x00, 0x33, 0x1b, 0x1d,
   0x19, 0x19, 0x00, 0x00, 0x00, 0x00, 0x00, 0x00, 0x0c, 0x0c, 0x6c, 0x6c,
   0x63, 0x03, 0x03, 0x18, 0x00, 0x00, 0x00, 0x00, 0x00, 0x00, 0x00, 0x33,
   0x3c, 0x3c, 0x30, 0x30, 0x00, 0x06, 0x06, 0x0c, 0x00, 0x33, 0x3f, 0x3f,
   0x3f, 0x00, 0x3f, 0x3f, 0x0c, 0x0c, 0x6c, 0x6c, 0x63, 0x00, 0x00, 0x0c,
   0x0c, 0x0c, 0x0c, 0x0c, 0x00, 0x00, 0x0c, 0x00, 0x18, 0x18, 0x30, 0x30,
   0x00, 0x00, 0x00, 0x18, 0x00, 0x00, 0x67, 0x67, 0x67, 0x00, 0x67, 0x67,
   0x3c, 0x3c, 0x7c, 0x7c, 0x7f, 0x00, 0x00, 0x00, 0x0c, 0x0c, 0x0c, 0x0c,
   0x00, 0x00, 0x0c, 0x0c, 0x18, 0x18, 0x30, 0x30, 0x00, 0x00, 0x00, 0x00,
   0x00, 0x00, 0x63, 0x63, 0x63, 0x00, 0x63, 0x63, 0x0c, 0x0c, 0x6c, 0x6c,
   0x63, 0x00, 0x00, 0x00, 0x0c, 0x0c, 0x0c, 0x0c, 0x00, 0x00, 0x0c, 0x0c,
   0x18, 0x18, 0x30, 0x30, 0x00, 0x00, 0x00, 0x00, 0x00, 0x00, 0x63, 0x63,
   0x63, 0x00, 0x63, 0x63, 0x0c, 0x0c, 0x6c, 0x6c, 0x63, 0x00, 0x00, 0x00,
   0x0c, 0x0c, 0x0c, 0x0c, 0x00, 0x00, 0x0c, 0x0c, 0x18, 0x18, 0x30, 0x30,
   0x00, 0x00, 0x00, 0x00, 0x00, 0x00, 0x63, 0x63, 0x63, 0x00, 0x63, 0x63,
   0x0c, 0x0c, 0x6c, 0x6c, 0x63, 0x00, 0x00, 0x00, 0x0c, 0x0c, 0x0c, 0x0c,
   0x00, 0x00, 0x0c, 0x0c, 0x18, 0x18, 0x30, 0x30, 0x00, 0x00, 0x00, 0x00,
   0x00, 0x00, 0x63, 0x63, 0x63, 0x00, 0x63, 0x63, 0x0c, 0x0c, 0x6c, 0x6c,
   0x63, 0x00, 0x00, 0x00, 0x6c, 0x6c, 0x6c, 0x6c, 0x00, 0x00, 0x6c, 0x6c,
   0x18, 0x18, 0x30, 0x30, 0x00, 0x00, 0x00, 0x00, 0x00, 0x00, 0x63, 0x63,
   0x63, 0x00, 0x63, 0x63, 0x7c, 0x7c, 0x6c, 0x6c, 0x63, 0x00, 0x00, 0x00,
   0x38, 0x38, 0x38, 0x38, 0x00, 0x00, 0x38, 0x38, 0x3c, 0x3c, 0x78, 0x78,
   0x00, 0x00, 0x00, 0x00, 0x00, 0x00, 0x60, 0x60, 0x60, 0x00, 0x60, 0x60,
   0x00, 0x00, 0x00, 0x00, 0x0c, 0x00, 0x00, 0x00, 0x00, 0x00, 0x00, 0x00,
   0x00, 0x00, 0x00, 0x00, 0x00, 0x00, 0x00, 0x00, 0x00, 0x00, 0x00, 0x00,
   0x00, 0x00, 0x63, 0x63, 0x63, 0x00, 0x60, 0x63, 0x00, 0x00, 0x00, 0x00,
   0x1c, 0x00, 0x00, 0x00, 0x00, 0x00, 0x00, 0x00, 0x00, 0x00, 0x00, 0x00,
   0x00, 0x00, 0x00, 0x00, 0x00, 0x00, 0x00, 0x00, 0x00, 0x00, 0x00, 0x00,
   0x00, 0x00, 0x00, 0x00, 0x00, 0x00, 0x00, 0x00, 0x00, 0x00, 0x00, 0x00,
   0x00, 0x00, 0x00, 0x00, 0x00, 0x00, 0x00, 0x00, 0x00, 0x00, 0x00, 0x00,
   0x00, 0x00, 0x00, 0x00, 0x00, 0x00, 0x00, 0x00, 0x00, 0x00, 0x00, 0x00,
   0x00, 0x00, 0x00, 0x00, 0x00, 0x00, 0x00, 0x00, 0x00, 0x00, 0x00, 0x00,
   0x00, 0x00, 0x00, 0x00, 0x00, 0x00, 0x00, 0x00, 0x00, 0x00, 0x00, 0x00,
   0x00, 0x00, 0x00, 0x00, 0x00, 0x00, 0x00, 0x00, 0x00, 0x00, 0x00, 0x00,
   0x00, 0x00, 0x00, 0x00, 0x00, 0x00, 0x00, 0x00, 0x00, 0x00, 0x00, 0x00,
   0x00, 0x00, 0x00, 0x00, 0x00, 0x00, 0x00, 0x00, 0x00, 0x00, 0x00, 0x00,
   0x1c, 0x1c, 0x4c, 0x4e, 0x63, 0x00, 0x00, 0x00, 0x00, 0x00, 0x00, 0x00,
   0x00, 0x00, 0x00, 0x00, 0x00, 0x00, 0x4c, 0x4c, 0x00, 0x00, 0x00, 0x00,
   0x00, 0x00, 0x00, 0x00, 0x63, 0x7f, 0x6f, 0x7b, 0x18, 0x0c, 0x7e, 0x7f,
   0x3e, 0x7e, 0xcf, 0xcf, 0x3f, 0x6f, 0x7b, 0x0c, 0x00, 0x00, 0x0c, 0x00,
   0x30, 0x00, 0x7e, 0x7e, 0x3b, 0x3b, 0x3b, 0x3b, 0x3e, 0x18, 0x1c, 0x00,
   0x3e, 0x00, 0x7b, 0x6f, 0x0c, 0x18, 0x32, 0x31, 0x00, 0x00, 0xce, 0xcd,
   0x6d, 0x7b, 0x6f, 0x18, 0x00, 0x00, 0x18, 0x00, 0x18, 0x00, 0x32, 0x32,
   0x6e, 0x6d, 0x6e, 0x6d, 0x63, 0x0c, 0x0c, 0x00, 0x00, 0x00, 0x00, 0x00,
   0x00, 0x00, 0x00, 0x63, 0x66, 0x66, 0xcc, 0xcc, 0x6e, 0x00, 0x00, 0x00,
   0x00, 0x00, 0x00, 0x00, 0x00, 0x00, 0x00, 0x00, 0x6c, 0x6c, 0x6c, 0x6c,
   0x63, 0x00, 0x18, 0x00, 0x63, 0x63, 0x63, 0x63, 0x3e, 0x3e, 0x63, 0x00,
   0x24, 0x24, 0x78, 0x78, 0x6c, 0x00, 0x00, 0x00, 0x00, 0x00, 0x63, 0x63,
   0x63, 0x00, 0x63, 0x63, 0x6c, 0x6c, 0x6c, 0x6c, 0x63, 0x00, 0x00, 0x00,
   0x63, 0x63, 0x63, 0x63, 0x63, 0x63, 0x63, 0x63, 0x3c, 0x3c, 0x78, 0x78,
   0x6c, 0x00, 0x00, 0x00, 0x00, 0x00, 0x63, 0x63, 0x63, 0x00, 0x63, 0x63,
   0x6c, 0x6c, 0x6c, 0x6c, 0x63, 0x00, 0x00, 0x00, 0x63, 0x63, 0x63, 0x63,
   0x63, 0x63, 0x63, 0x63, 0x18, 0x18, 0x30, 0x30, 0x3c, 0x00, 0x00, 0x00,
   0x00, 0x00, 0x6b, 0x6b, 0x6b, 0x00, 0x6b, 0x6b, 0x6c, 0x6c, 0x6c, 0x6c,
   0x63, 0x00, 0x00, 0x00, 0x63, 0x63, 0x63, 0x63, 0x63, 0x63, 0x63, 0x63,
   0x18, 0x18, 0x30, 0x30, 0x0c, 0x00, 0x00, 0x00, 0x00, 0x00, 0x6b, 0x6b,
   0x6b, 0x00, 0x6b, 0x6b, 0x6c, 0x6c, 0x6c, 0x6c, 0x63, 0x00, 0x00, 0x00,
   0x63, 0x63, 0x63, 0x63, 0x63, 0x63, 0x63, 0x63, 0x18, 0x18, 0x30, 0x30,
   0x0c, 0x00, 0x00, 0x00, 0x00, 0x00, 0x6b, 0x6b, 0x6b, 0x00, 0x6b, 0x6b,
   0x6c, 0x6c, 0x38, 0x38, 0x36, 0x00, 0x00, 0x00, 0x63, 0x63, 0x63, 0x63,
   0x67, 0x67, 0x63, 0x63, 0x18, 0x18, 0x30, 0x30, 0x0c, 0x00, 0x00, 0x00,
   0x00, 0x00, 0x7f, 0x7f, 0x7f, 0x00, 0x7f, 0x7f, 0x6c, 0x6c, 0x38, 0x38,
   0x36, 0x00, 0x00, 0x00, 0x3e, 0x3e, 0x3e, 0x3e, 0x3f, 0x3f, 0x3e, 0x3e,
   0x18, 0x18, 0x30, 0x30, 0x0c, 0x00, 0x00, 0x00, 0x00, 0x00, 0x36, 0x36,
   0x36, 0x00, 0x36, 0x36, 0x38, 0x38, 0x6c, 0x6c, 0x77, 0x00, 0x00, 0x00,
   0x00, 0x00, 0x00, 0x00, 0x03, 0x03, 0x00, 0x00, 0x00, 0x00, 0x00, 0x00,
   0x00, 0x00, 0x00, 0x00, 0x00, 0x00, 0x00, 0x00, 0x00, 0x00, 0x00, 0x00,
   0x00, 0x00, 0x00, 0x00, 0x0c, 0x00, 0x00, 0x00, 0x00, 0x00, 0x00, 0x00,
   0x03, 0x03, 0x00, 0x00, 0x00, 0x00, 0x00, 0x00, 0x00, 0x00, 0x00, 0x00,
   0x00, 0x00, 0x18, 0x18, 0x18, 0x00, 0x00, 0x18, 0x00, 0x00, 0x00, 0x00,
   0x1c, 0x00, 0x00, 0x00, 0x00, 0x00, 0x00, 0x00, 0x00, 0x00, 0x00, 0x00,
   0x00, 0x00, 0x00, 0x00, 0x00, 0x00, 0x00, 0x00, 0x00, 0x00, 0x00, 0x00,
   0x00, 0x00, 0x00, 0x00, 0x00, 0x00, 0x00, 0x00, 0x00, 0x00, 0x00, 0x00,
   0x00, 0x00, 0x00, 0x00, 0x00, 0x00, 0x00, 0x00, 0x00, 0x00, 0x00, 0x00,
   0x00, 0x00, 0x00, 0x00, 0x00, 0x00, 0x00, 0x00, 0x00, 0x00, 0x00, 0x00,
   0x00, 0x00, 0x00, 0x00, 0x00, 0x00, 0x00, 0x00, 0x00, 0x00, 0x00, 0x00,
   0x00, 0x00, 0x00, 0x00, 0x00, 0x00, 0x00, 0x00, 0x00, 0x00, 0x00, 0x00,
   0x00, 0x00, 0x00, 0x00, 0x00, 0x00, 0x00, 0x00, 0x00, 0x00, 0x00, 0x00,
   0x00, 0x00, 0x00, 0x00 };
