#define Tamsyn8x16r_width 256
#define Tamsyn8x16r_height 128
static unsigned char Tamsyn8x16r_bits[] = {
   0x00, 0x00, 0x00, 0x00, 0x00, 0x00, 0x00, 0x00, 0x00, 0x00, 0x00, 0x00,
   0x00, 0x00, 0x00, 0x00, 0x00, 0x00, 0x00, 0x00, 0x00, 0x00, 0x00, 0x00,
   0x00, 0x00, 0x00, 0x00, 0x00, 0x00, 0x00, 0x00, 0x00, 0x00, 0x00, 0x00,
   0x00, 0x00, 0x00, 0x00, 0x00, 0x00, 0x00, 0x00, 0x00, 0x00, 0x00, 0x00,
   0x00, 0x00, 0x00, 0x00, 0x00, 0x00, 0x00, 0x00, 0x00, 0x00, 0x00, 0x00,
   0x00, 0x00, 0x00, 0x00, 0x00, 0x00, 0x00, 0x00, 0x00, 0x00, 0x00, 0x00,
   0x00, 0x00, 0x00, 0x00, 0x00, 0x00, 0x00, 0x00, 0x00, 0x00, 0x00, 0x00,
   0x00, 0x00, 0x00, 0x00, 0x00, 0x00, 0x00, 0x00, 0x00, 0x00, 0x00, 0x00,
   0x00, 0x00, 0x00, 0x00, 0x00, 0x00, 0x00, 0x00, 0x00, 0x00, 0x00, 0x00,
   0x00, 0x00, 0x00, 0x00, 0x00, 0x00, 0x00, 0x00, 0x00, 0x00, 0x00, 0x00,
   0x00, 0x00, 0x00, 0x00, 0x00, 0x00, 0x00, 0x00, 0x00, 0x00, 0x00, 0x00,
   0x00, 0x00, 0x00, 0x00, 0x00, 0x00, 0x00, 0x00, 0x00, 0x00, 0x00, 0x00,
   0x00, 0x00, 0x00, 0x00, 0x00, 0x00, 0x00, 0x00, 0x00, 0x00, 0x00, 0x00,
   0x00, 0x00, 0x00, 0x00, 0x00, 0x00, 0x00, 0x00, 0x00, 0x00, 0x00, 0x00,
   0x00, 0x00, 0x00, 0x00, 0x00, 0x00, 0x00, 0x00, 0x00, 0x00, 0x00, 0x00,
   0x00, 0x00, 0x00, 0x00, 0x00, 0x00, 0x00, 0x00, 0x00, 0x00, 0x00, 0x00,
   0x00, 0x00, 0x00, 0x00, 0x00, 0x00, 0x00, 0x00, 0x00, 0x00, 0x00, 0x00,
   0x00, 0x00, 0x00, 0x00, 0x00, 0x00, 0x00, 0x00, 0x00, 0x00, 0x00, 0x00,
   0x00, 0x00, 0x00, 0x00, 0x00, 0x00, 0x00, 0x00, 0x00, 0x00, 0x00, 0x00,
   0x00, 0x00, 0x00, 0x00, 0x00, 0x00, 0x00, 0x00, 0x00, 0x00, 0x00, 0x00,
   0x00, 0x00, 0x00, 0x00, 0x00, 0x00, 0x00, 0x00, 0x00, 0x00, 0x00, 0x00,
   0x00, 0x00, 0x00, 0x00, 0x00, 0x00, 0x00, 0x00, 0x00, 0x00, 0x00, 0x00,
   0x00, 0x00, 0x00, 0x00, 0x00, 0x00, 0x00, 0x00, 0x00, 0x00, 0x00, 0x00,
   0x00, 0x00, 0x00, 0x00, 0x00, 0x00, 0x00, 0x00, 0x00, 0x00, 0x00, 0x00,
   0x00, 0x00, 0x00, 0x00, 0x00, 0x00, 0x00, 0x00, 0x00, 0x00, 0x00, 0x00,
   0x00, 0x00, 0x00, 0x00, 0x00, 0x00, 0x00, 0x00, 0x00, 0x00, 0x00, 0x00,
   0x00, 0x00, 0x00, 0x00, 0x00, 0x00, 0x00, 0x00, 0x00, 0x00, 0x00, 0x00,
   0x00, 0x00, 0x00, 0x00, 0x00, 0x00, 0x00, 0x00, 0x00, 0x00, 0x00, 0x00,
   0x00, 0x00, 0x00, 0x00, 0x00, 0x00, 0x00, 0x00, 0x00, 0x00, 0x00, 0x00,
   0x00, 0x00, 0x00, 0x00, 0x00, 0x00, 0x00, 0x00, 0x00, 0x00, 0x00, 0x00,
   0x00, 0x00, 0x00, 0x00, 0x00, 0x00, 0x00, 0x00, 0x00, 0x00, 0x00, 0x00,
   0x00, 0x00, 0x00, 0x00, 0x00, 0x00, 0x00, 0x00, 0x00, 0x00, 0x00, 0x00,
   0x00, 0x00, 0x00, 0x00, 0x00, 0x00, 0x00, 0x00, 0x00, 0x00, 0x00, 0x00,
   0x00, 0x00, 0x00, 0x00, 0x00, 0x00, 0x00, 0x00, 0x00, 0x00, 0x00, 0x00,
   0x00, 0x00, 0x00, 0x00, 0x00, 0x00, 0x00, 0x00, 0x00, 0x00, 0x00, 0x00,
   0x00, 0x00, 0x00, 0x00, 0x00, 0x00, 0x00, 0x00, 0x00, 0x00, 0x00, 0x00,
   0x00, 0x00, 0x00, 0x00, 0x00, 0x00, 0x00, 0x00, 0x00, 0x00, 0x00, 0x00,
   0x00, 0x00, 0x00, 0x00, 0x00, 0x00, 0x00, 0x00, 0x00, 0x00, 0x00, 0x00,
   0x00, 0x00, 0x00, 0x00, 0x00, 0x00, 0x00, 0x00, 0x00, 0x00, 0x00, 0x00,
   0x00, 0x00, 0x00, 0x00, 0x00, 0x00, 0x00, 0x00, 0x00, 0x00, 0x00, 0x00,
   0x00, 0x00, 0x00, 0x00, 0x00, 0x00, 0x00, 0x00, 0x00, 0x00, 0x00, 0x00,
   0x00, 0x00, 0x00, 0x00, 0x00, 0x00, 0x00, 0x00, 0x00, 0x00, 0x00, 0x00,
   0x00, 0x00, 0x00, 0x00, 0x00, 0x00, 0x00, 0x00, 0x00, 0x00, 0x00, 0x00,
   0x00, 0x00, 0x00, 0x00, 0x00, 0x00, 0x00, 0x00, 0x00, 0x00, 0x00, 0x00,
   0x00, 0x00, 0x00, 0x00, 0x00, 0x00, 0x00, 0x00, 0x00, 0x00, 0x00, 0x00,
   0x00, 0x00, 0x00, 0x00, 0x00, 0x00, 0x24, 0x00, 0x00, 0x00, 0x00, 0x08,
   0x00, 0x00, 0x00, 0x00, 0x00, 0x00, 0x00, 0x00, 0x00, 0x00, 0x00, 0x00,
   0x00, 0x00, 0x00, 0x00, 0x00, 0x00, 0x00, 0x00, 0x00, 0x00, 0x00, 0x00,
   0x00, 0x08, 0x24, 0x00, 0x10, 0x00, 0x0c, 0x08, 0x20, 0x04, 0x00, 0x00,
   0x00, 0x00, 0x00, 0x40, 0x00, 0x00, 0x00, 0x00, 0x00, 0x00, 0x00, 0x00,
   0x00, 0x00, 0x00, 0x00, 0x00, 0x00, 0x00, 0x3c, 0x00, 0x08, 0x24, 0x24,
   0x10, 0x0c, 0x12, 0x08, 0x10, 0x08, 0x00, 0x00, 0x00, 0x00, 0x00, 0x40,
   0x3c, 0x10, 0x3c, 0x7e, 0x20, 0x7e, 0x38, 0x7e, 0x3c, 0x3c, 0x00, 0x00,
   0x20, 0x00, 0x04, 0x42, 0x00, 0x08, 0x24, 0x24, 0x78, 0x92, 0x12, 0x08,
   0x10, 0x08, 0x00, 0x10, 0x00, 0x00, 0x00, 0x20, 0x42, 0x18, 0x42, 0x20,
   0x30, 0x02, 0x04, 0x40, 0x42, 0x42, 0x00, 0x00, 0x10, 0x00, 0x08, 0x40,
   0x00, 0x08, 0x00, 0x7e, 0x04, 0x52, 0x12, 0x00, 0x08, 0x10, 0x24, 0x10,
   0x00, 0x00, 0x00, 0x20, 0x62, 0x14, 0x40, 0x10, 0x28, 0x02, 0x02, 0x20,
   0x42, 0x42, 0x18, 0x18, 0x08, 0x00, 0x10, 0x20, 0x00, 0x08, 0x00, 0x24,
   0x04, 0x2c, 0x0c, 0x00, 0x08, 0x10, 0x18, 0x10, 0x00, 0x00, 0x00, 0x10,
   0x52, 0x10, 0x40, 0x38, 0x24, 0x3e, 0x02, 0x20, 0x42, 0x42, 0x18, 0x18,
   0x04, 0x7e, 0x20, 0x10, 0x00, 0x08, 0x00, 0x24, 0x38, 0x10, 0x8c, 0x00,
   0x08, 0x10, 0x7e, 0xfe, 0x00, 0x7e, 0x00, 0x10, 0x4a, 0x10, 0x20, 0x40,
   0x22, 0x40, 0x3e, 0x10, 0x3c, 0x7c, 0x00, 0x00, 0x02, 0x00, 0x40, 0x08,
   0x00, 0x00, 0x00, 0x24, 0x40, 0x68, 0x92, 0x00, 0x08, 0x10, 0x18, 0x10,
   0x00, 0x00, 0x00, 0x08, 0x46, 0x10, 0x10, 0x40, 0x7e, 0x40, 0x42, 0x10,
   0x42, 0x40, 0x00, 0x00, 0x04, 0x00, 0x20, 0x00, 0x00, 0x00, 0x00, 0x7e,
   0x40, 0x94, 0x62, 0x00, 0x08, 0x10, 0x24, 0x10, 0x00, 0x00, 0x00, 0x08,
   0x42, 0x10, 0x08, 0x40, 0x20, 0x40, 0x42, 0x08, 0x42, 0x40, 0x00, 0x00,
   0x08, 0x7e, 0x10, 0x00, 0x00, 0x08, 0x00, 0x24, 0x3c, 0x92, 0x62, 0x00,
   0x08, 0x10, 0x00, 0x10, 0x18, 0x00, 0x18, 0x04, 0x42, 0x10, 0x04, 0x42,
   0x20, 0x42, 0x42, 0x08, 0x42, 0x20, 0x18, 0x18, 0x10, 0x00, 0x08, 0x08,
   0x00, 0x08, 0x00, 0x24, 0x10, 0x60, 0x9c, 0x00, 0x10, 0x08, 0x00, 0x00,
   0x18, 0x00, 0x18, 0x04, 0x3c, 0x7c, 0x7e, 0x3c, 0x20, 0x3c, 0x3c, 0x08,
   0x3c, 0x1c, 0x18, 0x18, 0x20, 0x00, 0x04, 0x08, 0x00, 0x00, 0x00, 0x00,
   0x10, 0x00, 0x00, 0x00, 0x10, 0x08, 0x00, 0x00, 0x10, 0x00, 0x00, 0x02,
   0x00, 0x00, 0x00, 0x00, 0x00, 0x00, 0x00, 0x00, 0x00, 0x00, 0x00, 0x10,
   0x00, 0x00, 0x00, 0x00, 0x00, 0x00, 0x00, 0x00, 0x00, 0x00, 0x00, 0x00,
   0x20, 0x04, 0x00, 0x00, 0x10, 0x00, 0x00, 0x02, 0x00, 0x00, 0x00, 0x00,
   0x00, 0x00, 0x00, 0x00, 0x00, 0x00, 0x00, 0x10, 0x00, 0x00, 0x00, 0x00,
   0x00, 0x00, 0x00, 0x00, 0x00, 0x00, 0x00, 0x00, 0x00, 0x00, 0x00, 0x00,
   0x08, 0x00, 0x00, 0x00, 0x00, 0x00, 0x00, 0x00, 0x00, 0x00, 0x00, 0x00,
   0x00, 0x00, 0x00, 0x08, 0x00, 0x00, 0x00, 0x00, 0x00, 0x00, 0x00, 0x00,
   0x00, 0x00, 0x00, 0x00, 0x00, 0x00, 0x00, 0x00, 0x00, 0x00, 0x00, 0x00,
   0x00, 0x00, 0x00, 0x00, 0x00, 0x00, 0x00, 0x00, 0x00, 0x00, 0x00, 0x00,
   0x00, 0x00, 0x00, 0x00, 0x00, 0x00, 0x00, 0x00, 0x00, 0x00, 0x00, 0x00,
   0x00, 0x00, 0x00, 0x00, 0x00, 0x00, 0x00, 0x00, 0x00, 0x00, 0x00, 0x00,
   0x00, 0x00, 0x00, 0x00, 0x00, 0x00, 0x00, 0x00, 0x00, 0x00, 0x00, 0x00,
   0x00, 0x00, 0x00, 0x00, 0x00, 0x00, 0x00, 0x00, 0x00, 0x00, 0x00, 0x00,
   0x00, 0x00, 0x00, 0x00, 0x00, 0x00, 0x00, 0x00, 0x00, 0x00, 0x00, 0x00,
   0x00, 0x00, 0x00, 0x00, 0x00, 0x00, 0x00, 0x00, 0x38, 0x00, 0x00, 0x00,
   0x00, 0x00, 0x00, 0x00, 0x00, 0x00, 0x00, 0x00, 0x00, 0x00, 0x00, 0x00,
   0x00, 0x00, 0x00, 0x00, 0x00, 0x00, 0x00, 0x00, 0x00, 0x00, 0x00, 0x78,
   0x02, 0x1e, 0x08, 0x00, 0x44, 0x18, 0x3e, 0x78, 0x1e, 0x7e, 0x7e, 0x78,
   0x42, 0x7c, 0x40, 0x42, 0x02, 0x82, 0x42, 0x3c, 0x3e, 0x3c, 0x3e, 0x7c,
   0xfe, 0x42, 0x42, 0x82, 0x82, 0x82, 0x7e, 0x08, 0x02, 0x10, 0x14, 0x00,
   0x82, 0x24, 0x42, 0x04, 0x22, 0x02, 0x02, 0x04, 0x42, 0x10, 0x40, 0x22,
   0x02, 0xc6, 0x46, 0x42, 0x42, 0x42, 0x42, 0x02, 0x10, 0x42, 0x42, 0x82,
   0x82, 0x82, 0x20, 0x08, 0x04, 0x10, 0x22, 0x00, 0xf2, 0x42, 0x42, 0x02,
   0x42, 0x02, 0x02, 0x02, 0x42, 0x10, 0x40, 0x12, 0x02, 0xaa, 0x4a, 0x42,
   0x42, 0x42, 0x42, 0x02, 0x10, 0x42, 0x42, 0x82, 0x44, 0x44, 0x10, 0x08,
   0x04, 0x10, 0x00, 0x00, 0x8a, 0x42, 0x42, 0x02, 0x42, 0x02, 0x02, 0x02,
   0x42, 0x10, 0x40, 0x0a, 0x02, 0x92, 0x52, 0x42, 0x42, 0x42, 0x42, 0x04,
   0x10, 0x42, 0x42, 0x82, 0x28, 0x28, 0x10, 0x08, 0x08, 0x10, 0x00, 0x00,
   0x8a, 0x42, 0x3e, 0x02, 0x42, 0x3e, 0x3e, 0x62, 0x7e, 0x10, 0x40, 0x06,
   0x02, 0x92, 0x62, 0x42, 0x3e, 0x42, 0x3e, 0x18, 0x10, 0x42, 0x42, 0x92,
   0x10, 0x10, 0x08, 0x08, 0x08, 0x10, 0x00, 0x00, 0x8a, 0x7e, 0x42, 0x02,
   0x42, 0x02, 0x02, 0x42, 0x42, 0x10, 0x40, 0x0a, 0x02, 0x82, 0x42, 0x42,
   0x02, 0x42, 0x12, 0x20, 0x10, 0x42, 0x24, 0x92, 0x28, 0x10, 0x08, 0x08,
   0x10, 0x10, 0x00, 0x00, 0xca, 0x42, 0x42, 0x02, 0x42, 0x02, 0x02, 0x42,
   0x42, 0x10, 0x42, 0x12, 0x02, 0x82, 0x42, 0x42, 0x02, 0x42, 0x22, 0x40,
   0x10, 0x42, 0x24, 0x92, 0x44, 0x10, 0x04, 0x08, 0x10, 0x10, 0x00, 0x00,
   0xb2, 0x42, 0x42, 0x04, 0x22, 0x02, 0x02, 0x44, 0x42, 0x10, 0x42, 0x22,
   0x02, 0x82, 0x42, 0x42, 0x02, 0x42, 0x42, 0x40, 0x10, 0x42, 0x18, 0xaa,
   0x82, 0x10, 0x04, 0x08, 0x20, 0x10, 0x00, 0x00, 0x02, 0x42, 0x3e, 0x78,
   0x1e, 0x7e, 0x02, 0x78, 0x42, 0x7c, 0x3c, 0x42, 0x7e, 0x82, 0x42, 0x3c,
   0x02, 0x3c, 0x42, 0x3e, 0x10, 0x3c, 0x18, 0xc6, 0x82, 0x10, 0x7e, 0x08,
   0x20, 0x10, 0x00, 0x00, 0x04, 0x00, 0x00, 0x00, 0x00, 0x00, 0x00, 0x00,
   0x00, 0x00, 0x00, 0x00, 0x00, 0x00, 0x00, 0x00, 0x00, 0x20, 0x00, 0x00,
   0x00, 0x00, 0x00, 0x00, 0x00, 0x00, 0x00, 0x08, 0x40, 0x10, 0x00, 0x00,
   0xf8, 0x00, 0x00, 0x00, 0x00, 0x00, 0x00, 0x00, 0x00, 0x00, 0x00, 0x00,
   0x00, 0x00, 0x00, 0x00, 0x00, 0x40, 0x00, 0x00, 0x00, 0x00, 0x00, 0x00,
   0x00, 0x00, 0x00, 0x78, 0x40, 0x1e, 0x00, 0xff, 0x00, 0x00, 0x00, 0x00,
   0x00, 0x00, 0x00, 0x00, 0x00, 0x00, 0x00, 0x00, 0x00, 0x00, 0x00, 0x00,
   0x00, 0x00, 0x00, 0x00, 0x00, 0x00, 0x00, 0x00, 0x00, 0x00, 0x00, 0x00,
   0x00, 0x00, 0x00, 0x00, 0x00, 0x00, 0x00, 0x00, 0x00, 0x00, 0x00, 0x00,
   0x00, 0x00, 0x00, 0x00, 0x00, 0x00, 0x00, 0x00, 0x00, 0x00, 0x00, 0x00,
   0x00, 0x00, 0x00, 0x00, 0x00, 0x00, 0x00, 0x00, 0x00, 0x00, 0x00, 0x00,
   0x00, 0x00, 0x00, 0x00, 0x00, 0x00, 0x00, 0x00, 0x00, 0x00, 0x00, 0x00,
   0x00, 0x00, 0x00, 0x00, 0x00, 0x00, 0x00, 0x00, 0x00, 0x00, 0x00, 0x00,
   0x00, 0x00, 0x00, 0x00, 0x00, 0x00, 0x00, 0x00, 0x04, 0x00, 0x00, 0x00,
   0x00, 0x00, 0x00, 0x00, 0x00, 0x00, 0x00, 0x00, 0x00, 0x00, 0x00, 0x00,
   0x00, 0x00, 0x00, 0x00, 0x00, 0x00, 0x00, 0x00, 0x00, 0x00, 0x00, 0x70,
   0x10, 0x0e, 0x00, 0x00, 0x08, 0x00, 0x02, 0x00, 0x40, 0x00, 0x70, 0x00,
   0x02, 0x10, 0x20, 0x02, 0x1c, 0x00, 0x00, 0x00, 0x00, 0x00, 0x00, 0x00,
   0x00, 0x00, 0x00, 0x00, 0x00, 0x00, 0x00, 0x08, 0x10, 0x10, 0x8c, 0x00,
   0x10, 0x00, 0x02, 0x00, 0x40, 0x00, 0x08, 0x00, 0x02, 0x10, 0x20, 0x02,
   0x10, 0x00, 0x00, 0x00, 0x00, 0x00, 0x00, 0x00, 0x08, 0x00, 0x00, 0x00,
   0x00, 0x00, 0x00, 0x08, 0x10, 0x10, 0x92, 0x00, 0x20, 0x00, 0x02, 0x00,
   0x40, 0x00, 0x08, 0x00, 0x02, 0x00, 0x00, 0x02, 0x10, 0x00, 0x00, 0x00,
   0x00, 0x00, 0x00, 0x00, 0x08, 0x00, 0x00, 0x00, 0x00, 0x00, 0x00, 0x08,
   0x10, 0x10, 0x62, 0x00, 0x00, 0x3c, 0x3e, 0x3c, 0x7c, 0x3c, 0x7e, 0x7c,
   0x3e, 0x1c, 0x38, 0x22, 0x10, 0xee, 0x3e, 0x3c, 0x3e, 0x7c, 0x74, 0x7c,
   0x7e, 0x42, 0x42, 0x82, 0x82, 0x42, 0x7e, 0x08, 0x10, 0x10, 0x00, 0x00,
   0x00, 0x40, 0x42, 0x42, 0x42, 0x42, 0x08, 0x42, 0x42, 0x10, 0x20, 0x12,
   0x10, 0x92, 0x42, 0x42, 0x42, 0x42, 0x0c, 0x02, 0x08, 0x42, 0x42, 0x82,
   0x44, 0x42, 0x20, 0x08, 0x10, 0x10, 0x00, 0x00, 0x00, 0x40, 0x42, 0x02,
   0x42, 0x42, 0x08, 0x42, 0x42, 0x10, 0x20, 0x0a, 0x10, 0x92, 0x42, 0x42,
   0x42, 0x42, 0x04, 0x04, 0x08, 0x42, 0x42, 0x82, 0x28, 0x42, 0x10, 0x07,
   0x10, 0xe0, 0x00, 0x00, 0x00, 0x7c, 0x42, 0x02, 0x42, 0x7e, 0x08, 0x42,
   0x42, 0x10, 0x20, 0x0e, 0x10, 0x92, 0x42, 0x42, 0x42, 0x42, 0x04, 0x18,
   0x08, 0x42, 0x24, 0x92, 0x10, 0x42, 0x08, 0x08, 0x10, 0x10, 0x00, 0x00,
   0x00, 0x42, 0x42, 0x02, 0x42, 0x02, 0x08, 0x42, 0x42, 0x10, 0x20, 0x12,
   0x10, 0x92, 0x42, 0x42, 0x42, 0x42, 0x04, 0x20, 0x08, 0x42, 0x24, 0x92,
   0x28, 0x42, 0x04, 0x08, 0x10, 0x10, 0x00, 0x00, 0x00, 0x42, 0x42, 0x42,
   0x42, 0x02, 0x08, 0x42, 0x42, 0x10, 0x20, 0x22, 0x10, 0x92, 0x42, 0x42,
   0x42, 0x42, 0x04, 0x40, 0x08, 0x42, 0x18, 0xaa, 0x44, 0x42, 0x02, 0x08,
   0x10, 0x10, 0x00, 0x00, 0x00, 0x7c, 0x3e, 0x3c, 0x7c, 0x7c, 0x08, 0x7c,
   0x42, 0x7c, 0x20, 0x42, 0x7c, 0x92, 0x42, 0x3c, 0x3e, 0x7c, 0x04, 0x3e,
   0x70, 0x7c, 0x18, 0xc6, 0x82, 0x7c, 0x7e, 0x08, 0x10, 0x10, 0x00, 0x00,
   0x00, 0x00, 0x00, 0x00, 0x00, 0x00, 0x00, 0x40, 0x00, 0x00, 0x20, 0x00,
   0x00, 0x00, 0x00, 0x00, 0x02, 0x40, 0x00, 0x00, 0x00, 0x00, 0x00, 0x00,
   0x00, 0x40, 0x00, 0x08, 0x10, 0x10, 0x00, 0x00, 0x00, 0x00, 0x00, 0x00,
   0x00, 0x00, 0x00, 0x40, 0x00, 0x00, 0x20, 0x00, 0x00, 0x00, 0x00, 0x00,
   0x02, 0x40, 0x00, 0x00, 0x00, 0x00, 0x00, 0x00, 0x00, 0x40, 0x00, 0x70,
   0x10, 0x0e, 0x00, 0x00, 0x00, 0x00, 0x00, 0x00, 0x00, 0x00, 0x00, 0x3c,
   0x00, 0x00, 0x1c, 0x00, 0x00, 0x00, 0x00, 0x00, 0x02, 0x40, 0x00, 0x00,
   0x00, 0x00, 0x00, 0x00, 0x00, 0x3c, 0x00, 0x00, 0x00, 0x00, 0x00, 0x00,
   0x00, 0x00, 0x00, 0x00, 0x00, 0x00, 0x00, 0x00, 0x00, 0x00, 0x00, 0x00,
   0x00, 0x00, 0x00, 0x00, 0x00, 0x00, 0x00, 0x00, 0x00, 0x00, 0x00, 0x00,
   0x00, 0x00, 0x00, 0x00, 0x00, 0x00, 0x00, 0x00, 0x00, 0x00, 0x00, 0x00,
   0x00, 0x00, 0x00, 0x00, 0x00, 0x00, 0x00, 0x00, 0x00, 0x00, 0x00, 0x00,
   0x00, 0x00, 0x00, 0x00, 0x00, 0x00, 0x00, 0x00, 0x00, 0x00, 0x00, 0x00,
   0x00, 0x00, 0x00, 0x00, 0x00, 0x00, 0x00, 0x00, 0x00, 0x00, 0x00, 0x00,
   0x00, 0x00, 0x00, 0x00, 0x00, 0x00, 0x00, 0x00, 0x00, 0x00, 0x00, 0x00,
   0x00, 0x00, 0x00, 0x00, 0x00, 0x00, 0x00, 0x00, 0x00, 0x00, 0x00, 0x00,
   0x00, 0x00, 0x00, 0x00, 0x00, 0x00, 0x00, 0x00, 0x00, 0x00, 0x00, 0x00,
   0x00, 0x00, 0x00, 0x00, 0x00, 0x00, 0x00, 0x00, 0x00, 0x00, 0x00, 0x00,
   0x00, 0x00, 0x00, 0x00, 0x00, 0x00, 0x00, 0x00, 0x00, 0x00, 0x00, 0x00,
   0x00, 0x00, 0x00, 0x00, 0x00, 0x00, 0x00, 0x00, 0x00, 0x00, 0x00, 0x00,
   0x00, 0x00, 0x00, 0x00, 0x00, 0x00, 0x00, 0x00, 0x00, 0x00, 0x00, 0x00,
   0x00, 0x00, 0x00, 0x00, 0x00, 0x00, 0x00, 0x00, 0x00, 0x00, 0x00, 0x00,
   0x00, 0x00, 0x00, 0x00, 0x00, 0x00, 0x00, 0x00, 0x00, 0x00, 0x00, 0x00,
   0x00, 0x00, 0x00, 0x00, 0x00, 0x00, 0x00, 0x00, 0x00, 0x00, 0x00, 0x00,
   0x00, 0x00, 0x00, 0x00, 0x00, 0x00, 0x00, 0x00, 0x00, 0x00, 0x00, 0x00,
   0x00, 0x00, 0x00, 0x00, 0x00, 0x00, 0x00, 0x00, 0x00, 0x00, 0x00, 0x00,
   0x00, 0x00, 0x00, 0x00, 0x00, 0x00, 0x00, 0x00, 0x00, 0x00, 0x00, 0x00,
   0x00, 0x00, 0x00, 0x00, 0x00, 0x00, 0x00, 0x00, 0x00, 0x00, 0x00, 0x00,
   0x00, 0x00, 0x00, 0x00, 0x00, 0x00, 0x00, 0x00, 0x00, 0x00, 0x00, 0x00,
   0x00, 0x00, 0x00, 0x00, 0x00, 0x00, 0x00, 0x00, 0x00, 0x00, 0x00, 0x00,
   0x00, 0x00, 0x00, 0x00, 0x00, 0x00, 0x00, 0x00, 0x00, 0x00, 0x00, 0x00,
   0x00, 0x00, 0x00, 0x00, 0x00, 0x00, 0x00, 0x00, 0x00, 0x00, 0x00, 0x00,
   0x00, 0x00, 0x00, 0x00, 0x00, 0x00, 0x00, 0x00, 0x00, 0x00, 0x00, 0x00,
   0x00, 0x00, 0x00, 0x00, 0x00, 0x00, 0x00, 0x00, 0x00, 0x00, 0x00, 0x00,
   0x00, 0x00, 0x00, 0x00, 0x00, 0x00, 0x00, 0x00, 0x00, 0x00, 0x00, 0x00,
   0x00, 0x00, 0x00, 0x00, 0x00, 0x00, 0x00, 0x00, 0x00, 0x00, 0x00, 0x00,
   0x00, 0x00, 0x00, 0x00, 0x00, 0x00, 0x00, 0x00, 0x00, 0x00, 0x00, 0x00,
   0x00, 0x00, 0x00, 0x00, 0x00, 0x00, 0x00, 0x00, 0x00, 0x00, 0x00, 0x00,
   0x00, 0x00, 0x00, 0x00, 0x00, 0x00, 0x00, 0x00, 0x00, 0x00, 0x00, 0x00,
   0x00, 0x00, 0x00, 0x00, 0x00, 0x00, 0x00, 0x00, 0x00, 0x00, 0x00, 0x00,
   0x00, 0x00, 0x00, 0x00, 0x00, 0x00, 0x00, 0x00, 0x00, 0x00, 0x00, 0x00,
   0x00, 0x00, 0x00, 0x00, 0x00, 0x00, 0x00, 0x00, 0x00, 0x00, 0x00, 0x00,
   0x00, 0x00, 0x00, 0x00, 0x00, 0x00, 0x00, 0x00, 0x00, 0x00, 0x00, 0x00,
   0x00, 0x00, 0x00, 0x00, 0x00, 0x00, 0x00, 0x00, 0x00, 0x00, 0x00, 0x00,
   0x00, 0x00, 0x00, 0x00, 0x00, 0x00, 0x00, 0x00, 0x00, 0x00, 0x00, 0x00,
   0x00, 0x00, 0x00, 0x00, 0x00, 0x00, 0x00, 0x00, 0x00, 0x00, 0x00, 0x00,
   0x00, 0x00, 0x00, 0x00, 0x00, 0x00, 0x00, 0x00, 0x00, 0x00, 0x00, 0x00,
   0x00, 0x00, 0x00, 0x00, 0x00, 0x00, 0x00, 0x00, 0x00, 0x00, 0x00, 0x00,
   0x00, 0x00, 0x00, 0x00, 0x00, 0x00, 0x00, 0x00, 0x00, 0x00, 0x00, 0x00,
   0x00, 0x00, 0x00, 0x00, 0x00, 0x00, 0x00, 0x00, 0x00, 0x00, 0x00, 0x00,
   0x00, 0x00, 0x00, 0x00, 0x00, 0x00, 0x00, 0x00, 0x00, 0x00, 0x00, 0x00,
   0x00, 0x00, 0x00, 0x00, 0x00, 0x00, 0x00, 0x00, 0x00, 0x00, 0x00, 0x00,
   0x00, 0x00, 0x00, 0x00, 0x00, 0x00, 0x00, 0x00, 0x00, 0x00, 0x00, 0x00,
   0x00, 0x00, 0x00, 0x00, 0x00, 0x00, 0x00, 0x00, 0x00, 0x00, 0x00, 0x00,
   0x44, 0x00, 0x00, 0x00, 0x00, 0x00, 0x00, 0x00, 0x00, 0x00, 0x00, 0x00,
   0x00, 0x00, 0x00, 0x00, 0x00, 0x00, 0x00, 0x00, 0x00, 0x00, 0x00, 0x00,
   0x00, 0x00, 0x00, 0x00, 0x00, 0x00, 0x00, 0x00, 0x44, 0x00, 0x00, 0x00,
   0x00, 0x00, 0x00, 0x00, 0x00, 0x00, 0x00, 0x00, 0x00, 0x00, 0x00, 0x00,
   0x00, 0x00, 0x00, 0x00, 0x00, 0x00, 0x00, 0x00, 0x00, 0x00, 0x10, 0x00,
   0x00, 0x00, 0x00, 0x00, 0x00, 0x00, 0x00, 0x00, 0x00, 0x00, 0x00, 0x00,
   0x00, 0x00, 0x00, 0x00, 0x00, 0x00, 0x00, 0x00, 0x00, 0x00, 0x00, 0x00,
   0x00, 0x00, 0x00, 0x00, 0x00, 0x00, 0x10, 0x38, 0x00, 0x82, 0x10, 0x00,
   0x00, 0x38, 0x00, 0x00, 0x00, 0x00, 0x00, 0x00, 0x1c, 0x00, 0x00, 0x00,
   0x00, 0x00, 0x00, 0x00, 0x00, 0x00, 0x00, 0x00, 0x00, 0x00, 0x00, 0x00,
   0x00, 0x00, 0x38, 0x44, 0x42, 0x44, 0x10, 0x00, 0x00, 0x44, 0x00, 0x00,
   0x00, 0x00, 0x00, 0x00, 0x22, 0x00, 0x00, 0x00, 0x00, 0x00, 0x00, 0x00,
   0x00, 0x00, 0x00, 0x00, 0x00, 0x00, 0x00, 0x00, 0x00, 0x08, 0x44, 0x04,
   0x3c, 0x28, 0x10, 0x00, 0x00, 0x82, 0x00, 0x90, 0x00, 0x00, 0x00, 0x00,
   0x22, 0x00, 0x00, 0x00, 0x00, 0x00, 0x00, 0x00, 0x00, 0x00, 0x00, 0x12,
   0x00, 0x00, 0x00, 0x10, 0x00, 0x08, 0x02, 0x04, 0x24, 0x10, 0x10, 0x00,
   0x00, 0xb2, 0x00, 0x48, 0x00, 0x00, 0x00, 0x00, 0x22, 0x00, 0x00, 0x00,
   0x00, 0x00, 0x00, 0x00, 0x00, 0x00, 0x00, 0x24, 0x00, 0x00, 0x00, 0x10,
   0x00, 0x00, 0x02, 0x1f, 0x24, 0x7c, 0x00, 0x00, 0x00, 0x8a, 0x00, 0x24,
   0x00, 0x7e, 0x00, 0x00, 0x1c, 0x00, 0x00, 0x00, 0x00, 0x00, 0x00, 0x00,
   0x00, 0x00, 0x00, 0x48, 0x00, 0x00, 0x00, 0x00, 0x00, 0x00, 0x02, 0x04,
   0x24, 0x10, 0x00, 0x00, 0x00, 0x8a, 0x00, 0x12, 0x00, 0x00, 0x00, 0x00,
   0x00, 0x00, 0x00, 0x00, 0x00, 0x00, 0x00, 0x00, 0x00, 0x00, 0x00, 0x90,
   0x00, 0x00, 0x00, 0x00, 0x00, 0x08, 0x44, 0x04, 0x3c, 0x7c, 0x00, 0x00,
   0x00, 0xb2, 0x00, 0x24, 0x00, 0x00, 0x00, 0x00, 0x00, 0x00, 0x00, 0x00,
   0x00, 0x00, 0x00, 0x00, 0x00, 0x00, 0x00, 0x48, 0x00, 0x00, 0x00, 0x10,
   0x00, 0x08, 0x38, 0x4e, 0x42, 0x10, 0x10, 0x00, 0x00, 0x82, 0x00, 0x48,
   0x00, 0x00, 0x00, 0x00, 0x00, 0x00, 0x00, 0x00, 0x00, 0x00, 0x00, 0x00,
   0x00, 0x00, 0x00, 0x24, 0x00, 0x00, 0x00, 0x08, 0x00, 0x08, 0x10, 0x31,
   0x00, 0x10, 0x10, 0x00, 0x00, 0x44, 0x00, 0x90, 0x00, 0x00, 0x00, 0x00,
   0x00, 0x00, 0x00, 0x00, 0x00, 0x00, 0x00, 0x00, 0x00, 0x00, 0x00, 0x12,
   0x00, 0x00, 0x00, 0x04, 0x00, 0x08, 0x10, 0x00, 0x00, 0x00, 0x10, 0x00,
   0x00, 0x38, 0x00, 0x00, 0x00, 0x00, 0x00, 0x00, 0x00, 0x00, 0x00, 0x00,
   0x00, 0x00, 0x00, 0x00, 0x10, 0x00, 0x00, 0x00, 0x00, 0x00, 0x00, 0x02,
   0x00, 0x08, 0x00, 0x00, 0x00, 0x00, 0x10, 0x00, 0x00, 0x00, 0x00, 0x00,
   0x00, 0x00, 0x00, 0x00, 0x00, 0x00, 0x00, 0x00, 0x00, 0x00, 0x00, 0x00,
   0x10, 0x00, 0x00, 0x00, 0x00, 0x00, 0x00, 0x42, 0x00, 0x08, 0x00, 0x00,
   0x00, 0x00, 0x00, 0x00, 0x00, 0x00, 0x00, 0x00, 0x00, 0x00, 0x00, 0x00,
   0x00, 0x00, 0x00, 0x00, 0x00, 0x00, 0x00, 0x00, 0x0c, 0x00, 0x00, 0x00,
   0x00, 0x00, 0x00, 0x3c, 0x00, 0x00, 0x00, 0x00, 0x00, 0x00, 0x00, 0x00,
   0x00, 0x00, 0x00, 0x00, 0x00, 0x00, 0x00, 0x00, 0x00, 0x00, 0x00, 0x00,
   0x00, 0x00, 0x00, 0x00, 0x00, 0x00, 0x00, 0x00, 0x00, 0x00, 0x00, 0x00,
   0x04, 0x20, 0x18, 0x4c, 0x24, 0x18, 0x00, 0x00, 0x04, 0x20, 0x18, 0x24,
   0x08, 0x20, 0x18, 0x44, 0x00, 0x4c, 0x08, 0x20, 0x18, 0x4c, 0x24, 0x00,
   0x00, 0x04, 0x20, 0x18, 0x24, 0x20, 0x00, 0x00, 0x08, 0x10, 0x24, 0x32,
   0x24, 0x24, 0x00, 0x00, 0x08, 0x10, 0x24, 0x24, 0x10, 0x10, 0x24, 0x44,
   0x00, 0x32, 0x10, 0x10, 0x24, 0x32, 0x24, 0x00, 0x00, 0x08, 0x10, 0x24,
   0x24, 0x10, 0x00, 0x00, 0x00, 0x00, 0x00, 0x00, 0x00, 0x24, 0x00, 0x00,
   0x00, 0x00, 0x00, 0x00, 0x00, 0x00, 0x00, 0x00, 0x00, 0x00, 0x00, 0x00,
   0x00, 0x00, 0x00, 0x00, 0x40, 0x00, 0x00, 0x00, 0x00, 0x00, 0x00, 0x00,
   0x18, 0x18, 0x18, 0x18, 0x18, 0x18, 0xf0, 0x78, 0x7e, 0x7e, 0x7e, 0x7e,
   0x7c, 0x7c, 0x7c, 0x7c, 0x3c, 0x42, 0x38, 0x38, 0x38, 0x38, 0x38, 0x00,
   0x3c, 0x42, 0x42, 0x42, 0x42, 0x82, 0x02, 0x3c, 0x18, 0x18, 0x18, 0x18,
   0x18, 0x18, 0x28, 0x04, 0x02, 0x02, 0x02, 0x02, 0x10, 0x10, 0x10, 0x10,
   0x44, 0x46, 0x44, 0x44, 0x44, 0x44, 0x44, 0x00, 0x42, 0x42, 0x42, 0x42,
   0x42, 0x82, 0x02, 0x42, 0x24, 0x24, 0x24, 0x24, 0x24, 0x24, 0x28, 0x02,
   0x02, 0x02, 0x02, 0x02, 0x10, 0x10, 0x10, 0x10, 0x84, 0x4a, 0x82, 0x82,
   0x82, 0x82, 0x82, 0x00, 0x62, 0x42, 0x42, 0x42, 0x42, 0x44, 0x3e, 0x22,
   0x24, 0x24, 0x24, 0x24, 0x24, 0x24, 0x24, 0x02, 0x02, 0x02, 0x02, 0x02,
   0x10, 0x10, 0x10, 0x10, 0x84, 0x52, 0x82, 0x82, 0x82, 0x82, 0x82, 0x44,
   0x52, 0x42, 0x42, 0x42, 0x42, 0x28, 0x42, 0x32, 0x24, 0x24, 0x24, 0x24,
   0x24, 0x24, 0xe4, 0x02, 0x3e, 0x3e, 0x3e, 0x3e, 0x10, 0x10, 0x10, 0x10,
   0x9e, 0x62, 0x82, 0x82, 0x82, 0x82, 0x82, 0x28, 0x4a, 0x42, 0x42, 0x42,
   0x42, 0x10, 0x42, 0x42, 0x7e, 0x7e, 0x7e, 0x7e, 0x7e, 0x7e, 0x3c, 0x02,
   0x02, 0x02, 0x02, 0x02, 0x10, 0x10, 0x10, 0x10, 0x84, 0x42, 0x82, 0x82,
   0x82, 0x82, 0x82, 0x10, 0x46, 0x42, 0x42, 0x42, 0x42, 0x10, 0x42, 0x42,
   0x42, 0x42, 0x42, 0x42, 0x42, 0x42, 0x22, 0x02, 0x02, 0x02, 0x02, 0x02,
   0x10, 0x10, 0x10, 0x10, 0x84, 0x42, 0x82, 0x82, 0x82, 0x82, 0x82, 0x28,
   0x42, 0x42, 0x42, 0x42, 0x42, 0x10, 0x3e, 0x42, 0x42, 0x42, 0x42, 0x42,
   0x42, 0x42, 0x22, 0x04, 0x02, 0x02, 0x02, 0x02, 0x10, 0x10, 0x10, 0x10,
   0x44, 0x42, 0x44, 0x44, 0x44, 0x44, 0x44, 0x44, 0x42, 0x42, 0x42, 0x42,
   0x42, 0x10, 0x02, 0x22, 0x42, 0x42, 0x42, 0x42, 0x42, 0x42, 0xe2, 0x78,
   0x7e, 0x7e, 0x7e, 0x7e, 0x7c, 0x7c, 0x7c, 0x7c, 0x3c, 0x42, 0x38, 0x38,
   0x38, 0x38, 0x38, 0x00, 0x3c, 0x3c, 0x3c, 0x3c, 0x3c, 0x10, 0x02, 0x1a,
   0x00, 0x00, 0x00, 0x00, 0x00, 0x00, 0x00, 0x10, 0x00, 0x00, 0x00, 0x00,
   0x00, 0x00, 0x00, 0x00, 0x00, 0x00, 0x00, 0x00, 0x00, 0x00, 0x00, 0x00,
   0x02, 0x00, 0x00, 0x00, 0x00, 0x00, 0x00, 0x00, 0x00, 0x00, 0x00, 0x00,
   0x00, 0x00, 0x00, 0x10, 0x00, 0x00, 0x00, 0x00, 0x00, 0x00, 0x00, 0x00,
   0x00, 0x00, 0x00, 0x00, 0x00, 0x00, 0x00, 0x00, 0x00, 0x00, 0x00, 0x00,
   0x00, 0x00, 0x00, 0x00, 0x00, 0x00, 0x00, 0x00, 0x00, 0x00, 0x00, 0x0c,
   0x00, 0x00, 0x00, 0x00, 0x00, 0x00, 0x00, 0x00, 0x00, 0x00, 0x00, 0x00,
   0x00, 0x00, 0x00, 0x00, 0x00, 0x00, 0x00, 0x00, 0x00, 0x00, 0x00, 0x00,
   0x00, 0x00, 0x00, 0x00, 0x00, 0x00, 0x00, 0x00, 0x00, 0x00, 0x00, 0x00,
   0x00, 0x00, 0x00, 0x00, 0x00, 0x00, 0x00, 0x00, 0x00, 0x00, 0x00, 0x00,
   0x00, 0x00, 0x00, 0x00, 0x00, 0x00, 0x00, 0x00, 0x00, 0x00, 0x00, 0x00,
   0x00, 0x18, 0x00, 0x00, 0x00, 0x00, 0x00, 0x00, 0x00, 0x00, 0x00, 0x00,
   0x00, 0x00, 0x00, 0x00, 0x00, 0x00, 0x00, 0x00, 0x00, 0x00, 0x00, 0x00,
   0x00, 0x00, 0x00, 0x00, 0x00, 0x00, 0x18, 0x4c, 0x00, 0x24, 0x00, 0x00,
   0x00, 0x00, 0x18, 0x00, 0x00, 0x00, 0x18, 0x00, 0x90, 0x4c, 0x00, 0x00,
   0x18, 0x4c, 0x00, 0x00, 0x00, 0x00, 0x00, 0x18, 0x00, 0x00, 0x00, 0x00,
   0x04, 0x20, 0x24, 0x32, 0x24, 0x24, 0x00, 0x00, 0x04, 0x20, 0x24, 0x24,
   0x08, 0x20, 0x24, 0x24, 0x60, 0x32, 0x08, 0x20, 0x24, 0x32, 0x24, 0x00,
   0x00, 0x04, 0x20, 0x24, 0x24, 0x20, 0x02, 0x24, 0x08, 0x10, 0x00, 0x00,
   0x24, 0x18, 0x00, 0x00, 0x08, 0x10, 0x00, 0x24, 0x10, 0x10, 0x00, 0x24,
   0x58, 0x00, 0x10, 0x10, 0x00, 0x00, 0x24, 0x18, 0x00, 0x08, 0x10, 0x00,
   0x24, 0x10, 0x02, 0x24, 0x00, 0x00, 0x00, 0x00, 0x00, 0x00, 0x00, 0x00,
   0x00, 0x00, 0x00, 0x00, 0x00, 0x00, 0x00, 0x00, 0x80, 0x00, 0x00, 0x00,
   0x00, 0x00, 0x00, 0x18, 0x40, 0x00, 0x00, 0x00, 0x00, 0x00, 0x02, 0x00,
   0x3c, 0x3c, 0x3c, 0x3c, 0x3c, 0x3c, 0x6c, 0x3c, 0x3c, 0x3c, 0x3c, 0x3c,
   0x1c, 0x1c, 0x1c, 0x1c, 0xb8, 0x3e, 0x3c, 0x3c, 0x3c, 0x3c, 0x3c, 0x00,
   0x3c, 0x42, 0x42, 0x42, 0x42, 0x42, 0x3a, 0x42, 0x40, 0x40, 0x40, 0x40,
   0x40, 0x40, 0x90, 0x42, 0x42, 0x42, 0x42, 0x42, 0x10, 0x10, 0x10, 0x10,
   0xc4, 0x42, 0x42, 0x42, 0x42, 0x42, 0x42, 0x00, 0x62, 0x42, 0x42, 0x42,
   0x42, 0x42, 0x46, 0x42, 0x40, 0x40, 0x40, 0x40, 0x40, 0x40, 0x9c, 0x02,
   0x42, 0x42, 0x42, 0x42, 0x10, 0x10, 0x10, 0x10, 0x82, 0x42, 0x42, 0x42,
   0x42, 0x42, 0x42, 0x7e, 0x52, 0x42, 0x42, 0x42, 0x42, 0x42, 0x82, 0x42,
   0x7c, 0x7c, 0x7c, 0x7c, 0x7c, 0x7c, 0xf2, 0x02, 0x7e, 0x7e, 0x7e, 0x7e,
   0x10, 0x10, 0x10, 0x10, 0x82, 0x42, 0x42, 0x42, 0x42, 0x42, 0x42, 0x00,
   0x4a, 0x42, 0x42, 0x42, 0x42, 0x42, 0x82, 0x42, 0x42, 0x42, 0x42, 0x42,
   0x42, 0x42, 0x12, 0x02, 0x02, 0x02, 0x02, 0x02, 0x10, 0x10, 0x10, 0x10,
   0x82, 0x42, 0x42, 0x42, 0x42, 0x42, 0x42, 0x00, 0x46, 0x42, 0x42, 0x42,
   0x42, 0x42, 0x82, 0x42, 0x42, 0x42, 0x42, 0x42, 0x42, 0x42, 0x12, 0x42,
   0x02, 0x02, 0x02, 0x02, 0x10, 0x10, 0x10, 0x10, 0x44, 0x42, 0x42, 0x42,
   0x42, 0x42, 0x42, 0x18, 0x42, 0x42, 0x42, 0x42, 0x42, 0x42, 0x46, 0x42,
   0x7c, 0x7c, 0x7c, 0x7c, 0x7c, 0x7c, 0xec, 0x3c, 0x7c, 0x7c, 0x7c, 0x7c,
   0x7c, 0x7c, 0x7c, 0x7c, 0x38, 0x42, 0x3c, 0x3c, 0x3c, 0x3c, 0x3c, 0x18,
   0x3c, 0x7c, 0x7c, 0x7c, 0x7c, 0x7c, 0x3a, 0x7c, 0x00, 0x00, 0x00, 0x00,
   0x00, 0x00, 0x00, 0x10, 0x00, 0x00, 0x00, 0x00, 0x00, 0x00, 0x00, 0x00,
   0x00, 0x00, 0x00, 0x00, 0x00, 0x00, 0x00, 0x00, 0x02, 0x00, 0x00, 0x00,
   0x00, 0x40, 0x02, 0x40, 0x00, 0x00, 0x00, 0x00, 0x00, 0x00, 0x00, 0x10,
   0x00, 0x00, 0x00, 0x00, 0x00, 0x00, 0x00, 0x00, 0x00, 0x00, 0x00, 0x00,
   0x00, 0x00, 0x00, 0x00, 0x00, 0x00, 0x00, 0x00, 0x00, 0x40, 0x02, 0x40,
   0x00, 0x00, 0x00, 0x00, 0x00, 0x00, 0x00, 0x0c, 0x00, 0x00, 0x00, 0x00,
   0x00, 0x00, 0x00, 0x00, 0x00, 0x00, 0x00, 0x00, 0x00, 0x00, 0x00, 0x00,
   0x00, 0x00, 0x00, 0x00, 0x00, 0x3c, 0x02, 0x3c, 0x00, 0x00, 0x00, 0x00,
   0x00, 0x00, 0x00, 0x00, 0x00, 0x00, 0x00, 0x00, 0x00, 0x00, 0x00, 0x00,
   0x00, 0x00, 0x00, 0x00, 0x00, 0x00, 0x00, 0x00, 0x00, 0x00, 0x00, 0x00,
   0x00, 0x00, 0x00, 0x00 };
