#define u000400_u0004FF_width 256
#define u000400_u0004FF_height 128
static unsigned char u000400_u0004FF_bits[] = {
   0x08, 0x24, 0x00, 0x10, 0x00, 0x00, 0x00, 0x22, 0x00, 0x00, 0x00, 0x00,
   0x10, 0x08, 0x24, 0x00, 0x00, 0x00, 0x00, 0x00, 0x00, 0x00, 0x00, 0x00,
   0x00, 0x24, 0x00, 0x00, 0x00, 0x00, 0x00, 0x00, 0x10, 0x24, 0x00, 0x08,
   0x00, 0x00, 0x00, 0x22, 0x00, 0x00, 0x00, 0x00, 0x08, 0x10, 0x18, 0x00,
   0x00, 0x00, 0x00, 0x00, 0x00, 0x00, 0x00, 0x00, 0x00, 0x18, 0x00, 0x00,
   0x00, 0x00, 0x00, 0x00, 0x00, 0x00, 0x1f, 0x00, 0x3c, 0x3c, 0x1c, 0x00,
   0x70, 0x0c, 0x09, 0x1f, 0x42, 0x42, 0x42, 0x42, 0x3c, 0x3e, 0x3e, 0x7e,
   0x3c, 0x7e, 0x49, 0x3c, 0x42, 0x42, 0x42, 0x70, 0x41, 0x42, 0x3c, 0x7e,
   0x7e, 0x7e, 0x04, 0x7e, 0x42, 0x42, 0x08, 0x1c, 0x20, 0x0a, 0x09, 0x04,
   0x22, 0x42, 0x42, 0x42, 0x42, 0x02, 0x42, 0x02, 0x22, 0x02, 0x49, 0x42,
   0x42, 0x42, 0x22, 0x48, 0x63, 0x42, 0x42, 0x42, 0x02, 0x02, 0x04, 0x02,
   0x02, 0x02, 0x08, 0x08, 0x20, 0x09, 0x09, 0x04, 0x12, 0x42, 0x42, 0x42,
   0x42, 0x02, 0x42, 0x02, 0x22, 0x02, 0x49, 0x42, 0x42, 0x42, 0x12, 0x44,
   0x55, 0x42, 0x42, 0x42, 0x02, 0x02, 0x3c, 0x02, 0x02, 0x02, 0x08, 0x08,
   0x20, 0x39, 0x39, 0x3c, 0x0a, 0x62, 0x42, 0x42, 0x42, 0x3e, 0x42, 0x02,
   0x22, 0x02, 0x2a, 0x40, 0x62, 0x62, 0x0a, 0x44, 0x49, 0x42, 0x42, 0x42,
   0x02, 0x02, 0x44, 0x02, 0x1e, 0x3c, 0x08, 0x08, 0x20, 0x49, 0x4f, 0x44,
   0x06, 0x52, 0x42, 0x42, 0x42, 0x42, 0x3e, 0x02, 0x22, 0x1e, 0x1c, 0x38,
   0x52, 0x52, 0x06, 0x44, 0x49, 0x7e, 0x42, 0x42, 0x1e, 0x1e, 0x44, 0x02,
   0x02, 0x40, 0x08, 0x08, 0x20, 0x49, 0x49, 0x44, 0x06, 0x4a, 0x7c, 0x42,
   0x7e, 0x42, 0x42, 0x02, 0x22, 0x02, 0x2a, 0x40, 0x4a, 0x4a, 0x06, 0x44,
   0x41, 0x42, 0x42, 0x42, 0x02, 0x02, 0x44, 0x02, 0x02, 0x40, 0x08, 0x08,
   0x20, 0x49, 0x49, 0x44, 0x0a, 0x46, 0x40, 0x42, 0x42, 0x42, 0x42, 0x02,
   0x22, 0x02, 0x49, 0x40, 0x46, 0x46, 0x0a, 0x44, 0x41, 0x42, 0x42, 0x42,
   0x02, 0x02, 0x44, 0x02, 0x02, 0x42, 0x08, 0x08, 0x22, 0x49, 0x49, 0x44,
   0x12, 0x42, 0x40, 0x42, 0x42, 0x42, 0x42, 0x02, 0x22, 0x02, 0x49, 0x42,
   0x42, 0x42, 0x12, 0x44, 0x41, 0x42, 0x42, 0x42, 0x02, 0x02, 0x44, 0x02,
   0x42, 0x42, 0x08, 0x08, 0x22, 0x49, 0x49, 0x44, 0x22, 0x42, 0x40, 0x42,
   0x42, 0x42, 0x42, 0x02, 0x22, 0x02, 0x49, 0x42, 0x42, 0x42, 0x22, 0x44,
   0x41, 0x42, 0x42, 0x42, 0x7e, 0x7e, 0x24, 0x02, 0x3c, 0x3c, 0x1c, 0x1c,
   0x1c, 0x39, 0x39, 0x44, 0x42, 0x42, 0x3c, 0x7e, 0x42, 0x3e, 0x3e, 0x02,
   0x7f, 0x7e, 0x49, 0x3c, 0x42, 0x42, 0x42, 0x42, 0x41, 0x42, 0x3c, 0x42,
   0x00, 0x00, 0x00, 0x00, 0x00, 0x00, 0x00, 0x00, 0x00, 0x00, 0x00, 0x00,
   0x00, 0x00, 0x00, 0x18, 0x00, 0x00, 0x00, 0x00, 0x41, 0x00, 0x00, 0x00,
   0x00, 0x00, 0x00, 0x00, 0x00, 0x00, 0x00, 0x00, 0x00, 0x00, 0x00, 0x00,
   0x00, 0x00, 0x00, 0x00, 0x00, 0x00, 0x00, 0x00, 0x00, 0x00, 0x00, 0x18,
   0x00, 0x00, 0x00, 0x00, 0x00, 0x00, 0x00, 0x00, 0x00, 0x00, 0x00, 0x00,
   0x00, 0x00, 0x00, 0x00, 0x00, 0x00, 0x00, 0x00, 0x00, 0x00, 0x00, 0x00,
   0x00, 0x00, 0x00, 0x00, 0x00, 0x00, 0x00, 0x00, 0x00, 0x00, 0x00, 0x00,
   0x00, 0x00, 0x00, 0x00, 0x00, 0x00, 0x00, 0x00, 0x00, 0x00, 0x00, 0x00,
   0x00, 0x00, 0x00, 0x00, 0x00, 0x00, 0x00, 0x00, 0x00, 0x00, 0x00, 0x00,
   0x00, 0x00, 0x00, 0x00, 0x00, 0x00, 0x00, 0x00, 0x00, 0x00, 0x00, 0x00,
   0x00, 0x00, 0x00, 0x00, 0x00, 0x00, 0x00, 0x00, 0x00, 0x00, 0x00, 0x00,
   0x00, 0x00, 0x00, 0x00, 0x00, 0x00, 0x00, 0x00, 0x00, 0x00, 0x00, 0x00,
   0x00, 0x00, 0x00, 0x00, 0x00, 0x00, 0x00, 0x00, 0x00, 0x00, 0x00, 0x00,
   0x00, 0x00, 0x00, 0x00, 0x00, 0x00, 0x00, 0x00, 0x08, 0x00, 0x00, 0x00,
   0x00, 0x00, 0x00, 0x00, 0x00, 0x00, 0x00, 0x00, 0x00, 0x00, 0x00, 0x00,
   0x00, 0x00, 0x00, 0x00, 0x00, 0x00, 0x00, 0x00, 0x00, 0x00, 0x00, 0x00,
   0x3e, 0x3c, 0x7f, 0x42, 0x3e, 0x42, 0x42, 0x42, 0x49, 0x49, 0x03, 0x41,
   0x02, 0x3c, 0x31, 0x7c, 0x00, 0x3c, 0x1c, 0x00, 0x00, 0x00, 0x00, 0x00,
   0x00, 0x24, 0x00, 0x00, 0x00, 0x00, 0x00, 0x00, 0x42, 0x42, 0x08, 0x42,
   0x49, 0x42, 0x42, 0x42, 0x49, 0x49, 0x02, 0x41, 0x02, 0x42, 0x49, 0x42,
   0x00, 0x02, 0x22, 0x00, 0x00, 0x00, 0x00, 0x00, 0x00, 0x18, 0x00, 0x00,
   0x00, 0x00, 0x00, 0x00, 0x42, 0x42, 0x08, 0x42, 0x49, 0x24, 0x42, 0x42,
   0x49, 0x49, 0x02, 0x41, 0x02, 0x40, 0x49, 0x42, 0x00, 0x02, 0x22, 0x00,
   0x00, 0x00, 0x00, 0x00, 0x00, 0x00, 0x00, 0x00, 0x00, 0x00, 0x00, 0x00,
   0x42, 0x02, 0x08, 0x42, 0x49, 0x24, 0x42, 0x42, 0x49, 0x49, 0x3e, 0x4f,
   0x3e, 0x40, 0x49, 0x42, 0x3c, 0x3e, 0x12, 0x7e, 0x7c, 0x3c, 0x49, 0x3c,
   0x42, 0x42, 0x42, 0x78, 0x41, 0x42, 0x3c, 0x7e, 0x42, 0x02, 0x08, 0x42,
   0x49, 0x18, 0x42, 0x42, 0x49, 0x49, 0x42, 0x51, 0x42, 0x78, 0x49, 0x42,
   0x40, 0x42, 0x3e, 0x02, 0x42, 0x42, 0x49, 0x42, 0x42, 0x42, 0x22, 0x44,
   0x63, 0x42, 0x42, 0x42, 0x3e, 0x02, 0x08, 0x7c, 0x49, 0x18, 0x42, 0x7c,
   0x49, 0x49, 0x42, 0x51, 0x42, 0x40, 0x4f, 0x7c, 0x7c, 0x42, 0x42, 0x02,
   0x42, 0x42, 0x2a, 0x40, 0x42, 0x42, 0x12, 0x44, 0x55, 0x42, 0x42, 0x42,
   0x02, 0x02, 0x08, 0x40, 0x49, 0x24, 0x42, 0x40, 0x49, 0x49, 0x42, 0x51,
   0x42, 0x40, 0x49, 0x50, 0x42, 0x42, 0x42, 0x02, 0x42, 0x7e, 0x1c, 0x38,
   0x42, 0x42, 0x0e, 0x44, 0x49, 0x7e, 0x42, 0x42, 0x02, 0x42, 0x08, 0x40,
   0x49, 0x24, 0x42, 0x40, 0x49, 0x49, 0x42, 0x51, 0x42, 0x40, 0x49, 0x48,
   0x42, 0x42, 0x42, 0x02, 0x42, 0x02, 0x2a, 0x40, 0x42, 0x42, 0x12, 0x44,
   0x41, 0x42, 0x42, 0x42, 0x02, 0x42, 0x08, 0x40, 0x49, 0x42, 0x42, 0x40,
   0x49, 0x49, 0x42, 0x51, 0x42, 0x42, 0x49, 0x44, 0x42, 0x42, 0x42, 0x02,
   0x42, 0x02, 0x49, 0x42, 0x42, 0x42, 0x22, 0x44, 0x41, 0x42, 0x42, 0x42,
   0x02, 0x3c, 0x08, 0x3c, 0x3e, 0x42, 0xfc, 0x40, 0x7e, 0xfe, 0x3e, 0x4f,
   0x3e, 0x3c, 0x31, 0x42, 0x7c, 0x3e, 0x3e, 0x02, 0x7c, 0x3c, 0x49, 0x3c,
   0x7c, 0x7c, 0x42, 0x42, 0x41, 0x42, 0x3c, 0x42, 0x00, 0x00, 0x00, 0x00,
   0x08, 0x00, 0x80, 0x00, 0x00, 0x80, 0x00, 0x00, 0x00, 0x00, 0x00, 0x00,
   0x00, 0x00, 0x00, 0x00, 0x40, 0x00, 0x00, 0x00, 0x00, 0x00, 0x00, 0x00,
   0x00, 0x00, 0x00, 0x00, 0x00, 0x00, 0x00, 0x00, 0x00, 0x00, 0x80, 0x00,
   0x00, 0x80, 0x00, 0x00, 0x00, 0x00, 0x00, 0x00, 0x00, 0x00, 0x00, 0x00,
   0x40, 0x00, 0x00, 0x00, 0x00, 0x00, 0x00, 0x00, 0x00, 0x00, 0x00, 0x00,
   0x00, 0x00, 0x00, 0x00, 0x00, 0x00, 0x00, 0x00, 0x00, 0x00, 0x00, 0x00,
   0x00, 0x00, 0x00, 0x00, 0x00, 0x00, 0x00, 0x00, 0x3c, 0x00, 0x00, 0x00,
   0x00, 0x00, 0x00, 0x00, 0x00, 0x00, 0x00, 0x00, 0x00, 0x00, 0x00, 0x00,
   0x00, 0x00, 0x00, 0x00, 0x00, 0x00, 0x00, 0x00, 0x00, 0x00, 0x00, 0x00,
   0x00, 0x00, 0x00, 0x00, 0x00, 0x00, 0x00, 0x00, 0x00, 0x00, 0x00, 0x00,
   0x00, 0x00, 0x00, 0x00, 0x00, 0x00, 0x00, 0x00, 0x00, 0x00, 0x00, 0x00,
   0x00, 0x00, 0x00, 0x00, 0x00, 0x00, 0x00, 0x00, 0x00, 0x00, 0x00, 0x00,
   0x00, 0x00, 0x00, 0x00, 0x00, 0x00, 0x00, 0x00, 0x00, 0x00, 0x00, 0x00,
   0x00, 0x00, 0x00, 0x00, 0x00, 0x00, 0x00, 0x00, 0x00, 0x00, 0x00, 0x00,
   0x00, 0x00, 0x00, 0x00, 0x00, 0x00, 0x00, 0x00, 0x00, 0x00, 0x00, 0x00,
   0x00, 0x00, 0x00, 0x00, 0x00, 0x00, 0x00, 0x00, 0x00, 0x00, 0x00, 0x00,
   0x00, 0x00, 0x00, 0x00, 0x00, 0x00, 0x00, 0x00, 0x00, 0x00, 0x00, 0x00,
   0x08, 0x24, 0x02, 0x10, 0x00, 0x00, 0x08, 0x12, 0x20, 0x00, 0x00, 0x02,
   0x10, 0x08, 0x24, 0x00, 0x00, 0x00, 0x00, 0x00, 0x00, 0x00, 0x00, 0x00,
   0x00, 0x00, 0x00, 0x00, 0x00, 0x00, 0x00, 0x00, 0x10, 0x24, 0x1f, 0x08,
   0x00, 0x00, 0x08, 0x12, 0x20, 0x00, 0x00, 0x1f, 0x08, 0x10, 0x18, 0x00,
   0x00, 0x00, 0x00, 0x00, 0x08, 0x00, 0x00, 0x00, 0x00, 0x00, 0x00, 0x00,
   0x00, 0x00, 0x00, 0x00, 0x00, 0x00, 0x02, 0x00, 0x00, 0x00, 0x00, 0x00,
   0x00, 0x00, 0x00, 0x02, 0x00, 0x00, 0x00, 0x00, 0x3e, 0x3c, 0x7f, 0x42,
   0x3e, 0x42, 0x42, 0x42, 0x49, 0x49, 0x06, 0x41, 0x02, 0x3c, 0x31, 0x7c,
   0x3c, 0x3c, 0x3e, 0x7e, 0x3c, 0x7c, 0x0c, 0x0c, 0x30, 0x0e, 0x09, 0x3e,
   0x42, 0x42, 0x42, 0x42, 0x42, 0x42, 0x08, 0x42, 0x49, 0x42, 0x42, 0x42,
   0x49, 0x49, 0x04, 0x41, 0x02, 0x42, 0x49, 0x42, 0x42, 0x42, 0x42, 0x02,
   0x42, 0x02, 0x08, 0x08, 0x20, 0x09, 0x09, 0x42, 0x22, 0x42, 0x42, 0x42,
   0x42, 0x02, 0x08, 0x42, 0x49, 0x24, 0x42, 0x42, 0x49, 0x49, 0x3c, 0x4f,
   0x1e, 0x40, 0x49, 0x42, 0x42, 0x42, 0x42, 0x02, 0x02, 0x02, 0x08, 0x08,
   0x20, 0x39, 0x39, 0x42, 0x12, 0x42, 0x42, 0x42, 0x42, 0x02, 0x08, 0x42,
   0x49, 0x18, 0x42, 0x7c, 0x49, 0x49, 0x44, 0x51, 0x22, 0x78, 0x4f, 0x7c,
   0x7e, 0x7e, 0x42, 0x02, 0x1e, 0x3c, 0x08, 0x08, 0x20, 0x49, 0x4f, 0x42,
   0x0e, 0x42, 0x42, 0x42, 0x42, 0x02, 0x08, 0x42, 0x49, 0x24, 0x42, 0x40,
   0x49, 0x49, 0x44, 0x51, 0x22, 0x40, 0x49, 0x48, 0x02, 0x02, 0x42, 0x02,
   0x02, 0x40, 0x08, 0x08, 0x20, 0x49, 0x49, 0x42, 0x12, 0x42, 0x42, 0x42,
   0x42, 0x42, 0x08, 0x42, 0x49, 0x42, 0x42, 0x40, 0x49, 0x49, 0x44, 0x51,
   0x22, 0x42, 0x49, 0x44, 0x02, 0x02, 0x42, 0x02, 0x42, 0x40, 0x08, 0x08,
   0x20, 0x49, 0x49, 0x42, 0x22, 0x42, 0x42, 0x42, 0x3e, 0x3c, 0x08, 0x7c,
   0x3e, 0x42, 0xfc, 0x40, 0x7e, 0xfe, 0x3c, 0x4f, 0x1e, 0x3c, 0x31, 0x42,
   0x3c, 0x3c, 0x42, 0x02, 0x3c, 0x3e, 0x1c, 0x1c, 0x20, 0x39, 0x39, 0x42,
   0x42, 0x7c, 0x7c, 0x7e, 0x02, 0x00, 0x00, 0x40, 0x08, 0x00, 0x80, 0x00,
   0x00, 0x80, 0x00, 0x00, 0x00, 0x00, 0x00, 0x00, 0x00, 0x00, 0x40, 0x00,
   0x00, 0x00, 0x00, 0x00, 0x22, 0x00, 0x00, 0x00, 0x00, 0x00, 0x40, 0x18,
   0x02, 0x00, 0x00, 0x40, 0x00, 0x00, 0x80, 0x00, 0x00, 0x80, 0x00, 0x00,
   0x00, 0x00, 0x00, 0x00, 0x00, 0x00, 0x40, 0x00, 0x00, 0x00, 0x00, 0x00,
   0x22, 0x00, 0x00, 0x00, 0x00, 0x00, 0x40, 0x18, 0x02, 0x00, 0x00, 0x3c,
   0x00, 0x00, 0x00, 0x00, 0x00, 0x00, 0x00, 0x00, 0x00, 0x00, 0x00, 0x00,
   0x00, 0x00, 0x30, 0x00, 0x00, 0x00, 0x00, 0x00, 0x1c, 0x00, 0x00, 0x00,
   0x00, 0x00, 0x3c, 0x00, 0x00, 0x00, 0x00, 0x00, 0x00, 0x00, 0x00, 0x00,
   0x00, 0x00, 0x00, 0x00, 0x00, 0x00, 0x00, 0x00, 0x00, 0x00, 0x00, 0x00,
   0x00, 0x00, 0x00, 0x00, 0x00, 0x00, 0x00, 0x00, 0x00, 0x00, 0x00, 0x00,
   0x00, 0x00, 0x00, 0x00, 0x00, 0x00, 0x00, 0x00, 0x00, 0x00, 0x00, 0x00,
   0x00, 0x00, 0x00, 0x00, 0x00, 0x00, 0x00, 0x00, 0x00, 0x00, 0x00, 0x00,
   0x00, 0x00, 0x00, 0x00, 0x00, 0x00, 0x00, 0x00, 0x00, 0x00, 0x00, 0x00,
   0x00, 0x00, 0x00, 0x00, 0x00, 0x00, 0x00, 0x00, 0x00, 0x00, 0x00, 0x00,
   0x00, 0x00, 0x00, 0x00, 0x00, 0x00, 0x00, 0x00, 0x00, 0x00, 0x00, 0x00,
   0x00, 0x00, 0x00, 0x00, 0x00, 0x00, 0x00, 0x00, 0x00, 0x00, 0x00, 0x00,
   0x00, 0x00, 0x00, 0x00, 0x00, 0x00, 0x00, 0x00, 0x00, 0x00, 0x00, 0x00,
   0x00, 0x00, 0x00, 0x00, 0x00, 0x00, 0x00, 0x00, 0x00, 0x00, 0x00, 0x00,
   0x00, 0x00, 0x00, 0x00, 0x00, 0x00, 0x00, 0x00, 0x00, 0x00, 0x00, 0x00,
   0x00, 0x00, 0x00, 0x00, 0x00, 0x00, 0x00, 0x00, 0x00, 0x00, 0x00, 0x00,
   0x00, 0x00, 0x00, 0x00, 0x00, 0x00, 0x00, 0x00, 0x00, 0x00, 0x00, 0x00,
   0x00, 0x00, 0x00, 0x00, 0x00, 0x00, 0x00, 0x00, 0x00, 0x00, 0x00, 0x00,
   0x00, 0x00, 0x00, 0x00, 0x00, 0x00, 0x00, 0x00, 0x00, 0x00, 0x00, 0x00,
   0x00, 0x00, 0x00, 0x00, 0x00, 0x00, 0x00, 0x00, 0x00, 0x00, 0x00, 0x00,
   0x00, 0x00, 0x00, 0x00, 0x00, 0x00, 0x00, 0x00, 0x00, 0x00, 0x00, 0x00,
   0x00, 0x00, 0x00, 0x00, 0x00, 0x00, 0x00, 0x00, 0x00, 0x00, 0x00, 0x00,
   0x00, 0x00, 0x00, 0x00, 0x00, 0x00, 0x00, 0x00, 0x00, 0x00, 0x00, 0x00,
   0x00, 0x00, 0x00, 0x00, 0x00, 0x00, 0x00, 0x00, 0x00, 0x00, 0x00, 0x00,
   0x00, 0x00, 0x00, 0x00, 0x00, 0x00, 0x00, 0x00, 0x00, 0x00, 0x00, 0x00,
   0x00, 0x00, 0x00, 0x00, 0x00, 0x00, 0x00, 0x00, 0x00, 0x00, 0x00, 0x00,
   0x00, 0x00, 0x00, 0x00, 0x00, 0x00, 0x00, 0x00, 0x00, 0x00, 0x00, 0x00,
   0x00, 0x00, 0x00, 0x00, 0x00, 0x00, 0x00, 0x00, 0x00, 0x00, 0x00, 0x00,
   0x00, 0x00, 0x00, 0x00, 0x00, 0x00, 0x00, 0x00, 0x00, 0x00, 0x00, 0x00,
   0x00, 0x00, 0x00, 0x00, 0x00, 0x00, 0x00, 0x00, 0x00, 0x00, 0x00, 0x00,
   0x00, 0x00, 0x00, 0x00, 0x00, 0x00, 0x00, 0x00, 0x00, 0x00, 0x00, 0x00,
   0x00, 0x00, 0x00, 0x00, 0x00, 0x00, 0x00, 0x00, 0x00, 0x00, 0x00, 0x00,
   0x00, 0x00, 0x00, 0x00, 0x00, 0x00, 0x00, 0x00, 0x00, 0x00, 0x00, 0x00,
   0x00, 0x00, 0x00, 0x00, 0x00, 0x00, 0x00, 0x00, 0x00, 0x00, 0x00, 0x00,
   0x00, 0x00, 0x00, 0x00, 0x00, 0x00, 0x00, 0x00, 0x00, 0x00, 0x00, 0x00,
   0x00, 0x00, 0x00, 0x00, 0x00, 0x00, 0x00, 0x00, 0x00, 0x00, 0x00, 0x00,
   0x00, 0x00, 0x00, 0x00, 0x00, 0x00, 0x00, 0x00, 0x00, 0x00, 0x00, 0x00,
   0x00, 0x00, 0x00, 0x00, 0x00, 0x00, 0x00, 0x00, 0x00, 0x00, 0x00, 0x00,
   0x00, 0x00, 0x00, 0x00, 0x00, 0x00, 0x00, 0x00, 0x00, 0x00, 0x00, 0x00,
   0x00, 0x00, 0x00, 0x00, 0x00, 0x00, 0x00, 0x00, 0x00, 0x00, 0x00, 0x00,
   0x00, 0x00, 0x00, 0x00, 0x00, 0x00, 0x00, 0x00, 0x00, 0x00, 0x00, 0x00,
   0x00, 0x00, 0x00, 0x00, 0x00, 0x00, 0x00, 0x00, 0x00, 0x00, 0x00, 0x00,
   0x00, 0x00, 0x00, 0x00, 0x00, 0x00, 0x00, 0x00, 0x00, 0x00, 0x00, 0x00,
   0x00, 0x00, 0x00, 0x00, 0x00, 0x00, 0x00, 0x00, 0x00, 0x00, 0x00, 0x00,
   0x00, 0x00, 0x00, 0x00, 0x00, 0x00, 0x00, 0x00, 0x00, 0x00, 0x00, 0x00,
   0x00, 0x00, 0x00, 0x00, 0x00, 0x00, 0x00, 0x00, 0x00, 0x00, 0x00, 0x00,
   0x00, 0x00, 0x00, 0x00, 0x00, 0x00, 0x00, 0x00, 0x00, 0x00, 0x00, 0x00,
   0x00, 0x00, 0x00, 0x00, 0x00, 0x00, 0x00, 0x00, 0x00, 0x00, 0x00, 0x00,
   0x00, 0x00, 0x00, 0x00, 0x00, 0x00, 0x00, 0x00, 0x00, 0x00, 0x00, 0x00,
   0x00, 0x00, 0x00, 0x00, 0x00, 0x00, 0x00, 0x00, 0x00, 0x00, 0x00, 0x00,
   0x40, 0x00, 0x00, 0x00, 0x00, 0x00, 0x00, 0x00, 0x00, 0x00, 0x00, 0x00,
   0x00, 0x00, 0x00, 0x00, 0x00, 0x00, 0x00, 0x00, 0x00, 0x00, 0x00, 0x00,
   0x00, 0x00, 0x00, 0x00, 0x00, 0x00, 0x00, 0x00, 0x40, 0x00, 0x00, 0x00,
   0x00, 0x00, 0x00, 0x00, 0x00, 0x00, 0x00, 0x00, 0x00, 0x00, 0x00, 0x00,
   0x00, 0x00, 0x00, 0x00, 0x00, 0x00, 0x00, 0x00, 0x00, 0x00, 0x00, 0x00,
   0x00, 0x00, 0x00, 0x00, 0x7e, 0x00, 0x7e, 0x00, 0x7e, 0x00, 0x49, 0x00,
   0x3c, 0x00, 0x42, 0x00, 0x42, 0x00, 0x00, 0x00, 0x00, 0x00, 0x00, 0x00,
   0x00, 0x00, 0x00, 0x00, 0x00, 0x00, 0x00, 0x00, 0x00, 0x00, 0x00, 0x00,
   0x02, 0x40, 0x02, 0x00, 0x02, 0x00, 0x49, 0x00, 0x42, 0x00, 0x22, 0x00,
   0x42, 0x00, 0x00, 0x00, 0x00, 0x00, 0x00, 0x00, 0x00, 0x00, 0x00, 0x00,
   0x00, 0x00, 0x00, 0x00, 0x00, 0x00, 0x00, 0x00, 0x02, 0x40, 0x02, 0x00,
   0x02, 0x00, 0x49, 0x00, 0x42, 0x00, 0x12, 0x00, 0x2a, 0x00, 0x00, 0x00,
   0x00, 0x00, 0x00, 0x00, 0x00, 0x00, 0x00, 0x00, 0x00, 0x00, 0x00, 0x00,
   0x00, 0x00, 0x00, 0x00, 0x02, 0x7e, 0x02, 0x7e, 0x02, 0x7e, 0x2a, 0x49,
   0x40, 0x3c, 0x0a, 0x42, 0x1a, 0x42, 0x00, 0x00, 0x00, 0x00, 0x00, 0x00,
   0x00, 0x00, 0x00, 0x00, 0x00, 0x00, 0x00, 0x00, 0x00, 0x00, 0x00, 0x00,
   0x02, 0x02, 0x1f, 0x02, 0x02, 0x02, 0x1c, 0x49, 0x38, 0x42, 0x06, 0x22,
   0x0e, 0x2a, 0x00, 0x00, 0x00, 0x00, 0x00, 0x00, 0x00, 0x00, 0x00, 0x00,
   0x00, 0x00, 0x00, 0x00, 0x00, 0x00, 0x00, 0x00, 0x02, 0x02, 0x02, 0x02,
   0x3e, 0x02, 0x2a, 0x2a, 0x40, 0x40, 0x06, 0x12, 0x0e, 0x1a, 0x00, 0x00,
   0x00, 0x00, 0x00, 0x00, 0x00, 0x00, 0x00, 0x00, 0x00, 0x00, 0x00, 0x00,
   0x00, 0x00, 0x00, 0x00, 0x02, 0x02, 0x02, 0x1f, 0x42, 0x1e, 0x49, 0x1c,
   0x40, 0x38, 0x0a, 0x0e, 0x1a, 0x0e, 0x00, 0x00, 0x00, 0x00, 0x00, 0x00,
   0x00, 0x00, 0x00, 0x00, 0x00, 0x00, 0x00, 0x00, 0x00, 0x00, 0x00, 0x00,
   0x02, 0x02, 0x02, 0x02, 0x42, 0x22, 0x49, 0x2a, 0x42, 0x40, 0x12, 0x12,
   0x2a, 0x1a, 0x00, 0x00, 0x00, 0x00, 0x00, 0x00, 0x00, 0x00, 0x00, 0x00,
   0x00, 0x00, 0x00, 0x00, 0x00, 0x00, 0x00, 0x00, 0x02, 0x02, 0x02, 0x02,
   0x42, 0x22, 0x49, 0x49, 0x42, 0x42, 0x22, 0x22, 0x42, 0x2a, 0x00, 0x00,
   0x00, 0x00, 0x00, 0x00, 0x00, 0x00, 0x00, 0x00, 0x00, 0x00, 0x00, 0x00,
   0x00, 0x00, 0x00, 0x00, 0x02, 0x02, 0x02, 0x02, 0x42, 0x22, 0xc9, 0xc9,
   0x3c, 0x3c, 0xc2, 0xc2, 0x42, 0x42, 0x00, 0x00, 0x00, 0x00, 0x00, 0x00,
   0x00, 0x00, 0x00, 0x00, 0x00, 0x00, 0x00, 0x00, 0x00, 0x00, 0x00, 0x00,
   0x00, 0x00, 0x00, 0x00, 0x40, 0x20, 0x80, 0x80, 0x08, 0x08, 0x80, 0x80,
   0x00, 0x00, 0x00, 0x00, 0x00, 0x00, 0x00, 0x00, 0x00, 0x00, 0x00, 0x00,
   0x00, 0x00, 0x00, 0x00, 0x00, 0x00, 0x00, 0x00, 0x00, 0x00, 0x00, 0x00,
   0x20, 0x10, 0x80, 0x80, 0x08, 0x08, 0x80, 0x80, 0x00, 0x00, 0x00, 0x00,
   0x00, 0x00, 0x00, 0x00, 0x00, 0x00, 0x00, 0x00, 0x00, 0x00, 0x00, 0x00,
   0x00, 0x00, 0x00, 0x00, 0x00, 0x00, 0x00, 0x00, 0x00, 0x00, 0x00, 0x00,
   0x08, 0x08, 0x00, 0x00, 0x00, 0x00, 0x00, 0x00, 0x00, 0x00, 0x00, 0x00,
   0x00, 0x00, 0x00, 0x00, 0x00, 0x00, 0x00, 0x00, 0x00, 0x00, 0x00, 0x00,
   0x00, 0x00, 0x00, 0x00, 0x00, 0x00, 0x00, 0x00, 0x00, 0x00, 0x00, 0x00,
   0x00, 0x00, 0x00, 0x00, 0x00, 0x00, 0x00, 0x00, 0x00, 0x00, 0x00, 0x00,
   0x00, 0x00, 0x00, 0x00, 0x00, 0x00, 0x00, 0x00, 0x00, 0x00, 0x00, 0x00,
   0x00, 0x00, 0x00, 0x00, 0x00, 0x00, 0x00, 0x00, 0x00, 0x00, 0x00, 0x00,
   0x00, 0x00, 0x00, 0x00, 0x00, 0x00, 0x00, 0x00, 0x00, 0x00, 0x00, 0x00,
   0x00, 0x00, 0x00, 0x00, 0x00, 0x00, 0x00, 0x00, 0x00, 0x00, 0x00, 0x00,
   0x00, 0x00, 0x00, 0x00, 0x00, 0x00, 0x00, 0x00, 0x43, 0x00, 0x42, 0x00,
   0xe2, 0x00, 0x00, 0x00, 0x00, 0x00, 0x3c, 0x00, 0x00, 0x00, 0x41, 0x00,
   0x41, 0x00, 0x42, 0x00, 0x00, 0x00, 0x42, 0x00, 0x42, 0x00, 0x02, 0x00,
   0x00, 0x00, 0x00, 0x00, 0x22, 0x00, 0x42, 0x00, 0x22, 0x00, 0x00, 0x00,
   0x00, 0x00, 0x42, 0x00, 0x00, 0x00, 0x41, 0x00, 0x41, 0x00, 0x42, 0x00,
   0x00, 0x00, 0x42, 0x00, 0x42, 0x00, 0x02, 0x00, 0x00, 0x00, 0x00, 0x00,
   0x12, 0x00, 0x42, 0x00, 0x22, 0x00, 0x00, 0x00, 0x00, 0x00, 0x42, 0x00,
   0x00, 0x00, 0x22, 0x00, 0x22, 0x00, 0x24, 0x00, 0x00, 0x00, 0x42, 0x00,
   0x42, 0x00, 0x02, 0x00, 0x00, 0x00, 0x00, 0x00, 0x0a, 0x43, 0x42, 0x42,
   0x22, 0xe2, 0x00, 0x00, 0x00, 0x00, 0x02, 0x3c, 0x00, 0x00, 0x22, 0x41,
   0x22, 0x41, 0x24, 0x42, 0x00, 0x00, 0x42, 0x42, 0x52, 0x42, 0x02, 0x02,
   0x00, 0x00, 0x00, 0x00, 0x06, 0x22, 0x7e, 0x42, 0x3e, 0x22, 0x00, 0x00,
   0x00, 0x00, 0x02, 0x42, 0x00, 0x00, 0x14, 0x41, 0x14, 0x41, 0x18, 0x42,
   0x00, 0x00, 0x42, 0x42, 0x52, 0x52, 0x3e, 0x02, 0x00, 0x00, 0x00, 0x00,
   0x06, 0x12, 0x42, 0x42, 0x22, 0x22, 0x00, 0x00, 0x00, 0x00, 0x02, 0x02,
   0x00, 0x00, 0x08, 0x22, 0x08, 0x22, 0x18, 0x24, 0x00, 0x00, 0x7c, 0x42,
   0x7c, 0x52, 0x42, 0x3e, 0x00, 0x00, 0x00, 0x00, 0x0a, 0x0e, 0x42, 0x7e,
   0x22, 0x3e, 0x00, 0x00, 0x00, 0x00, 0x02, 0x02, 0x00, 0x00, 0x08, 0x22,
   0x3e, 0x22, 0x24, 0x18, 0x00, 0x00, 0x40, 0x7c, 0x50, 0x7c, 0x42, 0x42,
   0x00, 0x00, 0x00, 0x00, 0x12, 0x12, 0x42, 0x42, 0x22, 0x22, 0x00, 0x00,
   0x00, 0x00, 0x42, 0x02, 0x00, 0x00, 0x08, 0x14, 0x08, 0x14, 0x24, 0x24,
   0x00, 0x00, 0x40, 0x40, 0x50, 0x50, 0x42, 0x42, 0x00, 0x00, 0x00, 0x00,
   0x22, 0x22, 0x42, 0x42, 0x22, 0x22, 0x00, 0x00, 0x00, 0x00, 0x42, 0x42,
   0x00, 0x00, 0x08, 0x14, 0x08, 0x14, 0x42, 0x42, 0x00, 0x00, 0x40, 0x40,
   0x40, 0x40, 0x42, 0x42, 0x00, 0x00, 0x00, 0x00, 0x42, 0x42, 0xc2, 0xc2,
   0x22, 0x22, 0x00, 0x00, 0x00, 0x00, 0x3c, 0x3c, 0x00, 0x00, 0x08, 0x08,
   0x08, 0x08, 0xc2, 0xc2, 0x00, 0x00, 0xc0, 0xc0, 0x40, 0x40, 0x42, 0x42,
   0x00, 0x00, 0x00, 0x00, 0x00, 0x00, 0x80, 0x80, 0x00, 0x00, 0x00, 0x00,
   0x00, 0x00, 0x08, 0x08, 0x00, 0x00, 0x00, 0x08, 0x00, 0x3e, 0x80, 0x80,
   0x00, 0x00, 0x80, 0x80, 0x00, 0x00, 0x00, 0x00, 0x00, 0x00, 0x00, 0x00,
   0x00, 0x00, 0x80, 0x80, 0x00, 0x00, 0x00, 0x00, 0x00, 0x00, 0x08, 0x08,
   0x00, 0x00, 0x00, 0x08, 0x00, 0x08, 0x80, 0x80, 0x00, 0x00, 0x80, 0x80,
   0x00, 0x00, 0x00, 0x00, 0x00, 0x00, 0x00, 0x00, 0x00, 0x00, 0x00, 0x00,
   0x00, 0x00, 0x00, 0x00, 0x00, 0x00, 0x08, 0x08, 0x00, 0x00, 0x00, 0x08,
   0x00, 0x08, 0x00, 0x00, 0x00, 0x00, 0x00, 0x00, 0x00, 0x00, 0x00, 0x00,
   0x00, 0x00, 0x00, 0x00, 0x00, 0x00, 0x00, 0x00, 0x00, 0x00, 0x00, 0x00,
   0x00, 0x00, 0x00, 0x00, 0x00, 0x00, 0x00, 0x00, 0x00, 0x00, 0x00, 0x00,
   0x00, 0x00, 0x00, 0x00, 0x00, 0x00, 0x00, 0x00, 0x00, 0x00, 0x00, 0x00,
   0x00, 0x00, 0x00, 0x00, 0x00, 0x00, 0x00, 0x00, 0x00, 0x00, 0x00, 0x00,
   0x00, 0x00, 0x00, 0x00, 0x24, 0x00, 0x24, 0x00, 0x00, 0x00, 0x24, 0x00,
   0x00, 0x00, 0x24, 0x00, 0x22, 0x00, 0x24, 0x00, 0x00, 0x00, 0x00, 0x00,
   0x00, 0x00, 0x00, 0x00, 0x00, 0x00, 0x00, 0x00, 0x00, 0x00, 0x00, 0x00,
   0x18, 0x00, 0x24, 0x00, 0x00, 0x00, 0x18, 0x00, 0x00, 0x00, 0x24, 0x00,
   0x22, 0x00, 0x24, 0x00, 0x00, 0x00, 0x00, 0x00, 0x00, 0x00, 0x00, 0x00,
   0x00, 0x00, 0x00, 0x00, 0x00, 0x00, 0x00, 0x00, 0x00, 0x24, 0x00, 0x24,
   0x7e, 0x00, 0x00, 0x24, 0x3c, 0x00, 0x00, 0x24, 0x00, 0x22, 0x00, 0x24,
   0x00, 0x00, 0x00, 0x00, 0x00, 0x00, 0x00, 0x00, 0x00, 0x00, 0x00, 0x00,
   0x00, 0x00, 0x00, 0x00, 0x3c, 0x18, 0x3c, 0x24, 0x09, 0x00, 0x7e, 0x18,
   0x42, 0x00, 0x3c, 0x24, 0x49, 0x22, 0x3c, 0x24, 0x00, 0x00, 0x00, 0x00,
   0x00, 0x00, 0x00, 0x00, 0x00, 0x00, 0x00, 0x00, 0x00, 0x00, 0x00, 0x00,
   0x42, 0x00, 0x42, 0x00, 0x09, 0x00, 0x02, 0x00, 0x40, 0x00, 0x42, 0x00,
   0x49, 0x00, 0x42, 0x00, 0x00, 0x00, 0x00, 0x00, 0x00, 0x00, 0x00, 0x00,
   0x00, 0x00, 0x00, 0x00, 0x00, 0x00, 0x00, 0x00, 0x42, 0x3c, 0x42, 0x3c,
   0x09, 0x36, 0x02, 0x3c, 0x40, 0x3c, 0x40, 0x3c, 0x49, 0x49, 0x42, 0x3c,
   0x00, 0x00, 0x00, 0x00, 0x00, 0x00, 0x00, 0x00, 0x00, 0x00, 0x00, 0x00,
   0x00, 0x00, 0x00, 0x00, 0x42, 0x40, 0x42, 0x40, 0x3f, 0x48, 0x02, 0x42,
   0x7e, 0x40, 0x40, 0x40, 0x2a, 0x49, 0x40, 0x42, 0x00, 0x00, 0x00, 0x00,
   0x00, 0x00, 0x00, 0x00, 0x00, 0x00, 0x00, 0x00, 0x00, 0x00, 0x00, 0x00,
   0x7e, 0x7c, 0x7e, 0x7c, 0x09, 0x4e, 0x1e, 0x42, 0x42, 0x40, 0x7e, 0x40,
   0x1c, 0x2a, 0x38, 0x40, 0x00, 0x00, 0x00, 0x00, 0x00, 0x00, 0x00, 0x00,
   0x00, 0x00, 0x00, 0x00, 0x00, 0x00, 0x00, 0x00, 0x42, 0x42, 0x42, 0x42,
   0x09, 0x79, 0x02, 0x7e, 0x42, 0x7e, 0x42, 0x7e, 0x2a, 0x1c, 0x40, 0x38,
   0x00, 0x00, 0x00, 0x00, 0x00, 0x00, 0x00, 0x00, 0x00, 0x00, 0x00, 0x00,
   0x00, 0x00, 0x00, 0x00, 0x42, 0x42, 0x42, 0x42, 0x09, 0x09, 0x02, 0x02,
   0x42, 0x42, 0x42, 0x42, 0x49, 0x2a, 0x42, 0x40, 0x00, 0x00, 0x00, 0x00,
   0x00, 0x00, 0x00, 0x00, 0x00, 0x00, 0x00, 0x00, 0x00, 0x00, 0x00, 0x00,
   0x42, 0x42, 0x42, 0x42, 0x09, 0x09, 0x02, 0x02, 0x42, 0x42, 0x42, 0x42,
   0x49, 0x49, 0x42, 0x42, 0x00, 0x00, 0x00, 0x00, 0x00, 0x00, 0x00, 0x00,
   0x00, 0x00, 0x00, 0x00, 0x00, 0x00, 0x00, 0x00, 0x42, 0x7c, 0x42, 0x7c,
   0x79, 0x36, 0x7e, 0x3c, 0x3c, 0x3c, 0x3c, 0x3c, 0x49, 0x49, 0x3c, 0x3c,
   0x00, 0x00, 0x00, 0x00, 0x00, 0x00, 0x00, 0x00, 0x00, 0x00, 0x00, 0x00,
   0x00, 0x00, 0x00, 0x00, 0x00, 0x00, 0x00, 0x00, 0x00, 0x00, 0x00, 0x00,
   0x00, 0x00, 0x00, 0x00, 0x00, 0x00, 0x00, 0x00, 0x00, 0x00, 0x00, 0x00,
   0x00, 0x00, 0x00, 0x00, 0x00, 0x00, 0x00, 0x00, 0x00, 0x00, 0x00, 0x00,
   0x00, 0x00, 0x00, 0x00, 0x00, 0x00, 0x00, 0x00, 0x00, 0x00, 0x00, 0x00,
   0x00, 0x00, 0x00, 0x00, 0x00, 0x00, 0x00, 0x00, 0x00, 0x00, 0x00, 0x00,
   0x00, 0x00, 0x00, 0x00, 0x00, 0x00, 0x00, 0x00, 0x00, 0x00, 0x00, 0x00,
   0x00, 0x00, 0x00, 0x00, 0x00, 0x00, 0x00, 0x00, 0x00, 0x00, 0x00, 0x00,
   0x00, 0x00, 0x00, 0x00, 0x00, 0x00, 0x00, 0x00, 0x00, 0x00, 0x00, 0x00,
   0x00, 0x00, 0x00, 0x00, 0x00, 0x00, 0x00, 0x00, 0x00, 0x00, 0x00, 0x00,
   0x00, 0x00, 0x00, 0x00, 0x00, 0x00, 0x00, 0x00, 0x00, 0x00, 0x3c, 0x00,
   0x24, 0x00, 0x24, 0x00, 0x00, 0x00, 0x24, 0x00, 0x24, 0x00, 0x3c, 0x00,
   0x24, 0x00, 0x48, 0x00, 0x24, 0x00, 0x00, 0x00, 0x12, 0x00, 0x00, 0x00,
   0x00, 0x00, 0x00, 0x00, 0x00, 0x00, 0x00, 0x00, 0x24, 0x00, 0x24, 0x00,
   0x00, 0x00, 0x24, 0x00, 0x24, 0x00, 0x00, 0x00, 0x24, 0x00, 0x24, 0x00,
   0x24, 0x00, 0x00, 0x00, 0x12, 0x00, 0x00, 0x00, 0x00, 0x00, 0x00, 0x00,
   0x00, 0x00, 0x42, 0x00, 0x00, 0x24, 0x00, 0x24, 0x3c, 0x00, 0x00, 0x24,
   0x00, 0x24, 0x42, 0x00, 0x00, 0x24, 0x00, 0x48, 0x00, 0x24, 0x00, 0x00,
   0x00, 0x12, 0x00, 0x00, 0x00, 0x00, 0x00, 0x00, 0x00, 0x00, 0x42, 0x3c,
   0x42, 0x24, 0x3c, 0x24, 0x42, 0x00, 0x3c, 0x24, 0x3c, 0x24, 0x42, 0x3c,
   0x42, 0x24, 0x42, 0x24, 0x42, 0x24, 0x00, 0x00, 0x41, 0x12, 0x00, 0x00,
   0x00, 0x00, 0x00, 0x00, 0x00, 0x00, 0x42, 0x00, 0x42, 0x00, 0x42, 0x00,
   0x42, 0x00, 0x42, 0x00, 0x42, 0x00, 0x42, 0x00, 0x42, 0x00, 0x42, 0x00,
   0x42, 0x00, 0x00, 0x00, 0x41, 0x00, 0x00, 0x00, 0x00, 0x00, 0x00, 0x00,
   0x00, 0x00, 0x62, 0x42, 0x42, 0x42, 0x42, 0x3c, 0x42, 0x3c, 0x42, 0x3c,
   0x40, 0x3c, 0x42, 0x42, 0x42, 0x42, 0x42, 0x42, 0x42, 0x42, 0x00, 0x00,
   0x41, 0x41, 0x00, 0x00, 0x00, 0x00, 0x00, 0x00, 0x00, 0x00, 0x52, 0x42,
   0x62, 0x42, 0x42, 0x42, 0x7e, 0x42, 0x42, 0x42, 0x40, 0x42, 0x42, 0x42,
   0x42, 0x42, 0x42, 0x42, 0x42, 0x42, 0x00, 0x00, 0x4f, 0x41, 0x00, 0x00,
   0x00, 0x00, 0x00, 0x00, 0x00, 0x00, 0x4a, 0x42, 0x52, 0x42, 0x42, 0x42,
   0x42, 0x42, 0x7e, 0x42, 0x78, 0x40, 0x7c, 0x42, 0x7c, 0x42, 0x7c, 0x42,
   0x7c, 0x42, 0x00, 0x00, 0x51, 0x4f, 0x00, 0x00, 0x00, 0x00, 0x00, 0x00,
   0x00, 0x00, 0x46, 0x42, 0x4a, 0x42, 0x42, 0x42, 0x42, 0x7e, 0x42, 0x7e,
   0x40, 0x78, 0x40, 0x42, 0x40, 0x42, 0x40, 0x42, 0x40, 0x7c, 0x00, 0x00,
   0x51, 0x51, 0x00, 0x00, 0x00, 0x00, 0x00, 0x00, 0x00, 0x00, 0x42, 0x42,
   0x46, 0x42, 0x42, 0x42, 0x42, 0x42, 0x42, 0x42, 0x40, 0x40, 0x40, 0x42,
   0x40, 0x42, 0x40, 0x42, 0x40, 0x40, 0x00, 0x00, 0x51, 0x51, 0x00, 0x00,
   0x00, 0x00, 0x00, 0x00, 0x00, 0x00, 0x42, 0x42, 0x42, 0x42, 0x42, 0x42,
   0x42, 0x42, 0x42, 0x42, 0x42, 0x42, 0x40, 0x42, 0x40, 0x42, 0x40, 0x42,
   0x40, 0x40, 0x00, 0x00, 0x51, 0x51, 0x00, 0x00, 0x00, 0x00, 0x00, 0x00,
   0x00, 0x00, 0x42, 0x7c, 0x42, 0x7c, 0x3c, 0x3c, 0x3c, 0x3c, 0x3c, 0x3c,
   0x3c, 0x3c, 0x3c, 0x7c, 0x3c, 0x7c, 0x3c, 0x7c, 0x40, 0x40, 0x00, 0x00,
   0x4f, 0x4f, 0x00, 0x00, 0x00, 0x00, 0x00, 0x00, 0x00, 0x00, 0x00, 0x00,
   0x00, 0x00, 0x00, 0x00, 0x00, 0x00, 0x00, 0x00, 0x00, 0x00, 0x00, 0x40,
   0x00, 0x40, 0x00, 0x40, 0x00, 0x00, 0x00, 0x00, 0x00, 0x00, 0x00, 0x00,
   0x00, 0x00, 0x00, 0x00, 0x00, 0x00, 0x00, 0x00, 0x00, 0x00, 0x00, 0x00,
   0x00, 0x00, 0x00, 0x00, 0x00, 0x00, 0x00, 0x40, 0x00, 0x40, 0x00, 0x40,
   0x00, 0x00, 0x00, 0x00, 0x00, 0x00, 0x00, 0x00, 0x00, 0x00, 0x00, 0x00,
   0x00, 0x00, 0x00, 0x00, 0x00, 0x00, 0x00, 0x00, 0x00, 0x00, 0x00, 0x00,
   0x00, 0x00, 0x00, 0x3c, 0x00, 0x3c, 0x00, 0x3c, 0x00, 0x00, 0x00, 0x00,
   0x00, 0x00, 0x00, 0x00, 0x00, 0x00, 0x00, 0x00, 0x00, 0x00, 0x00, 0x00,
   0x00, 0x00, 0x00, 0x00, 0x00, 0x00, 0x00, 0x00, 0x00, 0x00, 0x00, 0x00,
   0x00, 0x00, 0x00, 0x00, 0x00, 0x00, 0x00, 0x00, 0x00, 0x00, 0x00, 0x00,
   0x00, 0x00, 0x00, 0x00 };
