#define u000100_u0001FF_width 256
#define u000100_u0001FF_height 128
static unsigned char u000100_u0001FF_bits[] = {
   0x3c, 0x00, 0x24, 0x00, 0x00, 0x00, 0x10, 0x00, 0x18, 0x00, 0x08, 0x00,
   0x24, 0x00, 0x24, 0x24, 0x00, 0x00, 0x3c, 0x00, 0x24, 0x00, 0x08, 0x00,
   0x00, 0x00, 0x24, 0x00, 0x18, 0x00, 0x24, 0x00, 0x00, 0x00, 0x18, 0x00,
   0x00, 0x00, 0x08, 0x00, 0x24, 0x00, 0x08, 0x00, 0x18, 0x00, 0x18, 0x18,
   0x00, 0x00, 0x00, 0x00, 0x18, 0x00, 0x08, 0x00, 0x00, 0x00, 0x18, 0x00,
   0x24, 0x00, 0x18, 0x00, 0x3c, 0x00, 0x00, 0x24, 0x3c, 0x00, 0x00, 0x10,
   0x00, 0x18, 0x00, 0x08, 0x00, 0x24, 0x00, 0x40, 0x1e, 0x40, 0x7e, 0x00,
   0x00, 0x24, 0x00, 0x08, 0x7e, 0x00, 0x00, 0x24, 0x00, 0x18, 0x00, 0x24,
   0x42, 0x3c, 0x3c, 0x18, 0x42, 0x00, 0x3c, 0x08, 0x3c, 0x24, 0x3c, 0x08,
   0x3c, 0x18, 0x1e, 0x40, 0x22, 0xf0, 0x02, 0x3c, 0x7e, 0x18, 0x7e, 0x08,
   0x02, 0x00, 0x7e, 0x18, 0x3c, 0x24, 0x3c, 0x18, 0x42, 0x00, 0x42, 0x00,
   0x42, 0x00, 0x42, 0x00, 0x42, 0x00, 0x42, 0x00, 0x42, 0x00, 0x22, 0x40,
   0x42, 0x40, 0x02, 0x00, 0x02, 0x00, 0x02, 0x00, 0x02, 0x00, 0x02, 0x00,
   0x42, 0x00, 0x42, 0x00, 0x42, 0x3c, 0x42, 0x3c, 0x42, 0x3c, 0x42, 0x3c,
   0x42, 0x3c, 0x42, 0x3c, 0x42, 0x3c, 0x42, 0x7c, 0x42, 0x7c, 0x02, 0x3c,
   0x02, 0x3c, 0x02, 0x3c, 0x02, 0x3c, 0x02, 0x3c, 0x42, 0x7c, 0x42, 0x7c,
   0x42, 0x40, 0x42, 0x40, 0x42, 0x40, 0x02, 0x42, 0x02, 0x42, 0x02, 0x42,
   0x02, 0x42, 0x42, 0x42, 0x4f, 0x42, 0x1e, 0x42, 0x02, 0x42, 0x02, 0x42,
   0x1e, 0x42, 0x02, 0x42, 0x02, 0x42, 0x02, 0x42, 0x7e, 0x7c, 0x7e, 0x7c,
   0x7e, 0x7c, 0x02, 0x02, 0x02, 0x02, 0x02, 0x02, 0x02, 0x02, 0x42, 0x42,
   0x42, 0x42, 0x02, 0x42, 0x1e, 0x42, 0x1e, 0x42, 0x02, 0x42, 0x1e, 0x42,
   0x72, 0x42, 0x72, 0x42, 0x42, 0x42, 0x42, 0x42, 0x42, 0x42, 0x02, 0x02,
   0x02, 0x02, 0x02, 0x02, 0x02, 0x02, 0x42, 0x42, 0x42, 0x42, 0x02, 0x7e,
   0x02, 0x7e, 0x02, 0x7e, 0x02, 0x7e, 0x02, 0x7e, 0x42, 0x42, 0x42, 0x42,
   0x42, 0x42, 0x42, 0x42, 0x42, 0x42, 0x42, 0x02, 0x42, 0x02, 0x42, 0x02,
   0x42, 0x02, 0x42, 0x42, 0x42, 0x42, 0x02, 0x02, 0x02, 0x02, 0x02, 0x02,
   0x02, 0x02, 0x02, 0x02, 0x42, 0x42, 0x42, 0x42, 0x42, 0x42, 0x42, 0x42,
   0x42, 0x42, 0x42, 0x42, 0x42, 0x42, 0x42, 0x42, 0x42, 0x42, 0x22, 0x42,
   0x22, 0x42, 0x02, 0x02, 0x02, 0x02, 0x02, 0x02, 0x02, 0x02, 0x02, 0x02,
   0x42, 0x42, 0x42, 0x42, 0x42, 0x7c, 0x42, 0x7c, 0x42, 0x7c, 0x3c, 0x3c,
   0x3c, 0x3c, 0x3c, 0x3c, 0x3c, 0x3c, 0x1e, 0x7c, 0x1e, 0x7c, 0x7e, 0x3c,
   0x7e, 0x3c, 0x7e, 0x3c, 0x7e, 0x3c, 0x7e, 0x3c, 0x3c, 0x7c, 0x3c, 0x7c,
   0x00, 0x00, 0x00, 0x00, 0x40, 0x40, 0x00, 0x00, 0x00, 0x00, 0x00, 0x00,
   0x00, 0x00, 0x00, 0x00, 0x00, 0x00, 0x00, 0x00, 0x00, 0x00, 0x00, 0x00,
   0x40, 0x10, 0x00, 0x00, 0x00, 0x40, 0x00, 0x40, 0x00, 0x00, 0x00, 0x00,
   0x20, 0x20, 0x00, 0x00, 0x00, 0x00, 0x00, 0x00, 0x00, 0x00, 0x00, 0x00,
   0x00, 0x00, 0x00, 0x00, 0x00, 0x00, 0x00, 0x00, 0x20, 0x08, 0x00, 0x00,
   0x00, 0x40, 0x00, 0x40, 0x00, 0x00, 0x00, 0x00, 0xc0, 0xc0, 0x00, 0x00,
   0x00, 0x00, 0x00, 0x00, 0x00, 0x00, 0x00, 0x00, 0x00, 0x00, 0x00, 0x00,
   0x00, 0x00, 0x00, 0x00, 0xc0, 0x30, 0x00, 0x00, 0x00, 0x3c, 0x00, 0x3c,
   0x00, 0x00, 0x00, 0x00, 0x00, 0x00, 0x00, 0x00, 0x00, 0x00, 0x00, 0x00,
   0x00, 0x00, 0x00, 0x00, 0x00, 0x00, 0x00, 0x00, 0x00, 0x00, 0x00, 0x00,
   0x00, 0x00, 0x00, 0x00, 0x00, 0x00, 0x00, 0x00, 0x08, 0x00, 0x00, 0x00,
   0x18, 0x30, 0x00, 0x00, 0x4c, 0x00, 0x3e, 0x00, 0x24, 0x00, 0x00, 0x00,
   0x08, 0x00, 0x00, 0x00, 0x30, 0x00, 0x00, 0x00, 0x00, 0x04, 0x10, 0x00,
   0x00, 0x24, 0x12, 0x00, 0x08, 0x00, 0x00, 0x20, 0x24, 0x48, 0x00, 0x00,
   0x32, 0x00, 0x00, 0x00, 0x18, 0x00, 0x00, 0x00, 0x08, 0x00, 0x00, 0x00,
   0x48, 0x00, 0x00, 0x00, 0x00, 0x02, 0x08, 0x00, 0x00, 0x18, 0x0c, 0x00,
   0x00, 0x10, 0x3c, 0x10, 0x00, 0x02, 0x42, 0x02, 0x00, 0x2c, 0x1c, 0x00,
   0x00, 0x12, 0x1c, 0x08, 0x00, 0x00, 0xe7, 0x42, 0x00, 0x30, 0x42, 0x02,
   0x00, 0x00, 0x00, 0x02, 0x0c, 0x02, 0x00, 0x02, 0x3c, 0x10, 0x42, 0x10,
   0x42, 0x02, 0xff, 0x1f, 0x1c, 0x1a, 0x08, 0x1e, 0x1c, 0x0c, 0x08, 0x08,
   0x1c, 0x00, 0x42, 0x42, 0x70, 0x48, 0x22, 0x02, 0x00, 0x02, 0x0c, 0x02,
   0x08, 0x02, 0x0c, 0x02, 0x42, 0x00, 0x42, 0x00, 0x42, 0x02, 0x42, 0x02,
   0x08, 0x00, 0x08, 0x00, 0x08, 0x00, 0x08, 0x00, 0x08, 0x00, 0x42, 0x00,
   0x20, 0x00, 0x12, 0x02, 0x00, 0x02, 0x08, 0x02, 0x08, 0x02, 0x08, 0x02,
   0x42, 0x7c, 0x02, 0x7c, 0x42, 0x3e, 0x42, 0x3e, 0x08, 0x0c, 0x08, 0x0c,
   0x08, 0x0c, 0x08, 0x0c, 0x08, 0x0c, 0x42, 0x63, 0x20, 0x30, 0x0a, 0x42,
   0x42, 0x02, 0x08, 0x02, 0x08, 0x02, 0x08, 0x02, 0x02, 0x42, 0x02, 0x42,
   0x42, 0x42, 0x7e, 0x42, 0x08, 0x08, 0x08, 0x08, 0x08, 0x08, 0x08, 0x08,
   0x08, 0x08, 0x42, 0x42, 0x20, 0x20, 0x06, 0x22, 0x22, 0x02, 0x08, 0x02,
   0x08, 0x02, 0x08, 0x22, 0x72, 0x42, 0x72, 0x42, 0x7e, 0x42, 0x42, 0x42,
   0x08, 0x08, 0x08, 0x08, 0x08, 0x08, 0x08, 0x08, 0x08, 0x08, 0x42, 0x42,
   0x20, 0x20, 0x06, 0x12, 0x12, 0x02, 0x08, 0x02, 0x08, 0x02, 0x08, 0x22,
   0x42, 0x42, 0x42, 0x42, 0x42, 0x42, 0x42, 0x42, 0x08, 0x08, 0x08, 0x08,
   0x08, 0x08, 0x08, 0x08, 0x08, 0x08, 0x42, 0x42, 0x20, 0x20, 0x0a, 0x0e,
   0x0e, 0x02, 0x08, 0x02, 0x08, 0x02, 0x08, 0x02, 0x42, 0x42, 0x42, 0x42,
   0x42, 0x42, 0x42, 0x42, 0x08, 0x08, 0x08, 0x08, 0x08, 0x08, 0x08, 0x08,
   0x08, 0x08, 0x4a, 0x42, 0x22, 0x20, 0x12, 0x12, 0x12, 0x02, 0x08, 0x02,
   0x08, 0x02, 0x08, 0x02, 0x42, 0x42, 0x42, 0x42, 0x42, 0x42, 0x42, 0x42,
   0x08, 0x08, 0x08, 0x08, 0x08, 0x08, 0x08, 0x08, 0x08, 0x08, 0x4a, 0x42,
   0x22, 0x20, 0x22, 0x22, 0x22, 0x02, 0x08, 0x02, 0x08, 0x02, 0x08, 0x02,
   0x3c, 0x7c, 0x3c, 0x7c, 0x42, 0x42, 0x42, 0x42, 0x1c, 0x1c, 0x1c, 0x1c,
   0x1c, 0x1c, 0x1c, 0x1c, 0x1c, 0x1c, 0x37, 0x47, 0x1c, 0x20, 0x42, 0x42,
   0x42, 0x7e, 0x1c, 0x7e, 0x1c, 0x7e, 0x1c, 0x7e, 0x00, 0x40, 0x00, 0x40,
   0x00, 0x00, 0x00, 0x00, 0x00, 0x00, 0x00, 0x00, 0x00, 0x00, 0x08, 0x08,
   0x00, 0x00, 0x00, 0x48, 0x00, 0x22, 0x00, 0x00, 0x00, 0x00, 0x00, 0x00,
   0x00, 0x00, 0x00, 0x00, 0x00, 0x40, 0x08, 0x40, 0x00, 0x00, 0x00, 0x00,
   0x00, 0x00, 0x00, 0x00, 0x00, 0x00, 0x04, 0x04, 0x00, 0x00, 0x00, 0x48,
   0x00, 0x22, 0x08, 0x08, 0x00, 0x00, 0x00, 0x08, 0x08, 0x00, 0x00, 0x00,
   0x00, 0x3c, 0x08, 0x3c, 0x00, 0x00, 0x00, 0x00, 0x00, 0x00, 0x00, 0x00,
   0x00, 0x00, 0x18, 0x18, 0x00, 0x00, 0x00, 0x30, 0x00, 0x1c, 0x08, 0x08,
   0x00, 0x00, 0x00, 0x08, 0x08, 0x00, 0x00, 0x00, 0x00, 0x00, 0x04, 0x00,
   0x00, 0x00, 0x00, 0x00, 0x00, 0x00, 0x00, 0x00, 0x00, 0x00, 0x00, 0x00,
   0x00, 0x00, 0x00, 0x00, 0x00, 0x00, 0x04, 0x04, 0x00, 0x00, 0x00, 0x04,
   0x04, 0x00, 0x00, 0x00, 0x00, 0x00, 0x00, 0x10, 0x00, 0x00, 0x00, 0x24,
   0x00, 0x00, 0x00, 0x00, 0x3c, 0x00, 0x24, 0x00, 0x48, 0x00, 0x00, 0x00,
   0x10, 0x00, 0x00, 0x00, 0x24, 0x00, 0x10, 0x00, 0x18, 0x00, 0x00, 0x00,
   0x00, 0x00, 0x00, 0x08, 0x00, 0x00, 0x00, 0x18, 0x00, 0x02, 0x00, 0x00,
   0x00, 0x00, 0x18, 0x00, 0x24, 0x00, 0x00, 0x00, 0x08, 0x00, 0x00, 0x00,
   0x18, 0x00, 0x08, 0x00, 0x24, 0x00, 0x00, 0x00, 0x0c, 0x02, 0x0c, 0x42,
   0x10, 0x42, 0x00, 0x42, 0x24, 0x02, 0x42, 0x00, 0x3c, 0x00, 0x00, 0x24,
   0x00, 0x48, 0x7e, 0x00, 0x00, 0x10, 0x3e, 0x00, 0x00, 0x24, 0x00, 0x20,
   0x00, 0x18, 0x3c, 0x00, 0x08, 0x02, 0x08, 0x42, 0x08, 0x42, 0x00, 0x42,
   0x18, 0x01, 0x42, 0x00, 0x42, 0x3c, 0x3c, 0x18, 0x3c, 0x24, 0x09, 0x00,
   0x3e, 0x08, 0x42, 0x00, 0x3e, 0x18, 0x3c, 0x10, 0x3c, 0x24, 0x42, 0x00,
   0x08, 0x02, 0x08, 0x42, 0x00, 0x42, 0x00, 0x42, 0x00, 0x00, 0x42, 0x00,
   0x42, 0x00, 0x42, 0x00, 0x42, 0x00, 0x09, 0x00, 0x42, 0x00, 0x42, 0x00,
   0x42, 0x00, 0x42, 0x00, 0x42, 0x00, 0x02, 0x00, 0x08, 0x02, 0x08, 0x46,
   0x3e, 0x46, 0x3e, 0x46, 0x3e, 0x3e, 0x46, 0x3e, 0x42, 0x3c, 0x42, 0x3c,
   0x42, 0x3c, 0x09, 0x3e, 0x42, 0x7a, 0x42, 0x7a, 0x42, 0x7a, 0x02, 0x7c,
   0x02, 0x7c, 0x02, 0x7c, 0x88, 0x06, 0x18, 0x4a, 0x42, 0x4a, 0x42, 0x4a,
   0x42, 0x42, 0x4a, 0x42, 0x42, 0x42, 0x42, 0x42, 0x42, 0x42, 0x39, 0x49,
   0x42, 0x06, 0x42, 0x06, 0x42, 0x06, 0x02, 0x02, 0x02, 0x02, 0x3c, 0x02,
   0x88, 0x03, 0x0c, 0x52, 0x42, 0x52, 0x42, 0x52, 0x42, 0x42, 0x52, 0x42,
   0x42, 0x42, 0x42, 0x42, 0x42, 0x42, 0x09, 0x49, 0x3e, 0x02, 0x3e, 0x02,
   0x3e, 0x02, 0x3c, 0x02, 0x3c, 0x02, 0x40, 0x02, 0x08, 0x02, 0x08, 0x62,
   0x42, 0x62, 0x42, 0x62, 0x42, 0x42, 0x62, 0x42, 0x42, 0x42, 0x42, 0x42,
   0x42, 0x42, 0x09, 0x79, 0x0a, 0x02, 0x0a, 0x02, 0x0a, 0x02, 0x40, 0x3c,
   0x40, 0x3c, 0x40, 0x3c, 0x08, 0x02, 0x08, 0x42, 0x42, 0x42, 0x42, 0x42,
   0x42, 0x42, 0x42, 0x42, 0x42, 0x42, 0x42, 0x42, 0x42, 0x42, 0x09, 0x09,
   0x12, 0x02, 0x12, 0x02, 0x12, 0x02, 0x40, 0x40, 0x40, 0x40, 0x42, 0x40,
   0x08, 0x02, 0x08, 0x42, 0x42, 0x42, 0x42, 0x42, 0x42, 0x42, 0x42, 0x42,
   0x42, 0x42, 0x42, 0x42, 0x42, 0x42, 0x09, 0x09, 0x22, 0x02, 0x22, 0x02,
   0x22, 0x02, 0x42, 0x40, 0x42, 0x40, 0x42, 0x40, 0x1c, 0x7e, 0x1c, 0x42,
   0x42, 0x42, 0x42, 0x42, 0x42, 0x42, 0x42, 0x42, 0x3c, 0x3c, 0x3c, 0x3c,
   0x3c, 0x3c, 0x7e, 0x3e, 0x42, 0x02, 0x42, 0x02, 0x42, 0x02, 0x3c, 0x3e,
   0x3c, 0x3e, 0x3c, 0x3e, 0x00, 0x00, 0x00, 0x00, 0x00, 0x00, 0x00, 0x00,
   0x00, 0x00, 0x40, 0x40, 0x00, 0x00, 0x00, 0x00, 0x00, 0x00, 0x00, 0x00,
   0x00, 0x00, 0x00, 0x00, 0x00, 0x00, 0x00, 0x00, 0x00, 0x00, 0x08, 0x08,
   0x00, 0x00, 0x00, 0x00, 0x00, 0x08, 0x08, 0x00, 0x00, 0x00, 0x40, 0x40,
   0x00, 0x00, 0x00, 0x00, 0x00, 0x00, 0x00, 0x00, 0x00, 0x00, 0x08, 0x02,
   0x00, 0x00, 0x00, 0x00, 0x00, 0x00, 0x08, 0x08, 0x00, 0x00, 0x00, 0x00,
   0x00, 0x08, 0x08, 0x00, 0x00, 0x00, 0x30, 0x30, 0x00, 0x00, 0x00, 0x00,
   0x00, 0x00, 0x00, 0x00, 0x00, 0x00, 0x08, 0x02, 0x00, 0x00, 0x00, 0x00,
   0x00, 0x00, 0x04, 0x04, 0x00, 0x00, 0x00, 0x00, 0x00, 0x04, 0x04, 0x00,
   0x00, 0x00, 0x00, 0x00, 0x00, 0x00, 0x00, 0x00, 0x00, 0x00, 0x00, 0x00,
   0x00, 0x00, 0x04, 0x01, 0x00, 0x00, 0x00, 0x00, 0x00, 0x00, 0x00, 0x00,
   0x24, 0x00, 0x00, 0x00, 0x24, 0x24, 0x00, 0x00, 0x4c, 0x00, 0x3c, 0x00,
   0x24, 0x00, 0x18, 0x00, 0x48, 0x00, 0x00, 0x00, 0x18, 0x00, 0x00, 0x00,
   0x22, 0x10, 0x00, 0x08, 0x00, 0x24, 0x00, 0x00, 0x18, 0x00, 0x00, 0x00,
   0x18, 0x18, 0x00, 0x00, 0x32, 0x00, 0x00, 0x00, 0x18, 0x00, 0x24, 0x00,
   0x24, 0x00, 0x00, 0x00, 0x24, 0x00, 0x00, 0x00, 0x22, 0x08, 0x00, 0x08,
   0x00, 0x18, 0x00, 0x00, 0x00, 0x24, 0x7f, 0x08, 0x00, 0x00, 0x7f, 0x08,
   0x00, 0x4c, 0x42, 0x00, 0x42, 0x24, 0x18, 0x18, 0x00, 0x48, 0x42, 0x00,
   0x00, 0x18, 0x00, 0x00, 0x00, 0x00, 0x10, 0x00, 0x08, 0x00, 0x24, 0x70,
   0x3c, 0x18, 0x08, 0x08, 0x7f, 0x08, 0x08, 0x08, 0x42, 0x32, 0x42, 0x3c,
   0x42, 0x18, 0x42, 0x24, 0x42, 0x24, 0x42, 0x00, 0x41, 0x24, 0x00, 0x00,
   0x41, 0x7e, 0x08, 0x7e, 0x08, 0x7e, 0x18, 0x08, 0x42, 0x00, 0x08, 0x08,
   0x08, 0x08, 0x08, 0x08, 0x42, 0x00, 0x42, 0x00, 0x42, 0x00, 0x42, 0x18,
   0x42, 0x00, 0x42, 0x00, 0x41, 0x00, 0x00, 0x00, 0x41, 0x40, 0x00, 0x40,
   0x00, 0x40, 0x00, 0x08, 0x02, 0x7c, 0x08, 0x3e, 0x08, 0x3e, 0x08, 0x3e,
   0x42, 0x42, 0x42, 0x42, 0x42, 0x42, 0x42, 0x42, 0x42, 0x42, 0x42, 0x42,
   0x41, 0x41, 0x00, 0x00, 0x22, 0x20, 0x7e, 0x20, 0x7e, 0x20, 0x7e, 0x08,
   0x02, 0x02, 0x08, 0x08, 0x08, 0x08, 0x3e, 0x08, 0x42, 0x42, 0x42, 0x42,
   0x42, 0x42, 0x42, 0x42, 0x42, 0x42, 0x42, 0x42, 0x41, 0x41, 0x00, 0x00,
   0x22, 0x10, 0x20, 0x10, 0x20, 0x10, 0x20, 0x08, 0x3c, 0x02, 0x08, 0x08,
   0x08, 0x08, 0x08, 0x1c, 0x42, 0x42, 0x42, 0x42, 0x42, 0x42, 0x42, 0x42,
   0x42, 0x42, 0x42, 0x42, 0x49, 0x49, 0x00, 0x00, 0x14, 0x08, 0x10, 0x08,
   0x10, 0x08, 0x10, 0x08, 0x40, 0x3c, 0x08, 0x08, 0x08, 0x08, 0x08, 0x08,
   0x42, 0x42, 0x42, 0x42, 0x42, 0x42, 0x42, 0x42, 0x42, 0x42, 0x42, 0x42,
   0x49, 0x49, 0x00, 0x00, 0x08, 0x04, 0x08, 0x04, 0x08, 0x04, 0x08, 0x08,
   0x40, 0x40, 0x08, 0x08, 0x08, 0x08, 0x08, 0x08, 0x42, 0x42, 0x42, 0x42,
   0x42, 0x42, 0x42, 0x42, 0x42, 0x42, 0x42, 0x42, 0x55, 0x49, 0x00, 0x00,
   0x08, 0x02, 0x04, 0x02, 0x04, 0x02, 0x04, 0x08, 0x42, 0x40, 0x08, 0x08,
   0x08, 0x08, 0x08, 0x08, 0x42, 0x42, 0x42, 0x42, 0x42, 0x42, 0x42, 0x42,
   0x42, 0x42, 0x42, 0x42, 0x63, 0x49, 0x00, 0x00, 0x08, 0x02, 0x02, 0x02,
   0x02, 0x02, 0x02, 0x08, 0x3c, 0x3e, 0x08, 0x70, 0x08, 0x70, 0x08, 0x70,
   0x3c, 0x7c, 0x3c, 0x7c, 0x3c, 0x7c, 0x3c, 0x7c, 0x3c, 0x7c, 0x3c, 0x7c,
   0x41, 0x3e, 0x00, 0x00, 0x08, 0x7e, 0x7e, 0x7e, 0x7e, 0x7e, 0x7e, 0x08,
   0x00, 0x00, 0x10, 0x20, 0x00, 0x00, 0x00, 0x00, 0x00, 0x00, 0x00, 0x00,
   0x00, 0x00, 0x00, 0x00, 0x00, 0x00, 0x10, 0x40, 0x00, 0x00, 0x00, 0x00,
   0x00, 0x00, 0x00, 0x00, 0x00, 0x00, 0x00, 0x00, 0x00, 0x00, 0x10, 0x20,
   0x00, 0x00, 0x00, 0x00, 0x00, 0x00, 0x00, 0x00, 0x00, 0x00, 0x00, 0x00,
   0x00, 0x00, 0x08, 0x20, 0x00, 0x00, 0x00, 0x00, 0x00, 0x00, 0x00, 0x00,
   0x00, 0x00, 0x00, 0x00, 0x00, 0x00, 0x08, 0x10, 0x00, 0x00, 0x00, 0x00,
   0x00, 0x00, 0x00, 0x00, 0x00, 0x00, 0x00, 0x00, 0x00, 0x00, 0x30, 0xc0,
   0x00, 0x00, 0x00, 0x00, 0x00, 0x00, 0x00, 0x00, 0x00, 0x00, 0x00, 0x00,
   0x00, 0x00, 0x00, 0x00, 0x00, 0x00, 0x00, 0x00, 0x00, 0x00, 0x00, 0x00,
   0x00, 0x00, 0x00, 0x00, 0x00, 0x00, 0x00, 0x00, 0x00, 0x00, 0x00, 0x00,
   0x00, 0x00, 0x00, 0x00, 0x00, 0x00, 0x00, 0x00, 0x00, 0x00, 0x00, 0x00,
   0x00, 0x00, 0x00, 0x00, 0x00, 0x00, 0x00, 0x00, 0x00, 0x00, 0x00, 0x00,
   0x00, 0x00, 0x00, 0x00, 0x00, 0x00, 0x00, 0x00, 0x00, 0x00, 0x00, 0x00,
   0x00, 0x00, 0x00, 0x00, 0x00, 0x00, 0x00, 0x00, 0x00, 0x00, 0x00, 0x00,
   0x00, 0x00, 0x00, 0x00, 0x00, 0x00, 0x00, 0x00, 0x00, 0x00, 0x00, 0x00,
   0x00, 0x00, 0x00, 0x00, 0x00, 0x00, 0x00, 0x00, 0x00, 0x00, 0x00, 0x00,
   0x00, 0x00, 0x00, 0x00, 0x00, 0x00, 0x3c, 0x00, 0x00, 0x00, 0x00, 0x00,
   0x00, 0x00, 0x7e, 0x3c, 0x3c, 0x00, 0x30, 0x00, 0x00, 0x00, 0x00, 0x00,
   0x00, 0x00, 0x00, 0x00, 0x00, 0x42, 0x00, 0x00, 0x00, 0x00, 0x00, 0x00,
   0x00, 0x00, 0x42, 0x00, 0x00, 0x00, 0x00, 0x00, 0x00, 0x00, 0x40, 0x42,
   0x42, 0x00, 0x48, 0x00, 0x00, 0x00, 0x00, 0x00, 0x00, 0x00, 0x00, 0x00,
   0x00, 0x42, 0x00, 0x00, 0x00, 0x00, 0x00, 0x00, 0x00, 0x00, 0x42, 0x00,
   0x00, 0x00, 0x00, 0x00, 0x00, 0x00, 0x40, 0x40, 0x42, 0x00, 0x08, 0x00,
   0x00, 0x00, 0x00, 0x00, 0x00, 0x00, 0x00, 0x00, 0x00, 0x42, 0x00, 0x00,
   0x00, 0x00, 0x00, 0x00, 0x00, 0x00, 0x40, 0x00, 0x00, 0x00, 0x00, 0x00,
   0x00, 0x00, 0x40, 0x40, 0x02, 0x00, 0x08, 0x00, 0x00, 0x00, 0x00, 0x00,
   0x00, 0x00, 0x00, 0x00, 0x00, 0x46, 0x3e, 0x00, 0x00, 0x00, 0x00, 0x00,
   0x00, 0x00, 0x40, 0x00, 0x00, 0x00, 0x00, 0x00, 0x00, 0x00, 0x78, 0x7e,
   0x1c, 0x00, 0x3e, 0x00, 0x00, 0x00, 0x00, 0x00, 0x00, 0x00, 0x00, 0x00,
   0x00, 0x4a, 0x42, 0x00, 0x00, 0x00, 0x00, 0x00, 0x00, 0x00, 0x40, 0x00,
   0x00, 0x00, 0x00, 0x00, 0x00, 0x00, 0x40, 0x42, 0x02, 0x00, 0x08, 0x00,
   0x00, 0x00, 0x00, 0x00, 0x00, 0x00, 0x00, 0x00, 0x00, 0x52, 0x42, 0x00,
   0x00, 0x00, 0x00, 0x00, 0x00, 0x00, 0x40, 0x00, 0x00, 0x00, 0x00, 0x00,
   0x00, 0x00, 0x40, 0x42, 0x02, 0x00, 0x08, 0x00, 0x00, 0x00, 0x00, 0x00,
   0x00, 0x00, 0x00, 0x00, 0x00, 0x62, 0x42, 0x00, 0x00, 0x00, 0x00, 0x00,
   0x00, 0x00, 0x42, 0x00, 0x00, 0x00, 0x00, 0x00, 0x00, 0x00, 0x40, 0x42,
   0x42, 0x00, 0x08, 0x00, 0x00, 0x00, 0x00, 0x00, 0x00, 0x00, 0x00, 0x00,
   0x00, 0x42, 0x42, 0x00, 0x00, 0x00, 0x00, 0x00, 0x00, 0x00, 0x42, 0x00,
   0x00, 0x00, 0x00, 0x00, 0x00, 0x00, 0x40, 0x42, 0x42, 0x00, 0x08, 0x00,
   0x00, 0x00, 0x00, 0x00, 0x00, 0x00, 0x00, 0x00, 0x00, 0x42, 0x42, 0x00,
   0x00, 0x00, 0x00, 0x00, 0x00, 0x00, 0x3c, 0x00, 0x00, 0x00, 0x00, 0x00,
   0x00, 0x00, 0x7e, 0x3c, 0x3c, 0x00, 0x08, 0x00, 0x00, 0x00, 0x00, 0x00,
   0x00, 0x00, 0x00, 0x00, 0x00, 0x42, 0x42, 0x00, 0x00, 0x00, 0x00, 0x00,
   0x00, 0x00, 0x00, 0x00, 0x00, 0x00, 0x00, 0x00, 0x00, 0x00, 0x00, 0x00,
   0x00, 0x00, 0x08, 0x00, 0x00, 0x00, 0x00, 0x00, 0x00, 0x00, 0x00, 0x00,
   0x00, 0x02, 0x40, 0x00, 0x00, 0x00, 0x00, 0x00, 0x00, 0x00, 0x00, 0x00,
   0x00, 0x00, 0x00, 0x00, 0x00, 0x00, 0x00, 0x00, 0x00, 0x00, 0x09, 0x00,
   0x00, 0x00, 0x00, 0x00, 0x00, 0x00, 0x00, 0x00, 0x00, 0x02, 0x40, 0x00,
   0x00, 0x00, 0x00, 0x00, 0x00, 0x00, 0x00, 0x00, 0x00, 0x00, 0x00, 0x00,
   0x00, 0x00, 0x00, 0x00, 0x00, 0x00, 0x06, 0x00, 0x00, 0x00, 0x00, 0x00,
   0x00, 0x00, 0x00, 0x00, 0x00, 0x01, 0x40, 0x00, 0x00, 0x00, 0x00, 0x00,
   0x00, 0x00, 0x00, 0x00, 0x00, 0x00, 0x00, 0x00, 0x00, 0x00, 0x00, 0x00,
   0x00, 0x00, 0x00, 0x00, 0x00, 0x00, 0x00, 0x00, 0x00, 0x00, 0x00, 0x00,
   0x00, 0x00, 0x00, 0x00, 0x00, 0x00, 0x00, 0x00, 0x00, 0x00, 0x00, 0x00,
   0x00, 0x00, 0x00, 0x00, 0x00, 0x00, 0x00, 0x00, 0x00, 0x00, 0x00, 0x00,
   0x00, 0x00, 0x00, 0x00, 0x00, 0x00, 0x00, 0x00, 0x00, 0x00, 0x00, 0x00,
   0x00, 0x00, 0x00, 0x00, 0x00, 0x00, 0x00, 0x00, 0x00, 0x00, 0x00, 0x00,
   0x00, 0x00, 0x00, 0x00, 0x00, 0x00, 0x00, 0x00, 0x00, 0x00, 0x00, 0x00,
   0x00, 0x00, 0x00, 0x00, 0x00, 0x00, 0x00, 0x00, 0x00, 0x00, 0x00, 0x00,
   0x00, 0x00, 0x00, 0x00, 0x00, 0x00, 0x00, 0x00, 0x00, 0x00, 0x00, 0x00,
   0x00, 0x00, 0x00, 0x00, 0x00, 0x00, 0x00, 0x7e, 0x00, 0x00, 0x00, 0x00,
   0x00, 0x00, 0x00, 0x00, 0x00, 0x00, 0x00, 0x00, 0x00, 0x00, 0x00, 0x00,
   0x00, 0x00, 0x00, 0x00, 0x00, 0x00, 0x00, 0x00, 0x00, 0x00, 0x00, 0x00,
   0x00, 0x00, 0x00, 0x40, 0x00, 0x00, 0x00, 0x00, 0x00, 0x00, 0x00, 0x00,
   0x00, 0x00, 0x00, 0x00, 0x00, 0x00, 0x00, 0x00, 0x00, 0x00, 0x00, 0x00,
   0x00, 0x00, 0x00, 0x00, 0x00, 0x00, 0x00, 0x00, 0x00, 0x00, 0x00, 0x20,
   0x00, 0x00, 0x00, 0x00, 0x00, 0x00, 0x00, 0x00, 0x00, 0x00, 0x00, 0x00,
   0x00, 0x00, 0x00, 0x00, 0x00, 0x00, 0x00, 0x00, 0x00, 0x00, 0x00, 0x00,
   0x00, 0x00, 0x00, 0x00, 0x00, 0x00, 0x00, 0x10, 0x00, 0x00, 0x00, 0x00,
   0x00, 0x00, 0x00, 0x00, 0x00, 0x00, 0x00, 0x00, 0x00, 0x00, 0x00, 0x00,
   0x00, 0x00, 0x00, 0x00, 0x00, 0x00, 0x00, 0x00, 0x00, 0x00, 0x00, 0x00,
   0x00, 0x00, 0x00, 0x38, 0x00, 0x00, 0x00, 0x00, 0x00, 0x00, 0x00, 0x00,
   0x00, 0x00, 0x00, 0x00, 0x00, 0x00, 0x00, 0x00, 0x00, 0x00, 0x00, 0x00,
   0x00, 0x00, 0x00, 0x00, 0x00, 0x00, 0x00, 0x00, 0x00, 0x00, 0x00, 0x40,
   0x00, 0x00, 0x00, 0x00, 0x00, 0x00, 0x00, 0x00, 0x00, 0x00, 0x00, 0x00,
   0x00, 0x00, 0x00, 0x00, 0x00, 0x00, 0x00, 0x00, 0x00, 0x00, 0x00, 0x00,
   0x00, 0x00, 0x00, 0x00, 0x00, 0x00, 0x00, 0x40, 0x00, 0x00, 0x00, 0x00,
   0x00, 0x00, 0x00, 0x00, 0x00, 0x00, 0x00, 0x00, 0x00, 0x00, 0x00, 0x00,
   0x00, 0x00, 0x00, 0x00, 0x00, 0x00, 0x00, 0x00, 0x00, 0x00, 0x00, 0x00,
   0x00, 0x00, 0x00, 0x42, 0x00, 0x00, 0x00, 0x00, 0x00, 0x00, 0x00, 0x00,
   0x00, 0x00, 0x00, 0x00, 0x00, 0x00, 0x00, 0x00, 0x00, 0x00, 0x00, 0x00,
   0x00, 0x00, 0x00, 0x00, 0x00, 0x00, 0x00, 0x00, 0x00, 0x00, 0x00, 0x42,
   0x00, 0x00, 0x00, 0x00, 0x00, 0x00, 0x00, 0x00, 0x00, 0x00, 0x00, 0x00,
   0x00, 0x00, 0x00, 0x00, 0x00, 0x00, 0x00, 0x00, 0x00, 0x00, 0x00, 0x00,
   0x00, 0x00, 0x00, 0x00, 0x00, 0x00, 0x00, 0x3c, 0x00, 0x00, 0x00, 0x00,
   0x00, 0x00, 0x00, 0x00, 0x00, 0x00, 0x00, 0x00, 0x00, 0x00, 0x00, 0x00,
   0x00, 0x00, 0x00, 0x00, 0x00, 0x00, 0x00, 0x00, 0x00, 0x00, 0x00, 0x00,
   0x00, 0x00, 0x00, 0x00, 0x00, 0x00, 0x00, 0x00, 0x00, 0x00, 0x00, 0x00,
   0x00, 0x00, 0x00, 0x00, 0x00, 0x00, 0x00, 0x00, 0x00, 0x00, 0x00, 0x00,
   0x00, 0x00, 0x00, 0x00, 0x00, 0x00, 0x00, 0x00, 0x00, 0x00, 0x00, 0x00,
   0x00, 0x00, 0x00, 0x00, 0x00, 0x00, 0x00, 0x00, 0x00, 0x00, 0x00, 0x00,
   0x00, 0x00, 0x00, 0x00, 0x00, 0x00, 0x00, 0x00, 0x00, 0x00, 0x00, 0x00,
   0x00, 0x00, 0x00, 0x00, 0x00, 0x00, 0x00, 0x00, 0x00, 0x00, 0x00, 0x00,
   0x00, 0x00, 0x00, 0x00, 0x00, 0x00, 0x00, 0x00, 0x00, 0x00, 0x00, 0x00,
   0x00, 0x00, 0x00, 0x00, 0x00, 0x00, 0x00, 0x00, 0x00, 0x00, 0x00, 0x00,
   0x00, 0x00, 0x00, 0x00, 0x00, 0x00, 0x00, 0x00, 0x00, 0x00, 0x00, 0x00,
   0x00, 0x00, 0x00, 0x00, 0x00, 0x00, 0x00, 0x00, 0x00, 0x00, 0x00, 0x00,
   0x00, 0x00, 0x00, 0x00, 0x00, 0x00, 0x00, 0x00, 0x00, 0x00, 0x00, 0x00,
   0x00, 0x00, 0x00, 0x00, 0x00, 0x00, 0x00, 0x00, 0x00, 0x00, 0x00, 0x00,
   0x00, 0x00, 0x00, 0x00, 0x00, 0x00, 0x00, 0x00, 0x00, 0x00, 0x00, 0x00,
   0x00, 0x00, 0x00, 0x00, 0x00, 0x00, 0x00, 0x00, 0x00, 0x00, 0x00, 0x00,
   0x00, 0x00, 0x00, 0x00, 0x00, 0x00, 0x00, 0x00, 0x00, 0x00, 0x00, 0x00,
   0x00, 0x00, 0x00, 0x00, 0x00, 0x00, 0x00, 0x00, 0x00, 0x00, 0x00, 0x00,
   0x00, 0x00, 0x00, 0x00, 0x00, 0x00, 0x00, 0x00, 0x00, 0x00, 0x00, 0x00,
   0x00, 0x00, 0x00, 0x00, 0x00, 0x00, 0x00, 0x00, 0x00, 0x00, 0x00, 0x00,
   0x00, 0x00, 0x00, 0x00, 0x00, 0x00, 0x00, 0x00, 0x00, 0x00, 0x00, 0x00,
   0x00, 0x00, 0x00, 0x00, 0x00, 0x00, 0x00, 0x00, 0x00, 0x00, 0x00, 0x00,
   0x00, 0x00, 0x00, 0x00, 0x00, 0x00, 0x00, 0x00, 0x00, 0x00, 0x00, 0x00,
   0x00, 0x00, 0x00, 0x00, 0x00, 0x00, 0x00, 0x00, 0x00, 0x00, 0x00, 0x00,
   0x00, 0x00, 0x00, 0x00, 0x00, 0x00, 0x00, 0x00, 0x00, 0x00, 0x00, 0x00,
   0x00, 0x00, 0x00, 0x00, 0x00, 0x00, 0x00, 0x00, 0x00, 0x00, 0x00, 0x00,
   0x00, 0x00, 0x00, 0x00, 0x00, 0x00, 0x00, 0x00, 0x00, 0x00, 0x00, 0x00,
   0x00, 0x00, 0x00, 0x00, 0x00, 0x00, 0x00, 0x00, 0x00, 0x00, 0x00, 0x00,
   0x00, 0x00, 0x00, 0x00, 0x00, 0x00, 0x00, 0x00, 0x00, 0x00, 0x00, 0x00,
   0x00, 0x00, 0x00, 0x00, 0x00, 0x00, 0x00, 0x00, 0x00, 0x00, 0x00, 0x00,
   0x00, 0x00, 0x00, 0x00, 0x00, 0x00, 0x00, 0x00, 0x00, 0x00, 0x00, 0x00,
   0x00, 0x00, 0x00, 0x00, 0x00, 0x00, 0x00, 0x00, 0x00, 0x00, 0x00, 0x00,
   0x00, 0x00, 0x00, 0x00, 0x00, 0x00, 0x00, 0x00, 0x00, 0x00, 0x00, 0x00,
   0x00, 0x00, 0x00, 0x00, 0x00, 0x00, 0x00, 0x00, 0x00, 0x00, 0x00, 0x00,
   0x00, 0x00, 0x00, 0x00, 0x00, 0x00, 0x00, 0x00, 0x00, 0x00, 0x00, 0x00,
   0x00, 0x00, 0x00, 0x00, 0x00, 0x00, 0x00, 0x00, 0x00, 0x00, 0x00, 0x00,
   0x00, 0x00, 0x00, 0x00, 0x00, 0x00, 0x00, 0x00, 0x00, 0x00, 0x00, 0x00,
   0x00, 0x00, 0x00, 0x00, 0x00, 0x00, 0x00, 0x00, 0x00, 0x00, 0x00, 0x00,
   0x00, 0x00, 0x00, 0x00, 0x00, 0x00, 0x00, 0x00, 0x00, 0x00, 0x00, 0x00,
   0x00, 0x00, 0x00, 0x00, 0x00, 0x00, 0x00, 0x00, 0x00, 0x00, 0x00, 0x00,
   0x00, 0x00, 0x00, 0x00, 0x00, 0x00, 0x00, 0x00, 0x00, 0x00, 0x00, 0x00,
   0x00, 0x00, 0x00, 0x00, 0x00, 0x00, 0x00, 0x00, 0x00, 0x00, 0x00, 0x00,
   0x00, 0x00, 0x00, 0x00, 0x00, 0x00, 0x00, 0x00, 0x00, 0x00, 0x00, 0x00,
   0x00, 0x00, 0x00, 0x00, 0x00, 0x00, 0x00, 0x00, 0x00, 0x00, 0x00, 0x00,
   0x00, 0x00, 0x00, 0x00, 0x00, 0x00, 0x00, 0x00, 0x00, 0x00, 0x00, 0x00,
   0x00, 0x00, 0x00, 0x00, 0x00, 0x00, 0x00, 0x00, 0x00, 0x00, 0x00, 0x00,
   0x00, 0x00, 0x00, 0x00, 0x00, 0x00, 0x00, 0x00, 0x00, 0x00, 0x00, 0x00,
   0x00, 0x00, 0x00, 0x00, 0x00, 0x00, 0x00, 0x00, 0x00, 0x00, 0x00, 0x00,
   0x00, 0x00, 0x00, 0x00, 0x00, 0x00, 0x00, 0x00, 0x00, 0x00, 0x00, 0x00,
   0x00, 0x00, 0x00, 0x00, 0x00, 0x00, 0x00, 0x00, 0x00, 0x00, 0x00, 0x00,
   0x00, 0x00, 0x00, 0x00, 0x00, 0x00, 0x00, 0x00, 0x00, 0x00, 0x00, 0x00,
   0x00, 0x00, 0x00, 0x00, 0x00, 0x00, 0x00, 0x00, 0x00, 0x00, 0x00, 0x00,
   0x00, 0x00, 0x00, 0x00, 0x00, 0x00, 0x00, 0x00, 0x00, 0x00, 0x00, 0x00,
   0x00, 0x00, 0x00, 0x00, 0x00, 0x00, 0x00, 0x00, 0x00, 0x00, 0x00, 0x00,
   0x00, 0x00, 0x00, 0x00, 0x00, 0x00, 0x00, 0x00, 0x00, 0x00, 0x00, 0x00,
   0x00, 0x00, 0x00, 0x00, 0x00, 0x00, 0x00, 0x00, 0x00, 0x00, 0x00, 0x00,
   0x00, 0x00, 0x00, 0x00, 0x00, 0x00, 0x00, 0x00, 0x00, 0x00, 0x00, 0x00,
   0x00, 0x00, 0x00, 0x00, 0x00, 0x00, 0x00, 0x00, 0x00, 0x00, 0x00, 0x00,
   0x00, 0x00, 0x00, 0x00, 0x00, 0x00, 0x00, 0x00, 0x00, 0x00, 0x00, 0x00,
   0x00, 0x00, 0x00, 0x00, 0x00, 0x00, 0x00, 0x00, 0x00, 0x00, 0x00, 0x00,
   0x00, 0x00, 0x00, 0x00, 0x00, 0x00, 0x00, 0x00, 0x00, 0x00, 0x00, 0x00,
   0x00, 0x00, 0x00, 0x00, 0x00, 0x00, 0x00, 0x00, 0x00, 0x00, 0x00, 0x00,
   0x00, 0x00, 0x00, 0x00, 0x00, 0x00, 0x00, 0x00, 0x00, 0x00, 0x00, 0x00,
   0x00, 0x00, 0x00, 0x00, 0x00, 0x00, 0x00, 0x00, 0x00, 0x00, 0x00, 0x00,
   0x00, 0x00, 0x00, 0x00, 0x00, 0x00, 0x00, 0x00, 0x00, 0x00, 0x00, 0x00,
   0x00, 0x00, 0x00, 0x00, 0x00, 0x00, 0x00, 0x00, 0x00, 0x00, 0x00, 0x00,
   0x00, 0x00, 0x00, 0x00, 0x00, 0x00, 0x00, 0x00, 0x00, 0x00, 0x00, 0x00,
   0x00, 0x00, 0x00, 0x00, 0x00, 0x00, 0x00, 0x00, 0x00, 0x00, 0x00, 0x00,
   0x00, 0x00, 0x00, 0x00, 0x00, 0x00, 0x00, 0x00, 0x00, 0x00, 0x00, 0x00,
   0x00, 0x00, 0x00, 0x00, 0x00, 0x00, 0x00, 0x00, 0x00, 0x00, 0x00, 0x00,
   0x00, 0x00, 0x00, 0x00, 0x00, 0x00, 0x00, 0x00, 0x00, 0x00, 0x00, 0x00,
   0x00, 0x00, 0x00, 0x00, 0x00, 0x00, 0x00, 0x00, 0x00, 0x00, 0x00, 0x00,
   0x00, 0x00, 0x00, 0x00, 0x00, 0x00, 0x00, 0x00, 0x00, 0x00, 0x00, 0x00,
   0x00, 0x00, 0x00, 0x00, 0x00, 0x00, 0x00, 0x00, 0x00, 0x00, 0x00, 0x00,
   0x00, 0x00, 0x00, 0x00, 0x00, 0x00, 0x00, 0x00, 0x00, 0x00, 0x00, 0x00,
   0x00, 0x00, 0x00, 0x00, 0x00, 0x00, 0x00, 0x00, 0x00, 0x00, 0x00, 0x00,
   0x00, 0x00, 0x00, 0x00, 0x00, 0x00, 0x00, 0x00, 0x00, 0x00, 0x00, 0x00,
   0x00, 0x00, 0x00, 0x00, 0x00, 0x00, 0x00, 0x00, 0x00, 0x00, 0x00, 0x00,
   0x00, 0x00, 0x00, 0x00, 0x00, 0x00, 0x00, 0x00, 0x00, 0x00, 0x00, 0x00,
   0x00, 0x00, 0x00, 0x00, 0x00, 0x00, 0x00, 0x00, 0x00, 0x00, 0x00, 0x00,
   0x00, 0x00, 0x00, 0x00, 0x00, 0x00, 0x00, 0x00, 0x00, 0x00, 0x00, 0x00,
   0x00, 0x00, 0x00, 0x00, 0x00, 0x00, 0x00, 0x00, 0x00, 0x00, 0x00, 0x00,
   0x00, 0x00, 0x00, 0x00, 0x00, 0x00, 0x00, 0x00, 0x00, 0x00, 0x00, 0x00,
   0x00, 0x00, 0x00, 0x00, 0x00, 0x00, 0x00, 0x00, 0x00, 0x00, 0x00, 0x00,
   0x00, 0x00, 0x00, 0x00, 0x00, 0x00, 0x00, 0x00, 0x00, 0x00, 0x00, 0x00,
   0x00, 0x00, 0x00, 0x00, 0x00, 0x00, 0x00, 0x00, 0x00, 0x00, 0x00, 0x00,
   0x00, 0x00, 0x00, 0x00, 0x00, 0x00, 0x00, 0x00, 0x00, 0x00, 0x00, 0x00,
   0x00, 0x00, 0x00, 0x00, 0x00, 0x00, 0x00, 0x00, 0x00, 0x00, 0x00, 0x00,
   0x00, 0x00, 0x00, 0x00, 0x00, 0x00, 0x00, 0x00, 0x00, 0x00, 0x00, 0x00,
   0x00, 0x00, 0x00, 0x00, 0x00, 0x00, 0x00, 0x00, 0x00, 0x00, 0x00, 0x00,
   0x00, 0x00, 0x00, 0x00, 0x00, 0x00, 0x00, 0x00, 0x00, 0x00, 0x00, 0x00,
   0x00, 0x00, 0x00, 0x00, 0x00, 0x00, 0x00, 0x00, 0x00, 0x00, 0x00, 0x00,
   0x00, 0x00, 0x00, 0x00, 0x00, 0x00, 0x00, 0x00, 0x00, 0x00, 0x00, 0x00,
   0x00, 0x00, 0x00, 0x00, 0x00, 0x00, 0x00, 0x00, 0x00, 0x00, 0x00, 0x00,
   0x00, 0x00, 0x00, 0x00, 0x00, 0x00, 0x00, 0x00, 0x00, 0x00, 0x00, 0x00,
   0x00, 0x00, 0x00, 0x00, 0x00, 0x00, 0x00, 0x00, 0x00, 0x00, 0x00, 0x00,
   0x00, 0x00, 0x00, 0x00 };
