#define u000000_u0000FF_width 256
#define u000000_u0000FF_height 128
static unsigned char u000000_u0000FF_bits[] = {
   0x00, 0x00, 0x00, 0x00, 0x00, 0x00, 0x00, 0x00, 0x00, 0x00, 0x00, 0x00,
   0x00, 0x00, 0x00, 0x00, 0x00, 0x00, 0x00, 0x00, 0x00, 0x00, 0x00, 0x00,
   0x00, 0x00, 0x00, 0x00, 0x00, 0x00, 0x00, 0x00, 0x00, 0x00, 0x00, 0x00,
   0x00, 0x00, 0x00, 0x00, 0x00, 0x00, 0x00, 0x00, 0x00, 0x00, 0x00, 0x00,
   0x00, 0x00, 0x00, 0x00, 0x00, 0x00, 0x00, 0x00, 0x00, 0x00, 0x00, 0x00,
   0x00, 0x00, 0x00, 0x00, 0x00, 0x7e, 0x66, 0x00, 0x00, 0x00, 0x00, 0x00,
   0x00, 0x00, 0x00, 0x00, 0x00, 0x00, 0x00, 0x00, 0x00, 0x00, 0x00, 0x00,
   0x00, 0x00, 0x00, 0x00, 0x00, 0x00, 0x00, 0x00, 0x00, 0x00, 0x00, 0x00,
   0x00, 0x42, 0x42, 0x00, 0x00, 0x00, 0x00, 0x00, 0x00, 0x00, 0x00, 0x00,
   0x00, 0x00, 0x00, 0x00, 0x00, 0x00, 0x00, 0x00, 0x00, 0x00, 0x00, 0x00,
   0x00, 0x00, 0x00, 0x00, 0x00, 0x00, 0x00, 0x00, 0x00, 0x42, 0x00, 0x00,
   0x00, 0x00, 0x00, 0x00, 0x00, 0x00, 0x00, 0x00, 0x00, 0x00, 0x00, 0x00,
   0x00, 0x00, 0x00, 0x00, 0x00, 0x00, 0x00, 0x00, 0x00, 0x00, 0x00, 0x00,
   0x00, 0x00, 0x00, 0x00, 0x00, 0x42, 0x42, 0x00, 0x00, 0x00, 0x00, 0x00,
   0x00, 0x00, 0x00, 0x00, 0x00, 0x00, 0x00, 0x00, 0x00, 0x00, 0x00, 0x00,
   0x00, 0x00, 0x00, 0x00, 0x00, 0x00, 0x00, 0x00, 0x00, 0x00, 0x00, 0x00,
   0x00, 0x42, 0x42, 0x00, 0x00, 0x00, 0x00, 0x00, 0x00, 0x00, 0x00, 0x00,
   0x00, 0x00, 0x00, 0x00, 0x00, 0x00, 0x00, 0x00, 0x00, 0x00, 0x00, 0x00,
   0x00, 0x00, 0x00, 0x00, 0x00, 0x00, 0x00, 0x00, 0x00, 0x42, 0x42, 0x00,
   0x00, 0x00, 0x00, 0x00, 0x00, 0x00, 0x00, 0x00, 0x00, 0x00, 0x00, 0x00,
   0x00, 0x00, 0x00, 0x00, 0x00, 0x00, 0x00, 0x00, 0x00, 0x00, 0x00, 0x00,
   0x00, 0x00, 0x00, 0x00, 0x00, 0x42, 0x00, 0x00, 0x00, 0x00, 0x00, 0x00,
   0x00, 0x00, 0x00, 0x00, 0x00, 0x00, 0x00, 0x00, 0x00, 0x00, 0x00, 0x00,
   0x00, 0x00, 0x00, 0x00, 0x00, 0x00, 0x00, 0x00, 0x00, 0x00, 0x00, 0x00,
   0x00, 0x42, 0x42, 0x00, 0x00, 0x00, 0x00, 0x00, 0x00, 0x00, 0x00, 0x00,
   0x00, 0x00, 0x00, 0x00, 0x00, 0x00, 0x00, 0x00, 0x00, 0x00, 0x00, 0x00,
   0x00, 0x00, 0x00, 0x00, 0x00, 0x00, 0x00, 0x00, 0x00, 0x42, 0x42, 0x00,
   0x00, 0x00, 0x00, 0x00, 0x00, 0x00, 0x00, 0x00, 0x00, 0x00, 0x00, 0x00,
   0x00, 0x00, 0x00, 0x00, 0x00, 0x00, 0x00, 0x00, 0x00, 0x00, 0x00, 0x00,
   0x00, 0x00, 0x00, 0x00, 0x00, 0x7e, 0x66, 0x00, 0x00, 0x00, 0x00, 0x00,
   0x00, 0x00, 0x00, 0x00, 0x00, 0x00, 0x00, 0x00, 0x00, 0x00, 0x00, 0x00,
   0x00, 0x00, 0x00, 0x00, 0x00, 0x00, 0x00, 0x00, 0x00, 0x00, 0x00, 0x00,
   0x00, 0x00, 0x00, 0x00, 0x00, 0x00, 0x00, 0x00, 0x00, 0x00, 0x00, 0x00,
   0x00, 0x00, 0x00, 0x00, 0x00, 0x00, 0x00, 0x00, 0x00, 0x00, 0x00, 0x00,
   0x00, 0x00, 0x00, 0x00, 0x00, 0x00, 0x00, 0x00, 0x00, 0x00, 0x00, 0x00,
   0x00, 0x00, 0x00, 0x00, 0x00, 0x00, 0x00, 0x00, 0x00, 0x00, 0x00, 0x00,
   0x00, 0x00, 0x00, 0x00, 0x00, 0x00, 0x00, 0x00, 0x00, 0x00, 0x00, 0x00,
   0x00, 0x00, 0x00, 0x00, 0x00, 0x00, 0x00, 0x00, 0x00, 0x00, 0x00, 0x00,
   0x00, 0x00, 0x00, 0x00, 0x00, 0x00, 0x00, 0x00, 0x00, 0x00, 0x00, 0x00,
   0x00, 0x00, 0x00, 0x00, 0x00, 0x00, 0x00, 0x00, 0x00, 0x00, 0x00, 0x00,
   0x00, 0x00, 0x00, 0x00, 0x00, 0x00, 0x00, 0x00, 0x00, 0x00, 0x00, 0x00,
   0x00, 0x00, 0x00, 0x00, 0x00, 0x00, 0x00, 0x00, 0x00, 0x00, 0x00, 0x00,
   0x00, 0x00, 0x00, 0x00, 0x00, 0x00, 0x00, 0x00, 0x00, 0x00, 0x00, 0x00,
   0x00, 0x00, 0x00, 0x00, 0x00, 0x00, 0x00, 0x00, 0x00, 0x00, 0x00, 0x00,
   0x00, 0x00, 0x00, 0x00, 0x00, 0x00, 0x00, 0x00, 0x00, 0x00, 0x00, 0x00,
   0x00, 0x00, 0x00, 0x00, 0x00, 0x00, 0x24, 0x00, 0x08, 0x00, 0x00, 0x08,
   0x00, 0x00, 0x00, 0x00, 0x00, 0x00, 0x00, 0x00, 0x00, 0x00, 0x00, 0x00,
   0x00, 0x00, 0x00, 0x00, 0x00, 0x00, 0x00, 0x00, 0x00, 0x00, 0x00, 0x00,
   0x00, 0x08, 0x24, 0x24, 0x08, 0x26, 0x18, 0x08, 0x10, 0x04, 0x00, 0x00,
   0x00, 0x00, 0x00, 0x20, 0x3c, 0x10, 0x3c, 0x3c, 0x40, 0x7e, 0x38, 0x7e,
   0x3c, 0x3c, 0x00, 0x00, 0x00, 0x00, 0x00, 0x3c, 0x00, 0x08, 0x24, 0x24,
   0x3e, 0x29, 0x24, 0x08, 0x08, 0x08, 0x00, 0x00, 0x00, 0x00, 0x00, 0x20,
   0x42, 0x18, 0x42, 0x42, 0x60, 0x02, 0x04, 0x40, 0x42, 0x42, 0x00, 0x00,
   0x20, 0x00, 0x02, 0x42, 0x00, 0x08, 0x00, 0x24, 0x49, 0x16, 0x24, 0x00,
   0x04, 0x10, 0x00, 0x00, 0x00, 0x00, 0x00, 0x10, 0x42, 0x14, 0x42, 0x42,
   0x50, 0x02, 0x02, 0x40, 0x42, 0x42, 0x00, 0x00, 0x10, 0x00, 0x04, 0x42,
   0x00, 0x08, 0x00, 0x7e, 0x09, 0x10, 0x18, 0x00, 0x04, 0x10, 0x24, 0x08,
   0x00, 0x00, 0x00, 0x10, 0x62, 0x10, 0x40, 0x40, 0x48, 0x02, 0x02, 0x20,
   0x42, 0x42, 0x08, 0x08, 0x08, 0x7e, 0x08, 0x42, 0x00, 0x08, 0x00, 0x24,
   0x09, 0x08, 0x0c, 0x00, 0x04, 0x10, 0x18, 0x08, 0x00, 0x00, 0x00, 0x08,
   0x52, 0x10, 0x20, 0x38, 0x44, 0x3e, 0x3e, 0x20, 0x3c, 0x42, 0x08, 0x08,
   0x04, 0x00, 0x10, 0x20, 0x00, 0x08, 0x00, 0x24, 0x3e, 0x08, 0x52, 0x00,
   0x04, 0x10, 0x7e, 0x3e, 0x00, 0x7e, 0x00, 0x08, 0x4a, 0x10, 0x10, 0x40,
   0x42, 0x40, 0x42, 0x10, 0x42, 0x7c, 0x00, 0x00, 0x02, 0x00, 0x20, 0x10,
   0x00, 0x08, 0x00, 0x7e, 0x48, 0x04, 0x22, 0x00, 0x04, 0x10, 0x18, 0x08,
   0x00, 0x00, 0x00, 0x04, 0x46, 0x10, 0x08, 0x40, 0x7e, 0x40, 0x42, 0x10,
   0x42, 0x40, 0x00, 0x00, 0x04, 0x7e, 0x10, 0x10, 0x00, 0x00, 0x00, 0x24,
   0x48, 0x34, 0x22, 0x00, 0x04, 0x10, 0x24, 0x08, 0x00, 0x00, 0x00, 0x04,
   0x42, 0x10, 0x04, 0x42, 0x40, 0x40, 0x42, 0x08, 0x42, 0x40, 0x00, 0x00,
   0x08, 0x00, 0x08, 0x00, 0x00, 0x08, 0x00, 0x24, 0x49, 0x4a, 0x22, 0x00,
   0x08, 0x08, 0x00, 0x00, 0x08, 0x00, 0x08, 0x02, 0x42, 0x10, 0x02, 0x42,
   0x40, 0x42, 0x42, 0x08, 0x42, 0x20, 0x08, 0x08, 0x10, 0x00, 0x04, 0x10,
   0x00, 0x08, 0x00, 0x24, 0x3e, 0x32, 0x5c, 0x00, 0x10, 0x04, 0x00, 0x00,
   0x08, 0x00, 0x08, 0x02, 0x3c, 0x7c, 0x7e, 0x3c, 0x40, 0x3c, 0x3c, 0x08,
   0x3c, 0x1c, 0x08, 0x08, 0x20, 0x00, 0x02, 0x10, 0x00, 0x00, 0x00, 0x00,
   0x08, 0x00, 0x00, 0x00, 0x00, 0x00, 0x00, 0x00, 0x04, 0x00, 0x00, 0x00,
   0x00, 0x00, 0x00, 0x00, 0x00, 0x00, 0x00, 0x00, 0x00, 0x00, 0x00, 0x04,
   0x00, 0x00, 0x00, 0x00, 0x00, 0x00, 0x00, 0x00, 0x08, 0x00, 0x00, 0x00,
   0x00, 0x00, 0x00, 0x00, 0x00, 0x00, 0x00, 0x00, 0x00, 0x00, 0x00, 0x00,
   0x00, 0x00, 0x00, 0x00, 0x00, 0x00, 0x00, 0x00, 0x00, 0x00, 0x00, 0x00,
   0x00, 0x00, 0x00, 0x00, 0x00, 0x00, 0x00, 0x00, 0x00, 0x00, 0x00, 0x00,
   0x00, 0x00, 0x00, 0x00, 0x00, 0x00, 0x00, 0x00, 0x00, 0x00, 0x00, 0x00,
   0x00, 0x00, 0x00, 0x00, 0x00, 0x00, 0x00, 0x00, 0x00, 0x00, 0x00, 0x00,
   0x00, 0x00, 0x00, 0x00, 0x00, 0x00, 0x00, 0x00, 0x00, 0x00, 0x00, 0x00,
   0x00, 0x00, 0x00, 0x00, 0x00, 0x00, 0x00, 0x00, 0x00, 0x00, 0x00, 0x00,
   0x00, 0x00, 0x00, 0x00, 0x00, 0x00, 0x00, 0x00, 0x00, 0x00, 0x00, 0x00,
   0x00, 0x00, 0x00, 0x00, 0x00, 0x00, 0x00, 0x00, 0x00, 0x00, 0x00, 0x00,
   0x00, 0x00, 0x00, 0x00, 0x00, 0x00, 0x00, 0x00, 0x00, 0x00, 0x00, 0x00,
   0x00, 0x00, 0x00, 0x00, 0x00, 0x00, 0x00, 0x00, 0x00, 0x00, 0x00, 0x00,
   0x00, 0x00, 0x00, 0x00, 0x00, 0x00, 0x00, 0x00, 0x00, 0x00, 0x00, 0x00,
   0x00, 0x00, 0x00, 0x00, 0x00, 0x00, 0x08, 0x00, 0x3e, 0x3c, 0x3e, 0x3c,
   0x1e, 0x7e, 0x7e, 0x3c, 0x42, 0x1c, 0x70, 0x42, 0x02, 0x41, 0x42, 0x3c,
   0x3e, 0x3c, 0x3e, 0x3c, 0x7f, 0x42, 0x42, 0x41, 0x42, 0x41, 0x7e, 0x1c,
   0x02, 0x1c, 0x14, 0x00, 0x41, 0x42, 0x42, 0x42, 0x22, 0x02, 0x02, 0x42,
   0x42, 0x08, 0x20, 0x22, 0x02, 0x63, 0x42, 0x42, 0x42, 0x42, 0x42, 0x42,
   0x08, 0x42, 0x42, 0x41, 0x42, 0x41, 0x40, 0x04, 0x02, 0x10, 0x22, 0x00,
   0x79, 0x42, 0x42, 0x42, 0x42, 0x02, 0x02, 0x42, 0x42, 0x08, 0x20, 0x12,
   0x02, 0x55, 0x42, 0x42, 0x42, 0x42, 0x42, 0x02, 0x08, 0x42, 0x42, 0x41,
   0x24, 0x22, 0x40, 0x04, 0x04, 0x10, 0x00, 0x00, 0x45, 0x42, 0x42, 0x02,
   0x42, 0x02, 0x02, 0x02, 0x42, 0x08, 0x20, 0x0a, 0x02, 0x49, 0x46, 0x42,
   0x42, 0x42, 0x42, 0x02, 0x08, 0x42, 0x42, 0x41, 0x24, 0x22, 0x20, 0x04,
   0x04, 0x10, 0x00, 0x00, 0x45, 0x42, 0x3e, 0x02, 0x42, 0x1e, 0x1e, 0x02,
   0x7e, 0x08, 0x20, 0x06, 0x02, 0x49, 0x4a, 0x42, 0x42, 0x42, 0x42, 0x3c,
   0x08, 0x42, 0x42, 0x41, 0x18, 0x14, 0x10, 0x04, 0x08, 0x10, 0x00, 0x00,
   0x45, 0x7e, 0x42, 0x02, 0x42, 0x02, 0x02, 0x72, 0x42, 0x08, 0x20, 0x06,
   0x02, 0x41, 0x52, 0x42, 0x3e, 0x42, 0x3e, 0x40, 0x08, 0x42, 0x24, 0x49,
   0x18, 0x08, 0x08, 0x04, 0x08, 0x10, 0x00, 0x00, 0x65, 0x42, 0x42, 0x02,
   0x42, 0x02, 0x02, 0x42, 0x42, 0x08, 0x20, 0x0a, 0x02, 0x41, 0x62, 0x42,
   0x02, 0x42, 0x0a, 0x40, 0x08, 0x42, 0x24, 0x49, 0x24, 0x08, 0x04, 0x04,
   0x10, 0x10, 0x00, 0x00, 0x59, 0x42, 0x42, 0x42, 0x42, 0x02, 0x02, 0x42,
   0x42, 0x08, 0x22, 0x12, 0x02, 0x41, 0x42, 0x42, 0x02, 0x42, 0x12, 0x42,
   0x08, 0x42, 0x24, 0x55, 0x24, 0x08, 0x02, 0x04, 0x10, 0x10, 0x00, 0x00,
   0x01, 0x42, 0x42, 0x42, 0x22, 0x02, 0x02, 0x42, 0x42, 0x08, 0x22, 0x22,
   0x02, 0x41, 0x42, 0x42, 0x02, 0x52, 0x22, 0x42, 0x08, 0x42, 0x18, 0x63,
   0x42, 0x08, 0x02, 0x04, 0x20, 0x10, 0x00, 0x00, 0x7e, 0x42, 0x3e, 0x3c,
   0x1e, 0x7e, 0x02, 0x3c, 0x42, 0x1c, 0x1c, 0x42, 0x7e, 0x41, 0x42, 0x3c,
   0x02, 0x3c, 0x42, 0x3c, 0x08, 0x3c, 0x18, 0x41, 0x42, 0x08, 0x7e, 0x1c,
   0x20, 0x1c, 0x00, 0x00, 0x00, 0x00, 0x00, 0x00, 0x00, 0x00, 0x00, 0x00,
   0x00, 0x00, 0x00, 0x00, 0x00, 0x00, 0x00, 0x00, 0x00, 0x40, 0x00, 0x00,
   0x00, 0x00, 0x00, 0x00, 0x00, 0x00, 0x00, 0x00, 0x00, 0x00, 0x00, 0x00,
   0x00, 0x00, 0x00, 0x00, 0x00, 0x00, 0x00, 0x00, 0x00, 0x00, 0x00, 0x00,
   0x00, 0x00, 0x00, 0x00, 0x00, 0x00, 0x00, 0x00, 0x00, 0x00, 0x00, 0x00,
   0x00, 0x00, 0x00, 0x00, 0x00, 0x00, 0x00, 0x7e, 0x00, 0x00, 0x00, 0x00,
   0x00, 0x00, 0x00, 0x00, 0x00, 0x00, 0x00, 0x00, 0x00, 0x00, 0x00, 0x00,
   0x00, 0x00, 0x00, 0x00, 0x00, 0x00, 0x00, 0x00, 0x00, 0x00, 0x00, 0x00,
   0x00, 0x00, 0x00, 0x00, 0x00, 0x00, 0x00, 0x00, 0x00, 0x00, 0x00, 0x00,
   0x00, 0x00, 0x00, 0x00, 0x00, 0x00, 0x00, 0x00, 0x00, 0x00, 0x00, 0x00,
   0x00, 0x00, 0x00, 0x00, 0x00, 0x00, 0x00, 0x00, 0x00, 0x00, 0x00, 0x00,
   0x08, 0x00, 0x00, 0x00, 0x00, 0x00, 0x00, 0x00, 0x00, 0x00, 0x00, 0x00,
   0x00, 0x00, 0x00, 0x00, 0x00, 0x00, 0x00, 0x00, 0x00, 0x00, 0x00, 0x00,
   0x00, 0x00, 0x00, 0x00, 0x00, 0x00, 0x00, 0x00, 0x10, 0x00, 0x00, 0x00,
   0x00, 0x00, 0x00, 0x00, 0x00, 0x00, 0x00, 0x00, 0x00, 0x00, 0x00, 0x00,
   0x00, 0x00, 0x00, 0x00, 0x00, 0x00, 0x00, 0x00, 0x00, 0x00, 0x00, 0x00,
   0x00, 0x00, 0x46, 0x00, 0x00, 0x00, 0x02, 0x00, 0x40, 0x00, 0x70, 0x00,
   0x02, 0x08, 0x20, 0x02, 0x0c, 0x00, 0x00, 0x00, 0x00, 0x00, 0x00, 0x00,
   0x08, 0x00, 0x00, 0x00, 0x00, 0x00, 0x00, 0x30, 0x08, 0x0c, 0x49, 0x00,
   0x00, 0x00, 0x02, 0x00, 0x40, 0x00, 0x08, 0x00, 0x02, 0x08, 0x20, 0x02,
   0x08, 0x00, 0x00, 0x00, 0x00, 0x00, 0x00, 0x00, 0x08, 0x00, 0x00, 0x00,
   0x00, 0x00, 0x00, 0x08, 0x08, 0x10, 0x31, 0x00, 0x00, 0x00, 0x02, 0x00,
   0x40, 0x00, 0x08, 0x00, 0x02, 0x00, 0x00, 0x02, 0x08, 0x00, 0x00, 0x00,
   0x00, 0x00, 0x00, 0x00, 0x08, 0x00, 0x00, 0x00, 0x00, 0x00, 0x00, 0x08,
   0x08, 0x10, 0x00, 0x00, 0x00, 0x3c, 0x3e, 0x3c, 0x7c, 0x3c, 0x3e, 0x7c,
   0x3e, 0x0c, 0x30, 0x42, 0x08, 0x3f, 0x3e, 0x3c, 0x3e, 0x7c, 0x7a, 0x7c,
   0x3e, 0x42, 0x42, 0x41, 0x42, 0x42, 0x7e, 0x08, 0x08, 0x10, 0x00, 0x00,
   0x00, 0x40, 0x42, 0x42, 0x42, 0x42, 0x08, 0x42, 0x42, 0x08, 0x20, 0x22,
   0x08, 0x49, 0x42, 0x42, 0x42, 0x42, 0x06, 0x02, 0x08, 0x42, 0x42, 0x41,
   0x42, 0x42, 0x20, 0x04, 0x08, 0x20, 0x00, 0x00, 0x00, 0x7c, 0x42, 0x02,
   0x42, 0x42, 0x08, 0x42, 0x42, 0x08, 0x20, 0x12, 0x08, 0x49, 0x42, 0x42,
   0x42, 0x42, 0x02, 0x02, 0x08, 0x42, 0x42, 0x49, 0x24, 0x42, 0x10, 0x08,
   0x08, 0x10, 0x00, 0x00, 0x00, 0x42, 0x42, 0x02, 0x42, 0x7e, 0x08, 0x42,
   0x42, 0x08, 0x20, 0x0e, 0x08, 0x49, 0x42, 0x42, 0x42, 0x42, 0x02, 0x3c,
   0x08, 0x42, 0x24, 0x49, 0x18, 0x42, 0x08, 0x08, 0x08, 0x10, 0x00, 0x00,
   0x00, 0x42, 0x42, 0x02, 0x42, 0x02, 0x08, 0x42, 0x42, 0x08, 0x20, 0x12,
   0x08, 0x49, 0x42, 0x42, 0x42, 0x42, 0x02, 0x40, 0x08, 0x42, 0x24, 0x49,
   0x24, 0x42, 0x04, 0x08, 0x08, 0x10, 0x00, 0x00, 0x00, 0x42, 0x42, 0x42,
   0x42, 0x02, 0x08, 0x42, 0x42, 0x08, 0x20, 0x22, 0x08, 0x49, 0x42, 0x42,
   0x42, 0x42, 0x02, 0x40, 0x08, 0x42, 0x18, 0x49, 0x42, 0x42, 0x02, 0x08,
   0x08, 0x10, 0x00, 0x00, 0x00, 0x7c, 0x3e, 0x3c, 0x7c, 0x3c, 0x08, 0x7c,
   0x42, 0x1c, 0x20, 0x42, 0x1c, 0x49, 0x42, 0x3c, 0x3e, 0x7c, 0x02, 0x3e,
   0x70, 0x7c, 0x18, 0x3e, 0x42, 0x7c, 0x7e, 0x30, 0x08, 0x0c, 0x00, 0x00,
   0x00, 0x00, 0x00, 0x00, 0x00, 0x00, 0x00, 0x40, 0x00, 0x00, 0x22, 0x00,
   0x00, 0x00, 0x00, 0x00, 0x02, 0x40, 0x00, 0x00, 0x00, 0x00, 0x00, 0x00,
   0x00, 0x40, 0x00, 0x00, 0x00, 0x00, 0x00, 0x00, 0x00, 0x00, 0x00, 0x00,
   0x00, 0x00, 0x00, 0x40, 0x00, 0x00, 0x22, 0x00, 0x00, 0x00, 0x00, 0x00,
   0x02, 0x40, 0x00, 0x00, 0x00, 0x00, 0x00, 0x00, 0x00, 0x40, 0x00, 0x00,
   0x00, 0x00, 0x00, 0x00, 0x00, 0x00, 0x00, 0x00, 0x00, 0x00, 0x00, 0x3c,
   0x00, 0x00, 0x1c, 0x00, 0x00, 0x00, 0x00, 0x00, 0x02, 0x40, 0x00, 0x00,
   0x00, 0x00, 0x00, 0x00, 0x00, 0x3c, 0x00, 0x00, 0x00, 0x00, 0x00, 0x00,
   0x00, 0x00, 0x00, 0x00, 0x00, 0x00, 0x00, 0x00, 0x00, 0x00, 0x00, 0x00,
   0x00, 0x00, 0x00, 0x00, 0x00, 0x00, 0x00, 0x00, 0x00, 0x00, 0x00, 0x00,
   0x00, 0x00, 0x00, 0x00, 0x00, 0x00, 0x00, 0x00, 0x00, 0x00, 0x00, 0x00,
   0x00, 0x00, 0x00, 0x00, 0x00, 0x00, 0x00, 0x00, 0x00, 0x00, 0x00, 0x00,
   0x00, 0x00, 0x00, 0x00, 0x00, 0x00, 0x00, 0x00, 0x00, 0x00, 0x00, 0x00,
   0x00, 0x00, 0x00, 0x00, 0x00, 0x00, 0x00, 0x00, 0x00, 0x00, 0x00, 0x00,
   0x00, 0x00, 0x00, 0x00, 0x00, 0x00, 0x00, 0x00, 0x00, 0x00, 0x00, 0x00,
   0x00, 0x00, 0x00, 0x00, 0x00, 0x00, 0x00, 0x00, 0x00, 0x00, 0x00, 0x00,
   0x00, 0x00, 0x00, 0x00, 0x00, 0x00, 0x00, 0x00, 0x00, 0x00, 0x00, 0x00,
   0x00, 0x00, 0x00, 0x00, 0x00, 0x00, 0x00, 0x00, 0x00, 0x00, 0x00, 0x00,
   0x00, 0x00, 0x00, 0x00, 0x00, 0x00, 0x00, 0x00, 0x00, 0x00, 0x00, 0x00,
   0x00, 0x00, 0x00, 0x00, 0x00, 0x00, 0x00, 0x00, 0x00, 0x00, 0x00, 0x00,
   0x00, 0x00, 0x00, 0x00, 0x00, 0x00, 0x00, 0x00, 0x00, 0x00, 0x00, 0x00,
   0x00, 0x00, 0x00, 0x00, 0x00, 0x00, 0x00, 0x00, 0x00, 0x00, 0x00, 0x00,
   0x00, 0x00, 0x00, 0x00, 0x00, 0x00, 0x00, 0x00, 0x00, 0x00, 0x00, 0x00,
   0x00, 0x00, 0x00, 0x00, 0x00, 0x00, 0x00, 0x00, 0x00, 0x00, 0x00, 0x00,
   0x00, 0x00, 0x00, 0x00, 0x00, 0x00, 0x00, 0x00, 0x00, 0x00, 0x00, 0x00,
   0x00, 0x00, 0x00, 0x00, 0x00, 0x00, 0x00, 0x00, 0x00, 0x00, 0x00, 0x00,
   0x00, 0x00, 0x00, 0x00, 0x00, 0x00, 0x00, 0x00, 0x00, 0x00, 0x00, 0x00,
   0x00, 0x00, 0x00, 0x00, 0x00, 0x00, 0x00, 0x00, 0x00, 0x00, 0x00, 0x00,
   0x00, 0x00, 0x00, 0x00, 0x00, 0x00, 0x00, 0x00, 0x00, 0x00, 0x00, 0x00,
   0x00, 0x00, 0x00, 0x00, 0x00, 0x00, 0x00, 0x00, 0x00, 0x00, 0x00, 0x00,
   0x00, 0x00, 0x00, 0x00, 0x00, 0x00, 0x00, 0x00, 0x00, 0x00, 0x00, 0x00,
   0x00, 0x00, 0x00, 0x00, 0x00, 0x00, 0x00, 0x00, 0x00, 0x00, 0x00, 0x00,
   0x00, 0x00, 0x00, 0x00, 0x00, 0x00, 0x00, 0x00, 0x00, 0x00, 0x00, 0x00,
   0x00, 0x00, 0x00, 0x00, 0x00, 0x00, 0x00, 0x00, 0x00, 0x00, 0x00, 0x00,
   0x00, 0x00, 0x00, 0x00, 0x00, 0x00, 0x00, 0x00, 0x00, 0x00, 0x00, 0x00,
   0x00, 0x00, 0x00, 0x00, 0x00, 0x00, 0x00, 0x00, 0x00, 0x00, 0x00, 0x00,
   0x00, 0x00, 0x00, 0x00, 0x00, 0x00, 0x00, 0x00, 0x00, 0x00, 0x00, 0x00,
   0x00, 0x00, 0x00, 0x00, 0x00, 0x00, 0x00, 0x00, 0x00, 0x00, 0x00, 0x00,
   0x00, 0x00, 0x00, 0x00, 0x00, 0x00, 0x00, 0x00, 0x00, 0x00, 0x00, 0x00,
   0x00, 0x00, 0x00, 0x00, 0x00, 0x00, 0x00, 0x00, 0x00, 0x00, 0x00, 0x00,
   0x00, 0x00, 0x00, 0x00, 0x00, 0x00, 0x00, 0x00, 0x00, 0x00, 0x00, 0x00,
   0x00, 0x00, 0x00, 0x00, 0x00, 0x00, 0x00, 0x00, 0x00, 0x00, 0x00, 0x00,
   0x00, 0x00, 0x00, 0x00, 0x00, 0x00, 0x00, 0x00, 0x00, 0x00, 0x00, 0x00,
   0x00, 0x00, 0x00, 0x00, 0x00, 0x00, 0x00, 0x00, 0x00, 0x00, 0x00, 0x00,
   0x00, 0x00, 0x00, 0x00, 0x00, 0x00, 0x00, 0x00, 0x00, 0x00, 0x00, 0x00,
   0x00, 0x00, 0x00, 0x00, 0x00, 0x00, 0x00, 0x00, 0x00, 0x00, 0x00, 0x00,
   0x00, 0x00, 0x00, 0x00, 0x00, 0x00, 0x00, 0x00, 0x00, 0x00, 0x00, 0x00,
   0x00, 0x00, 0x00, 0x00, 0x00, 0x00, 0x00, 0x00, 0x00, 0x00, 0x00, 0x00,
   0x00, 0x00, 0x00, 0x00, 0x00, 0x00, 0x00, 0x00, 0x00, 0x00, 0x00, 0x00,
   0x00, 0x00, 0x00, 0x00, 0x00, 0x00, 0x00, 0x00, 0x00, 0x00, 0x00, 0x00,
   0x00, 0x00, 0x00, 0x00, 0x00, 0x00, 0x00, 0x00, 0x00, 0x00, 0x00, 0x00,
   0x00, 0x00, 0x00, 0x00, 0x00, 0x00, 0x00, 0x00, 0x00, 0x00, 0x00, 0x00,
   0x00, 0x00, 0x00, 0x00, 0x00, 0x00, 0x00, 0x00, 0x00, 0x00, 0x00, 0x00,
   0x00, 0x00, 0x00, 0x00, 0x00, 0x00, 0x00, 0x00, 0x00, 0x00, 0x00, 0x00,
   0x24, 0x00, 0x00, 0x00, 0x00, 0x00, 0x00, 0x3c, 0x00, 0x00, 0x00, 0x00,
   0x10, 0x00, 0x00, 0x00, 0x00, 0x00, 0x00, 0x00, 0x00, 0x00, 0x00, 0x00,
   0x00, 0x00, 0x00, 0x00, 0x00, 0x00, 0x00, 0x1c, 0x24, 0x00, 0x1c, 0x00,
   0x00, 0x00, 0x00, 0x00, 0x18, 0x00, 0x18, 0x1c, 0x08, 0x00, 0x00, 0x00,
   0x00, 0x08, 0x1c, 0x00, 0x04, 0x04, 0x07, 0x00, 0x00, 0x08, 0x00, 0x18,
   0x00, 0x41, 0x08, 0x22, 0x00, 0x00, 0x20, 0x00, 0x00, 0x00, 0x00, 0x00,
   0x24, 0x00, 0x24, 0x20, 0x00, 0x00, 0x7e, 0x00, 0x00, 0x0c, 0x22, 0x00,
   0x06, 0x06, 0x08, 0x08, 0x00, 0x08, 0x08, 0x24, 0x00, 0x41, 0x08, 0x02,
   0x00, 0x7e, 0x3c, 0x00, 0x00, 0x00, 0x7e, 0x00, 0x24, 0x00, 0x20, 0x18,
   0x00, 0x00, 0x49, 0x00, 0x00, 0x08, 0x22, 0x00, 0x04, 0x04, 0x06, 0x08,
   0x00, 0x00, 0x08, 0x04, 0x22, 0x22, 0x08, 0x0c, 0x00, 0x81, 0x22, 0x00,
   0x00, 0x00, 0x81, 0x00, 0x18, 0x00, 0x10, 0x20, 0x00, 0x00, 0x49, 0x00,
   0x00, 0x08, 0x22, 0x00, 0x44, 0x44, 0x48, 0x00, 0x00, 0x08, 0x3e, 0x04,
   0x1c, 0x14, 0x08, 0x12, 0x00, 0x99, 0x3c, 0x48, 0x7e, 0x00, 0x9d, 0x00,
   0x00, 0x08, 0x08, 0x20, 0x00, 0x42, 0x49, 0x00, 0x00, 0x08, 0x1c, 0x09,
   0x24, 0x24, 0x27, 0x08, 0x00, 0x08, 0x49, 0x1e, 0x22, 0x08, 0x00, 0x22,
   0x00, 0xa5, 0x00, 0x24, 0x40, 0x00, 0xa5, 0x00, 0x00, 0x08, 0x3c, 0x1c,
   0x00, 0x42, 0x49, 0x00, 0x00, 0x1c, 0x00, 0x12, 0x10, 0x10, 0x10, 0x08,
   0x00, 0x08, 0x09, 0x04, 0x22, 0x3e, 0x00, 0x22, 0x00, 0x85, 0x3e, 0x12,
   0x40, 0x3c, 0x9d, 0x00, 0x00, 0x3e, 0x00, 0x00, 0x00, 0x42, 0x4e, 0x08,
   0x00, 0x00, 0x3e, 0x24, 0x08, 0x08, 0x08, 0x04, 0x00, 0x08, 0x09, 0x04,
   0x22, 0x08, 0x08, 0x24, 0x00, 0xa5, 0x00, 0x09, 0x40, 0x00, 0x95, 0x00,
   0x00, 0x08, 0x00, 0x00, 0x00, 0x42, 0x48, 0x08, 0x00, 0x00, 0x00, 0x48,
   0x44, 0x04, 0x44, 0x42, 0x00, 0x08, 0x09, 0x04, 0x1c, 0x3e, 0x08, 0x18,
   0x00, 0x99, 0x00, 0x12, 0x00, 0x00, 0xa5, 0x00, 0x00, 0x08, 0x00, 0x00,
   0x00, 0x42, 0x48, 0x00, 0x00, 0x00, 0x00, 0x24, 0x62, 0x32, 0x62, 0x42,
   0x00, 0x08, 0x49, 0x44, 0x22, 0x08, 0x08, 0x20, 0x00, 0x81, 0x00, 0x24,
   0x00, 0x00, 0x81, 0x00, 0x00, 0x00, 0x00, 0x00, 0x00, 0x62, 0x48, 0x00,
   0x00, 0x00, 0x00, 0x12, 0x51, 0x49, 0x51, 0x42, 0x00, 0x08, 0x3e, 0x7e,
   0x00, 0x08, 0x08, 0x22, 0x00, 0x7e, 0x00, 0x48, 0x00, 0x00, 0x7e, 0x00,
   0x00, 0x3e, 0x00, 0x00, 0x00, 0x5e, 0x48, 0x00, 0x00, 0x00, 0x00, 0x09,
   0x78, 0x20, 0x78, 0x3c, 0x00, 0x00, 0x08, 0x00, 0x00, 0x00, 0x00, 0x1c,
   0x00, 0x00, 0x00, 0x00, 0x00, 0x00, 0x00, 0x00, 0x00, 0x00, 0x00, 0x00,
   0x00, 0x02, 0x00, 0x00, 0x08, 0x00, 0x00, 0x00, 0x40, 0x10, 0x40, 0x00,
   0x00, 0x00, 0x08, 0x00, 0x00, 0x00, 0x00, 0x00, 0x00, 0x00, 0x00, 0x00,
   0x00, 0x00, 0x00, 0x00, 0x00, 0x00, 0x00, 0x00, 0x00, 0x02, 0x00, 0x00,
   0x08, 0x00, 0x00, 0x00, 0x40, 0x78, 0x40, 0x00, 0x00, 0x00, 0x00, 0x00,
   0x00, 0x00, 0x00, 0x00, 0x00, 0x00, 0x00, 0x00, 0x00, 0x00, 0x00, 0x00,
   0x00, 0x00, 0x00, 0x00, 0x00, 0x02, 0x00, 0x00, 0x04, 0x00, 0x00, 0x00,
   0x00, 0x00, 0x00, 0x00, 0x00, 0x00, 0x00, 0x00, 0x00, 0x00, 0x00, 0x00,
   0x00, 0x00, 0x00, 0x00, 0x00, 0x00, 0x00, 0x00, 0x00, 0x00, 0x00, 0x00,
   0x00, 0x00, 0x00, 0x00, 0x00, 0x00, 0x00, 0x00, 0x00, 0x00, 0x00, 0x00,
   0x08, 0x10, 0x18, 0x4c, 0x24, 0x18, 0x00, 0x00, 0x08, 0x10, 0x18, 0x24,
   0x04, 0x10, 0x18, 0x22, 0x00, 0x4c, 0x08, 0x10, 0x18, 0x4c, 0x24, 0x00,
   0x00, 0x08, 0x10, 0x18, 0x24, 0x10, 0x00, 0x00, 0x10, 0x08, 0x24, 0x32,
   0x24, 0x24, 0x00, 0x00, 0x10, 0x08, 0x24, 0x24, 0x08, 0x08, 0x24, 0x22,
   0x00, 0x32, 0x10, 0x08, 0x24, 0x32, 0x24, 0x00, 0x00, 0x10, 0x08, 0x24,
   0x24, 0x08, 0x00, 0x00, 0x00, 0x00, 0x00, 0x00, 0x00, 0x18, 0x7e, 0x3c,
   0x00, 0x00, 0x00, 0x00, 0x00, 0x00, 0x00, 0x00, 0x1e, 0x00, 0x00, 0x00,
   0x00, 0x00, 0x00, 0x00, 0x3c, 0x42, 0x42, 0x00, 0x00, 0x41, 0x02, 0x1c,
   0x3c, 0x3c, 0x3c, 0x3c, 0x3c, 0x3c, 0x09, 0x42, 0x7e, 0x7e, 0x7e, 0x7e,
   0x1c, 0x1c, 0x1c, 0x1c, 0x22, 0x42, 0x3c, 0x3c, 0x3c, 0x3c, 0x3c, 0x00,
   0xc2, 0x42, 0x42, 0x42, 0x42, 0x41, 0x02, 0x22, 0x42, 0x42, 0x42, 0x42,
   0x42, 0x42, 0x09, 0x42, 0x02, 0x02, 0x02, 0x02, 0x08, 0x08, 0x08, 0x08,
   0x42, 0x42, 0x42, 0x42, 0x42, 0x42, 0x42, 0x00, 0x42, 0x42, 0x42, 0x42,
   0x42, 0x22, 0x3e, 0x22, 0x42, 0x42, 0x42, 0x42, 0x42, 0x42, 0x09, 0x02,
   0x02, 0x02, 0x02, 0x02, 0x08, 0x08, 0x08, 0x08, 0x42, 0x46, 0x42, 0x42,
   0x42, 0x42, 0x42, 0x42, 0x62, 0x42, 0x42, 0x42, 0x42, 0x22, 0x42, 0x12,
   0x42, 0x42, 0x42, 0x42, 0x42, 0x42, 0x3f, 0x02, 0x02, 0x02, 0x02, 0x02,
   0x08, 0x08, 0x08, 0x08, 0x4f, 0x4a, 0x42, 0x42, 0x42, 0x42, 0x42, 0x24,
   0x52, 0x42, 0x42, 0x42, 0x42, 0x14, 0x42, 0x3e, 0x7e, 0x7e, 0x7e, 0x7e,
   0x7e, 0x7e, 0x09, 0x02, 0x1e, 0x1e, 0x1e, 0x1e, 0x08, 0x08, 0x08, 0x08,
   0x42, 0x52, 0x42, 0x42, 0x42, 0x42, 0x42, 0x18, 0x4a, 0x42, 0x42, 0x42,
   0x42, 0x08, 0x42, 0x42, 0x42, 0x42, 0x42, 0x42, 0x42, 0x42, 0x09, 0x02,
   0x02, 0x02, 0x02, 0x02, 0x08, 0x08, 0x08, 0x08, 0x42, 0x62, 0x42, 0x42,
   0x42, 0x42, 0x42, 0x18, 0x46, 0x42, 0x42, 0x42, 0x42, 0x08, 0x42, 0x42,
   0x42, 0x42, 0x42, 0x42, 0x42, 0x42, 0x09, 0x42, 0x02, 0x02, 0x02, 0x02,
   0x08, 0x08, 0x08, 0x08, 0x42, 0x42, 0x42, 0x42, 0x42, 0x42, 0x42, 0x24,
   0x42, 0x42, 0x42, 0x42, 0x42, 0x08, 0x3e, 0x42, 0x42, 0x42, 0x42, 0x42,
   0x42, 0x42, 0x09, 0x42, 0x02, 0x02, 0x02, 0x02, 0x08, 0x08, 0x08, 0x08,
   0x22, 0x42, 0x42, 0x42, 0x42, 0x42, 0x42, 0x42, 0x43, 0x42, 0x42, 0x42,
   0x42, 0x08, 0x02, 0x46, 0x42, 0x42, 0x42, 0x42, 0x42, 0x42, 0x79, 0x3c,
   0x7e, 0x7e, 0x7e, 0x7e, 0x1c, 0x1c, 0x1c, 0x1c, 0x1e, 0x42, 0x3c, 0x3c,
   0x3c, 0x3c, 0x3c, 0x00, 0x3c, 0x3c, 0x3c, 0x3c, 0x3c, 0x08, 0x02, 0x3a,
   0x00, 0x00, 0x00, 0x00, 0x00, 0x00, 0x00, 0x08, 0x00, 0x00, 0x00, 0x00,
   0x00, 0x00, 0x00, 0x00, 0x00, 0x00, 0x00, 0x00, 0x00, 0x00, 0x00, 0x00,
   0x00, 0x00, 0x00, 0x00, 0x00, 0x00, 0x00, 0x00, 0x00, 0x00, 0x00, 0x00,
   0x00, 0x00, 0x00, 0x08, 0x00, 0x00, 0x00, 0x00, 0x00, 0x00, 0x00, 0x00,
   0x00, 0x00, 0x00, 0x00, 0x00, 0x00, 0x00, 0x00, 0x00, 0x00, 0x00, 0x00,
   0x00, 0x00, 0x00, 0x00, 0x00, 0x00, 0x00, 0x00, 0x00, 0x00, 0x00, 0x04,
   0x00, 0x00, 0x00, 0x00, 0x00, 0x00, 0x00, 0x00, 0x00, 0x00, 0x00, 0x00,
   0x00, 0x00, 0x00, 0x00, 0x00, 0x00, 0x00, 0x00, 0x00, 0x00, 0x00, 0x00,
   0x00, 0x00, 0x00, 0x00, 0x00, 0x00, 0x00, 0x00, 0x00, 0x00, 0x00, 0x00,
   0x00, 0x00, 0x00, 0x00, 0x00, 0x00, 0x00, 0x00, 0x00, 0x00, 0x00, 0x00,
   0x00, 0x00, 0x00, 0x00, 0x00, 0x00, 0x00, 0x00, 0x00, 0x00, 0x00, 0x00,
   0x00, 0x00, 0x00, 0x00, 0x00, 0x00, 0x00, 0x00, 0x00, 0x00, 0x00, 0x00,
   0x00, 0x00, 0x00, 0x00, 0x00, 0x00, 0x00, 0x00, 0x00, 0x00, 0x00, 0x00,
   0x00, 0x00, 0x00, 0x00, 0x00, 0x00, 0x00, 0x00, 0x00, 0x00, 0x00, 0x00,
   0x00, 0x00, 0x00, 0x00, 0x00, 0x00, 0x00, 0x00, 0x00, 0x00, 0x00, 0x00,
   0x00, 0x00, 0x00, 0x00, 0x00, 0x00, 0x00, 0x00, 0x00, 0x00, 0x00, 0x00,
   0x08, 0x10, 0x18, 0x4c, 0x24, 0x18, 0x00, 0x00, 0x08, 0x10, 0x18, 0x24,
   0x04, 0x10, 0x0c, 0x12, 0x14, 0x4c, 0x08, 0x10, 0x18, 0x4c, 0x24, 0x00,
   0x00, 0x08, 0x10, 0x18, 0x24, 0x10, 0x02, 0x24, 0x10, 0x08, 0x24, 0x32,
   0x24, 0x24, 0x00, 0x00, 0x10, 0x08, 0x24, 0x24, 0x08, 0x08, 0x12, 0x12,
   0x08, 0x32, 0x10, 0x08, 0x24, 0x32, 0x24, 0x00, 0x00, 0x10, 0x08, 0x24,
   0x24, 0x08, 0x02, 0x24, 0x00, 0x00, 0x00, 0x00, 0x00, 0x18, 0x00, 0x00,
   0x00, 0x00, 0x00, 0x00, 0x00, 0x00, 0x00, 0x00, 0x14, 0x00, 0x00, 0x00,
   0x00, 0x00, 0x00, 0x08, 0x40, 0x00, 0x00, 0x00, 0x00, 0x00, 0x02, 0x00,
   0x3c, 0x3c, 0x3c, 0x3c, 0x3c, 0x3c, 0x36, 0x3c, 0x3c, 0x3c, 0x3c, 0x3c,
   0x0c, 0x0c, 0x0c, 0x0c, 0x3c, 0x3e, 0x3c, 0x3c, 0x3c, 0x3c, 0x3c, 0x08,
   0x3c, 0x42, 0x42, 0x42, 0x42, 0x42, 0x3e, 0x42, 0x40, 0x40, 0x40, 0x40,
   0x40, 0x40, 0x48, 0x42, 0x42, 0x42, 0x42, 0x42, 0x08, 0x08, 0x08, 0x08,
   0x42, 0x42, 0x42, 0x42, 0x42, 0x42, 0x42, 0x00, 0x62, 0x42, 0x42, 0x42,
   0x42, 0x42, 0x42, 0x42, 0x7c, 0x7c, 0x7c, 0x7c, 0x7c, 0x7c, 0x4e, 0x02,
   0x42, 0x42, 0x42, 0x42, 0x08, 0x08, 0x08, 0x08, 0x42, 0x42, 0x42, 0x42,
   0x42, 0x42, 0x42, 0x3e, 0x52, 0x42, 0x42, 0x42, 0x42, 0x42, 0x42, 0x42,
   0x42, 0x42, 0x42, 0x42, 0x42, 0x42, 0x79, 0x02, 0x7e, 0x7e, 0x7e, 0x7e,
   0x08, 0x08, 0x08, 0x08, 0x42, 0x42, 0x42, 0x42, 0x42, 0x42, 0x42, 0x00,
   0x4a, 0x42, 0x42, 0x42, 0x42, 0x42, 0x42, 0x42, 0x42, 0x42, 0x42, 0x42,
   0x42, 0x42, 0x09, 0x02, 0x02, 0x02, 0x02, 0x02, 0x08, 0x08, 0x08, 0x08,
   0x42, 0x42, 0x42, 0x42, 0x42, 0x42, 0x42, 0x08, 0x46, 0x42, 0x42, 0x42,
   0x42, 0x42, 0x42, 0x42, 0x42, 0x42, 0x42, 0x42, 0x42, 0x42, 0x09, 0x42,
   0x02, 0x02, 0x02, 0x02, 0x08, 0x08, 0x08, 0x08, 0x42, 0x42, 0x42, 0x42,
   0x42, 0x42, 0x42, 0x08, 0x42, 0x42, 0x42, 0x42, 0x42, 0x42, 0x42, 0x42,
   0x7c, 0x7c, 0x7c, 0x7c, 0x7c, 0x7c, 0x36, 0x3c, 0x3c, 0x3c, 0x3c, 0x3c,
   0x1c, 0x1c, 0x1c, 0x1c, 0x3c, 0x42, 0x3c, 0x3c, 0x3c, 0x3c, 0x3c, 0x00,
   0x3d, 0x7c, 0x7c, 0x7c, 0x7c, 0x7c, 0x3e, 0x7c, 0x00, 0x00, 0x00, 0x00,
   0x00, 0x00, 0x00, 0x08, 0x00, 0x00, 0x00, 0x00, 0x00, 0x00, 0x00, 0x00,
   0x00, 0x00, 0x00, 0x00, 0x00, 0x00, 0x00, 0x00, 0x00, 0x00, 0x00, 0x00,
   0x00, 0x40, 0x02, 0x40, 0x00, 0x00, 0x00, 0x00, 0x00, 0x00, 0x00, 0x08,
   0x00, 0x00, 0x00, 0x00, 0x00, 0x00, 0x00, 0x00, 0x00, 0x00, 0x00, 0x00,
   0x00, 0x00, 0x00, 0x00, 0x00, 0x00, 0x00, 0x00, 0x00, 0x40, 0x02, 0x40,
   0x00, 0x00, 0x00, 0x00, 0x00, 0x00, 0x00, 0x04, 0x00, 0x00, 0x00, 0x00,
   0x00, 0x00, 0x00, 0x00, 0x00, 0x00, 0x00, 0x00, 0x00, 0x00, 0x00, 0x00,
   0x00, 0x00, 0x00, 0x00, 0x00, 0x3c, 0x02, 0x3c, 0x00, 0x00, 0x00, 0x00,
   0x00, 0x00, 0x00, 0x00, 0x00, 0x00, 0x00, 0x00, 0x00, 0x00, 0x00, 0x00,
   0x00, 0x00, 0x00, 0x00, 0x00, 0x00, 0x00, 0x00, 0x00, 0x00, 0x00, 0x00,
   0x00, 0x00, 0x00, 0x00 };
