#define u002500_u0025FF_width 256
#define u002500_u0025FF_height 128
static unsigned char u002500_u0025FF_bits[] = {
   0x00, 0x00, 0x08, 0x18, 0x00, 0x00, 0x00, 0x00, 0x00, 0x00, 0x08, 0x18,
   0x00, 0x00, 0x00, 0x00, 0x00, 0x00, 0x00, 0x00, 0x08, 0x08, 0x18, 0x18,
   0x08, 0x08, 0x18, 0x18, 0x08, 0x08, 0x18, 0x08, 0x00, 0x00, 0x08, 0x18,
   0x00, 0x00, 0x00, 0x00, 0x00, 0x00, 0x08, 0x18, 0x00, 0x00, 0x00, 0x00,
   0x00, 0x00, 0x00, 0x00, 0x08, 0x08, 0x18, 0x18, 0x08, 0x08, 0x18, 0x18,
   0x08, 0x08, 0x18, 0x08, 0x00, 0x00, 0x08, 0x18, 0x00, 0x00, 0x00, 0x00,
   0x00, 0x00, 0x08, 0x18, 0x00, 0x00, 0x00, 0x00, 0x00, 0x00, 0x00, 0x00,
   0x08, 0x08, 0x18, 0x18, 0x08, 0x08, 0x18, 0x18, 0x08, 0x08, 0x18, 0x08,
   0x00, 0x00, 0x08, 0x18, 0x00, 0x00, 0x00, 0x00, 0x00, 0x00, 0x00, 0x00,
   0x00, 0x00, 0x00, 0x00, 0x00, 0x00, 0x00, 0x00, 0x08, 0x08, 0x18, 0x18,
   0x08, 0x08, 0x18, 0x18, 0x08, 0x08, 0x18, 0x08, 0x00, 0x00, 0x08, 0x18,
   0x00, 0x00, 0x00, 0x00, 0x00, 0x00, 0x08, 0x18, 0x00, 0x00, 0x00, 0x00,
   0x00, 0x00, 0x00, 0x00, 0x08, 0x08, 0x18, 0x18, 0x08, 0x08, 0x18, 0x18,
   0x08, 0x08, 0x18, 0x08, 0x00, 0x00, 0x08, 0x18, 0x00, 0x00, 0x00, 0x00,
   0x00, 0x00, 0x08, 0x18, 0x00, 0x00, 0x00, 0x00, 0x00, 0x00, 0x00, 0x00,
   0x08, 0x08, 0x18, 0x18, 0x08, 0x08, 0x18, 0x18, 0x08, 0x08, 0x18, 0x08,
   0x00, 0x00, 0x08, 0x18, 0x00, 0x00, 0x00, 0x00, 0x00, 0x00, 0x08, 0x18,
   0x00, 0x00, 0x00, 0x00, 0x00, 0x00, 0x00, 0x00, 0x08, 0x08, 0x18, 0x18,
   0x08, 0x08, 0x18, 0x18, 0x08, 0x08, 0x18, 0x08, 0xff, 0xff, 0x08, 0x18,
   0x00, 0x00, 0x00, 0x00, 0x55, 0x55, 0x00, 0x00, 0xf8, 0xf8, 0xf8, 0xf8,
   0x0f, 0x0f, 0x1f, 0x1f, 0xf8, 0xf8, 0xf8, 0xf8, 0x0f, 0x0f, 0x1f, 0x1f,
   0xf8, 0xf8, 0xf8, 0xf8, 0x00, 0xff, 0x08, 0x18, 0x00, 0x00, 0x00, 0x00,
   0x00, 0x55, 0x08, 0x18, 0x08, 0xf8, 0x18, 0xf8, 0x08, 0x0f, 0x18, 0x1f,
   0x00, 0xf8, 0x00, 0xf8, 0x00, 0x0f, 0x00, 0x1f, 0x08, 0xf8, 0x08, 0x18,
   0x00, 0x00, 0x08, 0x18, 0x00, 0x00, 0x00, 0x00, 0x00, 0x00, 0x08, 0x18,
   0x08, 0x08, 0x18, 0x18, 0x08, 0x08, 0x18, 0x18, 0x00, 0x00, 0x00, 0x00,
   0x00, 0x00, 0x00, 0x00, 0x08, 0x08, 0x08, 0x18, 0x00, 0x00, 0x08, 0x18,
   0x00, 0x00, 0x00, 0x00, 0x00, 0x00, 0x08, 0x18, 0x08, 0x08, 0x18, 0x18,
   0x08, 0x08, 0x18, 0x18, 0x00, 0x00, 0x00, 0x00, 0x00, 0x00, 0x00, 0x00,
   0x08, 0x08, 0x08, 0x18, 0x00, 0x00, 0x08, 0x18, 0x00, 0x00, 0x00, 0x00,
   0x00, 0x00, 0x00, 0x00, 0x08, 0x08, 0x18, 0x18, 0x08, 0x08, 0x18, 0x18,
   0x00, 0x00, 0x00, 0x00, 0x00, 0x00, 0x00, 0x00, 0x08, 0x08, 0x08, 0x18,
   0x00, 0x00, 0x08, 0x18, 0x00, 0x00, 0x00, 0x00, 0x00, 0x00, 0x08, 0x18,
   0x08, 0x08, 0x18, 0x18, 0x08, 0x08, 0x18, 0x18, 0x00, 0x00, 0x00, 0x00,
   0x00, 0x00, 0x00, 0x00, 0x08, 0x08, 0x08, 0x18, 0x00, 0x00, 0x08, 0x18,
   0x00, 0x00, 0x00, 0x00, 0x00, 0x00, 0x08, 0x18, 0x08, 0x08, 0x18, 0x18,
   0x08, 0x08, 0x18, 0x18, 0x00, 0x00, 0x00, 0x00, 0x00, 0x00, 0x00, 0x00,
   0x08, 0x08, 0x08, 0x18, 0x00, 0x00, 0x08, 0x18, 0x00, 0x00, 0x00, 0x00,
   0x00, 0x00, 0x08, 0x18, 0x08, 0x08, 0x18, 0x18, 0x08, 0x08, 0x18, 0x18,
   0x00, 0x00, 0x00, 0x00, 0x00, 0x00, 0x00, 0x00, 0x08, 0x08, 0x08, 0x18,
   0x00, 0x00, 0x08, 0x18, 0x00, 0x00, 0x00, 0x00, 0x00, 0x00, 0x00, 0x00,
   0x08, 0x08, 0x18, 0x18, 0x08, 0x08, 0x18, 0x18, 0x00, 0x00, 0x00, 0x00,
   0x00, 0x00, 0x00, 0x00, 0x08, 0x08, 0x08, 0x18, 0x18, 0x18, 0x08, 0x18,
   0x08, 0x08, 0x18, 0x08, 0x18, 0x18, 0x08, 0x18, 0x00, 0x00, 0x00, 0x00,
   0x00, 0x00, 0x00, 0x00, 0x08, 0x08, 0x08, 0x08, 0x18, 0x18, 0x18, 0x18,
   0x08, 0x08, 0x08, 0x08, 0x18, 0x18, 0x08, 0x18, 0x08, 0x08, 0x18, 0x08,
   0x18, 0x18, 0x08, 0x18, 0x00, 0x00, 0x00, 0x00, 0x00, 0x00, 0x00, 0x00,
   0x08, 0x08, 0x08, 0x08, 0x18, 0x18, 0x18, 0x18, 0x08, 0x08, 0x08, 0x08,
   0x18, 0x18, 0x08, 0x18, 0x08, 0x08, 0x18, 0x08, 0x18, 0x18, 0x08, 0x18,
   0x00, 0x00, 0x00, 0x00, 0x00, 0x00, 0x00, 0x00, 0x08, 0x08, 0x08, 0x08,
   0x18, 0x18, 0x18, 0x18, 0x08, 0x08, 0x08, 0x08, 0x18, 0x18, 0x08, 0x18,
   0x08, 0x08, 0x18, 0x08, 0x18, 0x18, 0x08, 0x18, 0x00, 0x00, 0x00, 0x00,
   0x00, 0x00, 0x00, 0x00, 0x08, 0x08, 0x08, 0x08, 0x18, 0x18, 0x18, 0x18,
   0x08, 0x08, 0x08, 0x08, 0x18, 0x18, 0x08, 0x18, 0x08, 0x08, 0x18, 0x08,
   0x18, 0x18, 0x08, 0x18, 0x00, 0x00, 0x00, 0x00, 0x00, 0x00, 0x00, 0x00,
   0x08, 0x08, 0x08, 0x08, 0x18, 0x18, 0x18, 0x18, 0x08, 0x08, 0x08, 0x08,
   0x18, 0x18, 0x08, 0x18, 0x08, 0x08, 0x18, 0x08, 0x18, 0x18, 0x08, 0x18,
   0x00, 0x00, 0x00, 0x00, 0x00, 0x00, 0x00, 0x00, 0x08, 0x08, 0x08, 0x08,
   0x18, 0x18, 0x18, 0x18, 0x08, 0x08, 0x08, 0x08, 0x18, 0x18, 0x08, 0x18,
   0x08, 0x08, 0x18, 0x08, 0x18, 0x18, 0x08, 0x18, 0x00, 0x00, 0x00, 0x00,
   0x00, 0x00, 0x00, 0x00, 0x08, 0x08, 0x08, 0x08, 0x18, 0x18, 0x18, 0x18,
   0x08, 0x08, 0x08, 0x08, 0xf8, 0xf8, 0xf8, 0xf8, 0x0f, 0x0f, 0x1f, 0x1f,
   0x1f, 0x1f, 0x1f, 0x1f, 0xff, 0xff, 0xff, 0xff, 0xff, 0xff, 0xff, 0xff,
   0xff, 0xff, 0xff, 0xff, 0xff, 0xff, 0xff, 0xff, 0xff, 0xff, 0xff, 0xff,
   0x18, 0xf8, 0xf8, 0xf8, 0x08, 0x0f, 0x08, 0x18, 0x18, 0x1f, 0x1f, 0x1f,
   0x08, 0x0f, 0xf8, 0xff, 0x18, 0x1f, 0xf8, 0xff, 0x00, 0x0f, 0xf8, 0xff,
   0x00, 0x1f, 0xf8, 0xff, 0x08, 0x0f, 0xf8, 0xff, 0x18, 0x08, 0x18, 0x18,
   0x08, 0x08, 0x08, 0x18, 0x18, 0x08, 0x18, 0x18, 0x08, 0x08, 0x08, 0x08,
   0x18, 0x18, 0x18, 0x18, 0x00, 0x00, 0x00, 0x00, 0x00, 0x00, 0x00, 0x00,
   0x08, 0x08, 0x08, 0x08, 0x18, 0x08, 0x18, 0x18, 0x08, 0x08, 0x08, 0x18,
   0x18, 0x08, 0x18, 0x18, 0x08, 0x08, 0x08, 0x08, 0x18, 0x18, 0x18, 0x18,
   0x00, 0x00, 0x00, 0x00, 0x00, 0x00, 0x00, 0x00, 0x08, 0x08, 0x08, 0x08,
   0x18, 0x08, 0x18, 0x18, 0x08, 0x08, 0x08, 0x18, 0x18, 0x08, 0x18, 0x18,
   0x08, 0x08, 0x08, 0x08, 0x18, 0x18, 0x18, 0x18, 0x00, 0x00, 0x00, 0x00,
   0x00, 0x00, 0x00, 0x00, 0x08, 0x08, 0x08, 0x08, 0x18, 0x08, 0x18, 0x18,
   0x08, 0x08, 0x08, 0x18, 0x18, 0x08, 0x18, 0x18, 0x08, 0x08, 0x08, 0x08,
   0x18, 0x18, 0x18, 0x18, 0x00, 0x00, 0x00, 0x00, 0x00, 0x00, 0x00, 0x00,
   0x08, 0x08, 0x08, 0x08, 0x18, 0x08, 0x18, 0x18, 0x08, 0x08, 0x08, 0x18,
   0x18, 0x08, 0x18, 0x18, 0x08, 0x08, 0x08, 0x08, 0x18, 0x18, 0x18, 0x18,
   0x00, 0x00, 0x00, 0x00, 0x00, 0x00, 0x00, 0x00, 0x08, 0x08, 0x08, 0x08,
   0x18, 0x08, 0x18, 0x18, 0x08, 0x08, 0x08, 0x18, 0x18, 0x08, 0x18, 0x18,
   0x08, 0x08, 0x08, 0x08, 0x18, 0x18, 0x18, 0x18, 0x00, 0x00, 0x00, 0x00,
   0x00, 0x00, 0x00, 0x00, 0x08, 0x08, 0x08, 0x08, 0x18, 0x08, 0x18, 0x18,
   0x08, 0x08, 0x08, 0x18, 0x18, 0x08, 0x18, 0x18, 0x08, 0x08, 0x08, 0x08,
   0x18, 0x18, 0x18, 0x18, 0x00, 0x00, 0x00, 0x00, 0x00, 0x00, 0x00, 0x00,
   0x08, 0x08, 0x08, 0x08, 0x18, 0x08, 0x18, 0x18, 0x18, 0x08, 0x08, 0x18,
   0x08, 0x18, 0x18, 0x18, 0x00, 0x00, 0x00, 0x00, 0x00, 0x14, 0x00, 0x00,
   0x00, 0x00, 0x00, 0x00, 0x08, 0x14, 0x14, 0x08, 0x14, 0x14, 0x08, 0x14,
   0x18, 0x08, 0x18, 0x18, 0x18, 0x08, 0x08, 0x18, 0x08, 0x18, 0x18, 0x18,
   0x00, 0x00, 0x00, 0x00, 0x00, 0x14, 0x00, 0x00, 0x00, 0x00, 0x00, 0x00,
   0x08, 0x14, 0x14, 0x08, 0x14, 0x14, 0x08, 0x14, 0x18, 0x08, 0x18, 0x18,
   0x18, 0x08, 0x08, 0x18, 0x08, 0x18, 0x18, 0x18, 0x00, 0x00, 0x00, 0x00,
   0x00, 0x14, 0x00, 0x00, 0x00, 0x00, 0x00, 0x00, 0x08, 0x14, 0x14, 0x08,
   0x14, 0x14, 0x08, 0x14, 0x18, 0x08, 0x18, 0x18, 0x18, 0x08, 0x08, 0x18,
   0x08, 0x18, 0x18, 0x18, 0x00, 0x00, 0x00, 0x00, 0x00, 0x14, 0x00, 0x00,
   0x00, 0x00, 0x00, 0x00, 0x08, 0x14, 0x14, 0x08, 0x14, 0x14, 0x08, 0x14,
   0x18, 0x08, 0x18, 0x18, 0x18, 0x08, 0x08, 0x18, 0x08, 0x18, 0x18, 0x18,
   0x00, 0x00, 0x00, 0x00, 0x00, 0x14, 0x00, 0x00, 0x00, 0x00, 0x00, 0x00,
   0x08, 0x14, 0x14, 0x08, 0x14, 0x14, 0x08, 0x14, 0x18, 0x08, 0x18, 0x18,
   0x18, 0x08, 0x08, 0x18, 0x08, 0x18, 0x18, 0x18, 0x00, 0x00, 0x00, 0x00,
   0x00, 0x14, 0x00, 0x00, 0x00, 0x00, 0x00, 0x00, 0x08, 0x14, 0x14, 0x08,
   0x14, 0x14, 0x08, 0x14, 0x18, 0x08, 0x18, 0x18, 0x18, 0x08, 0x08, 0x18,
   0x08, 0x18, 0x18, 0x18, 0x00, 0x00, 0x00, 0x00, 0xff, 0x14, 0xf8, 0x00,
   0xfc, 0x0f, 0x00, 0x1f, 0xf8, 0x14, 0xf4, 0x0f, 0x14, 0x17, 0xf8, 0x14,
   0xff, 0xff, 0xff, 0xff, 0xff, 0xff, 0xff, 0xff, 0xff, 0xff, 0xff, 0xff,
   0x00, 0x00, 0x00, 0x00, 0x00, 0x14, 0x08, 0xfc, 0x04, 0x08, 0x1f, 0x10,
   0x08, 0xfc, 0x04, 0x08, 0x1f, 0x10, 0x08, 0xf4, 0x08, 0x18, 0x18, 0x0f,
   0xf8, 0x1f, 0xf8, 0xff, 0xff, 0x1f, 0xf8, 0xff, 0x00, 0x00, 0x00, 0x00,
   0xff, 0x14, 0xf8, 0x14, 0xf4, 0x0f, 0x14, 0x17, 0xf8, 0x00, 0xfc, 0x0f,
   0x00, 0x1f, 0xf8, 0x14, 0x08, 0x18, 0x18, 0x08, 0x08, 0x18, 0x18, 0x08,
   0x18, 0x18, 0x18, 0x18, 0x00, 0x00, 0x00, 0x00, 0x00, 0x14, 0x08, 0x14,
   0x14, 0x08, 0x14, 0x14, 0x00, 0x00, 0x00, 0x00, 0x00, 0x00, 0x08, 0x14,
   0x08, 0x18, 0x18, 0x08, 0x08, 0x18, 0x18, 0x08, 0x18, 0x18, 0x18, 0x18,
   0x00, 0x00, 0x00, 0x00, 0x00, 0x14, 0x08, 0x14, 0x14, 0x08, 0x14, 0x14,
   0x00, 0x00, 0x00, 0x00, 0x00, 0x00, 0x08, 0x14, 0x08, 0x18, 0x18, 0x08,
   0x08, 0x18, 0x18, 0x08, 0x18, 0x18, 0x18, 0x18, 0x00, 0x00, 0x00, 0x00,
   0x00, 0x14, 0x08, 0x14, 0x14, 0x08, 0x14, 0x14, 0x00, 0x00, 0x00, 0x00,
   0x00, 0x00, 0x08, 0x14, 0x08, 0x18, 0x18, 0x08, 0x08, 0x18, 0x18, 0x08,
   0x18, 0x18, 0x18, 0x18, 0x00, 0x00, 0x00, 0x00, 0x00, 0x14, 0x08, 0x14,
   0x14, 0x08, 0x14, 0x14, 0x00, 0x00, 0x00, 0x00, 0x00, 0x00, 0x08, 0x14,
   0x08, 0x18, 0x18, 0x08, 0x08, 0x18, 0x18, 0x08, 0x18, 0x18, 0x18, 0x18,
   0x00, 0x00, 0x00, 0x00, 0x00, 0x14, 0x08, 0x14, 0x14, 0x08, 0x14, 0x14,
   0x00, 0x00, 0x00, 0x00, 0x00, 0x00, 0x08, 0x14, 0x08, 0x18, 0x18, 0x08,
   0x08, 0x18, 0x18, 0x08, 0x18, 0x18, 0x18, 0x18, 0x00, 0x00, 0x00, 0x00,
   0x00, 0x14, 0x08, 0x14, 0x14, 0x08, 0x14, 0x14, 0x00, 0x00, 0x00, 0x00,
   0x00, 0x00, 0x08, 0x14, 0x08, 0x18, 0x18, 0x08, 0x08, 0x18, 0x18, 0x08,
   0x18, 0x18, 0x18, 0x18, 0x00, 0x00, 0x00, 0x00, 0x00, 0x14, 0x08, 0x14,
   0x14, 0x08, 0x14, 0x14, 0x00, 0x00, 0x00, 0x00, 0x00, 0x00, 0x08, 0x14,
   0x14, 0x08, 0x14, 0x14, 0x00, 0x00, 0x00, 0x08, 0x14, 0x14, 0x08, 0x14,
   0x14, 0x00, 0x00, 0x08, 0x08, 0x80, 0x01, 0x81, 0x00, 0x08, 0x00, 0x00,
   0x00, 0x18, 0x00, 0x00, 0x00, 0x08, 0x00, 0x18, 0x14, 0x08, 0x14, 0x14,
   0x00, 0x00, 0x00, 0x08, 0x14, 0x14, 0x08, 0x14, 0x14, 0x00, 0x00, 0x08,
   0x08, 0x80, 0x01, 0x81, 0x00, 0x08, 0x00, 0x00, 0x00, 0x18, 0x00, 0x00,
   0x00, 0x08, 0x00, 0x18, 0x14, 0x08, 0x14, 0x14, 0x00, 0x00, 0x00, 0x08,
   0x14, 0x14, 0x08, 0x14, 0x14, 0x00, 0x00, 0x08, 0x08, 0x40, 0x02, 0x42,
   0x00, 0x08, 0x00, 0x00, 0x00, 0x18, 0x00, 0x00, 0x00, 0x08, 0x00, 0x18,
   0x14, 0x08, 0x14, 0x14, 0x00, 0x00, 0x00, 0x08, 0x14, 0x14, 0x08, 0x14,
   0x14, 0x00, 0x00, 0x08, 0x08, 0x40, 0x02, 0x42, 0x00, 0x08, 0x00, 0x00,
   0x00, 0x18, 0x00, 0x00, 0x00, 0x08, 0x00, 0x18, 0x14, 0x08, 0x14, 0x14,
   0x00, 0x00, 0x00, 0x08, 0x14, 0x14, 0x08, 0x14, 0x14, 0x00, 0x00, 0x08,
   0x08, 0x20, 0x04, 0x24, 0x00, 0x08, 0x00, 0x00, 0x00, 0x18, 0x00, 0x00,
   0x00, 0x08, 0x00, 0x18, 0x14, 0x08, 0x14, 0x14, 0x00, 0x00, 0x00, 0x08,
   0x14, 0x14, 0x08, 0x14, 0x14, 0x00, 0x00, 0x08, 0x08, 0x20, 0x04, 0x24,
   0x00, 0x08, 0x00, 0x00, 0x00, 0x18, 0x00, 0x00, 0x00, 0x08, 0x00, 0x18,
   0xf4, 0x0f, 0x14, 0x17, 0xff, 0x00, 0xff, 0xff, 0x14, 0xf7, 0xff, 0x14,
   0xf7, 0x00, 0x00, 0x04, 0x10, 0x10, 0x08, 0x18, 0x00, 0x08, 0x00, 0x00,
   0x00, 0x18, 0x00, 0x00, 0x00, 0x08, 0x00, 0x18, 0x04, 0x08, 0x17, 0x10,
   0x00, 0xff, 0x00, 0x00, 0xff, 0x00, 0x08, 0xff, 0x00, 0xe0, 0x03, 0x03,
   0xe0, 0x10, 0x08, 0x18, 0x0f, 0x08, 0xf8, 0x08, 0x0f, 0x18, 0xf8, 0x18,
   0xff, 0x18, 0xff, 0x18, 0xf4, 0x0f, 0x14, 0x17, 0xff, 0x14, 0xf7, 0xff,
   0x00, 0xff, 0xff, 0x14, 0xf7, 0x10, 0x04, 0x00, 0x00, 0x08, 0x10, 0x18,
   0x00, 0x00, 0x00, 0x08, 0x0f, 0x00, 0xf8, 0x18, 0xf8, 0x18, 0x0f, 0x08,
   0x14, 0x08, 0x14, 0x14, 0x08, 0x14, 0x14, 0x00, 0x00, 0x00, 0x08, 0x14,
   0x14, 0x08, 0x08, 0x00, 0x00, 0x08, 0x10, 0x18, 0x00, 0x00, 0x00, 0x08,
   0x00, 0x00, 0x00, 0x18, 0x00, 0x18, 0x00, 0x08, 0x14, 0x08, 0x14, 0x14,
   0x08, 0x14, 0x14, 0x00, 0x00, 0x00, 0x08, 0x14, 0x14, 0x08, 0x08, 0x00,
   0x00, 0x04, 0x20, 0x24, 0x00, 0x00, 0x00, 0x08, 0x00, 0x00, 0x00, 0x18,
   0x00, 0x18, 0x00, 0x08, 0x14, 0x08, 0x14, 0x14, 0x08, 0x14, 0x14, 0x00,
   0x00, 0x00, 0x08, 0x14, 0x14, 0x08, 0x08, 0x00, 0x00, 0x04, 0x20, 0x24,
   0x00, 0x00, 0x00, 0x08, 0x00, 0x00, 0x00, 0x18, 0x00, 0x18, 0x00, 0x08,
   0x14, 0x08, 0x14, 0x14, 0x08, 0x14, 0x14, 0x00, 0x00, 0x00, 0x08, 0x14,
   0x14, 0x08, 0x08, 0x00, 0x00, 0x02, 0x40, 0x42, 0x00, 0x00, 0x00, 0x08,
   0x00, 0x00, 0x00, 0x18, 0x00, 0x18, 0x00, 0x08, 0x14, 0x08, 0x14, 0x14,
   0x08, 0x14, 0x14, 0x00, 0x00, 0x00, 0x08, 0x14, 0x14, 0x08, 0x08, 0x00,
   0x00, 0x02, 0x40, 0x42, 0x00, 0x00, 0x00, 0x08, 0x00, 0x00, 0x00, 0x18,
   0x00, 0x18, 0x00, 0x08, 0x14, 0x08, 0x14, 0x14, 0x08, 0x14, 0x14, 0x00,
   0x00, 0x00, 0x08, 0x14, 0x14, 0x08, 0x08, 0x00, 0x00, 0x01, 0x80, 0x81,
   0x00, 0x00, 0x00, 0x08, 0x00, 0x00, 0x00, 0x18, 0x00, 0x18, 0x00, 0x08,
   0x14, 0x08, 0x14, 0x14, 0x08, 0x14, 0x14, 0x00, 0x00, 0x00, 0x08, 0x14,
   0x14, 0x08, 0x08, 0x00, 0x00, 0x01, 0x80, 0x81, 0x00, 0x00, 0x00, 0x08,
   0x00, 0x00, 0x00, 0x18, 0x00, 0x18, 0x00, 0x08, 0xff, 0x00, 0x00, 0x00,
   0x00, 0x00, 0x00, 0x00, 0xff, 0x7f, 0x3f, 0x1f, 0x0f, 0x07, 0x03, 0x01,
   0xf0, 0x11, 0x55, 0x77, 0x00, 0x00, 0x00, 0x00, 0x0f, 0x0f, 0x0f, 0xff,
   0xff, 0xf0, 0xf0, 0xf0, 0xff, 0x00, 0x00, 0x00, 0x00, 0x00, 0x00, 0x00,
   0xff, 0x7f, 0x3f, 0x1f, 0x0f, 0x07, 0x03, 0x01, 0xf0, 0x44, 0xaa, 0xdd,
   0x00, 0x00, 0x00, 0x00, 0x0f, 0x0f, 0x0f, 0xff, 0xff, 0xf0, 0xf0, 0xf0,
   0xff, 0x00, 0x00, 0x00, 0x00, 0x00, 0x00, 0xff, 0xff, 0x7f, 0x3f, 0x1f,
   0x0f, 0x07, 0x03, 0x01, 0xf0, 0x11, 0x55, 0x77, 0x00, 0x00, 0x00, 0x00,
   0x0f, 0x0f, 0x0f, 0xff, 0xff, 0xf0, 0xf0, 0xf0, 0xff, 0x00, 0x00, 0x00,
   0x00, 0x00, 0x00, 0xff, 0xff, 0x7f, 0x3f, 0x1f, 0x0f, 0x07, 0x03, 0x01,
   0xf0, 0x44, 0xaa, 0xdd, 0x00, 0x00, 0x00, 0x00, 0x0f, 0x0f, 0x0f, 0xff,
   0xff, 0xf0, 0xf0, 0xf0, 0xff, 0x00, 0x00, 0x00, 0x00, 0x00, 0xff, 0xff,
   0xff, 0x7f, 0x3f, 0x1f, 0x0f, 0x07, 0x03, 0x01, 0xf0, 0x11, 0x55, 0x77,
   0x00, 0x00, 0x00, 0x00, 0x0f, 0x0f, 0x0f, 0xff, 0xff, 0xf0, 0xf0, 0xf0,
   0xff, 0x00, 0x00, 0x00, 0x00, 0x00, 0xff, 0xff, 0xff, 0x7f, 0x3f, 0x1f,
   0x0f, 0x07, 0x03, 0x01, 0xf0, 0x44, 0xaa, 0xdd, 0x00, 0x00, 0x00, 0x00,
   0x0f, 0x0f, 0x0f, 0xff, 0xff, 0xf0, 0xf0, 0xf0, 0xff, 0x00, 0x00, 0x00,
   0x00, 0xff, 0xff, 0xff, 0xff, 0x7f, 0x3f, 0x1f, 0x0f, 0x07, 0x03, 0x01,
   0xf0, 0x11, 0x55, 0x77, 0x00, 0x00, 0x00, 0x00, 0x0f, 0x0f, 0x0f, 0xff,
   0xff, 0xf0, 0xf0, 0xf0, 0xff, 0x00, 0x00, 0x00, 0x00, 0xff, 0xff, 0xff,
   0xff, 0x7f, 0x3f, 0x1f, 0x0f, 0x07, 0x03, 0x01, 0xf0, 0x44, 0xaa, 0xdd,
   0x00, 0x00, 0x00, 0x00, 0x0f, 0x0f, 0x0f, 0xff, 0xff, 0xf0, 0xf0, 0xf0,
   0x00, 0x00, 0x00, 0x00, 0xff, 0xff, 0xff, 0xff, 0xff, 0x7f, 0x3f, 0x1f,
   0x0f, 0x07, 0x03, 0x01, 0xf0, 0x11, 0x55, 0x77, 0x00, 0x00, 0x0f, 0xf0,
   0x00, 0xff, 0xf0, 0x0f, 0xf0, 0x00, 0x0f, 0xff, 0x00, 0x00, 0x00, 0x00,
   0xff, 0xff, 0xff, 0xff, 0xff, 0x7f, 0x3f, 0x1f, 0x0f, 0x07, 0x03, 0x01,
   0xf0, 0x44, 0xaa, 0xdd, 0x00, 0x00, 0x0f, 0xf0, 0x00, 0xff, 0xf0, 0x0f,
   0xf0, 0x00, 0x0f, 0xff, 0x00, 0x00, 0x00, 0xff, 0xff, 0xff, 0xff, 0xff,
   0xff, 0x7f, 0x3f, 0x1f, 0x0f, 0x07, 0x03, 0x01, 0xf0, 0x11, 0x55, 0x77,
   0x00, 0x00, 0x0f, 0xf0, 0x00, 0xff, 0xf0, 0x0f, 0xf0, 0x00, 0x0f, 0xff,
   0x00, 0x00, 0x00, 0xff, 0xff, 0xff, 0xff, 0xff, 0xff, 0x7f, 0x3f, 0x1f,
   0x0f, 0x07, 0x03, 0x01, 0xf0, 0x44, 0xaa, 0xdd, 0x00, 0x00, 0x0f, 0xf0,
   0x00, 0xff, 0xf0, 0x0f, 0xf0, 0x00, 0x0f, 0xff, 0x00, 0x00, 0xff, 0xff,
   0xff, 0xff, 0xff, 0xff, 0xff, 0x7f, 0x3f, 0x1f, 0x0f, 0x07, 0x03, 0x01,
   0xf0, 0x11, 0x55, 0x77, 0x00, 0x00, 0x0f, 0xf0, 0x00, 0xff, 0xf0, 0x0f,
   0xf0, 0x00, 0x0f, 0xff, 0x00, 0x00, 0xff, 0xff, 0xff, 0xff, 0xff, 0xff,
   0xff, 0x7f, 0x3f, 0x1f, 0x0f, 0x07, 0x03, 0x01, 0xf0, 0x44, 0xaa, 0xdd,
   0x00, 0x00, 0x0f, 0xf0, 0x00, 0xff, 0xf0, 0x0f, 0xf0, 0x00, 0x0f, 0xff,
   0x00, 0xff, 0xff, 0xff, 0xff, 0xff, 0xff, 0xff, 0xff, 0x7f, 0x3f, 0x1f,
   0x0f, 0x07, 0x03, 0x01, 0xf0, 0x11, 0x55, 0x77, 0x00, 0x00, 0x0f, 0xf0,
   0x00, 0xff, 0xf0, 0x0f, 0xf0, 0x00, 0x0f, 0xff, 0x00, 0xff, 0xff, 0xff,
   0xff, 0xff, 0xff, 0xff, 0xff, 0x7f, 0x3f, 0x1f, 0x0f, 0x07, 0x03, 0x01,
   0xf0, 0x44, 0xaa, 0xdd, 0x00, 0x00, 0x0f, 0xf0, 0x00, 0xff, 0xf0, 0x0f,
   0xf0, 0x00, 0x0f, 0xff, 0x00, 0x00, 0x00, 0x00, 0x00, 0x00, 0x00, 0x00,
   0x00, 0x00, 0x00, 0x00, 0x00, 0x00, 0x00, 0x00, 0x00, 0x00, 0x00, 0x00,
   0x00, 0x00, 0x00, 0x00, 0x00, 0x00, 0x00, 0x00, 0x00, 0x00, 0x00, 0x00,
   0x00, 0x00, 0x00, 0x00, 0x00, 0x00, 0x00, 0x00, 0x00, 0x00, 0x00, 0x00,
   0x00, 0x00, 0x00, 0x00, 0x00, 0x00, 0x00, 0x00, 0x00, 0x00, 0x00, 0x00,
   0x00, 0x00, 0x00, 0x00, 0x00, 0x00, 0x00, 0x00, 0x00, 0x00, 0x00, 0x00,
   0x00, 0x00, 0x00, 0x00, 0x00, 0x00, 0x00, 0x00, 0x00, 0x00, 0x7e, 0x7e,
   0x00, 0x00, 0x00, 0x00, 0x00, 0x00, 0x00, 0x00, 0x00, 0x00, 0x00, 0x00,
   0x00, 0x00, 0x00, 0x00, 0x00, 0x00, 0x00, 0x00, 0x00, 0x00, 0x00, 0x00,
   0x00, 0x00, 0x00, 0x00, 0x00, 0x00, 0x7e, 0x42, 0x00, 0x00, 0x00, 0x00,
   0x00, 0x00, 0x00, 0x00, 0x00, 0x00, 0x00, 0x00, 0x00, 0x00, 0x00, 0x00,
   0x00, 0x00, 0x00, 0x00, 0x00, 0x00, 0x00, 0x00, 0x00, 0x00, 0x00, 0x00,
   0x00, 0x00, 0x7e, 0x42, 0x00, 0x00, 0x08, 0x00, 0x00, 0x00, 0x03, 0x00,
   0x00, 0x00, 0x00, 0x00, 0x7f, 0x00, 0x00, 0x00, 0x3c, 0x00, 0x00, 0x00,
   0x00, 0x00, 0x00, 0x00, 0x00, 0x00, 0x00, 0x00, 0x00, 0x00, 0x7e, 0x42,
   0x00, 0x00, 0x08, 0x00, 0x00, 0x00, 0x0f, 0x00, 0x00, 0x00, 0x00, 0x00,
   0x7f, 0x00, 0x00, 0x00, 0x3c, 0x00, 0x00, 0x00, 0x00, 0x00, 0x00, 0x00,
   0x00, 0x00, 0x00, 0x00, 0x00, 0x00, 0x7e, 0x42, 0x00, 0x00, 0x1c, 0x00,
   0x00, 0x00, 0x3f, 0x00, 0x00, 0x00, 0x00, 0x00, 0x3e, 0x00, 0x00, 0x00,
   0x3c, 0x00, 0x00, 0x00, 0x00, 0x00, 0x00, 0x00, 0x00, 0x00, 0x00, 0x00,
   0x00, 0x00, 0x7e, 0x42, 0x00, 0x00, 0x1c, 0x00, 0x00, 0x00, 0xff, 0x00,
   0x00, 0x00, 0x00, 0x00, 0x3e, 0x00, 0x00, 0x00, 0x3c, 0x00, 0x00, 0x00,
   0x00, 0x00, 0x00, 0x00, 0x00, 0x00, 0x00, 0x00, 0x7e, 0x00, 0x7e, 0x42,
   0x00, 0x00, 0x3e, 0x00, 0x00, 0x00, 0x3f, 0x00, 0x00, 0x00, 0x00, 0x00,
   0x1c, 0x00, 0x00, 0x00, 0x3c, 0x00, 0x00, 0x00, 0x00, 0x00, 0x00, 0x00,
   0x00, 0x00, 0x00, 0x00, 0x7e, 0x00, 0x7e, 0x42, 0x00, 0x00, 0x3e, 0x00,
   0x00, 0x00, 0x0f, 0x00, 0x00, 0x00, 0x00, 0x00, 0x1c, 0x00, 0x00, 0x00,
   0x3c, 0x00, 0x00, 0x00, 0x00, 0x00, 0x00, 0x00, 0x00, 0x00, 0x00, 0x00,
   0x7e, 0x00, 0x7e, 0x42, 0x00, 0x00, 0x7f, 0x00, 0x00, 0x00, 0x03, 0x00,
   0x00, 0x00, 0x00, 0x00, 0x08, 0x00, 0x00, 0x00, 0x00, 0x00, 0x00, 0x00,
   0x00, 0x00, 0x00, 0x00, 0x00, 0x00, 0x00, 0x00, 0x7e, 0x00, 0x7e, 0x7e,
   0x00, 0x00, 0x7f, 0x00, 0x00, 0x00, 0x00, 0x00, 0x00, 0x00, 0x00, 0x00,
   0x08, 0x00, 0x00, 0x00, 0x00, 0x00, 0x00, 0x00, 0x00, 0x00, 0x00, 0x00,
   0x00, 0x00, 0x00, 0x00, 0x00, 0x00, 0x00, 0x00, 0x00, 0x00, 0x00, 0x00,
   0x00, 0x00, 0x00, 0x00, 0x00, 0x00, 0x00, 0x00, 0x00, 0x00, 0x00, 0x00,
   0x00, 0x00, 0x00, 0x00, 0x00, 0x00, 0x00, 0x00, 0x00, 0x00, 0x00, 0x00,
   0x00, 0x00, 0x00, 0x00, 0x00, 0x00, 0x00, 0x00, 0x00, 0x00, 0x00, 0x00,
   0x00, 0x00, 0x00, 0x00, 0x00, 0x00, 0x00, 0x00, 0x00, 0x00, 0x00, 0x00,
   0x00, 0x00, 0x00, 0x00, 0x00, 0x00, 0x00, 0x00, 0x00, 0x00, 0x00, 0x00,
   0x00, 0x00, 0x00, 0x00, 0x00, 0x00, 0x00, 0x00, 0x00, 0x00, 0x00, 0x00,
   0x00, 0x00, 0x00, 0x00, 0x00, 0x00, 0x00, 0x00, 0x00, 0x00, 0x00, 0x00,
   0x00, 0x00, 0x00, 0x00, 0x00, 0x00, 0x00, 0x00, 0x00, 0x00, 0x00, 0x00,
   0x00, 0x00, 0x00, 0x00, 0x00, 0x00, 0x00, 0x00, 0x00, 0x00, 0x00, 0x00,
   0x00, 0x00, 0x00, 0x00, 0x00, 0x00, 0x00, 0x00, 0x00, 0x00, 0x00, 0x00,
   0x00, 0x00, 0x00, 0x00, 0x00, 0x00, 0x00, 0x00, 0x00, 0x00, 0x00, 0x00,
   0xff, 0xff, 0x00, 0x00, 0x00, 0x00, 0x00, 0x00, 0x00, 0x00, 0x00, 0x00,
   0x00, 0x00, 0x00, 0x00, 0x00, 0x00, 0x00, 0x00, 0x00, 0x00, 0x00, 0x00,
   0x00, 0x00, 0x00, 0x00, 0x00, 0x00, 0x00, 0x00, 0xff, 0xff, 0x00, 0x00,
   0x00, 0x00, 0x00, 0x00, 0x00, 0x00, 0x00, 0x00, 0x00, 0x00, 0x00, 0x00,
   0x00, 0x00, 0x00, 0x00, 0x00, 0x00, 0x00, 0x00, 0x00, 0x00, 0x00, 0x00,
   0x00, 0x00, 0x00, 0x00, 0xff, 0xff, 0x00, 0x00, 0x00, 0x00, 0x00, 0x00,
   0x00, 0x00, 0x00, 0x00, 0x00, 0x00, 0x00, 0x00, 0x00, 0x00, 0x00, 0x00,
   0x00, 0x00, 0x00, 0x00, 0x00, 0x00, 0x00, 0x00, 0x00, 0x00, 0x00, 0x00,
   0xff, 0xff, 0x00, 0x00, 0x00, 0x00, 0x00, 0x00, 0xc0, 0x00, 0x00, 0x00,
   0x00, 0x00, 0x08, 0x00, 0x00, 0x00, 0x08, 0x00, 0x00, 0x00, 0x00, 0x00,
   0x00, 0x00, 0x00, 0x00, 0x00, 0x00, 0x00, 0x00, 0xff, 0xff, 0x00, 0x00,
   0x00, 0x00, 0x00, 0x00, 0xf0, 0x00, 0x00, 0x00, 0x00, 0x00, 0x1c, 0x00,
   0x00, 0x00, 0x14, 0x00, 0x00, 0x00, 0x00, 0x00, 0x00, 0x00, 0x00, 0x00,
   0x00, 0x00, 0x00, 0x00, 0xff, 0xff, 0x00, 0x00, 0x00, 0x00, 0x00, 0x00,
   0xfc, 0x00, 0x00, 0x00, 0x00, 0x00, 0x3e, 0x00, 0x00, 0x00, 0x22, 0x18,
   0x00, 0x00, 0x00, 0x18, 0x00, 0x00, 0x00, 0x00, 0x00, 0x00, 0x00, 0x00,
   0xe7, 0xe7, 0x00, 0x00, 0x00, 0x00, 0x00, 0x00, 0xff, 0x00, 0x00, 0x00,
   0x00, 0x00, 0x7f, 0x00, 0x00, 0x00, 0x41, 0x24, 0x00, 0x00, 0x00, 0x3c,
   0x00, 0x00, 0x00, 0x00, 0x00, 0x00, 0x00, 0x00, 0xc3, 0xdb, 0x00, 0x00,
   0x00, 0x00, 0x00, 0x00, 0xfc, 0x00, 0x00, 0x00, 0x00, 0x00, 0x3e, 0x00,
   0x00, 0x00, 0x22, 0x24, 0x00, 0x00, 0x00, 0x3c, 0x00, 0x00, 0x00, 0x00,
   0x00, 0x00, 0x00, 0x00, 0xc3, 0xdb, 0x00, 0x00, 0x00, 0x00, 0x00, 0x00,
   0xf0, 0x00, 0x00, 0x00, 0x00, 0x00, 0x1c, 0x00, 0x00, 0x00, 0x14, 0x18,
   0x00, 0x00, 0x00, 0x18, 0x00, 0x00, 0x00, 0x00, 0x00, 0x00, 0x00, 0x00,
   0xe7, 0xe7, 0x00, 0x00, 0x00, 0x00, 0x00, 0x00, 0xc0, 0x00, 0x00, 0x00,
   0x00, 0x00, 0x08, 0x00, 0x00, 0x00, 0x08, 0x00, 0x00, 0x00, 0x00, 0x00,
   0x00, 0x00, 0x00, 0x00, 0x00, 0x00, 0x00, 0x00, 0xff, 0xff, 0x00, 0x00,
   0x00, 0x00, 0x00, 0x00, 0x00, 0x00, 0x00, 0x00, 0x00, 0x00, 0x00, 0x00,
   0x00, 0x00, 0x00, 0x00, 0x00, 0x00, 0x00, 0x00, 0x00, 0x00, 0x00, 0x00,
   0x00, 0x00, 0x00, 0x00, 0xff, 0xff, 0x00, 0x00, 0x00, 0x00, 0x00, 0x00,
   0x00, 0x00, 0x00, 0x00, 0x00, 0x00, 0x00, 0x00, 0x00, 0x00, 0x00, 0x00,
   0x00, 0x00, 0x00, 0x00, 0x00, 0x00, 0x00, 0x00, 0x00, 0x00, 0x00, 0x00,
   0xff, 0xff, 0x00, 0x00, 0x00, 0x00, 0x00, 0x00, 0x00, 0x00, 0x00, 0x00,
   0x00, 0x00, 0x00, 0x00, 0x00, 0x00, 0x00, 0x00, 0x00, 0x00, 0x00, 0x00,
   0x00, 0x00, 0x00, 0x00, 0x00, 0x00, 0x00, 0x00, 0xff, 0xff, 0x00, 0x00,
   0x00, 0x00, 0x00, 0x00, 0x00, 0x00, 0x00, 0x00, 0x00, 0x00, 0x00, 0x00,
   0x00, 0x00, 0x00, 0x00, 0x00, 0x00, 0x00, 0x00, 0x00, 0x00, 0x00, 0x00,
   0x00, 0x00, 0x00, 0x00, 0xff, 0xff, 0x00, 0x00, 0x00, 0x00, 0x00, 0x00,
   0x00, 0x00, 0x00, 0x00, 0x00, 0x00, 0x00, 0x00, 0x00, 0x00, 0x00, 0x00,
   0x00, 0x00, 0x00, 0x00, 0x00, 0x00, 0x00, 0x00, 0x00, 0x00, 0x00, 0x00,
   0xff, 0xff, 0x00, 0x00, 0x00, 0x00, 0x00, 0x00, 0x00, 0x00, 0x00, 0x00,
   0x00, 0x00, 0x00, 0x00, 0x00, 0x00, 0x00, 0x00, 0x00, 0x00, 0x00, 0x00,
   0x00, 0x00, 0x00, 0x00, 0x00, 0x00, 0x00, 0x00, 0x00, 0x00, 0x00, 0x00,
   0x00, 0x00, 0x00, 0x00, 0x00, 0x00, 0x00, 0x00, 0x00, 0x00, 0x00, 0x00,
   0x00, 0x00, 0x00, 0x00, 0x00, 0x00, 0x00, 0x00, 0x00, 0x00, 0x00, 0x00,
   0x00, 0x00, 0x00, 0x00, 0x00, 0x00, 0x00, 0x00, 0x00, 0x00, 0x00, 0x00,
   0x00, 0x00, 0x00, 0x00, 0x00, 0x00, 0x00, 0x00, 0x00, 0x00, 0x00, 0x00,
   0x00, 0x00, 0x00, 0x00, 0x00, 0x00, 0x00, 0x00, 0x00, 0x00, 0x00, 0x00,
   0x00, 0x00, 0x00, 0x00, 0x00, 0x00, 0x00, 0x00, 0x00, 0x00, 0x00, 0x00,
   0x00, 0x00, 0x00, 0x00, 0x00, 0x00, 0x00, 0x00, 0x00, 0x00, 0x00, 0x00,
   0x00, 0x00, 0x00, 0x00, 0x00, 0x00, 0x00, 0x00, 0x00, 0x00, 0x00, 0x00,
   0x00, 0x00, 0x00, 0x00, 0x00, 0x00, 0x00, 0x00, 0x00, 0x00, 0x00, 0x00,
   0x00, 0x00, 0x00, 0x00, 0x00, 0x00, 0x00, 0x00, 0x00, 0x00, 0x00, 0x00,
   0x00, 0x00, 0x00, 0x00, 0x00, 0x00, 0x00, 0x00, 0x00, 0x00, 0x00, 0x00,
   0x00, 0x00, 0x00, 0x00, 0x00, 0x00, 0x00, 0x00, 0x00, 0x00, 0x00, 0x00,
   0x00, 0x00, 0x00, 0x00, 0x00, 0x00, 0x00, 0x00, 0x00, 0x00, 0x00, 0x00,
   0x00, 0x00, 0x00, 0x00, 0x00, 0x00, 0x00, 0x00, 0x00, 0x00, 0x00, 0x00,
   0x00, 0x00, 0x00, 0x00, 0x00, 0x00, 0x00, 0x00, 0x00, 0x00, 0x00, 0x00,
   0x00, 0x00, 0x00, 0x00, 0x00, 0x00, 0x00, 0x00, 0x00, 0x00, 0x00, 0x00,
   0x00, 0x00, 0x00, 0x00, 0x00, 0x00, 0x00, 0x00, 0x00, 0x00, 0x00, 0x00,
   0x00, 0x00, 0x00, 0x00, 0x00, 0x00, 0x00, 0x00, 0x00, 0x00, 0x00, 0x00,
   0x00, 0x00, 0x00, 0x00, 0x00, 0x00, 0x00, 0x00, 0x00, 0x00, 0x00, 0x00,
   0x00, 0x00, 0x00, 0x00, 0x00, 0x00, 0x00, 0x00, 0x00, 0x00, 0x00, 0x00,
   0x00, 0x00, 0x00, 0x00, 0x00, 0x00, 0x00, 0x00, 0x00, 0x00, 0x00, 0x00,
   0x00, 0x00, 0x00, 0x00, 0x00, 0x00, 0x00, 0x00, 0x00, 0x00, 0x00, 0x00,
   0x00, 0x00, 0x00, 0x00, 0x00, 0x00, 0x00, 0x00, 0x00, 0x00, 0x00, 0x00,
   0x00, 0x00, 0x00, 0x00, 0x00, 0x00, 0x00, 0x00, 0x00, 0x00, 0x00, 0x00,
   0x00, 0x00, 0x00, 0x00, 0x00, 0x00, 0x00, 0x00, 0x00, 0x00, 0x00, 0x00,
   0x00, 0x00, 0x00, 0x00, 0x00, 0x00, 0x00, 0x00, 0x00, 0x00, 0x00, 0x00,
   0x00, 0x00, 0x00, 0x00, 0x00, 0x00, 0x00, 0x00, 0x00, 0x00, 0x00, 0x00,
   0x00, 0x00, 0x00, 0x00, 0x00, 0x00, 0x00, 0x00, 0x00, 0x00, 0x00, 0x00,
   0x00, 0x00, 0x00, 0x00, 0x00, 0x00, 0x00, 0x00, 0x00, 0x00, 0x00, 0x00,
   0x00, 0x00, 0x00, 0x00, 0x00, 0x00, 0x00, 0x00, 0x00, 0x00, 0x00, 0x00,
   0x00, 0x00, 0x00, 0x00, 0x00, 0x00, 0x00, 0x00, 0x00, 0x00, 0x00, 0x00,
   0x00, 0x00, 0x00, 0x00, 0x00, 0x00, 0x00, 0x00, 0x00, 0x00, 0x00, 0x00,
   0x00, 0x00, 0x00, 0x00, 0x00, 0x00, 0x00, 0x00, 0x00, 0x00, 0x00, 0x00,
   0x00, 0x00, 0x00, 0x00, 0x00, 0x00, 0x00, 0x00, 0x00, 0x00, 0x00, 0x00,
   0x00, 0x00, 0x00, 0x00, 0x00, 0x00, 0x00, 0x00, 0x00, 0x00, 0x00, 0x00,
   0x00, 0x00, 0x00, 0x00, 0x00, 0x00, 0x00, 0x00, 0x00, 0x00, 0x00, 0x00,
   0x00, 0x00, 0x00, 0x00, 0x00, 0x00, 0x00, 0x00, 0x00, 0x00, 0x00, 0x00,
   0x00, 0x00, 0x00, 0x00, 0x00, 0x00, 0x00, 0x00, 0x00, 0x00, 0x00, 0x00,
   0x00, 0x00, 0x00, 0x00, 0x00, 0x00, 0x00, 0x00, 0x00, 0x00, 0x00, 0x00,
   0x00, 0x00, 0x00, 0x00, 0x00, 0x00, 0x00, 0x00, 0x00, 0x00, 0x00, 0x00,
   0x00, 0x00, 0x00, 0x00 };
