#define u000200_u0002FF_width 256
#define u000200_u0002FF_height 128
static unsigned char u000200_u0002FF_bits[] = {
   0x00, 0x00, 0x00, 0x00, 0x00, 0x00, 0x00, 0x00, 0x00, 0x00, 0x00, 0x00,
   0x00, 0x00, 0x00, 0x00, 0x00, 0x00, 0x00, 0x00, 0x00, 0x00, 0x00, 0x00,
   0x00, 0x00, 0x00, 0x00, 0x00, 0x00, 0x00, 0x00, 0x12, 0x00, 0x3c, 0x00,
   0x12, 0x00, 0x3c, 0x00, 0x24, 0x00, 0x38, 0x00, 0x12, 0x00, 0x38, 0x00,
   0x12, 0x00, 0x3c, 0x00, 0x12, 0x00, 0x3c, 0x00, 0x00, 0x00, 0x00, 0x00,
   0x00, 0x00, 0x24, 0x24, 0x24, 0x12, 0x42, 0x3c, 0x24, 0x12, 0x42, 0x3c,
   0x48, 0x12, 0x44, 0x38, 0x24, 0x12, 0x44, 0x3c, 0x24, 0x12, 0x42, 0x3c,
   0x24, 0x24, 0x42, 0x38, 0x3c, 0x00, 0x7f, 0x00, 0x3c, 0x00, 0x18, 0x18,
   0x00, 0x24, 0x00, 0x42, 0x00, 0x24, 0x00, 0x42, 0x00, 0x24, 0x00, 0x44,
   0x00, 0x24, 0x00, 0x42, 0x00, 0x24, 0x00, 0x42, 0x00, 0x48, 0x00, 0x44,
   0x42, 0x00, 0x08, 0x04, 0x42, 0x00, 0x42, 0x02, 0x18, 0x00, 0x18, 0x00,
   0x7e, 0x00, 0x7e, 0x00, 0x7c, 0x00, 0x7c, 0x00, 0x7c, 0x00, 0x7c, 0x00,
   0x3e, 0x00, 0x3e, 0x00, 0x42, 0x00, 0x42, 0x00, 0x02, 0x00, 0x08, 0x04,
   0x20, 0x3c, 0x42, 0x02, 0x24, 0x3c, 0x24, 0x3c, 0x02, 0x3c, 0x02, 0x3c,
   0x10, 0x18, 0x10, 0x18, 0x82, 0x3c, 0x82, 0x3c, 0x42, 0x3a, 0x42, 0x3a,
   0x42, 0x44, 0x42, 0x44, 0x02, 0x3c, 0x08, 0x3e, 0x10, 0x40, 0x42, 0x3a,
   0x42, 0x40, 0x42, 0x40, 0x02, 0x42, 0x02, 0x42, 0x10, 0x10, 0x10, 0x10,
   0x82, 0x42, 0x82, 0x42, 0x42, 0x44, 0x42, 0x44, 0x42, 0x44, 0x42, 0x44,
   0x1c, 0x42, 0x08, 0x04, 0x18, 0x20, 0x3e, 0x46, 0x42, 0x3e, 0x42, 0x3e,
   0x0e, 0x3e, 0x0e, 0x3e, 0x08, 0x10, 0x08, 0x10, 0x41, 0x42, 0x41, 0x42,
   0x3e, 0x04, 0x3e, 0x04, 0x21, 0x44, 0x21, 0x44, 0x20, 0x0c, 0x04, 0x02,
   0x24, 0x10, 0x21, 0x42, 0x3e, 0x21, 0x3f, 0x21, 0x01, 0x01, 0x01, 0x01,
   0x08, 0x08, 0x08, 0x08, 0x41, 0x21, 0x41, 0x21, 0x09, 0x02, 0x09, 0x02,
   0x21, 0x22, 0x21, 0x22, 0x20, 0x10, 0x04, 0x02, 0x20, 0x18, 0x21, 0x21,
   0x21, 0x31, 0x21, 0x31, 0x01, 0x21, 0x01, 0x21, 0x08, 0x08, 0x08, 0x08,
   0x41, 0x21, 0x41, 0x21, 0x11, 0x02, 0x11, 0x02, 0x21, 0x22, 0x21, 0x22,
   0x21, 0x21, 0x04, 0x22, 0x20, 0x20, 0x21, 0x21, 0x21, 0x2e, 0x21, 0x2e,
   0x3f, 0x1e, 0x3f, 0x1e, 0x3e, 0x3e, 0x3e, 0x3e, 0x3e, 0x1e, 0x3e, 0x1e,
   0x21, 0x02, 0x21, 0x02, 0x1e, 0x5c, 0x1e, 0x5c, 0x1e, 0x1e, 0x04, 0x1c,
   0x10, 0x20, 0x21, 0x21, 0x00, 0x00, 0x00, 0x00, 0x00, 0x00, 0x00, 0x00,
   0x00, 0x00, 0x00, 0x00, 0x00, 0x00, 0x00, 0x00, 0x00, 0x00, 0x00, 0x00,
   0x00, 0x00, 0x00, 0x00, 0x08, 0x08, 0x08, 0x08, 0x0e, 0x10, 0x00, 0x00,
   0x00, 0x00, 0x00, 0x00, 0x00, 0x00, 0x00, 0x00, 0x00, 0x00, 0x00, 0x00,
   0x00, 0x00, 0x00, 0x00, 0x00, 0x00, 0x00, 0x00, 0x00, 0x00, 0x00, 0x00,
   0x04, 0x04, 0x04, 0x04, 0x00, 0x0e, 0x00, 0x00, 0x00, 0x00, 0x00, 0x00,
   0x00, 0x00, 0x00, 0x00, 0x00, 0x00, 0x00, 0x00, 0x00, 0x00, 0x00, 0x00,
   0x00, 0x00, 0x00, 0x00, 0x00, 0x00, 0x00, 0x00, 0x00, 0x00, 0x00, 0x00,
   0x00, 0x00, 0x00, 0x00, 0x00, 0x00, 0x00, 0x00, 0x00, 0x00, 0x00, 0x00,
   0x00, 0x00, 0x00, 0x00, 0x00, 0x00, 0x00, 0x00, 0x00, 0x00, 0x00, 0x00,
   0x00, 0x00, 0x00, 0x00, 0x00, 0x00, 0x00, 0x00, 0x00, 0x00, 0x00, 0x00,
   0x00, 0x00, 0x00, 0x00, 0x00, 0x00, 0x00, 0x00, 0x00, 0x00, 0x00, 0x00,
   0x00, 0x00, 0x00, 0x00, 0x00, 0x00, 0x00, 0x00, 0x00, 0x00, 0x00, 0x00,
   0x00, 0x00, 0x00, 0x00, 0x00, 0x00, 0x00, 0x00, 0x00, 0x00, 0x00, 0x00,
   0x00, 0x00, 0x00, 0x00, 0x00, 0x00, 0x7c, 0x00, 0x7c, 0x7e, 0x10, 0x00,
   0x7c, 0x00, 0x00, 0x00, 0x00, 0x00, 0x00, 0x00, 0x00, 0x00, 0x00, 0x00,
   0x00, 0x00, 0x00, 0x00, 0x00, 0x00, 0x00, 0x00, 0x00, 0x00, 0x18, 0x00,
   0x00, 0x00, 0x00, 0x7e, 0x58, 0x00, 0x00, 0x00, 0x00, 0x7e, 0x3e, 0x00,
   0x00, 0x00, 0x00, 0x00, 0x00, 0x00, 0x00, 0x00, 0x00, 0x00, 0x00, 0x00,
   0x00, 0x00, 0x24, 0x28, 0x7e, 0x00, 0x00, 0x00, 0x7e, 0x00, 0x28, 0x00,
   0x34, 0x28, 0x7c, 0x00, 0x10, 0x00, 0x00, 0x00, 0x00, 0x00, 0x00, 0x00,
   0x00, 0x00, 0x00, 0x00, 0x00, 0x00, 0x00, 0x00, 0x00, 0x00, 0x42, 0x44,
   0x40, 0x00, 0x18, 0x18, 0x02, 0x00, 0x00, 0x24, 0x00, 0x14, 0x82, 0x18,
   0x00, 0x18, 0x41, 0x3c, 0x00, 0x00, 0x00, 0x00, 0x00, 0x00, 0x00, 0x00,
   0x00, 0x00, 0x00, 0x00, 0x00, 0x00, 0x42, 0x44, 0x20, 0x00, 0x24, 0x00,
   0x02, 0x00, 0x7c, 0x00, 0x7c, 0x00, 0x82, 0x00, 0x7c, 0x00, 0x22, 0x00,
   0x00, 0x00, 0x00, 0x00, 0x00, 0x00, 0x00, 0x00, 0x00, 0x00, 0x00, 0x00,
   0x00, 0x00, 0x42, 0x44, 0x10, 0x7e, 0x42, 0x3c, 0x02, 0x3c, 0x82, 0x3c,
   0x82, 0x3c, 0x82, 0x3c, 0x82, 0x3c, 0x14, 0x42, 0x00, 0x00, 0x00, 0x00,
   0x00, 0x00, 0x00, 0x00, 0x00, 0x00, 0x00, 0x00, 0x00, 0x00, 0x3e, 0x3c,
   0x08, 0x20, 0x42, 0x40, 0x1e, 0x42, 0x82, 0x42, 0x82, 0x42, 0x82, 0x42,
   0x82, 0x42, 0x08, 0x42, 0x00, 0x00, 0x00, 0x00, 0x00, 0x00, 0x00, 0x00,
   0x00, 0x00, 0x00, 0x00, 0x00, 0x00, 0x21, 0x22, 0x04, 0x18, 0x3e, 0x3e,
   0x01, 0x3e, 0x41, 0x42, 0x41, 0x42, 0x41, 0x42, 0x41, 0x42, 0x08, 0x21,
   0x00, 0x00, 0x00, 0x00, 0x00, 0x00, 0x00, 0x00, 0x00, 0x00, 0x00, 0x00,
   0x00, 0x00, 0x21, 0x22, 0x02, 0x04, 0x21, 0x21, 0x01, 0x01, 0x41, 0x21,
   0x41, 0x21, 0x41, 0x21, 0x41, 0x21, 0x04, 0x31, 0x00, 0x00, 0x00, 0x00,
   0x00, 0x00, 0x00, 0x00, 0x00, 0x00, 0x00, 0x00, 0x00, 0x00, 0x21, 0x22,
   0x01, 0x02, 0x21, 0x31, 0x01, 0x21, 0x41, 0x21, 0x41, 0x21, 0x41, 0x21,
   0x41, 0x21, 0x04, 0x2e, 0x00, 0x00, 0x00, 0x00, 0x00, 0x00, 0x00, 0x00,
   0x00, 0x00, 0x00, 0x00, 0x00, 0x00, 0x1e, 0x1c, 0x3f, 0x3f, 0x21, 0x2e,
   0x3f, 0x3e, 0x3e, 0x1e, 0x3e, 0x1e, 0x3e, 0x1e, 0x3e, 0x1e, 0x04, 0x20,
   0x00, 0x00, 0x00, 0x00, 0x00, 0x00, 0x00, 0x00, 0x00, 0x00, 0x00, 0x00,
   0x00, 0x00, 0x00, 0x00, 0x20, 0x20, 0x00, 0x00, 0x20, 0x20, 0x00, 0x00,
   0x00, 0x00, 0x00, 0x00, 0x00, 0x00, 0x00, 0x21, 0x00, 0x00, 0x00, 0x00,
   0x00, 0x00, 0x00, 0x00, 0x00, 0x00, 0x00, 0x00, 0x00, 0x00, 0x00, 0x00,
   0x18, 0x18, 0x00, 0x00, 0x18, 0x18, 0x00, 0x00, 0x00, 0x00, 0x00, 0x00,
   0x00, 0x00, 0x00, 0x1e, 0x00, 0x00, 0x00, 0x00, 0x00, 0x00, 0x00, 0x00,
   0x00, 0x00, 0x00, 0x00, 0x00, 0x00, 0x00, 0x00, 0x00, 0x00, 0x00, 0x00,
   0x00, 0x00, 0x00, 0x00, 0x00, 0x00, 0x00, 0x00, 0x00, 0x00, 0x00, 0x00,
   0x00, 0x00, 0x00, 0x00, 0x00, 0x00, 0x00, 0x00, 0x00, 0x00, 0x00, 0x00,
   0x00, 0x00, 0x00, 0x00, 0x00, 0x00, 0x00, 0x00, 0x00, 0x00, 0x00, 0x00,
   0x00, 0x00, 0x00, 0x00, 0x00, 0x00, 0x00, 0x00, 0x00, 0x00, 0x00, 0x00,
   0x00, 0x00, 0x00, 0x00, 0x00, 0x00, 0x00, 0x00, 0x00, 0x00, 0x00, 0x00,
   0x00, 0x00, 0x00, 0x00, 0x00, 0x00, 0x00, 0x00, 0x00, 0x00, 0x00, 0x00,
   0x00, 0x00, 0x00, 0x00, 0x00, 0x00, 0x00, 0x00, 0x00, 0x00, 0x00, 0x00,
   0x00, 0x00, 0x00, 0x00, 0x00, 0x00, 0x00, 0x00, 0x00, 0x00, 0x00, 0x00,
   0x00, 0x00, 0x00, 0x00, 0x00, 0x00, 0x00, 0x00, 0x00, 0x00, 0x00, 0x00,
   0x00, 0x00, 0x00, 0x00, 0x00, 0x00, 0x00, 0x00, 0x00, 0x00, 0x00, 0x00,
   0x00, 0x00, 0x00, 0x00, 0x00, 0x00, 0x00, 0x00, 0x00, 0x00, 0x00, 0x00,
   0x00, 0x00, 0x00, 0x00, 0x00, 0x00, 0x00, 0x1c, 0x00, 0x00, 0x00, 0x40,
   0x00, 0x00, 0x00, 0x00, 0x00, 0x00, 0x00, 0x00, 0x00, 0x00, 0x00, 0x00,
   0x00, 0x00, 0x00, 0x00, 0x00, 0x00, 0x00, 0x00, 0x00, 0x00, 0x00, 0x00,
   0x00, 0x00, 0x00, 0x22, 0x00, 0x00, 0x40, 0x20, 0x00, 0x00, 0x00, 0x00,
   0x00, 0x00, 0x00, 0x00, 0x00, 0x00, 0x00, 0x00, 0x00, 0x00, 0x00, 0x00,
   0x00, 0x00, 0x00, 0x00, 0x00, 0x00, 0x00, 0x00, 0x00, 0x00, 0x00, 0x02,
   0x00, 0x00, 0x40, 0x20, 0x00, 0x00, 0x00, 0x00, 0x00, 0x00, 0x00, 0x00,
   0x00, 0x00, 0x00, 0x00, 0x00, 0x00, 0x00, 0x00, 0x00, 0x00, 0x00, 0x00,
   0x00, 0x00, 0x00, 0x00, 0x00, 0x00, 0x00, 0x02, 0x00, 0x00, 0x40, 0x20,
   0x00, 0x00, 0x00, 0x00, 0x00, 0x00, 0x00, 0x00, 0x00, 0x00, 0x00, 0x00,
   0x00, 0x00, 0x00, 0x00, 0x00, 0x00, 0x00, 0x00, 0x00, 0x00, 0x00, 0x00,
   0x3a, 0x5c, 0x3a, 0x3a, 0x3c, 0x3c, 0x58, 0x2c, 0x3c, 0x3c, 0x1c, 0x3c,
   0x3c, 0x1c, 0x3c, 0x40, 0x00, 0x00, 0x00, 0x00, 0x00, 0x00, 0x00, 0x00,
   0x00, 0x00, 0x00, 0x00, 0x00, 0x00, 0x00, 0x00, 0x46, 0x62, 0x46, 0x46,
   0x42, 0x42, 0x64, 0x32, 0x42, 0x42, 0x22, 0x42, 0x42, 0x22, 0x42, 0x40,
   0x00, 0x00, 0x00, 0x00, 0x00, 0x00, 0x00, 0x00, 0x00, 0x00, 0x00, 0x00,
   0x00, 0x00, 0x00, 0x00, 0x42, 0x42, 0x42, 0x42, 0x40, 0x01, 0x44, 0x22,
   0x7e, 0x40, 0x20, 0x0e, 0x38, 0x58, 0x39, 0x20, 0x00, 0x00, 0x00, 0x00,
   0x00, 0x00, 0x00, 0x00, 0x00, 0x00, 0x00, 0x00, 0x00, 0x00, 0x00, 0x00,
   0x3e, 0x21, 0x21, 0x21, 0x20, 0x11, 0x22, 0x11, 0x20, 0x3f, 0x5f, 0x01,
   0x20, 0x10, 0x21, 0x7c, 0x00, 0x00, 0x00, 0x00, 0x00, 0x00, 0x00, 0x00,
   0x00, 0x00, 0x00, 0x00, 0x00, 0x00, 0x00, 0x00, 0x01, 0x31, 0x23, 0x23,
   0x21, 0x29, 0x32, 0x19, 0x21, 0x21, 0x51, 0x21, 0x21, 0x11, 0x21, 0x20,
   0x00, 0x00, 0x00, 0x00, 0x00, 0x00, 0x00, 0x00, 0x00, 0x00, 0x00, 0x00,
   0x00, 0x00, 0x00, 0x00, 0x1e, 0x2e, 0x1d, 0x1d, 0x1e, 0x1e, 0x2c, 0x16,
   0x1e, 0x1e, 0x0e, 0x1e, 0x1e, 0x0e, 0x1e, 0x20, 0x00, 0x00, 0x00, 0x00,
   0x00, 0x00, 0x00, 0x00, 0x00, 0x00, 0x00, 0x00, 0x00, 0x00, 0x00, 0x00,
   0x00, 0x00, 0x00, 0x00, 0x00, 0x04, 0x20, 0x00, 0x00, 0x00, 0x00, 0x00,
   0x00, 0x00, 0x00, 0x22, 0x00, 0x00, 0x00, 0x00, 0x00, 0x00, 0x00, 0x00,
   0x00, 0x00, 0x00, 0x00, 0x00, 0x00, 0x00, 0x00, 0x00, 0x00, 0x00, 0x00,
   0x00, 0x00, 0x40, 0x00, 0x00, 0x00, 0x00, 0x00, 0x00, 0x00, 0x00, 0x1c,
   0x00, 0x00, 0x00, 0x00, 0x00, 0x00, 0x00, 0x00, 0x00, 0x00, 0x00, 0x00,
   0x00, 0x00, 0x00, 0x00, 0x00, 0x00, 0x00, 0x00, 0x00, 0x00, 0x00, 0x00,
   0x00, 0x00, 0x00, 0x00, 0x00, 0x00, 0x00, 0x00, 0x00, 0x00, 0x00, 0x00,
   0x00, 0x00, 0x00, 0x00, 0x00, 0x00, 0x00, 0x00, 0x00, 0x00, 0x00, 0x00,
   0x00, 0x00, 0x00, 0x00, 0x00, 0x00, 0x00, 0x00, 0x00, 0x00, 0x00, 0x00,
   0x00, 0x00, 0x00, 0x00, 0x00, 0x00, 0x00, 0x00, 0x00, 0x00, 0x00, 0x00,
   0x00, 0x00, 0x00, 0x00, 0x00, 0x00, 0x00, 0x00, 0x00, 0x00, 0x00, 0x00,
   0x00, 0x00, 0x00, 0x00, 0x00, 0x00, 0x00, 0x00, 0x00, 0x00, 0x00, 0x00,
   0x00, 0x00, 0x00, 0x00, 0x00, 0x00, 0x00, 0x00, 0x00, 0x00, 0x00, 0x00,
   0x00, 0x00, 0x00, 0x00, 0x00, 0x00, 0x00, 0x00, 0x00, 0x00, 0x00, 0x00,
   0x00, 0x00, 0x00, 0x00, 0x00, 0x00, 0x00, 0x00, 0x00, 0x00, 0x00, 0x00,
   0x00, 0x00, 0x0c, 0x0c, 0x00, 0x00, 0x00, 0x00, 0x00, 0x00, 0x00, 0x00,
   0x00, 0x00, 0x00, 0x00, 0x00, 0x00, 0x00, 0x00, 0x00, 0x00, 0x00, 0x00,
   0x00, 0x00, 0x00, 0x00, 0x00, 0x00, 0x00, 0x00, 0x00, 0x00, 0x12, 0x12,
   0x00, 0x00, 0x00, 0x18, 0x18, 0x0c, 0x06, 0x00, 0x00, 0x00, 0x00, 0x00,
   0x00, 0x00, 0x00, 0x00, 0x00, 0x00, 0x40, 0x00, 0x00, 0x00, 0x00, 0x00,
   0x00, 0x00, 0x00, 0x00, 0x00, 0x00, 0x02, 0x02, 0x10, 0x00, 0x00, 0x10,
   0x10, 0x08, 0x04, 0x00, 0x00, 0x00, 0x00, 0x00, 0x00, 0x00, 0x00, 0x00,
   0x10, 0x00, 0x40, 0x00, 0x00, 0x00, 0x00, 0x00, 0x40, 0x00, 0x00, 0x00,
   0x00, 0x00, 0x02, 0x02, 0x00, 0x00, 0x00, 0x10, 0x10, 0x08, 0x04, 0x00,
   0x00, 0x00, 0x00, 0x00, 0x00, 0x00, 0x00, 0x00, 0x10, 0x00, 0x40, 0x00,
   0x00, 0x00, 0x00, 0x00, 0x2c, 0x5c, 0x3c, 0x22, 0x44, 0x42, 0x3a, 0x3a,
   0x18, 0x0c, 0x7c, 0x58, 0x18, 0x08, 0x7c, 0x82, 0x82, 0x6e, 0x68, 0x1a,
   0x42, 0x3c, 0x7c, 0x7c, 0x7c, 0x40, 0x40, 0x20, 0x3a, 0x3a, 0x38, 0x1c,
   0x32, 0x62, 0x42, 0x22, 0x2a, 0x42, 0x46, 0x46, 0x10, 0x08, 0x10, 0x34,
   0x14, 0x08, 0x44, 0x92, 0x92, 0x92, 0x98, 0x26, 0x46, 0x42, 0x12, 0x82,
   0x92, 0x40, 0x40, 0x20, 0x44, 0x44, 0x44, 0x22, 0x11, 0x42, 0x01, 0x12,
   0x18, 0x42, 0x42, 0x42, 0x3c, 0x08, 0x10, 0x08, 0x38, 0x04, 0x22, 0x92,
   0x92, 0x92, 0x88, 0x22, 0x4a, 0x3e, 0x32, 0x92, 0x92, 0x40, 0x20, 0x10,
   0x04, 0x04, 0x04, 0x20, 0x19, 0x31, 0x31, 0x0a, 0x08, 0x21, 0x21, 0x21,
   0x08, 0x04, 0x08, 0x08, 0x08, 0x04, 0x12, 0x49, 0x49, 0x49, 0x44, 0x11,
   0x29, 0x21, 0x09, 0x49, 0x49, 0x20, 0x20, 0x10, 0x02, 0x02, 0x02, 0x10,
   0x16, 0x2e, 0x21, 0x04, 0x14, 0x31, 0x21, 0x21, 0x08, 0x04, 0x08, 0x08,
   0x08, 0x04, 0x22, 0x49, 0x49, 0x49, 0x44, 0x11, 0x31, 0x21, 0x09, 0x49,
   0x49, 0x22, 0x22, 0x12, 0x02, 0x02, 0x02, 0x10, 0x10, 0x20, 0x1e, 0x0a,
   0x08, 0x2e, 0x21, 0x21, 0x3e, 0x18, 0x3e, 0x3e, 0x3e, 0x04, 0x27, 0x76,
   0x76, 0x41, 0x44, 0x11, 0x21, 0x1e, 0x3e, 0x36, 0x3e, 0x5c, 0x5c, 0x1c,
   0x02, 0x02, 0x02, 0x10, 0x11, 0x21, 0x00, 0x04, 0x00, 0x20, 0x00, 0x20,
   0x00, 0x00, 0x00, 0x00, 0x00, 0x04, 0x20, 0x00, 0x40, 0x40, 0x05, 0x50,
   0x00, 0x00, 0x00, 0x00, 0x08, 0x00, 0x00, 0x10, 0x02, 0x12, 0x00, 0x00,
   0x0e, 0x1e, 0x00, 0x00, 0x00, 0x20, 0x00, 0x18, 0x00, 0x00, 0x00, 0x00,
   0x00, 0x18, 0x1c, 0x00, 0x40, 0x30, 0x02, 0x20, 0x00, 0x00, 0x00, 0x00,
   0x08, 0x00, 0x00, 0x60, 0x02, 0x0c, 0x00, 0x00, 0x00, 0x00, 0x00, 0x00,
   0x00, 0x00, 0x00, 0x00, 0x00, 0x00, 0x00, 0x00, 0x00, 0x00, 0x00, 0x00,
   0x00, 0x00, 0x00, 0x00, 0x00, 0x00, 0x00, 0x00, 0x00, 0x00, 0x00, 0x00,
   0x00, 0x00, 0x00, 0x00, 0x00, 0x00, 0x00, 0x00, 0x00, 0x00, 0x00, 0x00,
   0x00, 0x00, 0x00, 0x00, 0x00, 0x00, 0x00, 0x00, 0x00, 0x00, 0x00, 0x00,
   0x00, 0x00, 0x00, 0x00, 0x00, 0x00, 0x00, 0x00, 0x00, 0x00, 0x00, 0x00,
   0x00, 0x00, 0x00, 0x00, 0x00, 0x00, 0x00, 0x00, 0x00, 0x00, 0x00, 0x00,
   0x00, 0x00, 0x00, 0x00, 0x00, 0x00, 0x00, 0x00, 0x00, 0x00, 0x00, 0x00,
   0x00, 0x00, 0x00, 0x00, 0x00, 0x00, 0x00, 0x00, 0x00, 0x00, 0x00, 0x00,
   0x00, 0x00, 0x00, 0x00, 0x00, 0x00, 0x00, 0x00, 0x00, 0x00, 0x00, 0x00,
   0x00, 0x00, 0x00, 0x00, 0x00, 0x00, 0x00, 0x00, 0x00, 0x00, 0x00, 0x00,
   0x00, 0x00, 0x00, 0x00, 0x00, 0x00, 0x00, 0x20, 0x20, 0x00, 0x00, 0x00,
   0x00, 0x00, 0x00, 0x00, 0x00, 0x00, 0x00, 0x00, 0x00, 0x00, 0x00, 0x00,
   0x00, 0x00, 0x00, 0x00, 0x00, 0x00, 0x00, 0x00, 0x00, 0x00, 0x00, 0x00,
   0x00, 0x00, 0x00, 0x50, 0x50, 0x08, 0x20, 0x00, 0x00, 0x00, 0x00, 0x00,
   0x00, 0x00, 0x20, 0x00, 0x00, 0x00, 0x00, 0x00, 0x38, 0x18, 0x10, 0x00,
   0x00, 0x00, 0x00, 0x00, 0x00, 0x00, 0x00, 0x00, 0x00, 0x00, 0x00, 0x10,
   0x10, 0x14, 0x50, 0x00, 0x04, 0x00, 0x00, 0x00, 0x00, 0x00, 0x50, 0x00,
   0x00, 0x00, 0x00, 0x00, 0x44, 0x24, 0x10, 0x00, 0x00, 0x00, 0x00, 0x00,
   0x00, 0x20, 0x00, 0x00, 0x00, 0x00, 0x00, 0x10, 0x10, 0x10, 0x10, 0x00,
   0x04, 0x00, 0x00, 0x00, 0x00, 0x00, 0x10, 0x00, 0x00, 0x00, 0x7e, 0x7e,
   0x40, 0x02, 0x08, 0x00, 0x00, 0x00, 0x38, 0x40, 0x00, 0x00, 0x00, 0x00,
   0x3e, 0x42, 0x3c, 0x10, 0x10, 0x10, 0x10, 0x1c, 0x3e, 0x44, 0x66, 0x22,
   0x10, 0x44, 0x08, 0x42, 0x7e, 0x7e, 0x40, 0x40, 0x20, 0x02, 0x08, 0x3c,
   0x3c, 0x3e, 0x44, 0x3c, 0x42, 0x30, 0x42, 0x04, 0x42, 0x22, 0x42, 0x10,
   0x10, 0x10, 0x10, 0x22, 0x04, 0x44, 0x24, 0x42, 0x28, 0xaa, 0x0c, 0x24,
   0x20, 0x20, 0x30, 0x30, 0x38, 0x0c, 0x18, 0x42, 0x42, 0x42, 0x44, 0x42,
   0x42, 0x20, 0x44, 0x04, 0x22, 0x1e, 0x04, 0x08, 0x3c, 0x08, 0x08, 0x20,
   0x04, 0x7f, 0x22, 0x42, 0x24, 0x92, 0x0a, 0x18, 0x18, 0x18, 0x08, 0x08,
   0x08, 0x08, 0x20, 0x02, 0x5a, 0x3e, 0x5c, 0x02, 0x3e, 0x20, 0x48, 0x04,
   0x1e, 0x21, 0x18, 0x08, 0x08, 0x08, 0x08, 0x10, 0x02, 0x22, 0x21, 0x21,
   0x22, 0x49, 0x0a, 0x10, 0x04, 0x24, 0x1c, 0x1c, 0x08, 0x08, 0x20, 0x01,
   0x2d, 0x21, 0x22, 0x31, 0x21, 0x70, 0x38, 0x02, 0x11, 0x21, 0x20, 0x08,
   0x08, 0x28, 0x1c, 0x10, 0x02, 0x22, 0x21, 0x11, 0x22, 0x41, 0x11, 0x08,
   0x02, 0x52, 0x20, 0x20, 0x04, 0x04, 0x12, 0x01, 0x21, 0x21, 0x22, 0x21,
   0x21, 0x18, 0x24, 0x02, 0x21, 0x1f, 0x1e, 0x0a, 0x0a, 0x10, 0x2a, 0x3c,
   0x02, 0x5c, 0x1e, 0x0e, 0x22, 0x41, 0x11, 0x08, 0x1f, 0x3f, 0x20, 0x3e,
   0x04, 0x04, 0x0c, 0x01, 0x1e, 0x1f, 0x1c, 0x1e, 0x21, 0x14, 0x22, 0x7e,
   0x00, 0x00, 0x01, 0x04, 0x04, 0x00, 0x0a, 0x10, 0x22, 0x00, 0x00, 0x00,
   0x00, 0x00, 0x00, 0x00, 0x10, 0x08, 0x21, 0x61, 0x00, 0x00, 0x00, 0x21,
   0x00, 0x00, 0x00, 0x00, 0x00, 0x12, 0x20, 0x00, 0x00, 0x00, 0x06, 0x00,
   0x00, 0x00, 0x04, 0x10, 0x1c, 0x00, 0x00, 0x00, 0x00, 0x00, 0x00, 0x00,
   0x60, 0x00, 0x1e, 0x1e, 0x00, 0x00, 0x00, 0x1e, 0x00, 0x00, 0x00, 0x00,
   0x00, 0x0c, 0x20, 0x00, 0x00, 0x00, 0x00, 0x00, 0x00, 0x00, 0x00, 0x00,
   0x00, 0x00, 0x00, 0x00, 0x00, 0x00, 0x00, 0x00, 0x00, 0x00, 0x00, 0x00,
   0x00, 0x00, 0x00, 0x00, 0x00, 0x00, 0x00, 0x00, 0x00, 0x00, 0x00, 0x00,
   0x00, 0x00, 0x00, 0x00, 0x00, 0x00, 0x00, 0x00, 0x00, 0x00, 0x00, 0x00,
   0x00, 0x00, 0x00, 0x00, 0x00, 0x00, 0x00, 0x00, 0x00, 0x00, 0x00, 0x00,
   0x00, 0x00, 0x00, 0x00, 0x00, 0x00, 0x00, 0x00, 0x00, 0x00, 0x00, 0x00,
   0x00, 0x00, 0x00, 0x00, 0x00, 0x00, 0x00, 0x00, 0x00, 0x00, 0x00, 0x00,
   0x00, 0x00, 0x00, 0x00, 0x00, 0x00, 0x00, 0x00, 0x00, 0x00, 0x00, 0x00,
   0x00, 0x00, 0x00, 0x00, 0x00, 0x00, 0x00, 0x00, 0x00, 0x00, 0x00, 0x00,
   0x00, 0x00, 0x00, 0x00, 0x00, 0x00, 0x00, 0x00, 0x00, 0x00, 0x00, 0x00,
   0x00, 0x00, 0x00, 0x00, 0x00, 0x00, 0x00, 0x00, 0x00, 0x00, 0x00, 0x00,
   0x00, 0x00, 0x00, 0x00, 0x00, 0x00, 0x00, 0x40, 0x00, 0x00, 0x00, 0x00,
   0x00, 0x00, 0x00, 0x00, 0x00, 0x18, 0x20, 0x00, 0x00, 0x00, 0x00, 0x00,
   0x00, 0x00, 0x00, 0x00, 0x00, 0x00, 0x08, 0x10, 0x40, 0x38, 0x18, 0x10,
   0x10, 0x10, 0x02, 0x22, 0x02, 0x38, 0x06, 0x06, 0x54, 0x00, 0x00, 0x00,
   0x04, 0x04, 0x00, 0x14, 0x20, 0x20, 0x24, 0x82, 0x22, 0x10, 0x28, 0x10,
   0x18, 0x18, 0x10, 0x08, 0x20, 0x44, 0x24, 0x10, 0x10, 0x10, 0x02, 0x22,
   0x02, 0x44, 0x04, 0x04, 0x54, 0x00, 0x00, 0x00, 0x14, 0x14, 0x20, 0x2c,
   0x20, 0x20, 0x14, 0x92, 0x14, 0x10, 0x28, 0x08, 0x10, 0x08, 0x10, 0x08,
   0x20, 0x40, 0x02, 0x10, 0x10, 0x10, 0x02, 0x22, 0x02, 0x04, 0x04, 0x04,
   0x28, 0x7e, 0x00, 0x00, 0x2c, 0x2c, 0x20, 0x04, 0x10, 0x10, 0x0c, 0x49,
   0x08, 0x08, 0x14, 0x18, 0x08, 0x10, 0x08, 0x10, 0x2c, 0x20, 0x02, 0xf4,
   0xd4, 0xd4, 0x4f, 0x2f, 0x6f, 0x04, 0x34, 0x7c, 0x28, 0x42, 0x00, 0x00,
   0x12, 0x12, 0x14, 0x02, 0x1a, 0x1a, 0x12, 0x36, 0x04, 0x00, 0x00, 0x00,
   0x00, 0x00, 0x00, 0x00, 0x32, 0x18, 0x0c, 0x9a, 0x9a, 0x9a, 0x22, 0x22,
   0x12, 0x5f, 0x4c, 0x44, 0x00, 0x00, 0x00, 0x00, 0x12, 0x12, 0x08, 0x02,
   0x14, 0x54, 0x0e, 0x00, 0x02, 0x00, 0x00, 0x00, 0x00, 0x00, 0x00, 0x00,
   0x22, 0x08, 0x08, 0x52, 0x52, 0x52, 0x22, 0x12, 0x09, 0xb4, 0x0a, 0x32,
   0x2a, 0x3f, 0x00, 0x00, 0x00, 0x00, 0x00, 0x00, 0x00, 0x20, 0x00, 0x00,
   0x00, 0x00, 0x00, 0x00, 0x00, 0x00, 0x00, 0x00, 0x19, 0x08, 0x08, 0x49,
   0x69, 0x49, 0x41, 0x11, 0x29, 0x92, 0x12, 0x0a, 0x2a, 0x21, 0x00, 0x00,
   0x00, 0x00, 0x00, 0x00, 0x00, 0x00, 0x00, 0x00, 0x00, 0x00, 0x00, 0x00,
   0x00, 0x00, 0x00, 0x00, 0x16, 0x1e, 0x1e, 0x2d, 0x8d, 0xad, 0x41, 0x11,
   0x59, 0x4a, 0x26, 0x06, 0x14, 0x00, 0x00, 0x00, 0x00, 0x00, 0x00, 0x00,
   0x00, 0x00, 0x00, 0x00, 0x00, 0x00, 0x00, 0x00, 0x00, 0x00, 0x00, 0x00,
   0x10, 0x04, 0x04, 0xea, 0x8a, 0xea, 0x36, 0x12, 0x36, 0x4a, 0x1f, 0x3f,
   0x14, 0x00, 0x00, 0x00, 0x00, 0x00, 0x00, 0x00, 0x00, 0x00, 0x00, 0x00,
   0x00, 0x00, 0x00, 0x00, 0x00, 0x00, 0x00, 0x00, 0x08, 0x04, 0x04, 0x00,
   0x60, 0x40, 0x00, 0x14, 0x10, 0x40, 0x00, 0x00, 0x00, 0x00, 0x00, 0x00,
   0x00, 0x00, 0x00, 0x00, 0x00, 0x00, 0x00, 0x00, 0x00, 0x00, 0x00, 0x00,
   0x00, 0x00, 0x00, 0x00, 0x08, 0x00, 0x00, 0x00, 0x00, 0x40, 0x00, 0x08,
   0x00, 0x30, 0x00, 0x00, 0x00, 0x00, 0x00, 0x00, 0x00, 0x00, 0x00, 0x00,
   0x00, 0x00, 0x00, 0x00, 0x00, 0x00, 0x00, 0x00, 0x00, 0x00, 0x00, 0x00,
   0x00, 0x00, 0x00, 0x00, 0x00, 0x00, 0x00, 0x00, 0x00, 0x00, 0x00, 0x00,
   0x00, 0x00, 0x00, 0x00, 0x00, 0x00, 0x00, 0x00, 0x00, 0x00, 0x00, 0x00,
   0x00, 0x00, 0x00, 0x00, 0x00, 0x00, 0x00, 0x00, 0x00, 0x00, 0x00, 0x00,
   0x00, 0x00, 0x00, 0x00, 0x00, 0x00, 0x00, 0x00, 0x00, 0x00, 0x00, 0x00,
   0x00, 0x00, 0x00, 0x00, 0x00, 0x00, 0x00, 0x00, 0x00, 0x00, 0x00, 0x00,
   0x00, 0x00, 0x00, 0x00, 0x00, 0x00, 0x00, 0x00, 0x00, 0x00, 0x00, 0x00,
   0x00, 0x00, 0x00, 0x00, 0x00, 0x00, 0x00, 0x00, 0x00, 0x00, 0x00, 0x00,
   0x00, 0x00, 0x00, 0x00, 0x00, 0x00, 0x00, 0x00, 0x00, 0x00, 0x00, 0x00,
   0x00, 0x00, 0x00, 0x00, 0x00, 0x00, 0x00, 0x00, 0x00, 0x00, 0x00, 0x00,
   0x00, 0x00, 0x00, 0x00, 0x00, 0x00, 0x00, 0x00, 0x00, 0x00, 0x00, 0x00,
   0x00, 0x00, 0x18, 0x00, 0x00, 0x00, 0x00, 0x00, 0x08, 0x08, 0x10, 0x04,
   0x08, 0x22, 0x18, 0x24, 0x00, 0x00, 0x00, 0x00, 0x00, 0x00, 0x00, 0x00,
   0x00, 0x00, 0x00, 0x00, 0x00, 0x00, 0x00, 0x00, 0x42, 0x00, 0x24, 0x00,
   0x28, 0x44, 0x00, 0x14, 0x14, 0x14, 0x08, 0x08, 0x14, 0x14, 0x24, 0x18,
   0x08, 0x3e, 0x10, 0x08, 0x00, 0x00, 0x00, 0x00, 0x00, 0x00, 0x00, 0x00,
   0x00, 0x00, 0x00, 0x00, 0x3c, 0x18, 0x18, 0x00, 0x14, 0x22, 0x00, 0x08,
   0x10, 0x04, 0x04, 0x10, 0x22, 0x08, 0x00, 0x00, 0x08, 0x00, 0x08, 0x10,
   0x00, 0x00, 0x00, 0x00, 0x00, 0x00, 0x00, 0x00, 0x00, 0x00, 0x00, 0x00,
   0x00, 0x00, 0x00, 0x00, 0x00, 0x00, 0x00, 0x14, 0x08, 0x08, 0x08, 0x08,
   0x00, 0x00, 0x00, 0x00, 0x08, 0x00, 0x00, 0x00, 0x00, 0x00, 0x00, 0x00,
   0x00, 0x00, 0x00, 0x00, 0x08, 0x00, 0x08, 0x00, 0x00, 0x00, 0x00, 0x00,
   0x00, 0x00, 0x00, 0x00, 0x08, 0x08, 0x10, 0x04, 0x00, 0x00, 0x00, 0x00,
   0x00, 0x00, 0x00, 0x00, 0x00, 0x00, 0x00, 0x00, 0x38, 0x1c, 0x08, 0x18,
   0x08, 0x00, 0x08, 0x44, 0x00, 0x00, 0x00, 0x00, 0x00, 0x00, 0x08, 0x00,
   0x00, 0x00, 0x00, 0x00, 0x00, 0x00, 0x00, 0x00, 0x00, 0x00, 0x00, 0x00,
   0x00, 0x00, 0x00, 0x00, 0x10, 0x08, 0x10, 0x04, 0x3e, 0x3e, 0x3e, 0x7c,
   0x00, 0x00, 0x00, 0x00, 0x00, 0x00, 0x4c, 0x00, 0x00, 0x00, 0x00, 0x00,
   0x00, 0x00, 0x00, 0x00, 0x00, 0x00, 0x00, 0x00, 0x00, 0x00, 0x00, 0x00,
   0x00, 0x00, 0x10, 0x04, 0x00, 0x08, 0x04, 0x22, 0x00, 0x00, 0x00, 0x00,
   0x00, 0x00, 0x32, 0x00, 0x00, 0x00, 0x00, 0x00, 0x00, 0x00, 0x00, 0x00,
   0x00, 0x00, 0x00, 0x00, 0x08, 0x00, 0x00, 0x00, 0x00, 0x00, 0x0c, 0x08,
   0x00, 0x08, 0x04, 0x00, 0x00, 0x00, 0x00, 0x00, 0x00, 0x00, 0x00, 0x00,
   0x00, 0x00, 0x00, 0x00, 0x00, 0x00, 0x00, 0x00, 0x00, 0x00, 0x00, 0x00,
   0x08, 0x00, 0x00, 0x00, 0x08, 0x00, 0x00, 0x00, 0x00, 0x00, 0x00, 0x00,
   0x00, 0x00, 0x00, 0x00, 0x00, 0x00, 0x00, 0x00, 0x00, 0x00, 0x00, 0x00,
   0x00, 0x00, 0x00, 0x00, 0x00, 0x00, 0x00, 0x00, 0x08, 0x00, 0x00, 0x00,
   0x1c, 0x00, 0x00, 0x00, 0x00, 0x00, 0x00, 0x00, 0x00, 0x00, 0x00, 0x00,
   0x00, 0x00, 0x00, 0x00, 0x00, 0x00, 0x00, 0x00, 0x00, 0x00, 0x00, 0x00,
   0x00, 0x00, 0x00, 0x00, 0x00, 0x00, 0x08, 0x10, 0x00, 0x00, 0x00, 0x00,
   0x00, 0x00, 0x00, 0x00, 0x00, 0x00, 0x00, 0x04, 0x00, 0x00, 0x00, 0x00,
   0x00, 0x00, 0x00, 0x00, 0x00, 0x00, 0x00, 0x00, 0x00, 0x00, 0x00, 0x00,
   0x00, 0x1c, 0x10, 0x08, 0x00, 0x00, 0x00, 0x00, 0x00, 0x00, 0x00, 0x00,
   0x00, 0x00, 0x00, 0x1c, 0x00, 0x00, 0x00, 0x00, 0x00, 0x00, 0x00, 0x00,
   0x00, 0x00, 0x00, 0x00, 0x00, 0x00, 0x00, 0x00, 0x00, 0x00, 0x00, 0x00,
   0x00, 0x00, 0x00, 0x00, 0x00, 0x00, 0x00, 0x00, 0x00, 0x00, 0x00, 0x00,
   0x00, 0x00, 0x00, 0x00, 0x00, 0x00, 0x00, 0x00, 0x00, 0x00, 0x00, 0x00,
   0x00, 0x00, 0x00, 0x00, 0x00, 0x00, 0x00, 0x00, 0x00, 0x00, 0x00, 0x00,
   0x00, 0x00, 0x00, 0x00, 0x00, 0x00, 0x00, 0x00, 0x00, 0x00, 0x00, 0x00,
   0x00, 0x00, 0x00, 0x00, 0x00, 0x00, 0x00, 0x00, 0x00, 0x00, 0x00, 0x00,
   0x00, 0x00, 0x00, 0x00, 0x00, 0x00, 0x00, 0x00, 0x00, 0x00, 0x00, 0x00,
   0x00, 0x00, 0x00, 0x00, 0x00, 0x00, 0x00, 0x00, 0x00, 0x00, 0x00, 0x00,
   0x00, 0x00, 0x00, 0x00, 0x00, 0x00, 0x00, 0x00, 0x00, 0x00, 0x00, 0x00,
   0x00, 0x00, 0x00, 0x00, 0x00, 0x00, 0x00, 0x00, 0x00, 0x00, 0x00, 0x00,
   0x00, 0x00, 0x00, 0x00, 0x00, 0x18, 0x00, 0x00, 0x00, 0x00, 0x00, 0x00,
   0x00, 0x00, 0x00, 0x00, 0x00, 0x00, 0x00, 0x00, 0x00, 0x00, 0x00, 0x00,
   0x00, 0x00, 0x00, 0x00, 0x00, 0x00, 0x00, 0x00, 0x00, 0x00, 0x00, 0x00,
   0x22, 0x10, 0x30, 0x24, 0x18, 0x3c, 0x20, 0x20, 0x20, 0x20, 0x00, 0x00,
   0x00, 0x7c, 0x66, 0x00, 0x00, 0x00, 0x00, 0x00, 0x00, 0x00, 0x00, 0x00,
   0x00, 0x00, 0x00, 0x00, 0x00, 0x00, 0x00, 0x00, 0x14, 0x08, 0x08, 0x18,
   0x24, 0x20, 0x20, 0x20, 0x20, 0x20, 0x00, 0x00, 0x00, 0x00, 0x44, 0x00,
   0x00, 0x00, 0x00, 0x00, 0x00, 0x00, 0x00, 0x00, 0x00, 0x00, 0x00, 0x00,
   0x00, 0x00, 0x00, 0x00, 0x08, 0x08, 0x18, 0x18, 0x02, 0x20, 0x3c, 0x20,
   0x20, 0x20, 0x00, 0x08, 0x00, 0x3e, 0x22, 0x00, 0x00, 0x00, 0x00, 0x00,
   0x00, 0x00, 0x00, 0x00, 0x00, 0x00, 0x00, 0x00, 0x00, 0x00, 0x00, 0x00,
   0x14, 0x1c, 0x10, 0x24, 0x0c, 0x20, 0x20, 0x20, 0x20, 0x20, 0x00, 0x08,
   0x00, 0x00, 0x00, 0x00, 0x00, 0x00, 0x00, 0x00, 0x00, 0x00, 0x00, 0x00,
   0x00, 0x00, 0x00, 0x00, 0x00, 0x00, 0x00, 0x00, 0x08, 0x00, 0x0c, 0x00,
   0x08, 0x20, 0x20, 0x20, 0x20, 0x20, 0x00, 0x08, 0x00, 0x00, 0x00, 0x00,
   0x00, 0x00, 0x00, 0x00, 0x00, 0x00, 0x00, 0x00, 0x00, 0x00, 0x00, 0x00,
   0x00, 0x00, 0x00, 0x00, 0x00, 0x00, 0x00, 0x00, 0x04, 0x10, 0x10, 0x1e,
   0x10, 0x10, 0x08, 0x38, 0x00, 0x00, 0x00, 0x00, 0x00, 0x00, 0x00, 0x00,
   0x00, 0x00, 0x00, 0x00, 0x00, 0x00, 0x00, 0x00, 0x00, 0x00, 0x00, 0x00,
   0x00, 0x00, 0x00, 0x00, 0x04, 0x10, 0x10, 0x10, 0x10, 0x10, 0x08, 0x04,
   0x00, 0x00, 0x00, 0x00, 0x00, 0x00, 0x00, 0x00, 0x00, 0x00, 0x00, 0x00,
   0x00, 0x00, 0x00, 0x00, 0x00, 0x00, 0x00, 0x00, 0x00, 0x00, 0x00, 0x00,
   0x00, 0x10, 0x10, 0x10, 0x10, 0x10, 0x04, 0x04, 0x00, 0x00, 0x00, 0x00,
   0x00, 0x00, 0x00, 0x00, 0x00, 0x00, 0x00, 0x00, 0x00, 0x00, 0x00, 0x00,
   0x00, 0x00, 0x00, 0x00, 0x00, 0x00, 0x00, 0x00, 0x00, 0x10, 0x10, 0x10,
   0x1e, 0x10, 0x3c, 0x04, 0x22, 0x00, 0x00, 0x00, 0x00, 0x00, 0x00, 0x00,
   0x00, 0x00, 0x00, 0x00, 0x00, 0x00, 0x00, 0x00, 0x00, 0x00, 0x00, 0x00,
   0x00, 0x00, 0x00, 0x00, 0x00, 0x10, 0x10, 0x10, 0x10, 0x10, 0x00, 0x00,
   0x14, 0x00, 0x00, 0x00, 0x00, 0x00, 0x00, 0x00, 0x00, 0x00, 0x00, 0x00,
   0x00, 0x00, 0x00, 0x00, 0x00, 0x00, 0x00, 0x00, 0x00, 0x00, 0x00, 0x00,
   0x00, 0x10, 0x10, 0x10, 0x10, 0x1e, 0x00, 0x00, 0x08, 0x00, 0x00, 0x00,
   0x00, 0x00, 0x00, 0x00, 0x00, 0x00, 0x00, 0x00, 0x00, 0x00, 0x00, 0x00,
   0x00, 0x00, 0x00, 0x00, 0x00, 0x00, 0x00, 0x00, 0x00, 0x00, 0x00, 0x00,
   0x00, 0x00, 0x00, 0x00, 0x00, 0x00, 0x00, 0x00, 0x00, 0x00, 0x00, 0x00,
   0x00, 0x00, 0x00, 0x00, 0x00, 0x00, 0x00, 0x00, 0x00, 0x00, 0x00, 0x00,
   0x00, 0x00, 0x00, 0x00, 0x00, 0x00, 0x00, 0x00, 0x00, 0x00, 0x00, 0x00,
   0x00, 0x00, 0x00, 0x00, 0x00, 0x00, 0x00, 0x00, 0x00, 0x00, 0x00, 0x00,
   0x00, 0x00, 0x00, 0x00, 0x00, 0x00, 0x00, 0x00, 0x00, 0x00, 0x00, 0x00,
   0x00, 0x00, 0x00, 0x00, 0x00, 0x00, 0x00, 0x00, 0x00, 0x00, 0x00, 0x00,
   0x00, 0x00, 0x00, 0x00, 0x00, 0x00, 0x00, 0x00, 0x00, 0x00, 0x00, 0x00,
   0x00, 0x00, 0x00, 0x00 };
