#define u000100_u0001FF_width 256
#define u000100_u0001FF_height 128
static unsigned char u000100_u0001FF_bits[] = {
   0x00, 0x00, 0x00, 0x00, 0x00, 0x00, 0x00, 0x00, 0x00, 0x00, 0x00, 0x00,
   0x00, 0x00, 0x00, 0x00, 0x00, 0x00, 0x00, 0x00, 0x00, 0x00, 0x00, 0x00,
   0x00, 0x00, 0x00, 0x00, 0x00, 0x00, 0x00, 0x00, 0x7e, 0x00, 0x42, 0x00,
   0x00, 0x00, 0x10, 0x00, 0x18, 0x00, 0x18, 0x00, 0x24, 0x00, 0x24, 0x24,
   0x00, 0x00, 0x7e, 0x00, 0x42, 0x00, 0x18, 0x00, 0x00, 0x00, 0x24, 0x00,
   0x18, 0x00, 0x42, 0x00, 0x00, 0x00, 0x3c, 0x42, 0x18, 0x00, 0x08, 0x10,
   0x24, 0x18, 0x00, 0x00, 0x18, 0x24, 0x18, 0x18, 0x1e, 0x40, 0x00, 0x00,
   0x3c, 0x42, 0x00, 0x00, 0x7e, 0x00, 0x18, 0x24, 0x24, 0x18, 0x3c, 0x42,
   0x18, 0x7e, 0x00, 0x3c, 0x24, 0x00, 0x00, 0x08, 0x00, 0x24, 0x3c, 0x18,
   0x00, 0x18, 0x00, 0x40, 0x22, 0xf0, 0x7e, 0x7e, 0x00, 0x3c, 0x7e, 0x18,
   0x02, 0x00, 0x00, 0x18, 0x00, 0x24, 0x00, 0x3c, 0x24, 0x00, 0x18, 0x00,
   0x42, 0x00, 0x3c, 0x00, 0x3c, 0x00, 0x42, 0x00, 0x3c, 0x00, 0x1e, 0x40,
   0x42, 0x40, 0x02, 0x00, 0x7e, 0x00, 0x02, 0x00, 0x02, 0x00, 0x7e, 0x00,
   0x3c, 0x00, 0x3c, 0x00, 0x42, 0x3c, 0x24, 0x3c, 0x42, 0x3c, 0x42, 0x3c,
   0x42, 0x3c, 0x02, 0x3c, 0x42, 0x3c, 0x22, 0x5c, 0x42, 0x5c, 0x02, 0x3c,
   0x02, 0x3c, 0x02, 0x3c, 0x02, 0x3c, 0x02, 0x3c, 0x42, 0x5c, 0x42, 0x5c,
   0x42, 0x40, 0x42, 0x40, 0x42, 0x40, 0x02, 0x42, 0x02, 0x42, 0x02, 0x42,
   0x02, 0x42, 0x42, 0x62, 0x4f, 0x22, 0x1e, 0x42, 0x02, 0x42, 0x1e, 0x42,
   0x1e, 0x42, 0x02, 0x42, 0x02, 0x22, 0x02, 0x22, 0x3e, 0x3e, 0x42, 0x3e,
   0x3e, 0x3e, 0x01, 0x01, 0x01, 0x01, 0x01, 0x01, 0x01, 0x01, 0x42, 0x42,
   0x22, 0x21, 0x01, 0x3e, 0x0e, 0x3e, 0x01, 0x3e, 0x01, 0x3e, 0x0e, 0x3e,
   0x39, 0x11, 0x39, 0x11, 0x21, 0x21, 0x3e, 0x21, 0x21, 0x21, 0x01, 0x01,
   0x01, 0x01, 0x01, 0x01, 0x01, 0x01, 0x21, 0x21, 0x21, 0x21, 0x01, 0x01,
   0x01, 0x01, 0x01, 0x01, 0x01, 0x01, 0x01, 0x01, 0x21, 0x0e, 0x21, 0x0e,
   0x21, 0x31, 0x21, 0x31, 0x21, 0x31, 0x21, 0x21, 0x21, 0x21, 0x21, 0x21,
   0x21, 0x21, 0x11, 0x31, 0x11, 0x31, 0x01, 0x21, 0x01, 0x21, 0x01, 0x21,
   0x01, 0x21, 0x01, 0x21, 0x31, 0x01, 0x31, 0x01, 0x21, 0x2e, 0x21, 0x2e,
   0x21, 0x2e, 0x1e, 0x1e, 0x1e, 0x1e, 0x1e, 0x1e, 0x1e, 0x1e, 0x0f, 0x2e,
   0x0f, 0x2e, 0x3f, 0x1e, 0x3f, 0x1e, 0x3f, 0x1e, 0x3f, 0x1e, 0x3f, 0x1e,
   0x2e, 0x1e, 0x2e, 0x1e, 0x00, 0x00, 0x00, 0x00, 0x10, 0x10, 0x00, 0x00,
   0x00, 0x00, 0x00, 0x00, 0x00, 0x00, 0x00, 0x00, 0x00, 0x00, 0x00, 0x00,
   0x00, 0x00, 0x00, 0x00, 0x04, 0x04, 0x00, 0x00, 0x00, 0x21, 0x00, 0x21,
   0x00, 0x00, 0x00, 0x00, 0x60, 0x60, 0x00, 0x00, 0x00, 0x00, 0x00, 0x00,
   0x00, 0x00, 0x00, 0x00, 0x00, 0x00, 0x00, 0x00, 0x00, 0x00, 0x00, 0x00,
   0x1c, 0x1c, 0x00, 0x00, 0x00, 0x1e, 0x00, 0x1e, 0x00, 0x00, 0x00, 0x00,
   0x00, 0x00, 0x00, 0x00, 0x00, 0x00, 0x00, 0x00, 0x00, 0x00, 0x00, 0x00,
   0x00, 0x00, 0x00, 0x00, 0x00, 0x00, 0x00, 0x00, 0x00, 0x00, 0x00, 0x00,
   0x00, 0x00, 0x00, 0x00, 0x00, 0x00, 0x00, 0x00, 0x00, 0x00, 0x00, 0x00,
   0x00, 0x00, 0x00, 0x00, 0x00, 0x00, 0x00, 0x00, 0x00, 0x00, 0x00, 0x00,
   0x00, 0x00, 0x00, 0x00, 0x00, 0x00, 0x00, 0x00, 0x00, 0x00, 0x00, 0x00,
   0x00, 0x00, 0x00, 0x00, 0x00, 0x00, 0x00, 0x00, 0x00, 0x00, 0x00, 0x00,
   0x00, 0x00, 0x00, 0x00, 0x00, 0x00, 0x00, 0x00, 0x00, 0x00, 0x00, 0x00,
   0x00, 0x00, 0x00, 0x00, 0x00, 0x00, 0x00, 0x00, 0x00, 0x00, 0x00, 0x00,
   0x00, 0x00, 0x00, 0x00, 0x00, 0x00, 0x00, 0x00, 0x00, 0x00, 0x00, 0x00,
   0x00, 0x00, 0x00, 0x00, 0x00, 0x00, 0x00, 0x00, 0x00, 0x00, 0x20, 0x00,
   0x00, 0x24, 0x24, 0x00, 0x18, 0x00, 0x00, 0x10, 0x18, 0x30, 0x00, 0x00,
   0x4c, 0x00, 0x7c, 0x00, 0x44, 0x00, 0x00, 0x00, 0x10, 0x00, 0x00, 0x00,
   0x30, 0x00, 0x00, 0x00, 0x00, 0x20, 0x10, 0x00, 0x00, 0x18, 0x18, 0x00,
   0x00, 0x00, 0x3c, 0x08, 0x24, 0x48, 0x42, 0x04, 0x32, 0x4c, 0x00, 0x00,
   0x38, 0x44, 0x7c, 0x00, 0x00, 0x00, 0xee, 0x00, 0x48, 0x30, 0x84, 0x04,
   0x00, 0x10, 0x00, 0x04, 0x18, 0x00, 0x00, 0x04, 0x3c, 0x18, 0x42, 0x18,
   0x00, 0x02, 0x42, 0x1e, 0x00, 0x32, 0x7c, 0x7c, 0x00, 0x38, 0x10, 0x18,
   0x7c, 0x00, 0x84, 0x84, 0x00, 0x48, 0x44, 0x04, 0x00, 0x04, 0x18, 0x04,
   0x10, 0x04, 0x18, 0x04, 0x42, 0x00, 0x02, 0x00, 0x42, 0x02, 0xff, 0x04,
   0x3e, 0x00, 0x10, 0x00, 0x7c, 0x00, 0x10, 0x00, 0x10, 0x00, 0x84, 0x00,
   0x78, 0x00, 0x24, 0x04, 0x00, 0x04, 0x10, 0x04, 0x10, 0x04, 0x10, 0x04,
   0x02, 0x5c, 0x02, 0x5c, 0x42, 0x3a, 0x42, 0x3a, 0x08, 0x0c, 0x10, 0x18,
   0x10, 0x18, 0x10, 0x18, 0x10, 0x18, 0x84, 0xc6, 0x20, 0x30, 0x14, 0x44,
   0x42, 0x04, 0x10, 0x04, 0x10, 0x04, 0x10, 0x24, 0x02, 0x22, 0x02, 0x22,
   0x42, 0x46, 0x3e, 0x46, 0x08, 0x08, 0x10, 0x10, 0x10, 0x10, 0x10, 0x10,
   0x10, 0x10, 0x84, 0x84, 0x20, 0x20, 0x0c, 0x34, 0x32, 0x04, 0x10, 0x04,
   0x10, 0x04, 0x10, 0x24, 0x39, 0x11, 0x39, 0x11, 0x3e, 0x42, 0x21, 0x42,
   0x04, 0x08, 0x08, 0x10, 0x08, 0x10, 0x08, 0x10, 0x08, 0x10, 0x42, 0x84,
   0x10, 0x20, 0x0a, 0x0c, 0x0e, 0x02, 0x08, 0x02, 0x08, 0x02, 0x08, 0x02,
   0x21, 0x0e, 0x21, 0x0e, 0x21, 0x21, 0x21, 0x21, 0x04, 0x04, 0x08, 0x08,
   0x08, 0x08, 0x08, 0x08, 0x08, 0x08, 0x42, 0x42, 0x10, 0x10, 0x12, 0x12,
   0x11, 0x02, 0x08, 0x02, 0x08, 0x02, 0x08, 0x02, 0x31, 0x01, 0x31, 0x01,
   0x21, 0x21, 0x21, 0x21, 0x04, 0x04, 0x08, 0x08, 0x08, 0x08, 0x08, 0x08,
   0x08, 0x08, 0x4a, 0x42, 0x11, 0x10, 0x22, 0x22, 0x21, 0x02, 0x08, 0x02,
   0x08, 0x02, 0x08, 0x02, 0x2e, 0x1e, 0x2e, 0x1e, 0x21, 0x21, 0x21, 0x21,
   0x1f, 0x1f, 0x3e, 0x3e, 0x3e, 0x3e, 0x3e, 0x3e, 0x3e, 0x3e, 0x37, 0x4f,
   0x0e, 0x11, 0x42, 0x42, 0x21, 0x7e, 0x3e, 0x7e, 0x3e, 0x7e, 0x3e, 0x7e,
   0x00, 0x21, 0x08, 0x21, 0x00, 0x00, 0x00, 0x00, 0x00, 0x00, 0x00, 0x00,
   0x00, 0x00, 0x08, 0x08, 0x00, 0x00, 0x00, 0x48, 0x00, 0x11, 0x04, 0x04,
   0x00, 0x00, 0x00, 0x10, 0x08, 0x00, 0x00, 0x00, 0x00, 0x1e, 0x04, 0x1e,
   0x00, 0x00, 0x00, 0x00, 0x00, 0x00, 0x00, 0x00, 0x00, 0x00, 0x18, 0x18,
   0x00, 0x00, 0x00, 0x30, 0x00, 0x0e, 0x03, 0x03, 0x00, 0x00, 0x00, 0x08,
   0x04, 0x00, 0x00, 0x00, 0x00, 0x00, 0x00, 0x00, 0x00, 0x00, 0x00, 0x00,
   0x00, 0x00, 0x00, 0x00, 0x00, 0x00, 0x00, 0x00, 0x00, 0x00, 0x00, 0x00,
   0x00, 0x00, 0x00, 0x00, 0x00, 0x00, 0x00, 0x00, 0x00, 0x00, 0x00, 0x00,
   0x00, 0x00, 0x00, 0x00, 0x00, 0x00, 0x00, 0x00, 0x00, 0x00, 0x00, 0x00,
   0x00, 0x00, 0x00, 0x00, 0x00, 0x00, 0x00, 0x00, 0x00, 0x00, 0x00, 0x00,
   0x00, 0x00, 0x00, 0x00, 0x00, 0x00, 0x00, 0x00, 0x00, 0x00, 0x00, 0x00,
   0x00, 0x00, 0x00, 0x00, 0x00, 0x00, 0x00, 0x00, 0x00, 0x00, 0x00, 0x00,
   0x00, 0x00, 0x00, 0x00, 0x00, 0x00, 0x00, 0x00, 0x00, 0x00, 0x00, 0x00,
   0x00, 0x00, 0x00, 0x00, 0x00, 0x00, 0x00, 0x00, 0x00, 0x00, 0x00, 0x00,
   0x00, 0x00, 0x00, 0x00, 0x00, 0x00, 0x00, 0x00, 0x00, 0x00, 0x00, 0x00,
   0x00, 0x00, 0x00, 0x00, 0x00, 0x00, 0x00, 0x00, 0x00, 0x00, 0x00, 0x00,
   0x0c, 0x00, 0x18, 0x10, 0x00, 0x00, 0x00, 0x24, 0x00, 0x03, 0x00, 0x00,
   0x00, 0x00, 0x44, 0x00, 0x48, 0x00, 0x00, 0x00, 0x10, 0x00, 0x00, 0x00,
   0x24, 0x00, 0x10, 0x00, 0x18, 0x00, 0x00, 0x00, 0x08, 0x04, 0x10, 0x08,
   0x10, 0x42, 0x00, 0x18, 0x24, 0x02, 0x42, 0x00, 0x7c, 0x00, 0x38, 0x42,
   0x24, 0x48, 0xfc, 0x00, 0x08, 0x10, 0x3e, 0x00, 0x18, 0x24, 0x08, 0x10,
   0x24, 0x18, 0x3c, 0x00, 0x08, 0x04, 0x10, 0x42, 0x08, 0x42, 0x00, 0x42,
   0x18, 0x01, 0x42, 0x00, 0x00, 0x7e, 0x00, 0x3c, 0x00, 0x24, 0x12, 0x00,
   0x00, 0x08, 0x42, 0x00, 0x00, 0x18, 0x00, 0x08, 0x00, 0x24, 0x42, 0x00,
   0x08, 0x04, 0x10, 0x42, 0x00, 0x46, 0x00, 0x42, 0x00, 0x00, 0x46, 0x00,
   0x7c, 0x00, 0x7c, 0x00, 0x7c, 0x00, 0x12, 0x00, 0x3e, 0x00, 0x42, 0x00,
   0x3e, 0x00, 0x3c, 0x00, 0x3c, 0x00, 0x02, 0x00, 0x48, 0x04, 0x30, 0x46,
   0x3a, 0x4a, 0x3a, 0x46, 0x3a, 0x3a, 0x4a, 0x3a, 0x82, 0x3c, 0x82, 0x3c,
   0x82, 0x3c, 0x12, 0x6c, 0x42, 0x3a, 0x42, 0x3a, 0x42, 0x3a, 0x42, 0x3c,
   0x42, 0x3c, 0x02, 0x3c, 0x48, 0x0c, 0x0c, 0x4a, 0x46, 0x52, 0x46, 0x4a,
   0x46, 0x46, 0x52, 0x46, 0x82, 0x42, 0x82, 0x42, 0x82, 0x42, 0x72, 0x92,
   0x42, 0x44, 0x3e, 0x44, 0x42, 0x44, 0x02, 0x42, 0x02, 0x42, 0x1c, 0x42,
   0x04, 0x03, 0x08, 0x29, 0x42, 0x21, 0x42, 0x29, 0x42, 0x42, 0x21, 0x42,
   0x41, 0x42, 0x41, 0x42, 0x41, 0x42, 0x09, 0x79, 0x3e, 0x04, 0x05, 0x04,
   0x3e, 0x04, 0x1c, 0x0c, 0x1c, 0x0c, 0x20, 0x0c, 0x04, 0x02, 0x08, 0x31,
   0x21, 0x21, 0x21, 0x31, 0x21, 0x21, 0x21, 0x21, 0x41, 0x21, 0x41, 0x21,
   0x41, 0x21, 0x09, 0x09, 0x09, 0x02, 0x09, 0x02, 0x09, 0x02, 0x20, 0x10,
   0x20, 0x10, 0x20, 0x10, 0x04, 0x02, 0x08, 0x21, 0x21, 0x21, 0x21, 0x21,
   0x21, 0x21, 0x21, 0x21, 0x41, 0x21, 0x41, 0x21, 0x41, 0x21, 0x09, 0x49,
   0x11, 0x02, 0x11, 0x02, 0x11, 0x02, 0x21, 0x21, 0x21, 0x21, 0x21, 0x21,
   0x1f, 0x7e, 0x3e, 0x21, 0x21, 0x21, 0x21, 0x21, 0x21, 0x21, 0x21, 0x21,
   0x3e, 0x1e, 0x3e, 0x1e, 0x3e, 0x1e, 0x7e, 0x36, 0x21, 0x02, 0x21, 0x02,
   0x21, 0x02, 0x1e, 0x1e, 0x1e, 0x1e, 0x1e, 0x1e, 0x00, 0x00, 0x00, 0x00,
   0x00, 0x02, 0x02, 0x00, 0x00, 0x00, 0x10, 0x10, 0x00, 0x00, 0x00, 0x00,
   0x00, 0x00, 0x00, 0x00, 0x00, 0x00, 0x02, 0x04, 0x00, 0x00, 0x00, 0x00,
   0x00, 0x00, 0x08, 0x08, 0x00, 0x00, 0x00, 0x00, 0x00, 0x01, 0x01, 0x00,
   0x00, 0x00, 0x0c, 0x0c, 0x00, 0x00, 0x00, 0x00, 0x00, 0x00, 0x00, 0x00,
   0x00, 0x00, 0x01, 0x02, 0x00, 0x00, 0x00, 0x00, 0x00, 0x00, 0x04, 0x04,
   0x00, 0x00, 0x00, 0x00, 0x00, 0x00, 0x00, 0x00, 0x00, 0x00, 0x00, 0x00,
   0x00, 0x00, 0x00, 0x00, 0x00, 0x00, 0x00, 0x00, 0x00, 0x00, 0x00, 0x00,
   0x00, 0x00, 0x00, 0x00, 0x00, 0x00, 0x00, 0x00, 0x00, 0x00, 0x00, 0x00,
   0x00, 0x00, 0x00, 0x00, 0x00, 0x00, 0x00, 0x00, 0x00, 0x00, 0x00, 0x00,
   0x00, 0x00, 0x00, 0x00, 0x00, 0x00, 0x00, 0x00, 0x00, 0x00, 0x00, 0x00,
   0x00, 0x00, 0x00, 0x00, 0x00, 0x00, 0x00, 0x00, 0x00, 0x00, 0x00, 0x00,
   0x00, 0x00, 0x00, 0x00, 0x00, 0x00, 0x00, 0x00, 0x00, 0x00, 0x00, 0x00,
   0x00, 0x00, 0x00, 0x00, 0x00, 0x00, 0x00, 0x00, 0x00, 0x00, 0x00, 0x00,
   0x00, 0x00, 0x00, 0x00, 0x00, 0x00, 0x00, 0x00, 0x00, 0x00, 0x00, 0x00,
   0x00, 0x00, 0x00, 0x00, 0x00, 0x00, 0x00, 0x00, 0x00, 0x00, 0x00, 0x00,
   0x00, 0x00, 0x00, 0x00, 0x00, 0x00, 0x00, 0x00, 0x24, 0x00, 0x00, 0x00,
   0x14, 0x12, 0x00, 0x00, 0x4c, 0x00, 0x7e, 0x00, 0x42, 0x00, 0x18, 0x30,
   0x48, 0x00, 0x00, 0x00, 0x10, 0x00, 0x18, 0x00, 0x22, 0x10, 0x00, 0x18,
   0x00, 0x24, 0x00, 0x00, 0x18, 0x24, 0x7f, 0x00, 0x08, 0x0c, 0x7f, 0x00,
   0x32, 0x4c, 0x00, 0x00, 0x3c, 0x44, 0x24, 0x48, 0x24, 0x48, 0x42, 0x00,
   0x28, 0x10, 0x24, 0x18, 0x22, 0x08, 0x10, 0x00, 0x00, 0x18, 0x24, 0x18,
   0x00, 0x18, 0x08, 0x04, 0x00, 0x00, 0x08, 0x08, 0x00, 0x32, 0x42, 0x7c,
   0x00, 0x38, 0x18, 0x30, 0x00, 0x24, 0x42, 0x00, 0x00, 0x28, 0x00, 0x24,
   0x00, 0x00, 0x08, 0x7e, 0x18, 0x00, 0x18, 0x24, 0x3c, 0x00, 0x08, 0x04,
   0x7f, 0x04, 0x08, 0x7c, 0x42, 0x00, 0x42, 0x00, 0x42, 0x00, 0x42, 0x00,
   0x42, 0x00, 0x42, 0x00, 0x82, 0x00, 0x41, 0x00, 0x41, 0x7e, 0x00, 0x40,
   0x00, 0x7e, 0x00, 0x04, 0x42, 0x3c, 0x08, 0x3e, 0x08, 0x04, 0x3e, 0x08,
   0x42, 0x22, 0x42, 0x44, 0x42, 0x44, 0x42, 0x44, 0x42, 0x22, 0x42, 0x44,
   0x82, 0x82, 0x22, 0x42, 0x22, 0x20, 0x7e, 0x20, 0x7e, 0x20, 0x7e, 0x04,
   0x02, 0x42, 0x08, 0x04, 0x08, 0x3e, 0x08, 0x3e, 0x42, 0x22, 0x42, 0x44,
   0x42, 0x44, 0x42, 0x44, 0x42, 0x22, 0x42, 0x44, 0x92, 0x82, 0x14, 0x42,
   0x14, 0x10, 0x20, 0x18, 0x20, 0x10, 0x20, 0x06, 0x1c, 0x0c, 0x04, 0x02,
   0x04, 0x04, 0x04, 0x04, 0x21, 0x22, 0x21, 0x44, 0x21, 0x44, 0x21, 0x44,
   0x21, 0x22, 0x21, 0x44, 0x49, 0x49, 0x08, 0x21, 0x08, 0x0c, 0x18, 0x04,
   0x18, 0x0c, 0x18, 0x04, 0x20, 0x10, 0x04, 0x02, 0x04, 0x02, 0x04, 0x04,
   0x21, 0x11, 0x21, 0x22, 0x21, 0x22, 0x21, 0x22, 0x21, 0x11, 0x21, 0x22,
   0x49, 0x49, 0x08, 0x31, 0x08, 0x02, 0x04, 0x02, 0x04, 0x02, 0x04, 0x02,
   0x21, 0x21, 0x04, 0x22, 0x04, 0x22, 0x04, 0x44, 0x21, 0x11, 0x21, 0x22,
   0x21, 0x22, 0x21, 0x22, 0x21, 0x11, 0x21, 0x22, 0x55, 0x55, 0x04, 0x2e,
   0x04, 0x01, 0x02, 0x01, 0x02, 0x01, 0x02, 0x02, 0x1e, 0x1e, 0x04, 0x1c,
   0x04, 0x1c, 0x04, 0x38, 0x1e, 0x2e, 0x1e, 0x5c, 0x1e, 0x5c, 0x1e, 0x5c,
   0x1e, 0x2e, 0x1e, 0x5c, 0x22, 0x22, 0x04, 0x20, 0x04, 0x3f, 0x3f, 0x3f,
   0x3f, 0x3f, 0x3f, 0x02, 0x00, 0x00, 0x08, 0x08, 0x00, 0x00, 0x00, 0x00,
   0x00, 0x00, 0x00, 0x00, 0x00, 0x00, 0x00, 0x00, 0x00, 0x00, 0x08, 0x10,
   0x00, 0x00, 0x00, 0x21, 0x00, 0x00, 0x00, 0x00, 0x00, 0x00, 0x00, 0x00,
   0x00, 0x00, 0x04, 0x04, 0x00, 0x00, 0x00, 0x00, 0x00, 0x00, 0x00, 0x00,
   0x00, 0x00, 0x00, 0x00, 0x00, 0x00, 0x18, 0x30, 0x00, 0x00, 0x00, 0x1e,
   0x00, 0x00, 0x00, 0x00, 0x00, 0x00, 0x00, 0x00, 0x00, 0x00, 0x00, 0x00,
   0x00, 0x00, 0x00, 0x00, 0x00, 0x00, 0x00, 0x00, 0x00, 0x00, 0x00, 0x00,
   0x00, 0x00, 0x00, 0x00, 0x00, 0x00, 0x00, 0x00, 0x00, 0x00, 0x00, 0x00,
   0x00, 0x00, 0x00, 0x00, 0x00, 0x00, 0x00, 0x00, 0x00, 0x00, 0x00, 0x00,
   0x00, 0x00, 0x00, 0x00, 0x00, 0x00, 0x00, 0x00, 0x00, 0x00, 0x00, 0x00,
   0x00, 0x00, 0x00, 0x00, 0x00, 0x00, 0x00, 0x00, 0x00, 0x00, 0x00, 0x00,
   0x00, 0x00, 0x00, 0x00, 0x00, 0x00, 0x00, 0x00, 0x00, 0x00, 0x00, 0x00,
   0x00, 0x00, 0x00, 0x00, 0x00, 0x00, 0x00, 0x00, 0x00, 0x00, 0x00, 0x00,
   0x00, 0x00, 0x00, 0x00, 0x00, 0x00, 0x00, 0x00, 0x00, 0x00, 0x00, 0x00,
   0x00, 0x00, 0x00, 0x00, 0x00, 0x00, 0x00, 0x00, 0x00, 0x00, 0x00, 0x00,
   0x00, 0x00, 0x00, 0x00, 0x00, 0x00, 0x00, 0x00, 0x00, 0x00, 0x00, 0x00,
   0x00, 0x00, 0x00, 0x00, 0x00, 0x00, 0x00, 0x00, 0x00, 0x00, 0x00, 0x40,
   0x00, 0x00, 0x00, 0x00, 0x00, 0x00, 0x00, 0x00, 0x00, 0x00, 0x00, 0x40,
   0x00, 0x00, 0x00, 0x00, 0x00, 0x00, 0x00, 0x00, 0x00, 0x00, 0x00, 0x00,
   0x02, 0x3f, 0x7e, 0x3e, 0x04, 0x04, 0x3c, 0x3c, 0x00, 0x1e, 0x3e, 0x7c,
   0x3c, 0x00, 0x7e, 0x3c, 0x3c, 0xf8, 0x60, 0x7c, 0x41, 0x02, 0x0c, 0x7c,
   0x22, 0x18, 0x18, 0x4c, 0x92, 0x84, 0x00, 0x3c, 0x0f, 0x45, 0x04, 0x02,
   0x06, 0x06, 0x42, 0x22, 0x00, 0x22, 0x45, 0x40, 0x20, 0x00, 0x40, 0x42,
   0x42, 0x08, 0x90, 0x42, 0x41, 0x02, 0x08, 0x10, 0x52, 0x24, 0x10, 0x32,
   0x92, 0x84, 0x00, 0x42, 0x02, 0x44, 0x04, 0x02, 0x04, 0x04, 0x40, 0x02,
   0x00, 0x42, 0x44, 0x40, 0x20, 0x00, 0x40, 0x40, 0x02, 0x08, 0x10, 0x02,
   0x22, 0x02, 0x08, 0x10, 0x0a, 0x04, 0x10, 0x18, 0x92, 0x8c, 0x00, 0x42,
   0x3a, 0x44, 0x04, 0x3a, 0x34, 0x3c, 0x40, 0x02, 0x5c, 0x42, 0x44, 0x5c,
   0x28, 0x3c, 0x40, 0x40, 0x02, 0x08, 0x10, 0x02, 0x22, 0x4a, 0x08, 0x10,
   0x06, 0x44, 0x38, 0x14, 0x92, 0x94, 0x3a, 0x42, 0x46, 0x3c, 0x3c, 0x46,
   0x4c, 0x44, 0x40, 0x02, 0x22, 0x4f, 0x44, 0x22, 0x14, 0x42, 0x38, 0x40,
   0x1c, 0x78, 0x78, 0x02, 0x14, 0x56, 0x08, 0x3c, 0x06, 0x34, 0x10, 0x18,
   0x92, 0xa4, 0x46, 0x3e, 0x42, 0x22, 0x42, 0x42, 0x44, 0x44, 0x20, 0x01,
   0x01, 0x22, 0x22, 0x21, 0x12, 0x42, 0x20, 0x3f, 0x02, 0x04, 0x10, 0x39,
   0x08, 0x52, 0x04, 0x08, 0x05, 0x0c, 0x08, 0x14, 0x49, 0x62, 0x42, 0x21,
   0x21, 0x22, 0x42, 0x21, 0x22, 0x22, 0x20, 0x01, 0x01, 0x21, 0x22, 0x21,
   0x12, 0x21, 0x20, 0x21, 0x01, 0x04, 0x08, 0x21, 0x04, 0x29, 0x04, 0x08,
   0x09, 0x12, 0x08, 0x14, 0x49, 0x42, 0x21, 0x21, 0x23, 0x22, 0x42, 0x23,
   0x26, 0x22, 0x21, 0x11, 0x11, 0x11, 0x22, 0x31, 0x1a, 0x12, 0x20, 0x21,
   0x21, 0x04, 0x08, 0x31, 0x0a, 0x29, 0x04, 0x08, 0x11, 0x22, 0x08, 0x52,
   0x49, 0x42, 0x21, 0x21, 0x1d, 0x1e, 0x3f, 0x1d, 0x1a, 0x1c, 0x1e, 0x0e,
   0x0e, 0x0f, 0x1e, 0x2e, 0x14, 0x0c, 0x3f, 0x1e, 0x1e, 0x05, 0x08, 0x2e,
   0x0a, 0x11, 0x18, 0x3e, 0x21, 0x42, 0x3e, 0x22, 0x76, 0x42, 0x21, 0x1e,
   0x00, 0x00, 0x00, 0x00, 0x00, 0x00, 0x00, 0x00, 0x00, 0x00, 0x00, 0x00,
   0x00, 0x10, 0x00, 0x00, 0x00, 0x02, 0x09, 0x00, 0x04, 0x00, 0x00, 0x00,
   0x00, 0x00, 0x00, 0x00, 0x00, 0x02, 0x20, 0x00, 0x00, 0x00, 0x00, 0x00,
   0x00, 0x00, 0x00, 0x00, 0x00, 0x00, 0x00, 0x00, 0x00, 0x0e, 0x00, 0x00,
   0x00, 0x00, 0x06, 0x00, 0x00, 0x00, 0x00, 0x00, 0x00, 0x00, 0x00, 0x00,
   0x00, 0x01, 0x20, 0x00, 0x00, 0x00, 0x00, 0x00, 0x00, 0x00, 0x00, 0x00,
   0x00, 0x00, 0x00, 0x00, 0x00, 0x00, 0x00, 0x00, 0x00, 0x00, 0x00, 0x00,
   0x00, 0x00, 0x00, 0x00, 0x00, 0x00, 0x00, 0x00, 0x00, 0x00, 0x00, 0x00,
   0x00, 0x00, 0x00, 0x00, 0x00, 0x00, 0x00, 0x00, 0x00, 0x00, 0x00, 0x00,
   0x00, 0x00, 0x00, 0x00, 0x00, 0x00, 0x00, 0x00, 0x00, 0x00, 0x00, 0x00,
   0x00, 0x00, 0x00, 0x00, 0x00, 0x00, 0x00, 0x00, 0x00, 0x00, 0x00, 0x00,
   0x00, 0x00, 0x00, 0x00, 0x00, 0x00, 0x00, 0x00, 0x00, 0x00, 0x00, 0x00,
   0x00, 0x00, 0x00, 0x00, 0x00, 0x00, 0x00, 0x00, 0x00, 0x00, 0x00, 0x00,
   0x00, 0x00, 0x00, 0x00, 0x00, 0x00, 0x00, 0x00, 0x00, 0x00, 0x00, 0x00,
   0x00, 0x00, 0x00, 0x00, 0x00, 0x00, 0x00, 0x40, 0x00, 0x00, 0x00, 0x00,
   0x00, 0x00, 0x00, 0x00, 0x00, 0x00, 0x00, 0x00, 0x00, 0x00, 0x00, 0x00,
   0x80, 0x00, 0x00, 0x00, 0x00, 0x00, 0x00, 0x00, 0x00, 0x00, 0x00, 0x00,
   0x00, 0x38, 0x00, 0x40, 0x00, 0x00, 0x00, 0x00, 0x00, 0x00, 0x00, 0x00,
   0x00, 0x00, 0x00, 0x00, 0x00, 0x00, 0x00, 0x00, 0xbc, 0x00, 0x6c, 0x00,
   0x3e, 0x00, 0x02, 0x3c, 0x00, 0x7e, 0x0c, 0x00, 0x7e, 0x44, 0x7f, 0x22,
   0x00, 0x24, 0x12, 0x43, 0x40, 0x7e, 0x00, 0x7e, 0x7e, 0x00, 0x7e, 0x3c,
   0x7e, 0x00, 0x10, 0x00, 0x42, 0x00, 0x52, 0x00, 0x45, 0x18, 0x02, 0x42,
   0x00, 0x04, 0x12, 0x04, 0x09, 0x04, 0x08, 0x22, 0x40, 0x24, 0x22, 0x44,
   0x20, 0x40, 0x00, 0x40, 0x02, 0x00, 0x40, 0x42, 0x42, 0x00, 0x10, 0x00,
   0x42, 0x80, 0x52, 0x00, 0x45, 0x04, 0x3e, 0x40, 0x00, 0x08, 0x12, 0x04,
   0x09, 0x04, 0x08, 0x22, 0x40, 0x24, 0x22, 0x28, 0x20, 0x20, 0x00, 0x20,
   0x04, 0x7e, 0x20, 0x42, 0x1e, 0x00, 0x7c, 0x00, 0x42, 0xbc, 0x52, 0x6c,
   0x44, 0x34, 0x42, 0x20, 0x3c, 0x10, 0x1c, 0x3e, 0x08, 0x3e, 0x08, 0x22,
   0x22, 0x42, 0x42, 0x28, 0x22, 0x10, 0x7e, 0x10, 0x08, 0x02, 0x10, 0x20,
   0x20, 0x3c, 0x08, 0x34, 0x42, 0x42, 0x52, 0x52, 0x3c, 0x4c, 0x42, 0x1c,
   0x42, 0x10, 0x10, 0x04, 0x08, 0x04, 0x08, 0x22, 0x22, 0x42, 0x42, 0x10,
   0x22, 0x3e, 0x20, 0x38, 0x1e, 0x04, 0x38, 0x10, 0x40, 0x04, 0x08, 0x4c,
   0x21, 0x42, 0x29, 0x52, 0x02, 0x44, 0x3e, 0x02, 0x38, 0x08, 0x10, 0x02,
   0x04, 0x02, 0x04, 0x11, 0x22, 0x21, 0x21, 0x10, 0x11, 0x02, 0x3e, 0x20,
   0x01, 0x08, 0x20, 0x3f, 0x40, 0x1c, 0x08, 0x44, 0x21, 0x21, 0x29, 0x29,
   0x02, 0x22, 0x09, 0x01, 0x06, 0x04, 0x08, 0x02, 0x04, 0x02, 0x04, 0x11,
   0x11, 0x21, 0x21, 0x08, 0x19, 0x01, 0x04, 0x20, 0x01, 0x0e, 0x18, 0x02,
   0x20, 0x20, 0x10, 0x32, 0x21, 0x21, 0x29, 0x29, 0x02, 0x26, 0x11, 0x21,
   0x21, 0x02, 0x08, 0x12, 0x04, 0x22, 0x04, 0x11, 0x11, 0x12, 0x11, 0x08,
   0x16, 0x01, 0x02, 0x21, 0x21, 0x01, 0x06, 0x01, 0x21, 0x12, 0x11, 0x0a,
   0x1e, 0x1e, 0x26, 0x26, 0x02, 0x1a, 0x11, 0x1e, 0x1e, 0x3f, 0x08, 0x2c,
   0x04, 0x1c, 0x04, 0x0e, 0x2e, 0x0c, 0x0e, 0x08, 0x10, 0x3f, 0x3f, 0x1e,
   0x1e, 0x01, 0x21, 0x3f, 0x1e, 0x0e, 0x0e, 0x06, 0x00, 0x00, 0x20, 0x20,
   0x00, 0x02, 0x10, 0x00, 0x00, 0x00, 0x28, 0x20, 0x00, 0x00, 0x24, 0x00,
   0x00, 0x00, 0x00, 0x00, 0x11, 0x00, 0x00, 0x00, 0x00, 0x21, 0x1e, 0x00,
   0x00, 0x00, 0x00, 0x02, 0x00, 0x00, 0x00, 0x00, 0x00, 0x02, 0x20, 0x00,
   0x00, 0x00, 0x10, 0x18, 0x00, 0x00, 0x18, 0x00, 0x00, 0x00, 0x00, 0x00,
   0x0e, 0x00, 0x00, 0x00, 0x00, 0x1e, 0x00, 0x00, 0x00, 0x00, 0x00, 0x02,
   0x00, 0x00, 0x00, 0x00, 0x00, 0x00, 0x00, 0x00, 0x00, 0x00, 0x00, 0x00,
   0x00, 0x00, 0x00, 0x00, 0x00, 0x00, 0x00, 0x00, 0x00, 0x00, 0x00, 0x00,
   0x00, 0x00, 0x00, 0x00, 0x00, 0x00, 0x00, 0x00, 0x00, 0x00, 0x00, 0x00,
   0x00, 0x00, 0x00, 0x00, 0x00, 0x00, 0x00, 0x00, 0x00, 0x00, 0x00, 0x00,
   0x00, 0x00, 0x00, 0x00, 0x00, 0x00, 0x00, 0x00, 0x00, 0x00, 0x00, 0x00,
   0x00, 0x00, 0x00, 0x00, 0x00, 0x00, 0x00, 0x00, 0x00, 0x00, 0x00, 0x00,
   0x00, 0x00, 0x00, 0x00, 0x00, 0x00, 0x00, 0x00, 0x00, 0x00, 0x00, 0x00,
   0x00, 0x00, 0x00, 0x00, 0x00, 0x00, 0x00, 0x00, 0x00, 0x00, 0x00, 0x00,
   0x00, 0x00, 0x00, 0x00, 0xa0, 0x00, 0x00, 0x00, 0x00, 0x00, 0x00, 0x00,
   0x00, 0x00, 0x00, 0x00, 0x00, 0x00, 0x00, 0x00, 0x00, 0x3c, 0x00, 0x20,
   0x00, 0x28, 0x00, 0x08, 0x00, 0x00, 0x3c, 0x00, 0x00, 0x00, 0x00, 0x00,
   0x40, 0x00, 0x00, 0x00, 0x00, 0x00, 0x00, 0x00, 0x00, 0x24, 0x00, 0x48,
   0x00, 0x48, 0x00, 0x24, 0x00, 0x00, 0x78, 0x10, 0x20, 0x10, 0x28, 0x10,
   0x08, 0x00, 0x00, 0x3c, 0x10, 0x28, 0x10, 0x10, 0x06, 0xa6, 0xa8, 0xe2,
   0x02, 0x02, 0xd2, 0x12, 0x00, 0x18, 0x24, 0x30, 0x24, 0x30, 0x24, 0x18,
   0x48, 0x24, 0x00, 0x44, 0x10, 0x44, 0x10, 0x44, 0x10, 0x00, 0x24, 0x00,
   0x10, 0x28, 0x10, 0x10, 0xea, 0x4a, 0x48, 0x82, 0x82, 0x82, 0x92, 0x12,
   0x00, 0x00, 0x18, 0x00, 0x18, 0x00, 0x18, 0x00, 0x30, 0x00, 0x48, 0x00,
   0x44, 0x00, 0x44, 0x00, 0x44, 0x00, 0x00, 0x24, 0x10, 0x28, 0x10, 0x10,
   0x8a, 0x0a, 0x08, 0x82, 0x02, 0x02, 0x96, 0x16, 0x00, 0x18, 0x00, 0x7c,
   0x00, 0x7c, 0x00, 0x42, 0x00, 0x42, 0x00, 0x42, 0x00, 0x42, 0x00, 0x42,
   0x00, 0x00, 0x18, 0x00, 0x10, 0x28, 0x7c, 0x10, 0x8a, 0xea, 0xec, 0x82,
   0xc2, 0xc2, 0x9a, 0x9a, 0x8e, 0x24, 0x3c, 0x10, 0x18, 0x82, 0x3c, 0x42,
   0x44, 0x42, 0x44, 0x42, 0x44, 0x42, 0x44, 0x42, 0x44, 0x3c, 0x24, 0x3c,
   0x10, 0x28, 0x10, 0x08, 0x4a, 0x8a, 0x8a, 0x82, 0x82, 0x82, 0x92, 0x12,
   0x12, 0x42, 0x40, 0x10, 0x10, 0x82, 0x42, 0x42, 0x44, 0x42, 0x44, 0x42,
   0x44, 0x42, 0x44, 0x42, 0x44, 0x42, 0x42, 0x40, 0x08, 0x14, 0x3e, 0x08,
   0x25, 0x65, 0x4a, 0x41, 0x81, 0x81, 0x49, 0x89, 0x92, 0x42, 0x3e, 0x08,
   0x10, 0x41, 0x42, 0x21, 0x44, 0x21, 0x44, 0x21, 0x44, 0x21, 0x44, 0x21,
   0x44, 0x40, 0x42, 0x3e, 0x08, 0x14, 0x08, 0x08, 0x15, 0x15, 0x25, 0x41,
   0x41, 0x41, 0x49, 0x89, 0x89, 0x3e, 0x21, 0x08, 0x08, 0x41, 0x21, 0x21,
   0x22, 0x21, 0x22, 0x21, 0x22, 0x21, 0x22, 0x21, 0x22, 0x3f, 0x3e, 0x21,
   0x08, 0x14, 0x08, 0x00, 0x15, 0x15, 0x15, 0x49, 0x41, 0x41, 0x59, 0x49,
   0x49, 0x21, 0x31, 0x08, 0x08, 0x41, 0x21, 0x21, 0x22, 0x21, 0x22, 0x21,
   0x22, 0x21, 0x22, 0x21, 0x22, 0x21, 0x21, 0x31, 0x08, 0x14, 0x08, 0x08,
   0x73, 0x73, 0x76, 0x37, 0x57, 0x56, 0x29, 0x49, 0x49, 0x21, 0x2e, 0x3e,
   0x3e, 0x3e, 0x1e, 0x1e, 0x5c, 0x1e, 0x5c, 0x1e, 0x5c, 0x1e, 0x5c, 0x1e,
   0x5c, 0x1e, 0x21, 0x2e, 0x00, 0x00, 0x00, 0x00, 0x00, 0x00, 0x00, 0x00,
   0x50, 0x50, 0x00, 0x50, 0x50, 0x00, 0x00, 0x00, 0x00, 0x00, 0x00, 0x00,
   0x00, 0x00, 0x00, 0x00, 0x00, 0x00, 0x00, 0x00, 0x00, 0x00, 0x00, 0x00,
   0x00, 0x00, 0x00, 0x00, 0x00, 0x00, 0x00, 0x00, 0x20, 0x20, 0x00, 0x20,
   0x20, 0x00, 0x00, 0x00, 0x00, 0x00, 0x00, 0x00, 0x00, 0x00, 0x00, 0x00,
   0x00, 0x00, 0x00, 0x00, 0x00, 0x00, 0x00, 0x00, 0x00, 0x00, 0x00, 0x00,
   0x00, 0x00, 0x00, 0x00, 0x00, 0x00, 0x00, 0x00, 0x00, 0x00, 0x00, 0x00,
   0x00, 0x00, 0x00, 0x00, 0x00, 0x00, 0x00, 0x00, 0x00, 0x00, 0x00, 0x00,
   0x00, 0x00, 0x00, 0x00, 0x00, 0x00, 0x00, 0x00, 0x00, 0x00, 0x00, 0x00,
   0x00, 0x00, 0x00, 0x00, 0x00, 0x00, 0x00, 0x00, 0x00, 0x00, 0x00, 0x00,
   0x00, 0x00, 0x00, 0x00, 0x00, 0x00, 0x00, 0x00, 0x00, 0x00, 0x00, 0x00,
   0x00, 0x00, 0x00, 0x00, 0x00, 0x00, 0x00, 0x00, 0x00, 0x00, 0x00, 0x00,
   0x00, 0x00, 0x00, 0x00, 0x00, 0x00, 0x00, 0x00, 0x00, 0x00, 0x00, 0x00,
   0x00, 0x00, 0x00, 0x00, 0x00, 0x00, 0x00, 0x00, 0x3c, 0x00, 0x00, 0x00,
   0x00, 0x00, 0x00, 0x00, 0x00, 0x00, 0x00, 0x00, 0x00, 0x00, 0x24, 0x00,
   0x00, 0x00, 0x00, 0x00, 0x00, 0x00, 0x00, 0x00, 0x08, 0x00, 0x10, 0x10,
   0x00, 0x00, 0x00, 0x00, 0x00, 0x3c, 0x00, 0x00, 0x00, 0x00, 0x24, 0x00,
   0x48, 0x48, 0x00, 0x00, 0x00, 0x00, 0x18, 0x24, 0x00, 0x00, 0x00, 0x00,
   0x10, 0x00, 0x00, 0x00, 0x10, 0x00, 0x08, 0x08, 0x20, 0x00, 0x10, 0x00,
   0x18, 0x00, 0x78, 0x00, 0x3c, 0x00, 0x18, 0x24, 0x30, 0x30, 0x3c, 0x00,
   0x3c, 0x00, 0x00, 0x18, 0x48, 0xe6, 0x06, 0x08, 0x08, 0x10, 0x12, 0x3a,
   0x42, 0x08, 0x00, 0x18, 0x10, 0x20, 0x08, 0x10, 0x00, 0x18, 0x00, 0x78,
   0x42, 0x00, 0x00, 0x18, 0x00, 0x04, 0x42, 0x00, 0x00, 0x3c, 0x7e, 0x00,
   0x30, 0x8a, 0x0a, 0x08, 0x00, 0x08, 0x12, 0x46, 0x42, 0x10, 0x18, 0x24,
   0x00, 0x10, 0x40, 0x08, 0x18, 0x00, 0xfc, 0x00, 0x02, 0x00, 0x3c, 0x00,
   0x44, 0x04, 0x42, 0x00, 0x3c, 0x00, 0x20, 0x7e, 0x00, 0x8a, 0x0a, 0x08,
   0x3c, 0x00, 0x12, 0x42, 0x46, 0x00, 0x24, 0x18, 0xfc, 0x00, 0x3c, 0x40,
   0x24, 0x3c, 0x12, 0x6c, 0x02, 0x5c, 0x42, 0x5c, 0x24, 0x44, 0x42, 0x3c,
   0x42, 0x3c, 0x10, 0x40, 0x30, 0x4a, 0xea, 0xec, 0x42, 0x5c, 0x52, 0x22,
   0x4a, 0x3a, 0x18, 0x3c, 0x12, 0x6c, 0x62, 0x3c, 0x42, 0x40, 0x12, 0x90,
   0x72, 0x22, 0x02, 0x22, 0x14, 0x24, 0x42, 0x42, 0x42, 0x42, 0x18, 0x20,
   0x20, 0x4a, 0x8a, 0x8a, 0x02, 0x22, 0x4e, 0x1a, 0x52, 0x46, 0x24, 0x40,
   0x12, 0x90, 0x52, 0x52, 0x42, 0x3e, 0x3f, 0x7e, 0x21, 0x11, 0x39, 0x11,
   0x0c, 0x1c, 0x21, 0x42, 0x21, 0x42, 0x20, 0x10, 0x20, 0x25, 0x45, 0x4a,
   0x39, 0x11, 0x29, 0x05, 0x21, 0x42, 0x42, 0x3e, 0x3f, 0x7e, 0x29, 0x4a,
   0x3e, 0x21, 0x09, 0x09, 0x71, 0x0e, 0x21, 0x0e, 0x0a, 0x12, 0x21, 0x21,
   0x21, 0x21, 0x20, 0x18, 0x20, 0x15, 0x25, 0x25, 0x21, 0x0e, 0x29, 0x03,
   0x21, 0x21, 0x3e, 0x21, 0x09, 0x09, 0x25, 0x25, 0x21, 0x31, 0x09, 0x49,
   0x21, 0x01, 0x31, 0x01, 0x12, 0x22, 0x21, 0x21, 0x21, 0x21, 0x21, 0x20,
   0x10, 0x15, 0x15, 0x15, 0x31, 0x01, 0x29, 0x01, 0x21, 0x21, 0x21, 0x31,
   0x09, 0x49, 0x23, 0x23, 0x21, 0x2e, 0x79, 0x36, 0x1e, 0x1e, 0x2e, 0x1e,
   0x22, 0x42, 0x1e, 0x1e, 0x1e, 0x1e, 0x1e, 0x20, 0x11, 0x73, 0x73, 0x76,
   0x2e, 0x1e, 0x11, 0x01, 0x21, 0x21, 0x21, 0x2e, 0x79, 0x36, 0x1e, 0x1e,
   0x00, 0x00, 0x00, 0x00, 0x00, 0x71, 0x00, 0x21, 0x00, 0x00, 0x04, 0x04,
   0x04, 0x04, 0x00, 0x21, 0x11, 0x00, 0x00, 0x00, 0x00, 0x21, 0x00, 0x00,
   0x00, 0x00, 0x00, 0x00, 0x00, 0x00, 0x01, 0x01, 0x00, 0x00, 0x00, 0x00,
   0x00, 0x1e, 0x00, 0x1e, 0x00, 0x00, 0x08, 0x08, 0x08, 0x08, 0x00, 0x1e,
   0x0e, 0x00, 0x00, 0x00, 0x00, 0x1e, 0x00, 0x00, 0x00, 0x00, 0x00, 0x00,
   0x00, 0x00, 0x00, 0x00, 0x00, 0x00, 0x00, 0x00, 0x00, 0x00, 0x00, 0x00,
   0x00, 0x00, 0x00, 0x00, 0x00, 0x00, 0x00, 0x00, 0x00, 0x00, 0x00, 0x00,
   0x00, 0x00, 0x00, 0x00, 0x00, 0x00, 0x00, 0x00, 0x00, 0x00, 0x00, 0x00,
   0x00, 0x00, 0x00, 0x00, 0x00, 0x00, 0x00, 0x00, 0x00, 0x00, 0x00, 0x00,
   0x00, 0x00, 0x00, 0x00, 0x00, 0x00, 0x00, 0x00, 0x00, 0x00, 0x00, 0x00,
   0x00, 0x00, 0x00, 0x00, 0x00, 0x00, 0x00, 0x00, 0x00, 0x00, 0x00, 0x00,
   0x00, 0x00, 0x00, 0x00, 0x00, 0x00, 0x00, 0x00, 0x00, 0x00, 0x00, 0x00,
   0x00, 0x00, 0x00, 0x00, 0x00, 0x00, 0x00, 0x00, 0x00, 0x00, 0x00, 0x00,
   0x00, 0x00, 0x00, 0x00 };
