#define u000000_u0000FF_width 256
#define u000000_u0000FF_height 128
static unsigned char u000000_u0000FF_bits[] = {
   0x00, 0x00, 0x00, 0x00, 0x00, 0x00, 0x00, 0x00, 0x00, 0x00, 0x00, 0x00,
   0x00, 0x00, 0x00, 0x00, 0x00, 0x00, 0x00, 0x00, 0x00, 0x00, 0x00, 0x00,
   0x00, 0x00, 0x00, 0x00, 0x00, 0x00, 0x00, 0x00, 0x00, 0x00, 0x00, 0x00,
   0x00, 0x00, 0x00, 0x00, 0x00, 0x00, 0x00, 0x00, 0x00, 0x00, 0x00, 0x00,
   0x00, 0x00, 0x00, 0x00, 0x00, 0x00, 0x00, 0x00, 0x00, 0x00, 0x00, 0x00,
   0x00, 0x00, 0x00, 0x00, 0x00, 0x00, 0x00, 0x00, 0x00, 0x00, 0x00, 0x00,
   0x00, 0x00, 0x00, 0x00, 0x00, 0x00, 0x00, 0x00, 0x00, 0x00, 0x00, 0x00,
   0x00, 0x00, 0x00, 0x00, 0x00, 0x00, 0x00, 0x00, 0x00, 0x00, 0x00, 0x00,
   0x00, 0x00, 0x00, 0x00, 0x00, 0x00, 0x00, 0x00, 0x00, 0x00, 0x00, 0x00,
   0x00, 0x00, 0x00, 0x00, 0x00, 0x00, 0x00, 0x00, 0x00, 0x00, 0x00, 0x00,
   0x00, 0x00, 0x00, 0x00, 0x00, 0x00, 0x00, 0x00, 0x00, 0x00, 0x00, 0x00,
   0x00, 0x00, 0x00, 0x00, 0x00, 0x00, 0x00, 0x00, 0x00, 0x00, 0x00, 0x00,
   0x00, 0x00, 0x00, 0x00, 0x00, 0x00, 0x00, 0x00, 0x00, 0x00, 0x00, 0x00,
   0x00, 0x00, 0x00, 0x00, 0x00, 0x00, 0x00, 0x00, 0x00, 0x00, 0x00, 0x00,
   0x00, 0x00, 0x00, 0x00, 0x00, 0x00, 0x00, 0x00, 0x00, 0x00, 0x00, 0x00,
   0x00, 0x00, 0x00, 0x00, 0x00, 0x00, 0x00, 0x00, 0x00, 0x00, 0x00, 0x00,
   0x00, 0x00, 0x00, 0x00, 0x00, 0x00, 0x00, 0x00, 0x00, 0x00, 0x00, 0x00,
   0x00, 0x00, 0x00, 0x00, 0x00, 0x00, 0x00, 0x00, 0x00, 0x00, 0x00, 0x00,
   0x00, 0x00, 0x00, 0x00, 0x00, 0x00, 0x00, 0x00, 0x00, 0x00, 0x00, 0x00,
   0x00, 0x00, 0x00, 0x00, 0x00, 0x00, 0x00, 0x00, 0x00, 0x00, 0x00, 0x00,
   0x00, 0x00, 0x00, 0x00, 0x00, 0x00, 0x00, 0x00, 0x00, 0x00, 0x00, 0x00,
   0x00, 0x00, 0x00, 0x00, 0x00, 0x00, 0x00, 0x00, 0x00, 0x00, 0x00, 0x00,
   0x00, 0x00, 0x00, 0x00, 0x00, 0x00, 0x00, 0x00, 0x00, 0x00, 0x00, 0x00,
   0x00, 0x00, 0x00, 0x00, 0x00, 0x00, 0x00, 0x00, 0x00, 0x00, 0x00, 0x00,
   0x00, 0x00, 0x00, 0x00, 0x00, 0x00, 0x00, 0x00, 0x00, 0x00, 0x00, 0x00,
   0x00, 0x00, 0x00, 0x00, 0x00, 0x00, 0x00, 0x00, 0x00, 0x00, 0x00, 0x00,
   0x00, 0x00, 0x00, 0x00, 0x00, 0x00, 0x00, 0x00, 0x00, 0x00, 0x00, 0x00,
   0x00, 0x00, 0x00, 0x00, 0x00, 0x00, 0x00, 0x00, 0x00, 0x00, 0x00, 0x00,
   0x00, 0x00, 0x00, 0x00, 0x00, 0x00, 0x00, 0x00, 0x00, 0x00, 0x00, 0x00,
   0x00, 0x00, 0x00, 0x00, 0x00, 0x00, 0x00, 0x00, 0x00, 0x00, 0x00, 0x00,
   0x00, 0x00, 0x00, 0x00, 0x00, 0x00, 0x00, 0x00, 0x00, 0x00, 0x00, 0x00,
   0x00, 0x00, 0x00, 0x00, 0x00, 0x00, 0x00, 0x00, 0x00, 0x00, 0x00, 0x00,
   0x00, 0x00, 0x00, 0x00, 0x00, 0x00, 0x00, 0x00, 0x00, 0x00, 0x00, 0x00,
   0x00, 0x00, 0x00, 0x00, 0x00, 0x00, 0x00, 0x00, 0x00, 0x00, 0x00, 0x00,
   0x00, 0x00, 0x00, 0x00, 0x00, 0x00, 0x00, 0x00, 0x00, 0x00, 0x00, 0x00,
   0x00, 0x00, 0x00, 0x00, 0x00, 0x00, 0x00, 0x00, 0x00, 0x00, 0x00, 0x00,
   0x00, 0x00, 0x00, 0x00, 0x00, 0x00, 0x00, 0x00, 0x00, 0x00, 0x00, 0x00,
   0x00, 0x00, 0x00, 0x00, 0x00, 0x00, 0x00, 0x00, 0x00, 0x00, 0x00, 0x00,
   0x00, 0x00, 0x00, 0x00, 0x00, 0x00, 0x00, 0x00, 0x00, 0x00, 0x00, 0x00,
   0x00, 0x00, 0x00, 0x00, 0x00, 0x00, 0x00, 0x00, 0x00, 0x00, 0x00, 0x00,
   0x00, 0x00, 0x00, 0x00, 0x00, 0x00, 0x00, 0x00, 0x00, 0x00, 0x00, 0x00,
   0x00, 0x00, 0x00, 0x00, 0x00, 0x00, 0x00, 0x00, 0x00, 0x00, 0x00, 0x00,
   0x00, 0x00, 0x00, 0x00, 0x00, 0x00, 0x00, 0x00, 0x00, 0x00, 0x00, 0x00,
   0x00, 0x00, 0x00, 0x00, 0x00, 0x00, 0x00, 0x00, 0x00, 0x00, 0x00, 0x00,
   0x00, 0x00, 0x00, 0x00, 0x00, 0x00, 0x00, 0x00, 0x00, 0x00, 0x00, 0x00,
   0x00, 0x00, 0x00, 0x00, 0x00, 0x00, 0x00, 0x00, 0x00, 0x00, 0x00, 0x00,
   0x00, 0x00, 0x00, 0x00, 0x00, 0x00, 0x00, 0x00, 0x00, 0x00, 0x00, 0x00,
   0x00, 0x00, 0x00, 0x00, 0x00, 0x00, 0x00, 0x00, 0x00, 0x00, 0x00, 0x00,
   0x00, 0x10, 0x24, 0x00, 0x10, 0x44, 0x00, 0x08, 0x20, 0x08, 0x00, 0x00,
   0x00, 0x00, 0x00, 0x80, 0x18, 0x10, 0x3c, 0x7e, 0x40, 0x7c, 0x38, 0x7e,
   0x3c, 0x3c, 0x00, 0x00, 0x20, 0x00, 0x04, 0x38, 0x00, 0x10, 0x24, 0x24,
   0x78, 0x4a, 0x30, 0x08, 0x10, 0x10, 0x00, 0x00, 0x00, 0x00, 0x00, 0x80,
   0x24, 0x18, 0x42, 0x40, 0x60, 0x04, 0x44, 0x40, 0x42, 0x42, 0x00, 0x00,
   0x10, 0x00, 0x08, 0x44, 0x00, 0x10, 0x24, 0x24, 0x14, 0x24, 0x48, 0x08,
   0x08, 0x10, 0x24, 0x08, 0x00, 0x00, 0x00, 0x40, 0x42, 0x14, 0x42, 0x20,
   0x50, 0x04, 0x02, 0x20, 0x42, 0x42, 0x10, 0x10, 0x08, 0x00, 0x10, 0x42,
   0x00, 0x10, 0x00, 0x7e, 0x14, 0x10, 0x28, 0x00, 0x08, 0x20, 0x18, 0x08,
   0x00, 0x00, 0x00, 0x20, 0x42, 0x10, 0x40, 0x10, 0x48, 0x3a, 0x02, 0x10,
   0x42, 0x62, 0x38, 0x38, 0x04, 0x7e, 0x20, 0x20, 0x00, 0x08, 0x00, 0x24,
   0x38, 0x08, 0x18, 0x00, 0x04, 0x20, 0x7e, 0x3e, 0x00, 0x3e, 0x00, 0x18,
   0x42, 0x10, 0x30, 0x18, 0x24, 0x46, 0x1e, 0x08, 0x3e, 0x5c, 0x10, 0x10,
   0x02, 0x00, 0x20, 0x10, 0x00, 0x08, 0x00, 0x3f, 0x28, 0x04, 0x54, 0x00,
   0x04, 0x10, 0x0c, 0x04, 0x00, 0x00, 0x00, 0x04, 0x21, 0x08, 0x0c, 0x20,
   0x22, 0x40, 0x21, 0x04, 0x21, 0x20, 0x00, 0x00, 0x02, 0x00, 0x10, 0x08,
   0x00, 0x08, 0x00, 0x12, 0x28, 0x12, 0x22, 0x00, 0x08, 0x10, 0x12, 0x04,
   0x00, 0x00, 0x00, 0x02, 0x21, 0x08, 0x02, 0x20, 0x7e, 0x20, 0x21, 0x04,
   0x21, 0x20, 0x00, 0x00, 0x04, 0x3f, 0x08, 0x08, 0x00, 0x00, 0x00, 0x12,
   0x1e, 0x29, 0x32, 0x00, 0x08, 0x08, 0x00, 0x00, 0x38, 0x00, 0x08, 0x01,
   0x12, 0x08, 0x01, 0x21, 0x10, 0x21, 0x21, 0x02, 0x21, 0x10, 0x08, 0x1c,
   0x08, 0x00, 0x04, 0x00, 0x00, 0x08, 0x00, 0x00, 0x08, 0x11, 0x4c, 0x00,
   0x10, 0x04, 0x00, 0x00, 0x18, 0x00, 0x1c, 0x01, 0x0c, 0x3e, 0x3f, 0x1e,
   0x10, 0x1e, 0x1e, 0x02, 0x1e, 0x0e, 0x1c, 0x0c, 0x10, 0x00, 0x02, 0x08,
   0x00, 0x00, 0x00, 0x00, 0x00, 0x00, 0x00, 0x00, 0x00, 0x00, 0x00, 0x00,
   0x04, 0x00, 0x08, 0x00, 0x00, 0x00, 0x00, 0x00, 0x00, 0x00, 0x00, 0x00,
   0x00, 0x00, 0x08, 0x02, 0x00, 0x00, 0x00, 0x00, 0x00, 0x00, 0x00, 0x00,
   0x00, 0x00, 0x00, 0x00, 0x00, 0x00, 0x00, 0x00, 0x00, 0x00, 0x00, 0x00,
   0x00, 0x00, 0x00, 0x00, 0x00, 0x00, 0x00, 0x00, 0x00, 0x00, 0x00, 0x00,
   0x00, 0x00, 0x00, 0x00, 0x00, 0x00, 0x00, 0x00, 0x00, 0x00, 0x00, 0x00,
   0x00, 0x00, 0x00, 0x00, 0x00, 0x00, 0x00, 0x00, 0x00, 0x00, 0x00, 0x00,
   0x00, 0x00, 0x00, 0x00, 0x00, 0x00, 0x00, 0x00, 0x00, 0x00, 0x00, 0x00,
   0x00, 0x00, 0x00, 0x00, 0x00, 0x00, 0x00, 0x00, 0x00, 0x00, 0x00, 0x00,
   0x00, 0x00, 0x00, 0x00, 0x00, 0x00, 0x00, 0x00, 0x00, 0x00, 0x00, 0x00,
   0x00, 0x00, 0x00, 0x00, 0x00, 0x00, 0x00, 0x00, 0x00, 0x00, 0x00, 0x00,
   0x00, 0x00, 0x00, 0x00, 0x00, 0x00, 0x00, 0x00, 0x00, 0x00, 0x00, 0x00,
   0x00, 0x00, 0x00, 0x00, 0x00, 0x00, 0x00, 0x00, 0x00, 0x00, 0x00, 0x00,
   0x00, 0x00, 0x00, 0x00, 0x00, 0x00, 0x00, 0x00, 0x00, 0x00, 0x00, 0x00,
   0x00, 0x00, 0x00, 0x00, 0x00, 0x00, 0x00, 0x00, 0x00, 0x00, 0x00, 0x00,
   0x00, 0x00, 0x00, 0x00, 0x00, 0x00, 0x00, 0x00, 0x00, 0x00, 0x00, 0x00,
   0x00, 0x00, 0x00, 0x00, 0x00, 0x00, 0x00, 0x00, 0x00, 0x00, 0x00, 0x00,
   0x00, 0x00, 0x00, 0x00, 0x00, 0x00, 0x00, 0x00, 0x00, 0x00, 0x00, 0x00,
   0x00, 0x00, 0x00, 0x00, 0x00, 0x00, 0x00, 0x00, 0x3c, 0x18, 0x1e, 0x3c,
   0x1e, 0x7e, 0x7e, 0x3c, 0x42, 0x7c, 0x78, 0x42, 0x04, 0x82, 0x42, 0x3c,
   0x3e, 0x3c, 0x3e, 0x3c, 0x7f, 0x42, 0x41, 0x82, 0x82, 0x41, 0x7e, 0x3c,
   0x02, 0x3c, 0x08, 0x00, 0x42, 0x24, 0x22, 0x42, 0x22, 0x02, 0x02, 0x42,
   0x42, 0x10, 0x20, 0x22, 0x04, 0x82, 0x42, 0x42, 0x42, 0x42, 0x42, 0x42,
   0x08, 0x42, 0x41, 0x82, 0x82, 0x41, 0x40, 0x04, 0x02, 0x20, 0x14, 0x00,
   0x42, 0x42, 0x42, 0x02, 0x42, 0x02, 0x02, 0x02, 0x42, 0x10, 0x20, 0x12,
   0x04, 0xc6, 0x46, 0x42, 0x42, 0x42, 0x42, 0x02, 0x08, 0x42, 0x21, 0x82,
   0x44, 0x22, 0x20, 0x04, 0x04, 0x20, 0x22, 0x00, 0x72, 0x42, 0x22, 0x02,
   0x42, 0x02, 0x02, 0x02, 0x42, 0x10, 0x20, 0x0a, 0x04, 0xaa, 0x4a, 0x42,
   0x42, 0x42, 0x42, 0x02, 0x08, 0x42, 0x22, 0x82, 0x28, 0x14, 0x10, 0x04,
   0x08, 0x20, 0x00, 0x00, 0x4a, 0x42, 0x1e, 0x02, 0x42, 0x1e, 0x1e, 0x02,
   0x3e, 0x10, 0x20, 0x06, 0x04, 0x92, 0x52, 0x42, 0x3e, 0x21, 0x3e, 0x1c,
   0x08, 0x21, 0x12, 0x92, 0x18, 0x08, 0x08, 0x04, 0x10, 0x20, 0x00, 0x00,
   0x65, 0x3f, 0x11, 0x01, 0x21, 0x01, 0x01, 0x39, 0x21, 0x08, 0x10, 0x05,
   0x02, 0x41, 0x31, 0x21, 0x01, 0x21, 0x05, 0x20, 0x04, 0x21, 0x12, 0x49,
   0x14, 0x08, 0x04, 0x02, 0x10, 0x10, 0x00, 0x00, 0x19, 0x21, 0x21, 0x01,
   0x21, 0x01, 0x01, 0x21, 0x21, 0x08, 0x10, 0x09, 0x02, 0x41, 0x21, 0x21,
   0x01, 0x25, 0x09, 0x20, 0x04, 0x21, 0x0a, 0x49, 0x22, 0x04, 0x02, 0x02,
   0x20, 0x10, 0x00, 0x00, 0x01, 0x21, 0x11, 0x21, 0x11, 0x01, 0x01, 0x31,
   0x21, 0x08, 0x11, 0x11, 0x02, 0x41, 0x21, 0x21, 0x01, 0x29, 0x11, 0x21,
   0x04, 0x21, 0x0a, 0x55, 0x41, 0x04, 0x01, 0x02, 0x40, 0x10, 0x00, 0x00,
   0x1e, 0x21, 0x0f, 0x1e, 0x0f, 0x3f, 0x01, 0x2e, 0x21, 0x3e, 0x0e, 0x21,
   0x7e, 0x41, 0x21, 0x1e, 0x01, 0x1e, 0x21, 0x1e, 0x04, 0x1e, 0x04, 0x22,
   0x41, 0x04, 0x3f, 0x1e, 0x40, 0x1e, 0x00, 0x00, 0x00, 0x00, 0x00, 0x00,
   0x00, 0x00, 0x00, 0x00, 0x00, 0x00, 0x00, 0x00, 0x00, 0x00, 0x00, 0x00,
   0x00, 0x20, 0x00, 0x00, 0x00, 0x00, 0x00, 0x00, 0x00, 0x00, 0x00, 0x00,
   0x00, 0x00, 0x00, 0x7f, 0x00, 0x00, 0x00, 0x00, 0x00, 0x00, 0x00, 0x00,
   0x00, 0x00, 0x00, 0x00, 0x00, 0x00, 0x00, 0x00, 0x00, 0x00, 0x00, 0x00,
   0x00, 0x00, 0x00, 0x00, 0x00, 0x00, 0x00, 0x00, 0x00, 0x00, 0x00, 0x00,
   0x00, 0x00, 0x00, 0x00, 0x00, 0x00, 0x00, 0x00, 0x00, 0x00, 0x00, 0x00,
   0x00, 0x00, 0x00, 0x00, 0x00, 0x00, 0x00, 0x00, 0x00, 0x00, 0x00, 0x00,
   0x00, 0x00, 0x00, 0x00, 0x00, 0x00, 0x00, 0x00, 0x00, 0x00, 0x00, 0x00,
   0x00, 0x00, 0x00, 0x00, 0x00, 0x00, 0x00, 0x00, 0x00, 0x00, 0x00, 0x00,
   0x00, 0x00, 0x00, 0x00, 0x00, 0x00, 0x00, 0x00, 0x00, 0x00, 0x00, 0x00,
   0x00, 0x00, 0x00, 0x00, 0x00, 0x00, 0x00, 0x00, 0x00, 0x00, 0x00, 0x00,
   0x00, 0x00, 0x00, 0x00, 0x00, 0x00, 0x00, 0x00, 0x00, 0x00, 0x00, 0x00,
   0x00, 0x00, 0x00, 0x00, 0x00, 0x00, 0x00, 0x00, 0x00, 0x00, 0x00, 0x00,
   0x00, 0x00, 0x00, 0x00, 0x00, 0x00, 0x00, 0x00, 0x00, 0x00, 0x00, 0x00,
   0x00, 0x00, 0x00, 0x00, 0x00, 0x00, 0x00, 0x00, 0x00, 0x00, 0x00, 0x00,
   0x00, 0x00, 0x00, 0x00, 0x00, 0x00, 0x00, 0x00, 0x08, 0x00, 0x00, 0x00,
   0x00, 0x00, 0x00, 0x00, 0x00, 0x00, 0x00, 0x00, 0x00, 0x00, 0x00, 0x00,
   0x00, 0x00, 0x00, 0x00, 0x00, 0x00, 0x00, 0x00, 0x00, 0x00, 0x00, 0x00,
   0x00, 0x00, 0x00, 0x00, 0x10, 0x00, 0x02, 0x00, 0x40, 0x00, 0x38, 0x00,
   0x04, 0x00, 0x00, 0x04, 0x18, 0x00, 0x00, 0x00, 0x00, 0x00, 0x00, 0x00,
   0x00, 0x00, 0x00, 0x00, 0x00, 0x00, 0x00, 0x38, 0x10, 0x1c, 0x24, 0x00,
   0x00, 0x00, 0x02, 0x00, 0x40, 0x00, 0x44, 0x00, 0x04, 0x10, 0x40, 0x04,
   0x10, 0x00, 0x00, 0x00, 0x00, 0x00, 0x00, 0x00, 0x04, 0x00, 0x00, 0x00,
   0x00, 0x00, 0x00, 0x04, 0x10, 0x20, 0x2a, 0x00, 0x00, 0x00, 0x02, 0x00,
   0x40, 0x00, 0x04, 0x00, 0x02, 0x00, 0x00, 0x04, 0x10, 0x00, 0x00, 0x00,
   0x00, 0x00, 0x00, 0x00, 0x04, 0x00, 0x00, 0x00, 0x00, 0x00, 0x00, 0x04,
   0x10, 0x20, 0x12, 0x00, 0x00, 0x3c, 0x3a, 0x3c, 0x5c, 0x3c, 0x04, 0x5c,
   0x3a, 0x18, 0x60, 0x44, 0x10, 0x6e, 0x3a, 0x3c, 0x74, 0x5c, 0x3a, 0x3c,
   0x3e, 0x44, 0x22, 0x82, 0x42, 0x42, 0x7e, 0x08, 0x10, 0x10, 0x00, 0x00,
   0x00, 0x40, 0x46, 0x42, 0x22, 0x42, 0x3e, 0x22, 0x46, 0x10, 0x40, 0x34,
   0x10, 0x92, 0x46, 0x42, 0x8c, 0x62, 0x44, 0x42, 0x04, 0x44, 0x22, 0x82,
   0x24, 0x42, 0x20, 0x06, 0x10, 0x30, 0x00, 0x00, 0x00, 0x3e, 0x42, 0x01,
   0x21, 0x3e, 0x04, 0x11, 0x42, 0x10, 0x40, 0x0c, 0x08, 0x92, 0x42, 0x42,
   0x84, 0x21, 0x04, 0x04, 0x02, 0x44, 0x12, 0x49, 0x18, 0x21, 0x18, 0x04,
   0x08, 0x08, 0x00, 0x00, 0x00, 0x21, 0x21, 0x01, 0x21, 0x01, 0x02, 0x0e,
   0x21, 0x08, 0x20, 0x12, 0x08, 0x49, 0x21, 0x21, 0x46, 0x31, 0x02, 0x18,
   0x02, 0x22, 0x0a, 0x49, 0x0c, 0x31, 0x04, 0x02, 0x08, 0x10, 0x00, 0x00,
   0x00, 0x31, 0x23, 0x21, 0x31, 0x21, 0x02, 0x01, 0x21, 0x08, 0x20, 0x22,
   0x08, 0x49, 0x21, 0x21, 0x3a, 0x2e, 0x02, 0x21, 0x22, 0x22, 0x0a, 0x55,
   0x12, 0x2e, 0x02, 0x02, 0x08, 0x10, 0x00, 0x00, 0x00, 0x2e, 0x1d, 0x1e,
   0x2e, 0x1e, 0x02, 0x1e, 0x21, 0x3e, 0x22, 0x42, 0x3e, 0x41, 0x21, 0x1e,
   0x02, 0x20, 0x02, 0x1e, 0x1c, 0x5c, 0x04, 0x22, 0x21, 0x20, 0x3f, 0x1c,
   0x08, 0x0e, 0x00, 0x00, 0x00, 0x00, 0x00, 0x00, 0x00, 0x00, 0x00, 0x21,
   0x00, 0x00, 0x22, 0x00, 0x00, 0x00, 0x00, 0x00, 0x01, 0x10, 0x00, 0x00,
   0x00, 0x00, 0x00, 0x00, 0x00, 0x21, 0x00, 0x00, 0x00, 0x00, 0x00, 0x00,
   0x00, 0x00, 0x00, 0x00, 0x00, 0x00, 0x00, 0x1e, 0x00, 0x00, 0x1c, 0x00,
   0x00, 0x00, 0x00, 0x00, 0x01, 0x10, 0x00, 0x00, 0x00, 0x00, 0x00, 0x00,
   0x00, 0x1e, 0x00, 0x00, 0x00, 0x00, 0x00, 0x00, 0x00, 0x00, 0x00, 0x00,
   0x00, 0x00, 0x00, 0x00, 0x00, 0x00, 0x00, 0x00, 0x00, 0x00, 0x00, 0x00,
   0x00, 0x00, 0x00, 0x00, 0x00, 0x00, 0x00, 0x00, 0x00, 0x00, 0x00, 0x00,
   0x00, 0x00, 0x00, 0x00, 0x00, 0x00, 0x00, 0x00, 0x00, 0x00, 0x00, 0x00,
   0x00, 0x00, 0x00, 0x00, 0x00, 0x00, 0x00, 0x00, 0x00, 0x00, 0x00, 0x00,
   0x00, 0x00, 0x00, 0x00, 0x00, 0x00, 0x00, 0x00, 0x00, 0x00, 0x00, 0x00,
   0x00, 0x00, 0x00, 0x00, 0x00, 0x00, 0x00, 0x00, 0x00, 0x00, 0x00, 0x00,
   0x00, 0x00, 0x00, 0x00, 0x00, 0x00, 0x00, 0x00, 0x00, 0x00, 0x00, 0x00,
   0x00, 0x00, 0x00, 0x00, 0x00, 0x00, 0x00, 0x00, 0x00, 0x00, 0x00, 0x00,
   0x00, 0x00, 0x00, 0x00, 0x00, 0x00, 0x00, 0x00, 0x00, 0x00, 0x00, 0x00,
   0x00, 0x00, 0x00, 0x00, 0x00, 0x00, 0x00, 0x00, 0x00, 0x00, 0x00, 0x00,
   0x00, 0x00, 0x00, 0x00, 0x00, 0x00, 0x00, 0x00, 0x00, 0x00, 0x00, 0x00,
   0x00, 0x00, 0x00, 0x00, 0x00, 0x00, 0x00, 0x00, 0x00, 0x00, 0x00, 0x00,
   0x00, 0x00, 0x00, 0x00, 0x00, 0x00, 0x00, 0x00, 0x00, 0x00, 0x00, 0x00,
   0x00, 0x00, 0x00, 0x00, 0x00, 0x00, 0x00, 0x00, 0x00, 0x00, 0x00, 0x00,
   0x00, 0x00, 0x00, 0x00, 0x00, 0x00, 0x00, 0x00, 0x00, 0x00, 0x00, 0x00,
   0x00, 0x00, 0x00, 0x00, 0x00, 0x00, 0x00, 0x00, 0x00, 0x00, 0x00, 0x00,
   0x00, 0x00, 0x00, 0x00, 0x00, 0x00, 0x00, 0x00, 0x00, 0x00, 0x00, 0x00,
   0x00, 0x00, 0x00, 0x00, 0x00, 0x00, 0x00, 0x00, 0x00, 0x00, 0x00, 0x00,
   0x00, 0x00, 0x00, 0x00, 0x00, 0x00, 0x00, 0x00, 0x00, 0x00, 0x00, 0x00,
   0x00, 0x00, 0x00, 0x00, 0x00, 0x00, 0x00, 0x00, 0x00, 0x00, 0x00, 0x00,
   0x00, 0x00, 0x00, 0x00, 0x00, 0x00, 0x00, 0x00, 0x00, 0x00, 0x00, 0x00,
   0x00, 0x00, 0x00, 0x00, 0x00, 0x00, 0x00, 0x00, 0x00, 0x00, 0x00, 0x00,
   0x00, 0x00, 0x00, 0x00, 0x00, 0x00, 0x00, 0x00, 0x00, 0x00, 0x00, 0x00,
   0x00, 0x00, 0x00, 0x00, 0x00, 0x00, 0x00, 0x00, 0x00, 0x00, 0x00, 0x00,
   0x00, 0x00, 0x00, 0x00, 0x00, 0x00, 0x00, 0x00, 0x00, 0x00, 0x00, 0x00,
   0x00, 0x00, 0x00, 0x00, 0x00, 0x00, 0x00, 0x00, 0x00, 0x00, 0x00, 0x00,
   0x00, 0x00, 0x00, 0x00, 0x00, 0x00, 0x00, 0x00, 0x00, 0x00, 0x00, 0x00,
   0x00, 0x00, 0x00, 0x00, 0x00, 0x00, 0x00, 0x00, 0x00, 0x00, 0x00, 0x00,
   0x00, 0x00, 0x00, 0x00, 0x00, 0x00, 0x00, 0x00, 0x00, 0x00, 0x00, 0x00,
   0x00, 0x00, 0x00, 0x00, 0x00, 0x00, 0x00, 0x00, 0x00, 0x00, 0x00, 0x00,
   0x00, 0x00, 0x00, 0x00, 0x00, 0x00, 0x00, 0x00, 0x00, 0x00, 0x00, 0x00,
   0x00, 0x00, 0x00, 0x00, 0x00, 0x00, 0x00, 0x00, 0x00, 0x00, 0x00, 0x00,
   0x00, 0x00, 0x00, 0x00, 0x00, 0x00, 0x00, 0x00, 0x00, 0x00, 0x00, 0x00,
   0x00, 0x00, 0x00, 0x00, 0x00, 0x00, 0x00, 0x00, 0x00, 0x00, 0x00, 0x00,
   0x00, 0x00, 0x00, 0x00, 0x00, 0x00, 0x00, 0x00, 0x00, 0x00, 0x00, 0x00,
   0x00, 0x00, 0x00, 0x00, 0x00, 0x00, 0x00, 0x00, 0x00, 0x00, 0x00, 0x00,
   0x00, 0x00, 0x00, 0x00, 0x00, 0x00, 0x00, 0x00, 0x00, 0x00, 0x00, 0x00,
   0x00, 0x00, 0x00, 0x00, 0x00, 0x00, 0x00, 0x00, 0x00, 0x00, 0x00, 0x00,
   0x00, 0x00, 0x00, 0x00, 0x00, 0x00, 0x00, 0x00, 0x00, 0x00, 0x00, 0x00,
   0x00, 0x00, 0x00, 0x00, 0x00, 0x00, 0x00, 0x00, 0x00, 0x00, 0x00, 0x00,
   0x00, 0x00, 0x00, 0x00, 0x00, 0x00, 0x00, 0x00, 0x00, 0x00, 0x00, 0x00,
   0x00, 0x00, 0x00, 0x00, 0x00, 0x00, 0x00, 0x00, 0x00, 0x00, 0x00, 0x00,
   0x00, 0x00, 0x00, 0x00, 0x00, 0x00, 0x00, 0x00, 0x00, 0x00, 0x00, 0x00,
   0x00, 0x00, 0x00, 0x00, 0x00, 0x00, 0x00, 0x00, 0x00, 0x00, 0x00, 0x00,
   0x00, 0x00, 0x00, 0x00, 0x00, 0x00, 0x00, 0x00, 0x00, 0x00, 0x00, 0x00,
   0x00, 0x00, 0x00, 0x00, 0x00, 0x00, 0x00, 0x00, 0x00, 0x00, 0x00, 0x00,
   0x00, 0x00, 0x00, 0x00, 0x00, 0x00, 0x00, 0x00, 0x00, 0x00, 0x00, 0x00,
   0x00, 0x00, 0x00, 0x00, 0x00, 0x00, 0x00, 0x00, 0x00, 0x00, 0x00, 0x00,
   0x00, 0x00, 0x00, 0x00, 0x00, 0x00, 0x00, 0x00, 0x00, 0x00, 0x00, 0x00,
   0x00, 0x00, 0x00, 0x00, 0x00, 0x00, 0x00, 0x00, 0x00, 0x00, 0x00, 0x00,
   0x00, 0x00, 0x00, 0x00, 0x00, 0x00, 0x00, 0x00, 0x00, 0x00, 0x00, 0x00,
   0x00, 0x00, 0x00, 0x00, 0x00, 0x00, 0x00, 0x00, 0x00, 0x00, 0x00, 0x00,
   0x00, 0x00, 0x00, 0x00, 0x00, 0x00, 0x00, 0x00, 0x00, 0x00, 0x00, 0x00,
   0x00, 0x00, 0x00, 0x00, 0x00, 0x00, 0x00, 0x18, 0x24, 0x00, 0x00, 0x00,
   0x00, 0x00, 0x00, 0x00, 0x00, 0x00, 0x18, 0x1c, 0x10, 0x00, 0x00, 0x00,
   0x00, 0x10, 0x00, 0x00, 0x08, 0x04, 0x1c, 0x00, 0x00, 0x10, 0x10, 0x70,
   0x00, 0x41, 0x10, 0x24, 0x24, 0x38, 0x38, 0x00, 0x00, 0x00, 0x38, 0x7e,
   0x18, 0x00, 0x24, 0x20, 0x08, 0x00, 0x7c, 0x00, 0x00, 0x18, 0x30, 0x00,
   0x0c, 0x06, 0x20, 0x10, 0x00, 0x00, 0x38, 0x88, 0x00, 0x41, 0x10, 0x04,
   0x00, 0x44, 0x40, 0x48, 0x00, 0x00, 0x44, 0x00, 0x24, 0x10, 0x20, 0x18,
   0x00, 0x00, 0x2e, 0x00, 0x00, 0x10, 0x48, 0x12, 0x08, 0x04, 0x18, 0x00,
   0x00, 0x10, 0x54, 0x08, 0x42, 0x22, 0x10, 0x18, 0x00, 0x92, 0x3c, 0x24,
   0x00, 0x00, 0x9a, 0x00, 0x24, 0x10, 0x1c, 0x10, 0x00, 0x00, 0x2e, 0x00,
   0x00, 0x08, 0x24, 0x24, 0x04, 0x02, 0x10, 0x10, 0x00, 0x10, 0x14, 0x1c,
   0x3c, 0x14, 0x10, 0x24, 0x00, 0xaa, 0x22, 0x12, 0x00, 0x00, 0xaa, 0x00,
   0x18, 0x7c, 0x02, 0x12, 0x00, 0x42, 0x2e, 0x00, 0x00, 0x08, 0x18, 0x48,
   0x44, 0x32, 0x52, 0x10, 0x00, 0x10, 0x0a, 0x08, 0x24, 0x3e, 0x00, 0x12,
   0x00, 0x45, 0x3c, 0x09, 0x7e, 0x3c, 0x55, 0x00, 0x00, 0x08, 0x1e, 0x0c,
   0x00, 0x42, 0x2c, 0x18, 0x00, 0x1c, 0x00, 0x48, 0x6e, 0x4f, 0x6c, 0x08,
   0x00, 0x08, 0x2a, 0x04, 0x12, 0x08, 0x08, 0x0c, 0x00, 0x55, 0x00, 0x09,
   0x40, 0x00, 0x4d, 0x00, 0x00, 0x08, 0x00, 0x00, 0x00, 0x42, 0x14, 0x00,
   0x00, 0x00, 0x1e, 0x24, 0x50, 0x20, 0x50, 0x04, 0x00, 0x08, 0x1c, 0x04,
   0x1e, 0x1f, 0x08, 0x10, 0x00, 0x49, 0x3e, 0x12, 0x20, 0x00, 0x55, 0x00,
   0x00, 0x00, 0x00, 0x00, 0x00, 0x21, 0x14, 0x00, 0x00, 0x00, 0x00, 0x12,
   0x28, 0x18, 0x28, 0x42, 0x00, 0x08, 0x08, 0x46, 0x21, 0x04, 0x08, 0x12,
   0x00, 0x22, 0x00, 0x24, 0x20, 0x00, 0x22, 0x00, 0x00, 0x3e, 0x00, 0x00,
   0x00, 0x33, 0x14, 0x00, 0x00, 0x00, 0x00, 0x09, 0x78, 0x04, 0x78, 0x22,
   0x00, 0x08, 0x00, 0x3b, 0x00, 0x04, 0x08, 0x0c, 0x00, 0x1c, 0x00, 0x00,
   0x00, 0x00, 0x1c, 0x00, 0x00, 0x00, 0x00, 0x00, 0x00, 0x2d, 0x14, 0x00,
   0x00, 0x00, 0x00, 0x00, 0x20, 0x3c, 0x20, 0x1c, 0x00, 0x00, 0x00, 0x00,
   0x00, 0x00, 0x00, 0x00, 0x00, 0x00, 0x00, 0x00, 0x00, 0x00, 0x00, 0x00,
   0x00, 0x00, 0x00, 0x00, 0x00, 0x01, 0x00, 0x00, 0x10, 0x00, 0x00, 0x00,
   0x00, 0x00, 0x00, 0x00, 0x00, 0x00, 0x00, 0x00, 0x00, 0x00, 0x00, 0x00,
   0x00, 0x00, 0x00, 0x00, 0x00, 0x00, 0x00, 0x00, 0x00, 0x00, 0x00, 0x00,
   0x00, 0x00, 0x00, 0x00, 0x18, 0x00, 0x00, 0x00, 0x00, 0x00, 0x00, 0x00,
   0x00, 0x00, 0x00, 0x00, 0x00, 0x00, 0x00, 0x00, 0x00, 0x00, 0x00, 0x00,
   0x00, 0x00, 0x00, 0x00, 0x00, 0x00, 0x00, 0x00, 0x00, 0x00, 0x00, 0x00,
   0x00, 0x00, 0x00, 0x00, 0x00, 0x00, 0x00, 0x00, 0x00, 0x00, 0x00, 0x00,
   0x00, 0x00, 0x00, 0x00, 0x00, 0x00, 0x00, 0x00, 0x00, 0x00, 0x00, 0x00,
   0x00, 0x00, 0x00, 0x00, 0x00, 0x00, 0x00, 0x00, 0x00, 0x00, 0x00, 0x00,
   0x00, 0x00, 0x00, 0x00, 0x00, 0x00, 0x00, 0x00, 0x00, 0x00, 0x00, 0x00,
   0x00, 0x00, 0x00, 0x00, 0x00, 0x00, 0x00, 0x00, 0x00, 0x00, 0x00, 0x00,
   0x00, 0x00, 0x00, 0x00, 0x00, 0x00, 0x00, 0x00, 0x00, 0x00, 0x00, 0x00,
   0x00, 0x00, 0x00, 0x00, 0x00, 0x00, 0x00, 0x00, 0x00, 0x00, 0x00, 0x00,
   0x00, 0x00, 0x00, 0x00, 0x00, 0x00, 0x00, 0x00, 0x00, 0x00, 0x00, 0x00,
   0x00, 0x00, 0x00, 0x00, 0x00, 0x00, 0x00, 0x00, 0x08, 0x10, 0x18, 0x4c,
   0x24, 0x18, 0x00, 0x00, 0x08, 0x10, 0x18, 0x24, 0x08, 0x20, 0x30, 0x44,
   0x00, 0x4c, 0x08, 0x20, 0x30, 0x4c, 0x44, 0x00, 0x40, 0x04, 0x10, 0x18,
   0x24, 0x10, 0x00, 0x00, 0x10, 0x08, 0x24, 0x32, 0x24, 0x24, 0xec, 0x3c,
   0x10, 0x08, 0x24, 0x24, 0x10, 0x10, 0x48, 0x44, 0x1e, 0x32, 0x10, 0x10,
   0x48, 0x32, 0x44, 0x00, 0x3c, 0x08, 0x08, 0x24, 0x24, 0x08, 0x02, 0x38,
   0x00, 0x00, 0x00, 0x00, 0x00, 0x18, 0x12, 0x42, 0x00, 0x00, 0x00, 0x00,
   0x00, 0x00, 0x00, 0x00, 0x22, 0x00, 0x00, 0x00, 0x00, 0x00, 0x00, 0x00,
   0x62, 0x00, 0x00, 0x00, 0x00, 0x00, 0x3e, 0x44, 0x18, 0x18, 0x18, 0x18,
   0x18, 0x18, 0x12, 0x02, 0x7e, 0x7e, 0x7e, 0x7e, 0x7c, 0x7c, 0x7c, 0x7c,
   0x42, 0x82, 0x7c, 0x7c, 0x7c, 0x7c, 0x7c, 0x42, 0x52, 0x42, 0x42, 0x42,
   0x42, 0x22, 0x42, 0x44, 0x24, 0x24, 0x24, 0x24, 0x24, 0x24, 0x12, 0x02,
   0x02, 0x02, 0x02, 0x02, 0x10, 0x10, 0x10, 0x10, 0x42, 0x86, 0x82, 0x82,
   0x82, 0x82, 0x82, 0x24, 0x52, 0x42, 0x42, 0x42, 0x42, 0x22, 0x42, 0x24,
   0x42, 0x42, 0x42, 0x42, 0x42, 0x42, 0x72, 0x02, 0x02, 0x02, 0x02, 0x02,
   0x10, 0x10, 0x10, 0x10, 0x47, 0x8a, 0x82, 0x82, 0x82, 0x82, 0x82, 0x18,
   0x4a, 0x42, 0x42, 0x42, 0x42, 0x14, 0x42, 0x14, 0x42, 0x42, 0x42, 0x42,
   0x42, 0x42, 0x0e, 0x01, 0x0e, 0x0e, 0x0e, 0x0e, 0x08, 0x08, 0x08, 0x08,
   0x22, 0x49, 0x41, 0x41, 0x41, 0x41, 0x41, 0x0c, 0x25, 0x21, 0x21, 0x21,
   0x21, 0x0c, 0x3e, 0x22, 0x3e, 0x3e, 0x3e, 0x3e, 0x3e, 0x3e, 0x09, 0x01,
   0x01, 0x01, 0x01, 0x01, 0x08, 0x08, 0x08, 0x08, 0x21, 0x51, 0x41, 0x41,
   0x41, 0x41, 0x41, 0x12, 0x25, 0x21, 0x21, 0x21, 0x21, 0x04, 0x01, 0x42,
   0x21, 0x21, 0x21, 0x21, 0x21, 0x21, 0x09, 0x21, 0x01, 0x01, 0x01, 0x01,
   0x08, 0x08, 0x08, 0x08, 0x11, 0x61, 0x41, 0x41, 0x41, 0x41, 0x41, 0x21,
   0x23, 0x21, 0x21, 0x21, 0x21, 0x04, 0x01, 0x42, 0x21, 0x21, 0x21, 0x21,
   0x21, 0x21, 0x79, 0x1e, 0x3f, 0x3f, 0x3f, 0x3f, 0x3e, 0x3e, 0x3e, 0x3e,
   0x0f, 0x41, 0x3e, 0x3e, 0x3e, 0x3e, 0x3e, 0x00, 0x1e, 0x1e, 0x1e, 0x1e,
   0x1e, 0x04, 0x01, 0x3a, 0x00, 0x00, 0x00, 0x00, 0x00, 0x00, 0x00, 0x08,
   0x00, 0x00, 0x00, 0x00, 0x00, 0x00, 0x00, 0x00, 0x00, 0x00, 0x00, 0x00,
   0x00, 0x00, 0x00, 0x00, 0x01, 0x00, 0x00, 0x00, 0x00, 0x00, 0x00, 0x00,
   0x00, 0x00, 0x00, 0x00, 0x00, 0x00, 0x00, 0x04, 0x00, 0x00, 0x00, 0x00,
   0x00, 0x00, 0x00, 0x00, 0x00, 0x00, 0x00, 0x00, 0x00, 0x00, 0x00, 0x00,
   0x00, 0x00, 0x00, 0x00, 0x00, 0x00, 0x00, 0x00, 0x00, 0x00, 0x00, 0x00,
   0x00, 0x00, 0x00, 0x00, 0x00, 0x00, 0x00, 0x00, 0x00, 0x00, 0x00, 0x00,
   0x00, 0x00, 0x00, 0x00, 0x00, 0x00, 0x00, 0x00, 0x00, 0x00, 0x00, 0x00,
   0x00, 0x00, 0x00, 0x00, 0x00, 0x00, 0x00, 0x00, 0x00, 0x00, 0x00, 0x00,
   0x00, 0x00, 0x00, 0x00, 0x00, 0x00, 0x00, 0x00, 0x00, 0x00, 0x00, 0x00,
   0x00, 0x00, 0x00, 0x00, 0x00, 0x00, 0x00, 0x00, 0x00, 0x00, 0x00, 0x00,
   0x00, 0x00, 0x00, 0x00, 0x00, 0x00, 0x00, 0x00, 0x00, 0x00, 0x00, 0x00,
   0x00, 0x00, 0x00, 0x00, 0x00, 0x00, 0x00, 0x00, 0x00, 0x00, 0x00, 0x00,
   0x00, 0x00, 0x00, 0x00, 0x00, 0x00, 0x00, 0x00, 0x00, 0x00, 0x00, 0x00,
   0x00, 0x00, 0x00, 0x00, 0x00, 0x00, 0x00, 0x00, 0x00, 0x00, 0x00, 0x00,
   0x00, 0x00, 0x00, 0x00, 0x00, 0x00, 0x00, 0x00, 0x00, 0x00, 0x00, 0x00,
   0x00, 0x00, 0x00, 0x00, 0x00, 0x00, 0x00, 0x00, 0x00, 0x18, 0x00, 0x00,
   0x00, 0x00, 0x00, 0x00, 0x00, 0x00, 0x00, 0x00, 0x24, 0x00, 0x00, 0x00,
   0x00, 0x00, 0x00, 0x00, 0x00, 0x00, 0x00, 0x00, 0x00, 0x00, 0x00, 0x00,
   0x08, 0x20, 0x18, 0x4c, 0x24, 0x24, 0x00, 0x00, 0x08, 0x10, 0x18, 0x24,
   0x08, 0x10, 0x18, 0x24, 0x18, 0x4c, 0x04, 0x10, 0x18, 0x4c, 0x24, 0x00,
   0x00, 0x08, 0x20, 0x30, 0x28, 0x10, 0x00, 0x24, 0x10, 0x10, 0x24, 0x32,
   0x24, 0x18, 0x00, 0x00, 0x10, 0x08, 0x24, 0x24, 0x10, 0x08, 0x24, 0x24,
   0x14, 0x32, 0x08, 0x08, 0x24, 0x32, 0x24, 0x10, 0x00, 0x10, 0x10, 0x48,
   0x28, 0x08, 0x02, 0x24, 0x00, 0x00, 0x00, 0x00, 0x00, 0x00, 0x00, 0x00,
   0x00, 0x00, 0x00, 0x00, 0x00, 0x00, 0x00, 0x00, 0x20, 0x00, 0x00, 0x00,
   0x00, 0x00, 0x00, 0x10, 0x40, 0x00, 0x00, 0x00, 0x00, 0x00, 0x02, 0x00,
   0x3c, 0x3c, 0x3c, 0x3c, 0x3c, 0x3c, 0x6c, 0x3c, 0x3c, 0x3c, 0x3c, 0x3c,
   0x18, 0x18, 0x18, 0x18, 0x3c, 0x3a, 0x3c, 0x3c, 0x3c, 0x3c, 0x3c, 0x00,
   0x3c, 0x44, 0x44, 0x44, 0x44, 0x42, 0x3a, 0x42, 0x40, 0x40, 0x40, 0x40,
   0x40, 0x40, 0x90, 0x42, 0x42, 0x42, 0x42, 0x42, 0x10, 0x10, 0x10, 0x10,
   0x42, 0x46, 0x42, 0x42, 0x42, 0x42, 0x42, 0x7e, 0x62, 0x44, 0x44, 0x44,
   0x44, 0x42, 0x46, 0x42, 0x3e, 0x3e, 0x3e, 0x3e, 0x3e, 0x3e, 0x7e, 0x01,
   0x3e, 0x3e, 0x3e, 0x3e, 0x10, 0x10, 0x10, 0x10, 0x42, 0x42, 0x42, 0x42,
   0x42, 0x42, 0x42, 0x00, 0x5a, 0x44, 0x44, 0x44, 0x44, 0x21, 0x42, 0x21,
   0x21, 0x21, 0x21, 0x21, 0x21, 0x21, 0x09, 0x01, 0x01, 0x01, 0x01, 0x01,
   0x08, 0x08, 0x08, 0x08, 0x21, 0x21, 0x21, 0x21, 0x21, 0x21, 0x21, 0x08,
   0x25, 0x22, 0x22, 0x22, 0x22, 0x31, 0x21, 0x31, 0x31, 0x31, 0x31, 0x31,
   0x31, 0x31, 0x49, 0x21, 0x21, 0x21, 0x21, 0x21, 0x08, 0x08, 0x08, 0x08,
   0x21, 0x21, 0x21, 0x21, 0x21, 0x21, 0x21, 0x08, 0x23, 0x22, 0x22, 0x22,
   0x22, 0x2e, 0x23, 0x2e, 0x2e, 0x2e, 0x2e, 0x2e, 0x2e, 0x2e, 0x36, 0x1e,
   0x1e, 0x1e, 0x1e, 0x1e, 0x3e, 0x3e, 0x3e, 0x3e, 0x1e, 0x21, 0x1e, 0x1e,
   0x1e, 0x1e, 0x1e, 0x00, 0x1e, 0x5c, 0x5c, 0x5c, 0x5c, 0x20, 0x1d, 0x20,
   0x00, 0x00, 0x00, 0x00, 0x00, 0x00, 0x00, 0x08, 0x00, 0x00, 0x00, 0x00,
   0x00, 0x00, 0x00, 0x00, 0x00, 0x00, 0x00, 0x00, 0x00, 0x00, 0x00, 0x00,
   0x01, 0x00, 0x00, 0x00, 0x00, 0x21, 0x01, 0x21, 0x00, 0x00, 0x00, 0x00,
   0x00, 0x00, 0x00, 0x04, 0x00, 0x00, 0x00, 0x00, 0x00, 0x00, 0x00, 0x00,
   0x00, 0x00, 0x00, 0x00, 0x00, 0x00, 0x00, 0x00, 0x00, 0x00, 0x00, 0x00,
   0x00, 0x1e, 0x01, 0x1e, 0x00, 0x00, 0x00, 0x00, 0x00, 0x00, 0x00, 0x00,
   0x00, 0x00, 0x00, 0x00, 0x00, 0x00, 0x00, 0x00, 0x00, 0x00, 0x00, 0x00,
   0x00, 0x00, 0x00, 0x00, 0x00, 0x00, 0x00, 0x00, 0x00, 0x00, 0x00, 0x00,
   0x00, 0x00, 0x00, 0x00, 0x00, 0x00, 0x00, 0x00, 0x00, 0x00, 0x00, 0x00,
   0x00, 0x00, 0x00, 0x00, 0x00, 0x00, 0x00, 0x00, 0x00, 0x00, 0x00, 0x00,
   0x00, 0x00, 0x00, 0x00, 0x00, 0x00, 0x00, 0x00, 0x00, 0x00, 0x00, 0x00,
   0x00, 0x00, 0x00, 0x00, 0x00, 0x00, 0x00, 0x00, 0x00, 0x00, 0x00, 0x00,
   0x00, 0x00, 0x00, 0x00, 0x00, 0x00, 0x00, 0x00, 0x00, 0x00, 0x00, 0x00,
   0x00, 0x00, 0x00, 0x00 };
