#define u001E00_u001EFF_width 256
#define u001E00_u001EFF_height 128
static unsigned char u001E00_u001EFF_bits[] = {
   0x00, 0x00, 0x00, 0x00, 0x00, 0x00, 0x00, 0x00, 0x00, 0x00, 0x00, 0x00,
   0x00, 0x00, 0x00, 0x00, 0x00, 0x00, 0x00, 0x00, 0x08, 0x08, 0x10, 0x10,
   0x00, 0x00, 0x00, 0x00, 0x00, 0x00, 0x00, 0x00, 0x00, 0x00, 0x18, 0x10,
   0x00, 0x00, 0x00, 0x00, 0x10, 0x00, 0x18, 0x18, 0x00, 0x00, 0x00, 0x00,
   0x00, 0x00, 0x00, 0x00, 0x10, 0x10, 0x08, 0x08, 0x00, 0x00, 0x00, 0x00,
   0x42, 0x00, 0x18, 0x18, 0x18, 0x00, 0x00, 0x02, 0x1e, 0x02, 0x1e, 0x02,
   0x08, 0x10, 0x00, 0x40, 0x1e, 0x40, 0x1e, 0x40, 0x1e, 0x40, 0x1e, 0x40,
   0x3c, 0x00, 0x3c, 0x00, 0x7e, 0x00, 0x7e, 0x00, 0x3c, 0x42, 0x00, 0x00,
   0x24, 0x00, 0x3e, 0x02, 0x22, 0x02, 0x22, 0x02, 0x00, 0x08, 0x1e, 0x40,
   0x22, 0x40, 0x22, 0x40, 0x22, 0x40, 0x22, 0x40, 0x00, 0x3c, 0x00, 0x3c,
   0x02, 0x00, 0x02, 0x00, 0x00, 0x3c, 0x7e, 0x38, 0x42, 0x3c, 0x42, 0x02,
   0x42, 0x02, 0x42, 0x02, 0x3c, 0x00, 0x22, 0x40, 0x42, 0x40, 0x42, 0x40,
   0x42, 0x40, 0x42, 0x5c, 0x7e, 0x00, 0x7e, 0x00, 0x02, 0x3c, 0x02, 0x3c,
   0x7e, 0x00, 0x02, 0x44, 0x42, 0x40, 0x42, 0x3a, 0x22, 0x3a, 0x22, 0x3a,
   0x42, 0x3c, 0x42, 0x5c, 0x42, 0x5c, 0x42, 0x5c, 0x42, 0x5c, 0x42, 0x22,
   0x02, 0x3c, 0x02, 0x3c, 0x1e, 0x42, 0x1e, 0x42, 0x02, 0x3c, 0x02, 0x04,
   0x42, 0x3e, 0x3e, 0x46, 0x1e, 0x46, 0x1e, 0x46, 0x02, 0x42, 0x42, 0x22,
   0x42, 0x22, 0x42, 0x22, 0x42, 0x22, 0x42, 0x21, 0x02, 0x42, 0x02, 0x42,
   0x01, 0x3e, 0x01, 0x3e, 0x02, 0x42, 0x1e, 0x3e, 0x3e, 0x21, 0x21, 0x42,
   0x21, 0x42, 0x11, 0x42, 0x01, 0x01, 0x21, 0x21, 0x21, 0x21, 0x21, 0x21,
   0x21, 0x21, 0x21, 0x21, 0x0e, 0x3e, 0x0e, 0x3e, 0x01, 0x01, 0x01, 0x01,
   0x0e, 0x3e, 0x01, 0x04, 0x21, 0x31, 0x21, 0x21, 0x21, 0x21, 0x21, 0x21,
   0x01, 0x01, 0x21, 0x21, 0x21, 0x21, 0x21, 0x21, 0x21, 0x21, 0x21, 0x31,
   0x01, 0x01, 0x01, 0x01, 0x01, 0x21, 0x01, 0x21, 0x01, 0x01, 0x01, 0x02,
   0x21, 0x2e, 0x21, 0x23, 0x11, 0x23, 0x11, 0x23, 0x21, 0x21, 0x11, 0x31,
   0x11, 0x31, 0x11, 0x31, 0x11, 0x31, 0x11, 0x2e, 0x01, 0x21, 0x01, 0x21,
   0x3f, 0x1e, 0x3f, 0x1e, 0x01, 0x21, 0x01, 0x02, 0x0c, 0x0c, 0x1f, 0x1d,
   0x0f, 0x1d, 0x0f, 0x1d, 0x1e, 0x1e, 0x0f, 0x2e, 0x0f, 0x2e, 0x0f, 0x2e,
   0x0f, 0x2e, 0x0f, 0x00, 0x3f, 0x1e, 0x3f, 0x1e, 0x00, 0x00, 0x00, 0x00,
   0x3f, 0x1e, 0x01, 0x02, 0x12, 0x12, 0x00, 0x00, 0x00, 0x00, 0x00, 0x00,
   0x08, 0x08, 0x00, 0x00, 0x00, 0x00, 0x00, 0x00, 0x08, 0x08, 0x0c, 0x0c,
   0x00, 0x00, 0x00, 0x00, 0x0c, 0x0c, 0x26, 0x26, 0x08, 0x08, 0x00, 0x00,
   0x0c, 0x0c, 0x00, 0x00, 0x0c, 0x0c, 0x1f, 0x3f, 0x04, 0x04, 0x00, 0x00,
   0x0c, 0x0c, 0x1f, 0x3f, 0x04, 0x04, 0x12, 0x12, 0x00, 0x00, 0x00, 0x00,
   0x12, 0x12, 0x19, 0x19, 0x04, 0x04, 0x00, 0x00, 0x00, 0x00, 0x00, 0x00,
   0x00, 0x00, 0x00, 0x00, 0x00, 0x00, 0x00, 0x00, 0x00, 0x00, 0x00, 0x00,
   0x00, 0x00, 0x00, 0x00, 0x00, 0x00, 0x00, 0x00, 0x00, 0x00, 0x00, 0x00,
   0x00, 0x00, 0x00, 0x00, 0x00, 0x00, 0x00, 0x00, 0x00, 0x00, 0x00, 0x00,
   0x00, 0x00, 0x00, 0x00, 0x00, 0x00, 0x00, 0x00, 0x00, 0x00, 0x00, 0x00,
   0x00, 0x00, 0x00, 0x00, 0x00, 0x00, 0x00, 0x00, 0x00, 0x00, 0x00, 0x00,
   0x00, 0x00, 0x00, 0x00, 0x00, 0x00, 0x00, 0x00, 0x00, 0x00, 0x00, 0x00,
   0x00, 0x00, 0x00, 0x00, 0x00, 0x00, 0x00, 0x00, 0x00, 0x00, 0x00, 0x00,
   0x00, 0x00, 0x00, 0x00, 0x00, 0x00, 0x00, 0x00, 0x00, 0x00, 0x00, 0x00,
   0x00, 0x00, 0x00, 0x00, 0x00, 0x00, 0x00, 0x00, 0x00, 0x00, 0x20, 0x20,
   0x10, 0x00, 0x00, 0x00, 0x00, 0x00, 0x00, 0x00, 0x00, 0x00, 0x00, 0x00,
   0x00, 0x00, 0x00, 0x00, 0x7e, 0x00, 0x18, 0x10, 0x00, 0x00, 0x24, 0x24,
   0x00, 0x00, 0x00, 0x00, 0x00, 0x00, 0x10, 0x10, 0x08, 0x40, 0x00, 0x00,
   0x00, 0x00, 0x00, 0x00, 0x7e, 0x7c, 0x00, 0x00, 0x00, 0x00, 0x20, 0x00,
   0x00, 0x00, 0x00, 0x02, 0x42, 0x02, 0x24, 0x24, 0x42, 0x04, 0x42, 0x04,
   0x7c, 0x00, 0x44, 0x00, 0x42, 0x24, 0x42, 0x04, 0x42, 0x04, 0x04, 0x18,
   0x00, 0x00, 0x04, 0x18, 0x04, 0x18, 0x10, 0x20, 0x3c, 0x7e, 0x42, 0x02,
   0x42, 0x02, 0x00, 0x00, 0x42, 0x04, 0x42, 0x04, 0x10, 0x30, 0x00, 0x24,
   0x22, 0x04, 0x22, 0x04, 0x22, 0x04, 0x04, 0x10, 0x02, 0x18, 0x04, 0x10,
   0x04, 0x10, 0x82, 0x10, 0x42, 0x00, 0x42, 0x02, 0x42, 0x02, 0x42, 0x02,
   0x42, 0x02, 0x42, 0x02, 0x10, 0x00, 0x7c, 0x00, 0x12, 0x04, 0x12, 0x04,
   0x12, 0x04, 0x04, 0x10, 0x02, 0x10, 0x04, 0x10, 0x04, 0x10, 0xc6, 0x00,
   0x02, 0x5c, 0x42, 0x3a, 0x42, 0x3a, 0x42, 0x02, 0x42, 0x3a, 0x3e, 0x3a,
   0x10, 0x30, 0x10, 0x18, 0x0a, 0x44, 0x0a, 0x44, 0x0a, 0x44, 0x04, 0x10,
   0x02, 0x10, 0x04, 0x10, 0x04, 0x10, 0xaa, 0x6e, 0x02, 0x22, 0x3e, 0x46,
   0x3e, 0x46, 0x42, 0x3a, 0x3e, 0x46, 0x21, 0x46, 0x08, 0x20, 0x10, 0x10,
   0x06, 0x34, 0x06, 0x34, 0x06, 0x34, 0x04, 0x10, 0x02, 0x10, 0x04, 0x10,
   0x02, 0x08, 0x92, 0x92, 0x39, 0x11, 0x21, 0x42, 0x21, 0x42, 0x3e, 0x46,
   0x21, 0x42, 0x21, 0x42, 0x08, 0x10, 0x08, 0x10, 0x05, 0x0c, 0x05, 0x0c,
   0x05, 0x0c, 0x02, 0x08, 0x01, 0x08, 0x02, 0x08, 0x02, 0x08, 0x49, 0x92,
   0x21, 0x0e, 0x21, 0x21, 0x21, 0x21, 0x21, 0x42, 0x21, 0x21, 0x21, 0x21,
   0x08, 0x10, 0x08, 0x08, 0x09, 0x12, 0x09, 0x12, 0x09, 0x12, 0x02, 0x08,
   0x01, 0x08, 0x02, 0x08, 0x02, 0x08, 0x41, 0x49, 0x31, 0x01, 0x21, 0x21,
   0x21, 0x21, 0x21, 0x21, 0x21, 0x21, 0x21, 0x21, 0x3e, 0x7c, 0x08, 0x08,
   0x11, 0x22, 0x11, 0x22, 0x11, 0x22, 0x02, 0x08, 0x01, 0x08, 0x02, 0x08,
   0x7e, 0x3e, 0x41, 0x49, 0x2e, 0x1e, 0x21, 0x21, 0x21, 0x21, 0x21, 0x21,
   0x21, 0x21, 0x00, 0x00, 0x00, 0x00, 0x3e, 0x3e, 0x21, 0x42, 0x21, 0x42,
   0x21, 0x42, 0x7e, 0x3e, 0x3f, 0x3e, 0x7e, 0x3e, 0x00, 0x00, 0x41, 0x41,
   0x00, 0x21, 0x00, 0x00, 0x00, 0x00, 0x00, 0x00, 0x10, 0x10, 0x21, 0x21,
   0x26, 0x4c, 0x00, 0x00, 0x00, 0x00, 0x00, 0x00, 0x00, 0x00, 0x00, 0x00,
   0x00, 0x00, 0x00, 0x00, 0x18, 0x08, 0x00, 0x00, 0x00, 0x1e, 0x00, 0x00,
   0x0c, 0x0c, 0x00, 0x00, 0x08, 0x08, 0x1e, 0x1e, 0x19, 0x32, 0x00, 0x00,
   0x00, 0x00, 0x0c, 0x18, 0x3f, 0x7e, 0x18, 0x18, 0x0c, 0x18, 0x7e, 0x3e,
   0x24, 0x14, 0x00, 0x00, 0x00, 0x00, 0x00, 0x00, 0x00, 0x00, 0x00, 0x00,
   0x00, 0x00, 0x00, 0x00, 0x00, 0x00, 0x00, 0x00, 0x00, 0x00, 0x00, 0x00,
   0x00, 0x00, 0x00, 0x00, 0x00, 0x00, 0x00, 0x00, 0x00, 0x00, 0x00, 0x00,
   0x00, 0x00, 0x00, 0x00, 0x00, 0x00, 0x00, 0x00, 0x00, 0x00, 0x00, 0x00,
   0x00, 0x00, 0x00, 0x00, 0x00, 0x00, 0x00, 0x00, 0x00, 0x00, 0x00, 0x00,
   0x00, 0x00, 0x00, 0x00, 0x00, 0x00, 0x00, 0x00, 0x00, 0x00, 0x00, 0x00,
   0x00, 0x00, 0x00, 0x00, 0x00, 0x00, 0x00, 0x00, 0x00, 0x00, 0x00, 0x00,
   0x00, 0x00, 0x00, 0x00, 0x00, 0x00, 0x00, 0x00, 0x00, 0x00, 0x00, 0x00,
   0x00, 0x00, 0x00, 0x00, 0x00, 0x00, 0x00, 0x00, 0x00, 0x00, 0x00, 0x00,
   0x00, 0x00, 0x00, 0x00, 0x40, 0x20, 0x48, 0x00, 0x08, 0x04, 0x20, 0x20,
   0x00, 0x00, 0x00, 0x00, 0x00, 0x00, 0x00, 0x00, 0x00, 0x00, 0x00, 0x00,
   0x18, 0x00, 0x00, 0x00, 0x18, 0x00, 0x00, 0x00, 0x00, 0x00, 0x00, 0x00,
   0x20, 0x10, 0x00, 0x24, 0x10, 0x08, 0x10, 0x10, 0x10, 0x00, 0x18, 0x00,
   0x18, 0x00, 0x00, 0x00, 0x3c, 0x00, 0x00, 0x00, 0x00, 0x10, 0x82, 0x00,
   0x00, 0x00, 0x42, 0x00, 0x42, 0x00, 0x42, 0x00, 0x98, 0x00, 0x98, 0x00,
   0x7c, 0x00, 0x7c, 0x00, 0x08, 0x10, 0x00, 0x00, 0x00, 0x00, 0x3e, 0x00,
   0x00, 0x00, 0x3e, 0x00, 0x82, 0x10, 0x82, 0x00, 0x42, 0x18, 0x42, 0x00,
   0x42, 0x00, 0x42, 0x00, 0x64, 0x4c, 0x64, 0x4c, 0x00, 0x3c, 0x00, 0x3c,
   0x00, 0x08, 0x3e, 0x18, 0x3e, 0x18, 0x42, 0x00, 0x3e, 0x3c, 0x42, 0x00,
   0xc6, 0x00, 0xc6, 0x00, 0x42, 0x00, 0x46, 0x00, 0x46, 0x00, 0x46, 0x00,
   0x00, 0x32, 0x00, 0x32, 0x7c, 0x00, 0x7c, 0x00, 0x3e, 0x00, 0x42, 0x00,
   0x42, 0x00, 0x42, 0x00, 0x42, 0x00, 0x42, 0x00, 0xaa, 0x6e, 0xaa, 0x6e,
   0x46, 0x3a, 0x4a, 0x3a, 0x4a, 0x3a, 0x4a, 0x3a, 0x7c, 0x00, 0x7c, 0x00,
   0x82, 0x3c, 0x82, 0x3c, 0x42, 0x3a, 0x42, 0x3a, 0x42, 0x3a, 0x42, 0x3a,
   0x42, 0x3a, 0x42, 0x3a, 0x92, 0x92, 0x92, 0x92, 0x4a, 0x46, 0x52, 0x46,
   0x52, 0x46, 0x52, 0x46, 0x82, 0x3c, 0x82, 0x3c, 0x82, 0x42, 0x82, 0x42,
   0x42, 0x46, 0x3e, 0x46, 0x3e, 0x44, 0x3e, 0x44, 0x3e, 0x44, 0x3e, 0x44,
   0x41, 0x92, 0x49, 0x92, 0x29, 0x42, 0x31, 0x42, 0x31, 0x42, 0x31, 0x42,
   0x82, 0x42, 0x82, 0x42, 0x41, 0x42, 0x41, 0x42, 0x3e, 0x42, 0x01, 0x42,
   0x05, 0x04, 0x05, 0x04, 0x05, 0x04, 0x05, 0x04, 0x41, 0x49, 0x41, 0x49,
   0x31, 0x21, 0x21, 0x21, 0x21, 0x21, 0x21, 0x21, 0x41, 0x41, 0x41, 0x41,
   0x41, 0x21, 0x41, 0x21, 0x01, 0x22, 0x01, 0x22, 0x09, 0x02, 0x09, 0x02,
   0x09, 0x02, 0x09, 0x02, 0x41, 0x49, 0x41, 0x49, 0x21, 0x21, 0x21, 0x21,
   0x21, 0x21, 0x21, 0x21, 0x41, 0x21, 0x41, 0x21, 0x41, 0x21, 0x41, 0x21,
   0x01, 0x1d, 0x01, 0x1d, 0x11, 0x02, 0x11, 0x02, 0x11, 0x02, 0x11, 0x02,
   0x41, 0x41, 0x41, 0x41, 0x21, 0x21, 0x21, 0x21, 0x21, 0x21, 0x00, 0x21,
   0x3e, 0x1e, 0x3e, 0x1e, 0x3e, 0x1e, 0x3e, 0x1e, 0x01, 0x01, 0x01, 0x01,
   0x21, 0x02, 0x21, 0x02, 0x21, 0x02, 0x21, 0x02, 0x00, 0x00, 0x08, 0x08,
   0x00, 0x00, 0x00, 0x00, 0x00, 0x00, 0x0c, 0x0c, 0x00, 0x00, 0x00, 0x00,
   0x00, 0x00, 0x00, 0x00, 0x00, 0x01, 0x00, 0x01, 0x00, 0x00, 0x00, 0x00,
   0x00, 0x00, 0x00, 0x00, 0x00, 0x00, 0x08, 0x08, 0x00, 0x00, 0x0c, 0x0c,
   0x3f, 0x3f, 0x12, 0x12, 0x00, 0x00, 0x00, 0x00, 0x00, 0x00, 0x00, 0x00,
   0x00, 0x01, 0x00, 0x01, 0x00, 0x00, 0x0c, 0x0c, 0x0c, 0x0c, 0x3f, 0x3f,
   0x00, 0x00, 0x00, 0x00, 0x00, 0x00, 0x00, 0x00, 0x00, 0x00, 0x00, 0x00,
   0x00, 0x00, 0x00, 0x00, 0x00, 0x00, 0x00, 0x00, 0x00, 0x00, 0x00, 0x00,
   0x00, 0x00, 0x00, 0x00, 0x00, 0x00, 0x00, 0x00, 0x00, 0x00, 0x00, 0x00,
   0x00, 0x00, 0x00, 0x00, 0x00, 0x00, 0x00, 0x00, 0x00, 0x00, 0x00, 0x00,
   0x00, 0x00, 0x00, 0x00, 0x00, 0x00, 0x00, 0x00, 0x00, 0x00, 0x00, 0x00,
   0x00, 0x00, 0x00, 0x00, 0x00, 0x00, 0x00, 0x00, 0x00, 0x00, 0x00, 0x00,
   0x00, 0x00, 0x00, 0x00, 0x00, 0x00, 0x00, 0x00, 0x00, 0x00, 0x00, 0x00,
   0x00, 0x00, 0x00, 0x00, 0x00, 0x00, 0x00, 0x00, 0x00, 0x00, 0x00, 0x00,
   0x00, 0x00, 0x00, 0x00, 0x04, 0x00, 0x18, 0x18, 0x00, 0x00, 0x00, 0x00,
   0x00, 0x00, 0x00, 0x00, 0x00, 0x00, 0x00, 0x00, 0x00, 0x00, 0x00, 0x00,
   0x20, 0x20, 0x24, 0x00, 0x00, 0x00, 0x00, 0x00, 0x18, 0x00, 0x00, 0x00,
   0x10, 0x04, 0x00, 0x00, 0x18, 0x00, 0x08, 0x0c, 0x00, 0x00, 0x00, 0x00,
   0x00, 0x00, 0x00, 0x00, 0x00, 0x00, 0x00, 0x00, 0x10, 0x10, 0x00, 0x44,
   0x4c, 0x00, 0x00, 0x00, 0x00, 0x00, 0x3c, 0x00, 0x08, 0x10, 0x24, 0x24,
   0x00, 0x00, 0x00, 0x00, 0x7f, 0x00, 0xfe, 0x00, 0x7f, 0x00, 0x42, 0x00,
   0x42, 0x00, 0x42, 0x00, 0x4c, 0x00, 0x3c, 0x00, 0x32, 0x4c, 0x41, 0x00,
   0x3c, 0x18, 0x42, 0x00, 0x00, 0x08, 0x18, 0x18, 0x3c, 0x18, 0x7f, 0x04,
   0x08, 0x04, 0x10, 0x08, 0x08, 0x04, 0x42, 0x00, 0x42, 0x00, 0x42, 0x00,
   0x32, 0x4c, 0x00, 0x7c, 0x00, 0x32, 0x41, 0x00, 0x42, 0x00, 0x02, 0x00,
   0x3c, 0x00, 0x3c, 0x00, 0x42, 0x00, 0x08, 0x04, 0x08, 0x04, 0x10, 0x08,
   0x08, 0x04, 0x42, 0x00, 0x42, 0x00, 0x42, 0x00, 0x00, 0x32, 0x42, 0x00,
   0x41, 0x00, 0x22, 0x00, 0x02, 0x3c, 0x02, 0x3c, 0x42, 0x3c, 0x42, 0x3c,
   0x02, 0x3c, 0x08, 0x3e, 0x08, 0x3e, 0x10, 0x7c, 0x08, 0x3e, 0x42, 0x44,
   0x42, 0x44, 0x42, 0x44, 0x42, 0x00, 0x42, 0x44, 0x41, 0x44, 0x22, 0x22,
   0x1c, 0x42, 0x1c, 0x42, 0x02, 0x42, 0x02, 0x42, 0x1c, 0x42, 0x08, 0x04,
   0x08, 0x04, 0x10, 0x08, 0x08, 0x04, 0x42, 0x44, 0x21, 0x44, 0x21, 0x44,
   0x42, 0x22, 0x42, 0x44, 0x21, 0x44, 0x22, 0x22, 0x20, 0x0c, 0x20, 0x0c,
   0x1c, 0x0c, 0x1c, 0x0c, 0x20, 0x0c, 0x04, 0x02, 0x04, 0x04, 0x08, 0x04,
   0x04, 0x02, 0x21, 0x44, 0x21, 0x22, 0x21, 0x22, 0x21, 0x22, 0x21, 0x22,
   0x12, 0x24, 0x12, 0x12, 0x20, 0x10, 0x20, 0x10, 0x20, 0x10, 0x20, 0x10,
   0x20, 0x10, 0x04, 0x02, 0x04, 0x02, 0x08, 0x04, 0x04, 0x22, 0x21, 0x22,
   0x21, 0x22, 0x21, 0x22, 0x21, 0x11, 0x21, 0x22, 0x0a, 0x14, 0x0a, 0x0a,
   0x21, 0x21, 0x21, 0x21, 0x21, 0x21, 0x21, 0x21, 0x21, 0x21, 0x04, 0x22,
   0x04, 0x22, 0x08, 0x44, 0x04, 0x1c, 0x21, 0x22, 0x1e, 0x5c, 0x1e, 0x5c,
   0x21, 0x11, 0x21, 0x22, 0x0a, 0x14, 0x0a, 0x0a, 0x1e, 0x1e, 0x1e, 0x1e,
   0x1e, 0x1e, 0x1e, 0x1e, 0x1e, 0x1e, 0x04, 0x1c, 0x04, 0x1c, 0x08, 0x38,
   0x00, 0x00, 0x1e, 0x5c, 0x00, 0x00, 0x00, 0x00, 0x1e, 0x2e, 0x1e, 0x5c,
   0x04, 0x08, 0x04, 0x04, 0x00, 0x00, 0x00, 0x00, 0x00, 0x00, 0x00, 0x00,
   0x00, 0x00, 0x00, 0x00, 0x00, 0x00, 0x00, 0x00, 0x04, 0x0c, 0x00, 0x00,
   0x26, 0x4c, 0x0c, 0x18, 0x00, 0x00, 0x00, 0x00, 0x00, 0x00, 0x00, 0x00,
   0x00, 0x00, 0x0c, 0x0c, 0x00, 0x00, 0x00, 0x00, 0x0c, 0x0c, 0x00, 0x00,
   0x04, 0x0c, 0x7f, 0x7e, 0x0a, 0x12, 0x33, 0x36, 0x19, 0x32, 0x12, 0x24,
   0x00, 0x00, 0x00, 0x00, 0x00, 0x00, 0x0c, 0x0c, 0x00, 0x00, 0x00, 0x00,
   0x00, 0x00, 0x00, 0x00, 0x00, 0x00, 0x00, 0x00, 0x00, 0x00, 0x00, 0x00,
   0x00, 0x00, 0x00, 0x00, 0x00, 0x00, 0x00, 0x00, 0x00, 0x00, 0x00, 0x00,
   0x00, 0x00, 0x00, 0x00, 0x00, 0x00, 0x00, 0x00, 0x00, 0x00, 0x00, 0x00,
   0x00, 0x00, 0x00, 0x00, 0x00, 0x00, 0x00, 0x00, 0x00, 0x00, 0x00, 0x00,
   0x00, 0x00, 0x00, 0x00, 0x00, 0x00, 0x00, 0x00, 0x00, 0x00, 0x00, 0x00,
   0x00, 0x00, 0x00, 0x00, 0x00, 0x00, 0x00, 0x00, 0x00, 0x00, 0x00, 0x00,
   0x00, 0x00, 0x00, 0x00, 0x00, 0x00, 0x00, 0x00, 0x00, 0x00, 0x00, 0x00,
   0x00, 0x00, 0x00, 0x00, 0x00, 0x00, 0x00, 0x00, 0x00, 0x00, 0x00, 0x00,
   0x00, 0x00, 0x00, 0x00, 0x00, 0x00, 0x00, 0x00, 0x00, 0x00, 0x00, 0x00,
   0x00, 0x00, 0x00, 0x00, 0x00, 0x00, 0x00, 0x00, 0x00, 0x00, 0x20, 0x00,
   0x00, 0x00, 0x00, 0x00, 0x08, 0x00, 0x20, 0x00, 0x44, 0x00, 0x10, 0x00,
   0x00, 0x00, 0x10, 0x00, 0x44, 0x00, 0x08, 0x00, 0x18, 0x00, 0x00, 0x00,
   0x00, 0x00, 0x00, 0x14, 0x00, 0x00, 0x40, 0x30, 0x00, 0x00, 0x00, 0x00,
   0x10, 0x08, 0x10, 0x20, 0x44, 0x44, 0x10, 0x10, 0x82, 0x00, 0x10, 0x00,
   0x44, 0x24, 0x08, 0x00, 0x24, 0x18, 0x7e, 0x00, 0x7e, 0x00, 0x02, 0x14,
   0x18, 0x18, 0x40, 0x00, 0x00, 0x00, 0x00, 0x00, 0x00, 0x10, 0x00, 0x10,
   0x00, 0x44, 0x82, 0x10, 0x82, 0x00, 0x00, 0x18, 0x00, 0x24, 0x41, 0x18,
   0x00, 0x24, 0x40, 0x00, 0x40, 0x00, 0x02, 0x00, 0x24, 0x24, 0x20, 0x30,
   0x00, 0x00, 0x00, 0x00, 0x82, 0x00, 0x82, 0x00, 0x82, 0x00, 0x82, 0x00,
   0x82, 0x00, 0x82, 0x00, 0x82, 0x00, 0x41, 0x00, 0x7e, 0x00, 0x20, 0x00,
   0x20, 0x00, 0x02, 0x04, 0x18, 0x18, 0x00, 0x48, 0x00, 0x00, 0x00, 0x00,
   0x82, 0x82, 0x82, 0x82, 0x82, 0x82, 0x82, 0x82, 0x82, 0x82, 0x44, 0x42,
   0x44, 0x42, 0x22, 0x42, 0x40, 0x7e, 0x10, 0x7e, 0x10, 0x7e, 0x3a, 0x04,
   0x82, 0x42, 0x3c, 0x08, 0x00, 0x00, 0x00, 0x00, 0x92, 0x82, 0x92, 0x82,
   0x92, 0x82, 0x92, 0x82, 0x92, 0x82, 0x28, 0x24, 0x28, 0x24, 0x14, 0x42,
   0x30, 0x20, 0x08, 0x20, 0x08, 0x20, 0x46, 0x3e, 0x82, 0x42, 0x40, 0x08,
   0x00, 0x00, 0x00, 0x00, 0x49, 0x49, 0x49, 0x49, 0x49, 0x49, 0x49, 0x49,
   0x49, 0x49, 0x18, 0x18, 0x18, 0x18, 0x08, 0x21, 0x08, 0x18, 0x04, 0x18,
   0x04, 0x18, 0x42, 0x04, 0x49, 0x21, 0x3e, 0x06, 0x00, 0x00, 0x00, 0x00,
   0x49, 0x49, 0x49, 0x49, 0x49, 0x49, 0x49, 0x49, 0x49, 0x49, 0x14, 0x0c,
   0x14, 0x0c, 0x08, 0x31, 0x04, 0x04, 0x02, 0x04, 0x02, 0x04, 0x21, 0x02,
   0x49, 0x31, 0x21, 0x04, 0x00, 0x00, 0x00, 0x00, 0x55, 0x55, 0x55, 0x55,
   0x55, 0x55, 0x55, 0x55, 0x55, 0x55, 0x22, 0x12, 0x22, 0x12, 0x04, 0x2e,
   0x02, 0x02, 0x01, 0x02, 0x01, 0x02, 0x21, 0x22, 0x55, 0x2e, 0x31, 0x04,
   0x00, 0x00, 0x00, 0x00, 0x22, 0x22, 0x22, 0x22, 0x22, 0x22, 0x22, 0x22,
   0x22, 0x22, 0x41, 0x21, 0x41, 0x21, 0x04, 0x20, 0x3f, 0x3f, 0x3f, 0x3f,
   0x3f, 0x3f, 0x21, 0x1c, 0x22, 0x20, 0x2e, 0x04, 0x00, 0x00, 0x00, 0x00,
   0x00, 0x00, 0x00, 0x00, 0x00, 0x00, 0x00, 0x00, 0x08, 0x08, 0x00, 0x00,
   0x00, 0x00, 0x00, 0x21, 0x00, 0x00, 0x00, 0x00, 0x00, 0x00, 0x00, 0x00,
   0x00, 0x21, 0x00, 0x00, 0x00, 0x00, 0x00, 0x00, 0x00, 0x00, 0x00, 0x00,
   0x00, 0x00, 0x00, 0x00, 0x08, 0x08, 0x00, 0x00, 0x00, 0x00, 0x00, 0x1e,
   0x00, 0x00, 0x0c, 0x0c, 0x1e, 0x1e, 0x1e, 0x00, 0x00, 0x1e, 0x00, 0x00,
   0x00, 0x00, 0x00, 0x00, 0x00, 0x00, 0x00, 0x00, 0x00, 0x00, 0x00, 0x00,
   0x00, 0x00, 0x00, 0x00, 0x00, 0x00, 0x00, 0x00, 0x00, 0x00, 0x00, 0x00,
   0x00, 0x00, 0x00, 0x00, 0x00, 0x00, 0x00, 0x00, 0x00, 0x00, 0x00, 0x00,
   0x00, 0x00, 0x00, 0x00, 0x00, 0x00, 0x00, 0x00, 0x00, 0x00, 0x00, 0x00,
   0x00, 0x00, 0x00, 0x00, 0x00, 0x00, 0x00, 0x00, 0x00, 0x00, 0x00, 0x00,
   0x00, 0x00, 0x00, 0x00, 0x00, 0x00, 0x00, 0x00, 0x00, 0x00, 0x00, 0x00,
   0x00, 0x00, 0x00, 0x00, 0x00, 0x00, 0x00, 0x00, 0x00, 0x00, 0x00, 0x00,
   0x00, 0x00, 0x00, 0x00, 0x00, 0x00, 0x00, 0x00, 0x00, 0x00, 0x00, 0x00,
   0x00, 0x00, 0x00, 0x00, 0x00, 0x00, 0x00, 0x00, 0x00, 0x00, 0x00, 0x00,
   0x00, 0x00, 0x00, 0x00, 0x00, 0x00, 0x00, 0x00, 0x00, 0x00, 0x00, 0x00,
   0x00, 0x00, 0x00, 0x00, 0x00, 0x00, 0x00, 0x00, 0x00, 0x00, 0x00, 0x00,
   0x00, 0x00, 0x00, 0x00, 0x00, 0x00, 0x00, 0x00, 0x00, 0x00, 0x00, 0x00,
   0x00, 0x00, 0x00, 0x00, 0x00, 0x00, 0x00, 0x00, 0x00, 0x00, 0x00, 0x00,
   0x00, 0x00, 0x00, 0x00, 0x00, 0x00, 0x00, 0x00, 0x00, 0x00, 0x00, 0x00,
   0x00, 0x00, 0x00, 0x00, 0x00, 0x00, 0x00, 0x00, 0x00, 0x00, 0x00, 0x00,
   0x00, 0x00, 0x00, 0x00, 0x00, 0x00, 0x00, 0x00, 0x00, 0x00, 0x00, 0x00,
   0x00, 0x00, 0x00, 0x00, 0x00, 0x00, 0x00, 0x00, 0x00, 0x00, 0x00, 0x00,
   0x00, 0x00, 0x00, 0x00, 0x00, 0x00, 0x00, 0x00, 0x00, 0x00, 0x00, 0x00,
   0x00, 0x00, 0x00, 0x00, 0x00, 0x00, 0x00, 0x00, 0x00, 0x00, 0x00, 0x00,
   0x00, 0x00, 0x00, 0x00, 0x00, 0x00, 0x00, 0x00, 0x00, 0x00, 0x00, 0x00,
   0x00, 0x00, 0x00, 0x00, 0x00, 0x00, 0x00, 0x00, 0x00, 0x00, 0x00, 0x00,
   0x00, 0x00, 0x00, 0x00, 0x00, 0x00, 0x00, 0x00, 0x00, 0x00, 0x00, 0x00,
   0x00, 0x00, 0x00, 0x00, 0x00, 0x00, 0x00, 0x00, 0x00, 0x00, 0x00, 0x00,
   0x00, 0x00, 0x00, 0x00, 0x00, 0x00, 0x00, 0x00, 0x00, 0x00, 0x00, 0x00,
   0x00, 0x00, 0x00, 0x00, 0x00, 0x00, 0x00, 0x00, 0x00, 0x00, 0x00, 0x00,
   0x00, 0x00, 0x00, 0x00, 0x00, 0x00, 0x00, 0x00, 0x00, 0x00, 0x00, 0x00,
   0x00, 0x00, 0x00, 0x00, 0x00, 0x00, 0x00, 0x00, 0x00, 0x00, 0x00, 0x00,
   0x00, 0x00, 0x00, 0x00, 0x00, 0x00, 0x00, 0x00, 0x00, 0x00, 0x00, 0x00,
   0x00, 0x00, 0x00, 0x00, 0x00, 0x00, 0x00, 0x00, 0x00, 0x00, 0x00, 0x00,
   0x00, 0x00, 0x00, 0x00, 0x00, 0x00, 0x00, 0x00, 0x00, 0x00, 0x00, 0x00,
   0x00, 0x00, 0x00, 0x00, 0x00, 0x00, 0x00, 0x00, 0x00, 0x00, 0x00, 0x00,
   0x00, 0x00, 0x00, 0x00, 0x00, 0x00, 0x00, 0x00, 0x00, 0x00, 0x00, 0x00,
   0x00, 0x00, 0x00, 0x00, 0x00, 0x00, 0x00, 0x00, 0x00, 0x00, 0x00, 0x00,
   0x00, 0x00, 0x00, 0x00, 0x00, 0x00, 0x00, 0x00, 0x00, 0x00, 0x00, 0x00,
   0x00, 0x00, 0x00, 0x00, 0x00, 0x00, 0x00, 0x00, 0x00, 0x00, 0x00, 0x00,
   0x00, 0x00, 0x00, 0x00, 0x00, 0x00, 0x00, 0x00, 0x00, 0x00, 0x00, 0x00,
   0x00, 0x00, 0x00, 0x00, 0x00, 0x00, 0x00, 0x00, 0x00, 0x00, 0x00, 0x00,
   0x00, 0x00, 0x00, 0x00, 0x00, 0x00, 0x00, 0x00, 0x00, 0x00, 0x00, 0x00,
   0x00, 0x00, 0x00, 0x00, 0x00, 0x00, 0x00, 0x00, 0x00, 0x00, 0x00, 0x00,
   0x00, 0x00, 0x00, 0x00, 0x00, 0x00, 0x00, 0x00, 0x00, 0x00, 0x00, 0x00,
   0x00, 0x00, 0x00, 0x00, 0x00, 0x00, 0x00, 0x00, 0x00, 0x00, 0x00, 0x00,
   0x00, 0x00, 0x00, 0x00, 0x00, 0x00, 0x00, 0x00, 0x00, 0x00, 0x00, 0x00,
   0x00, 0x00, 0x00, 0x00, 0x00, 0x00, 0x00, 0x00, 0x00, 0x00, 0x00, 0x00,
   0x00, 0x00, 0x00, 0x00, 0x00, 0x00, 0x00, 0x00, 0x00, 0x00, 0x00, 0x00,
   0x00, 0x00, 0x00, 0x00, 0x00, 0x00, 0x00, 0x00, 0x00, 0x00, 0x00, 0x00,
   0x00, 0x00, 0x00, 0x00, 0x00, 0x00, 0x00, 0x00, 0x00, 0x00, 0x00, 0x00,
   0x00, 0x00, 0x00, 0x00, 0x00, 0x00, 0x00, 0x00, 0x00, 0x00, 0x00, 0x00,
   0x00, 0x00, 0x00, 0x00, 0x00, 0x00, 0x00, 0x00, 0x00, 0x00, 0x00, 0x00,
   0x00, 0x00, 0x00, 0x00, 0x00, 0x00, 0x00, 0x00, 0x00, 0x00, 0x00, 0x00,
   0x00, 0x00, 0x00, 0x00, 0x00, 0x00, 0x00, 0x00, 0x00, 0x00, 0x00, 0x00,
   0x00, 0x00, 0x00, 0x00, 0x00, 0x00, 0x00, 0x00, 0x00, 0x00, 0x00, 0x00,
   0x00, 0x00, 0x00, 0x00, 0x00, 0x00, 0x00, 0x00, 0x00, 0x00, 0x00, 0x00,
   0x00, 0x00, 0x00, 0x00, 0x00, 0x00, 0x00, 0x00, 0x00, 0x00, 0x00, 0x00,
   0x00, 0x00, 0x00, 0x00, 0x00, 0x00, 0x00, 0x00, 0x00, 0x00, 0x00, 0x00,
   0x00, 0x00, 0x00, 0x00, 0x00, 0x00, 0x00, 0x00, 0x00, 0x00, 0x00, 0x00,
   0x00, 0x00, 0x00, 0x00, 0x00, 0x00, 0x00, 0x00, 0x00, 0x00, 0x00, 0x00,
   0x00, 0x00, 0x00, 0x00, 0x00, 0x00, 0x00, 0x00, 0x00, 0x00, 0x00, 0x00,
   0x00, 0x00, 0x00, 0x00, 0x00, 0x00, 0x00, 0x00, 0x00, 0x00, 0x00, 0x00,
   0x00, 0x00, 0x00, 0x00, 0x00, 0x00, 0x00, 0x00, 0x00, 0x00, 0x00, 0x00,
   0x00, 0x00, 0x00, 0x00, 0x00, 0x00, 0x00, 0x00, 0x00, 0x00, 0x00, 0x00,
   0x00, 0x00, 0x00, 0x00, 0x00, 0x00, 0x00, 0x00, 0x00, 0x00, 0x00, 0x00,
   0x00, 0x00, 0x00, 0x00, 0x00, 0x00, 0x00, 0x00, 0x00, 0x00, 0x00, 0x00,
   0x00, 0x00, 0x00, 0x00, 0x00, 0x00, 0x00, 0x00, 0x00, 0x00, 0x00, 0x00,
   0x00, 0x00, 0x00, 0x00, 0x00, 0x00, 0x00, 0x00, 0x00, 0x00, 0x00, 0x00,
   0x00, 0x00, 0x00, 0x00, 0x00, 0x00, 0x00, 0x00, 0x00, 0x00, 0x00, 0x00,
   0x00, 0x00, 0x00, 0x00, 0x00, 0x00, 0x00, 0x00, 0x00, 0x00, 0x00, 0x00,
   0x00, 0x00, 0x00, 0x00, 0x00, 0x00, 0x00, 0x00, 0x00, 0x00, 0x00, 0x00,
   0x00, 0x00, 0x00, 0x00, 0x00, 0x00, 0x00, 0x00, 0x00, 0x00, 0x00, 0x00,
   0x00, 0x00, 0x00, 0x00, 0x00, 0x00, 0x00, 0x00, 0x00, 0x00, 0x00, 0x00,
   0x00, 0x00, 0x00, 0x00, 0x00, 0x00, 0x00, 0x00, 0x00, 0x00, 0x00, 0x00,
   0x00, 0x00, 0x00, 0x00, 0x00, 0x00, 0x00, 0x00, 0x00, 0x00, 0x00, 0x00,
   0x00, 0x00, 0x00, 0x00, 0x00, 0x00, 0x00, 0x00, 0x00, 0x00, 0x00, 0x00,
   0x00, 0x00, 0x00, 0x00, 0x00, 0x00, 0x00, 0x00, 0x00, 0x00, 0x00, 0x00,
   0x00, 0x00, 0x00, 0x00, 0x00, 0x00, 0x00, 0x00, 0x00, 0x00, 0x00, 0x00,
   0x00, 0x00, 0x00, 0x00, 0x00, 0x00, 0x00, 0x00, 0x00, 0x00, 0x00, 0x00,
   0x00, 0x00, 0x00, 0x00, 0x00, 0x00, 0x00, 0x00, 0x00, 0x00, 0x00, 0x00,
   0x00, 0x00, 0x00, 0x00, 0x00, 0x00, 0x00, 0x00, 0x00, 0x00, 0x00, 0x00,
   0x00, 0x00, 0x00, 0x00, 0x00, 0x00, 0x00, 0x00, 0x00, 0x00, 0x00, 0x00,
   0x00, 0x00, 0x00, 0x00, 0x00, 0x00, 0x00, 0x00, 0x00, 0x00, 0x00, 0x00,
   0x00, 0x00, 0x00, 0x00, 0x00, 0x00, 0x00, 0x00, 0x00, 0x00, 0x00, 0x00,
   0x00, 0x00, 0x00, 0x00, 0x00, 0x00, 0x00, 0x00, 0x00, 0x00, 0x00, 0x00,
   0x00, 0x00, 0x00, 0x00, 0x00, 0x00, 0x00, 0x00, 0x00, 0x00, 0x00, 0x00,
   0x00, 0x00, 0x00, 0x00, 0x00, 0x00, 0x00, 0x00, 0x00, 0x00, 0x00, 0x00,
   0x00, 0x00, 0x00, 0x00, 0x00, 0x00, 0x00, 0x00, 0x00, 0x00, 0x00, 0x00,
   0x00, 0x00, 0x00, 0x00, 0x00, 0x00, 0x00, 0x00, 0x00, 0x00, 0x00, 0x00,
   0x00, 0x00, 0x00, 0x00, 0x00, 0x00, 0x00, 0x00, 0x00, 0x00, 0x00, 0x00,
   0x00, 0x00, 0x00, 0x00, 0x00, 0x00, 0x00, 0x00, 0x00, 0x00, 0x00, 0x00,
   0x00, 0x00, 0x00, 0x00, 0x00, 0x00, 0x00, 0x00, 0x00, 0x00, 0x00, 0x00,
   0x00, 0x00, 0x00, 0x00, 0x00, 0x00, 0x00, 0x00, 0x00, 0x00, 0x00, 0x00,
   0x00, 0x00, 0x00, 0x00, 0x00, 0x00, 0x00, 0x00, 0x00, 0x00, 0x00, 0x00,
   0x00, 0x00, 0x00, 0x00, 0x00, 0x00, 0x00, 0x00, 0x00, 0x00, 0x00, 0x00,
   0x00, 0x00, 0x00, 0x00, 0x00, 0x00, 0x00, 0x00, 0x00, 0x00, 0x00, 0x00,
   0x00, 0x00, 0x00, 0x00, 0x00, 0x00, 0x00, 0x00, 0x00, 0x00, 0x00, 0x00,
   0x00, 0x00, 0x00, 0x00, 0x00, 0x00, 0x00, 0x00, 0x00, 0x00, 0x00, 0x00,
   0x00, 0x00, 0x00, 0x00, 0x00, 0x00, 0x00, 0x00, 0x00, 0x00, 0x00, 0x00,
   0x00, 0x00, 0x00, 0x00, 0x00, 0x00, 0x00, 0x00, 0x00, 0x00, 0x00, 0x00,
   0x00, 0x00, 0x00, 0x00, 0x00, 0x00, 0x00, 0x00, 0x00, 0x00, 0x00, 0x00,
   0x00, 0x00, 0x00, 0x00, 0x00, 0x00, 0x00, 0x00, 0x00, 0x00, 0x04, 0x00,
   0x00, 0x00, 0x00, 0x00, 0x00, 0x00, 0x00, 0x00, 0x00, 0x00, 0x00, 0x00,
   0x00, 0x00, 0x00, 0x00, 0x00, 0x00, 0x00, 0x00, 0x00, 0x00, 0x00, 0x00,
   0x00, 0x00, 0x00, 0x00, 0x00, 0x00, 0x08, 0x08, 0x00, 0x00, 0x00, 0x00,
   0x00, 0x00, 0x00, 0x00, 0x00, 0x00, 0x00, 0x00, 0x00, 0x00, 0x00, 0x00,
   0x00, 0x00, 0x00, 0x00, 0x00, 0x00, 0x00, 0x00, 0x00, 0x00, 0x00, 0x00,
   0x00, 0x00, 0x00, 0x10, 0x00, 0x00, 0x00, 0x00, 0x00, 0x00, 0x00, 0x00,
   0x00, 0x00, 0x00, 0x00, 0x00, 0x00, 0x00, 0x00, 0x00, 0x00, 0x00, 0x00,
   0x00, 0x00, 0x00, 0x00, 0x00, 0x00, 0x00, 0x00, 0x00, 0x00, 0x41, 0x00,
   0x00, 0x00, 0x00, 0x00, 0x00, 0x00, 0x00, 0x00, 0x00, 0x00, 0x00, 0x00,
   0x00, 0x00, 0x00, 0x00, 0x00, 0x00, 0x00, 0x00, 0x00, 0x00, 0x00, 0x00,
   0x00, 0x00, 0x00, 0x00, 0x00, 0x00, 0x22, 0x42, 0x00, 0x00, 0x00, 0x00,
   0x00, 0x00, 0x00, 0x00, 0x00, 0x00, 0x00, 0x00, 0x00, 0x00, 0x00, 0x00,
   0x00, 0x00, 0x00, 0x00, 0x00, 0x00, 0x00, 0x00, 0x00, 0x00, 0x00, 0x00,
   0x00, 0x00, 0x14, 0x42, 0x00, 0x00, 0x00, 0x00, 0x00, 0x00, 0x00, 0x00,
   0x00, 0x00, 0x00, 0x00, 0x00, 0x00, 0x00, 0x00, 0x00, 0x00, 0x00, 0x00,
   0x00, 0x00, 0x00, 0x00, 0x00, 0x00, 0x00, 0x00, 0x00, 0x00, 0x08, 0x21,
   0x00, 0x00, 0x00, 0x00, 0x00, 0x00, 0x00, 0x00, 0x00, 0x00, 0x00, 0x00,
   0x00, 0x00, 0x00, 0x00, 0x00, 0x00, 0x00, 0x00, 0x00, 0x00, 0x00, 0x00,
   0x00, 0x00, 0x00, 0x00, 0x00, 0x00, 0x08, 0x31, 0x00, 0x00, 0x00, 0x00,
   0x00, 0x00, 0x00, 0x00, 0x00, 0x00, 0x00, 0x00, 0x00, 0x00, 0x00, 0x00,
   0x00, 0x00, 0x00, 0x00, 0x00, 0x00, 0x00, 0x00, 0x00, 0x00, 0x00, 0x00,
   0x00, 0x00, 0x04, 0x2e, 0x00, 0x00, 0x00, 0x00, 0x00, 0x00, 0x00, 0x00,
   0x00, 0x00, 0x00, 0x00, 0x00, 0x00, 0x00, 0x00, 0x00, 0x00, 0x00, 0x00,
   0x00, 0x00, 0x00, 0x00, 0x00, 0x00, 0x00, 0x00, 0x00, 0x00, 0x04, 0x20,
   0x00, 0x00, 0x00, 0x00, 0x00, 0x00, 0x00, 0x00, 0x00, 0x00, 0x00, 0x00,
   0x00, 0x00, 0x00, 0x00, 0x00, 0x00, 0x00, 0x00, 0x00, 0x00, 0x00, 0x00,
   0x00, 0x00, 0x00, 0x00, 0x00, 0x00, 0x00, 0x21, 0x00, 0x00, 0x00, 0x00,
   0x00, 0x00, 0x00, 0x00, 0x00, 0x00, 0x00, 0x00, 0x00, 0x00, 0x00, 0x00,
   0x00, 0x00, 0x00, 0x00, 0x00, 0x00, 0x00, 0x00, 0x00, 0x00, 0x00, 0x00,
   0x00, 0x00, 0x00, 0x1e, 0x00, 0x00, 0x00, 0x00, 0x00, 0x00, 0x00, 0x00,
   0x00, 0x00, 0x00, 0x00, 0x00, 0x00, 0x00, 0x00, 0x00, 0x00, 0x00, 0x00,
   0x00, 0x00, 0x00, 0x00, 0x00, 0x00, 0x00, 0x00, 0x00, 0x00, 0x00, 0x00,
   0x00, 0x00, 0x00, 0x00, 0x00, 0x00, 0x00, 0x00, 0x00, 0x00, 0x00, 0x00,
   0x00, 0x00, 0x00, 0x00, 0x00, 0x00, 0x00, 0x00, 0x00, 0x00, 0x00, 0x00,
   0x00, 0x00, 0x00, 0x00, 0x00, 0x00, 0x00, 0x00, 0x00, 0x00, 0x00, 0x00,
   0x00, 0x00, 0x00, 0x00, 0x00, 0x00, 0x00, 0x00, 0x00, 0x00, 0x00, 0x00,
   0x00, 0x00, 0x00, 0x00, 0x00, 0x00, 0x00, 0x00, 0x00, 0x00, 0x00, 0x00,
   0x00, 0x00, 0x00, 0x00, 0x00, 0x00, 0x00, 0x00, 0x00, 0x00, 0x00, 0x00,
   0x00, 0x00, 0x00, 0x00 };
